<svg xmlns="http://www.w3.org/2000/svg" width="400" height="265" viewBox="0 0 400 265" version="1.1">
	<path d="M -0 132.502 L -0 265.005 200.250 264.752 L 400.500 264.500 400.754 132.250 L 401.007 0 200.504 0 L 0 0 -0 132.502 M 126.328 51.897 C 126.661 55.299, 127.206 58.525, 127.541 59.066 C 127.875 59.606, 127.840 61.451, 127.464 63.164 L 126.780 66.280 124.792 63.140 C 122.613 59.700, 121.702 59.059, 122.705 61.674 C 123.192 62.942, 122.942 63.192, 121.674 62.705 C 120.343 62.194, 120 62.665, 120 65 C 120 66.974, 119.581 67.776, 118.721 67.447 C 117.772 67.082, 117.544 68.055, 117.835 71.228 C 118.054 73.613, 117.846 75.131, 117.364 74.665 C 116.889 74.206, 116.449 72.631, 116.387 71.165 C 116.158 65.758, 115.977 65, 114.921 65 C 112.060 65, 120.306 92.002, 124.082 95 C 124.428 95.275, 125.035 97.300, 125.430 99.500 C 125.825 101.700, 126.828 104.556, 127.660 105.846 C 128.492 107.136, 129.392 110.511, 129.662 113.346 C 129.931 116.181, 130.659 120.075, 131.281 122 C 131.902 123.925, 132.329 125.804, 132.230 126.175 C 132.131 126.546, 132.713 129.021, 133.524 131.675 C 134.742 135.665, 134.788 137.451, 133.787 142 C 131.686 151.549, 133.586 234.852, 135.995 238.805 C 136.838 240.190, 136.933 240.042, 136.510 238 C 135.539 233.311, 135.185 204, 136.099 204 C 136.594 204, 137.056 206.363, 137.125 209.250 L 137.250 214.500 137.984 210 C 138.387 207.525, 138.377 200.775, 137.961 195 C 136.806 178.967, 136.877 144.194, 138.065 143.460 C 138.714 143.059, 138.836 143.804, 138.405 145.524 C 137.967 147.267, 138.179 148.493, 139.007 149.004 C 139.738 149.456, 141.259 155.768, 142.564 163.762 C 145.296 180.502, 150.158 205.176, 150.631 204.702 C 150.919 204.414, 146.914 179.914, 143.895 163.500 C 141.881 152.548, 140.916 143.839, 141.510 141.969 C 142.234 139.688, 145 139.291, 145 141.469 C 145 142.299, 145.594 142.709, 146.365 142.414 C 147.918 141.817, 152.180 146.505, 154.974 151.884 C 156.007 153.873, 158.163 156.355, 159.764 157.399 C 161.510 158.538, 163.419 161.215, 164.534 164.087 C 165.556 166.721, 166.696 168.688, 167.067 168.459 C 167.438 168.229, 167.996 169.935, 168.307 172.249 C 168.617 174.563, 169.350 176.617, 169.935 176.812 C 170.521 177.007, 171 178.858, 171 180.924 C 171 182.991, 171.670 186.891, 172.489 189.591 C 173.308 192.291, 173.990 196.525, 174.004 199 C 174.031 203.642, 175.871 208.551, 176.065 204.500 C 176.118 203.400, 177.019 207.450, 178.066 213.500 C 180.306 226.435, 180.960 229.373, 181.483 228.850 C 181.695 228.638, 181.004 222.847, 179.946 215.982 C 178.888 209.117, 178.011 201.925, 177.996 200 C 177.976 197.370, 177.728 196.873, 177 198 C 176.266 199.136, 175.999 198.651, 175.901 196 C 175.672 189.808, 175.165 187.219, 173.577 184.148 C 172.667 182.389, 172.255 179.971, 172.584 178.321 C 172.914 176.662, 172.500 174.264, 171.579 172.500 C 170.717 170.850, 170.010 168.488, 170.006 167.250 C 170.003 166.012, 169.602 165, 169.117 165 C 167.664 165, 166.969 160.639, 168.288 159.801 C 169.089 159.292, 168.823 159.023, 167.500 159.008 C 166.307 158.995, 164.511 157.476, 163.050 155.243 C 161.702 153.184, 160.127 150.851, 159.550 150.058 C 158.723 148.922, 158.819 148.800, 160 149.480 C 161.011 150.062, 160.908 149.668, 159.685 148.271 C 158.503 146.921, 158.241 145.969, 158.935 145.540 C 160.895 144.329, 160.029 143.228, 156.610 142.587 C 154.311 142.155, 153.043 141.271, 152.668 139.838 C 152.189 138.008, 151.607 137.807, 148.308 138.331 C 143.895 139.033, 142.649 137.373, 140.930 128.500 C 140.397 125.750, 139.517 123.349, 138.974 123.165 C 138.432 122.980, 138.242 122.418, 138.553 121.915 C 138.864 121.412, 138.529 120.986, 137.809 120.968 C 137.017 120.949, 137.288 120.341, 138.495 119.429 C 139.688 118.527, 140.090 117.635, 139.495 117.211 C 137.790 115.993, 137.759 111.694, 139.460 112.346 C 140.272 112.658, 141.202 112.482, 141.527 111.956 C 141.852 111.430, 141.615 111, 141 111 C 140.385 111, 140.131 110.597, 140.435 110.105 C 141.039 109.128, 138.042 107.625, 137.190 108.476 C 136.902 108.764, 137.192 109, 137.833 109 C 138.475 109, 139 109.450, 139 110 C 139 110.550, 138.325 111, 137.500 111 C 136.667 111, 136 110.111, 136 109 C 136 107.848, 135.333 107, 134.429 107 C 133.024 107, 133.030 106.828, 134.486 105.371 C 135.382 104.475, 135.878 103.125, 135.589 102.371 C 135.300 101.617, 135.457 101, 135.938 101 C 137.669 101, 135.779 97.220, 133.416 95.955 C 132.087 95.244, 131 94.262, 131 93.772 C 131 93.282, 131.450 93.160, 132 93.500 C 133.295 94.300, 133.269 93.371, 131.927 90.863 C 130.884 88.915, 130.927 88.906, 133.427 90.544 C 136.660 92.662, 136.679 92.101, 133.501 88.406 C 130.482 84.895, 130.323 83.590, 132.999 84.289 C 134.098 84.577, 135.250 84.404, 135.558 83.906 C 135.866 83.408, 135.191 83, 134.059 83 C 131.566 83, 131.431 82.137, 133.669 80.500 C 135.185 79.392, 135.093 79.068, 132.665 76.957 C 128.994 73.765, 127.650 68.578, 129.544 64.916 C 131.432 61.263, 131.412 58, 129.500 58 C 128.350 58, 128 56.729, 128 52.559 C 128 49.566, 127.488 46.801, 126.862 46.415 C 126.034 45.903, 125.889 47.400, 126.328 51.897" stroke="none" fill="#1a1a2e" fill-rule="evenodd"/>
</svg>