<svg xmlns="http://www.w3.org/2000/svg" width="400" height="201" viewBox="0 0 400 201" version="1.1">
	<path d="M 0 91.358 L 0 182.715 5.750 183.313 C 8.912 183.642, 16.450 184.180, 22.500 184.509 C 28.550 184.837, 37.877 185.824, 43.227 186.702 L 52.954 188.297 59.470 185.090 C 65.755 181.995, 72.973 175.727, 72.991 173.348 C 73.001 172.052, 78.178 170, 81.438 170 C 83.013 170, 84.328 168.567, 86.418 164.572 C 89.780 158.144, 96.645 150.273, 95.516 154.139 C 95.137 155.437, 93.965 157.247, 92.913 158.160 C 91.861 159.073, 91 160.311, 91 160.910 C 91 161.510, 90.550 162, 90 162 C 89.450 162, 89 163.174, 89 164.608 C 89 166.891, 89.312 167.139, 91.500 166.589 C 93.611 166.059, 94.005 166.315, 94.032 168.231 C 94.063 170.444, 94.100 170.452, 95.536 168.554 C 96.678 167.043, 97.275 166.875, 98.204 167.804 C 100.007 169.607, 101.787 169.245, 102.524 166.925 C 102.886 165.783, 103.438 165.104, 103.749 165.416 C 104.061 165.728, 104.982 165.430, 105.795 164.755 C 107.068 163.698, 107.209 164.082, 106.803 167.514 C 106.462 170.399, 106.770 171.827, 107.916 172.683 C 109.155 173.608, 109.237 174.132, 108.292 175.090 C 107.340 176.057, 106.773 176.057, 105.609 175.091 C 104.415 174.099, 103.740 174.260, 102.067 175.933 C 99.898 178.102, 98.446 178.705, 99.500 177 C 100.335 175.649, 98.674 175.726, 97.298 177.102 C 96.495 177.905, 95.083 177.057, 92.098 173.981 C 89.844 171.659, 88 170.263, 88 170.879 C 88 171.496, 87.302 172, 86.449 172 C 85.596 172, 84.199 173.672, 83.346 175.715 C 82.492 177.759, 81.096 179.941, 80.244 180.564 C 79.392 181.187, 78.980 182.159, 79.330 182.725 C 79.679 183.290, 78.409 185.271, 76.506 187.126 C 72.633 190.904, 73.335 191.677, 80.846 191.900 C 82.686 191.955, 85.390 192.853, 86.855 193.897 C 88.320 194.940, 91.464 196.317, 93.843 196.958 C 96.931 197.789, 98.009 198.533, 97.615 199.561 C 97.170 200.722, 98.315 201, 103.540 201 C 109.935 201, 110.002 200.972, 108.853 198.750 C 108.213 197.512, 107.373 195.825, 106.986 195 C 106.546 194.059, 103.785 193.127, 99.578 192.500 C 93.510 191.595, 91.376 189, 96.700 189 C 97.415 189, 98 188.550, 98 188 C 98 187.450, 99.260 187, 100.800 187 C 102.340 187, 104.089 186.511, 104.687 185.913 C 106.529 184.071, 107.396 186.905, 105.598 188.892 C 103.816 190.861, 103.453 192.456, 105.006 191.496 C 105.872 190.961, 108.949 191.674, 115 193.812 C 115.825 194.104, 117.850 194.482, 119.500 194.653 C 126.292 195.357, 129.079 197.907, 125.599 200.235 C 124.994 200.639, 129.563 200.976, 135.750 200.985 C 148.386 201.002, 149.630 200.128, 144 195.187 C 140.155 191.813, 140.259 191.177, 145.311 187.208 C 154.340 180.113, 159.841 177.181, 165.032 176.693 C 167.829 176.431, 170.324 176.009, 170.576 175.757 C 170.829 175.504, 172.635 176.806, 174.589 178.649 C 176.553 180.501, 179.199 182, 180.504 182 C 181.987 182, 183.101 182.744, 183.500 184 C 183.849 185.100, 184.892 186.003, 185.817 186.006 C 187.879 186.014, 193.410 188.820, 201.126 193.773 C 203.767 195.468, 205.491 195.915, 207.471 195.418 C 209.467 194.917, 209.832 194.509, 208.845 193.883 C 206.502 192.398, 208.969 192.933, 212.221 194.614 C 214.910 196.005, 215.110 196.359, 213.663 197.168 C 212.740 197.685, 211.574 197.855, 211.073 197.545 C 210.571 197.235, 209.523 197.620, 208.743 198.400 C 207.963 199.180, 206.239 199.997, 204.912 200.215 C 203.586 200.433, 211.354 200.708, 222.176 200.827 C 240.776 201.030, 241.885 200.937, 242.459 199.129 C 243.615 195.488, 249.916 195.731, 251.351 199.472 C 252.120 201.477, 259.788 201.475, 262.441 199.468 C 264.894 197.613, 268.191 197.624, 274.409 199.511 C 277.935 200.580, 283.992 200.990, 295.909 200.965 L 312.500 200.929 302.500 197.557 C 297 195.701, 287.787 192.782, 282.028 191.070 C 266.979 186.595, 266.010 184.833, 278.284 184.265 C 282.253 184.081, 287.132 183.494, 289.126 182.960 C 291.120 182.426, 296.122 182.040, 300.241 182.102 C 304.706 182.169, 308.693 181.690, 310.115 180.915 C 311.707 180.047, 317.629 179.524, 327.919 179.343 C 336.400 179.193, 343.600 178.679, 343.919 178.201 C 344.245 177.713, 345.910 177.706, 347.711 178.184 C 351.964 179.314, 351.156 181.792, 346.712 181.253 L 343.500 180.863 345.916 182.811 L 348.333 184.760 346.166 185.447 C 343.350 186.341, 343.394 187.768, 346.250 188.204 C 347.488 188.393, 348.398 189.069, 348.273 189.706 C 348.148 190.343, 348.706 192.445, 349.513 194.376 C 350.320 196.308, 350.711 198.588, 350.383 199.444 C 349.853 200.826, 352.571 201, 374.737 201 L 399.689 201 400.341 186.750 C 400.699 178.912, 400.994 133.688, 400.996 86.250 L 401 0 315.200 -0 C 247.933 -0, 229.114 0.270, 228.075 1.250 C 227.015 2.250, 226.658 2.250, 226.292 1.250 C 225.543 -0.790, 204.329 -0.472, 202.246 1.611 C 200.765 3.092, 200.541 3.092, 199.457 1.611 C 197.827 -0.619, 187 -0.715, 187 1.500 C 187 2.359, 186.099 3, 184.893 3 C 183.431 3, 182.962 2.541, 183.362 1.500 C 183.871 0.173, 173.308 -0, 91.969 -0 L 0 0 0 91.358 M 201.200 19.200 C 199.486 20.914, 199.718 23, 201.622 23 C 202.951 23, 203.020 22.729, 202 21.500 C 200.935 20.216, 201.242 20.005, 204.128 20.032 C 207.146 20.060, 207.316 20.203, 205.750 21.392 C 203.700 22.948, 203.482 24.646, 205.250 25.287 C 205.938 25.536, 199.075 25.777, 190 25.822 C 180.925 25.867, 166.582 26.425, 158.128 27.063 C 145.865 27.988, 142.598 27.968, 141.979 26.965 C 141.549 26.270, 140.447 25.998, 139.511 26.358 C 138.581 26.714, 136.515 26.236, 134.920 25.293 C 131.774 23.435, 130.088 24.171, 129.589 27.619 C 129.242 30.017, 114.963 31.157, 102 29.821 C 94.997 29.099, 86.491 29.141, 76 29.948 C 74.834 30.038, 74.933 30.391, 76.441 31.532 C 78.956 33.434, 80 33.389, 80 31.378 C 80 30.101, 80.298 30.003, 81.399 30.916 C 82.354 31.709, 84.969 31.855, 89.649 31.377 C 95.482 30.782, 96.327 30.888, 95.335 32.089 C 94.187 33.480, 94 34.027, 94 36 C 94 36.550, 93.550 37, 93 37 C 92.450 37, 92 35.837, 92 34.417 C 92 31.199, 89.803 31.671, 88.939 35.074 C 88.600 36.408, 87.800 37.388, 87.161 37.250 C 86.523 37.113, 86 37.414, 86 37.921 C 86 38.427, 84.650 39.138, 83 39.500 C 81.350 39.862, 79.986 40.686, 79.970 41.329 C 79.953 41.973, 79.479 41.709, 78.915 40.742 C 78.352 39.775, 78.168 38.538, 78.505 37.992 C 78.842 37.446, 78.690 37, 78.166 37 C 77.302 37, 75.446 40.370, 76.185 40.596 C 76.358 40.649, 75.899 41.417, 75.164 42.303 C 74.429 43.188, 74.088 44.333, 74.405 44.847 C 74.723 45.361, 73.888 46.498, 72.550 47.375 L 70.118 48.969 69.480 44.234 C 68.524 37.133, 68.431 37.078, 66.972 42.750 C 65.475 48.570, 64 49.658, 64 44.941 C 64 40.520, 62.347 42.204, 61.564 47.422 C 60.632 53.638, 57.016 53.729, 56.970 47.537 C 56.922 41.199, 54.297 46.885, 54.074 53.809 C 53.934 58.154, 52 54.891, 51.930 50.191 L 51.859 45.500 50.405 49.473 C 49.605 51.659, 49.013 54.134, 49.090 54.973 C 49.346 57.762, 49.011 59, 48 59 C 47.450 59, 47 57.650, 47 56 C 47 52.247, 45.490 52.114, 44.162 55.750 C 43.557 57.407, 43.127 57.820, 43.079 56.789 C 43.036 55.848, 42.086 54.227, 40.970 53.186 C 39.161 51.501, 39.108 51.156, 40.482 50.015 C 41.631 49.061, 41.744 48.396, 40.925 47.409 C 40.031 46.333, 39.381 46.499, 37.461 48.292 C 32.481 52.942, 31.825 53.335, 31.071 52.114 C 29.922 50.255, 25.015 57.206, 24.985 60.736 C 24.972 62.212, 24.817 62.260, 24.040 61.030 C 23.275 59.820, 22.659 60.085, 20.556 62.530 C 17.591 65.979, 17.605 65.893, 19.561 68.481 C 21.053 70.456, 21.058 70.456, 20.871 68.481 C 20.515 64.725, 21.004 63, 22.425 63 C 24.033 63, 23.925 68.350, 22.251 71.605 C 20.935 74.164, 19.649 79.684, 20.588 78.746 C 21 78.333, 22.227 78.784, 23.315 79.748 C 24.764 81.032, 25.409 81.166, 25.729 80.250 C 25.970 79.563, 26.804 79, 27.583 79 C 28.362 79, 29 78.550, 29 78 C 29 77.450, 29.733 77, 30.628 77 C 31.967 77, 32.142 76.290, 31.616 73 C 31.209 70.455, 31.360 69, 32.032 69 C 32.613 69, 32.955 69.741, 32.794 70.646 C 32.632 71.552, 33.063 72.489, 33.751 72.730 C 34.548 73.009, 34.781 72.593, 34.394 71.584 C 33.047 68.075, 35.048 66.300, 36.742 69.500 C 37.639 71.195, 38.513 71.954, 38.750 71.244 C 38.982 70.553, 39.586 70.244, 40.093 70.558 C 40.600 70.871, 41.719 70.424, 42.579 69.564 C 43.439 68.704, 44.561 68, 45.071 68 C 46.205 68, 46.206 67.796, 45.051 71.823 C 44.342 74.293, 44.406 75.033, 45.301 74.738 C 45.960 74.521, 46.669 73.254, 46.875 71.922 C 47.211 69.746, 47.320 69.695, 47.948 71.421 C 48.332 72.478, 48.110 74.904, 47.454 76.812 C 46.225 80.386, 46.559 84, 48.117 84 C 48.602 84, 49 83.100, 49 82 C 49 79.662, 50.802 79.320, 51.638 81.500 C 51.955 82.325, 52.867 83, 53.666 83 C 54.465 83, 54.865 82.591, 54.556 82.090 C 53.725 80.746, 55.019 78, 56.484 78 C 57.398 78, 57.612 79.262, 57.247 82.500 C 56.935 85.265, 57.139 87, 57.776 87 C 58.346 87, 58.570 86.070, 58.273 84.934 C 57.975 83.798, 58.202 81.886, 58.776 80.684 C 59.349 79.483, 60.070 77.713, 60.378 76.750 C 61.506 73.219, 64.576 74.865, 64.078 78.734 C 63.985 79.458, 64.557 79.724, 65.460 79.377 C 66.307 79.052, 67 78.384, 67 77.893 C 67 77.402, 67.450 77, 68 77 C 68.550 77, 69 78.350, 69 80 C 69 81.650, 69.450 83, 70 83 C 70.550 83, 71 81.602, 71 79.893 C 71 77.542, 71.365 76.926, 72.500 77.362 C 73.325 77.678, 74 77.501, 74 76.969 C 74 76.436, 74.358 76, 74.796 76 C 75.761 76, 75.760 80.076, 74.796 81.570 C 74.415 82.159, 73.885 83.850, 73.617 85.329 C 73.349 86.807, 72.836 88.942, 72.477 90.072 C 71.882 91.947, 72.011 92.012, 73.954 90.813 C 75.355 89.949, 76.003 88.644, 75.848 87 C 75.719 85.625, 76.156 83.506, 76.820 82.291 C 77.484 81.075, 77.968 79.725, 77.895 79.291 C 77.439 76.557, 78.140 74.840, 79.500 75.362 C 80.325 75.678, 81.029 75.389, 81.063 74.719 C 81.098 74.048, 81.558 74.579, 82.085 75.897 C 82.782 77.639, 82.664 78.732, 81.653 79.897 C 80.887 80.779, 79.977 82.737, 79.631 84.250 C 79.284 85.763, 78.710 88.238, 78.355 89.750 C 77.710 92.496, 77.712 92.497, 79.855 90.595 C 81.346 89.271, 82 87.518, 82 84.845 C 82 82.094, 82.427 81, 83.500 81 C 84.548 81, 85 79.944, 85 77.500 C 85 75.575, 85.419 74, 85.930 74 C 86.442 74, 87.005 72.992, 87.180 71.760 C 87.536 69.268, 91 67.962, 91 70.320 C 91 71.126, 91.675 72.045, 92.500 72.362 C 93.325 72.678, 94.007 73.964, 94.015 75.219 C 94.027 77.015, 94.228 77.187, 94.961 76.029 C 95.473 75.220, 96.205 74.872, 96.588 75.255 C 96.971 75.638, 96.716 76.638, 96.020 77.476 C 94.991 78.716, 95.011 78.997, 96.128 78.985 C 99.072 78.952, 100.301 77.257, 99.670 74.101 C 99.201 71.754, 99.409 71, 100.525 71 C 101.491 71, 102 69.984, 102 68.059 C 102 66.441, 102.450 64.840, 103 64.500 C 103.550 64.160, 104 64.359, 104 64.941 C 104 65.523, 104.666 66, 105.481 66 C 107.111 66, 106.519 75.174, 104.846 75.833 C 104.380 76.017, 104 76.634, 104 77.206 C 104 79.350, 106.888 75.788, 107.534 72.847 C 108.115 70.200, 108.519 69.905, 110.848 70.430 C 113.021 70.920, 113.184 70.835, 111.750 69.964 C 108.181 67.795, 110.708 63.386, 114.742 64.743 C 115.657 65.051, 115.708 65.678, 114.936 67.120 C 114.359 68.197, 114.025 69.892, 114.194 70.886 C 114.362 71.880, 114.003 73.324, 113.395 74.096 C 111.954 75.927, 109.853 82.186, 110.471 82.805 C 111.672 84.006, 114.091 80.499, 113.550 78.342 C 113.137 76.697, 113.549 75.674, 114.985 74.777 C 116.246 73.990, 117 72.443, 117 70.643 C 117 68.296, 117.354 67.859, 118.925 68.270 C 120.344 68.641, 120.697 68.373, 120.266 67.250 C 119.883 66.252, 120.154 65.885, 121.052 66.184 C 121.806 66.435, 122.440 67.920, 122.461 69.482 C 122.483 71.045, 123.063 72.513, 123.750 72.745 C 124.438 72.977, 125 72.454, 125 71.583 C 125 70.712, 125.720 70, 126.601 70 C 127.880 70, 128.131 70.888, 127.850 74.415 C 127.578 77.841, 127.777 78.600, 128.739 77.802 C 129.420 77.236, 129.737 76.384, 129.443 75.907 C 128.820 74.900, 130.916 70.583, 131.664 71.331 C 132.250 71.916, 135.461 68.882, 136.380 66.875 C 136.726 66.119, 136.847 66.724, 136.649 68.220 C 136.451 69.716, 136.640 70.722, 137.070 70.457 C 138.120 69.808, 143 72.087, 143 73.226 C 143 73.724, 142.485 75.114, 141.854 76.316 C 140.717 78.484, 140.725 78.486, 142.854 76.595 C 144.035 75.547, 145 73.621, 145 72.314 C 145 71.007, 145.675 69.678, 146.500 69.362 C 147.484 68.984, 148 67.423, 148 64.826 C 148 61.313, 148.227 60.937, 150.011 61.503 C 151.841 62.084, 151.919 61.916, 150.879 59.635 C 149.127 55.788, 150.317 53.732, 153.466 55.167 C 154.860 55.802, 156 56.924, 156 57.661 C 156 58.397, 156.450 59, 157 59 C 157.550 59, 158 58.157, 158 57.127 C 158 54.509, 161.884 46, 163.079 46 C 164.998 46, 165.873 50.393, 164.414 52.698 C 163.649 53.906, 163.290 55.591, 163.616 56.442 C 164.458 58.636, 166 57.342, 166 54.441 C 166 53.098, 166.401 52, 166.892 52 C 167.382 52, 168.053 50.924, 168.383 49.610 C 168.753 48.135, 169.657 47.273, 170.742 47.360 C 173.448 47.576, 173.980 49.100, 172.264 51.719 C 171.088 53.514, 170.986 54.386, 171.851 55.251 C 172.716 56.116, 173 56.104, 173 55.200 C 173 49.502, 175.412 47.528, 182.726 47.242 C 186.350 47.100, 189.806 46.602, 190.407 46.136 C 192.116 44.811, 196 44.087, 196 45.094 C 196 46.400, 198.763 46.212, 199.208 44.876 C 199.458 44.126, 200.987 44.430, 203.796 45.787 C 206.113 46.907, 207.784 47.460, 207.510 47.016 C 206.628 45.590, 209.413 45.205, 218.381 45.515 C 228.202 45.855, 228.601 46.008, 227.081 48.849 C 225.723 51.387, 225.672 54.321, 227 53.500 C 227.550 53.160, 228 52.024, 228 50.976 C 228 49.928, 228.870 48.605, 229.934 48.035 C 233.280 46.244, 234.212 46.758, 233.500 50 C 233.085 51.887, 233.241 53, 233.921 53 C 234.514 53, 235 52.373, 235 51.607 C 235 49.041, 237.874 49.025, 239.885 51.581 C 241.782 53.992, 241.863 54.007, 242.489 52.035 C 242.844 50.916, 243.667 50.007, 244.317 50.015 C 246.319 50.041, 248.291 51.720, 247.612 52.819 C 247.257 53.393, 247.394 54.125, 247.915 54.447 C 248.436 54.769, 249.127 54.604, 249.451 54.080 C 250.474 52.424, 254 53.302, 254 55.213 C 254 57.458, 254.919 57.492, 256.518 55.307 C 257.680 53.717, 257.862 53.719, 259.477 55.334 C 260.839 56.696, 260.949 57.357, 260.005 58.494 C 259.348 59.285, 259.043 60.510, 259.327 61.216 C 259.647 62.014, 259.872 61.828, 259.921 60.725 C 259.964 59.749, 261.121 58.524, 262.491 58.003 C 265.051 57.030, 268.341 57.639, 267.538 58.938 C 267.022 59.774, 267.874 59.972, 273.702 60.368 C 276.014 60.526, 277.674 60.282, 277.393 59.827 C 277.112 59.372, 277.857 59, 279.048 59 C 280.402 59, 281.029 59.482, 280.721 60.286 C 280.449 60.993, 280.964 61.643, 281.864 61.731 C 282.764 61.818, 284.931 62.034, 286.681 62.209 C 288.431 62.385, 290.217 62.884, 290.651 63.317 C 291.084 63.751, 290.660 63.807, 289.708 63.442 C 288.390 62.936, 288.128 63.169, 288.607 64.418 C 289.033 65.528, 289.886 65.853, 291.243 65.423 C 292.426 65.047, 293.578 65.317, 294.049 66.079 C 294.689 67.115, 295.146 67.123, 296.352 66.123 C 298.092 64.679, 303.673 66.983, 304.658 69.552 C 304.964 70.349, 305.841 71, 306.607 71 C 307.373 71, 308 71.486, 308 72.079 C 308 73.465, 313.396 72.437, 317.714 70.228 C 320.802 68.649, 321.021 68.671, 323.279 70.792 C 324.571 72.006, 326.864 73, 328.373 73 C 330.193 73, 330.878 73.389, 330.405 74.155 C 329.960 74.873, 330.130 75.037, 330.854 74.590 C 332.196 73.761, 336.237 74.807, 335.611 75.822 C 335.382 76.195, 337.400 77.244, 340.096 78.153 C 342.792 79.063, 344.747 79.400, 344.440 78.903 C 343.697 77.700, 346.113 77.776, 348 79.015 C 349.258 79.841, 349.278 80.143, 348.122 80.888 C 345.704 82.446, 351.106 85.856, 354.622 84.990 C 354.982 84.902, 355.552 85.265, 355.888 85.798 C 356.225 86.331, 359.956 86.940, 364.180 87.150 C 368.404 87.360, 371.329 87.194, 370.680 86.781 C 369.986 86.339, 370.607 86.024, 372.191 86.015 C 373.671 86.007, 375.160 86.450, 375.500 87 C 375.840 87.550, 375.416 88, 374.559 88 C 373.702 88, 373 88.727, 373 89.617 C 373 90.843, 373.543 91.057, 375.250 90.501 C 376.488 90.098, 378.470 89.709, 379.655 89.635 C 380.839 89.561, 381.553 89.086, 381.240 88.580 C 380.924 88.068, 381.446 87.957, 382.418 88.330 C 383.378 88.699, 384.378 89, 384.641 89 C 384.903 89, 384.840 89.450, 384.500 90 C 383.742 91.226, 385.014 91.277, 386.878 90.096 C 389.243 88.599, 387.161 87.103, 379.699 84.939 C 365.112 80.708, 352.473 76.688, 351.500 75.970 C 350.950 75.563, 349.084 74.928, 347.354 74.559 C 342.849 73.596, 340.066 70.431, 342.927 69.523 C 344.067 69.161, 345.007 68.108, 345.015 67.183 C 345.029 65.731, 345.164 65.706, 346 67 C 346.580 67.897, 346.976 68.022, 346.985 67.311 C 347.001 66.013, 352.537 64.954, 360.750 64.679 C 364.193 64.563, 366 64.072, 366 63.251 C 366 61.553, 366.988 61.679, 369.171 63.655 C 370.877 65.199, 371 65.192, 371 63.547 C 371 62.152, 371.575 61.902, 373.750 62.352 C 375.262 62.665, 375.938 62.676, 375.250 62.377 C 373.960 61.816, 373.478 59, 374.671 59 C 375.040 59, 376.168 59.747, 377.177 60.661 C 378.950 62.265, 380.739 62.004, 379.682 60.295 C 378.320 58.091, 370.082 53.058, 369.467 54.054 C 369.093 54.658, 369.725 55.377, 370.899 55.684 C 372.055 55.986, 373 56.657, 373 57.176 C 373 58.223, 371.411 57.479, 368.733 55.177 C 367.761 54.342, 365.511 53.528, 363.733 53.368 C 361.955 53.209, 358.110 52.687, 355.188 52.210 C 350.065 51.374, 333.063 53.049, 316.606 56.012 C 311.049 57.012, 310.504 56.928, 307.053 54.536 C 305.040 53.141, 302.431 52, 301.255 52 C 298.564 52, 297.484 50.412, 299.618 49.593 C 302.374 48.536, 299.492 46.420, 294.930 46.151 C 287.849 45.733, 280.549 44.044, 279.447 42.567 C 278.868 41.791, 277.743 41.192, 276.947 41.236 C 272.867 41.459, 270.837 40.753, 268.363 38.250 C 266.868 36.737, 266.230 36.288, 266.945 37.250 C 268.477 39.312, 268.004 39.381, 262.873 37.844 C 259.811 36.926, 259.245 36.410, 260.130 35.344 C 261.432 33.775, 259.073 33.372, 257.450 34.886 C 256.927 35.374, 255.600 35.406, 254.500 34.957 C 253.400 34.508, 253.089 34.109, 253.809 34.070 C 255.880 33.959, 254.102 32, 251.930 32 C 250.857 32, 247.988 31.065, 245.557 29.922 C 241.072 27.814, 236.334 27.656, 236.701 29.627 C 236.841 30.376, 234.234 30.296, 228.201 29.366 C 213.582 27.112, 212.912 26.951, 213.593 25.850 C 213.988 25.211, 213.381 25.261, 212.043 25.977 C 209.629 27.269, 206.507 26.606, 207.493 25.011 C 210.595 19.993, 205.298 15.102, 201.200 19.200 M 257.411 92.123 C 256.360 93.298, 253.550 95.101, 251.167 96.130 C 246.137 98.301, 246 98.324, 246 97 C 246 96.450, 246.675 96, 247.500 96 C 248.325 96, 249 95.346, 249 94.547 C 249 93.331, 248.509 93.372, 245.998 94.797 C 244.304 95.758, 243.212 97.073, 243.492 97.815 C 243.852 98.771, 243.375 98.942, 241.744 98.441 C 238.549 97.459, 238.471 97.243, 240.494 95.006 C 241.522 93.871, 241.809 93, 241.155 93 C 240.520 93, 240 93.367, 240 93.815 C 240 95.270, 232.783 98.183, 231.746 97.146 C 231.132 96.532, 231.545 95.779, 232.893 95.057 C 234.052 94.437, 234.986 93.158, 234.968 92.215 C 234.940 90.693, 234.771 90.719, 233.469 92.441 C 230.826 95.934, 221.528 99.192, 223.553 95.914 C 223.875 95.393, 222.538 95.729, 220.582 96.662 C 216.771 98.480, 214.353 97.678, 217.252 95.558 C 218.213 94.855, 219 93.792, 219 93.196 C 219 92.600, 217.590 93.401, 215.867 94.975 C 212.118 98.398, 209 99.465, 209 97.323 C 209 96.504, 208.662 95.998, 208.250 96.199 C 207.838 96.400, 206.261 97.185, 204.746 97.945 C 201.572 99.535, 199.645 98.464, 202.252 96.558 C 203.213 95.855, 204 94.788, 204 94.188 C 204 93.587, 202.763 94.244, 201.250 95.648 C 197.982 98.682, 193.047 101.380, 192.240 100.574 C 191.925 100.258, 192.192 100, 192.833 100 C 193.475 100, 194 99.373, 194 98.607 C 194 97.841, 194.675 96.955, 195.500 96.638 C 196.325 96.322, 196.964 95.036, 196.921 93.781 C 196.871 92.336, 196.649 92.050, 196.315 93 C 195.106 96.436, 186 103.499, 186 101 C 186 100.450, 186.450 100, 187 100 C 187.550 100, 188 99.259, 188 98.354 C 188 97.098, 187.419 97.335, 185.548 99.354 C 182.546 102.593, 180.996 102.755, 181.758 99.750 C 182.256 97.790, 181.935 97.918, 179.264 100.750 C 176.007 104.202, 174.426 104.778, 173.753 102.759 C 173.459 101.877, 172.813 102.044, 171.521 103.337 C 170.520 104.337, 168.869 104.937, 167.851 104.671 C 166.833 104.405, 166 104.627, 166 105.166 C 166 106.287, 176.522 105.257, 179.184 103.875 C 181.492 102.676, 188 102.769, 188 104 C 188 104.550, 189.012 104.971, 190.250 104.937 C 192.445 104.875, 192.439 104.846, 190 103.775 C 187.674 102.754, 187.883 102.616, 193 101.800 C 204.147 100.021, 227.158 100.057, 229.907 101.859 C 232.247 103.392, 232.362 103.385, 231.735 101.752 C 231.116 100.139, 231.897 100.054, 242.283 100.603 C 248.453 100.929, 253.629 101.538, 253.786 101.957 C 253.944 102.376, 255.875 102.389, 258.078 101.986 C 260.281 101.583, 267.950 101.659, 275.121 102.156 L 288.159 103.058 291.769 106.564 C 293.764 108.502, 296 109.830, 296.771 109.534 C 297.537 109.241, 299.617 109, 301.393 109 C 303.179 109, 305.531 108.154, 306.654 107.108 C 308.434 105.449, 311.047 105.125, 327.784 104.482 C 342.551 103.916, 347.002 103.438, 347.410 102.375 C 347.700 101.619, 349.103 101, 350.528 101 C 352.235 101, 352.874 101.395, 352.403 102.157 C 351.879 103.005, 352.972 103.139, 356.483 102.657 C 359.121 102.296, 362.791 102, 364.640 102 C 366.488 102, 368 101.651, 368 101.224 C 368 100.797, 366.141 100.624, 363.868 100.841 C 361.063 101.109, 359.953 100.886, 360.409 100.147 C 361.229 98.820, 356.689 97.522, 354.358 98.416 C 353.448 98.765, 351.929 98.341, 350.965 97.468 C 347.656 94.474, 336.324 94.524, 335.749 97.535 C 335.238 100.203, 335.811 100.508, 343 101.389 C 344.925 101.625, 342.558 101.715, 337.741 101.588 C 328.130 101.335, 324.744 99.504, 325.254 94.837 C 325.610 91.572, 322.262 91.109, 321.458 94.312 C 320.868 96.661, 314.299 97.539, 311.279 95.672 C 310.840 95.401, 308.910 95.844, 306.990 96.657 C 303.244 98.243, 303.132 97.901, 308.663 101.792 C 310.333 102.967, 310.273 103.030, 308 102.491 C 299.471 100.467, 293.374 98.648, 292.550 97.883 C 292.027 97.397, 289.426 97, 286.769 97 C 283.405 97, 281.763 96.546, 281.364 95.506 C 281.048 94.684, 280.433 94.232, 279.996 94.502 C 277.601 95.983, 270.785 96.002, 271.351 94.526 C 271.674 93.687, 271.501 93, 270.969 93 C 270.436 93, 270 93.450, 270 94 C 270 94.550, 268.664 95, 267.031 95 C 264.803 95, 264.206 94.626, 264.638 93.500 C 265.341 91.669, 264.592 91.571, 262.821 93.262 C 262.095 93.956, 260.150 95.179, 258.500 95.980 C 256.850 96.781, 255.162 97.600, 254.750 97.801 C 254.338 98.002, 254 97.679, 254 97.083 C 254 96.487, 254.675 96, 255.500 96 C 256.325 96, 257 95.347, 257 94.550 C 257 93.752, 257.784 92.661, 258.742 92.125 C 259.700 91.589, 260.222 90.888, 259.902 90.569 C 259.583 90.249, 258.461 90.949, 257.411 92.123 M 163.173 113.094 C 162.257 114.561, 162.374 115.118, 163.767 115.929 C 165.204 116.767, 165.235 116.944, 163.950 116.970 C 163.097 116.986, 161.860 116.460, 161.200 115.800 C 160.533 115.133, 160 115.044, 160 115.600 C 160 116.150, 160.540 117.140, 161.200 117.800 C 162.133 118.733, 162.078 119.007, 160.950 119.032 C 159.901 119.055, 160.053 119.507, 161.500 120.666 C 163.303 122.111, 163.317 122.205, 161.639 121.623 C 160.218 121.130, 159.922 121.354, 160.389 122.570 C 160.725 123.447, 161 124.352, 161 124.582 C 161 124.812, 162.125 125, 163.500 125 C 164.875 125, 166 125.450, 166 126 C 166 126.941, 164.231 127.397, 161.144 127.251 C 160.175 127.205, 159.952 128.012, 160.365 130.074 C 160.811 132.303, 160.487 133.204, 158.943 134.030 C 157.844 134.619, 157.238 135.576, 157.597 136.157 C 158.046 136.884, 158.470 136.858, 158.955 136.073 C 159.343 135.446, 160.423 135.225, 161.355 135.583 C 162.646 136.078, 162.785 136.554, 161.937 137.576 C 160.419 139.405, 161.648 144.421, 164.436 147.774 C 168.273 152.388, 169.920 156.241, 166.563 152.750 C 163.932 150.013, 162.322 149.094, 163.500 151 C 163.840 151.550, 163.563 152, 162.885 152 C 162.195 152, 162.656 153.069, 163.932 154.428 C 165.329 155.915, 166.850 156.628, 167.856 156.268 C 168.987 155.863, 168.743 156.510, 167.076 158.340 C 165.742 159.803, 165.142 161, 165.742 161 C 166.342 161, 167.060 160.438, 167.338 159.750 C 167.667 158.935, 167.870 159.051, 167.921 160.083 C 167.964 160.954, 168.705 161.667, 169.567 161.667 C 170.708 161.667, 170.974 161.034, 170.548 159.333 C 169.818 156.426, 170.090 156.427, 173.243 159.349 C 175.590 161.524, 176.157 161.621, 180.870 160.656 C 184.324 159.948, 187.901 159.934, 191.990 160.610 C 198.583 161.700, 200.407 161.224, 199.427 158.670 C 198.830 157.114, 197.657 156.562, 195.676 156.906 C 195.222 156.985, 195.163 156.545, 195.544 155.929 C 195.925 155.312, 197.603 155.008, 199.272 155.253 L 202.306 155.699 198.903 152.876 C 194.504 149.228, 193.642 149.291, 190.432 153.500 C 185.812 159.558, 180.266 157.508, 181.259 150.109 C 181.742 146.506, 181.474 145.984, 177.389 142.569 C 172.463 138.452, 172.045 137.078, 175.132 135.150 C 176.975 133.998, 177.620 134.082, 179.901 135.769 C 183.180 138.193, 187 139.475, 187 138.151 C 187 137.610, 185.876 136.342, 184.502 135.333 L 182.004 133.500 187.502 129.530 C 190.526 127.347, 193 124.973, 193 124.255 C 193 123.538, 194.012 122.532, 195.250 122.020 C 196.488 121.509, 198.569 120.238, 199.875 119.196 L 202.251 117.302 198.399 116.677 C 196.281 116.334, 194.109 116.491, 193.574 117.026 C 191.768 118.832, 189.731 118.138, 190.312 115.915 C 190.882 113.736, 182.235 113.364, 177.850 115.379 C 176.626 115.942, 176.238 115.669, 176.350 114.324 C 176.472 112.848, 175.660 112.467, 172 112.279 C 169.525 112.152, 166.783 111.873, 165.907 111.659 C 165.030 111.444, 163.800 112.090, 163.173 113.094 M 140.094 153.089 C 137.864 153.981, 137.816 154.145, 139.434 155.328 C 141.023 156.490, 141.038 156.724, 139.590 157.925 C 138.716 158.651, 138 158.910, 138 158.500 C 138 158.090, 137.330 158.311, 136.511 158.991 C 135.692 159.671, 135.276 160.637, 135.585 161.138 C 135.895 161.639, 135.563 161.926, 134.848 161.775 C 134.115 161.620, 133.403 162.590, 133.216 164 C 133.033 165.375, 132.126 168.075, 131.200 170 C 130.273 171.925, 129.480 173.950, 129.437 174.500 C 129.393 175.050, 128.656 177.114, 127.798 179.087 C 123.931 187.981, 125.118 189.072, 134 184.783 C 136.475 183.588, 139.175 182.575, 140 182.531 C 140.827 182.488, 141.374 181.702, 141.218 180.779 C 140.856 178.629, 143.667 177.161, 147.530 177.482 C 150.160 177.700, 150.810 177.219, 152.450 173.848 C 154.445 169.746, 157.964 165.925, 156.743 169.186 C 156.164 170.733, 156.440 170.756, 160.082 169.471 C 164.362 167.961, 169.229 165.305, 165.657 166.429 C 159.301 168.428, 156.007 168.089, 161.500 166 C 163.869 165.099, 164.914 162.552, 163.210 161.833 C 162.775 161.650, 160.899 159.363, 159.040 156.750 C 155.505 151.781, 154.020 151.066, 152.081 153.402 C 150.272 155.582, 146.122 156.265, 144.506 154.649 C 143.730 153.873, 143.374 152.960, 143.714 152.619 C 144.591 151.743, 142.917 151.960, 140.094 153.089" stroke="none" fill="#1a1a2e" fill-rule="evenodd"/>
</svg>