<svg xmlns="http://www.w3.org/2000/svg" width="400" height="248" viewBox="0 0 400 248" version="1.1">
	<path d="M 0 124 L 0 248 66.333 248 C 135.596 248, 138.315 247.827, 130.083 243.953 C 128.407 243.164, 127.969 242.569, 128.837 242.257 C 129.572 241.992, 131.618 243.176, 133.384 244.888 L 136.595 248 205.048 248 L 273.500 248 273.259 240 C 272.981 230.782, 273.238 230.609, 279.124 236.035 C 282.921 239.536, 283.963 240.003, 287 239.564 C 291.889 238.859, 302.152 234.480, 303.166 232.667 C 304.114 230.975, 313.311 227.828, 322.783 225.955 C 335.219 223.496, 358 226.723, 358 230.944 C 358 231.525, 359.096 232, 360.435 232 C 365.108 232, 368.847 234.161, 375.647 240.795 C 376.941 242.058, 378.018 242.733, 378.039 242.295 C 378.061 241.858, 378.721 242.979, 379.506 244.787 L 380.934 248.073 390.717 247.787 L 400.500 247.500 400.754 123.750 L 401.008 -0 200.504 -0 L 0 0 0 124 M 35.471 34.310 C 28.816 41.072, 28.827 40.895, 35.070 40.846 C 40.790 40.802, 41.304 41.043, 40.417 43.357 C 40.006 44.426, 38.622 45, 36.452 45 C 34.618 45, 32.840 45.450, 32.500 46 C 32.160 46.550, 30.076 47, 27.868 47 C 23.404 47, 22.428 50.201, 26.705 50.812 C 28.059 51.006, 28.693 51.638, 28.371 52.475 C 28.080 53.235, 28.650 54.031, 29.677 54.297 C 31.042 54.650, 30.872 54.816, 29 54.960 C 26.714 55.136, 26.800 55.268, 30 56.500 C 33.006 57.658, 33.159 57.859, 31.083 57.924 C 27.650 58.032, 28.986 58.912, 34.112 59.919 L 38.500 60.781 34.500 60.976 L 30.500 61.172 33.500 62.089 C 35.150 62.593, 37.850 62.732, 39.500 62.397 C 41.555 61.981, 42.185 62.115, 41.500 62.823 C 40.950 63.392, 38.925 64.042, 37 64.269 C 34.563 64.555, 35.322 64.752, 39.500 64.916 L 45.500 65.152 42 66.500 L 38.500 67.848 42.500 67.959 C 46.465 68.070, 46.478 68.083, 44 69.465 C 41.623 70.791, 41.721 70.836, 46 70.387 L 50.500 69.915 47.500 71.458 L 44.500 73.002 48.250 72.456 C 52.706 71.806, 52.985 72.376, 49.250 74.499 C 46.503 76.061, 46.505 76.062, 50.877 75.422 C 53.963 74.970, 55.051 75.108, 54.568 75.891 C 53.693 77.306, 54.560 77.289, 58.647 75.811 C 61.599 74.743, 62.132 74.846, 63.836 76.811 C 66.332 79.689, 67.344 79.581, 66.755 76.500 C 66.424 74.767, 66.720 74, 67.722 74 C 69.194 74, 69.105 65.597, 67.607 63.173 C 67.255 62.604, 67.425 61.856, 67.984 61.510 C 69.455 60.601, 69.238 59.382, 67.250 57.389 C 66.287 56.424, 65.459 55.154, 65.409 54.567 C 65.358 53.980, 64.960 52.214, 64.523 50.643 C 63.977 48.677, 64.126 47.540, 65.001 46.999 C 67.606 45.389, 67.616 35.670, 65.013 36.496 C 63.416 37.003, 62.961 36.872, 63.467 36.054 C 64.463 34.441, 60.253 31.025, 57.097 30.885 C 48.812 30.520, 45.254 30.164, 43.221 29.498 C 41.321 28.876, 40.031 29.677, 35.471 34.310 M 93.659 46 C 92.507 47.950, 91.120 48.972, 89.693 48.921 C 88.487 48.878, 88.063 48.615, 88.750 48.338 C 90.085 47.799, 90.506 44.996, 89.250 45.006 C 87.414 45.022, 85.113 50.829, 86.701 51.439 C 87.972 51.926, 88.007 52.286, 86.915 53.602 C 85.726 55.035, 85.490 55.023, 84.360 53.477 C 83.079 51.726, 77.337 61.118, 78.519 63.031 C 78.777 63.449, 78.316 64.048, 77.494 64.364 C 76.672 64.679, 76 65.878, 76 67.028 C 76 68.177, 75.550 68.840, 75 68.500 C 74.450 68.160, 74 68.584, 74 69.441 C 74 70.298, 73.550 71, 73 71 C 70.707 71, 72.292 89.043, 75.415 98.500 C 75.597 99.050, 75.805 99.836, 75.879 100.247 C 75.952 100.658, 77.586 103.960, 79.509 107.587 C 81.433 111.213, 82.735 114.619, 82.403 115.157 C 82.071 115.694, 82.632 115.991, 83.650 115.817 C 84.718 115.634, 85.394 116.028, 85.250 116.750 C 85.112 117.438, 85.730 118, 86.622 118 C 89.186 118, 86.381 120.807, 82.624 122.001 L 79.500 122.993 83 122.391 C 84.925 122.059, 87.625 121.581, 89 121.329 C 91.457 120.877, 91.465 120.898, 89.500 122.532 C 87.576 124.131, 87.634 124.168, 91 123.492 C 96.198 122.448, 93.471 124.800, 86.820 127.097 C 82.961 128.430, 82.222 128.944, 84.128 128.967 C 85.573 128.985, 88.434 128.299, 90.486 127.441 C 92.538 126.584, 94.438 126.104, 94.708 126.375 C 95.675 127.342, 93.849 128.985, 90.701 129.981 L 87.500 130.993 90.500 130.521 C 92.150 130.261, 94.625 129.778, 96 129.448 L 98.500 128.848 96.258 130.828 L 94.016 132.808 98.258 132.372 L 102.500 131.937 98.333 133.719 C 94.119 135.520, 90.880 137.902, 94.337 136.657 C 97.511 135.514, 104.536 134.683, 103.732 135.545 C 103.310 135.998, 100.385 136.961, 97.232 137.686 L 91.500 139.002 98 138.519 C 101.575 138.253, 105.583 137.731, 106.906 137.360 C 108.467 136.922, 109.086 137.051, 108.669 137.727 C 108.314 138.300, 105.994 139.074, 103.512 139.446 C 101.031 139.818, 99 140.585, 99 141.149 C 99 142.095, 103.734 141.748, 109.500 140.379 C 111.420 139.923, 111.425 139.951, 109.614 141.078 C 108.577 141.723, 105.427 142.616, 102.614 143.062 C 97.929 143.805, 98.129 143.850, 105 143.596 C 109.125 143.444, 113.400 142.989, 114.500 142.584 C 116.499 141.849, 116.499 141.850, 114.501 143.113 C 113.402 143.809, 110.027 144.922, 107.001 145.586 L 101.500 146.795 106.101 146.898 C 108.631 146.954, 112.109 146.509, 113.830 145.910 C 115.550 145.310, 117.530 145.025, 118.229 145.276 C 118.928 145.528, 116.879 146.510, 113.676 147.459 C 106.239 149.663, 107.082 150.638, 115.067 149.067 C 118.437 148.404, 121.421 148.088, 121.698 148.365 C 122.172 148.839, 117.611 150.249, 112 151.364 C 110.625 151.637, 112.425 151.697, 116 151.496 C 119.575 151.296, 123.850 150.868, 125.500 150.545 C 128.403 149.976, 128.419 149.993, 126 151.070 C 124.625 151.681, 121.475 152.576, 119 153.057 C 115.443 153.749, 116.281 153.840, 123 153.489 C 128.663 153.193, 130.999 153.366, 130 154.007 C 129.175 154.536, 127.514 154.976, 126.309 154.985 C 125.104 154.993, 123.798 155.519, 123.406 156.152 C 122.695 157.302, 124.761 157.152, 134 155.383 C 140.111 154.213, 136.535 156.013, 129.880 157.457 C 123.518 158.837, 123.513 158.841, 128 158.897 C 132.299 158.950, 136.713 158.202, 141.875 156.547 C 143.495 156.028, 144.036 156.133, 143.576 156.877 C 143.205 157.477, 140.786 158.619, 138.201 159.414 C 133.972 160.716, 133.810 160.868, 136.593 160.930 C 138.295 160.969, 142.306 160.099, 145.508 158.997 C 148.709 157.896, 151.548 157.215, 151.818 157.484 C 152.366 158.032, 146.102 160.854, 141.500 162.132 C 139.187 162.775, 139.609 162.856, 143.341 162.489 C 146.003 162.228, 150.235 161.105, 152.745 159.995 C 158.523 157.439, 159.553 158.167, 154.097 160.951 C 151.844 162.100, 150 163.237, 150 163.476 C 150 164.371, 158.249 160.959, 161.250 158.822 C 165.048 156.118, 168.841 156.265, 173.801 159.310 C 178.768 162.360, 183.845 164.431, 194 167.551 C 207.069 171.566, 208.729 173.107, 201 174.048 C 197.385 174.488, 196.992 174.707, 199 175.161 C 200.784 175.566, 200.212 175.771, 197 175.877 C 194.525 175.960, 191.375 176.251, 190 176.525 C 187.793 176.963, 187.852 176.850, 190.500 175.556 C 192.150 174.750, 192.825 174.073, 192 174.051 C 191.175 174.030, 189.150 174.797, 187.500 175.756 C 185.042 177.185, 182.153 177.485, 171.500 177.419 L 158.500 177.337 166.500 178.653 C 170.900 179.376, 175.654 179.733, 177.064 179.445 C 178.475 179.158, 185.900 178.784, 193.564 178.614 C 207.741 178.299, 208.047 179.111, 194.411 180.860 L 187.500 181.747 193.500 181.862 C 200.467 181.995, 208.174 180.154, 213.733 177.030 L 217.645 174.831 225.489 177.464 C 237.461 181.483, 244.227 182.748, 263.500 184.569 C 268.093 185.002, 273.079 186.367, 278 188.535 C 282.125 190.353, 288.344 192.391, 291.819 193.064 C 298.018 194.264, 300.635 194.184, 325 192.052 C 335.034 191.174, 344.407 188.762, 345.716 186.721 C 346.147 186.050, 348.300 184.616, 350.500 183.537 C 359.029 179.350, 371 166.716, 371 161.901 C 371 160.855, 371.659 160, 372.465 160 C 374.257 160, 376.347 156.370, 375.419 154.869 C 375.029 154.239, 373.315 154.012, 371.350 154.331 C 369.347 154.656, 368.193 154.496, 368.537 153.941 C 368.856 153.423, 369.965 153, 371 153 C 373.349 153, 374.574 151.174, 373.169 149.769 C 371.818 148.418, 367.960 149.950, 358.012 155.789 C 353.396 158.498, 351.250 159.382, 352.417 158.092 C 353.458 156.941, 354.722 156, 355.225 156 C 357.389 156, 365.487 149.538, 363.750 149.197 C 362.788 149.008, 362 148.436, 362 147.927 C 362 147.417, 361.325 147, 360.500 147 C 359.675 147, 359 146.550, 359 146 C 359 145.450, 357.875 145, 356.500 145 C 355.125 145, 354 145.462, 354 146.026 C 354 146.603, 352.648 146.352, 350.907 145.452 C 347.310 143.592, 346.403 144.016, 347.919 146.849 C 349.231 149.300, 349.275 150, 348.117 150 C 347.631 150, 347.007 149.135, 346.731 148.079 C 345.511 143.413, 332.234 142.476, 332.394 147.066 C 332.482 149.627, 332.850 150.066, 334.620 149.730 C 337.588 149.166, 343.219 152.046, 344.609 154.839 C 345.416 156.461, 345.938 156.768, 346.308 155.839 C 346.727 154.789, 346.859 154.780, 346.921 155.795 C 347.348 162.800, 337.343 163.636, 330.939 157.130 L 326.146 152.261 327.464 148.428 C 328.188 146.320, 329.730 143.827, 330.891 142.888 C 333.846 140.495, 333.523 139.305, 329.750 138.681 C 323.838 137.702, 320.508 136.714, 319.881 135.753 C 319.540 135.232, 318.100 134.736, 316.682 134.652 C 315.222 134.566, 314.479 134.123, 314.970 133.631 C 315.951 132.649, 322.570 132.571, 327.331 133.486 C 330.327 134.061, 330.394 134.010, 328.559 132.547 C 327.491 131.696, 326.029 131, 325.309 131 C 324.589 131, 324 130.325, 324 129.500 C 324 127.578, 322.279 127.578, 320.357 129.500 C 318.211 131.646, 315.462 131.351, 314.349 128.856 C 313.823 127.676, 312.291 126.559, 310.946 126.373 C 309.601 126.187, 307.150 125.774, 305.500 125.457 C 298.402 124.090, 297.601 124.292, 297.549 127.459 C 297.499 130.455, 291.841 133.170, 290.424 130.877 C 290.126 130.395, 290.553 130, 291.373 130 C 292.193 130, 293.858 128.603, 295.074 126.897 C 297.573 123.387, 296.676 122.043, 291.817 122.015 C 290.053 122.005, 288.925 121.339, 288.522 120.068 C 287.991 118.397, 287.507 118.276, 284.935 119.173 C 282.628 119.977, 281.202 119.849, 278.579 118.605 C 276.719 117.722, 274.677 117, 274.040 117 C 273.403 117, 273.128 116.601, 273.430 116.114 C 274.652 114.136, 269.430 114.082, 266.750 116.045 C 265.238 117.153, 264 117.666, 264 117.185 C 264 115.826, 267.202 113.254, 270.415 112.032 C 274.284 110.561, 272.647 108.939, 266.299 107.952 C 262.753 107.400, 261.088 107.570, 259.921 108.603 C 257.755 110.520, 257 110.356, 257 107.969 C 257 105.811, 255.495 104.879, 251.631 104.644 C 250.178 104.556, 249.441 104.014, 249.735 103.250 C 250.395 101.529, 246.960 101.716, 244.559 103.532 C 242.182 105.329, 241.015 105.400, 240.954 103.750 C 240.869 101.427, 232.456 98.193, 230.403 99.695 C 226.964 102.209, 226.750 100.968, 230.042 97.601 C 231.870 95.732, 233.963 94.432, 234.694 94.713 C 235.515 95.028, 235.821 94.703, 235.494 93.861 C 234.524 91.362, 227.055 91.686, 226.078 94.270 C 225.614 95.496, 225.484 96.950, 225.789 97.500 C 226.094 98.050, 225.366 97.643, 224.172 96.595 C 222.977 95.547, 222 93.643, 222 92.364 C 222 90.642, 221.286 89.879, 219.250 89.426 C 217.738 89.090, 215.690 88.594, 214.701 88.324 C 213.712 88.055, 211.799 88.557, 210.451 89.440 C 208.195 90.918, 208 90.916, 208 89.416 C 208 88.336, 207.463 87.992, 206.407 88.397 C 205.356 88.801, 204.643 88.351, 204.309 87.073 C 203.570 84.248, 201.087 83.706, 198.109 85.719 C 195.360 87.578, 191.675 88.335, 192.591 86.853 C 194.771 83.325, 188.304 80.843, 184.708 83.828 C 183.942 84.463, 183.020 84.687, 182.658 84.325 C 181.744 83.411, 181.830 81.777, 182.761 82.352 C 184.762 83.589, 186.822 80.476, 185.333 78.467 C 183.952 76.602, 183.808 76.592, 182.570 78.261 C 181.403 79.834, 181.127 79.858, 179.989 78.487 C 179.288 77.643, 179 76.666, 179.349 76.318 C 180.724 74.942, 177.550 73, 173.927 73 C 171.337 73, 169.770 73.566, 169.080 74.750 C 168.239 76.194, 168.056 75.921, 168.030 73.183 C 168.004 70.323, 167.723 69.953, 165.995 70.502 C 164.669 70.923, 163.789 70.613, 163.395 69.587 C 162.932 68.381, 162.364 68.270, 160.836 69.088 C 158.807 70.174, 156.879 69.265, 154.358 66.038 C 153.410 64.824, 152.948 64.798, 151.637 65.886 C 149.685 67.507, 138.331 62.606, 137.422 59.750 C 136.852 57.959, 135.928 57.617, 132.611 57.971 C 131.153 58.127, 130.846 57.697, 131.268 56.085 C 131.568 54.937, 131.444 54.226, 130.992 54.505 C 130.540 54.784, 129.994 54.483, 129.779 53.836 C 129.496 52.989, 128.468 53.119, 126.097 54.301 C 123.009 55.842, 122.851 55.837, 123.518 54.221 C 125 50.623, 125.196 49, 124.148 49 C 123.551 49, 123.304 48.371, 123.600 47.601 C 124.549 45.127, 122.558 45.129, 120.703 47.603 C 119.031 49.834, 119.025 50, 120.620 50 C 121.562 50, 122.067 50.266, 121.742 50.591 C 120.560 51.774, 117 49.816, 117 47.984 C 117 46.221, 116.778 46.195, 113.500 47.564 C 110.379 48.868, 110 48.859, 110 47.482 C 110 45.093, 107.259 44.600, 104.398 46.475 C 101.846 48.147, 101.821 48.138, 102.550 45.843 C 103.191 43.823, 103.084 43.685, 101.741 44.800 C 100.554 45.785, 100.101 45.803, 99.792 44.875 C 99.535 44.105, 98.566 44.543, 97.121 46.083 L 94.854 48.500 95.536 45.750 C 96.416 42.196, 95.862 42.270, 93.659 46" stroke="none" fill="#1a1a2e" fill-rule="evenodd"/>
</svg>