<svg xmlns="http://www.w3.org/2000/svg" width="400" height="140" viewBox="0 0 400 140" version="1.1">
	<path d="M 0.022 46.245 C 0.044 91.451, 0.086 92.445, 1.894 90.094 C 3.039 88.604, 4.340 87.916, 5.307 88.288 C 6.167 88.618, 7.012 88.522, 7.185 88.076 C 7.780 86.543, 12 85.769, 12 87.193 C 12 89.622, 7.200 93.740, 3.576 94.420 C -0.290 95.145, -1.482 99.003, 1.250 101.947 C 2.250 103.024, 2.250 103.152, 1.250 102.588 C 0.269 102.034, -0 105.990, -0 120.968 L 0 140.055 81.448 139.918 C 156.034 139.793, 162.932 139.643, 163.332 138.141 C 163.712 136.712, 163.783 136.726, 163.884 138.250 C 164.015 140.224, 172.662 140.655, 180.750 139.091 C 183.136 138.629, 185 138.652, 185 139.143 C 185 140.331, 220.799 140.134, 221.536 138.942 C 221.856 138.424, 222.568 138, 223.118 138 C 223.668 138, 223.852 138.430, 223.527 138.956 C 223.163 139.546, 228.113 139.897, 236.468 139.876 C 251.359 139.837, 251.902 139.557, 246.967 134.466 L 243.934 131.337 247.027 131.791 C 249.137 132.100, 249.952 132.682, 249.591 133.622 C 249.290 134.407, 249.695 135, 250.531 135 C 251.339 135, 252 135.438, 252 135.974 C 252 139.613, 289.648 142.146, 293.797 138.786 C 294.957 137.846, 295.185 137.831, 294.646 138.729 C 294.071 139.686, 298.593 139.958, 315.057 139.956 C 331.616 139.953, 335.996 139.686, 335.239 138.726 C 333.278 136.238, 334.066 133.749, 336.202 135.683 C 337.230 136.613, 337.841 137.971, 337.561 138.701 C 337.143 139.790, 342.744 139.981, 368.776 139.764 L 400.500 139.500 400.758 69.750 L 401.016 0 345.949 0 C 302.186 0, 291.027 0.257, 291.588 1.250 C 292.152 2.250, 292.024 2.250, 290.947 1.250 C 288.784 -0.758, 258.864 -0.519, 259.638 1.500 C 259.955 2.325, 259.702 3, 259.076 3 C 258.449 3, 257.696 2.371, 257.401 1.603 C 256.848 0.161, 234.027 -0.562, 233.978 0.861 C 233.966 1.213, 233.076 2.625, 232 4 L 230.044 6.500 230.952 3.250 L 231.860 0 227.871 0 C 225.466 0, 224.127 0.397, 224.500 1 C 224.840 1.550, 224.641 2, 224.059 2 C 223.477 2, 223 2.436, 223 2.969 C 223 3.501, 223.675 3.678, 224.500 3.362 C 225.426 3.006, 226 3.365, 226 4.299 C 226 5.338, 225.350 5.643, 223.926 5.270 C 222.321 4.851, 221.986 4.193, 222.445 2.364 C 223.007 0.125, 222.786 0.001, 218.269 0.015 C 215.368 0.025, 214.010 0.354, 214.803 0.857 C 215.519 1.311, 215.969 2.317, 215.803 3.092 C 215.636 3.866, 216.096 4.376, 216.824 4.225 C 217.626 4.059, 217.857 4.422, 217.410 5.145 C 216.889 5.989, 217.228 6.127, 218.562 5.614 C 220.198 4.987, 220.148 5.213, 218.198 7.289 C 216.814 8.762, 216.189 10.329, 216.579 11.345 C 216.934 12.271, 216.726 13, 216.107 13 C 215.498 13, 215.053 12.663, 215.118 12.250 C 216.606 2.827, 207.378 -3.484, 198.814 1.100 C 197.319 1.899, 196.944 1.899, 197.438 1.100 C 197.894 0.362, 196.700 0.021, 193.809 0.063 C 190.083 0.118, 189.818 0.254, 191.855 1.070 C 193.362 1.674, 194.003 2.550, 193.636 3.506 C 193.321 4.328, 193.611 5.007, 194.281 5.015 C 195.899 5.036, 192.931 6.964, 191.250 6.985 C 189.906 7.001, 189.510 4.441, 190.750 3.747 C 191.162 3.517, 190.870 3.491, 190.099 3.690 C 189.329 3.890, 187.854 3.147, 186.823 2.040 C 184.617 -0.327, 165.817 -0.895, 163.072 1.323 C 162.237 1.999, 161.889 2.043, 162.257 1.428 C 162.690 0.704, 160.297 0.323, 154.890 0.255 C 148.071 0.168, 147.058 0.365, 148.064 1.577 C 148.773 2.431, 148.839 3, 148.229 3 C 147.671 3, 146.968 2.359, 146.667 1.575 C 146.016 -0.123, 135.009 -0.236, 134.985 1.456 C 134.976 2.030, 134.533 1.825, 134 1 C 133.152 -0.312, 133.029 -0.300, 133.015 1.095 C 132.991 3.665, 129.406 6.500, 128.655 4.543 C 128.265 3.527, 128.640 3, 129.754 3 C 133.592 3, 127.400 0.342, 123.048 0.121 L 118.595 -0.105 120.540 2.198 C 122.318 4.302, 122.245 4.287, 119.690 2.026 C 117.505 0.092, 116.715 -0.157, 116.072 0.883 C 115.574 1.689, 115.009 1.823, 114.639 1.225 C 114.303 0.681, 112.218 0.211, 110.005 0.181 C 106.362 0.130, 106.129 0.272, 107.541 1.684 C 108.952 3.095, 108.895 3.385, 106.941 4.754 C 105.120 6.030, 104.648 6.050, 103.923 4.883 C 103.421 4.075, 103.466 3.362, 104.032 3.167 C 111.492 0.598, 103.461 0.112, 52.500 0.052 L 0 -0.010 0.022 46.245 M 147.379 51.620 C 147.466 53.204, 147.952 55.175, 148.460 56 C 149.228 57.247, 149.125 57.291, 147.850 56.259 C 147.006 55.576, 145.959 55.351, 145.523 55.759 C 145.086 56.166, 145.256 55.487, 145.900 54.250 C 147.215 51.721, 147.276 51.828, 144.335 51.513 C 142.870 51.356, 142.339 51.719, 142.690 52.635 C 142.976 53.379, 143.607 53.743, 144.093 53.442 C 144.579 53.142, 144.704 53.608, 144.370 54.477 C 143.832 55.880, 143.607 55.857, 142.379 54.279 C 141.221 52.791, 141.088 52.770, 141.566 54.149 C 141.880 55.056, 141.586 56.138, 140.914 56.553 C 140.132 57.037, 139.948 56.893, 140.405 56.155 C 140.797 55.520, 140.656 55, 140.090 55 C 139.525 55, 139.294 54.397, 139.577 53.660 C 139.860 52.923, 139.283 51.708, 138.296 50.958 C 136.762 49.795, 136.682 49.801, 137.750 50.998 C 139.184 52.607, 139.436 54.387, 138.113 53.570 C 137.625 53.268, 137.288 53.804, 137.363 54.761 C 137.441 55.754, 136.911 56.375, 136.127 56.209 C 135.184 56.009, 134.968 56.479, 135.437 57.709 C 135.971 59.112, 135.855 59.239, 134.902 58.292 C 133.946 57.344, 133.964 56.749, 134.985 55.518 C 135.700 54.657, 135.991 53.658, 135.632 53.299 C 135.273 52.940, 134.379 53.467, 133.645 54.471 C 132.384 56.195, 132.274 56.163, 131.655 53.898 C 131.113 51.914, 130.830 51.759, 130.015 53 C 128.741 54.942, 128.726 56.287, 129.989 55.507 C 130.566 55.150, 130.716 55.576, 130.349 56.532 C 129.898 57.709, 129.514 57.832, 128.982 56.971 C 128.575 56.312, 128.036 56.162, 127.785 56.637 C 127.534 57.112, 127.512 56.825, 127.738 56 C 128.551 53.025, 128.473 52.761, 126.694 52.463 C 125.214 52.215, 125.107 52.424, 126.102 53.623 C 127.002 54.707, 127.024 55.376, 126.188 56.212 C 125.352 57.048, 124.811 56.714, 124.094 54.920 C 123.562 53.589, 123.091 53.175, 123.048 54 C 122.978 55.333, 122.862 55.333, 122 54 C 121.296 52.910, 121.026 52.858, 121.015 53.809 C 121.007 54.529, 120.581 54.859, 120.069 54.543 C 119.557 54.226, 118.870 54.401, 118.542 54.931 C 118.211 55.467, 118.838 55.724, 119.952 55.509 C 121.055 55.297, 122.219 55.545, 122.538 56.061 C 123.429 57.503, 119.566 57.175, 116.417 55.541 C 114.429 54.510, 113.237 54.389, 112.346 55.127 C 111.654 55.702, 110.548 55.839, 109.889 55.432 C 109.131 54.963, 108.953 55.115, 109.405 55.845 C 109.797 56.480, 110.856 57, 111.759 57 C 114.373 57, 111.702 59.081, 108.899 59.228 C 107.580 59.297, 106.035 59.699, 105.466 60.120 C 103.968 61.230, 100.985 60.588, 99.935 58.930 C 99.196 57.761, 99.028 57.750, 99.015 58.872 C 99.003 59.979, 98.709 60.004, 97.500 59 C 96.675 58.315, 96 58.170, 96 58.677 C 96 59.184, 94.355 59.406, 92.344 59.172 C 89.284 58.814, 88.790 59.010, 89.313 60.372 C 89.656 61.268, 89.539 62, 89.052 62 C 88.565 62, 88.017 61.561, 87.833 61.026 C 87.650 60.490, 86.478 60.320, 85.229 60.648 C 83.603 61.075, 83.241 61.585, 83.953 62.443 C 84.705 63.350, 83.432 63.687, 78.724 63.827 C 71.406 64.046, 70.666 64.190, 65.782 66.353 C 60.991 68.475, 59.325 68.518, 61.020 66.476 C 63.108 63.960, 61.607 63.915, 58.707 66.407 C 57.218 67.686, 56 69.586, 56 70.629 C 56 71.672, 55.005 72.970, 53.789 73.513 C 52.399 74.133, 51.531 75.459, 51.452 77.081 C 51.383 78.501, 51.034 80.136, 50.676 80.715 C 50.317 81.297, 51.362 82.322, 53.013 83.005 C 56.658 84.515, 56.738 85.287, 53.468 87.429 C 52.076 88.341, 51.185 89.490, 51.489 89.982 C 51.793 90.475, 51.245 91.341, 50.271 91.908 C 49.297 92.475, 48.908 92.953, 49.406 92.970 C 50.459 93.005, 57.341 87.960, 57.833 86.791 C 58.257 85.785, 61.011 85.748, 60.968 86.750 C 60.913 88.055, 58.551 90.487, 57.006 90.830 C 56.188 91.012, 55.290 91.462, 55.009 91.830 C 54.045 93.098, 48.189 96, 46.596 96 C 45.718 96, 45 96.675, 45 97.500 C 45 98.325, 44.520 99, 43.933 99 C 43.347 99, 41.431 100.095, 39.676 101.434 C 37.921 102.772, 34.014 105.059, 30.993 106.515 C 27.374 108.259, 26.524 108.946, 28.500 108.527 C 33.217 107.528, 43.736 102.355, 46.333 99.758 C 47.631 98.460, 49.100 97.521, 49.597 97.673 C 50.093 97.824, 53.650 95.944, 57.500 93.494 C 61.350 91.045, 66.975 87.867, 70 86.433 C 73.025 84.999, 76.226 83.176, 77.113 82.382 C 80.354 79.481, 104.813 79.940, 105.807 82.920 C 106.007 83.521, 106.582 83.759, 107.084 83.448 C 107.586 83.138, 108.997 83.585, 110.221 84.442 C 111.444 85.299, 112.065 86, 111.600 86 C 111.135 86, 111.349 86.715, 112.074 87.589 C 113.208 88.956, 113.120 89.130, 111.446 88.839 C 110.095 88.604, 109.542 89.035, 109.639 90.250 C 109.715 91.213, 109.378 92, 108.889 92 C 107.183 92, 108.015 94.001, 109.750 94.070 C 111.267 94.131, 111.241 94.242, 109.554 94.902 C 107.126 95.852, 110.431 96.964, 115.750 96.986 C 118.816 96.999, 119.627 98.026, 119.118 101.250 C 119.053 101.662, 119.499 102, 120.108 102 C 120.801 102, 120.974 101.031, 120.569 99.420 C 119.983 97.082, 120.137 96.911, 122.211 97.588 C 125.031 98.510, 129.487 98.324, 138.168 96.923 C 143.561 96.053, 146.908 96.173, 155.668 97.554 C 161.626 98.493, 168.750 99.373, 171.500 99.509 C 174.250 99.645, 179.650 100.491, 183.500 101.389 C 187.350 102.287, 192.300 103.437, 194.500 103.946 C 196.700 104.454, 201.988 105.413, 206.250 106.076 C 210.512 106.740, 214 107.607, 214 108.003 C 214 108.399, 215.125 108.508, 216.500 108.245 C 218.020 107.954, 219 108.228, 219 108.942 C 219 109.589, 219.399 109.871, 219.886 109.570 C 220.374 109.269, 224.537 109.672, 229.136 110.466 C 233.736 111.260, 239.627 112.181, 242.227 112.513 C 244.826 112.844, 247.215 113.540, 247.536 114.058 C 247.856 114.576, 248.568 115, 249.118 115 C 249.668 115, 249.893 114.636, 249.618 114.191 C 249.343 113.746, 257.529 113.296, 267.809 113.192 C 282.310 113.044, 289.926 112.441, 301.783 110.501 C 310.188 109.125, 318.063 107.997, 319.283 107.994 C 320.502 107.990, 322.781 107.320, 324.346 106.503 C 325.911 105.687, 332.151 104.552, 338.214 103.980 C 344.303 103.406, 350.413 102.268, 351.868 101.438 L 354.500 99.935 351.231 100.551 C 348.035 101.154, 332.533 100.133, 333.296 99.371 C 333.965 98.702, 343.914 98.331, 343.506 98.990 C 343.293 99.335, 346.197 99.591, 349.961 99.559 C 353.724 99.527, 356.631 99.219, 356.420 98.875 C 356.209 98.531, 357.041 98.246, 358.268 98.241 C 369.732 98.193, 377.501 92.199, 373.017 86.861 L 371.035 84.500 370.410 86.717 C 369.481 90.010, 355 91.274, 355 88.063 C 355 87.006, 358.979 81.930, 361.491 79.783 C 363.747 77.855, 363.197 77.568, 359.797 78.900 C 358.534 79.394, 355.643 80.296, 353.374 80.902 C 349.999 81.805, 349.144 82.529, 348.674 84.882 C 348.229 87.105, 347.445 87.854, 345.225 88.180 C 341.768 88.688, 339.568 86.880, 341.326 84.977 C 342.252 83.974, 342.113 83.843, 340.668 84.353 C 339.661 84.709, 338.648 85, 338.418 85 C 338.188 85, 338 85.675, 338 86.500 C 338 88.923, 335.057 88.219, 333.818 85.500 C 332.512 82.634, 331 82.200, 331 84.691 C 331 86.166, 330.812 86.134, 329.532 84.441 C 328.140 82.601, 328.062 82.663, 328.032 85.643 C 327.999 88.908, 326.189 90.393, 323.500 89.362 C 322.675 89.045, 322 89.311, 322 89.952 C 322 90.593, 321.570 90.852, 321.044 90.527 C 320.518 90.202, 320.319 89.333, 320.601 88.597 C 321.538 86.156, 318.252 86.103, 315.979 88.523 L 313.744 90.901 315.902 94.701 L 318.060 98.500 315.001 95.202 C 311.689 91.631, 311.282 85.332, 313.926 78.599 C 314.553 77.003, 314.861 75.203, 314.612 74.599 C 314.315 73.881, 314.131 73.923, 314.079 74.719 C 314.034 75.407, 313.314 75.674, 312.425 75.333 C 311.302 74.902, 310.943 75.239, 311.175 76.510 C 311.354 77.491, 310.961 78.481, 310.303 78.712 C 309.472 79.003, 309.211 77.961, 309.451 75.316 C 309.898 70.391, 309.795 70.585, 311.291 71.827 C 313.012 73.255, 315.717 69.317, 314.115 67.715 C 313.382 66.982, 312.869 67.177, 312.416 68.358 C 311.914 69.666, 311.454 69.792, 310.394 68.912 C 309.640 68.286, 309.265 67.380, 309.563 66.898 C 309.860 66.417, 309.316 66.325, 308.352 66.695 C 307.276 67.108, 307.063 67.521, 307.801 67.767 C 308.460 67.987, 309 68.634, 309 69.206 C 309 69.888, 308.538 69.862, 307.658 69.131 C 306.920 68.519, 305.996 68.337, 305.605 68.728 C 305.214 69.119, 305.164 68.737, 305.493 67.880 C 305.822 67.022, 305.385 65.735, 304.523 65.019 C 303.193 63.915, 303.050 63.967, 303.584 65.359 C 304.198 66.958, 302.582 67.743, 301.747 66.250 C 301.517 65.838, 301.465 66.063, 301.633 66.750 C 301.800 67.438, 301.221 68, 300.346 68 C 298.975 68, 298.945 68.242, 300.128 69.750 C 301.374 71.339, 301.338 71.373, 299.738 70.117 C 298.416 69.080, 298.250 68.404, 299.074 67.411 C 300.307 65.926, 299.382 63.646, 297.915 64.553 C 297.394 64.875, 297.269 65.627, 297.638 66.224 C 298.042 66.877, 297.843 67.021, 297.138 66.585 C 296.494 66.187, 296.212 65.465, 296.512 64.981 C 296.811 64.497, 296.031 63.554, 294.778 62.886 C 292.630 61.742, 292.584 61.782, 293.967 63.586 C 294.774 64.639, 295.052 65.178, 294.586 64.785 C 294.119 64.392, 292.842 64.549, 291.748 65.135 C 290.654 65.720, 289.991 65.817, 290.274 65.350 C 291.347 63.583, 288.219 61.924, 286.693 63.450 C 285.076 65.067, 283.011 63.731, 282.985 61.050 C 282.976 60.147, 282.663 59.918, 282.235 60.500 C 281.232 61.864, 279 62.226, 279 61.025 C 279 60.409, 278.117 60.385, 276.603 60.961 C 275.284 61.462, 273.921 61.588, 273.574 61.241 C 272.555 60.221, 269.937 60.089, 270.554 61.088 C 270.864 61.590, 270.390 62, 269.500 62 C 268.489 62, 268.152 61.531, 268.601 60.750 C 268.997 60.063, 268.983 59.803, 268.570 60.174 C 268.157 60.544, 266.072 60.231, 263.936 59.477 C 261.160 58.498, 259.858 58.421, 259.371 59.208 C 258.962 59.871, 259.150 60.025, 259.845 59.595 C 260.480 59.203, 261 59.344, 261 59.910 C 261 60.475, 261.617 60.700, 262.371 60.411 C 263.952 59.805, 265.394 62.639, 263.956 63.527 C 263.430 63.852, 263 63.714, 263 63.220 C 263 61.736, 258.373 60.050, 257.123 61.077 C 256.331 61.728, 256.295 61.646, 257 60.800 C 258.499 59.001, 258.204 57.586, 256.606 58.912 C 255.531 59.804, 254.856 59.713, 253.660 58.517 C 252.806 57.663, 251.521 57.085, 250.804 57.232 C 250.087 57.379, 249.646 56.838, 249.824 56.028 C 250.080 54.867, 249.746 54.920, 248.243 56.280 C 247.195 57.229, 246.037 57.703, 245.669 57.336 C 245.301 56.968, 245 57.165, 245 57.774 C 245 59.629, 246.975 60.230, 247.612 58.569 C 247.941 57.712, 248.612 57.260, 249.105 57.565 C 250.587 58.481, 250.113 60, 248.345 60 C 246.839 60, 246.848 60.174, 248.443 61.937 C 250.184 63.861, 249.855 66, 247.819 66 C 247.089 66, 247.076 65.607, 247.777 64.750 C 248.931 63.339, 246.773 60.617, 245.446 61.810 C 245.024 62.190, 245.003 61.938, 245.399 61.250 C 245.851 60.464, 245.504 60, 244.465 60 C 243.556 60, 242.580 59.111, 242.296 58.024 C 241.887 56.458, 241.400 56.251, 239.950 57.027 C 238.747 57.671, 237.909 57.662, 237.502 57.003 C 236.896 56.023, 237.042 55.881, 238.917 55.625 C 239.421 55.556, 240.137 55.196, 240.508 54.825 C 241.081 54.253, 237.973 54.466, 237.250 55.048 C 236.494 55.658, 234.351 55.513, 233.367 54.786 C 232.687 54.284, 232.024 54.496, 231.709 55.315 C 231.364 56.215, 230.122 56.525, 228.067 56.223 C 225.548 55.853, 225.170 55.500, 226.097 54.383 C 227.671 52.486, 226.226 52.632, 224.293 54.564 C 223.026 55.831, 222.972 56.354, 224.011 57.314 C 225.018 58.245, 225.121 58.198, 224.492 57.095 C 223.961 56.164, 224.073 55.927, 224.825 56.392 C 225.668 56.913, 225.669 57.557, 224.831 58.898 C 223.668 60.762, 219.049 57.853, 219.764 55.707 C 219.910 55.271, 219.122 55.399, 218.014 55.992 C 216.906 56.585, 216 56.760, 216 56.380 C 216 56.001, 214.988 56.547, 213.750 57.595 L 211.500 59.500 213.384 57.274 C 214.420 56.049, 215.626 55.269, 216.065 55.540 C 216.503 55.811, 217.120 55.615, 217.436 55.104 C 217.751 54.593, 217.220 54.310, 216.255 54.473 C 215.290 54.637, 213.673 53.810, 212.663 52.636 C 211.653 51.461, 211.100 51.035, 211.435 51.689 C 211.816 52.435, 211.289 52.822, 210.022 52.727 C 208.910 52.643, 208 52.145, 208 51.621 C 208 51.096, 207.711 50.956, 207.357 51.309 C 207.004 51.663, 207.251 52.597, 207.906 53.387 C 208.828 54.498, 208.826 54.990, 207.894 55.565 C 207.131 56.037, 206.952 55.886, 207.405 55.155 C 207.827 54.470, 207.483 54, 206.559 54 C 205.702 54, 205 53.578, 205 53.062 C 205 52.546, 204.131 52.190, 203.069 52.270 C 202.007 52.350, 201.220 52.727, 201.319 53.108 C 201.419 53.488, 201.050 53.800, 200.500 53.800 C 199.950 53.800, 199.650 53.282, 199.833 52.650 C 200.017 52.017, 199.792 51.875, 199.333 52.333 C 198.875 52.792, 198.500 53.579, 198.500 54.083 C 198.500 54.588, 198.050 54.955, 197.500 54.900 C 196.950 54.845, 196.613 54.395, 196.750 53.900 C 196.888 53.405, 196.523 53, 195.941 53 C 195.359 53, 195.203 52.480, 195.595 51.845 C 196.017 51.163, 195.872 50.961, 195.240 51.352 C 194.652 51.715, 193.981 51.672, 193.749 51.256 C 193.517 50.840, 193.454 51.033, 193.608 51.685 C 193.762 52.337, 193.575 53.051, 193.194 53.271 C 192.812 53.492, 192.988 53.564, 193.583 53.431 C 194.179 53.299, 194.667 53.748, 194.667 54.429 C 194.667 55.110, 194.067 55.667, 193.333 55.667 C 192.600 55.667, 192 55.292, 192 54.833 C 192 54.375, 191.582 54.112, 191.071 54.250 C 190.559 54.387, 189.401 53.600, 188.496 52.500 C 187.592 51.400, 187.107 51.015, 187.420 51.645 C 187.733 52.275, 187.279 53.063, 186.412 53.395 C 184.253 54.224, 183.786 54.155, 184.435 53.105 C 184.740 52.612, 184.288 51.941, 183.431 51.612 C 182.574 51.283, 182.107 50.636, 182.393 50.174 C 182.678 49.712, 182.283 49.333, 181.515 49.333 C 180.454 49.333, 180.571 49.911, 182.003 51.730 C 183.067 53.084, 183.615 54.840, 183.261 55.763 C 182.856 56.819, 182.490 56.971, 182.231 56.193 C 182.010 55.530, 181.418 55.242, 180.915 55.553 C 180.412 55.864, 179.438 55.767, 178.750 55.339 C 176.652 54.031, 172.852 54.172, 173.376 55.539 C 173.952 57.037, 170.297 56.290, 169.320 54.709 C 168.921 54.064, 169.299 53.901, 170.304 54.286 C 171.202 54.631, 172.206 54.475, 172.537 53.940 C 172.868 53.405, 173.535 53.212, 174.019 53.512 C 174.503 53.811, 175.446 53.031, 176.114 51.778 C 177.195 49.749, 177.155 49.642, 175.744 50.805 C 174.416 51.901, 173.975 51.820, 173.005 50.305 C 171.912 48.598, 171.882 48.603, 172.447 50.391 C 172.978 52.068, 172.851 52.125, 171.331 50.891 C 170.388 50.126, 169.922 50.011, 170.296 50.636 C 170.712 51.329, 169.998 51.958, 168.464 52.252 C 167.083 52.516, 165.736 52.382, 165.472 51.954 C 165.208 51.527, 163.857 51.302, 162.470 51.454 C 161.044 51.610, 159.590 51.090, 159.123 50.256 C 158.416 48.991, 158.207 49.018, 157.660 50.442 C 157.304 51.370, 157.437 51.848, 157.961 51.524 C 158.477 51.205, 159.373 51.829, 159.953 52.911 C 160.711 54.328, 160.681 55.079, 159.848 55.594 C 159.157 56.021, 158.961 55.872, 159.362 55.224 C 160.373 53.588, 158.120 52.656, 156.468 54.027 C 155.319 54.980, 154.898 54.896, 154.407 53.618 C 154.068 52.735, 153.419 52.241, 152.964 52.522 C 152.510 52.803, 151.813 52.506, 151.415 51.862 C 150.963 51.131, 151.124 50.959, 151.845 51.405 C 152.480 51.797, 153 51.690, 153 51.166 C 153 49.735, 150.160 48.932, 149.407 50.150 C 148.961 50.872, 148.505 50.816, 147.985 49.976 C 147.538 49.252, 147.286 49.932, 147.379 51.620" stroke="none" fill="#1a1a2e" fill-rule="evenodd"/>
</svg>