<svg xmlns="http://www.w3.org/2000/svg" width="400" height="267" viewBox="0 0 400 267" version="1.1">
	<path d="M 0 101.397 L 0 202.788 3.046 206.049 C 5.073 208.219, 5.757 209.643, 5.092 210.308 C 4.427 210.973, 4.445 211.962, 5.144 213.270 C 6.978 216.695, 6.880 226.149, 4.970 230.204 C 3.969 232.331, 3.644 234.048, 4.208 234.236 C 4.755 234.418, 5.139 238.095, 5.074 242.532 C 5.010 246.914, 5.512 254.213, 6.189 258.750 L 7.419 267 36.087 267 C 60.350 267, 64.946 266.770, 66 265.500 C 67.014 264.278, 66.962 264, 65.721 264 C 61.361 264, 64.744 256.107, 69.144 256.014 C 69.966 255.996, 68 264.123, 66.813 265.652 C 66.147 266.509, 69.061 266.765, 78.196 266.652 C 90.997 266.494, 95.352 264.605, 88.726 262.086 C 84.670 260.544, 80.165 249.283, 84.105 250.533 C 86.747 251.372, 84.839 248.861, 81.982 247.740 C 81.051 247.374, 80.965 247.129, 81.750 247.079 C 82.438 247.036, 83 245.875, 83 244.500 C 83 243.125, 83.450 242, 84 242 C 84.550 242, 85 241.170, 85 240.155 C 85 236.124, 89.933 233.874, 93.250 236.392 C 95.468 238.076, 95.478 239, 93.278 239 C 91.796 239, 91.864 239.308, 93.767 241.211 C 95.498 242.942, 96.241 243.159, 97.189 242.211 C 98.695 240.705, 103.648 240.621, 104.553 242.086 C 104.974 242.767, 104.343 243.099, 102.862 242.976 C 101.563 242.867, 99.825 242.880, 99 243.004 C 96.671 243.355, 104.988 245.153, 109.787 245.337 C 112.360 245.435, 114.453 246.101, 115.021 247.001 C 115.792 248.219, 115.972 248.100, 115.985 246.364 C 116.024 240.899, 118.540 238.597, 124.207 238.842 C 127.804 238.997, 129.047 238.767, 128.084 238.124 C 126.937 237.357, 127.268 236.578, 129.834 234.012 C 131.575 232.271, 133 230.431, 133 229.923 C 133 229.415, 134.125 229, 135.500 229 C 138.418 229, 138.735 231.473, 136.909 239.988 C 136.025 244.112, 136.092 245.492, 137.264 247.287 C 138.540 249.239, 138.496 250.266, 136.890 256 C 135.889 259.575, 135.054 262.613, 135.035 262.750 C 135.016 262.887, 135.848 263, 136.883 263 C 137.926 263, 139 263.893, 139.290 265 C 139.801 266.954, 140.654 267, 176.406 267 L 213 267 213 262.800 C 213 259.533, 213.267 258.867, 214.200 259.800 C 215.866 261.466, 217.053 261.301, 216.362 259.500 C 216.045 258.675, 215.159 258, 214.393 258 C 213.627 258, 213 257.100, 213 256 C 213 254.900, 213.520 254, 214.155 254 C 214.888 254, 214.752 253.360, 213.785 252.250 C 212.349 250.601, 212.342 249.600, 213.742 246 C 214.063 245.175, 214.211 242.137, 214.070 239.250 C 213.842 234.554, 214.030 234, 215.849 234 C 216.967 234, 218.181 233.516, 218.546 232.925 C 219.443 231.473, 224 235.800, 224 238.103 C 224 239.068, 223.310 240.547, 222.467 241.390 C 220.586 243.271, 222.084 246.261, 225.743 247.929 C 229.054 249.437, 229.551 249.267, 227.727 247.250 C 226.260 245.628, 226.332 245.489, 228.703 245.348 C 232.107 245.145, 233.184 243.284, 232.523 238.750 C 231.950 234.823, 232.895 233.964, 235 236.500 C 236.511 238.321, 239.657 238.470, 240.302 236.750 C 240.626 235.886, 241.250 236.117, 242.323 237.500 L 243.876 239.500 245.371 237.500 C 246.298 236.259, 246.512 235.140, 245.933 234.550 C 244.502 233.093, 244.808 232.440, 247 232.275 C 248.100 232.192, 249 232.595, 249 233.171 C 249 233.805, 250.052 233.953, 251.675 233.546 C 254.018 232.957, 254.189 233.068, 253.052 234.437 C 251.630 236.151, 253.144 239.077, 255.372 238.921 C 256.081 238.871, 256.035 238.655, 255.250 238.338 C 253.849 237.773, 253.566 235.386, 254.809 234.618 C 255.254 234.343, 256.941 235.522, 258.559 237.239 C 261.192 240.033, 261.274 240.301, 259.341 239.797 C 257.114 239.217, 256.634 243.663, 258.446 248.101 C 258.805 248.981, 259.024 250.106, 258.931 250.601 C 258.229 254.355, 259.181 256.829, 261.557 257.425 C 263.583 257.933, 263.978 258.493, 263.462 260.120 C 263.020 261.514, 263.470 262.790, 264.863 264.087 C 267.893 266.910, 268.672 266.452, 268.325 262.055 C 267.983 257.742, 269.102 256.213, 270.960 258.452 C 271.612 259.238, 272.729 259.657, 273.442 259.384 C 274.169 259.105, 274.973 259.788, 275.275 260.943 C 276.092 264.066, 278.888 263.580, 278.536 260.376 C 278.364 258.813, 279.021 256.979, 280.160 255.840 C 282.090 253.910, 281.788 251.395, 279.776 252.638 C 279.144 253.029, 278.977 252.846, 279.378 252.198 C 279.755 251.587, 280.690 251.327, 281.455 251.621 C 283.912 252.564, 284.098 255.100, 281.843 256.926 C 279.571 258.766, 280.114 261.554, 282.562 260.615 C 283.310 260.328, 285.782 261.647, 288.056 263.546 C 291.971 266.817, 298 268.355, 298 266.083 C 298 264.069, 294.163 256.382, 292.462 254.986 C 290.735 253.569, 290.725 253.617, 292.248 256 C 294.177 259.018, 292.205 262.157, 290.028 259.534 C 287.527 256.520, 293.570 244.170, 296.240 246.840 C 297.120 247.720, 297.110 248, 296.200 248 C 294.219 248, 294.824 249.899, 298.106 253.982 C 299.814 256.108, 300.895 258.360, 300.508 258.987 C 300.121 259.613, 300.593 260.998, 301.557 262.063 C 303.311 264.001, 305.140 264.662, 304.841 263.250 C 304.588 262.055, 306.137 259, 306.996 259 C 307.426 259, 308.077 260.599, 308.444 262.553 C 309.097 266.036, 310.782 267.573, 313.101 266.800 C 313.909 266.530, 313.793 265.936, 312.725 264.868 C 311.876 264.019, 311.028 262.239, 310.841 260.912 C 310.580 259.068, 309.793 258.423, 307.500 258.173 C 302.610 257.640, 302.610 256.377, 307.500 256.542 C 311.858 256.690, 311.934 256.643, 309.755 255.148 C 308.515 254.297, 306.880 252.745, 306.122 251.698 C 305.017 250.173, 304.574 250.064, 303.887 251.148 C 303.335 252.019, 303.025 252.085, 303.015 251.332 C 303.007 250.689, 302.707 249.400, 302.349 248.466 C 301.808 247.057, 302.104 246.894, 304.099 247.503 C 307.013 248.393, 310.124 250.990, 309.495 252.008 C 309.243 252.415, 310.173 253.974, 311.561 255.471 C 313.372 257.425, 313.795 258.543, 313.059 259.429 C 311.867 260.865, 313.152 262.810, 316.973 265.354 C 319.165 266.814, 323.986 267, 359.559 267 L 399.673 267 400.337 218.836 C 400.702 192.345, 401 132.271, 401 85.338 L 401 0.004 200.500 0.005 L 0 0.006 0 101.397 M 188.500 93.614 C 184.650 94.445, 177 96.615, 171.500 98.436 C 162.332 101.473, 160.169 101.792, 145.500 102.271 C 129.217 102.804, 110.207 106.739, 101.057 111.471 C 99.430 112.312, 97.064 113.015, 95.800 113.034 C 94.535 113.053, 91.700 113.937, 89.500 115 C 87.300 116.063, 84.959 116.947, 84.297 116.966 C 77.706 117.152, 54 128.524, 54 131.500 C 54 134.210, 58.615 137.132, 61.110 136.001 C 62.670 135.294, 64.889 135.226, 67.500 135.804 L 71.500 136.690 64.500 137.499 C 60.650 137.945, 58.063 138.502, 58.750 138.738 C 60.845 139.457, 60.144 141, 57.723 141 C 51.839 141, 49.567 145.305, 53.500 149 C 54.875 150.292, 56 150.875, 56 150.297 C 56 149.718, 55.325 148.685, 54.500 148 C 52.180 146.075, 52.720 144.101, 55.750 143.426 C 57.263 143.090, 59.251 142.612, 60.168 142.366 C 61.085 142.119, 64.010 143.251, 66.668 144.882 C 73.199 148.889, 80.535 151.671, 91.947 154.468 C 97.201 155.755, 105.604 158.153, 110.621 159.795 C 115.638 161.437, 121.650 163.103, 123.981 163.497 C 127.550 164.100, 129.653 165.612, 137.280 173.060 C 142.264 177.926, 146.717 181.675, 147.177 181.390 C 147.637 181.106, 149.361 181.833, 151.007 183.005 C 154.027 185.155, 155.061 184.919, 152.749 182.607 C 152.062 181.919, 148.738 179.471, 145.364 177.168 C 138.530 172.503, 135.384 169.466, 138.609 170.647 C 140.402 171.303, 140.397 171.218, 138.500 168.998 C 137.388 167.695, 137.154 167.042, 137.975 167.526 C 138.786 168.004, 141.261 168.495, 143.475 168.617 C 145.689 168.739, 155.600 170.256, 165.500 171.989 C 175.670 173.768, 189.075 175.389, 196.316 175.715 L 209.131 176.293 217.327 182.567 C 225.228 188.615, 235.071 193.555, 237.385 192.632 C 237.998 192.387, 236.987 191.854, 235.138 191.446 C 232.443 190.852, 232.097 190.525, 233.396 189.798 C 234.287 189.300, 235.575 189.230, 236.258 189.643 C 236.941 190.056, 236.072 188.955, 234.327 187.197 C 230.604 183.446, 228.554 182.832, 232 186.500 C 233.292 187.875, 233.867 189, 233.278 189 C 231.163 189, 225.833 181.906, 226.943 180.568 C 227.515 179.880, 227.687 179.020, 227.325 178.658 C 226.963 178.296, 227.417 178, 228.333 178 C 229.250 178, 230 177.479, 230 176.841 C 230 176.204, 232.886 178.454, 236.413 181.841 C 239.941 185.229, 243.116 188, 243.470 188 C 243.824 188, 241.357 185.448, 237.988 182.328 C 231.806 176.605, 231.449 173.838, 237.083 175.311 C 238.139 175.588, 238.742 175.391, 238.422 174.874 C 238.087 174.331, 239.339 174.100, 241.393 174.327 C 243.346 174.542, 244.749 174.402, 244.510 174.016 C 244.271 173.630, 246.291 173.396, 248.997 173.495 C 251.704 173.595, 253.718 173.353, 253.473 172.957 C 253.229 172.561, 254.710 172.220, 256.764 172.199 C 258.819 172.178, 263.676 172.062, 267.558 171.942 C 275.696 171.690, 277.183 172.301, 285.500 179.307 C 295.774 187.962, 295.731 187.932, 293.702 185 C 292.750 183.625, 291.720 181.825, 291.413 181 C 291.105 180.175, 290.406 178.669, 289.858 177.653 C 289.310 176.637, 289.118 175.549, 289.431 175.236 C 289.744 174.923, 290 175.022, 290 175.456 C 290 175.890, 290.663 175.695, 291.473 175.022 C 292.985 173.768, 304.134 172.830, 316.433 172.924 C 322.116 172.967, 324.053 173.431, 327.178 175.499 C 330.661 177.804, 330.966 177.857, 330.699 176.109 C 329.767 170.001, 318.092 167.532, 276.067 164.552 C 271.978 164.262, 268.378 163.647, 268.067 163.186 C 267.755 162.724, 263.450 162.279, 258.500 162.196 C 253.550 162.114, 248.150 162.011, 246.500 161.968 C 244.850 161.925, 238.100 161.979, 231.500 162.087 C 217.292 162.319, 213.135 162.027, 212.339 160.740 C 212.003 160.195, 211.375 160.368, 210.875 161.143 C 210.167 162.241, 209.841 162.254, 209.167 161.211 C 208.539 160.240, 207.661 160.179, 205.602 160.961 C 201.896 162.370, 201.777 162.324, 202.480 159.750 C 203.011 157.808, 202.945 157.740, 201.998 159.250 C 200.665 161.375, 198.417 161.530, 197.657 159.548 C 197.329 158.694, 196.215 158.266, 194.955 158.509 C 193.775 158.736, 191.804 158.263, 190.575 157.457 C 189.346 156.652, 188.070 156.263, 187.739 156.594 C 187.081 157.252, 181.669 154.490, 178.500 151.878 C 175.396 149.320, 172.333 148.691, 171.650 150.470 C 170.757 152.797, 168.681 152.330, 169.305 149.943 C 169.694 148.454, 169.519 148.151, 168.671 148.846 C 167.117 150.120, 162.933 150.484, 160.737 149.537 C 159.768 149.119, 158.418 149.218, 157.737 149.758 C 156.181 150.993, 144.339 151.357, 143.619 150.192 C 142.915 149.053, 140.154 149.381, 136.746 151.009 C 133.943 152.348, 131.480 151.557, 133.864 150.084 C 134.583 149.640, 135.186 148.877, 135.205 148.388 C 135.380 143.883, 140.453 139.540, 142.421 142.211 C 145.146 145.909, 147.318 140.332, 144.907 135.827 C 143.644 133.467, 144.512 132.311, 147.903 131.836 C 150.834 131.426, 154.814 137.314, 153.046 139.445 C 152.480 140.126, 152.301 140.968, 152.648 141.315 C 153.774 142.441, 155 140.942, 155 138.441 C 155 135.654, 156.326 135.286, 158.211 137.548 C 161.046 140.952, 167.097 145.966, 168.500 146.075 C 169.050 146.118, 170.287 146.304, 171.250 146.488 C 172.213 146.672, 173 146.413, 173 145.912 C 173 145.410, 174.098 145, 175.441 145 C 176.784 145, 178.165 144.543, 178.510 143.984 C 178.856 143.425, 179.634 143.274, 180.239 143.648 C 180.934 144.077, 181.118 143.749, 180.737 142.758 C 179.831 140.396, 183.534 137.368, 185.417 138.931 C 186.399 139.747, 187.461 139.830, 188.686 139.189 C 189.684 138.667, 191.963 138.462, 193.750 138.733 C 196.318 139.123, 197 138.876, 197 137.554 C 197 136.635, 197.430 136.148, 197.956 136.473 C 198.482 136.798, 198.674 137.687, 198.382 138.447 C 197.965 139.532, 198.945 139.775, 202.925 139.572 C 205.716 139.429, 208 139.640, 208 140.040 C 208 140.440, 209.125 140.982, 210.500 141.245 C 212.038 141.539, 213 141.263, 213 140.528 C 213 138.237, 218.987 139.107, 219.116 141.417 C 219.210 143.105, 219.319 143.168, 219.689 141.750 C 220.216 139.736, 221.554 139.470, 222.606 141.171 C 223.085 141.947, 223.600 141.609, 224.132 140.171 C 225.405 136.730, 227.738 137.427, 227.200 141.087 C 226.776 143.983, 226.874 144.095, 228.792 142.898 C 230.467 141.852, 231.136 141.868, 232.483 142.986 C 235.176 145.221, 240.680 145.320, 242.829 143.171 C 244.539 141.461, 244.961 141.424, 247.504 142.756 C 249.042 143.562, 250.795 144.328, 251.400 144.459 C 252.005 144.591, 253.175 144.968, 254 145.298 C 255.974 146.089, 274.549 150.939, 294.500 155.874 C 303.300 158.051, 312.637 160.501, 315.250 161.318 C 320.390 162.926, 321.719 162.627, 317.250 160.868 C 311.449 158.585, 286.447 151.541, 280.500 150.515 C 277.121 149.932, 267.033 147.139, 266 146.500 C 265.463 146.168, 262.431 145.222, 259.262 144.398 C 256.093 143.573, 252.375 142.147, 251 141.230 C 249.625 140.312, 247.938 139.680, 247.250 139.825 C 246.563 139.969, 246 139.618, 246 139.044 C 246 137.644, 248.627 137.723, 251.316 139.202 C 252.517 139.863, 253.950 140.489, 254.500 140.593 C 258.752 141.397, 268.704 144.347, 269.566 145.059 C 270.152 145.543, 273.302 146.211, 276.566 146.542 C 279.830 146.874, 284.075 147.748, 286 148.484 C 287.925 149.220, 292.650 150.728, 296.500 151.834 C 300.350 152.940, 307.228 154.957, 311.783 156.315 C 324.071 159.979, 318.612 154.997, 298.528 144.216 C 293.013 141.255, 289.351 139.106, 290.391 139.439 C 291.980 139.949, 292.084 139.806, 291.040 138.548 C 290.001 137.296, 290.265 136.864, 292.648 135.917 C 294.217 135.294, 296.400 134.298, 297.500 133.702 C 298.600 133.107, 302.200 131.803, 305.500 130.805 L 311.500 128.989 306.500 129.582 C 303.750 129.908, 296.191 131.466, 289.702 133.044 C 277.506 136.010, 277.112 135.998, 271 132.472 C 269.625 131.679, 267.736 131.023, 266.802 131.015 C 264.198 130.992, 249.088 126.042, 243.709 123.450 C 241.074 122.180, 237.556 120.842, 235.891 120.476 C 234.227 120.111, 232.612 119.153, 232.303 118.348 C 231.991 117.533, 231.072 117.142, 230.230 117.465 C 228.949 117.957, 228.921 117.800, 230.044 116.446 C 231.046 115.240, 232.247 115.023, 234.936 115.563 C 239.999 116.580, 256.296 116.805, 254.771 115.837 C 253.796 115.219, 253.850 115.008, 255 114.934 C 255.825 114.880, 254.925 114.129, 253 113.264 C 250.302 112.051, 244.916 111.605, 229.500 111.317 C 216.347 111.071, 207.959 110.471, 205 109.564 C 202.525 108.805, 197.444 107.396, 193.709 106.433 C 186.675 104.618, 186.459 104.201, 191.500 102.174 C 194.260 101.064, 194.345 101.089, 192.559 102.484 C 190.044 104.448, 190.444 104.400, 196.824 101.976 C 199.752 100.863, 201.887 100.374, 201.568 100.891 C 201.249 101.407, 201.553 102.088, 202.244 102.405 C 202.935 102.722, 202.600 102.771, 201.500 102.514 C 200.400 102.256, 198.825 102.515, 198 103.088 C 196.848 103.889, 197.052 103.975, 198.875 103.458 C 200.491 103.001, 201.032 103.140, 200.566 103.893 C 199.668 105.346, 199.579 105.366, 206.379 102.596 C 221.101 96.599, 207.148 89.590, 188.500 93.614" stroke="none" fill="#1a1a2e" fill-rule="evenodd"/>
</svg>