<svg xmlns="http://www.w3.org/2000/svg" width="400" height="300" viewBox="0 0 400 300" version="1.1">
	<path d="M 21 100.893 C 21 101.502, 21.477 102, 22.059 102 C 22.641 102, 22.889 102.371, 22.609 102.824 C 22.329 103.277, 24.132 105.972, 26.616 108.812 C 29.101 111.652, 30.852 114.431, 30.508 114.988 C 30.164 115.544, 30.535 116, 31.334 116 C 32.133 116, 33.045 116.675, 33.362 117.500 C 33.678 118.325, 33.576 119, 33.135 119 C 32.694 119, 32.333 119.675, 32.333 120.500 C 32.333 121.325, 32.933 122, 33.667 122 C 34.400 122, 34.947 122.338, 34.882 122.750 C 34.500 125.167, 35.250 125.823, 38 125.475 C 40.178 125.199, 41 125.509, 41 126.607 C 41 127.438, 41.450 127.840, 42 127.500 C 42.550 127.160, 43.020 127.246, 43.044 127.691 C 43.068 128.136, 43.459 130.422, 43.913 132.771 L 44.739 137.042 41.208 136.379 C 38.316 135.837, 37.782 135.988, 38.253 137.218 C 38.686 138.346, 37.419 139.140, 33.165 140.409 C 30.049 141.338, 26.942 142.337, 26.259 142.629 C 24.517 143.375, 25.774 137.115, 27.887 134.517 C 29.407 132.649, 29.396 132.615, 27.695 133.935 C 23.135 137.474, 22.035 144.189, 25.048 150.094 C 26.628 153.191, 26.980 155.157, 26.483 158.100 C 25.617 163.224, 26.624 163.109, 28.021 157.924 C 28.849 154.846, 28.824 153.493, 27.917 152.400 C 26.415 150.590, 26.616 150.425, 31.384 149.562 C 34.766 148.950, 35.185 149.076, 34.623 150.541 C 34.194 151.659, 34.400 152.061, 35.239 151.740 C 36.049 151.430, 36.575 152.285, 36.710 154.129 C 36.825 155.708, 36.461 157, 35.901 157 C 35.340 157, 35.124 157.392, 35.420 157.871 C 35.716 158.350, 35.068 159.769, 33.979 161.024 C 31.703 163.648, 31.305 165.822, 33.421 164.065 C 34.588 163.097, 34.746 163.255, 34.305 164.943 C 34.009 166.074, 33.369 167, 32.883 167 C 32.398 167, 32.112 167.542, 32.250 168.205 C 32.387 168.867, 32.018 169.430, 31.429 169.455 C 30.839 169.480, 29.489 170.375, 28.429 171.444 C 26.691 173.195, 26.677 173.321, 28.288 172.711 C 29.434 172.277, 30.282 172.571, 30.650 173.529 C 31.136 174.796, 31.780 174.695, 34.862 172.868 L 38.500 170.711 35 173.923 L 31.500 177.135 35.722 174.899 C 40.972 172.119, 47.054 167.135, 58 156.646 C 62.675 152.166, 67.625 147.716, 69 146.758 L 71.500 145.016 68.824 146.135 C 67.224 146.804, 65.011 146.935, 63.324 146.462 C 61.771 146.026, 58.587 145.694, 56.250 145.723 C 51.300 145.786, 51.121 145.479, 54.538 142.792 C 57.163 140.726, 56.521 138, 53.409 138 C 52.624 138, 52.302 137.376, 52.638 136.501 C 53.110 135.271, 53.737 135.442, 56.134 137.459 C 60.036 140.743, 61.500 139.946, 61.500 134.539 C 61.500 131.735, 61.150 130.450, 60.550 131.050 C 59.312 132.288, 55.704 132.288, 56.469 131.050 C 57.132 129.977, 53.380 127.647, 52.182 128.388 C 50.757 129.268, 48.923 127.363, 49.571 125.676 C 49.922 124.760, 50.681 124.303, 51.256 124.659 C 51.832 125.014, 52.855 124.552, 53.528 123.631 C 54.503 122.297, 55.288 122.159, 57.376 122.953 C 59.501 123.761, 60 123.659, 60 122.416 C 60 121.490, 60.469 121.172, 61.182 121.613 C 62.881 122.663, 68 122.833, 68 121.839 C 68 121.378, 67.073 121, 65.941 121 C 64.809 121, 64.160 120.550, 64.500 120 C 64.878 119.389, 63.344 119, 60.559 119 C 57.893 119, 56 118.540, 56 117.893 C 56 117.284, 56.661 117.040, 57.468 117.349 C 58.275 117.659, 59.182 117.515, 59.482 117.028 C 59.959 116.258, 57.624 115.039, 54.500 114.426 C 53.950 114.318, 51.093 112.604, 48.152 110.617 C 45.210 108.629, 42.390 107.259, 41.884 107.572 C 41.378 107.885, 39.509 107.252, 37.732 106.166 C 35.954 105.079, 32.250 103.517, 29.500 102.693 C 26.750 101.869, 23.712 100.877, 22.750 100.490 C 21.713 100.073, 21 100.237, 21 100.893 M 250.586 102.501 C 250.944 104.473, 250.736 104.966, 249.784 104.408 C 249.078 103.995, 249.357 104.634, 250.405 105.828 C 251.453 107.023, 251.817 108, 251.214 108 C 250.611 108, 249.844 107.556, 249.509 107.014 C 248.746 105.779, 245.665 106.203, 243.730 107.809 C 242.557 108.783, 241.990 108.686, 240.883 107.325 C 239.672 105.838, 239.712 105.705, 241.199 106.262 C 242.472 106.738, 242.743 106.493, 242.279 105.285 C 241.834 104.124, 242.031 103.901, 242.985 104.490 C 243.828 105.012, 244.069 104.921, 243.648 104.240 C 243.285 103.652, 243.530 102.990, 244.193 102.769 C 244.941 102.520, 244.734 102.112, 243.648 101.695 C 242.684 101.325, 242.140 101.417, 242.437 101.898 C 242.735 102.380, 242.268 103.363, 241.400 104.083 C 240.053 105.201, 239.872 105.124, 240.161 103.560 C 240.379 102.380, 239.830 101.622, 238.619 101.433 C 237.221 101.214, 237.028 101.428, 237.869 102.269 C 238.491 102.891, 239 104.177, 239 105.127 C 239 106.078, 240.194 107.794, 241.653 108.941 C 243.976 110.769, 244.209 112.407, 242.167 112.545 C 236.599 112.922, 233.640 114.264, 235.454 115.590 C 237.689 117.224, 239.399 117.454, 238.500 116 C 238.160 115.450, 238.359 115, 238.941 115 C 239.523 115, 240 115.450, 240 116 C 240 116.550, 240.661 117, 241.469 117 C 242.408 117, 242.741 116.369, 242.393 115.250 C 241.878 113.592, 241.908 113.592, 242.977 115.256 C 243.796 116.529, 244.819 116.832, 246.702 116.360 C 248.682 115.863, 249.108 116.017, 248.495 117.009 C 247.949 117.892, 248.083 118.067, 248.914 117.553 C 249.586 117.138, 249.886 116.145, 249.580 115.347 C 249.269 114.537, 249.459 114.166, 250.011 114.507 C 250.555 114.843, 251 115.718, 251 116.452 C 251 117.186, 251.739 118.069, 252.641 118.416 C 253.908 118.902, 254.035 118.747, 253.197 117.737 C 252.368 116.738, 252.554 116.429, 253.982 116.429 C 255.011 116.429, 255.635 116.782, 255.368 117.214 C 255.100 117.646, 255.584 118, 256.441 118 C 257.298 118, 258 118.450, 258 119 C 258 119.550, 258.525 120, 259.167 120 C 259.808 120, 260.030 119.696, 259.659 119.325 C 258.866 118.533, 264.048 114.911, 265.070 115.543 C 265.453 115.780, 268.393 115.069, 271.604 113.964 C 274.815 112.860, 278.068 112.196, 278.832 112.489 C 279.784 112.854, 280.030 112.520, 279.611 111.430 C 279.275 110.553, 279 108.722, 279 107.359 C 279 105.962, 278.564 105.152, 278 105.500 C 277.450 105.840, 277 105.697, 277 105.181 C 277 103.835, 279.928 101.595, 280.691 102.357 C 281.044 102.711, 280.808 103, 280.167 103 C 279.525 103, 279 103.487, 279 104.083 C 279 104.679, 279.519 104.994, 280.153 104.782 C 280.788 104.571, 282.367 105.457, 283.662 106.753 C 284.957 108.048, 286.350 108.902, 286.758 108.650 C 287.166 108.398, 287.569 109.339, 287.653 110.742 C 287.796 113.118, 287.373 113.964, 284.340 117.373 C 282.202 119.777, 282.290 125, 284.469 125 C 285.381 125, 285.713 124.416, 285.346 123.459 C 285.021 122.612, 285.147 122.029, 285.627 122.165 C 286.107 122.300, 287.940 121.644, 289.700 120.706 C 294.348 118.229, 296.661 118.512, 297.449 121.654 C 298.090 124.206, 303.603 133, 304.562 133 C 304.819 133, 303.666 130.300, 302 127 C 300.334 123.700, 299.258 121, 299.608 121 C 299.958 121, 299.676 120.314, 298.980 119.476 C 298.284 118.638, 298.004 117.663, 298.357 117.309 C 298.711 116.956, 299 117.130, 299 117.696 C 299 118.262, 300.153 118.598, 301.563 118.444 C 303.014 118.284, 304.350 118.748, 304.643 119.513 C 305.241 121.070, 308.984 121.091, 309.032 119.537 C 309.049 118.967, 309.724 119.374, 310.532 120.441 C 311.590 121.841, 312.009 121.980, 312.032 120.941 C 312.055 119.902, 312.473 120.042, 313.532 121.441 C 314.339 122.509, 315 123.016, 315 122.569 C 315 122.121, 315.602 122.255, 316.338 122.865 C 317.074 123.476, 319.436 124.094, 321.588 124.238 C 323.740 124.382, 325.831 124.950, 326.235 125.500 C 326.690 126.119, 326.975 126.024, 326.985 125.250 C 327.009 123.267, 331.508 123.799, 333.521 126.024 C 334.529 127.137, 335.611 127.656, 335.926 127.178 C 336.816 125.828, 342 124.807, 342 125.981 C 342 126.541, 342.950 127, 344.111 127 C 346.177 127, 346.172 126.957, 343.861 124.944 L 341.500 122.887 343.787 123.998 C 345.538 124.849, 346.731 124.782, 348.879 123.710 C 351.200 122.552, 354.155 122.276, 357 122.952 C 357.275 123.017, 356.381 123.690, 355.013 124.448 C 353.644 125.205, 352.182 125.612, 351.763 125.353 C 351.343 125.094, 351 125.356, 351 125.935 C 351 127.048, 354.466 126.867, 355.641 125.692 C 356.800 124.533, 360.688 124.919, 361.840 126.308 C 362.691 127.333, 361.865 127.941, 358.019 129.121 C 355.321 129.949, 353.339 130.260, 353.615 129.813 C 353.892 129.366, 353.416 129, 352.559 129 C 351.702 129, 351 129.480, 351 130.067 C 351 130.701, 350.136 130.860, 348.875 130.460 C 347.558 130.042, 346.985 130.167, 347.369 130.788 C 348.193 132.122, 345.718 133.001, 343.082 132.311 C 341.470 131.890, 341.111 132.125, 341.564 133.307 C 341.891 134.158, 342.993 134.694, 344.013 134.497 C 345.034 134.301, 348.711 133.851, 352.184 133.497 C 365.116 132.180, 382.471 126.894, 382.010 124.413 C 381.922 123.938, 382.396 123.368, 383.064 123.145 C 383.844 122.885, 383.999 123.234, 383.498 124.120 C 383.032 124.946, 383.425 124.836, 384.477 123.846 C 386.953 121.518, 385.557 120, 380.941 120 C 378.773 120, 377 119.550, 377 119 C 377 118.450, 377.675 118, 378.500 118 C 386.372 118, 373.295 113.623, 359.500 111.640 C 355.179 111.019, 350.580 109.788, 350 109.096 C 348.484 107.289, 340.741 105.756, 326.500 104.445 C 317.700 103.635, 309.914 102.758, 309.198 102.497 C 308.482 102.236, 308.171 102.468, 308.507 103.011 C 309.273 104.250, 307.728 104.313, 306.450 103.095 C 305.927 102.597, 298.525 101.871, 290 101.482 C 281.475 101.093, 273.787 100.640, 272.915 100.476 C 269.654 99.863, 269.116 101.509, 271.758 104.016 C 273.198 105.382, 274.087 106.013, 273.732 105.417 C 273.378 104.821, 273.743 104.333, 274.544 104.333 C 276.327 104.333, 276.373 104.784, 274.750 106.347 C 273.283 107.759, 266 108.062, 266 106.710 C 266 106.202, 266.638 106.031, 267.417 106.330 C 268.197 106.629, 269.074 106.250, 269.366 105.488 C 269.703 104.609, 269.397 104.294, 268.529 104.627 C 267.547 105.004, 267.241 104.413, 267.446 102.543 C 267.713 100.106, 267.615 100.039, 265.965 101.531 C 264.883 102.511, 263.959 102.742, 263.580 102.129 C 262.821 100.901, 259 101.073, 259 102.335 C 259 102.836, 258.330 102.689, 257.512 102.010 C 255.721 100.524, 254.393 102.872, 255.395 105.750 C 255.973 107.408, 255.934 107.408, 254.654 105.766 C 253.910 104.812, 253.009 104.324, 252.651 104.682 C 252.293 105.040, 252 104.808, 252 104.167 C 252 103.525, 252.450 103, 253 103 C 253.550 103, 254 102.475, 254 101.833 C 254 101.192, 253.704 100.963, 253.342 101.325 C 252.980 101.687, 252.103 101.501, 251.394 100.912 C 250.381 100.071, 250.207 100.412, 250.586 102.501 M 290.591 164.808 C 291.196 168.622, 291.037 169.178, 289.206 169.656 C 287.878 170.004, 287.304 170.788, 287.600 171.849 C 287.854 172.757, 287.529 172.488, 286.878 171.250 C 284.617 166.953, 283.928 169.001, 284.608 178 C 284.981 182.950, 285.038 187, 284.734 187 C 282.482 187, 270.966 174.336, 270.381 171.217 C 269.789 168.063, 269.575 167.861, 268.454 169.394 C 267.652 170.491, 266.953 170.733, 266.537 170.060 C 265.744 168.776, 264 168.655, 264 169.883 C 264 170.642, 267.513 172.264, 269 172.192 C 269.275 172.178, 269.565 173.252, 269.644 174.577 C 269.795 177.103, 269.103 177.022, 265.569 174.098 C 263.660 172.519, 263.660 172.532, 265.569 175.202 C 266.631 176.689, 268.753 178.437, 270.284 179.088 C 274.998 181.091, 280.731 188.518, 281.950 194.201 C 282.549 196.994, 283.751 200.904, 284.621 202.890 C 285.492 204.875, 286.586 207.400, 287.054 208.500 C 287.521 209.600, 288.038 212.871, 288.202 215.768 L 288.500 221.037 286.682 218.540 C 282.710 213.083, 280 206.747, 280 202.915 C 280 200.726, 279.325 197.320, 278.500 195.346 C 277.675 193.371, 277 190.654, 277 189.306 C 277 186.431, 274.431 183.265, 273.715 185.259 C 273.459 185.972, 272.481 185.154, 271.416 183.336 C 270.397 181.596, 268.268 179.408, 266.686 178.473 L 263.809 176.774 265.067 179.137 C 265.759 180.437, 267.556 183.075, 269.061 185 C 272.435 189.316, 274.232 194.267, 271.645 192.120 C 270.159 190.887, 270.065 191.080, 270.668 194.128 C 271.244 197.047, 274.228 202.458, 276.110 204 C 277.258 204.940, 280 210.898, 280 212.450 C 280 213.303, 280.450 214, 281 214 C 281.550 214, 282 215.260, 282 216.800 C 282 218.340, 282.403 220.028, 282.895 220.550 C 283.911 221.629, 285.422 228, 284.662 228 C 284.388 228, 282.986 224.463, 281.546 220.140 C 280.107 215.816, 277.482 210.123, 275.714 207.489 C 271.269 200.863, 270.680 199.715, 266.486 189.500 C 264.453 184.550, 262.005 179.600, 261.044 178.500 C 260.084 177.400, 258.995 175.648, 258.625 174.607 C 258.256 173.566, 257.678 172.989, 257.341 173.326 C 257.004 173.662, 257.394 174.964, 258.206 176.219 C 259.019 177.473, 259.988 179.738, 260.361 181.250 C 260.733 182.762, 261.480 184, 262.019 184 C 262.559 184, 263 185.025, 263 186.277 C 263 187.530, 263.701 189.555, 264.557 190.777 C 265.413 192, 265.680 193, 265.151 193 C 264.622 193, 262.808 190.863, 261.121 188.250 C 255.297 179.234, 252.413 179.009, 256.962 187.925 C 258.105 190.166, 258.777 192, 258.455 192 C 255.806 192, 244.019 181.159, 243.983 178.691 C 243.964 177.414, 239.176 172.472, 238.579 173.115 C 237.950 173.793, 246.386 185.808, 251.845 192.010 C 254.749 195.309, 257.188 198.840, 257.264 199.858 C 257.410 201.796, 260.828 201.692, 262.138 199.710 C 262.984 198.430, 265 199.733, 265 201.559 C 265 202.952, 263.859 203.413, 261.250 203.075 C 260.123 202.928, 259.562 204.228, 259.882 206.250 C 260.338 209.140, 256.674 206.072, 254.805 202 C 253.268 198.649, 251.906 197, 250.676 197 C 248.593 197, 249.025 201.120, 251.645 206.247 C 253.195 209.281, 253.084 217.215, 251.500 216.623 C 250.950 216.418, 250.650 215.631, 250.833 214.875 C 251.017 214.119, 250.828 213.838, 250.414 214.252 C 250.001 214.666, 248.838 214.259, 247.831 213.347 C 245.635 211.360, 245.300 213.028, 246.997 217.492 C 247.545 218.934, 247.587 219.863, 247.090 219.555 C 246.592 219.248, 244.060 212.360, 241.462 204.248 C 238.864 196.137, 236.573 189.312, 236.369 189.083 C 234.230 186.670, 236.355 199.116, 239.645 208.270 C 242.226 215.452, 241.411 217.060, 237.458 212.583 C 235.556 210.429, 234 208.910, 234 209.206 C 234 210.480, 238.368 219.459, 241.216 224.041 C 242.919 226.780, 244.112 229.222, 243.866 229.467 C 243.221 230.112, 229.720 207.145, 228.308 203 C 227.197 199.740, 226.275 195.261, 226.082 192.191 C 226.037 191.471, 225.550 191.160, 225 191.500 C 224.450 191.840, 224 191.416, 224 190.559 C 224 189.702, 223.235 189, 222.300 189 C 220.978 189, 220.867 189.267, 221.800 190.200 C 222.460 190.860, 223.032 192.773, 223.070 194.450 C 223.127 196.892, 223.291 197.116, 223.895 195.573 C 224.596 193.785, 224.699 193.773, 225.325 195.405 C 226.246 197.804, 226.196 198, 224.673 198 C 223.776 198, 223.452 199.053, 223.671 201.250 L 223.995 204.500 222.495 201.250 C 221.669 199.463, 220.735 198, 220.418 198 C 219.300 198, 221.263 204.574, 224.239 210.792 C 225.895 214.253, 226.981 217.352, 226.653 217.681 C 226.324 218.009, 225.605 217.090, 225.053 215.639 C 224.501 214.187, 223.643 213, 223.146 213 C 222.649 213, 221.645 211.557, 220.914 209.793 C 218.498 203.960, 215.611 201.928, 216.415 206.626 C 216.779 208.757, 217.279 212.300, 217.527 214.500 L 217.977 218.500 216.015 214.500 C 214.935 212.300, 214.041 211.092, 214.026 211.816 C 214.012 212.539, 214.494 214.054, 215.098 215.182 C 215.942 216.759, 215.864 217.564, 214.763 218.665 C 213.521 219.908, 213.310 219.538, 213.166 215.873 C 213.075 213.551, 212.290 210.565, 211.420 209.238 C 210.551 207.912, 210.101 206.566, 210.420 206.247 C 210.739 205.928, 211 206.267, 211 207 C 211 207.733, 211.247 208.086, 211.549 207.785 C 212.244 207.090, 211.003 202, 210.139 202 C 209.784 202, 209.344 206.161, 209.159 211.246 C 208.975 216.332, 208.402 221.169, 207.887 221.996 C 207.057 223.329, 206.972 223.330, 207.138 222 C 207.438 219.604, 205.930 215.187, 204.370 213.892 C 203.150 212.879, 203.090 213.106, 203.968 215.416 C 205.273 218.848, 205.249 220.031, 203.920 217.750 C 203.359 216.787, 202.269 216, 201.497 216 C 200.725 216, 199.346 214.425, 198.433 212.500 C 197.520 210.575, 196.148 209, 195.386 209 C 194.624 209, 194 208.352, 194 207.559 C 194 205.795, 192.345 204.633, 191.584 205.863 C 191.280 206.356, 192.166 208.896, 193.555 211.507 C 194.943 214.118, 195.852 216.481, 195.574 216.759 C 194.959 217.375, 199.807 225.920, 201.953 228 C 202.804 228.825, 203.573 231.024, 203.662 232.887 C 203.844 236.671, 205.186 237.948, 208.361 237.357 C 210.416 236.975, 210.421 236.996, 208.500 237.909 C 207.400 238.432, 206.008 238.891, 205.407 238.930 C 204.285 239.002, 196 225.881, 196 224.031 C 196 223.464, 195.550 223, 195 223 C 194.450 223, 194 222.298, 194 221.441 C 194 220.505, 193.532 220.171, 192.830 220.605 C 192.075 221.072, 191.860 220.808, 192.223 219.862 C 192.532 219.055, 191.757 217.406, 190.497 216.193 L 188.209 213.991 189.032 217.642 C 189.485 219.650, 190.265 221.564, 190.766 221.896 C 191.981 222.702, 196.834 236.020, 196.741 238.291 C 196.658 240.284, 193.916 240.252, 193.249 238.249 C 192.985 237.455, 193.411 237.221, 194.416 237.606 C 195.482 238.015, 196 237.653, 196 236.500 C 196 235.436, 195.465 234.991, 194.590 235.327 C 193.780 235.638, 192.398 234.758, 191.340 233.258 C 188.827 229.695, 179.702 220.965, 179.109 221.557 C 178.846 221.821, 180.274 223.720, 182.283 225.778 C 185.874 229.456, 188.825 235.509, 187.616 236.718 C 187.277 237.056, 187 236.583, 187 235.667 C 187 234.750, 186.550 234, 186 234 C 185.450 234, 185 233.325, 185 232.500 C 185 231.675, 184.632 231, 184.182 231 C 183.732 231, 181.594 229.426, 179.432 227.502 C 177.269 225.578, 175.359 224.425, 175.188 224.939 C 174.844 225.969, 176.968 228.253, 184.470 234.917 L 189.442 239.333 185.611 238.712 C 180.724 237.919, 169.654 230.442, 163.089 223.500 C 157.570 217.665, 156.192 217.334, 161.005 223 C 167.244 230.343, 168.034 231.662, 165.093 229.826 C 163.930 229.100, 162.727 227.716, 162.421 226.752 C 162.116 225.789, 160.996 225, 159.933 225 C 158.870 225, 158 224.550, 158 224 C 158 223.450, 157.116 223, 156.035 223 C 154.955 223, 153.618 222.154, 153.064 221.120 C 152.511 220.086, 150.245 218.515, 148.029 217.628 C 145.813 216.742, 144 215.577, 144 215.039 C 144 214.502, 143.366 214.306, 142.590 214.604 C 141.743 214.929, 140.918 214.318, 140.523 213.072 C 140.161 211.933, 139.446 211, 138.933 211 C 138.420 211, 138 210.555, 138 210.011 C 138 208.730, 134.807 205, 133.710 205 C 133.246 205, 133.164 205.941, 133.529 207.092 C 134.654 210.635, 130.821 208.968, 128.071 204.718 C 126.331 202.029, 125.405 201.323, 124.808 202.231 C 124.198 203.161, 123.044 202.502, 120.488 199.765 L 117 196.029 116.834 199.765 C 116.530 206.608, 116.609 209.456, 117.258 215 C 118.683 227.181, 118.832 227.521, 123.609 229.490 C 127.486 231.089, 131.355 234, 129.604 234 C 125.874 234, 116.059 226.274, 117.702 224.631 C 118.049 224.284, 117.829 224, 117.212 224 C 116.107 224, 115.405 221.296, 114.504 213.573 C 113.482 204.811, 112.117 207.919, 112.514 218.104 C 112.737 223.822, 112.767 228.050, 112.581 227.500 C 112.395 226.950, 111.666 224.588, 110.961 222.250 C 110.058 219.254, 109.137 218, 107.840 218 C 105.629 218, 105.393 216.170, 107.500 215.362 C 108.325 215.045, 109 213.619, 109 212.193 C 109 210.277, 108.707 209.893, 107.878 210.722 C 106.324 212.276, 104 211.179, 104 208.893 C 104 207.554, 104.713 207, 106.433 207 C 108.483 207, 108.853 206.532, 108.782 204.034 C 108.734 202.357, 108.269 201.334, 107.712 201.678 C 107.169 202.013, 105.873 201.210, 104.831 199.894 L 102.937 197.500 100.218 200.915 C 98.723 202.793, 97.500 205.489, 97.500 206.905 C 97.500 208.481, 96.918 209.523, 96 209.589 C 95.175 209.647, 94.120 209.764, 93.655 209.848 C 92.569 210.043, 97.057 217.829, 102.642 225.438 C 108.696 233.686, 108.090 235.348, 101.506 228.551 C 95.228 222.069, 89.690 214.396, 89.256 211.578 C 89.093 210.522, 88.581 209.172, 88.118 208.578 C 87.655 207.985, 86.967 206.209, 86.589 204.632 C 86.212 203.055, 85.655 202.012, 85.352 202.315 C 85.049 202.618, 85.339 204.498, 85.998 206.493 C 86.656 208.487, 87.308 210.655, 87.446 211.310 C 87.585 211.964, 88.046 213.307, 88.472 214.293 C 88.899 215.279, 89.054 216.279, 88.818 216.515 C 88.100 217.233, 83 206.446, 83 204.209 C 83 203.059, 82.543 201.835, 81.984 201.490 C 81.425 201.144, 81.270 200.373, 81.639 199.775 C 82.100 199.030, 81.240 198.890, 78.905 199.331 L 75.500 199.974 78.255 198.252 C 79.770 197.305, 80.858 196.074, 80.672 195.515 C 80.182 194.045, 77.453 194.264, 77.750 195.750 C 77.898 196.492, 76.950 197, 75.417 197 C 73.996 197, 72.986 197.338, 73.172 197.750 C 73.358 198.162, 74.165 200.199, 74.965 202.276 C 75.895 204.689, 76.905 205.867, 77.762 205.538 C 78.500 205.255, 78.842 205.447, 78.521 205.965 C 77.218 208.074, 79.324 212.060, 82.551 213.591 C 85.802 215.134, 90.001 220, 88.082 220 C 87.552 220, 86.840 219.550, 86.500 219 C 85.929 218.076, 82 217.529, 82 218.374 C 82 224.910, 98.315 245, 103.622 245 C 104.395 245, 105.809 245.417, 106.764 245.927 C 107.719 246.437, 109.400 247.202, 110.500 247.628 C 112.194 248.284, 112.012 248.457, 109.308 248.760 C 105.816 249.152, 95 244.478, 95 242.578 C 95 241.975, 94.155 240.954, 93.123 240.309 C 90.858 238.894, 83 227.092, 83 225.104 C 83 223.007, 72.625 207.624, 72.157 209.028 C 71.937 209.690, 72.192 210.517, 72.724 210.866 C 73.257 211.215, 74.511 214.200, 75.511 217.500 C 76.512 220.800, 78.156 225.170, 79.165 227.210 C 81.214 231.353, 81.433 232.386, 80.087 231.553 C 78.967 230.862, 75 222.806, 75 221.225 C 75 217.963, 71.440 212.985, 69.500 213.534 C 68.400 213.846, 66.983 214.210, 66.351 214.344 C 65.719 214.478, 64.481 215.186, 63.601 215.916 C 62.660 216.697, 62 216.812, 62 216.195 C 62 215.181, 64.946 212.591, 68.501 210.480 C 70.074 209.545, 69.967 209.032, 67.225 204.382 C 65.579 201.589, 63.912 198.297, 63.521 197.065 C 62.818 194.852, 62.794 194.849, 61.413 196.821 C 60.508 198.113, 59.307 198.632, 58.007 198.292 C 56.883 197.998, 56 198.258, 56 198.883 C 56 199.498, 55.298 200, 54.441 200 C 53.584 200, 53.138 200.414, 53.451 200.920 C 54.389 202.439, 48.807 206.186, 46.538 205.561 C 45.417 205.252, 42.700 204.751, 40.500 204.447 L 36.500 203.895 39.347 205.530 L 42.193 207.165 39.922 209.583 C 37.687 211.962, 35.293 212.954, 36.500 211 C 37.303 209.700, 30.011 209.700, 28 211 C 26.667 211.862, 26.667 211.974, 28 212.015 C 29.146 212.050, 29.070 212.311, 27.677 213.121 C 26.249 213.951, 25.561 213.782, 24.508 212.342 C 23.769 211.331, 22.827 210.840, 22.415 211.252 C 22.003 211.663, 22.192 212, 22.833 212 C 23.475 212, 24 212.963, 24 214.140 C 24 215.317, 24.788 216.928, 25.750 217.721 C 27.385 219.068, 27.368 219.115, 25.500 218.430 C 24.400 218.027, 22.375 217.596, 21 217.473 C 19.625 217.351, 18.613 216.744, 18.750 216.125 C 18.888 215.506, 17.875 215, 16.500 215 C 15.125 215, 14 214.662, 14 214.250 C 14 212.964, 2.190 213.413, 0.851 214.750 C -0.150 215.751, -0.144 216, 0.883 216 C 1.589 216, 1.976 216.563, 1.744 217.250 C 1.511 217.938, 2.340 218.950, 3.585 219.500 C 5.517 220.353, 5.640 220.689, 4.425 221.789 C 3.250 222.852, 3 222.808, 3 221.539 C 3 220.693, 2.325 220, 1.500 220 C -2.415 220, -0.052 224.725, 4.500 226 C 7.072 226.720, 9 227.856, 9 228.650 C 9 229.731, 8.119 229.591, 5.040 228.020 C -0.234 225.330, 0 225.125, 0 232.427 C 0 237.706, 0.312 238.935, 1.750 239.311 C 3.417 239.746, 3.417 239.774, 1.750 239.884 C 0.125 239.992, -0 242.140, -0 270.002 L -0 300.005 200.250 299.752 L 400.500 299.500 400.726 262.390 L 400.952 225.280 398.726 225.580 C 397.502 225.744, 394.928 226.356, 393.007 226.939 C 391.085 227.523, 389.382 228, 389.221 228 C 389.061 228, 389.472 226.988, 390.134 225.750 C 390.796 224.512, 391.170 223.500, 390.965 223.500 C 390.759 223.500, 391.458 222.488, 392.518 221.250 C 393.619 219.965, 395.528 219.027, 396.972 219.063 L 399.500 219.127 397 220.181 L 394.500 221.235 397.500 222.530 C 400.819 223.963, 401.531 223.252, 400.579 219.457 C 400.166 217.814, 399.223 216.967, 397.731 216.900 C 395.599 216.805, 395.609 216.770, 397.950 216.117 C 400.511 215.402, 401.301 211.914, 399.545 209.074 C 399.025 208.231, 399.069 207.925, 399.658 208.289 C 400.236 208.646, 400.522 207.200, 400.367 204.693 C 400.225 202.387, 400.085 199.767, 400.055 198.872 C 400.020 197.836, 398.591 196.886, 396.130 196.261 C 392.732 195.399, 392.313 195.482, 392.697 196.948 C 393.324 199.348, 388.777 201.246, 385.439 199.977 C 381.712 198.560, 380.030 198.769, 379.218 200.750 C 378.665 202.099, 377.182 202.539, 372.750 202.670 C 366.462 202.856, 365.678 202.453, 369.500 201 C 370.875 200.477, 372 199.273, 372 198.325 C 372 196.983, 371.733 196.867, 370.800 197.800 C 370.140 198.460, 368.650 199, 367.489 199 C 366.327 199, 364.411 199.900, 363.230 201 C 362.050 202.100, 360.427 203, 359.625 203 C 358.823 203, 357.960 203.563, 357.708 204.250 C 357.342 205.250, 356.985 205.250, 355.925 204.250 C 354.833 203.220, 354.888 203, 356.241 203 C 357.144 203, 358.160 202.550, 358.500 202 C 358.848 201.438, 358.049 201, 356.676 201 C 353.214 201, 352.470 204.438, 355.621 205.873 C 356.930 206.469, 357.993 207.529, 357.985 208.229 C 357.974 209.155, 357.770 209.186, 357.233 208.342 C 356.827 207.705, 354.837 207.231, 352.810 207.288 C 350.783 207.346, 349.319 207.707, 349.557 208.092 C 350.247 209.209, 347.053 210.051, 344.530 209.418 C 343.258 209.099, 341.930 209.305, 341.577 209.875 C 341.224 210.446, 340.163 210.676, 339.218 210.387 C 338.273 210.098, 338.625 210.552, 340 211.395 C 341.855 212.534, 342.064 212.938, 340.809 212.965 C 338.409 213.015, 337.736 214.593, 339.403 216.261 C 340.632 217.490, 340.193 217.706, 336.163 217.857 C 333.598 217.953, 331.350 218.475, 331.167 219.016 C 330.983 219.557, 329.944 220, 328.858 220 C 327.771 220, 327.157 219.555, 327.493 219.011 C 327.843 218.445, 327.442 218.277, 326.552 218.618 C 324.557 219.384, 324.596 219.977, 326.750 221.590 C 328.324 222.769, 328.248 222.848, 326 222.381 C 323.858 221.937, 323.751 222.023, 325.250 222.981 C 327.944 224.703, 327.395 226.316, 324.374 225.558 C 322.232 225.020, 321.861 225.194, 322.362 226.501 C 322.719 227.431, 322.562 227.847, 321.989 227.493 C 321.445 227.157, 321 227.659, 321 228.608 C 321 229.557, 320.716 230.049, 320.369 229.702 C 319.191 228.524, 316.088 231.012, 314.463 234.436 C 312.611 238.340, 309.852 240.051, 310.316 237.009 C 310.478 235.953, 311.372 234.246, 312.305 233.216 C 314.186 231.137, 314.673 228.927, 312.847 230.753 C 312 231.600, 311.149 231.615, 309.645 230.810 C 308.349 230.116, 307.475 230.074, 307.269 230.694 C 306.529 232.913, 299.482 230.575, 299.813 228.221 C 300.035 226.647, 299.443 225.739, 297.785 225.108 C 295.812 224.358, 295.248 223.064, 294.189 216.859 C 293.499 212.812, 291.785 206.163, 290.382 202.085 C 288.335 196.140, 288.045 194.198, 288.915 192.288 C 289.512 190.978, 290 186.533, 290 182.411 C 290 176.490, 290.390 174.498, 291.858 172.922 C 294.108 170.507, 293.923 164.489, 291.525 162.107 C 290.036 160.628, 289.962 160.842, 290.591 164.808" stroke="none" fill="#1a1a2e" fill-rule="evenodd"/>
</svg>