<svg xmlns="http://www.w3.org/2000/svg" width="400" height="266" viewBox="0 0 400 266" version="1.1">
	<path d="M 0 133.002 L 0 266.005 200.250 265.752 L 400.500 265.500 400.572 132.500 C 400.611 59.350, 400.475 1.613, 400.269 4.197 C 399.814 9.910, 401.093 9.638, 370.500 10.527 C 358.950 10.862, 347.925 11.307, 346 11.516 C 344.075 11.724, 333.605 12.170, 322.733 12.508 C 311.861 12.845, 301.961 13.357, 300.733 13.644 C 296.178 14.710, 267.480 15.162, 268.500 14.151 C 269.050 13.606, 272.748 12.890, 276.718 12.560 C 302.937 10.378, 280.919 9.465, 237.540 10.934 C 223.811 11.399, 211.661 11.433, 210.540 11.010 C 207.458 9.847, 217.901 9.047, 322 2.474 C 335.475 1.623, 347.400 0.780, 348.500 0.600 C 349.600 0.420, 271.637 0.211, 175.250 0.136 L 0 0 0 133.002 M 210 94.905 C 196.981 97.115, 191.776 98.555, 187.687 101.076 C 185.934 102.157, 183.275 103.576, 181.777 104.230 C 178.683 105.580, 177.359 107.986, 179.112 109.069 C 180.596 109.987, 175.841 115, 173.486 115 C 172.604 115, 172.174 115.472, 172.530 116.049 C 172.980 116.777, 173.574 116.769, 174.472 116.023 C 175.428 115.230, 175.926 115.364, 176.376 116.538 C 176.712 117.412, 177.439 117.847, 177.993 117.504 C 178.547 117.162, 179 117.306, 179 117.824 C 179 119.265, 175.310 119.910, 174.084 118.684 C 173.305 117.905, 173 118.056, 173 119.218 C 173 121.841, 174.121 124, 175.482 124 C 176.179 124, 177.020 125.350, 177.350 127 C 178.102 130.760, 179.995 130.937, 180.015 127.250 C 180.027 125.188, 180.261 124.863, 180.950 125.953 C 181.455 126.752, 181.661 128.552, 181.407 129.953 C 180.866 132.938, 182.287 135.559, 183.905 134.559 C 184.525 134.176, 184.774 133.443, 184.457 132.931 C 184.141 132.419, 184.359 132, 184.941 132 C 185.523 132, 186 132.450, 186 133 C 186 134.469, 188.994 134.222, 189.032 132.750 C 189.051 132.014, 189.634 132.253, 190.452 133.333 C 192.087 135.490, 194.680 132.214, 193.588 129.370 C 193.271 128.542, 193.456 128.164, 194.011 128.507 C 194.555 128.843, 195 129.991, 195 131.059 C 195 132.127, 195.491 133, 196.092 133 C 196.779 133, 197.106 130.869, 196.973 127.250 C 196.700 119.836, 196.839 119.118, 198.119 121.320 C 199.098 123.002, 199.269 123.014, 200.391 121.479 C 201.944 119.356, 203.885 121.336, 204.220 125.384 L 204.442 128.066 206.314 125.783 C 207.609 124.203, 208.017 124.029, 207.637 125.218 C 206.627 128.376, 208.742 128.014, 210.450 124.736 C 212.048 121.671, 212.106 121.645, 211.549 124.250 C 210.900 127.287, 212.054 127.845, 214.039 125.453 C 214.953 124.352, 215.528 124.236, 216.031 125.051 C 216.515 125.834, 217.380 125.508, 218.764 124.023 C 220.052 122.640, 221.031 122.241, 221.453 122.925 C 222.463 124.559, 224 124.209, 224 122.345 C 224 120.857, 224.201 120.872, 226 122.500 C 227.799 124.128, 228 124.143, 228 122.655 C 228 120.459, 229.728 120.530, 230.321 122.750 C 230.716 124.232, 230.899 124.156, 231.511 122.250 C 232.425 119.404, 233.604 119.391, 235.114 122.213 L 236.298 124.426 237.208 121.966 L 238.118 119.506 240.037 122.003 C 241.588 124.021, 241.960 124.164, 241.978 122.750 C 241.990 121.787, 242.702 121, 243.559 121 C 244.416 121, 244.859 121.419, 244.543 121.931 C 244.226 122.443, 244.412 123.136, 244.954 123.472 C 245.497 123.807, 246.228 122.942, 246.577 121.548 C 247.420 118.192, 248.980 119.291, 249.079 123.309 C 249.122 125.064, 249.377 125.960, 249.646 125.300 C 249.992 124.448, 250.858 124.376, 252.632 125.050 C 256.460 126.506, 257 126.245, 257 122.941 C 257 121.077, 257.406 120.133, 258.041 120.525 C 258.613 120.879, 258.814 122.009, 258.488 123.037 C 258.020 124.514, 258.326 124.822, 259.948 124.510 C 261.341 124.242, 262 124.639, 262 125.749 C 262 127.121, 262.235 127.071, 263.468 125.441 C 264.276 124.374, 264.951 122.638, 264.968 121.583 C 264.986 120.529, 265.337 120.004, 265.750 120.417 C 266.163 120.829, 266.500 121.654, 266.500 122.250 C 266.500 124.801, 268.786 123.793, 269.828 120.782 L 270.964 117.500 270.575 121.767 L 270.186 126.033 272.093 123.609 C 273.142 122.276, 274 120.243, 274 119.092 C 274 117.942, 274.480 117, 275.067 117 C 275.654 117, 275.901 117.787, 275.615 118.750 C 274.168 123.622, 273.868 126.509, 274.994 124.736 C 276.319 122.651, 279 124.536, 279 127.551 C 279 128.943, 279.267 129.023, 280.500 128 C 281.325 127.315, 282 126.210, 282 125.544 C 282 123.611, 285.225 124.146, 285.754 126.167 C 286.282 128.186, 289 128.716, 289 126.800 C 289 125.903, 289.315 125.920, 290.250 126.867 C 291.252 127.883, 291.141 128.399, 289.696 129.467 C 288.239 130.543, 288.055 131.433, 288.741 134.082 C 289.907 138.581, 291.948 139.055, 291.931 134.824 C 291.917 131.208, 293.730 123.354, 293.898 126.309 C 293.963 127.456, 294.442 127.845, 295.208 127.372 C 295.872 126.961, 297.559 126.509, 298.958 126.366 C 300.356 126.223, 302.625 124.790, 304 123.182 C 308.710 117.671, 316.046 119.290, 315.968 125.823 C 315.906 131.045, 309.154 135.032, 305.502 132.002 C 304.676 131.316, 304 131.090, 304 131.500 C 304 131.910, 303.296 131.660, 302.435 130.946 C 299.502 128.512, 296.198 129.092, 296.951 131.908 C 297.625 134.431, 300 136.079, 300 134.024 C 300 133.396, 300.457 133.165, 301.016 133.510 C 301.575 133.856, 301.774 134.557, 301.457 135.069 C 301.141 135.581, 301.407 136, 302.049 136 C 302.795 136, 302.990 136.903, 302.589 138.500 C 301.926 141.142, 301.818 141.087, 308.500 141.496 C 314.336 141.854, 322.205 136.860, 327.193 129.633 L 329.355 126.500 326.516 129 C 324.955 130.375, 324.002 130.938, 324.398 130.250 C 324.794 129.563, 324.641 129, 324.059 129 C 323.477 129, 323 128.502, 323 127.893 C 323 127.284, 323.661 127.040, 324.468 127.349 C 326.617 128.174, 327.354 126.268, 326.078 123.187 C 324.995 120.573, 317.160 116.042, 311 114.467 C 309.625 114.116, 303.775 111.627, 298 108.938 C 269.538 95.683, 236.473 90.410, 210 94.905" stroke="none" fill="#1a1a2e" fill-rule="evenodd"/>
</svg>