<svg xmlns="http://www.w3.org/2000/svg" width="400" height="235" viewBox="0 0 400 235" version="1.1">
	<path d="M 0 117.502 L 0 235.005 200.250 234.752 L 400.500 234.500 400.754 117.250 L 401.008 0 200.504 0 L 0 0 0 117.502 M 176.500 86.696 C 172.650 87.421, 164.325 89.238, 158 90.734 C 151.675 92.230, 146.275 93.496, 146 93.548 C 142.349 94.240, 139.935 96.604, 140.516 98.920 C 141.253 101.854, 141.277 102.054, 141.118 103.809 C 141.053 104.529, 140.651 104.902, 140.224 104.638 C 139.797 104.374, 136.759 104.792, 133.474 105.566 C 130.188 106.341, 125.475 107.255, 123 107.599 C 116.463 108.506, 116.148 112.714, 122.500 114.276 C 123.952 114.633, 123.678 114.817, 121.500 114.947 C 118.587 115.122, 118.568 115.154, 120.855 116.070 C 122.150 116.589, 124.469 117.910, 126.009 119.007 C 127.549 120.103, 129.553 121, 130.463 121 C 131.373 121, 131.899 121.355, 131.631 121.788 C 131.085 122.671, 134.623 123.272, 140.250 123.251 C 142.781 123.241, 144 123.686, 144 124.618 C 144 125.378, 144.413 126, 144.918 126 C 145.423 126, 146.661 126.267, 147.668 126.593 C 148.976 127.017, 148.785 126.594, 147 125.115 C 145.625 123.976, 144.972 123.034, 145.550 123.022 C 146.127 123.010, 147.028 123.404, 147.550 123.898 C 152.713 128.777, 159.269 129.164, 158.252 124.530 C 157.936 123.089, 158.803 123.639, 161.238 126.423 C 163.610 129.136, 164.901 129.969, 165.423 129.125 C 166 128.190, 166.509 128.177, 167.584 129.069 C 168.357 129.711, 169.919 129.993, 171.056 129.696 C 173.714 129, 174.179 130.340, 173.804 137.612 L 173.500 143.500 171.552 138.250 C 170.481 135.363, 169.244 133, 168.802 133 C 168.361 133, 167.953 135.363, 167.897 138.250 L 167.793 143.500 166.752 139.500 C 166.180 137.300, 165.387 135.275, 164.991 135 C 164.594 134.725, 163.929 133.375, 163.512 132 C 161.587 125.643, 158.722 126.334, 159.726 132.914 L 160.273 136.500 157.387 133.825 C 154.310 130.974, 154.316 130.974, 137 132.201 C 133.453 132.452, 131.045 132.145, 130.218 131.335 C 129.513 130.644, 127.263 129.812, 125.218 129.486 C 123.173 129.160, 119.129 128.198, 116.230 127.347 C 113.332 126.497, 110.309 126.051, 109.512 126.357 C 108.716 126.663, 107.798 126.482, 107.473 125.956 C 106.686 124.683, 94.289 124.723, 93.499 126.002 C 93.158 126.553, 91.444 126.835, 89.690 126.628 C 85.293 126.109, 73.434 128.348, 68 130.723 C 65.525 131.804, 60.282 132.954, 56.348 133.278 C 46.599 134.081, 27 138.846, 27 140.413 C 27 145.873, 40.773 150.232, 58.250 150.302 C 60.312 150.310, 62 150.647, 62 151.051 C 62 151.455, 62.698 152.054, 63.552 152.382 C 64.406 152.709, 64.897 152.642, 64.644 152.233 C 64.392 151.825, 66.281 151.492, 68.842 151.495 C 71.404 151.498, 75.300 151.161, 77.500 150.747 L 81.500 149.994 76.874 152.453 C 67.138 157.629, 69.564 160.718, 83.929 161.437 C 90.771 161.780, 94.634 162.397, 95.163 163.230 C 95.607 163.928, 95.976 164.107, 95.985 163.628 C 95.993 163.148, 96.574 163.232, 97.276 163.814 C 99.300 165.494, 114.980 164.328, 117.184 162.333 C 119.018 160.674, 119.509 161.272, 119.095 164.660 C 118.996 165.472, 120.833 165.687, 125.227 165.375 C 134.451 164.722, 134.898 164.644, 134.368 163.786 C 134.100 163.354, 134.359 163, 134.941 163 C 135.523 163, 136 163.379, 136 163.842 C 136 164.306, 137.982 164.643, 140.404 164.592 C 142.826 164.542, 144.599 164.162, 144.345 163.750 C 144.090 163.338, 144.610 163, 145.500 163 C 146.390 163, 146.885 163.377, 146.600 163.838 C 146.316 164.298, 147.752 164.570, 149.791 164.442 C 151.831 164.314, 154.539 164.162, 155.809 164.104 C 157.079 164.047, 157.840 163.550, 157.500 163 C 157.160 162.450, 157.359 162, 157.941 162 C 158.523 162, 159 162.414, 159 162.920 C 159 164.198, 167.704 163.491, 169.411 162.074 C 170.463 161.200, 170.900 161.200, 171.190 162.070 C 171.416 162.749, 172.588 162.157, 174.037 160.629 C 175.392 159.202, 177.539 158.027, 178.809 158.017 C 180.297 158.006, 180.864 157.590, 180.405 156.845 C 179.943 156.099, 180.132 155.964, 180.941 156.463 C 181.676 156.918, 183.447 156.306, 185.243 154.978 C 186.923 153.737, 190.265 152.499, 192.671 152.228 C 200.306 151.367, 198.441 150, 189.632 150 C 181.694 150, 174.064 145.479, 179.144 143.785 C 180.458 143.347, 181.113 137.188, 179.924 136.453 C 179.389 136.122, 179.015 136.222, 179.094 136.676 C 179.549 139.298, 178.871 142.038, 177.913 141.446 C 177.315 141.077, 177.042 139.947, 177.307 138.935 C 177.571 137.924, 177.396 136.962, 176.916 136.798 C 175.530 136.324, 174.561 130, 175.875 130 C 176.494 130, 177.007 130.563, 177.015 131.250 C 177.025 132.080, 177.350 131.996, 177.982 131 C 178.505 130.175, 179.511 129.439, 180.217 129.365 C 180.923 129.291, 182.063 129.179, 182.750 129.115 C 185.222 128.887, 184.169 124.080, 181.500 123.411 C 180.021 123.039, 179 122.066, 179 121.028 C 179 119.375, 179.377 119.363, 185.515 120.832 C 190.919 122.125, 192.624 122.176, 195.510 121.133 C 197.423 120.441, 199.436 120.151, 199.982 120.489 C 200.529 120.827, 203.569 121.778, 206.738 122.604 C 209.907 123.429, 213.691 124.698, 215.148 125.424 C 216.660 126.178, 218.363 126.394, 219.119 125.927 C 220.898 124.827, 220.770 124.751, 210.768 121.012 C 205.965 119.217, 201.523 117.130, 200.895 116.374 C 200.268 115.618, 199.135 115, 198.378 115 C 197.620 115, 197 114.652, 197 114.226 C 197 110.682, 240.624 117.284, 254 122.852 C 258.125 124.569, 263.749 126.281, 266.498 126.657 C 273.331 127.591, 287.586 135.470, 292.500 141.030 C 293.600 142.274, 296.750 144.801, 299.500 146.646 C 302.250 148.490, 305.730 150.982, 307.234 152.183 C 308.737 153.384, 310.255 154.078, 310.607 153.726 C 311.899 152.435, 309.994 150.024, 306.544 148.583 C 304.595 147.768, 303 146.404, 303 145.551 C 303 144.698, 302.486 144, 301.858 144 C 301.230 144, 295.375 138.813, 288.846 132.474 C 271.600 115.727, 253.469 104.362, 233.679 97.895 C 228.667 96.257, 223.876 94.342, 223.033 93.639 C 213.492 85.682, 195.851 83.050, 176.500 86.696" stroke="none" fill="#1a1a2e" fill-rule="evenodd"/>
</svg>