<svg xmlns="http://www.w3.org/2000/svg" width="400" height="271" viewBox="0 0 400 271" version="1.1">
	<path d="M 0 76 C 0 136.125, 0.261 152.003, 1.250 152.015 C 2.164 152.027, 2.190 152.228, 1.346 152.765 C -0.192 153.744, -0.392 169, 1.132 169 C 1.767 169, 2.031 170.058, 1.755 171.500 C 1.439 173.153, 1.728 174, 2.607 174 C 3.339 174, 3.721 174.563, 3.457 175.252 C 3.193 175.941, 3.882 177.070, 4.988 177.761 C 6.095 178.452, 7 178.611, 7 178.115 C 7 177.620, 6.212 176.911, 5.250 176.540 C 3.608 175.907, 3.614 175.801, 5.356 174.824 C 6.751 174.041, 7.595 174.166, 8.759 175.331 C 10.157 176.728, 10.494 176.642, 12.226 174.439 C 13.282 173.098, 14.814 172, 15.632 172 C 16.449 172, 16.837 171.546, 16.494 170.991 C 15.257 168.989, 17.092 165.869, 19.337 166.159 C 20.526 166.313, 22.063 166.088, 22.750 165.660 C 24.090 164.826, 24.488 166.179, 23.263 167.404 C 22.857 167.809, 22.520 168.897, 22.513 169.821 C 22.506 170.744, 21.937 171.387, 21.250 171.250 C 19.151 170.830, 19.859 172.011, 22.250 172.917 C 23.572 173.418, 24.991 173.375, 25.691 172.812 C 27.107 171.672, 26.247 168.729, 24.765 169.645 C 24.195 169.997, 23.946 169.662, 24.204 168.889 C 24.459 168.125, 25.828 167.500, 27.247 167.500 C 28.666 167.500, 30.171 167.157, 30.592 166.738 C 31.013 166.319, 32.768 166.241, 34.493 166.565 C 36.686 166.976, 38.022 166.679, 38.937 165.576 C 39.733 164.616, 39.829 164, 39.181 164 C 38.597 164, 37.884 164.379, 37.598 164.842 C 36.579 166.491, 25.530 165.298, 25.162 163.500 C 24.854 161.996, 24.631 162.010, 22.662 163.648 C 21.473 164.637, 21.063 164.806, 21.750 164.023 C 22.437 163.241, 23 161.763, 23 160.741 C 23 159.719, 23.450 159.160, 24 159.500 C 25.365 160.344, 25.199 158.987, 23.580 156.064 C 22.465 154.052, 22.459 153.398, 23.544 152.314 C 25.596 150.261, 26.153 150.736, 25.814 154.250 C 25.551 156.974, 25.864 157.552, 27.750 157.820 C 29.979 158.136, 31.134 162, 29 162 C 28.450 162, 28 161.460, 28 160.800 C 28 159.919, 27.704 159.896, 26.887 160.713 C 25.101 162.499, 26.714 163.810, 30.562 163.701 C 33.614 163.615, 34.053 163.312, 33.606 161.602 C 33.319 160.503, 33.537 159.058, 34.090 158.391 C 34.776 157.565, 34.727 156.949, 33.937 156.461 C 33.299 156.066, 32.433 156.299, 32.013 156.979 C 31.470 157.857, 31.053 157.894, 30.566 157.107 C 30.190 156.498, 30.359 156, 30.941 156 C 31.523 156, 32 155.255, 32 154.345 C 32 152.818, 31.861 152.815, 30.210 154.310 C 28.549 155.813, 28.410 155.789, 28.273 153.977 C 28.192 152.904, 28.925 151.457, 29.901 150.763 C 32.280 149.071, 33.663 143.808, 31.512 144.634 C 29.301 145.482, 29.665 143.691, 32 142.232 C 34.009 140.978, 34.522 138.525, 33.393 135.582 C 32.524 133.316, 31.492 133.624, 30.161 136.547 C 28.636 139.892, 28.696 140.497, 30.411 139.074 C 31.807 137.915, 33.561 139.106, 32.306 140.361 C 31.186 141.481, 29.084 141.052, 27.017 139.282 C 25.016 137.569, 25.016 137.561, 27.255 136.318 L 29.500 135.071 27 135.005 C 24.809 134.947, 24.717 134.813, 26.257 133.916 C 27.664 133.097, 27.798 132.491, 26.931 130.871 C 25.947 129.032, 26.037 128.949, 27.924 129.959 C 29.808 130.968, 30.390 130.679, 30.153 128.853 C 30.106 128.496, 30.971 128.441, 32.074 128.730 C 33.875 129.200, 33.926 129.424, 32.579 130.912 C 31.222 132.412, 31.314 132.590, 33.539 132.774 C 35.549 132.940, 36 132.521, 36 130.489 C 36 128.815, 35.427 127.974, 34.250 127.921 C 32.865 127.859, 32.813 127.727, 34 127.291 C 34.825 126.987, 36.311 126.032, 37.302 125.167 C 39.002 123.685, 39.046 123.749, 38.077 126.298 C 37.512 127.784, 37.451 129, 37.941 129 C 38.432 129, 38.999 128.503, 39.201 127.897 C 39.748 126.257, 48 125.839, 48 127.451 C 48 128.499, 49.021 128.500, 53.500 127.459 C 56.525 126.756, 59 126.420, 59 126.713 C 59 127.005, 59.748 126.627, 60.663 125.872 C 61.841 124.899, 62.437 124.833, 62.711 125.644 C 63.145 126.934, 67 126.251, 67 124.883 C 67 124.398, 67.675 124, 68.500 124 C 69.325 124, 70 123.550, 70 123 C 70 122.450, 69.127 122, 68.059 122 C 61.774 122, 65.335 117.773, 71.902 117.437 C 74.649 117.297, 77.482 116.809, 78.198 116.353 C 78.914 115.896, 81.075 115.518, 83 115.512 C 85.884 115.502, 86.557 115.096, 86.825 113.206 C 87.087 111.360, 87.575 111.043, 89.325 111.581 C 92.157 112.450, 92.801 113.166, 91.250 113.720 C 90.562 113.966, 90 114.523, 90 114.958 C 90 116.063, 94.910 115.954, 95.602 114.834 C 95.914 114.331, 97.143 114.208, 98.334 114.563 C 100.476 115.200, 100.478 115.189, 98.500 113.635 C 97.381 112.756, 97.050 112.050, 97.750 112.032 C 98.438 112.014, 99 111.520, 99 110.933 C 99 110.320, 98.147 110.136, 97 110.500 C 94.402 111.324, 94.443 109.921, 97.083 107.661 C 99.002 106.018, 99.355 106.002, 101.583 107.462 C 102.912 108.333, 104.056 108.811, 104.125 108.523 C 104.194 108.235, 104.362 107.550, 104.500 107 C 104.638 106.450, 104.806 105.550, 104.875 105 C 105.139 102.890, 107.158 104.140, 108.509 107.250 C 109.384 109.264, 109.937 109.809, 109.961 108.683 C 109.991 107.267, 110.498 107.016, 112.250 107.548 C 113.487 107.923, 114.725 108.232, 115 108.234 C 117.869 108.252, 119 107.762, 119 106.500 C 119 105.675, 119.502 105, 120.117 105 C 121.198 105, 121.033 106.674, 119.444 111.825 C 118.922 113.518, 119.105 114.098, 120.114 113.957 C 123.537 113.479, 125.197 114.045, 124.638 115.500 C 124.322 116.325, 124.526 117, 125.091 117 C 125.672 117, 125.915 115.696, 125.648 114.005 C 125.388 112.357, 125.586 110.756, 126.088 110.446 C 126.590 110.136, 127 110.306, 127 110.824 C 127 111.343, 127.902 112.003, 129.004 112.291 C 130.450 112.669, 130.824 113.328, 130.345 114.657 C 129.980 115.671, 130.012 116.204, 130.416 115.842 C 130.820 115.480, 131.250 114.580, 131.373 113.842 C 131.496 113.104, 132.137 111.517, 132.798 110.316 C 134.422 107.365, 134.331 107, 131.969 107 C 129.327 107, 128.364 104.392, 130.202 102.213 C 132.059 100.012, 131.384 97, 129.034 97 C 126.056 97, 124.473 87.808, 127.250 86.641 C 128.145 86.265, 128.003 85.802, 126.750 85.008 C 125.787 84.399, 125 82.748, 125 81.340 L 125 78.778 126.812 81.016 C 129.142 83.894, 132.538 82.977, 133.482 79.215 C 134.102 76.745, 134.276 76.657, 135.430 78.236 C 136.976 80.349, 138.282 79.395, 137.035 77.065 C 136.504 76.074, 136.512 74.803, 137.054 73.946 C 137.753 72.842, 137.973 73.079, 137.985 74.950 C 137.997 76.883, 138.258 77.142, 139.225 76.175 C 140.168 75.232, 140.181 74.519, 139.278 73.074 C 138.401 71.669, 138.386 70.231, 139.219 67.349 C 139.831 65.232, 140.370 62.636, 140.416 61.581 C 140.491 59.867, 141.276 59.667, 147.750 59.718 C 153.294 59.762, 155 59.449, 155 58.388 C 155 57.624, 155.436 57, 155.970 57 C 156.503 57, 159.196 53.656, 161.953 49.569 C 167.573 41.241, 170.609 38.385, 166.686 45.117 C 163.431 50.703, 162.821 55.290, 165.267 55.791 C 167.858 56.322, 173.205 53.769, 171.700 52.719 C 170.160 51.645, 179.002 52.941, 181 54.082 C 182.237 54.789, 182.171 54.945, 180.628 54.970 C 179.077 54.995, 178.969 55.258, 180 56.500 C 181.345 58.121, 183.489 58.601, 182.543 57.069 C 182.226 56.557, 182.425 55.856, 182.984 55.510 C 183.543 55.165, 184 55.338, 184 55.894 C 184 56.451, 185.347 56.140, 186.994 55.203 C 188.640 54.267, 189.990 52.938, 189.994 52.250 C 189.997 51.563, 190.719 51, 191.599 51 C 193.049 51, 197.183 49.433, 202.500 46.867 C 203.951 46.167, 203.813 46.480, 202 48.007 C 200.625 49.166, 198.216 51.213, 196.647 52.557 C 195.078 53.900, 193.364 55, 192.838 55 C 192.312 55, 192.136 55.412, 192.447 55.915 C 192.758 56.418, 192.480 57.007, 191.829 57.224 C 191.178 57.441, 190.977 58.154, 191.382 58.809 C 192.400 60.456, 194 60.303, 194 58.559 C 194 56.347, 195.318 56.022, 197.511 57.692 C 199.476 59.188, 199.474 59.199, 197.384 58.579 C 195.548 58.033, 195.332 58.287, 195.753 60.490 C 196.304 63.370, 198 64.932, 198 62.559 C 198 61.702, 198.496 61.112, 199.103 61.250 C 199.709 61.387, 200.354 60.262, 200.535 58.750 C 200.802 56.513, 200.457 55.981, 198.682 55.898 C 197.278 55.832, 197.739 55.504, 199.975 54.978 C 201.887 54.528, 203.896 54.436, 204.441 54.773 C 204.986 55.110, 206.929 55.636, 208.759 55.943 C 212.625 56.590, 213.532 58.354, 210.239 58.821 C 207.991 59.140, 203.946 65, 205.974 65 C 206.538 65, 207 64.295, 207 63.433 C 207 62.320, 207.581 62.050, 209 62.500 C 210.147 62.864, 211 62.680, 211 62.067 C 211 61.480, 211.702 61, 212.559 61 C 213.416 61, 213.840 60.550, 213.500 60 C 213.160 59.450, 213.696 58.993, 214.691 58.985 C 215.956 58.974, 216.127 58.733, 215.261 58.183 C 214.514 57.708, 215.430 57.356, 217.566 57.295 C 220.362 57.216, 221.037 57.543, 220.766 58.847 C 220.578 59.756, 219.680 60.442, 218.772 60.371 C 217.864 60.300, 216.883 60.863, 216.592 61.621 C 216.256 62.496, 216.760 63, 217.972 63 C 219.023 63, 220.160 63.450, 220.500 64 C 220.840 64.550, 220.416 65, 219.559 65 C 218.702 65, 218 65.675, 218 66.500 C 218 67.325, 218.787 68.007, 219.750 68.015 C 220.738 68.024, 221.065 68.350, 220.500 68.765 C 218.814 70.004, 218.783 73, 220.456 73 C 221.305 73, 222 73.408, 222 73.906 C 222 74.405, 222.951 74.564, 224.114 74.260 C 225.949 73.780, 226.015 73.588, 224.614 72.804 C 221.950 71.313, 222.735 69.783, 225.816 70.460 C 227.824 70.901, 229.374 70.494, 231.223 69.039 C 233.977 66.873, 238 66.291, 238 68.059 C 238 68.641, 237.601 68.871, 237.113 68.570 C 236.626 68.269, 235.704 68.652, 235.065 69.422 C 234.269 70.380, 234.234 71.026, 234.951 71.470 C 236.605 72.492, 236.210 75.018, 234.500 74.362 C 233.675 74.045, 233 73.081, 233 72.219 C 233 70.972, 232.524 71.099, 230.676 72.835 C 229.398 74.036, 228.104 74.770, 227.800 74.467 C 227.497 74.164, 226.065 75.323, 224.618 77.042 C 220.728 81.665, 222.763 83.381, 227.881 79.796 C 229.560 78.620, 231.486 78.289, 234.501 78.658 C 239.908 79.320, 245.817 76.690, 243.957 74.449 C 243.306 73.664, 242.305 73.312, 241.732 73.666 C 241.127 74.040, 240.990 73.825, 241.406 73.152 C 242.486 71.404, 246 73.643, 246 76.079 C 246 77.437, 246.567 77.993, 247.750 77.794 C 248.936 77.595, 249.407 78.059, 249.210 79.234 C 249.018 80.378, 249.400 80.784, 250.331 80.427 C 251.107 80.129, 252.011 80.586, 252.340 81.443 C 252.668 82.299, 254.076 83, 255.469 83 C 256.861 83, 258 83.405, 258 83.900 C 258 84.396, 256.650 84.707, 255 84.593 C 253.350 84.479, 252 84.642, 252 84.956 C 252 85.269, 250.988 85.970, 249.750 86.513 C 247.343 87.569, 246.008 92, 248.097 92 C 248.777 92, 249.042 92.292, 248.685 92.648 C 247.810 93.523, 252.027 97.101, 253.129 96.420 C 253.608 96.124, 254 96.310, 254 96.834 C 254 98.562, 250.740 99.075, 249.105 97.604 C 247.696 96.337, 247.200 96.404, 245.048 98.154 C 240.656 101.725, 242.304 104.165, 246.771 100.705 C 248.487 99.375, 255 98.855, 255 100.048 C 255 100.572, 254.550 101, 254 101 C 253.450 101, 253 101.927, 253 103.059 C 253 104.191, 252.570 104.852, 252.044 104.527 C 251.518 104.202, 251.341 103.275, 251.651 102.468 C 252.574 100.061, 250.301 100.802, 248.073 103.635 C 246.933 105.084, 246 105.984, 246 105.635 C 246 105.286, 245.100 105.900, 244 107 C 242.900 108.100, 242.037 109.282, 242.083 109.626 C 242.128 109.970, 240.969 111.036, 239.508 111.995 L 236.850 113.738 239.425 114.230 C 240.841 114.501, 242 114.383, 242 113.968 C 242 113.553, 242.787 112.914, 243.750 112.548 C 245.153 112.014, 245.252 112.131, 244.250 113.141 C 242.467 114.937, 242.704 115.898, 244.890 115.733 C 245.994 115.650, 246.574 115.052, 246.283 114.295 C 246.010 113.583, 246.461 113, 247.286 113 C 249.435 113, 250.328 116.101, 248.659 117.769 C 247.440 118.988, 247.445 119.585, 248.696 122.092 C 250.321 125.350, 251.449 125.990, 250.545 123.141 C 249.672 120.392, 252.179 118.679, 254.544 120.409 C 256.049 121.509, 256.184 122.073, 255.221 123.234 C 254.559 124.031, 254.337 125.004, 254.728 125.395 C 255.119 125.786, 254.591 125.780, 253.555 125.383 C 252.236 124.876, 251.891 125.014, 252.403 125.843 C 252.805 126.493, 252.414 128.468, 251.535 130.230 C 249.218 134.875, 250.307 138.914, 253.814 138.680 C 256.174 138.522, 256.539 138.907, 256.821 141.853 C 256.998 143.697, 256.755 144.967, 256.283 144.675 C 255.810 144.383, 253.915 145.686, 252.071 147.572 C 249.644 150.054, 249.172 151, 250.360 151 C 252.303 151, 252.512 153.079, 250.750 154.871 C 250.063 155.571, 249.950 155.998, 250.500 155.821 C 251.487 155.504, 252 156.196, 252 157.844 C 252 158.309, 250.876 159.996, 249.501 161.594 L 247.002 164.500 246.843 162 C 246.755 160.625, 246.749 158.713, 246.830 157.750 C 246.910 156.787, 246.562 156, 246.056 156 C 244.829 156, 243.700 159.705, 244.522 161.035 C 244.879 161.614, 244.628 162.743, 243.964 163.544 C 243.113 164.569, 243.087 165, 243.878 165 C 244.495 165, 245 166.575, 245 168.500 C 245 170.425, 245.436 172, 245.969 172 C 246.501 172, 246.692 172.640, 246.392 173.422 C 246.092 174.204, 246.274 175.666, 246.797 176.672 C 247.321 177.677, 247.411 179.400, 246.998 180.500 C 246.585 181.600, 246.697 183.063, 247.246 183.750 C 248.388 185.179, 250.410 185.473, 249.553 184.085 C 248.595 182.535, 251.311 182.279, 253.974 183.669 C 255.363 184.394, 257.048 184.990, 257.719 184.994 C 259.871 185.005, 257.871 182.006, 255.295 181.359 C 253.497 180.908, 253.175 180.510, 254.129 179.921 C 254.903 179.442, 255.762 179.600, 256.208 180.303 C 256.627 180.961, 256.976 181.167, 256.985 180.760 C 256.993 180.353, 257.877 180.770, 258.949 181.688 C 260.021 182.606, 260.657 183.746, 260.363 184.222 C 260.068 184.698, 260.502 186.118, 261.327 187.376 C 262.218 188.736, 262.492 190.203, 262.004 190.994 C 261.412 191.951, 261.085 191.647, 260.838 189.912 C 260.577 188.089, 259.945 187.558, 258.247 187.738 C 257.011 187.869, 256 187.503, 256 186.925 C 256 185.712, 251.811 186.073, 250.868 187.368 C 250.520 187.845, 249.395 187.395, 248.368 186.368 C 247.341 185.341, 245.938 184.556, 245.250 184.625 C 244.563 184.694, 243.105 184.806, 242.012 184.875 C 240.730 184.956, 240.108 185.622, 240.262 186.750 C 240.702 189.982, 236.729 189.896, 235.246 186.642 C 234.469 184.935, 233.042 184.102, 230.086 183.630 C 227.839 183.270, 226 182.630, 226 182.207 C 226 181.785, 224.650 180.929, 223 180.306 C 218.957 178.780, 218.995 176.549, 223.050 177.360 C 224.941 177.738, 225.868 177.596, 225.491 176.985 C 225.156 176.443, 224.234 176, 223.441 176 C 221.884 176, 221.655 175.064, 222.605 172.588 C 222.937 171.721, 223.554 171.225, 223.976 171.485 C 225.673 172.534, 231.990 164.657, 230.581 163.248 C 230.261 162.928, 230 163.168, 230 163.782 C 230 165.304, 225.547 170, 224.104 170 C 223.462 170, 222.678 170.675, 222.362 171.500 C 221.451 173.874, 220.575 173.275, 219.382 169.461 C 218.395 166.309, 218.502 165.762, 220.359 164.461 C 223.044 162.581, 225 162.597, 225 164.500 C 225 165.325, 224.213 166.007, 223.250 166.015 C 221.798 166.028, 221.748 166.187, 222.952 166.949 C 225.137 168.331, 227.934 164.177, 225.878 162.603 C 223.787 161.002, 221.797 154, 223.433 154 C 224.118 154, 225.182 152.897, 225.796 151.548 C 226.722 149.517, 226.663 149.192, 225.457 149.655 C 224.656 149.962, 224 149.716, 224 149.107 C 224 148.498, 224.675 148, 225.500 148 C 226.325 148, 227 147.376, 227 146.614 C 227 145.852, 227.672 143.940, 228.494 142.364 C 229.315 140.789, 229.990 139.855, 229.994 140.289 C 229.997 140.724, 230.619 140.501, 231.375 139.795 C 232.131 139.088, 232.504 137.872, 232.205 137.091 C 231.860 136.192, 232.085 135.934, 232.819 136.388 C 233.577 136.857, 233.770 136.564, 233.377 135.541 C 232.940 134.402, 233.218 134.147, 234.400 134.600 C 235.597 135.059, 235.860 134.800, 235.404 133.611 C 235.064 132.725, 234.577 132, 234.322 132 C 233.422 132, 231.101 134.768, 231.591 135.257 C 231.863 135.530, 231.425 136.007, 230.616 136.317 C 228.155 137.261, 226.859 134.702, 228.266 131.674 C 228.945 130.212, 229.838 129.012, 230.250 129.008 C 230.662 129.004, 231 128.490, 231 127.867 C 231 127.244, 231.819 126.007, 232.819 125.117 C 233.820 124.228, 234.931 122.713, 235.288 121.750 C 235.645 120.788, 236.626 120, 237.469 120 C 238.311 120, 239 119.550, 239 119 C 239 118.450, 238.582 118, 238.071 118 C 237.561 118, 236.439 117.296, 235.579 116.436 C 233.972 114.829, 229.116 118.655, 229.032 121.595 C 228.975 123.548, 225.286 126.271, 224.474 124.958 C 223.438 123.282, 221.886 125.986, 222.588 128.244 C 222.959 129.435, 222.699 129.822, 221.767 129.464 C 219.592 128.629, 215.437 133.617, 216.870 135.344 C 218.092 136.816, 217.424 140, 215.893 140 C 215.402 140, 215 140.675, 215 141.500 C 215 142.325, 214.375 143, 213.611 143 C 212.847 143, 212.243 142.437, 212.269 141.750 C 212.413 137.866, 211.839 136, 210.500 136 C 209.675 136, 209 135.612, 209 135.139 C 209 134.665, 210.068 134.482, 211.374 134.731 C 213.340 135.107, 214.068 134.507, 215.624 131.228 C 216.656 129.052, 218.359 126.873, 219.408 126.386 C 222.841 124.792, 224.974 120.591, 221.961 121.356 C 220.608 121.700, 220.063 121.723, 220.750 121.407 C 221.438 121.092, 222 120.166, 222 119.349 C 222 118.303, 222.611 118.059, 224.073 118.523 C 226.110 119.170, 227.555 118.030, 230 113.848 C 231.130 111.915, 227.089 112.453, 225.765 114.412 C 225.272 115.143, 225.026 115.070, 225.015 114.191 C 225.006 113.394, 224.511 113.188, 223.750 113.665 C 223.063 114.095, 221.825 114.459, 221 114.474 C 219.967 114.492, 219.553 115.434, 219.671 117.500 C 219.766 119.150, 219.620 119.713, 219.348 118.750 C 218.421 115.472, 215 119.247, 215 123.547 C 215 124.346, 214.325 125, 213.500 125 C 212.675 125, 212 124.564, 212 124.031 C 212 123.499, 211.375 123.303, 210.611 123.596 C 209.794 123.909, 209.434 124.945, 209.738 126.107 C 210.087 127.440, 209.806 127.990, 208.878 127.793 C 207.925 127.590, 207.475 128.580, 207.419 131 C 207.374 132.925, 206.968 135.339, 206.517 136.365 C 205.806 137.985, 206.014 138.132, 208.099 137.482 C 210.483 136.740, 210.486 136.750, 208.603 138.858 C 206.590 141.112, 204.114 139.639, 204.032 136.139 C 204.013 135.320, 203.233 135.717, 202.071 137.139 C 200.876 138.602, 200.495 139.862, 201.071 140.450 C 201.582 140.973, 202 142.300, 202 143.400 C 202 144.956, 201.733 145.133, 200.800 144.200 C 199.187 142.587, 198 142.686, 198 144.433 C 198 145.221, 198.959 146.170, 200.132 146.542 C 201.603 147.009, 201.887 147.452, 201.047 147.971 C 199.498 148.928, 199.495 150.070, 201.040 151.024 C 201.705 151.436, 202.250 152.949, 202.250 154.386 C 202.250 155.824, 202.644 157, 203.125 157 C 204.933 157, 203.915 160.210, 201.943 160.725 C 200.723 161.044, 200.100 161.819, 200.412 162.631 C 201.101 164.426, 200.227 164.370, 198.357 162.500 C 197.532 161.675, 196.102 161.007, 195.179 161.015 C 193.784 161.028, 193.743 161.185, 194.936 161.939 C 196.183 162.729, 196.183 163.079, 194.936 164.616 C 194.146 165.588, 194.022 166.071, 194.660 165.689 C 195.972 164.902, 199 165.810, 199 166.990 C 199 169.605, 192.038 168.770, 191.937 166.143 C 191.891 164.964, 191.628 165.109, 191.004 166.656 C 189.522 170.330, 182 170.986, 182 167.441 C 182 165.670, 185.143 165.546, 186.859 167.250 C 187.869 168.252, 187.982 168.141, 187.429 166.688 C 186.971 165.488, 185.855 164.946, 184.119 165.082 C 179.911 165.411, 178.129 164.154, 178.221 160.920 C 178.317 157.569, 178.938 157.399, 183.143 159.574 C 184.816 160.439, 186.433 160.900, 186.736 160.597 C 187.039 160.295, 186.434 159.739, 185.393 159.363 C 184.352 158.987, 182.719 157.878, 181.765 156.898 C 180.811 155.918, 179.240 154.674, 178.274 154.133 C 176.215 152.981, 176.903 151.958, 179.887 151.734 C 182.727 151.520, 182.602 149.004, 179.750 148.985 C 178.204 148.974, 177.902 148.714, 178.784 148.155 C 179.492 147.706, 179.780 146.591, 179.427 145.670 C 179.045 144.675, 179.277 144, 180 144 C 180.668 144, 180.955 143.326, 180.638 142.500 C 179.837 140.413, 181.676 140.614, 182.920 142.750 C 183.627 143.964, 183.948 144.074, 183.970 143.110 C 183.986 142.346, 183.217 141.148, 182.260 140.448 C 180.670 139.285, 180.776 139.061, 183.496 137.838 C 186.849 136.331, 190 133.502, 190 132 C 190 130.694, 186.038 130.694, 185.875 132 C 185.806 132.550, 185.694 133.427, 185.625 133.950 C 185.306 136.377, 182.987 137.473, 180.912 136.177 C 178.169 134.464, 174.407 135.580, 176.090 137.608 C 176.747 138.400, 177.003 139.330, 176.658 139.675 C 176.313 140.020, 176.812 140.895, 177.766 141.619 C 178.832 142.429, 179.019 142.949, 178.250 142.968 C 177.563 142.986, 176.047 142.047, 174.882 140.882 C 173.172 139.172, 172.597 139.028, 171.897 140.132 C 170.548 142.262, 170.832 143, 173 143 C 174.322 143, 175 143.667, 175 144.968 C 175 146.600, 174.616 146.787, 172.750 146.064 C 171.512 145.584, 170.613 144.699, 170.750 144.096 C 170.888 143.493, 170.523 143, 169.941 143 C 169.359 143, 169.190 142.502, 169.566 141.893 C 170.027 141.148, 169.555 141.006, 168.125 141.460 C 166.956 141.831, 166 141.740, 166 141.259 C 166 139.651, 168.826 136.492, 169.585 137.252 C 169.997 137.663, 169.782 138, 169.108 138 C 168.434 138, 168.150 138.433, 168.477 138.962 C 169.377 140.420, 173.422 138.234, 174.541 135.685 C 175.068 134.483, 176.175 133.500, 177 133.500 C 177.825 133.500, 178.650 132.438, 178.834 131.139 C 179.073 129.451, 178.811 128.999, 177.914 129.553 C 177.013 130.110, 176.855 129.821, 177.353 128.523 C 177.927 127.025, 177.796 126.924, 176.582 127.932 C 175.777 128.600, 175.365 129.788, 175.666 130.573 C 176.473 132.675, 173.610 132.332, 171.575 130.083 C 170.191 128.554, 170.066 127.745, 170.955 126.083 C 172.230 123.702, 174.235 123.224, 173.357 125.511 C 172.938 126.605, 173.235 126.847, 174.432 126.388 C 175.966 125.799, 175.964 125.618, 174.402 123.892 C 172.606 121.907, 171.638 114, 173.191 114 C 173.701 114, 173.860 113.582, 173.544 113.071 C 173.229 112.561, 173.990 111.998, 175.235 111.820 C 177.024 111.566, 177.460 110.916, 177.309 108.726 C 177.203 107.202, 177.464 106.169, 177.888 106.431 C 178.499 106.808, 178.605 104.460, 178.083 102.128 C 178.037 101.923, 177.325 102.315, 176.500 103 C 174.826 104.390, 174.441 109, 176 109 C 176.550 109, 177 109.450, 177 110 C 177 111.779, 175.154 111.059, 174.509 109.028 C 173.983 107.372, 173.580 107.245, 171.992 108.237 C 170.645 109.078, 170.394 109.770, 171.120 110.645 C 171.815 111.482, 171.788 112.528, 171.034 113.936 C 169.687 116.453, 169.138 116.498, 167.255 114.250 C 166.398 113.227, 166.500 113.694, 167.500 115.376 C 168.441 116.957, 168.826 118.532, 168.355 118.876 C 167.884 119.219, 166.442 121.663, 165.151 124.307 C 163.001 128.708, 162.690 128.961, 161.465 127.307 C 160.185 125.579, 160.138 125.578, 160.378 127.294 C 160.517 128.280, 161.384 129.967, 162.305 131.044 C 163.318 132.226, 163.523 133, 162.824 133 C 162.187 133, 161.960 133.293, 162.318 133.651 C 162.676 134.009, 162.188 134.895, 161.234 135.619 C 159.602 136.859, 159.601 136.938, 161.219 136.968 C 163.021 137.002, 162.641 140, 160.834 140 C 160.310 140, 160.160 139.550, 160.500 139 C 160.840 138.450, 160.454 138, 159.642 138 C 158.831 138, 157.977 138.562, 157.746 139.250 C 157.167 140.971, 158.041 144, 159.117 144 C 159.602 144, 160 144.436, 160 144.969 C 160 145.501, 159.256 145.652, 158.348 145.303 C 157.083 144.818, 157.238 145.402, 159.007 147.795 C 160.278 149.515, 161.696 150.688, 162.159 150.402 C 162.622 150.116, 163 150.343, 163 150.906 C 163 152.768, 158.855 154.383, 157.927 152.882 C 156.274 150.207, 155.930 152.900, 157.448 156.642 C 159.002 160.476, 159.001 160.485, 157.140 158.102 C 155.028 155.396, 150.100 157.520, 150.031 161.167 C 150.014 162.083, 149.437 163.060, 148.750 163.338 C 147.845 163.703, 147.888 163.864, 148.905 163.921 C 150.069 163.986, 150.048 164.300, 148.782 165.750 C 147.452 167.273, 147.433 167.954, 148.636 171 C 149.786 173.913, 149.926 174.025, 149.469 171.666 C 149.054 169.525, 149.235 169.022, 150.210 169.608 C 151.162 170.181, 151.140 169.941, 150.128 168.692 C 148.645 166.864, 148.629 166.872, 154.389 166.504 C 156.738 166.353, 158.638 165.611, 159.189 164.628 C 160.331 162.587, 162.876 162.514, 163.638 164.500 C 163.955 165.325, 164.841 166, 165.607 166 C 166.373 166, 167 166.477, 167 167.059 C 167 167.641, 166.550 167.840, 166 167.500 C 165.450 167.160, 165 167.293, 165 167.796 C 165 168.299, 166.912 168.619, 169.250 168.506 C 174.016 168.277, 177 169.668, 177 172.119 C 177 174.058, 180.689 175.660, 187.240 176.568 C 189.847 176.929, 191.766 177.569, 191.506 177.990 C 190.955 178.882, 196.544 180.330, 199.562 180.078 C 203.418 179.756, 207.193 181.816, 206.537 183.885 C 206.082 185.317, 206.560 185.924, 208.536 186.420 C 212.210 187.342, 211.508 190.623, 207.731 190.178 C 204.116 189.753, 204.282 190.562, 208.250 192.699 C 212.447 194.959, 215.500 195.307, 213.867 193.340 C 211.874 190.938, 213.716 190.730, 216.798 193.009 C 220.272 195.577, 223.499 195.324, 223.501 192.484 C 223.503 190.172, 224.457 190.070, 228.289 191.972 C 229.822 192.733, 230.878 193.875, 230.635 194.508 C 230.387 195.154, 232.899 196.883, 236.347 198.442 C 239.731 199.972, 243.475 201.680, 244.666 202.236 C 248.561 204.056, 248.200 209.967, 244.282 208.533 C 241.919 207.668, 242.093 209.738, 244.579 212.075 C 248.137 215.417, 245.369 216.208, 238.055 213.940 C 235 212.993, 232.275 212.565, 232 212.990 C 230.926 214.652, 226.482 213.459, 225.513 211.250 C 224.970 210.012, 224.122 209, 223.628 209 C 223.134 209, 221.687 207.875, 220.412 206.500 C 219.138 205.125, 217.174 204, 216.048 204 C 214.921 204, 214 203.502, 214 202.893 C 214 202.229, 214.700 202.076, 215.750 202.512 C 219.546 204.086, 229.769 204.157, 227.013 202.590 C 225.644 201.812, 224.162 201.400, 223.719 201.674 C 222.320 202.538, 219.930 199.794, 220.505 197.984 C 220.928 196.651, 220.471 196.250, 218.528 196.250 C 217.137 196.250, 216 196.583, 216 196.991 C 216 197.677, 212.980 197.273, 205.500 195.587 C 203.124 195.051, 203.488 195.444, 207.250 197.475 C 209.863 198.885, 212 200.377, 212 200.792 C 212 201.939, 199.477 200.640, 197.891 199.329 C 197.126 198.696, 194.808 197.863, 192.739 197.476 C 188.702 196.722, 186.646 195, 189.782 195 C 190.827 195, 193.778 195.631, 196.339 196.402 C 198.930 197.181, 200.721 197.358, 200.376 196.800 C 199.418 195.249, 193.042 192.856, 191.844 193.596 C 191.257 193.959, 190.433 193.700, 190.013 193.021 C 188.579 190.700, 185.310 192.799, 185.216 196.101 C 185.150 198.446, 185.484 199.028, 186.644 198.583 C 188.597 197.834, 193 198.931, 193 200.167 C 193 200.690, 192.568 200.851, 192.041 200.525 C 191.513 200.199, 190.134 200.510, 188.976 201.216 C 187.132 202.340, 186.629 202.207, 184.936 200.141 C 183.511 198.402, 182.374 197.940, 180.611 198.383 C 178.754 198.849, 177.828 198.387, 176.473 196.318 C 174.882 193.890, 174.617 193.804, 173.490 195.344 C 171.759 197.712, 168.671 196.499, 170.200 194.051 C 171.105 192.602, 171.960 192.432, 174.903 193.116 C 178.437 193.938, 185.944 194.161, 182.990 193.357 C 182.159 193.131, 180.584 191.609, 179.490 189.976 C 178.395 188.342, 176.938 187.004, 176.250 187.003 C 174.469 186.999, 174.703 188.735, 176.628 189.812 C 178.805 191.030, 176.697 192.356, 173.965 191.489 C 171.984 190.860, 171.623 188.140, 173.353 186.877 C 173.823 186.535, 173.658 185.230, 172.988 183.978 C 171.801 181.759, 171.866 181.717, 175.523 182.310 C 180.771 183.162, 184.083 186.660, 180.801 187.886 C 178.617 188.703, 178.700 188.830, 182.427 190.396 C 185.315 191.609, 186.543 191.740, 187.069 190.888 C 187.557 190.099, 190.377 189.881, 195.929 190.202 C 201.327 190.515, 203.738 190.338, 203.079 189.679 C 202.532 189.132, 200.153 188.604, 197.793 188.505 C 190.751 188.208, 190.729 188.198, 191.245 185.500 C 191.577 183.760, 191.280 183, 190.268 183 C 189.467 183, 188.577 182.100, 188.290 181 C 188.002 179.900, 187.482 178.977, 187.133 178.949 C 186.785 178.922, 183.630 178.647, 180.122 178.338 C 176.614 178.030, 173.981 178.165, 174.271 178.639 C 174.561 179.112, 173.267 179.581, 171.396 179.679 C 168.888 179.811, 167.710 179.326, 166.911 177.834 C 165.982 176.097, 166.088 175.892, 167.664 176.383 C 168.674 176.697, 170.175 176.522, 171 175.992 C 172.165 175.245, 171.886 175.027, 169.750 175.015 C 168.238 175.007, 167 174.550, 167 174 C 167 173.450, 167.505 173, 168.122 173 C 168.929 173, 168.942 172.635, 168.168 171.703 C 166.331 169.489, 162.070 170.227, 160.682 173 C 159.748 174.864, 158.773 175.423, 156.846 175.196 C 154.934 174.970, 154.122 175.426, 153.724 176.946 C 153.164 179.088, 155.321 179.908, 156.500 178 C 156.840 177.450, 157.654 177.007, 158.309 177.015 C 159.036 177.025, 158.927 177.393, 158.029 177.961 C 157.220 178.473, 156.868 179.202, 157.248 179.581 C 157.627 179.960, 159.113 179.501, 160.550 178.559 C 163.924 176.349, 167.445 177.300, 164.228 179.553 C 163.063 180.369, 161.748 180.975, 161.305 180.900 C 159.573 180.606, 158 181.038, 158 181.809 C 158 182.254, 160.428 182.445, 163.395 182.234 C 168.864 181.845, 171.686 183.318, 168.878 185.096 C 167.590 185.912, 168.393 186.439, 170.373 186.078 C 170.853 185.990, 170.919 186.724, 170.520 187.709 C 170.122 188.694, 169.338 190.765, 168.779 192.311 C 168.086 194.227, 167.277 194.936, 166.239 194.538 C 165.014 194.068, 164.950 194.235, 165.911 195.393 C 166.876 196.555, 166.697 196.961, 164.980 197.506 C 163.629 197.935, 163.064 198.723, 163.428 199.672 C 163.742 200.492, 164 201.577, 164 202.082 C 164 202.587, 164.900 203, 166 203 C 167.100 203, 168 203.450, 168 204 C 168 205.210, 168.203 205.205, 164.316 204.091 C 161.061 203.157, 159.089 204.689, 161.037 206.637 C 161.543 207.143, 161.510 208.149, 160.958 209.008 C 160.154 210.261, 159.858 210.279, 159.111 209.121 C 158.450 208.095, 157.888 208.668, 156.914 211.361 C 156.042 213.772, 155.343 214.566, 154.818 213.740 C 154.261 212.864, 154.026 213.013, 154.015 214.250 C 154.007 215.213, 153.311 216, 152.469 216 C 151.626 216, 150.678 216.675, 150.362 217.500 C 149.464 219.839, 147.782 219.261, 148.540 216.875 C 148.994 215.445, 148.852 214.973, 148.107 215.434 C 147.498 215.810, 147 217.441, 147 219.059 C 147 220.677, 146.502 222, 145.893 222 C 145.284 222, 145.045 221.325, 145.362 220.500 C 146.664 217.105, 144.806 215.747, 142.873 218.680 L 141.013 221.500 141.007 218.579 C 141.003 216.972, 141.747 214.832, 142.661 213.823 C 143.574 212.813, 144.056 211.723, 143.732 211.398 C 142.378 210.045, 136.882 217.964, 134.828 224.227 C 132.400 231.627, 132.821 233.563, 136.059 229.892 C 137.745 227.979, 138.047 227.877, 137.566 229.379 C 134.024 240.438, 134.664 255.973, 138.548 253.184 C 139.071 252.808, 139.565 250.095, 139.645 247.155 C 139.724 244.216, 140.303 241.297, 140.930 240.670 C 141.785 239.815, 142.017 241.031, 141.854 245.514 C 141.735 248.806, 142.210 253.206, 142.910 255.291 C 143.610 257.376, 143.911 259.789, 143.580 260.652 C 143.085 261.943, 143.469 262.089, 145.739 261.472 C 147.257 261.059, 149.793 260.795, 151.373 260.886 C 153.923 261.032, 154.169 260.794, 153.559 258.775 C 152.109 253.973, 151.727 248, 152.870 248 C 153.491 248, 154 249.058, 154 250.351 C 154 252.818, 155.910 259.144, 156.914 260 C 157.236 260.275, 158.009 261.400, 158.631 262.500 C 159.567 264.154, 160.518 264.420, 164.131 264.035 C 166.534 263.779, 170.412 263.554, 172.750 263.535 C 177.860 263.493, 177.817 263.772, 173.500 258.729 C 169.599 254.171, 168.226 248.719, 172 252.770 C 173.100 253.950, 174 255.208, 174 255.564 C 174 256.561, 179.191 262.500, 180.062 262.500 C 180.486 262.500, 181.158 262.824, 181.554 263.220 C 181.950 263.617, 183.520 263.054, 185.041 261.970 C 186.563 260.887, 188.697 260, 189.782 260 C 190.867 260, 192.364 259.266, 193.108 258.370 C 194.327 256.900, 194.118 256.806, 190.980 257.408 C 187.810 258.016, 187.695 257.960, 189.684 256.788 C 190.886 256.079, 192.011 255.050, 192.184 254.500 C 192.358 253.950, 193.287 253.536, 194.250 253.579 C 196.384 253.676, 196.387 253.617, 194.414 249.460 C 193.541 247.621, 191.682 245.367, 190.282 244.449 C 188.332 243.171, 188.050 242.587, 189.078 241.952 C 190.749 240.919, 187.613 237.009, 185.095 236.985 C 184.053 236.975, 183.893 236.715, 184.632 236.235 C 185.254 235.831, 185.691 234.375, 185.603 233 C 185.299 228.277, 191.970 229.331, 192.701 234.122 C 193.413 238.786, 199.680 240.941, 200.740 236.886 C 201.008 235.861, 201.739 235.308, 202.364 235.658 C 203.030 236.030, 202.983 235.736, 202.250 234.947 C 198.494 230.900, 204.368 231.483, 212.250 235.940 C 215.412 237.728, 218 238.698, 218 238.095 C 218 236.563, 221.665 236.725, 223.158 238.324 C 223.838 239.052, 225.424 239.450, 226.684 239.210 C 227.943 238.969, 230.892 239.555, 233.236 240.511 C 235.581 241.468, 239.203 242.197, 241.284 242.131 C 243.940 242.047, 245.254 242.499, 245.694 243.646 C 246.261 245.122, 246.450 245.104, 247.649 243.465 C 248.996 241.623, 253.215 242.716, 255.159 245.411 C 255.522 245.914, 256.565 245.577, 257.481 244.662 C 259.447 242.696, 259.752 242.669, 263.863 244.102 C 265.602 244.708, 267.807 244.860, 268.763 244.439 C 269.718 244.017, 272.863 243.737, 275.750 243.815 C 278.946 243.901, 281 243.532, 281 242.871 C 281 242.268, 281.742 242.071, 282.670 242.427 C 283.589 242.779, 284.638 242.585, 285.003 241.995 C 285.463 241.251, 286.482 241.233, 288.333 241.936 C 289.800 242.494, 291 242.601, 291 242.173 C 291 241.746, 292.575 241.352, 294.500 241.297 C 296.425 241.243, 298 241.636, 298 242.170 C 298 242.705, 298.707 242.436, 299.571 241.571 C 300.436 240.707, 302.236 240, 303.571 240 C 304.907 240, 306 239.502, 306 238.893 C 306 238.284, 306.675 238.045, 307.500 238.362 C 309.696 239.204, 311.958 238.055, 311.330 236.417 C 310.967 235.471, 311.486 235, 312.893 235 C 314.052 235, 315 234.601, 315 234.113 C 315 232.781, 321.395 232.091, 322.189 233.338 C 322.650 234.062, 323.512 233.847, 324.794 232.686 C 325.882 231.701, 327.422 231.225, 328.355 231.583 C 329.265 231.932, 330 231.724, 330 231.119 C 330 229.791, 334.204 230.098, 335.235 231.500 C 335.663 232.082, 335.976 231.853, 335.985 230.950 C 335.993 230.097, 335.460 228.860, 334.800 228.200 C 333.867 227.267, 333.876 226.724, 334.842 225.758 C 335.830 224.770, 336.260 224.803, 336.951 225.921 C 337.674 227.090, 338.120 227.023, 339.629 225.514 C 341.376 223.767, 341.362 223.652, 339.220 222.230 C 336.769 220.603, 336.192 218.753, 338.399 219.600 C 339.168 219.895, 340.097 219.652, 340.462 219.061 C 340.828 218.470, 340.425 217.717, 339.568 217.388 C 338.711 217.059, 337.025 215.037, 335.821 212.895 C 334.617 210.753, 333.238 209, 332.757 209 C 332.276 209, 332.165 208.543, 332.510 207.984 C 332.856 207.425, 333.557 207.226, 334.069 207.543 C 334.581 207.859, 335 207.416, 335 206.559 C 335 205.702, 335.450 205, 336 205 C 336.550 205, 337 204.277, 337 203.394 C 337 202.265, 336.140 202.709, 334.099 204.894 C 330.729 208.501, 330.035 208.633, 327.224 206.194 C 324.859 204.143, 325.328 202.974, 329.196 201.276 C 331.936 200.073, 333.991 194.412, 332.540 192.065 C 332.178 191.479, 332.414 191, 333.063 191 C 333.910 191, 333.944 190.637, 333.183 189.721 C 331.947 188.231, 331.917 182.169, 333.142 181.412 C 333.601 181.128, 333.709 181.594, 333.382 182.448 C 333.054 183.302, 333.251 184, 333.820 184 C 334.388 184, 335.059 183.212, 335.311 182.250 C 335.592 181.173, 335.813 181.558, 335.884 183.250 C 336 185.997, 337.333 186.889, 338.500 185 C 338.840 184.450, 339.593 184, 340.174 184 C 340.764 184, 340.518 185.087, 339.615 186.465 C 337.370 189.892, 338.220 190.870, 341.604 188.753 C 342.237 188.357, 343.206 189.157, 343.877 190.629 C 344.653 192.333, 345.567 192.996, 346.596 192.602 C 347.448 192.275, 349.125 192.550, 350.322 193.213 C 351.520 193.877, 353.063 194.305, 353.750 194.166 C 354.438 194.026, 355 194.414, 355 195.028 C 355 197.452, 358.070 199.235, 361.295 198.684 C 363.058 198.382, 363.938 198.367, 363.250 198.651 C 361.568 199.345, 361.658 201, 363.378 201 C 365.198 201, 367.075 203.345, 367.264 205.858 C 367.348 206.968, 368.335 208.129, 369.458 208.438 C 371.044 208.874, 371.198 209.195, 370.147 209.873 C 368.476 210.950, 369.633 213.402, 373.510 217 L 376.203 219.500 373.978 215.207 C 371.735 210.878, 372.071 208.009, 374.442 211.252 C 375.145 212.213, 376.458 213, 377.360 213 C 378.333 213, 379 213.813, 379 215 C 379 216.100, 379.436 217, 379.969 217 C 380.501 217, 380.678 217.675, 380.362 218.500 C 380.043 219.330, 380.333 220, 381.010 220 C 381.750 220, 382.058 220.916, 381.790 222.320 C 381.282 224.973, 384.483 225.455, 386.026 222.959 C 386.502 222.188, 387.240 221.907, 387.667 222.333 C 388.093 222.760, 387.882 223.455, 387.197 223.878 C 386.282 224.444, 386.550 225.157, 388.209 226.574 C 390.116 228.202, 390.250 228.223, 389.075 226.708 C 388.177 225.550, 388.028 224.572, 388.655 223.945 C 389.778 222.822, 396 223.822, 396 225.125 C 396 225.606, 396.852 226, 397.893 226 C 399.994 226, 400.971 214.718, 398.976 213.485 C 398.439 213.154, 398 212.207, 398 211.382 C 398 210.557, 398.450 210.160, 399 210.500 C 399.550 210.840, 400 210.136, 400 208.937 C 400 207.111, 399.755 206.958, 398.500 208 C 397.300 208.996, 397 208.990, 397 207.967 C 397 207.110, 396.341 207.286, 394.994 208.506 C 393.890 209.504, 392.666 209.999, 392.273 209.606 C 391.880 209.213, 392.220 208.423, 393.029 207.851 C 394.243 206.993, 394.194 206.910, 392.750 207.374 C 391.657 207.726, 391 207.419, 391 206.558 C 391 204.898, 385.858 200.407, 382.873 199.460 C 381.195 198.927, 381.033 198.593, 382.118 197.906 C 383.142 197.257, 382.905 197.027, 381.203 197.015 C 379.711 197.005, 378.310 195.955, 377.203 194.016 C 376.083 192.054, 374.943 191.208, 373.874 191.544 C 372.821 191.876, 372.061 191.341, 371.718 190.028 C 371.426 188.913, 370.526 188, 369.719 188 C 368.858 188, 368.190 186.966, 368.104 185.500 C 367.825 180.707, 367.661 180, 366.833 180 C 366.375 180, 366 180.675, 366 181.500 C 366 183.243, 363.440 183.521, 362.431 181.888 C 362.053 181.277, 362.351 180.401, 363.093 179.943 C 365.810 178.263, 363.087 177.904, 359.947 179.527 C 357.030 181.036, 356.770 181.043, 357.323 179.601 C 357.661 178.720, 357.501 178, 356.969 178 C 356.436 178, 355.993 178.787, 355.985 179.750 C 355.972 181.246, 355.828 181.282, 355 180 C 354.354 179, 354.026 178.917, 354.015 179.750 C 354.007 180.438, 353.502 181, 352.893 181 C 352.284 181, 352.043 180.330, 352.357 179.512 C 352.671 178.694, 352.607 178.072, 352.214 178.130 C 350.233 178.426, 348.949 177.891, 349.500 177 C 350.289 175.724, 348.708 175.692, 347.442 176.958 C 346.289 178.111, 344.732 177.210, 343.195 174.500 C 342.391 173.083, 342.047 172.937, 342.015 174 C 341.974 175.333, 341.862 175.333, 341 174 C 340.178 172.728, 340.028 172.775, 340.015 174.309 C 339.994 176.872, 338.017 175.344, 337.921 172.691 C 337.878 171.486, 337.615 171.063, 337.338 171.750 C 336.164 174.660, 333.189 173.096, 333.534 169.750 C 333.717 167.963, 334.153 162.225, 334.500 157 L 335.133 147.500 332.260 153.500 C 328.384 161.592, 326.999 165.881, 328.050 166.531 C 328.541 166.834, 328.502 168.180, 327.962 169.601 C 327.337 171.245, 327.350 172.785, 328 174 C 329.902 177.553, 329.214 179.542, 327.040 176.778 C 325.564 174.902, 325.226 173.384, 325.671 170.643 C 326.327 166.598, 325.615 166.145, 322.696 168.750 C 320.797 170.444, 320.758 170.423, 321.482 168.099 C 322.087 166.160, 321.928 165.814, 320.658 166.301 C 319.363 166.798, 319.245 166.484, 319.993 164.519 C 321.742 159.918, 323.345 158.041, 324.620 159.099 C 326.088 160.318, 327.067 158.991, 327.481 155.220 C 327.654 153.645, 327.104 152.040, 326.137 151.297 C 324.696 150.189, 324.679 149.918, 326 149.034 C 326.825 148.482, 326.990 148.024, 326.367 148.015 C 324.867 147.995, 324.076 143.616, 325.207 141.595 C 325.698 140.718, 326.752 140, 327.550 140 C 328.347 140, 329 139.550, 329 139 C 329 137.005, 327.044 138.075, 324.432 141.500 C 322.964 143.425, 321.357 145, 320.862 145 C 318.913 145, 321.028 139.944, 324.174 137.083 C 327.822 133.766, 326.726 132.768, 322.993 136.006 C 320.419 138.239, 319.008 137.901, 320.980 135.524 C 322.042 134.245, 321.923 134, 320.239 134 C 318.050 134, 316.469 137.631, 318.356 138.323 C 319.744 138.832, 318.063 142.146, 316.081 142.806 C 315.055 143.148, 315.049 142.778, 316.046 140.914 C 316.917 139.287, 316.961 138.487, 316.193 138.231 C 315.426 137.975, 315.402 137.072, 316.115 135.198 L 317.129 132.530 314.565 134.939 C 312.594 136.790, 312 136.986, 312 135.781 C 312 131.835, 304.107 134.174, 304.031 138.143 C 304.014 139.047, 303.288 140.059, 302.418 140.393 C 300.001 141.321, 299.812 141.168, 300.540 138.875 C 300.994 137.445, 300.852 136.973, 300.107 137.434 C 298.748 138.274, 298.693 137.022, 300 135 C 300.828 133.718, 300.972 133.754, 300.985 135.250 C 301.007 137.840, 302.594 137.379, 304.926 134.105 C 306.667 131.659, 306.755 131.120, 305.494 130.636 C 304.672 130.321, 304 130.574, 304 131.198 C 304 131.822, 303.711 132.044, 303.357 131.691 C 303.004 131.337, 303.251 130.403, 303.906 129.613 C 306.015 127.072, 303.377 126.969, 301 129.500 C 298.206 132.474, 296.599 131.755, 297.374 127.879 C 298.091 124.294, 297.377 124.265, 293.757 127.732 C 291.403 129.989, 290.749 130.211, 290.006 129.010 C 289.252 127.789, 288.995 127.848, 288.408 129.379 C 287.995 130.454, 288.222 131.519, 288.961 131.976 C 289.940 132.581, 289.947 132.914, 288.995 133.503 C 286.016 135.344, 285.172 129.828, 288 127 C 289.100 125.900, 290 124.759, 290 124.465 C 290 123.486, 286.474 125.799, 283.632 128.641 C 281.052 131.221, 280.749 131.303, 279.832 129.664 C 278.899 127.997, 278.713 128.024, 276.918 130.095 C 274.550 132.825, 274.548 132.931, 276.887 132.319 C 279.747 131.571, 280.218 133.454, 277.906 136.392 C 275.600 139.325, 273.748 138.959, 274.202 135.661 C 274.403 134.203, 273.766 133.178, 272.241 132.509 C 269.367 131.248, 268.554 128.702, 270.102 125.810 C 271.275 123.617, 271.339 123.608, 272.087 125.522 C 272.706 127.107, 272.873 126.854, 272.930 124.250 C 273.021 120.025, 271.451 120.121, 268.867 124.500 C 267.732 126.425, 266.172 128, 265.401 128 C 264.631 128, 263.948 129.012, 263.885 130.250 C 263.821 131.488, 263.709 133.141, 263.635 133.925 C 263.505 135.296, 258.608 137.275, 257.670 136.337 C 257.419 136.085, 257.937 134.444, 258.821 132.690 C 260.961 128.444, 261.111 127, 259.412 127 C 258.578 127, 258 128.009, 258 129.465 C 258 130.906, 257.170 132.374, 256 133 C 254.313 133.903, 254 133.760, 254 132.092 C 254 128.690, 257.979 123, 260.358 123 C 261.547 123, 263.081 122.100, 263.768 121 C 265.130 118.819, 264.115 118.285, 262.217 120.183 C 261.566 120.834, 260.701 121.035, 260.296 120.629 C 259.890 120.223, 260.165 119.516, 260.907 119.057 C 261.649 118.599, 261.972 117.764, 261.625 117.202 C 260.448 115.299, 262.048 113.204, 264.315 113.679 C 266.257 114.087, 266.305 114.013, 264.750 113.019 C 263.788 112.404, 263 111.446, 263 110.891 C 263 110.336, 263.520 110.203, 264.155 110.595 C 264.789 110.988, 265.054 110.897, 264.743 110.393 C 264.432 109.890, 264.859 108.583, 265.692 107.489 C 267.174 105.543, 267.192 105.549, 266.536 107.750 C 265.984 109.603, 266.252 110, 268.055 110 C 269.888 110, 270.042 109.756, 269 108.500 C 268.282 107.635, 268.185 107, 268.771 107 C 270.851 107, 271.050 110.174, 269.004 110.709 C 266.885 111.263, 266.217 113, 268.122 113 C 268.854 113, 268.766 113.588, 267.872 114.687 C 266.651 116.189, 266.719 116.284, 268.500 115.554 C 269.600 115.102, 271.288 114.765, 272.250 114.804 C 274.223 114.885, 274.506 113.906, 272.958 112.358 C 272.234 111.634, 272.405 110.909, 273.514 109.988 C 274.853 108.877, 275.063 108.892, 274.806 110.081 C 274.566 111.192, 275.909 111.500, 281 111.500 C 285.468 111.500, 287.852 111.950, 288.625 112.939 C 289.535 114.103, 289.750 113.852, 289.750 111.630 C 289.750 109.601, 289.358 109.032, 288.254 109.456 C 287.387 109.789, 285.777 108.973, 284.426 107.515 C 282.926 105.897, 282.575 105, 283.441 105 C 284.181 105, 285.057 105.706, 285.388 106.569 C 285.795 107.629, 286.658 107.926, 288.050 107.484 C 289.705 106.959, 290.339 107.437, 291.274 109.915 C 292.759 113.849, 294.437 113.935, 293.658 110.039 C 293.261 108.057, 293.574 106.569, 294.604 105.539 C 296.985 103.158, 298.337 103.722, 296.074 106.151 C 293.579 108.829, 294.221 110, 298.181 110 C 300.911 110, 301.096 109.821, 299.880 108.356 C 297.930 106.006, 302.698 107.498, 305.595 110.143 C 306.769 111.216, 308.384 111.790, 309.272 111.449 C 310.487 110.983, 310.728 111.325, 310.310 112.921 C 309.696 115.272, 308.032 115.598, 306.078 113.750 C 304.987 112.719, 304.956 112.891, 305.904 114.734 C 307.146 117.148, 310.737 117.440, 312.500 115.269 C 313.228 114.373, 313.909 114.330, 315 115.113 C 316.297 116.043, 316.280 116.119, 314.875 115.674 C 312.474 114.913, 312.762 119.370, 315.212 120.901 C 316.941 121.980, 317.102 121.898, 316.568 120.215 C 315.621 117.229, 318.199 112.917, 319.865 114.701 C 320.666 115.558, 321.624 115.762, 322.337 115.227 C 324.775 113.397, 327.812 114.002, 327.236 116.204 C 326.940 117.339, 327.102 118.081, 327.598 117.852 C 328.094 117.623, 329.709 116.829, 331.186 116.086 C 335.406 113.967, 336.990 115.215, 337.063 120.719 C 337.115 124.597, 337.298 125.075, 338.031 123.250 C 338.529 122.012, 339.161 121, 339.436 121 C 339.712 121, 339.678 121.675, 339.362 122.500 C 339.045 123.325, 339.236 124, 339.786 124 C 341.414 124, 341.987 121.234, 340.599 120.082 C 339.893 119.496, 339.020 119.313, 338.658 119.675 C 338.296 120.037, 338 119.303, 338 118.044 C 338 116.020, 338.196 115.914, 339.692 117.128 C 340.656 117.909, 341.079 117.992, 340.676 117.319 C 340.286 116.670, 340.468 115.829, 341.080 115.451 C 342.553 114.540, 345.873 117.817, 344.458 118.786 C 343.885 119.179, 343.660 120.760, 343.958 122.299 C 344.466 124.921, 344.627 125.002, 346.500 123.581 C 347.603 122.744, 347.939 122.049, 347.250 122.032 C 345.528 121.988, 345.662 118, 347.385 118 C 348.147 118, 349.517 116.861, 350.429 115.468 C 351.923 113.188, 354.849 112.817, 353.447 115.085 C 353.125 115.606, 352.373 115.731, 351.776 115.362 C 351.094 114.940, 350.982 115.162, 351.474 115.957 C 351.904 116.654, 351.818 117.511, 351.282 117.862 C 350.746 118.213, 350.018 119.686, 349.664 121.136 C 348.918 124.186, 352.266 125.854, 354.842 123.716 C 356.055 122.710, 356.172 122.882, 355.569 124.783 C 355.173 126.030, 355.221 126.975, 355.675 126.882 C 357.267 126.558, 362.992 129.204, 362.483 130.028 C 362.199 130.487, 362.425 131.144, 362.984 131.490 C 363.543 131.835, 364 131.641, 364 131.059 C 364 130.477, 364.502 130, 365.117 130 C 365.741 130, 366.003 130.882, 365.710 132 C 365.423 133.100, 365.595 134, 366.094 134 C 366.592 134, 367 133.598, 367 133.107 C 367 132.616, 367.788 131.914, 368.750 131.548 C 370.153 131.014, 370.252 131.131, 369.250 132.141 C 367.275 134.131, 367.796 135.495, 369.829 133.655 C 372.124 131.578, 373.674 131.483, 371.981 133.523 C 370.924 134.796, 370.986 134.943, 372.359 134.416 C 373.261 134.069, 374 133.159, 374 132.393 C 374 131.627, 374.499 131, 375.108 131 C 375.784 131, 375.978 131.952, 375.605 133.439 C 375.268 134.780, 375.444 136.157, 375.996 136.498 C 376.548 136.839, 377 136.191, 377 135.059 C 377 133.759, 377.645 133.006, 378.750 133.015 C 380.218 133.028, 380.263 133.181, 379.029 133.961 C 378.220 134.473, 377.880 135.213, 378.273 135.606 C 379.781 137.114, 375.244 139.043, 372.575 138.029 C 369.943 137.028, 369.511 137.562, 370.617 140.444 C 371.051 141.575, 371.593 141.753, 372.449 141.042 C 373.283 140.350, 374.251 140.463, 375.533 141.400 C 376.624 142.198, 378.046 142.444, 378.951 141.991 C 383.598 139.664, 386.857 138.649, 389.899 138.579 C 392.296 138.523, 393.553 137.910, 394.163 136.500 C 394.900 134.794, 394.977 134.883, 394.680 137.106 C 394.433 138.961, 394.789 139.714, 395.916 139.719 C 399.444 139.734, 400 140.102, 400 142.417 C 400 143.746, 399.438 145.096, 398.750 145.417 C 397.750 145.883, 397.750 146.117, 398.750 146.583 C 399.438 146.904, 400 147.831, 400 148.642 C 400 149.454, 399.550 149.840, 399 149.500 C 398.450 149.160, 398 149.569, 398 150.410 C 398 151.357, 398.570 151.718, 399.500 151.362 C 400.815 150.857, 401 141.487, 401 75.393 L 401 0 200.500 0 L 0 0 0 76 M 138.183 152.078 C 137.266 153.547, 137.193 154.528, 137.934 155.420 C 138.511 156.115, 138.649 157.052, 138.241 157.502 C 137.834 157.952, 138.084 157.984, 138.798 157.572 C 141.419 156.059, 143.302 157.767, 141.300 159.840 C 138.962 162.261, 135.333 163.187, 135.333 161.363 C 135.333 160.613, 135.724 160, 136.201 160 C 137.292 160, 136.776 156.108, 135.356 153.628 C 134.182 151.578, 131 154.650, 131 157.833 C 131 158.685, 130.272 158.322, 129.115 156.893 C 127.498 154.897, 126.999 154.756, 125.615 155.905 C 124.371 156.937, 123.676 156.976, 122.589 156.074 C 121.624 155.273, 120.973 155.235, 120.530 155.951 C 120.174 156.528, 120.535 157, 121.334 157 C 123.378 157, 124.189 159.714, 122.355 160.417 C 120.194 161.247, 120 161.174, 120 159.531 C 120 158.550, 119.420 158.280, 118.250 158.719 C 116.759 159.277, 116.691 159.140, 117.785 157.792 C 118.869 156.458, 118.791 156.233, 117.285 156.355 C 116.303 156.435, 115.581 156.031, 115.681 155.458 C 115.780 154.884, 114.993 154.350, 113.931 154.270 C 112.869 154.190, 112.014 154.434, 112.032 154.812 C 112.075 155.744, 114.732 159.198, 115.159 158.877 C 116.835 157.618, 118.694 160.700, 117.344 162.500 C 115.928 164.389, 115.863 164.395, 116.172 162.604 C 116.353 161.561, 115.875 160.490, 115.111 160.224 C 114.305 159.944, 113.998 160.188, 114.380 160.806 C 114.742 161.392, 114.614 163.762, 114.095 166.071 C 113.083 170.578, 114.320 174.198, 116.577 173.332 C 117.248 173.074, 118.099 173.352, 118.468 173.948 C 118.837 174.545, 119.615 174.738, 120.199 174.377 C 120.808 174, 121.063 174.313, 120.797 175.111 C 120.543 175.875, 119.022 176.754, 117.418 177.065 C 114.702 177.591, 114.812 177.685, 119 178.433 C 121.475 178.874, 124.323 179.389, 125.330 179.576 C 129.517 180.354, 131.120 181.246, 130.629 182.526 C 130.197 183.651, 130.837 183.653, 134.557 182.533 C 140.016 180.890, 146.379 177.042, 143.679 177.017 C 142.677 177.008, 141.156 177.701, 140.300 178.558 C 139.443 179.414, 138.068 179.856, 137.244 179.540 C 136.420 179.224, 135.156 179.761, 134.434 180.733 C 133.181 182.420, 133.041 182.419, 131.311 180.696 C 129.563 178.955, 129.567 178.917, 131.414 179.616 C 132.693 180.100, 133.102 179.975, 132.648 179.239 C 132.274 178.634, 132.494 177.813, 133.138 177.415 C 133.869 176.963, 134.041 177.124, 133.595 177.845 C 133.203 178.480, 133.332 179, 133.882 179 C 134.432 179, 135.160 178.550, 135.500 178 C 136.401 176.542, 138.233 176.773, 137.485 178.250 C 137.137 178.938, 137.583 178.600, 138.476 177.500 C 139.926 175.715, 139.934 175.465, 138.550 175.177 C 136.815 174.815, 136.502 173.426, 137.953 172.529 C 138.478 172.205, 139.807 172.710, 140.906 173.652 C 143.149 175.572, 147.547 176.364, 146.068 174.582 C 145.574 173.987, 145.067 173.050, 144.940 172.500 C 144.814 171.950, 143.498 170.600, 142.016 169.500 C 139.485 167.621, 138.976 165, 141.142 165 C 141.679 165, 141.832 165.463, 141.483 166.028 C 141.133 166.593, 141.894 167.928, 143.174 168.995 C 145.778 171.165, 147 171.486, 147 170 C 147 169.450, 146.325 169, 145.500 169 C 143.313 169, 143.665 167.241, 146 166.500 C 148.052 165.849, 148.792 164, 147 164 C 146.450 164, 146 164.450, 146 165 C 146 165.550, 145.270 166, 144.378 166 C 143.134 166, 143.015 165.687, 143.869 164.658 C 145.317 162.913, 144.087 161.683, 142.342 163.131 C 141.320 163.980, 141 163.884, 141 162.729 C 141 161.896, 141.675 160.955, 142.500 160.638 C 143.325 160.322, 144.007 160.611, 144.015 161.281 C 144.025 162.075, 144.351 161.994, 144.949 161.048 C 145.455 160.249, 145.615 159.186, 145.306 158.686 C 144.997 158.186, 145.364 157.377, 146.122 156.888 C 147.278 156.143, 147.258 155.841, 146 155.015 C 143.971 153.683, 141.720 153.738, 142.562 155.100 C 143.028 155.854, 142.560 155.835, 141.073 155.039 C 139.548 154.223, 139.087 153.302, 139.519 151.939 C 140.318 149.422, 139.809 149.476, 138.183 152.078 M 266.250 173.698 C 265.563 173.956, 265 175.479, 265 177.083 C 265 178.688, 264.586 180, 264.079 180 C 262.019 180, 261.893 185.807, 263.872 189.500 C 264.965 191.538, 265.617 193.835, 265.322 194.603 C 265.027 195.373, 265.395 196.007, 266.143 196.015 C 267.193 196.027, 267.163 196.244, 266.008 196.974 C 263.760 198.395, 265.977 200.053, 271.032 200.731 C 274.118 201.145, 275.108 200.984, 274.594 200.152 C 274.202 199.518, 273.234 199, 272.441 199 C 271.648 199, 271 198.634, 271 198.188 C 271 196.808, 279.018 197.410, 279.912 198.857 C 281.186 200.920, 282.181 198.568, 281.381 195.382 C 280.816 193.130, 280.980 192.778, 282.350 193.304 C 283.258 193.652, 284 193.577, 284 193.136 C 284 192.445, 287.535 192.393, 289 193.062 C 290.530 193.761, 296.998 193.354, 296.999 192.559 C 296.999 192.041, 297.610 192.452, 298.355 193.471 C 299.185 194.606, 300.348 195.080, 301.355 194.694 C 302.260 194.347, 303 194.499, 303 195.031 C 303 195.564, 303.702 196, 304.559 196 C 305.416 196, 305.840 196.449, 305.501 196.999 C 305.145 197.574, 305.859 197.892, 307.189 197.749 C 309.871 197.459, 311.123 201.608, 308.837 203.213 C 307.788 203.950, 307.823 204.028, 309 203.577 C 309.825 203.260, 311.288 202.724, 312.250 202.384 C 313.212 202.045, 314 201.321, 314 200.776 C 314 200.232, 313.325 200.045, 312.500 200.362 C 310.463 201.143, 310.606 200.020, 312.750 198.392 C 314.371 197.162, 314.334 197.061, 312.250 197.032 C 309.833 196.998, 309.198 195.492, 311.250 194.659 C 312.222 194.265, 312.198 193.941, 311.143 193.201 C 310.195 192.536, 310.120 192.044, 310.893 191.566 C 315.164 188.927, 307.981 182.035, 302.415 183.432 C 300.980 183.792, 300 183.601, 300 182.960 C 300 182.367, 299.511 182.184, 298.913 182.554 C 298.177 183.009, 298.154 183.554, 298.841 184.241 C 299.442 184.842, 299.508 185.918, 299.001 186.878 C 298.531 187.770, 297.901 189.292, 297.601 190.259 C 296.953 192.351, 288.591 192.493, 286.656 190.446 C 282.173 185.703, 280.392 182.018, 280.906 178.547 C 281.154 176.869, 280.971 176.779, 279.608 177.910 C 278.736 178.634, 278.305 179.684, 278.650 180.243 C 279.001 180.811, 278.665 181.037, 277.889 180.755 C 277.125 180.477, 276.591 179.808, 276.702 179.268 C 276.918 178.224, 272.834 178.366, 271.057 179.465 C 270.458 179.835, 270 179.308, 270 178.250 C 270 175.767, 267.813 173.113, 266.250 173.698" stroke="none" fill="#1a1a2e" fill-rule="evenodd"/>
</svg>