<svg xmlns="http://www.w3.org/2000/svg" width="400" height="260" viewBox="0 0 400 260" version="1.1">
	<path d="M 127.293 1.250 C 133.005 5.511, 125.670 7.824, 117.250 4.417 C 113.468 2.887, 113.050 3.742, 116.245 6.478 C 118.334 8.266, 120.790 8.664, 131.250 8.905 C 134.514 8.980, 134.688 9.900, 132.021 12.976 C 130.932 14.231, 130.340 15.740, 130.704 16.330 C 131.171 17.086, 131.473 17.080, 131.731 16.307 C 132.158 15.027, 136.157 15.828, 137.250 17.412 C 138.257 18.872, 140.159 16.058, 139.640 13.877 C 139.369 12.739, 139.778 12.391, 141.008 12.712 C 143.646 13.402, 141.583 17.644, 136.296 22.398 C 131.744 26.491, 129.677 26.727, 132.398 22.842 C 134.988 19.145, 134.328 17.354, 131.500 20.405 C 130.125 21.889, 129 23.509, 129 24.004 C 129 26.841, 126.175 30.346, 122.799 31.697 C 120.275 32.707, 119 33.852, 119 35.109 C 119 37.023, 121.425 37.739, 122.426 36.119 C 123.120 34.997, 128 34.031, 128 35.016 C 128 35.423, 127.315 36.323, 126.478 37.018 C 125.134 38.134, 125.193 38.447, 126.980 39.698 C 129.509 41.470, 131 40.621, 131 37.410 C 131 36.050, 131.694 34.671, 132.543 34.345 C 134.909 33.437, 135.513 34.776, 133.661 36.823 C 132.747 37.832, 132 39.370, 132 40.240 C 132 41.110, 130.604 42.997, 128.899 44.432 C 125.923 46.936, 125.862 47.140, 127.387 49.468 C 128.912 51.795, 128.673 55, 126.975 55 C 124.991 55, 123 53.665, 123 52.334 C 123 51.467, 123.504 51.163, 124.250 51.579 C 124.938 51.962, 124.435 51.201, 123.133 49.888 C 121.516 48.256, 120.618 47.896, 120.300 48.750 C 119.641 50.516, 117.952 50.301, 116.371 48.250 C 115.166 46.687, 115.044 46.859, 115.232 49.866 C 115.460 53.498, 117.223 54.890, 119.355 53.121 C 120.922 51.820, 122 52.629, 122 55.108 C 122 57.490, 120.238 58.442, 118.500 57 C 116.900 55.672, 115 56.456, 115 58.446 C 115 59.176, 113.537 59.996, 111.750 60.268 C 107.656 60.892, 106.958 60.347, 110.248 59.096 C 114.701 57.403, 113.009 49.458, 108.439 50.605 C 106.584 51.070, 106 50.817, 106 49.549 C 106 48.591, 105.532 48.171, 104.899 48.562 C 104.207 48.990, 104.073 50.405, 104.536 52.371 C 104.942 54.092, 105.550 57.745, 105.887 60.490 C 106.371 64.426, 106.922 65.556, 108.500 65.843 C 109.600 66.043, 111.287 66.905, 112.250 67.758 C 114.307 69.582, 114.896 67.296, 112.887 65.287 C 111.434 63.834, 112.612 62, 115 62 C 116.035 62, 117.160 61.550, 117.500 61 C 118.297 59.711, 120.172 59.734, 123.685 61.075 C 126.339 62.088, 126.395 62.227, 124.653 63.506 C 123.637 64.252, 122.174 64.620, 121.403 64.324 C 120.573 64.006, 120 64.415, 120 65.326 C 120 66.265, 116.390 68.690, 110.750 71.538 C 105.662 74.108, 101.072 76.613, 100.550 77.105 C 98.487 79.048, 96.590 78.110, 98.443 76.063 C 100.506 73.783, 99.804 72.064, 96.898 72.283 C 94.450 72.467, 92.903 74.969, 93.250 78.184 C 93.412 79.687, 92.973 80.500, 92 80.500 C 91.175 80.500, 90.634 79.873, 90.798 79.106 C 91.354 76.504, 89.848 72, 88.421 72 C 86.708 72, 86.611 73.404, 88.127 76.237 C 89.050 77.962, 88.914 78.602, 87.377 79.786 C 86.058 80.800, 85.872 81.369, 86.750 81.698 C 89.175 82.607, 82.720 88.088, 79.364 87.970 C 78.889 87.953, 79.269 87.491, 80.208 86.943 C 82.140 85.817, 81.471 82.605, 79.465 83.375 C 78.763 83.645, 77.401 82.995, 76.439 81.933 C 75.477 80.870, 73.972 79.995, 73.095 79.989 C 72.218 79.983, 70.032 78.468, 68.239 76.621 C 64.498 72.770, 65.161 71.457, 71.891 69.394 C 74.945 68.457, 75.211 68.164, 73.618 67.486 C 72.509 67.014, 70.973 67.160, 69.881 67.842 C 67.255 69.482, 60 69.355, 60 67.669 C 60 66.937, 58.911 65.755, 57.580 65.043 C 56.249 64.330, 55.364 63.214, 55.615 62.561 C 56.503 60.248, 51.521 58.602, 48.149 60.094 C 43.218 62.277, 40.797 69.770, 45.396 68.616 C 48.732 67.778, 49.293 69.983, 46.886 74.474 C 45.801 76.498, 45.177 78.982, 45.498 79.994 C 45.958 81.442, 45.667 81.726, 44.132 81.324 C 42.815 80.980, 42.012 81.412, 41.656 82.657 C 41.366 83.671, 41.212 83.166, 41.314 81.535 C 41.507 78.456, 38.643 76.048, 34.750 76.015 C 33.788 76.007, 33.074 75.662, 33.164 75.250 C 34.451 69.368, 25.547 64.163, 22.900 69.250 C 22.256 70.487, 22.074 71.178, 22.496 70.785 C 23.477 69.870, 27.489 72.645, 27.533 74.269 C 27.586 76.200, 26.483 76.553, 21.609 76.165 L 17.069 75.804 17.588 69.902 C 17.937 65.927, 17.743 64, 16.994 64 C 16.382 64, 16.138 64.414, 16.450 64.919 C 16.763 65.425, 16.336 66.521, 15.502 67.356 C 14.618 68.239, 14.387 69.121, 14.949 69.468 C 16.653 70.522, 14.959 72.758, 12.010 73.348 C 8.294 74.091, 3 71.493, 3 68.927 C 3 64.735, 0.254 66.998, 0.168 71.261 L 0.083 75.522 12.550 79.456 L 25.017 83.390 24.383 88.170 C 23.606 94.029, 28.081 100.654, 31.517 98.731 C 32.900 97.957, 33.636 98.149, 34.661 99.551 C 36.708 102.350, 36.333 102.923, 32 103.616 C 28.618 104.157, 28 104.628, 28 106.663 C 28 108.760, 28.257 108.933, 30 108 C 31.580 107.154, 32 107.240, 32 108.406 C 32 110.448, 30.057 111.457, 28.713 110.113 C 26.411 107.811, 23.483 109.100, 18.258 114.715 C 12.804 120.575, 12.151 120.848, 2.852 121.155 C -2.510 121.331, -0.711 128, 4.698 128 C 10.591 128, 10.451 130.397, 4.469 131.904 L -0.063 133.045 0.219 196.272 L 0.500 259.500 5.750 259.802 C 10.409 260.071, 11 259.883, 11 258.134 C 11 255.108, 12.068 253, 13.601 253 C 14.609 253, 14.877 254.024, 14.581 256.750 C 14.357 258.813, 14.403 259.919, 14.684 259.208 C 15.076 258.216, 15.520 258.187, 16.597 259.081 C 17.423 259.766, 18 259.834, 18 259.245 C 18 258.695, 17.314 257.676, 16.476 256.980 C 15.638 256.284, 15.181 255.485, 15.462 255.205 C 15.742 254.924, 16.911 255.888, 18.059 257.347 C 20.546 260.510, 31.747 261.266, 35.646 258.535 C 36.796 257.730, 37.914 257.167, 38.131 257.285 C 38.347 257.403, 37.956 257, 37.262 256.390 C 35.512 254.850, 35.686 253.292, 37.750 252.025 C 39.374 251.027, 39.364 250.970, 37.604 251.225 C 36.561 251.376, 35.511 250.938, 35.270 250.250 C 35.030 249.562, 35.546 249, 36.417 249 C 37.288 249, 38 248.523, 38 247.941 C 38 247.359, 37.479 247.204, 36.842 247.597 C 36.054 248.084, 35.860 247.645, 36.232 246.221 C 36.591 244.848, 36.215 243.898, 35.139 243.457 C 33.707 242.870, 33.752 242.682, 35.500 241.963 C 37.249 241.244, 37.276 241.132, 35.715 241.070 C 34.235 241.012, 34.116 240.653, 35.015 238.972 C 35.653 237.779, 36.594 237.240, 37.300 237.664 C 38.021 238.097, 37.952 237.709, 37.128 236.692 C 36.373 235.761, 36.121 235, 36.569 235 C 37.688 235, 33.731 232.071, 32.559 232.032 C 32.041 232.014, 32.491 232.661, 33.559 233.468 C 34.626 234.276, 34.964 234.951, 34.309 234.968 C 33.015 235.003, 31.674 233.280, 31.355 231.173 C 31.238 230.399, 31.748 230.073, 32.577 230.391 C 34.685 231.200, 34.304 230.075, 31.750 227.944 C 30.512 226.911, 30.025 226.052, 30.667 226.033 C 31.308 226.015, 32.078 226.562, 32.377 227.250 C 32.676 227.938, 32.660 227.150, 32.342 225.500 C 31.790 222.641, 31.835 222.594, 33.293 224.489 C 34.134 225.583, 34.611 226.820, 34.352 227.239 C 34.094 227.658, 34.385 228, 35 228 C 35.615 228, 35.840 228.450, 35.500 229 C 35.160 229.550, 35.328 230, 35.874 230 C 36.807 230, 38.571 233.792, 38.247 235.102 C 38.166 235.433, 39.202 235.493, 40.549 235.235 C 42.026 234.953, 43 235.234, 43 235.942 C 43 236.589, 42.550 236.840, 42 236.500 C 40.463 235.550, 40.875 238.256, 42.609 240.500 C 43.681 241.887, 44.095 242.040, 43.959 241 C 43.605 238.287, 43.981 237.333, 45.405 237.333 C 46.177 237.333, 46.579 237.933, 46.298 238.667 C 45.767 240.051, 47.514 240.572, 48.253 239.250 C 48.483 238.838, 48.556 239.008, 48.414 239.628 C 48.272 240.249, 48.661 241.261, 49.278 241.878 C 50.101 242.701, 50.102 243, 49.283 243 C 48.669 243, 47.978 242.662, 47.747 242.250 C 47.517 241.837, 47.459 242.048, 47.620 242.718 C 47.781 243.388, 47.502 244.190, 47 244.500 C 46.498 244.810, 46.323 245.679, 46.612 246.431 C 46.900 247.183, 46.654 248.096, 46.065 248.460 C 45.316 248.923, 45.308 249.706, 46.038 251.070 C 46.913 252.706, 46.673 253.174, 44.540 253.985 C 43.143 254.516, 42 255.173, 42 255.444 C 42 255.715, 42.675 255.678, 43.500 255.362 C 44.325 255.045, 45.056 255.284, 45.125 255.893 C 45.194 256.502, 45.306 257.450, 45.375 258 C 45.444 258.550, 45.837 259, 46.250 259 C 46.663 259, 47.450 259, 48 259 C 48.550 259, 49 258.523, 49 257.941 C 49 257.359, 48.517 257.181, 47.926 257.546 C 47.333 257.912, 47.423 257.295, 48.126 256.169 C 48.827 255.047, 49.873 254.412, 50.450 254.757 C 51.028 255.102, 50.963 254.720, 50.307 253.908 C 49.535 252.953, 49.441 251.916, 50.042 250.966 C 50.917 249.582, 51.072 249.692, 51.375 251.917 C 51.444 252.421, 51.822 253.155, 52.215 253.548 C 52.608 253.941, 52.491 255.082, 51.956 256.083 C 51.083 257.714, 51.268 257.812, 53.741 257.034 C 60.606 254.873, 62.478 255.051, 57.500 257.392 L 52.500 259.743 57.155 259.788 C 61.004 259.826, 61.902 259.484, 62.338 257.816 C 62.628 256.707, 63.326 256.083, 63.889 256.431 C 64.452 256.779, 64.674 257.686, 64.382 258.447 C 63.948 259.577, 66.237 259.849, 76.926 259.935 C 89.101 260.032, 93.127 259.137, 88.500 257.362 C 85.627 256.259, 90.642 251.979, 94 252.667 C 94.275 252.724, 95.513 253.077, 96.750 253.452 C 101.506 254.895, 98.908 251.068, 92.990 247.914 C 89.684 246.152, 85.797 243.615, 84.352 242.275 C 82.907 240.936, 81.978 240.500, 82.287 241.305 C 82.596 242.111, 82.224 243.663, 81.460 244.754 C 80.696 245.845, 80.344 247.011, 80.678 247.344 C 81.684 248.351, 78.893 251, 76.826 251 C 75.570 251, 74.521 252.075, 73.824 254.076 C 73.103 256.144, 72.421 256.821, 71.743 256.143 C 71.188 255.588, 71.079 254.317, 71.499 253.317 C 73.655 248.196, 71.377 242, 67.338 242 C 65.152 242, 60.999 234.351, 60.829 230.009 C 60.743 227.804, 60.345 226, 59.945 226 C 59.546 226, 59.035 224.425, 58.810 222.500 C 58.585 220.575, 58.747 219, 59.169 219 C 59.592 219, 59.678 218.325, 59.362 217.500 C 59.045 216.675, 59.284 216, 59.893 216 C 60.502 216, 61 215.100, 61 214 C 61 212.900, 61.633 212, 62.406 212 C 63.304 212, 63.630 211.301, 63.307 210.066 C 62.689 207.702, 64.780 201, 66.137 201 C 66.676 201, 66.869 200.597, 66.565 200.105 C 66.260 199.612, 66.609 198.980, 67.339 198.700 C 68.069 198.420, 68.667 198.823, 68.667 199.595 C 68.667 200.368, 68.272 201, 67.789 201 C 67.307 201, 66.985 201.563, 67.075 202.250 C 67.443 205.090, 66.937 207.079, 65.993 206.496 C 64.425 205.527, 63.549 209.048, 64.842 211.119 C 66.158 213.226, 66.397 217, 65.214 217 C 64.782 217, 64.429 217.911, 64.429 219.025 C 64.429 220.282, 64.925 220.859, 65.737 220.547 C 66.707 220.175, 66.803 220.500, 66.108 221.798 C 65.501 222.932, 65.556 224.249, 66.262 225.526 C 67.246 227.305, 67.186 227.362, 65.654 226.109 C 64.169 224.893, 64.034 224.925, 64.584 226.359 C 64.931 227.261, 65.642 228, 66.166 228 C 66.690 228, 66.864 228.412, 66.553 228.915 C 66.242 229.418, 66.553 230.093, 67.244 230.415 C 68.247 230.882, 68.248 231.118, 67.250 231.583 C 66.563 231.904, 66 232.654, 66 233.250 C 66 233.846, 66.228 234.106, 66.506 233.827 C 66.784 233.549, 68.828 235.049, 71.048 237.161 C 77.150 242.965, 79.119 242.461, 78.510 235.250 C 77.635 224.901, 76.794 216.533, 76.451 214.750 C 76.266 213.788, 76.473 213, 76.911 213 C 77.349 213, 78.241 218.268, 78.894 224.707 C 79.547 231.146, 80.333 236.658, 80.641 236.957 C 80.949 237.256, 80.898 233.900, 80.528 229.500 C 77.777 196.766, 75.452 189.506, 63.305 175.702 C 59.837 171.761, 57.009 168.304, 57.019 168.019 C 57.062 166.848, 91.886 157, 95.982 157 C 97.275 157, 98.032 156.699, 97.664 156.331 C 96.710 155.377, 100.002 152.003, 101.905 151.985 C 103.245 151.972, 103.271 151.824, 102.069 151.064 C 100.361 149.983, 105.451 148.837, 111 149.054 C 115.628 149.234, 118.336 148.723, 119.235 147.500 C 119.677 146.898, 119.975 147.046, 119.985 147.872 C 119.996 148.907, 120.330 148.971, 121.342 148.131 C 122.080 147.519, 122.980 147.313, 123.342 147.675 C 123.704 148.037, 124 147.808, 124 147.167 C 124 146.525, 124.498 146, 125.107 146 C 125.723 146, 125.934 146.729, 125.584 147.641 C 125.106 148.888, 125.261 149.028, 126.230 148.224 C 127.144 147.466, 128.055 147.567, 129.444 148.583 C 131.519 150.100, 134.076 150.484, 133.882 149.250 C 133.582 147.353, 134.096 146, 135.117 146 C 135.773 146, 136.033 147.047, 135.748 148.540 C 135.438 150.157, 135.669 150.929, 136.381 150.665 C 136.996 150.437, 137.372 149.697, 137.215 149.021 C 136.491 145.892, 138.089 143.770, 139.922 145.429 C 140.879 146.296, 141.924 146.743, 142.243 146.424 C 143.150 145.517, 148 145.186, 148 146.031 C 148 146.446, 147.225 147.083, 146.278 147.447 C 144.803 148.013, 144.767 148.241, 146.028 149.038 C 146.838 149.550, 147.147 149.976, 146.715 149.985 C 146.283 149.993, 146.418 150.913, 147.015 152.028 C 148.325 154.476, 150.006 153.719, 149.985 150.691 C 149.972 148.910, 149.788 148.781, 149 150 C 148.138 151.333, 148.037 151.333, 148.086 150 C 148.169 147.718, 149.843 144.134, 149.930 146.051 C 150.031 148.287, 152.350 152.983, 153.357 152.992 C 153.828 152.996, 153.886 152.213, 153.486 151.250 C 151.988 147.648, 152.114 142.830, 153.690 143.434 C 154.500 143.745, 155.974 144, 156.965 144 C 157.962 144, 159.015 144.951, 159.324 146.130 C 159.716 147.631, 160.378 148.069, 161.567 147.613 C 162.495 147.257, 163.819 147.435, 164.510 148.008 C 165.413 148.758, 165.928 148.631, 166.340 147.558 C 166.655 146.736, 166.434 145.768, 165.850 145.407 C 165.135 144.965, 165.208 144.490, 166.073 143.955 C 166.971 143.400, 168.019 144.530, 169.547 147.699 C 170.750 150.196, 172.027 151.766, 172.384 151.188 C 172.741 150.611, 172.595 149.868, 172.060 149.537 C 171.525 149.206, 171.369 148.202, 171.714 147.304 C 172.129 146.220, 171.951 145.913, 171.181 146.388 C 170.442 146.845, 170.224 146.579, 170.580 145.653 C 170.886 144.855, 170.656 143.905, 170.068 143.542 C 169.481 143.179, 169 141.307, 169 139.382 C 169 137.457, 169.403 136.131, 169.895 136.435 C 171.007 137.122, 171.990 134.697, 172.030 131.168 C 172.057 128.803, 172.181 128.707, 173.122 130.325 C 173.706 131.329, 173.933 132.400, 173.627 132.706 C 173.321 133.013, 173.529 134.121, 174.091 135.169 C 175.412 137.639, 174.274 141.319, 172.410 140.604 C 170.681 139.940, 170.671 140.138, 172.278 143.236 C 174.969 148.421, 177.086 149.612, 176.445 145.578 C 175.801 141.521, 177.510 140.621, 178.969 144.250 C 179.800 146.319, 179.880 146.339, 179.952 144.500 C 180.017 142.837, 180.194 142.753, 181 144 C 181.533 144.825, 181.976 145.028, 181.985 144.450 C 181.993 143.873, 181.467 142.868, 180.817 142.217 C 180.166 141.566, 179.919 140.747, 180.269 140.398 C 180.619 140.048, 181.667 140.524, 182.598 141.455 C 184.439 143.296, 186.281 141.897, 185.319 139.389 C 184.141 136.320, 186.350 135.927, 187.632 138.977 C 189.126 142.528, 188.728 144, 186.274 144 C 184.141 144, 185.174 144.956, 187.868 145.475 C 192.617 146.389, 193.549 149.925, 189.833 152.934 C 188.275 154.195, 187.884 155.224, 188.439 156.594 C 189.171 158.399, 189.267 158.381, 190.259 156.250 C 191.232 154.158, 193.148 153.062, 192.882 154.750 C 192.532 156.961, 193.210 158, 195 158 C 196.100 158, 197 158.450, 197 159 C 197 159.550, 197.675 160, 198.500 160 C 200.137 160, 200.567 161.630, 199.072 162.167 C 198.561 162.350, 198.770 163.625, 199.536 165 L 200.929 167.500 200.965 164.219 C 200.998 161.128, 201.193 160.950, 204.333 161.162 C 206.296 161.294, 207.667 161.924, 207.667 162.693 C 207.667 164.356, 206.326 164.394, 205.662 162.750 C 205.350 161.977, 205.128 162.142, 205.079 163.183 C 204.999 164.880, 207.815 166.305, 211.500 166.431 C 212.850 166.478, 213.612 167.313, 213.846 169 C 214.285 172.175, 215.896 174.163, 217.363 173.342 C 218.153 172.901, 218.142 173.094, 217.328 173.975 C 216.114 175.289, 216.592 178, 218.037 178 C 218.490 178, 219.005 177.028, 219.180 175.841 C 219.356 174.653, 220.313 173.564, 221.306 173.421 C 222.720 173.217, 222.868 173.454, 221.989 174.513 C 221.118 175.563, 221.432 176.237, 223.389 177.519 C 225.871 179.145, 228.583 178.753, 227.457 176.931 C 227.141 176.419, 227.385 176, 228 176 C 228.615 176, 228.869 175.597, 228.565 175.105 C 227.961 174.128, 230.958 172.625, 231.810 173.476 C 232.098 173.764, 231.808 174, 231.167 174 C 230.525 174, 230 174.502, 230 175.117 C 230 175.752, 230.888 176.001, 232.061 175.694 C 233.323 175.364, 234.334 175.707, 234.668 176.578 C 235.301 178.226, 239.284 178.453, 242.005 176.997 C 243.257 176.327, 244.084 176.327, 244.498 176.997 C 244.839 177.549, 244.304 178.007, 243.309 178.015 C 242.314 178.024, 240.926 178.395, 240.225 178.840 C 239.523 179.285, 242.223 179.514, 246.225 179.350 C 251.606 179.128, 253.039 179.320, 251.729 180.087 C 248.577 181.931, 250.935 183.054, 254.676 181.491 C 259.660 179.408, 260.219 179.709, 255.750 182.068 C 251.314 184.410, 251.062 184.902, 254.649 184.216 C 256.645 183.835, 257.099 184.030, 256.494 185.010 C 255.961 185.873, 256.084 186.066, 256.862 185.585 C 257.506 185.187, 257.726 184.366, 257.352 183.761 C 256.910 183.046, 257.273 182.891, 258.388 183.319 C 259.544 183.762, 259.870 183.599, 259.388 182.819 C 258.920 182.062, 259.210 181.866, 260.221 182.255 C 261.892 182.896, 266.321 180.329, 265.589 179.144 C 265.344 178.748, 266.277 178.331, 267.661 178.216 C 271.046 177.936, 272.021 177.218, 271.359 175.494 C 271.055 174.700, 271.524 173.333, 272.403 172.454 C 273.844 171.013, 274 171.011, 274 172.429 C 274 173.293, 274.450 174, 275 174 C 275.550 174, 276 174.675, 276 175.500 C 276 177.105, 279.516 177.592, 280.430 176.113 C 280.732 175.625, 280.421 175.288, 279.739 175.363 C 278.331 175.519, 278 174.868, 278 171.941 C 278 170.809, 278.354 170.100, 278.786 170.368 C 279.218 170.635, 279.571 170.043, 279.571 169.052 C 279.571 167.591, 279.243 167.456, 277.831 168.337 C 275.496 169.796, 274.036 168.178, 276.236 166.569 C 277.189 165.872, 277.676 165.009, 277.318 164.651 C 276.960 164.293, 277.642 164, 278.833 164 C 280.025 164, 281 164.410, 281 164.912 C 281 165.413, 281.788 165.688, 282.750 165.522 C 284.658 165.194, 288.739 167.426, 290.798 169.925 C 291.584 170.878, 291.485 170.236, 290.548 168.300 C 288.588 164.247, 288.589 162.372, 290.552 161.618 C 291.595 161.218, 291.873 161.429, 291.398 162.261 C 291.010 162.943, 291.618 162.600, 292.750 161.500 C 294.479 159.819, 294.583 159.323, 293.404 158.390 C 291.006 156.493, 291.864 155.681, 294.465 157.385 C 297.700 159.505, 297.726 159.492, 297.213 156 C 296.690 152.434, 298.625 151.907, 299.969 155.250 C 300.727 157.135, 300.884 157.198, 300.937 155.639 C 300.993 153.974, 301.218 154.027, 303.076 156.139 C 304.218 157.438, 304.956 158.050, 304.715 157.500 C 304.475 156.950, 304.901 155.150, 305.663 153.500 L 307.047 150.500 306.453 154.647 C 306.106 157.067, 306.287 159.059, 306.886 159.429 C 307.451 159.778, 307.665 160.837, 307.362 161.782 C 306.894 163.241, 306.974 163.274, 307.890 162 C 308.484 161.175, 308.976 158.497, 308.985 156.050 C 309.002 151.157, 310.549 151.451, 311.356 156.500 C 311.620 158.150, 311.873 159.674, 311.918 159.886 C 311.963 160.099, 313.159 159.114, 314.576 157.697 C 315.993 156.280, 317.793 155.367, 318.576 155.667 C 319.359 155.968, 320 155.650, 320 154.961 C 320 154.272, 321.125 154.922, 322.500 156.405 C 323.875 157.889, 325 159.546, 325 160.087 C 325 160.712, 325.710 160.690, 326.947 160.029 C 328.475 159.211, 329.119 159.364, 329.946 160.743 C 330.910 162.352, 331.105 162.364, 332.262 160.883 C 333.273 159.590, 333.761 159.519, 334.703 160.527 C 335.350 161.220, 335.688 161.979, 335.453 162.214 C 332.817 164.850, 342.641 161.586, 345.431 158.899 C 352.393 152.194, 353.361 151.944, 352.326 157.118 C 351.880 159.348, 352.118 160, 353.375 160 C 354.269 160, 355 159.550, 355 159 C 355 158.450, 355.605 158, 356.345 158 C 357.085 158, 358.501 157.104, 359.492 156.009 C 361.190 154.133, 361.366 154.119, 362.569 155.759 C 363.651 157.235, 363.553 157.609, 361.923 158.218 C 360.865 158.613, 360.052 159.738, 360.116 160.718 C 360.226 162.403, 360.257 162.404, 360.692 160.738 C 361.430 157.908, 363.065 159.852, 362.436 162.811 C 361.914 165.263, 361.990 165.346, 363.292 163.750 C 364.078 162.787, 365.247 162, 365.892 162 C 366.536 162, 367.306 161.366, 367.604 160.590 C 368.481 158.304, 372.260 157.912, 386.521 158.628 L 400 159.304 400 174.045 C 400 186.420, 399.752 188.881, 398.454 189.379 C 396.199 190.244, 372.684 190.315, 364.381 189.482 C 359.506 188.993, 357.044 189.119, 356.572 189.884 C 356.192 190.498, 356.407 191, 357.049 191 C 357.787 191, 357.992 191.897, 357.605 193.439 C 357.268 194.780, 357.444 196.157, 357.996 196.498 C 359.511 197.434, 359.200 199, 357.500 199 C 356.675 199, 355.967 198.438, 355.926 197.750 C 355.811 195.829, 355.029 191.642, 354.526 190.267 C 354.018 188.875, 348.377 189.590, 346.174 191.326 C 345.240 192.062, 344.636 192.029, 344.132 191.214 C 343.655 190.441, 338.436 189.963, 328.458 189.778 L 313.500 189.500 319.147 186.727 C 322.252 185.202, 325.402 183.177, 326.147 182.227 C 327.328 180.719, 327.305 180.652, 325.964 181.695 C 322.619 184.297, 311.878 189.043, 310.817 188.387 C 310.130 187.962, 309.969 188.140, 310.405 188.845 C 311.036 189.867, 310.420 190.190, 308.362 189.915 C 308.011 189.868, 307.448 190.274, 307.112 190.818 C 306.775 191.361, 304.925 191.962, 303 192.153 C 301.075 192.344, 299.179 192.950, 298.786 193.500 C 298.394 194.050, 296.075 194.500, 293.632 194.500 C 291.189 194.500, 289.440 194.903, 289.745 195.396 C 290.053 195.895, 289.152 196.004, 287.710 195.642 C 286.287 195.285, 284.856 195.425, 284.529 195.953 C 284.203 196.481, 283.202 196.631, 282.304 196.286 C 281.130 195.836, 280.900 196.029, 281.485 196.976 C 282.109 197.986, 281.697 198.141, 279.710 197.642 C 278.287 197.285, 276.856 197.425, 276.529 197.953 C 276.203 198.481, 275.275 198.659, 274.468 198.349 C 273.661 198.040, 273 198.264, 273 198.848 C 273 199.846, 269.706 200.731, 264 201.266 C 262.625 201.395, 261.169 201.950, 260.765 202.500 C 260.307 203.124, 260.025 203.042, 260.015 202.281 C 260.007 201.611, 259.438 201.244, 258.750 201.466 C 258.063 201.687, 255.025 202.138, 252 202.466 C 248.975 202.795, 244.744 203.343, 242.597 203.684 C 239.781 204.132, 238.892 203.984, 239.406 203.152 C 239.894 202.362, 238.961 202, 236.437 202 C 233.470 202, 232.971 201.739, 233.869 200.658 C 235.442 198.763, 234.223 197.965, 231.397 199.039 C 229.883 199.615, 229 199.591, 229 198.975 C 229 198.439, 228.523 198, 227.941 198 C 227.359 198, 227.160 198.450, 227.500 199 C 227.840 199.550, 227.173 200, 226.019 200 C 224.864 200, 222.700 200.865, 221.210 201.923 C 219.719 202.981, 216.475 204.100, 214 204.411 C 211.525 204.721, 210.063 204.718, 210.750 204.404 C 211.437 204.090, 211.964 202.633, 211.919 201.167 C 211.841 198.603, 211.773 198.638, 210.169 202.062 C 208.452 205.725, 202.106 212, 200.118 212 C 199.503 212, 199 212.413, 199 212.918 C 199 213.423, 198.699 214.622, 198.330 215.582 C 197.896 216.713, 198.044 217.091, 198.749 216.655 C 199.349 216.285, 200.490 216.632, 201.285 217.428 C 202.080 218.223, 204.048 218.836, 205.658 218.791 C 211.582 218.622, 214.027 221.204, 211.836 225.316 C 210.829 227.207, 210.873 227.335, 212.166 226.269 C 213.440 225.218, 213.642 225.531, 213.547 228.404 C 213.469 230.762, 213.819 231.623, 214.718 231.278 C 217.239 230.311, 215.921 231.845, 211.022 235.581 C 205.031 240.150, 205.226 241.606, 211.252 237.302 C 215.601 234.196, 222.866 230.236, 224.303 230.188 C 224.744 230.173, 226.105 229.506, 227.327 228.705 C 228.549 227.905, 232.013 226.916, 235.024 226.508 C 238.036 226.100, 241.400 225.578, 242.500 225.348 C 243.600 225.117, 245.625 224.739, 247 224.506 C 248.375 224.273, 251.126 223.790, 253.113 223.433 C 255.156 223.065, 257.619 223.261, 258.782 223.883 C 260.046 224.560, 260.966 224.613, 261.169 224.022 C 261.709 222.452, 270.973 221.733, 272.657 223.131 C 274.020 224.261, 276.729 224.406, 287.500 223.920 C 289.700 223.820, 293.300 224.453, 295.500 225.326 C 297.700 226.198, 301.356 226.932, 303.624 226.956 C 319.996 227.130, 333.423 243.901, 327.108 256.289 L 325.216 260 362.501 260 C 396.834 260, 399.838 259.864, 400.446 258.281 C 401.406 255.779, 400.676 100.828, 399.712 102.550 C 399.266 103.347, 397.876 104, 396.625 104 C 395.373 104, 393.292 105.125, 392 106.500 C 389.790 108.852, 386.209 110.089, 387.457 108.069 C 388.588 106.239, 386.359 106.229, 376.500 108.017 C 371 109.015, 364.813 110.115, 362.750 110.461 C 360.424 110.852, 359 111.643, 359 112.545 C 359 113.345, 358.373 114, 357.607 114 C 355.463 114, 354.899 116.756, 356.678 118.535 C 357.805 119.662, 358.583 119.817, 359.336 119.064 C 359.921 118.479, 361.322 117.984, 362.450 117.964 C 365.581 117.909, 371.309 113.012, 368.250 113.005 C 364.986 112.998, 365.488 111.302, 368.902 110.801 C 371.600 110.405, 371.848 110.648, 372.424 114.248 C 373.223 119.244, 372.353 120.630, 369.845 118.360 C 368.180 116.853, 367.577 116.783, 365.807 117.888 C 359.446 121.861, 356.545 123.134, 356.201 122.104 C 355.999 121.497, 354.982 121, 353.941 121 C 352.324 121, 352.191 120.628, 353.025 118.435 C 355.322 112.393, 353.380 111.692, 343.161 114.873 L 337.143 116.746 331.845 110.123 C 328.930 106.480, 323.462 100.278, 319.691 96.340 L 312.837 89.180 318.668 87.994 C 321.876 87.342, 327.541 86.170, 331.257 85.390 C 334.973 84.611, 340.079 83.764, 342.603 83.509 C 345.127 83.253, 348.665 82.134, 350.464 81.022 C 354.398 78.591, 356.440 78.410, 355.613 80.565 C 354.847 82.562, 358.259 81.709, 362.210 78.916 C 363.700 77.862, 366.286 77, 367.956 77 C 372.563 77, 393.396 72.380, 397.437 70.463 C 401.097 68.726, 401.651 67.578, 400.051 65.048 C 399.545 64.249, 399.429 63.124, 399.792 62.548 C 401.423 59.956, 401.023 48.517, 399.255 47.211 C 397.904 46.212, 397.799 45.742, 398.791 45.129 C 399.516 44.681, 400.027 42.632, 399.966 40.418 C 399.908 38.263, 399.956 32, 400.073 26.500 C 400.191 21, 400.222 12.787, 400.143 8.250 L 400 0 395.083 0 C 392.128 0, 389.934 0.499, 389.583 1.250 C 389.117 2.250, 388.883 2.250, 388.417 1.250 C 388.096 0.563, 386.971 0, 385.917 0 C 384.863 0, 383.983 0.563, 383.962 1.250 C 383.941 1.938, 383.684 4.154, 383.391 6.175 C 382.906 9.513, 383.047 9.800, 384.929 9.308 C 386.181 8.981, 387 9.245, 387 9.977 C 387 10.643, 386.106 11.421, 385.012 11.707 C 383.919 11.993, 381.516 14.313, 379.672 16.863 C 376.753 20.899, 374.451 22.435, 361.909 28.710 C 353.984 32.675, 343.450 38.257, 338.500 41.114 C 333.550 43.971, 326.260 47.793, 322.300 49.607 C 313.028 53.853, 300.606 60.871, 290.500 67.574 C 284.358 71.647, 281.892 72.756, 279.881 72.348 L 277.262 71.817 277.734 62.658 L 278.206 53.500 275.353 57.801 L 272.500 62.102 271.773 54.801 C 270.579 42.801, 270.048 41.631, 268.231 47 C 265.087 56.290, 263.259 56.821, 262.744 48.591 L 262.500 44.682 272 39.739 C 277.225 37.021, 287.350 31.853, 294.500 28.256 C 301.650 24.659, 307.766 21.306, 308.092 20.805 C 308.417 20.304, 309.102 20.031, 309.613 20.197 C 310.124 20.364, 312.558 18.857, 315.021 16.849 C 317.485 14.841, 323.325 10.925, 328 8.146 C 342.513 -0.479, 342.891 0.113, 323 0.319 L 305.500 0.500 304.558 4.750 C 303.874 7.835, 303.120 9, 301.808 9 C 299.545 9, 299.553 8.796, 302.025 3.952 L 304.049 -0.017 281.430 0.041 C 260.427 0.094, 258.662 0.237, 256.717 2.049 C 253.972 4.606, 253.063 4.515, 253.730 1.750 C 254.087 0.268, 253.936 -0.159, 253.288 0.500 C 252.747 1.050, 251.745 4.761, 251.062 8.747 C 249.242 19.365, 247.574 19.309, 248.239 8.652 L 248.779 0 240.310 0 L 231.841 0 232.479 2.905 C 233.234 6.343, 231.459 8.020, 230.445 4.826 C 229.787 2.752, 229.642 2.824, 227.966 6.062 C 226.404 9.078, 226.351 9.896, 227.533 12.728 C 228.274 14.504, 228.489 16.198, 228.012 16.493 C 227.535 16.788, 226.856 16.123, 226.505 15.015 C 225.610 12.197, 224.308 12.503, 222.526 15.950 C 220.655 19.568, 220.637 20, 222.361 20 C 223.263 20, 223.566 20.819, 223.259 22.424 C 222.896 24.323, 222.222 24.811, 220.151 24.674 C 217.835 24.522, 217.048 25.370, 213.825 31.500 C 211.800 35.350, 209.550 38.500, 208.825 38.500 C 207.911 38.500, 207.606 39.650, 207.830 42.250 C 208.021 44.461, 207.711 46, 207.077 46 C 206.484 46, 205.982 46.788, 205.959 47.750 C 205.930 49.004, 204.828 48.296, 202.073 45.250 C 199.958 42.913, 197.934 41, 197.574 41 C 197.214 41, 198.062 42.233, 199.460 43.740 C 201.784 46.246, 202.649 48.914, 201.977 51.500 C 201.834 52.050, 201.752 53.279, 201.795 54.231 C 201.897 56.500, 198.429 54.474, 192.352 48.715 C 188.313 44.887, 186.295 45.244, 187.084 49.646 C 187.687 53.010, 186.689 53.092, 183.439 49.946 C 180.469 47.072, 179.100 46.482, 175.189 46.389 C 166.567 46.186, 157.542 44.943, 156.516 43.819 C 155.792 43.026, 156.003 42.883, 157.250 43.321 C 158.271 43.681, 159 43.449, 159 42.766 C 159 42.122, 160.309 40.224, 161.909 38.548 C 166.851 33.370, 188 2.494, 188 0.456 C 188 -0.598, 185.173 0.106, 184.726 1.272 C 184.024 3.100, 179.314 3.262, 178.631 1.481 C 177.872 -0.498, 173 -0.481, 173 1.500 C 173 2.325, 172.536 3, 171.969 3 C 171.401 3, 170.678 2.325, 170.362 1.500 C 170.045 0.675, 169.143 0, 168.358 -0 C 167.240 -0, 167.162 0.434, 168 2 C 169.217 4.275, 167.287 4.887, 165.267 2.867 C 163.930 1.530, 160.590 2.527, 161.496 3.993 C 161.838 4.547, 161.266 5, 160.226 5 C 157.492 5, 156.877 6.020, 158.582 7.725 C 159.648 8.791, 159.771 9.571, 159.017 10.479 C 158.439 11.176, 158.246 12.479, 158.590 13.373 C 158.994 14.427, 158.689 15, 157.724 15 C 156.904 15, 155.989 14.066, 155.691 12.925 C 155.333 11.558, 154.492 10.960, 153.227 11.175 C 152.171 11.354, 151.350 11.050, 151.403 10.500 C 151.456 9.950, 151.791 9.597, 152.147 9.716 C 153.069 10.023, 151.931 6.075, 150.918 5.449 C 150.455 5.163, 150.498 3.820, 151.013 2.465 C 151.925 0.067, 151.826 0, 147.353 0 C 143.323 0, 142.913 0.191, 144.035 1.542 C 144.941 2.633, 145.004 3.396, 144.250 4.150 C 143.497 4.903, 142.876 4.636, 142.128 3.239 C 141.546 2.152, 141.355 0.979, 141.702 0.631 C 142.049 0.284, 140.773 -0, 138.867 -0 C 136.960 -0, 134.860 0.540, 134.200 1.200 C 133.267 2.133, 132.733 2.133, 131.800 1.200 C 131.140 0.540, 129.479 0, 128.109 0 C 125.889 -0, 125.800 0.136, 127.293 1.250 M 107.238 77.444 C 82.788 90.961, 80.630 93.785, 89 101.310 C 100.924 112.031, 115.878 117.544, 123 113.847 C 123.825 113.418, 127.200 112.538, 130.500 111.890 C 136.081 110.794, 136.308 110.646, 133.750 109.773 C 132.238 109.256, 131 108.435, 131 107.948 C 131 107.461, 131.787 107.350, 132.750 107.701 C 134.417 108.309, 134.417 108.244, 132.750 106.341 C 131.787 105.242, 131 103.815, 131 103.171 C 131 102.527, 130.508 102, 129.908 102 C 129.307 102, 127.671 101.100, 126.273 100 C 123.493 97.813, 123.946 97.366, 127.186 99.100 C 128.760 99.942, 129.066 99.916, 128.493 98.988 C 128.077 98.316, 128.358 97.388, 129.122 96.904 C 130.089 96.291, 129.606 96.016, 127.500 95.982 C 123.829 95.923, 120 92.915, 120 90.090 C 120 88.940, 119.513 88, 118.917 88 C 118.321 88, 118.035 87.438, 118.282 86.750 C 118.528 86.063, 118.327 84.716, 117.834 83.758 C 117.210 82.544, 117.671 80.420, 119.356 76.758 C 121.985 71.040, 121.979 69.960, 119.332 72.107 C 118.197 73.029, 117.870 73.077, 118.367 72.250 C 119.312 70.678, 120.377 70.180, 107.238 77.444 M 238.885 124.050 C 238.821 124.847, 238.665 125.950, 238.537 126.500 C 238.409 127.050, 238.236 128.063, 238.152 128.750 C 238.069 129.438, 237.325 130, 236.500 130 C 235.675 130, 235 130.450, 235 131 C 235 131.550, 234.100 132, 233 132 C 231.336 132, 231 132.667, 231 135.969 C 231 139.085, 230.678 139.814, 229.500 139.362 C 228.321 138.909, 228 139.641, 228 142.786 C 228 145.419, 227.487 146.983, 226.500 147.362 C 225.586 147.712, 225 147.363, 225 146.469 C 225 145.661, 224.325 145, 223.500 145 C 222.675 145, 221.944 144.550, 221.875 144 C 221.806 143.450, 221.637 142.550, 221.500 142 C 221.363 141.450, 221.187 140.213, 221.110 139.250 C 220.877 136.348, 219.034 139.963, 219.015 143.357 C 219.004 145.548, 218.631 146.073, 217.418 145.607 C 216.548 145.273, 215.387 145, 214.837 145 C 214.287 145, 214.788 143.461, 215.951 141.579 C 217.311 139.379, 217.691 137.927, 217.016 137.510 C 216.439 137.154, 216.231 136.436, 216.553 135.915 C 216.875 135.394, 217.557 135.226, 218.069 135.543 C 218.581 135.859, 218.996 135.304, 218.992 134.309 C 218.988 133.314, 217.863 131.980, 216.492 131.344 C 213.943 130.162, 213.420 130.856, 213.925 134.750 C 214.151 136.484, 211.063 136.327, 210.388 134.569 C 209.718 132.824, 204 132.789, 204 134.530 C 204 135.204, 204.670 136.311, 205.489 136.991 C 206.308 137.671, 206.659 138.738, 206.269 139.363 C 205.878 139.988, 205.504 141.494, 205.436 142.709 C 205.369 143.924, 204.858 145.499, 204.301 146.209 C 202.835 148.079, 202.051 151.913, 203.013 152.508 C 203.466 152.788, 204.135 151.664, 204.498 150.009 C 205.049 147.502, 207.250 145.416, 206.882 147.750 C 206.352 151.104, 207.116 151.968, 210.250 151.559 C 212.037 151.326, 214.738 151.105, 216.250 151.067 C 218.151 151.021, 219.020 150.460, 219.063 149.250 C 219.112 147.909, 219.338 148.026, 220.031 149.750 C 220.529 150.988, 221.202 152, 221.527 152 C 221.852 152, 221.862 151.586, 221.550 151.081 C 220.463 149.323, 227.976 147.601, 229.317 149.300 C 231.375 151.909, 242.193 153.184, 241.413 150.726 C 240.998 149.418, 241.160 148.981, 241.893 149.434 C 242.502 149.810, 243 149.641, 243 149.059 C 243 148.477, 243.450 148, 244 148 C 244.550 148, 245 149.350, 245 151 C 245 153.713, 245.311 154.002, 248.250 154.024 C 250.037 154.038, 253.525 154.525, 256 155.108 C 258.475 155.690, 261.233 156.318, 262.129 156.503 C 263.025 156.688, 265.825 157.540, 268.352 158.398 C 273.222 160.052, 276 159.687, 276 157.393 C 276 156.627, 276.477 156, 277.059 156 C 277.641 156, 277.886 155.624, 277.601 155.164 C 276.753 153.792, 273.217 154.494, 271.037 156.467 C 269.164 158.162, 269 158.172, 269 156.596 C 269 155.653, 268.550 155.160, 268 155.500 C 267.450 155.840, 267.004 155.529, 267.008 154.809 C 267.016 153.442, 271.375 151, 273.806 151 C 274.585 151, 274.980 151.610, 274.690 152.366 C 274.305 153.368, 275.076 153.701, 277.582 153.616 C 281.444 153.485, 281.575 153.266, 279.535 150.354 C 278.730 149.204, 278.355 147.979, 278.702 147.631 C 279.049 147.284, 278.583 147, 277.667 147 C 276.750 147, 276 146.550, 276 146 C 276 145.450, 275.325 145, 274.500 145 C 273.580 145, 273 144.065, 273 142.583 C 273 139.268, 265.015 135.929, 262.324 138.118 C 260.833 139.332, 260.706 139.287, 261.281 137.750 C 261.765 136.459, 261.428 136, 259.994 136 C 258.367 136, 258.148 135.510, 258.650 133 C 259.112 130.689, 258.891 130, 257.685 130 C 256.599 130, 256.026 131.147, 255.810 133.750 C 255.640 135.813, 255.100 137.349, 254.612 137.165 C 253.057 136.578, 252.163 139.211, 252.660 142.914 C 253.097 146.175, 253.009 146.338, 251.684 144.714 C 250.635 143.428, 250.446 141.959, 251.008 139.464 C 251.857 135.700, 249.022 135.077, 245.260 138.199 C 244.398 138.915, 243.424 139.386, 243.096 139.246 C 242.768 139.106, 242.454 140.126, 242.399 141.513 C 242.289 144.245, 241 146.335, 241 143.781 C 241 142.927, 240.350 140.976, 239.556 139.445 C 238.691 137.778, 238.436 136.026, 238.921 135.080 C 239.366 134.211, 239.520 132.915, 239.265 132.199 C 239.009 131.484, 239.360 129.546, 240.044 127.894 C 240.979 125.638, 241.004 124.604, 240.144 123.744 C 239.285 122.885, 238.971 122.961, 238.885 124.050 M 120.195 158.389 C 117.918 160.865, 116.170 165.135, 115.441 170 C 113.863 180.534, 113.792 179.979, 117.407 185.425 C 121.698 191.891, 128.040 197.732, 131.725 198.613 C 133.251 198.977, 134.950 199.610, 135.500 200.019 C 136.050 200.428, 138.075 200.998, 140 201.286 C 141.925 201.574, 146.618 202.312, 150.428 202.926 C 155.578 203.756, 157.536 203.751, 158.057 202.908 C 158.554 202.104, 158.916 202.171, 159.300 203.137 C 159.724 204.204, 159.859 204.215, 159.921 203.191 C 159.964 202.471, 160.459 202.166, 161.020 202.512 C 161.580 202.859, 163.659 202.608, 165.638 201.954 C 169.868 200.559, 171.282 201.759, 170.702 206.250 C 170.254 209.712, 170.760 209.760, 172.046 206.378 C 172.759 204.503, 172.695 203.293, 171.820 202.128 C 170.791 200.759, 170.820 200.699, 171.998 201.750 C 172.769 202.438, 174.322 203.007, 175.450 203.015 C 177.061 203.027, 177.194 203.224, 176.070 203.935 C 173.737 205.412, 173.756 208.201, 176.090 206.952 C 177.141 206.390, 178 205.045, 178 203.965 C 178 202.884, 178.498 202, 179.107 202 C 179.716 202, 179.944 202.703, 179.614 203.563 C 179.162 204.741, 179.750 204.602, 182 203 C 183.643 201.830, 185.451 201.160, 186.018 201.511 C 186.585 201.862, 186.926 201.738, 186.775 201.235 C 186.624 200.733, 187.982 199.069, 189.792 197.537 C 193.788 194.156, 193.293 192.943, 189.128 195.909 C 186.095 198.069, 183.781 197.257, 186.511 194.991 C 188.053 193.711, 188.641 190.486, 187.166 191.398 C 186.096 192.059, 178 188.082, 178 186.895 C 178 186.073, 179.459 185.608, 181.214 185.870 C 181.607 185.928, 181.671 185.306, 181.357 184.488 C 181.043 183.670, 180.358 183, 179.834 183 C 179.310 183, 179.160 183.450, 179.500 184 C 179.840 184.550, 179.641 185, 179.059 185 C 178.477 185, 178 184.550, 178 184 C 178 183.450, 177.325 183, 176.500 183 C 175.675 183, 174.968 182.438, 174.930 181.750 C 174.891 181.063, 174.473 181.400, 174 182.500 C 173.244 184.259, 173.132 184.162, 173.070 181.691 C 173.030 180.097, 172.570 179.148, 172.005 179.497 C 171.458 179.835, 169.546 178.691, 167.755 176.956 C 165.635 174.900, 164.936 173.632, 165.750 173.317 C 167.202 172.755, 167.442 171, 166.067 171 C 165.554 171, 164.847 171.907, 164.495 173.016 C 163.857 175.025, 163.844 175.025, 161.094 173.067 C 158.343 171.108, 157.198 167.755, 159.594 168.674 C 160.450 169.003, 160.680 168.492, 160.310 167.079 C 159.564 164.225, 158.171 164.471, 157.387 167.595 C 156.907 169.507, 156.513 169.836, 155.891 168.845 C 155.426 168.105, 155.279 166.750, 155.564 165.834 C 155.848 164.918, 155.613 163.879, 155.041 163.525 C 154.416 163.139, 153.987 164.006, 153.968 165.691 C 153.938 168.377, 153.872 168.415, 152.468 166.559 C 151.661 165.491, 151 164.984, 151 165.431 C 151 165.879, 150.339 165.697, 149.532 165.027 C 148.725 164.356, 148.162 163.310, 148.282 162.702 C 149.047 158.820, 123.417 154.884, 120.195 158.389" stroke="none" fill="#1a1a2e" fill-rule="evenodd"/>
</svg>