<svg xmlns="http://www.w3.org/2000/svg" width="400" height="267" viewBox="0 0 400 267" version="1.1">
	<path d="M 216.947 68.857 C 211.493 71.585, 200.331 80.338, 191.807 88.571 C 184.350 95.773, 178.819 98.539, 180.452 94.250 C 180.963 92.908, 180.843 92.773, 179.937 93.672 C 179.288 94.316, 178.062 94.577, 177.214 94.252 C 176.247 93.881, 175.925 94.070, 176.352 94.760 C 176.802 95.489, 175.878 95.799, 173.608 95.680 C 170.932 95.539, 170.417 95.217, 171.252 94.204 C 171.840 93.492, 172.947 93.149, 173.712 93.443 C 174.508 93.748, 174.831 93.535, 174.466 92.945 C 174.115 92.377, 174.429 91.183, 175.164 90.292 C 177.311 87.689, 173.022 90.258, 170.222 93.252 C 168.231 95.381, 165.839 95.921, 162.042 95.099 C 161.790 95.045, 163.590 92.903, 166.042 90.340 C 169.910 86.297, 170.070 85.975, 167.250 87.909 C 164.267 89.953, 163.520 89.901, 163.906 87.676 C 163.985 87.222, 163.567 87.150, 162.976 87.515 C 162.243 87.968, 162.226 88.567, 162.923 89.407 C 164.909 91.801, 161.365 95, 156.727 95 L 152.568 95 158 89.500 C 160.987 86.475, 162.940 84, 162.338 84 C 161.737 84, 160.689 84.670, 160.009 85.489 C 159.329 86.308, 158.305 86.688, 157.732 86.334 C 157.160 85.981, 156.941 86.098, 157.247 86.595 C 158.489 88.614, 151.496 95.183, 148.478 94.834 L 145.596 94.500 150.361 89.146 C 152.981 86.201, 154.821 83.501, 154.448 83.146 C 154.076 82.791, 152.360 84.262, 150.636 86.416 C 143.925 94.797, 143.470 95.201, 141.124 94.848 C 138.952 94.521, 139.122 94.149, 143.958 88.634 C 149.007 82.876, 150.165 79.682, 145.746 83.702 C 144.511 84.826, 142.825 85.543, 142 85.297 C 140.743 84.921, 140.728 85.007, 141.908 85.831 C 143.060 86.635, 142.728 87.556, 140.074 90.907 C 136.648 95.232, 133.663 96.160, 132.536 93.250 C 131.889 91.583, 131.796 91.583, 130.568 93.250 C 127.380 97.579, 126.209 95.112, 129.081 90.118 L 131.162 86.500 128.081 89.962 C 126.386 91.866, 125 93.779, 125 94.212 C 125 94.646, 121.287 95.007, 116.750 95.016 C 93.861 95.060, 68.060 98.916, 49.500 105.068 C 26.271 112.767, 1.912 126.779, 5.092 130.611 C 6.379 132.162, 8.449 132.536, 7.532 131.052 C 6.886 130.007, 10.283 130.440, 12.254 131.655 C 12.939 132.077, 12.732 131.249, 11.794 129.814 C 10.108 127.235, 10.123 127.192, 13.107 125.956 C 18.198 123.847, 21.495 124.144, 21.529 126.715 C 21.564 129.360, 26.557 134.851, 29.629 135.622 C 32.843 136.429, 39 132.743, 39 130.012 C 39 129.391, 39.419 129.141, 39.931 129.457 C 40.443 129.774, 41.187 129.506, 41.585 128.862 C 42.037 128.131, 41.876 127.959, 41.155 128.405 C 39.751 129.272, 39.652 127.086, 41 125 C 41.862 123.667, 41.983 123.667, 42.094 125 C 42.163 125.825, 42.607 124.524, 43.081 122.110 C 45.756 108.491, 69 112.012, 69 126.036 C 69 127.768, 69.658 127.372, 72.750 123.776 C 78.754 116.794, 82.689 114.566, 85.622 116.488 C 88.065 118.089, 88.799 120, 86.970 120 C 86.404 120, 86.875 121.265, 88.018 122.810 C 90.246 125.824, 90.604 128.107, 89.440 131.863 C 88.755 134.072, 88.857 134.147, 90.989 133.006 C 92.244 132.334, 92.872 131.496, 92.385 131.143 C 91.484 130.488, 90.928 127.362, 90.968 123.175 C 90.997 120.161, 89.273 117.003, 86.341 114.696 C 83.566 112.513, 83.425 111.293, 85.664 108.818 C 87.224 107.095, 87.196 106.837, 85.234 104.740 L 83.138 102.500 87.569 102.241 C 90.596 102.063, 92.005 102.380, 92.015 103.241 C 92.025 104.074, 92.279 104.141, 92.765 103.439 C 93.504 102.371, 98 101.964, 98 102.964 C 98 103.259, 99.757 103.500, 101.905 103.500 C 104.052 103.500, 105.600 103.162, 105.345 102.750 C 104.453 101.307, 107.360 102.016, 109.214 103.694 C 110.922 105.239, 111.030 105.243, 110.451 103.734 C 109.682 101.728, 113.771 102.146, 115.271 104.227 C 115.938 105.152, 116.045 105.049, 115.664 103.849 C 114.927 101.531, 118.678 100.743, 121.535 102.615 C 123.083 103.629, 124.027 103.765, 124.476 103.038 C 124.840 102.449, 125.627 102.269, 126.224 102.638 C 126.877 103.042, 127.021 102.843, 126.585 102.138 C 126.187 101.494, 125.446 101.224, 124.939 101.538 C 124.431 101.852, 123.225 101.648, 122.258 101.085 C 120.249 99.915, 125.951 99.659, 153.500 99.681 C 176.145 99.699, 187.538 100.563, 190.257 102.468 C 192.727 104.197, 191.867 104.534, 188.957 102.977 C 187.414 102.151, 187.158 102.248, 187.629 103.477 C 187.951 104.315, 188.841 105, 189.607 105 C 190.373 105, 191.014 105.563, 191.030 106.250 C 191.047 106.938, 191.523 106.706, 192.088 105.736 C 193.005 104.161, 193.277 104.134, 194.629 105.486 C 196.572 107.429, 198.105 107.437, 197.362 105.500 C 196.613 103.550, 197.728 103.585, 199.717 105.574 C 200.894 106.751, 201.478 106.845, 202.034 105.946 C 202.442 105.285, 203.277 105.053, 203.888 105.431 C 204.536 105.831, 205 105.416, 205 104.437 C 205 103.078, 205.279 102.987, 206.456 103.964 C 207.257 104.628, 208.382 104.882, 208.956 104.527 C 209.530 104.172, 210 104.374, 210 104.976 C 210 105.760, 210.566 105.767, 212 105 C 213.596 104.146, 214 104.240, 214 105.465 C 214 106.309, 214.477 107, 215.059 107 C 215.641 107, 215.840 106.550, 215.500 106 C 214.586 104.522, 216.249 104.786, 218.712 106.511 C 220.104 107.486, 221.094 107.657, 221.503 106.994 C 221.853 106.430, 222.572 106.236, 223.103 106.564 C 223.633 106.891, 226.380 107.374, 229.206 107.637 C 232.033 107.900, 235.055 108.486, 235.923 108.941 C 237.565 109.802, 243.758 110.974, 249.915 111.590 C 261.752 112.774, 264.741 113.320, 266.873 114.686 C 268.178 115.523, 268.939 115.711, 268.564 115.104 C 267.609 113.558, 269.131 113.785, 271.441 115.532 C 272.509 116.339, 273.859 116.993, 274.441 116.985 C 275.024 116.976, 274.825 116.533, 274 116 C 271.097 114.124, 274.540 115.032, 277.750 116.989 C 279.538 118.079, 281 118.516, 281 117.960 C 281 117.404, 282.462 117.719, 284.250 118.661 C 288.225 120.755, 299.594 121.190, 306.024 119.494 C 308.654 118.800, 311.486 118.636, 312.751 119.104 C 314.018 119.572, 315.189 119.504, 315.537 118.940 C 315.868 118.405, 316.526 118.207, 317 118.500 C 317.474 118.793, 318.132 118.595, 318.463 118.060 C 318.794 117.525, 319.725 117.341, 320.532 117.651 C 321.339 117.960, 322 117.730, 322 117.138 C 322 116.547, 322.675 116.322, 323.500 116.638 C 324.326 116.955, 325 116.668, 325 116 C 325 115.332, 325.674 115.045, 326.500 115.362 C 327.325 115.678, 328 115.501, 328 114.969 C 328 114.436, 328.421 114, 328.935 114 C 329.449 114, 331.137 113.475, 332.685 112.834 C 334.233 112.192, 335.861 111.630, 336.303 111.584 C 336.745 111.538, 338.292 110.375, 339.742 109 C 341.191 107.625, 341.993 107.139, 341.524 107.920 C 340.860 109.026, 341.095 109.171, 342.586 108.577 C 343.639 108.158, 345.625 107.688, 347 107.533 C 348.375 107.379, 354.071 105.637, 359.658 103.663 C 365.245 101.690, 371.320 99.920, 373.158 99.730 C 377.558 99.276, 379.554 98.004, 380.258 95.209 C 380.890 92.697, 380.273 92.735, 373.337 95.633 C 369.818 97.103, 368.778 98.286, 371.750 97.438 C 375.780 96.287, 369.059 98.945, 363.091 100.862 C 359.565 101.994, 356.283 102.675, 355.797 102.374 C 355.310 102.074, 354.297 102.338, 353.545 102.962 C 352.604 103.744, 351.976 103.770, 351.529 103.047 C 351.172 102.469, 351.919 101.604, 353.190 101.124 C 359.976 98.563, 380.085 92.016, 380.739 92.155 C 382.399 92.509, 385 90.696, 385 89.185 C 385 88.305, 386.666 85.878, 388.703 83.792 C 393.272 79.113, 391.763 78.822, 381.425 82.391 C 370.250 86.249, 365.479 88.586, 350.263 97.658 C 327.318 111.338, 313.565 116.306, 299.931 115.837 C 291.996 115.565, 292.002 115.568, 295.950 113.526 C 299.746 111.563, 301.065 111.620, 298.500 113.635 C 296.197 115.445, 299.935 114.754, 303 112.804 C 304.213 112.032, 304.158 111.956, 302.712 112.408 C 301.656 112.738, 300.696 112.372, 300.367 111.514 C 299.909 110.319, 298.928 110.510, 294.824 112.589 C 292.082 113.979, 289.087 114.933, 288.169 114.709 C 287.102 114.449, 288.482 113.368, 292 111.709 C 295.025 110.282, 296.698 109.089, 295.717 109.058 C 294.736 109.026, 291.663 110.151, 288.888 111.557 C 286.112 112.963, 283.315 113.934, 282.671 113.715 C 282.027 113.495, 283.428 112.327, 285.785 111.120 C 289.822 109.051, 290.646 107, 287.441 107 C 286.648 107, 286 106.662, 286 106.250 C 286 105.838, 284.875 105.388, 283.500 105.250 C 282.125 105.112, 279.875 104.888, 278.500 104.750 C 277.125 104.612, 276 104.193, 276 103.817 C 276 103.442, 274.988 102.826, 273.750 102.448 C 272.512 102.071, 269.532 100.879, 267.127 99.800 C 261.666 97.350, 259.207 96.856, 258.462 98.061 C 258.143 98.578, 257.225 99, 256.421 99 C 255.618 99, 253.178 100.125, 251 101.500 C 248.822 102.875, 246.243 103.995, 245.270 103.989 C 244.296 103.982, 246.339 102.397, 249.808 100.466 C 253.278 98.534, 256.541 97.216, 257.058 97.536 C 257.576 97.856, 258 97.663, 258 97.106 C 258 95.526, 248.919 91.900, 246.587 92.550 C 245.130 92.956, 244.901 92.852, 245.829 92.208 C 246.822 91.518, 246.125 90.746, 243.079 89.158 C 240.836 87.989, 239 87.385, 239 87.817 C 239 88.248, 237.088 89.598, 234.750 90.817 C 232.412 92.035, 228.027 94.558, 225.003 96.423 C 221.980 98.287, 219.107 99.566, 218.617 99.264 C 217.346 98.478, 221.312 95.654, 230.326 90.925 C 234.631 88.667, 237.937 86.604, 237.673 86.340 C 237.010 85.677, 229.814 89.417, 221.719 94.632 C 217.989 97.034, 214.447 99, 213.846 99 C 211.481 99, 215.750 95.614, 225.032 90.125 L 234.677 84.423 229.895 79.084 L 225.112 73.744 220.542 76.422 C 218.029 77.896, 215.459 78.784, 214.831 78.396 C 214.159 77.980, 213.964 78.133, 214.357 78.769 C 214.724 79.362, 213.556 80.885, 211.762 82.155 C 209.968 83.424, 205.256 87.283, 201.292 90.731 C 194.910 96.282, 190.834 98.486, 191.084 96.250 C 191.263 94.650, 205.518 82.782, 214.285 76.934 C 219.353 73.553, 223.642 70.656, 223.815 70.495 C 223.988 70.335, 223.013 70.270, 221.649 70.352 C 220.285 70.433, 219.354 70.686, 219.580 70.913 C 219.807 71.140, 217.182 73.213, 213.746 75.520 C 210.311 77.827, 203.350 83.378, 198.279 87.857 C 186.383 98.361, 182.381 98.824, 193.500 88.410 C 202.881 79.623, 217.920 69, 220.979 69 C 222.155 69, 222.840 68.550, 222.500 68 C 221.682 66.677, 221.136 66.761, 216.947 68.857 M 302.539 140.794 C 302.378 140.956, 300.953 141.336, 299.373 141.639 C 296.079 142.271, 295.507 142.407, 291.750 143.452 C 288.837 144.262, 288.250 145.418, 290.155 146.595 C 290.842 147.020, 291.039 146.872, 290.641 146.228 C 289.686 144.683, 299.998 142.729, 304.685 143.567 C 311.377 144.764, 322.488 150.545, 339.110 161.481 C 357.353 173.482, 366.543 178.373, 379.330 182.884 C 390.675 186.888, 390.999 186.793, 386.768 180.710 C 382.706 174.869, 380.826 173.132, 379.144 173.667 C 377.775 174.101, 377.742 174.017, 378.950 173.162 C 380.186 172.286, 380.040 171.410, 377.950 167.192 L 375.500 162.249 365.500 159.464 C 360 157.932, 354.825 156.460, 354 156.192 C 352.994 155.866, 352.829 156.039, 353.500 156.719 C 354.050 157.276, 357.585 158.547, 361.356 159.543 C 365.126 160.539, 368.741 161.884, 369.388 162.531 C 370.036 163.179, 371.901 164.431, 373.533 165.314 C 379.556 168.574, 371.974 167.139, 358.589 162.487 C 344.149 157.469, 343.833 157.401, 344.638 159.500 C 345.339 161.327, 344.596 161.429, 342.821 159.750 C 338.973 156.109, 315 142.210, 315 143.619 C 315 143.857, 313.538 143.271, 311.750 142.318 C 308.939 140.818, 303.427 139.906, 302.539 140.794" stroke="none" fill="#1a1a2e" fill-rule="evenodd"/>
</svg>