<svg xmlns="http://www.w3.org/2000/svg" width="400" height="291" viewBox="0 0 400 291" version="1.1">
	<path d="M 0 21 L 0 42 5.428 42 C 8.413 42, 14.150 41.576, 18.178 41.057 C 29.723 39.570, 43 38.994, 43 39.979 C 43 40.472, 42.213 40.859, 41.250 40.838 C 40.288 40.817, 34.100 41.941, 27.500 43.335 C 20.900 44.729, 12.013 46.176, 7.750 46.552 L 0 47.235 0 62.117 C 0 71.925, 0.361 77, 1.059 77 C 1.641 77, 1.854 77.427, 1.531 77.949 C 1.004 78.802, 2.508 79.200, 11 80.453 C 12.375 80.655, 16.550 80.499, 20.278 80.106 C 28.320 79.257, 29.127 79.648, 24.477 82.140 C 19.922 84.582, 6 84.853, 6 82.500 C 6 80.540, 3.563 80.580, 1.571 82.571 C 0.354 83.789, 0 86.379, 0 94.071 L 0 104 8.250 104.032 C 15.378 104.059, 16.259 104.247, 14.727 105.409 C 13.037 106.691, 13.041 106.778, 14.821 107.243 C 17.553 107.957, 25.445 107.018, 25.833 105.932 C 26.017 105.419, 27.226 105, 28.521 105 C 29.816 105, 33.716 104.355, 37.188 103.566 C 47.334 101.261, 57.466 101.232, 50.500 103.528 L 46.500 104.846 52 105.074 C 60.051 105.407, 62.704 105.105, 70.797 102.936 C 76.813 101.324, 78.481 101.199, 80.297 102.223 C 82.311 103.359, 82.041 103.513, 77.142 104.021 C 74.066 104.339, 71.297 105.225, 70.642 106.100 C 70.014 106.938, 68.825 107.951, 68 108.351 C 59.861 112.297, 62.715 112.917, 80.461 111.058 C 89.343 110.128, 91.299 110.479, 90.544 112.868 C 90.153 114.107, 90.726 114.525, 92.926 114.602 C 94.976 114.674, 95.672 114.308, 95.305 113.352 C 95.019 112.608, 94.432 112, 94 112 C 93.568 112, 92.955 111.325, 92.638 110.500 C 91.905 108.589, 93.419 108.562, 95.310 110.452 C 96.108 111.251, 96.984 111.683, 97.255 111.412 C 97.526 111.141, 99.492 111.933, 101.624 113.173 C 104.756 114.994, 105.225 115.084, 104.067 113.640 C 103.279 112.658, 100.817 110.927, 98.598 109.795 C 87.056 103.907, 81.130 97.516, 91.440 102.077 C 94.797 103.561, 97.326 103.999, 100.317 103.612 C 103.424 103.210, 103.857 103.293, 102 103.936 C 100.625 104.411, 100.089 104.845, 100.809 104.900 C 101.529 104.955, 101.883 105.380, 101.597 105.844 C 100.818 107.103, 107.634 108.966, 108.790 107.810 C 109.394 107.206, 110.568 107.891, 111.995 109.679 C 116.629 115.482, 110.241 100.653, 105.320 94.184 C 102.495 90.470, 102.920 88.712, 105.975 91.477 C 107.542 92.896, 108.265 93.025, 109.392 92.089 C 110.367 91.280, 111.028 91.236, 111.470 91.951 C 111.826 92.528, 112.922 93, 113.904 93 C 114.886 93, 116.505 93.900, 117.500 95 C 118.495 96.100, 120.365 97, 121.655 97 C 123.086 97, 124 97.592, 124 98.519 C 124 99.574, 123.312 99.887, 121.750 99.545 C 117.865 98.693, 114.377 104.213, 115.690 109.134 C 117.077 114.330, 109.539 115.918, 106.538 111.062 C 106.177 110.478, 105.121 110.008, 104.191 110.017 C 103.085 110.028, 103.615 110.748, 105.722 112.097 C 110.725 115.301, 119.490 126.959, 118.363 128.909 C 116.968 131.320, 117.872 134.733, 120.056 135.304 C 121.125 135.584, 122 136.291, 122 136.875 C 122 137.459, 121.325 137.678, 120.500 137.362 C 117.731 136.299, 118.966 138.781, 122.250 140.878 C 124.037 142.020, 126.400 143.527, 127.500 144.227 C 130.439 146.097, 138.076 152.997, 137.228 153.015 C 136.827 153.024, 137.120 153.423, 137.878 153.904 C 138.636 154.384, 138.970 155.240, 138.620 155.806 C 138.267 156.377, 135.429 154.156, 132.242 150.814 L 126.500 144.794 121.250 145.229 C 118.341 145.470, 116 145.247, 116 144.727 C 116 144.208, 114.104 144.027, 111.750 144.320 C 109.413 144.612, 104.800 145.063, 101.500 145.322 C 89.802 146.242, 80.194 149.753, 80.032 153.168 C 80.014 153.536, 83.713 153.782, 88.250 153.716 C 92.787 153.649, 101.563 153.917, 107.750 154.310 C 115.151 154.781, 119 154.680, 119 154.013 C 119 153.456, 118.475 153, 117.833 153 C 117.192 153, 116.956 152.711, 117.309 152.357 C 118.053 151.613, 121 153.821, 121 155.122 C 121 155.605, 119.705 156, 118.122 156 C 116.539 156, 113.644 156.668, 111.689 157.485 C 107.923 159.059, 91.526 158.588, 58.500 155.960 C 46.086 154.972, 33.440 155.157, 26 156.437 C 24.625 156.674, 20.350 157.103, 16.500 157.391 C 12.650 157.680, 7.362 158.221, 4.750 158.594 L 0 159.272 0 167.436 C 0 172.452, 0.463 176.063, 1.200 176.800 C 2.133 177.733, 2.133 178, 1.200 178 C 0.540 178, -0 178.512, -0 179.138 C -0 180.558, 34.994 179.354, 38.922 177.799 C 47.001 174.600, 70.354 172.186, 66 175 C 65.175 175.533, 63.318 175.976, 61.872 175.985 C 60.427 175.993, 58.685 176.675, 58 177.500 C 57.315 178.325, 55.685 179, 54.378 179 C 53.070 179, 52 179.450, 52 180 C 52 180.550, 50.763 181.032, 49.250 181.070 C 47.737 181.109, 45.600 181.562, 44.500 182.076 C 43.094 182.734, 44.132 182.869, 48 182.531 C 53.381 182.059, 69.585 181.446, 101.306 180.514 C 109.999 180.258, 117.537 179.786, 118.056 179.465 C 118.575 179.145, 119 179.297, 119 179.804 C 119 180.312, 120.013 180.673, 121.250 180.608 C 122.982 180.516, 123.428 179.972, 123.187 178.244 C 123.015 177.010, 123.353 176, 123.937 176 C 124.522 176, 125 177.089, 125 178.419 C 125 180.986, 113.833 190.948, 113.165 188.977 C 112.980 188.433, 112.530 188.169, 112.165 188.390 C 110.803 189.215, 65.172 190.211, 60.185 189.525 C 52.681 188.493, 53.823 187.022, 62.250 186.864 L 69.500 186.728 62 185.921 C 57.875 185.477, 45.050 184.976, 33.500 184.807 C 21.950 184.638, 12.233 184.137, 11.906 183.694 C 11.580 183.251, 8.767 182.625, 5.656 182.304 L 0 181.720 0 210.774 L 0 239.828 5.236 237.914 C 11.705 235.549, 11.718 235.550, 9.486 238.015 C 8.483 239.123, 5.963 240.302, 3.885 240.634 L 0.108 241.238 0.064 255.007 L 0.020 268.776 4.684 269.475 L 9.349 270.175 6.425 271.484 C 4.816 272.204, 2.712 273.051, 1.750 273.365 C 0.265 273.851, -0 275.228, -0 282.469 L 0 291 90.393 291 C 171.449 291, 180.848 290.839, 181.386 289.437 C 181.716 288.577, 182.446 288.158, 183.009 288.506 C 183.572 288.854, 183.774 289.557, 183.457 290.069 C 183.119 290.616, 186.436 291, 191.500 291 C 198.104 291, 199.953 290.708, 199.412 289.750 C 198.848 288.750, 198.976 288.750, 200.053 289.750 C 202.270 291.807, 381.708 291.558, 380 289.500 C 378.350 287.512, 380.370 287.512, 382.357 289.500 C 383.438 290.581, 385.764 290.951, 390.679 290.825 C 395.379 290.705, 396.203 290.533, 393.328 290.272 C 389.170 289.894, 384.843 287, 388.437 287 C 389.374 287, 389.826 286.527, 389.458 285.933 C 389.096 285.346, 389.713 284.626, 390.830 284.334 C 391.971 284.036, 392.643 283.233, 392.363 282.503 C 391.750 280.906, 393.618 279.573, 394.490 280.984 C 394.835 281.543, 396.216 282, 397.559 282 C 400.018 282, 400.960 284.289, 399 285.500 C 397.511 286.420, 397.741 291.253, 399.250 290.750 C 400.201 290.434, 400.537 284.251, 400.653 264.917 C 400.739 250.608, 400.442 240.374, 399.973 241.500 C 399.264 243.204, 399.130 243.241, 399.070 241.750 C 399.032 240.787, 398.550 240, 398 240 C 397.450 240, 397 239.498, 397 238.883 C 397 238.259, 397.882 237.997, 399 238.290 C 400.969 238.805, 400.997 238.362, 400.827 209.656 C 400.731 193.363, 400.366 183.368, 400 187 C 399.640 190.575, 399.268 192.938, 399.173 192.250 C 399.063 191.453, 397.308 191, 394.333 191 C 389.296 191, 389.292 190.162, 394.322 188.363 C 401.539 185.782, 393.732 185.581, 382.531 188.059 C 373.339 190.093, 368.713 190.507, 354.789 190.545 C 345.597 190.569, 337.850 190.817, 337.572 191.095 C 337.294 191.373, 338.657 191.600, 340.601 191.600 C 342.544 191.600, 344.442 192.060, 344.817 192.623 C 345.193 193.186, 346.316 193.947, 347.313 194.316 C 348.311 194.684, 348.848 195.437, 348.507 195.989 C 348.112 196.628, 346.837 196.450, 345 195.500 C 340.943 193.402, 340.536 195.060, 343.952 199.775 C 345.555 201.988, 346.597 204.070, 346.267 204.400 C 345.937 204.730, 346.642 205, 347.833 205 C 349.157 205, 350 204.375, 350 203.393 C 350 202.338, 350.544 201.995, 351.582 202.393 C 352.452 202.727, 353.802 203, 354.582 203 C 355.362 203, 356 203.675, 356 204.500 C 356 205.325, 356.450 206, 357 206 C 357.550 206, 358 205.523, 358 204.941 C 358 204.359, 358.437 204.152, 358.971 204.482 C 360.193 205.237, 383.843 201.246, 386.372 199.858 C 388.611 198.630, 396.987 196.026, 398.750 196.011 C 399.579 196.004, 400 197.627, 400 200.828 L 400 205.657 394.924 206.828 C 388.507 208.310, 386.687 208.316, 387.590 206.854 C 388.976 204.612, 365.461 208.559, 362.407 211.081 C 361.701 211.665, 359.837 210.619, 357.135 208.124 C 354.835 206.002, 352.682 204.706, 352.349 205.244 C 352.016 205.783, 352.364 206.660, 353.122 207.193 C 354.073 207.861, 353.578 207.958, 351.527 207.506 C 348.656 206.873, 348.613 206.915, 350.277 208.754 C 351.225 209.801, 352 211.211, 352 211.888 C 352 212.564, 352.446 212.842, 352.992 212.505 C 353.538 212.168, 354.775 212.352, 355.742 212.915 C 356.904 213.592, 357.040 213.949, 356.143 213.970 C 355.310 213.988, 355.025 214.622, 355.404 215.610 C 356.269 217.866, 344.786 207.277, 343.218 204.374 C 342.513 203.068, 341.533 202, 341.039 202 C 339.878 202, 337 199.122, 337 197.960 C 337 197.467, 337.675 197.322, 338.500 197.638 C 340.456 198.389, 340.413 197.270, 338.409 195.266 C 337.079 193.936, 336.679 193.902, 335.964 195.059 C 335.493 195.820, 334.967 196.230, 334.794 195.971 C 334.620 195.712, 333.583 194.375, 332.489 193 L 330.500 190.500 332.579 192.250 C 335.070 194.347, 336 194.459, 336 192.661 C 336 191.924, 334.884 190.812, 333.520 190.191 C 331.901 189.453, 331.243 188.529, 331.627 187.530 C 332.059 186.403, 331.543 186, 329.666 186 C 328.265 186, 326.835 185.543, 326.490 184.984 C 326.144 184.425, 325.375 184.268, 324.779 184.636 C 324.184 185.004, 323.202 184.653, 322.598 183.856 C 321.994 183.059, 319.925 181.778, 318 181.009 C 316.075 180.239, 313.764 178.789, 312.865 177.785 C 311.459 176.215, 311.148 176.172, 310.646 177.479 C 310.325 178.316, 309.122 179, 307.972 179 C 306.823 179, 306.160 178.550, 306.500 178 C 306.840 177.450, 306.505 177, 305.755 177 C 302.917 177, 293.599 164.943, 294.320 162.203 C 294.714 160.704, 294.782 160.696, 294.884 162.135 C 295.041 164.342, 299.909 167.491, 301.187 166.213 C 301.819 165.581, 301.116 164.776, 299.187 163.923 C 297.462 163.159, 296.422 162.063, 296.711 161.312 C 296.984 160.600, 296.392 159.704, 295.395 159.321 C 294.398 158.939, 292.565 157.472, 291.323 156.063 C 289.410 153.894, 289.058 153.778, 289.032 155.309 C 289.014 156.304, 288.548 156.839, 287.996 156.498 C 287.444 156.157, 287.285 154.713, 287.642 153.290 C 288.089 151.510, 287.943 150.917, 287.175 151.392 C 286.505 151.806, 285.802 151.060, 285.417 149.525 C 285.064 148.119, 283.701 146.123, 282.388 145.090 C 278.762 142.238, 279.503 141.824, 284.750 143.769 C 289.563 145.553, 294 145.630, 294 143.930 C 294 143.419, 294.450 143, 295 143 C 295.550 143, 296 143.675, 296 144.500 C 296 145.333, 296.889 146, 298 146 C 299.100 146, 300 146.450, 300 147 C 300 147.550, 299.373 148, 298.607 148 C 296.131 148, 295.905 151.172, 298.061 155.627 C 299.925 159.477, 300.337 159.805, 301.655 158.488 C 302.473 157.670, 303.561 157, 304.071 157 C 304.582 157, 305 156.612, 305 156.139 C 305 155.665, 303.830 155.501, 302.401 155.774 C 295.800 157.036, 300.581 152.664, 309.500 149.282 C 324.519 143.587, 329.593 142.347, 322.485 146.109 C 320.293 147.269, 317.825 148.770, 317 149.444 C 316.175 150.119, 314.021 151.256, 312.212 151.972 C 308.161 153.576, 308.532 155.391, 313 155.826 C 316.361 156.154, 320.636 154.556, 322.500 152.277 C 323.050 151.604, 326.425 150.341, 330 149.471 C 333.575 148.601, 337.792 147.387, 339.371 146.773 C 340.949 146.160, 344.099 145.577, 346.371 145.478 C 350.458 145.301, 363.309 142.280, 372 139.453 C 374.475 138.649, 377.625 137.958, 379 137.918 C 380.375 137.879, 383.300 137.218, 385.500 136.450 C 392.117 134.141, 374.199 135.643, 365.050 138.164 C 360.186 139.504, 356.149 140.018, 353.422 139.644 C 351.124 139.329, 346.521 139.510, 343.191 140.047 C 330.214 142.136, 317.741 141.949, 319.740 139.695 C 321.459 137.756, 321.430 137.724, 318.500 138.350 C 316.850 138.702, 312.502 139.280, 308.838 139.633 L 302.175 140.275 297.429 135.791 C 293.837 132.397, 293.147 131.313, 294.592 131.332 C 305.557 131.474, 312.162 130.078, 309.303 128.224 C 307.321 126.938, 309.252 125.522, 313.500 125.146 C 315.700 124.951, 317.730 124.423, 318.011 123.973 C 318.943 122.481, 332.015 120, 338.941 120 C 342.690 120, 350.875 119.105, 357.129 118.010 C 371.092 115.567, 371.476 115.568, 366.500 118.036 L 362.500 120.020 367.500 119.585 C 370.250 119.346, 374.530 118.460, 377.010 117.617 C 381.559 116.070, 385.177 115.736, 394.712 115.981 L 399.924 116.115 400.256 124.808 L 400.589 133.500 400.779 124 C 400.884 118.775, 400.578 113.882, 400.099 113.126 C 399.259 111.800, 372.961 112.720, 356.622 114.646 C 353.179 115.053, 351.947 114.895, 352.431 114.111 C 353.304 112.700, 350.575 112.673, 345.993 114.049 C 344.072 114.626, 340.250 115.517, 337.500 116.030 C 334.750 116.543, 328 117.870, 322.500 118.978 C 317 120.086, 312.355 120.995, 312.179 120.997 C 311.147 121.007, 314.945 118.152, 316.706 117.593 C 320.623 116.350, 321.696 113.940, 317.841 115.046 C 316.011 115.570, 312.598 116, 310.257 116 C 307.915 116, 306 116.443, 306 116.985 C 306 118.313, 293.719 117.031, 292.792 115.606 C 292.323 114.886, 291.748 114.853, 291.094 115.508 C 290.511 116.092, 286.556 116.294, 281.477 116 C 276.732 115.725, 272.225 115.851, 271.460 116.280 C 270.695 116.709, 269.266 116.646, 268.285 116.140 C 267.303 115.634, 264.593 114.383, 262.261 113.360 C 259.930 112.337, 258.018 111.162, 258.011 110.750 C 257.993 109.522, 259.905 109.892, 262.555 111.628 C 264.847 113.130, 265.369 113.131, 269.276 111.639 C 271.606 110.749, 274.634 110.287, 276.006 110.612 C 286.244 113.036, 291 112.194, 291 107.955 C 291 105.402, 290.626 104.998, 288.250 104.985 C 285.084 104.967, 282.317 103.540, 283.742 102.659 C 285.241 101.733, 292.148 102.622, 292.900 103.838 C 293.375 104.607, 294.395 104.508, 296.330 103.504 C 297.845 102.718, 300.753 101.774, 302.792 101.407 C 304.832 101.040, 307.132 100.235, 307.904 99.620 C 308.676 99.004, 309.386 98.725, 309.482 99 C 309.578 99.275, 311.196 98.761, 313.078 97.858 C 317.774 95.604, 325.961 93.578, 344.734 90.024 C 350.913 88.855, 357.170 87.274, 358.640 86.512 C 360.109 85.750, 364.157 84.821, 367.634 84.449 C 376.252 83.526, 380.362 80.354, 373.244 80.119 C 370.635 80.032, 363.990 79.718, 358.477 79.419 C 352.568 79.100, 347.335 79.302, 345.727 79.914 C 342.246 81.237, 342.093 84, 345.500 84 C 346.875 84, 348 83.550, 348 83 C 348 82.450, 349.377 82, 351.059 82 C 352.751 82, 353.854 82.427, 353.527 82.956 C 353.202 83.482, 352.163 83.623, 351.218 83.269 C 349.732 82.713, 349.681 82.848, 350.838 84.272 C 352.309 86.080, 351.903 86.255, 343.500 87.436 C 341.300 87.746, 338.488 88.277, 337.250 88.616 C 335.892 88.989, 335 88.791, 335 88.117 C 335 87.502, 335.750 87, 336.667 87 C 337.583 87, 338.100 86.767, 337.816 86.482 C 337.531 86.198, 333.969 86.453, 329.899 87.050 C 316.716 88.983, 308.864 89.003, 309.467 87.102 C 309.931 85.643, 308.810 85.509, 298.979 85.845 C 292.434 86.069, 287.472 85.811, 286.736 85.208 C 285.144 83.903, 279.689 84.186, 277.891 85.667 C 277.126 86.297, 274.250 87.118, 271.500 87.490 C 268.750 87.863, 265.684 88.395, 264.686 88.672 C 263.395 89.030, 262.963 88.698, 263.186 87.520 C 263.449 86.136, 262.436 85.826, 257 85.630 C 248.900 85.337, 247.317 85.763, 249.721 87.586 C 251.269 88.761, 250.590 88.939, 244.500 88.953 C 240.650 88.962, 238.056 88.616, 238.735 88.185 C 239.415 87.753, 234.015 87.605, 226.735 87.855 C 201.950 88.708, 195.075 87.741, 206.480 85.005 C 209.530 84.273, 212.525 83.073, 213.135 82.337 C 213.745 81.602, 215.202 80.986, 216.372 80.968 C 217.543 80.951, 219.399 80.257, 220.497 79.427 C 222.512 77.905, 209.405 78.014, 206.935 79.540 C 206.444 79.844, 205.024 79.548, 203.780 78.882 C 201.551 77.690, 201.569 77.653, 205.009 76.357 C 208.148 75.175, 207.289 75.078, 196.500 75.399 C 184.366 75.759, 174.758 74.411, 179.926 73.073 C 184.106 71.991, 183.613 70, 179.165 70 C 176.964 70, 174.452 69.727, 173.582 69.393 C 172.601 69.017, 172 69.321, 172 70.193 C 172 72.879, 146.553 76.644, 123.194 77.414 C 105.911 77.983, 103.522 78.446, 106.526 80.642 C 107.531 81.378, 108.025 82.308, 107.623 82.711 C 107.220 83.113, 106.578 82.953, 106.196 82.355 C 105.813 81.758, 103.575 80.293, 101.222 79.100 C 98.869 77.907, 94.035 74.980, 90.480 72.595 L 84.015 68.260 92.825 67.130 C 101.615 66.003, 119.775 65.558, 118.840 66.493 C 118.569 66.764, 113.657 67.443, 107.924 68.002 C 88.516 69.894, 81.534 72.853, 99.367 71.629 C 105.043 71.240, 106.745 71.358, 105 72.020 C 103.039 72.764, 103.471 72.853, 107 72.433 C 109.475 72.139, 111.928 71.471, 112.450 70.949 C 112.973 70.427, 114.345 70, 115.500 70 C 116.655 70, 118.027 69.604, 118.550 69.120 C 124.131 63.947, 190.377 62.391, 192.569 67.380 C 193.738 70.043, 196.565 70.391, 209.750 69.500 C 218.741 68.893, 223.520 67.026, 216.191 66.985 C 209.348 66.946, 211.438 65.232, 218.852 64.802 C 223.272 64.547, 227.533 63.802, 228.321 63.149 C 230.107 61.667, 264.686 60.683, 265.556 62.090 C 265.876 62.608, 266.621 62.734, 267.211 62.370 C 267.801 62.005, 274.333 61.801, 281.727 61.915 C 294.229 62.110, 295.146 61.997, 294.820 60.312 C 294.479 58.546, 277.227 57.718, 264 58.834 C 260.425 59.136, 245.495 58.143, 243.267 57.456 C 242.589 57.247, 242.299 56.384, 242.624 55.538 C 243.294 53.791, 258 53.224, 258 54.945 C 258 55.504, 266.275 55.930, 278.250 55.989 C 289.387 56.044, 303.225 56.127, 309 56.175 C 314.775 56.222, 321.750 55.976, 324.500 55.627 C 327.250 55.279, 328.825 55.260, 328 55.586 C 327.175 55.912, 324.925 56.914, 323 57.812 L 319.500 59.444 324.500 60.135 C 332.544 61.245, 336.984 61.095, 340.349 59.599 C 346.281 56.961, 350.302 56, 355.899 55.882 C 360.724 55.780, 361.084 55.648, 358.500 54.931 C 355.521 54.104, 355.524 54.101, 359 54.389 C 360.925 54.549, 362.950 54.805, 363.500 54.958 C 366.815 55.881, 381.301 54.901, 380.226 53.826 C 378.387 51.987, 357.437 51.394, 355.346 53.122 C 354.429 53.880, 351.838 54.525, 349.589 54.557 C 347.340 54.588, 344.245 54.978, 342.711 55.425 C 340.578 56.045, 339.989 55.914, 340.211 54.868 C 340.418 53.889, 338.935 53.346, 335 52.958 C 322.258 51.701, 336.266 50.500, 363.655 50.500 C 379.140 50.500, 391.601 50.163, 391.346 49.750 C 391.091 49.338, 389.671 48.993, 388.191 48.985 C 386.336 48.974, 385.915 48.707, 386.834 48.124 C 388.517 47.057, 385.777 45.765, 383.601 46.600 C 382.832 46.895, 381.905 46.656, 381.542 46.068 C 381.097 45.348, 383.265 44.995, 388.191 44.985 C 393.072 44.974, 395.013 44.661, 394.034 44.042 C 392.508 43.077, 384.792 43.425, 372 45.035 C 367.875 45.555, 359.775 46.204, 354 46.478 C 348.225 46.753, 340.688 47.260, 337.250 47.605 C 333.332 47.999, 331 47.860, 331 47.233 C 331 45.959, 334.448 45.031, 339.250 45.014 C 341.341 45.006, 343 44.505, 343 43.881 C 343 42.617, 323.878 43.653, 323 44.964 C 322.237 46.104, 315 47.216, 315 46.193 C 315 44.462, 288.248 42.869, 284.132 44.355 C 282.327 45.007, 281.869 44.888, 282.209 43.855 C 282.457 43.101, 284.617 42.278, 287.078 42 C 290.265 41.640, 290.994 41.293, 289.687 40.757 C 286.139 39.304, 289.064 38.296, 298.715 37.647 C 312.657 36.710, 315.749 36.067, 316.291 33.994 C 316.716 32.368, 315.654 32.212, 303.377 32.095 C 294.897 32.014, 290 32.339, 290 32.983 C 290 34.143, 282.252 34.309, 273.045 33.347 C 267.888 32.808, 267.120 32.502, 268.648 31.597 C 270.756 30.349, 322.100 29.036, 321.347 30.250 C 320.794 31.141, 329.528 31.233, 332.750 30.370 C 336.709 29.309, 335.161 27.930, 330.250 28.143 C 327.637 28.256, 321.450 27.762, 316.500 27.046 C 309.545 26.039, 303.297 25.969, 289 26.739 C 278.825 27.287, 270.114 27.514, 269.643 27.243 C 268.239 26.435, 271.275 25.033, 274.500 25 C 276.150 24.983, 278.175 24.497, 279 23.920 C 280.716 22.720, 262.729 23.644, 258.007 24.998 C 253.579 26.268, 236.592 23.703, 240.500 22.355 C 243.250 21.406, 242.886 21.259, 236.123 20.587 C 226.361 19.617, 227.994 18.134, 240.115 16.962 C 245.277 16.463, 249.613 16.042, 249.750 16.027 C 253.096 15.665, 248.239 13.987, 243.750 13.955 C 237.800 13.912, 237.642 13.849, 240.463 12.646 C 244.752 10.817, 242.383 10.048, 236 11.198 C 228.341 12.578, 226.762 12.716, 216 12.941 C 209.152 13.085, 207.058 13.405, 208.500 14.089 C 210.055 14.827, 209.749 14.923, 207.125 14.519 C 205.269 14.234, 198.294 13.964, 191.625 13.921 C 179.483 13.842, 179.247 13.540, 189.416 11.099 C 193.098 10.215, 194.509 10.206, 195.039 11.063 C 195.528 11.854, 196.325 11.902, 197.623 11.218 C 198.655 10.675, 201.975 9.898, 205 9.491 C 208.025 9.084, 211.625 8.314, 213 7.780 C 214.375 7.245, 217.525 6.435, 220 5.978 C 224.058 5.229, 223.714 5.146, 216.500 5.132 C 207.869 5.115, 192.734 2.843, 197 2.205 C 198.375 1.999, 199.927 1.419, 200.450 0.915 C 202.388 -0.952, 171.045 -0.141, 161.613 1.920 C 148.935 4.690, 149.126 5.632, 162.250 5.052 C 167.955 4.800, 170.133 6.209, 165.794 7.344 C 162.493 8.207, 163.927 8.852, 169.734 9.117 C 175.063 9.360, 178.482 12, 173.469 12 C 170.113 12, 170.331 13.766, 173.750 14.284 C 175.962 14.619, 175.766 14.730, 172.750 14.850 C 170.688 14.933, 169 14.550, 169 14 C 169 13.374, 162.833 13, 152.500 13 C 138.817 13, 136 13.245, 136 14.438 C 136 15.259, 135.143 15.811, 134 15.725 C 132.900 15.642, 132 15.151, 132 14.634 C 132 14.060, 127.622 13.978, 120.750 14.424 C 114.563 14.825, 104.784 15.372, 99.020 15.640 C 83.197 16.374, 85.641 16.983, 105.083 17.150 C 114.662 17.232, 121.150 17.468, 119.500 17.674 C 113.949 18.367, 111.915 19.053, 112.518 20.029 C 112.848 20.563, 111.854 21.045, 110.309 21.100 C 108.764 21.155, 106.375 21.596, 105 22.080 C 102.311 23.027, 112.841 22.509, 118.583 21.411 C 120.981 20.953, 121.667 21.175, 121.667 22.411 C 121.667 23.285, 121.292 24, 120.833 24 C 117.950 24, 114.775 25.827, 115.531 27.050 C 115.854 27.573, 118.116 28, 120.559 28 C 123.164 28, 125 28.462, 125 29.117 C 125 29.899, 127.177 30.035, 132.250 29.568 C 136.238 29.201, 142.425 28.720, 146 28.499 C 155.558 27.907, 161.407 27, 163.048 25.854 C 164.059 25.148, 162.068 24.990, 156.500 25.334 C 152.100 25.605, 146.250 25.476, 143.500 25.047 C 140.750 24.618, 139.663 24.207, 141.083 24.134 C 144.374 23.963, 145.339 23, 143.624 21.599 C 142.517 20.694, 142.608 20.191, 144.140 18.750 C 145.203 17.750, 146 17.495, 146 18.155 C 146 18.880, 146.651 18.735, 147.750 17.766 C 149.202 16.485, 150.522 16.391, 155.500 17.211 C 158.800 17.755, 162.400 18.154, 163.500 18.097 C 177.692 17.363, 199.044 17.200, 197.500 17.838 C 196.400 18.292, 192.254 19.259, 188.286 19.986 C 177.938 21.881, 180.234 23.326, 192.370 22.555 C 201.339 21.986, 202.291 22.079, 200.680 23.367 C 198.424 25.172, 203.496 25.756, 230.500 26.803 C 245.075 27.367, 247.596 27.664, 243.750 28.364 C 237.430 29.513, 237.707 30.993, 244.250 31.030 C 248.496 31.055, 249.145 31.267, 247.643 32.140 C 246.400 32.862, 242.268 32.970, 235.143 32.467 C 222.206 31.553, 191.834 31.829, 186.977 32.905 C 185.039 33.334, 182.564 33.358, 181.477 32.957 C 179.657 32.287, 179.698 32.185, 182 31.671 C 192.482 29.332, 192.286 29.062, 180.500 29.606 C 173.900 29.910, 168.350 30.573, 168.167 31.080 C 167.690 32.394, 164.240 32.220, 163.786 30.858 C 163.501 30.004, 160.512 30.022, 151.953 30.927 C 137.294 32.478, 104.999 33.732, 104.999 32.750 C 105 32.337, 106.575 32, 108.500 32 C 110.425 32, 112 31.529, 112 30.954 C 112 30.277, 107.805 29.963, 100.080 30.063 C 93.524 30.148, 87.674 29.917, 87.080 29.550 C 86.444 29.156, 86 29.704, 86 30.882 C 86 33.437, 84.170 34.592, 82.663 32.988 C 81.777 32.045, 81.798 31.641, 82.750 31.292 C 83.438 31.040, 84 29.848, 84 28.644 C 84 27.164, 85.144 25.839, 87.529 24.554 C 91.227 22.563, 90.524 20.521, 86.500 21.565 C 85.004 21.953, 85.126 21.718, 86.985 20.631 L 89.469 19.179 85.699 18.471 C 83.626 18.082, 80.483 18.042, 78.715 18.381 C 76.266 18.850, 75.857 18.741, 77 17.920 C 78.337 16.960, 65.559 17.249, 51.500 18.498 C 46.903 18.906, 34.851 19.294, 31.583 19.138 C 26.762 18.910, 29.306 17.964, 36.117 17.454 C 46.384 16.685, 63.935 14.889, 71.500 13.834 C 75.350 13.297, 80.906 12.605, 83.846 12.297 C 87.343 11.930, 88.726 11.441, 87.846 10.884 C 85.838 9.611, 75.232 9.804, 74.793 11.121 C 74.547 11.860, 69.482 12.356, 59.960 12.573 C 51.350 12.770, 46.309 12.558, 47.500 12.047 C 48.600 11.576, 50.463 11.409, 51.641 11.676 C 52.818 11.943, 54.082 11.676, 54.450 11.081 C 54.817 10.486, 56.779 9.993, 58.809 9.985 C 64.199 9.962, 66.683 8.062, 61.500 7.925 L 57.500 7.820 61 6.724 C 65.915 5.186, 53.417 3.827, 40 4.441 C 30.263 4.886, 31.534 4.393, 45.500 2.305 C 51.767 1.368, 36.856 0.329, 14.250 0.127 L 0 0 0 21 M 252.500 1.046 C 255.250 1.474, 264.475 1.932, 273 2.062 L 288.500 2.300 276.323 3.400 C 269.625 4.005, 263.775 4.899, 263.323 5.387 C 262.273 6.519, 284.930 5.263, 291 3.853 C 296.502 2.574, 298.345 2.497, 313.500 2.902 L 325.500 3.223 318 4.765 C 313.875 5.613, 310.275 6.616, 310 6.994 C 309.725 7.372, 305.900 8.249, 301.500 8.943 C 297.100 9.637, 292.938 10.664, 292.250 11.225 C 291.345 11.964, 291 11.798, 291 10.622 C 291 9.611, 291.847 8.994, 293.250 8.985 C 294.488 8.976, 296.175 8.494, 297 7.913 C 298.074 7.157, 296.084 7.048, 290 7.532 C 285.325 7.903, 278.636 8.354, 275.137 8.533 C 271.637 8.712, 263.762 9.452, 257.637 10.178 L 246.500 11.496 252.500 12.145 C 255.800 12.502, 265.209 12.543, 273.408 12.236 C 289.469 11.635, 293.836 13.246, 278.917 14.268 C 270.477 14.847, 265.497 16.905, 272.050 17.106 C 273.947 17.164, 276.850 17.095, 278.500 16.951 C 280.150 16.808, 282.400 16.645, 283.500 16.589 C 284.600 16.533, 286.063 16.126, 286.750 15.684 C 288.625 14.481, 290.348 15.876, 288.997 17.504 C 288.110 18.573, 289.169 18.966, 294.462 19.533 C 298.073 19.920, 301.274 20.635, 301.575 21.122 C 301.877 21.609, 308.283 21.795, 315.811 21.534 C 323.340 21.273, 333.325 21.432, 338 21.886 L 346.500 22.713 340 22.914 C 316.270 23.649, 332.552 25.625, 369.500 26.494 C 376.650 26.662, 386.438 27.086, 391.250 27.436 L 400 28.072 400 24.536 C 400 21.667, 399.623 21, 398 21 C 396.900 21, 396 20.495, 396 19.878 C 396 19.068, 395.608 19.081, 394.595 19.921 C 392.943 21.292, 333.277 20.257, 332.402 18.842 C 331.925 18.069, 341.271 17.509, 346.862 17.976 C 348.454 18.108, 348.987 17.788, 348.495 16.993 C 347.969 16.141, 345.503 16.019, 339.633 16.555 C 324.883 17.900, 310.232 15.691, 320.094 13.608 C 326.866 12.178, 341.693 11.288, 351.165 11.743 C 366.549 12.481, 374.921 10.375, 363.772 8.571 C 357.775 7.601, 360.359 6.572, 372.789 4.982 C 379.735 4.094, 384.283 3.972, 386.789 4.607 C 392.134 5.961, 400 4.330, 400 1.867 C 400 0.059, 397.578 0.004, 323.750 0.134 C 281.813 0.207, 249.750 0.618, 252.500 1.046 M 95 37.125 C 92.525 37.628, 88.129 38.313, 85.232 38.646 C 79.244 39.333, 77.575 40.679, 81.709 41.487 C 95.039 44.091, 98.383 46, 89.614 46 C 81.249 46, 65.235 50.676, 72.250 51.070 C 72.938 51.109, 72.600 51.497, 71.500 51.932 C 69.055 52.899, 66.771 52.180, 67.670 50.725 C 68.088 50.048, 67.695 49.903, 66.592 50.326 C 65.637 50.693, 63.875 50.517, 62.678 49.936 C 61.130 49.185, 61.368 49.642, 63.500 51.517 C 65.150 52.968, 68.207 55.719, 70.294 57.631 C 74.654 61.626, 79.974 61.838, 76.386 57.874 C 75.418 56.805, 73.995 56.172, 73.223 56.468 C 72.451 56.764, 71.362 56.724, 70.803 56.378 C 69.311 55.456, 71.988 54.033, 75.250 54.015 C 78.070 54, 78.985 52.564, 76.750 51.662 C 76.063 51.385, 78.179 51.122, 81.454 51.079 C 84.729 51.036, 92.273 50.459, 98.220 49.798 C 106.184 48.912, 110.114 48.884, 113.138 49.691 C 116.835 50.678, 117.292 50.599, 117.738 48.893 C 118.197 47.138, 119.374 46.999, 133.867 46.986 C 142.465 46.979, 150.507 46.703, 151.739 46.373 C 155.034 45.489, 153.448 44.002, 149.191 43.985 C 146.523 43.974, 145.908 43.711, 146.971 43.039 C 149.507 41.436, 147.254 40.677, 140.599 40.892 C 131.521 41.186, 131.460 39.379, 140.519 38.530 C 150.259 37.618, 149.202 35.910, 139.198 36.397 C 134.964 36.603, 128.575 36.830, 125 36.901 C 120.402 36.993, 118.939 37.314, 120 38 C 121.038 38.671, 119.190 38.952, 114 38.914 C 108.892 38.877, 107.138 38.585, 108.500 38 C 110.141 37.295, 109.872 37.125, 107 37.057 C 105.075 37.010, 102.600 36.801, 101.500 36.591 C 100.400 36.381, 97.475 36.621, 95 37.125 M 189.750 36.703 C 185.488 36.913, 182 37.449, 182 37.895 C 182 39.300, 196.822 40.032, 212.452 39.399 C 222.028 39.012, 228.409 39.169, 230 39.832 C 231.996 40.663, 230.586 40.894, 223 40.976 C 210.357 41.112, 197.853 42.058, 196 43.017 C 193.810 44.151, 181.481 45.785, 165.507 47.058 C 147.077 48.526, 144.138 50.278, 161.500 49.447 C 168.650 49.105, 177.425 48.423, 181 47.932 C 190.088 46.684, 200.743 46.775, 201.566 48.107 C 202.057 48.901, 202.458 48.876, 202.988 48.020 C 203.456 47.262, 207.515 46.689, 214.113 46.451 C 220.841 46.208, 223.443 46.373, 221.500 46.920 C 219.850 47.384, 216.716 47.817, 214.536 47.882 C 211.125 47.983, 210.776 48.192, 212.036 49.377 C 213.271 50.539, 214.828 50.548, 222 49.432 C 231.874 47.895, 253.965 47.723, 265.500 49.092 C 269.900 49.614, 277.550 50.472, 282.500 50.998 C 287.450 51.523, 294.103 52.341, 297.283 52.814 C 304.090 53.827, 312.109 52.924, 308.147 51.591 C 306.853 51.156, 304.236 50.800, 302.331 50.800 C 297.612 50.800, 298.798 49.983, 305.716 48.470 C 312.215 47.049, 296.015 46.521, 257.500 46.899 C 238.791 47.083, 234.902 45.780, 250.414 44.525 C 274.074 42.610, 285.450 40.088, 270.684 40.030 C 266.386 40.014, 262.021 39.546, 260.985 38.992 C 259.949 38.437, 248.616 37.767, 235.800 37.502 C 222.985 37.237, 209.125 36.863, 205 36.671 C 200.875 36.479, 194.012 36.494, 189.750 36.703 M 330.500 64.020 C 325 64.405, 318.761 64.532, 316.636 64.302 C 312.193 63.820, 302.875 65.585, 301.949 67.083 C 301.605 67.640, 296.877 68.550, 291.444 69.106 C 286.010 69.662, 281.100 70.490, 280.532 70.945 C 279.964 71.401, 277.587 72.089, 275.250 72.475 C 271.993 73.012, 271 73.618, 271 75.070 C 271 76.677, 270.280 76.949, 266.250 76.863 C 263.637 76.808, 257.169 77.090, 251.877 77.491 C 240.038 78.386, 236.953 76.550, 248.481 75.470 C 260.821 74.313, 257.377 73.148, 237.284 71.681 C 234.415 71.471, 232.304 71.683, 232.593 72.150 C 232.882 72.618, 230.541 73, 227.392 73 C 220.496 73, 221.093 74.094, 228.825 75.622 C 232.317 76.312, 233.430 76.793, 231.719 76.872 C 230.189 76.942, 228.678 77.675, 228.362 78.500 C 228.045 79.325, 226.822 80.039, 225.643 80.086 C 223.911 80.155, 224.044 80.335, 226.335 81.022 C 227.894 81.490, 229.919 81.592, 230.835 81.249 C 232.301 80.700, 232.331 80.833, 231.089 82.359 C 229.327 84.525, 252.802 84.676, 258.933 82.539 C 260.895 81.855, 270.375 80.751, 280 80.085 C 304.506 78.389, 310.654 75.812, 293.296 74.510 L 283.591 73.783 287.546 72.406 C 292.284 70.757, 293.321 70.672, 292.500 72 C 291.667 73.348, 293.325 73.275, 294.697 71.903 C 296.382 70.218, 325.386 72.213, 328.591 74.234 C 330.352 75.344, 365.163 75.351, 365.872 74.241 C 366.850 72.711, 373.373 71.825, 387.250 71.337 C 404.395 70.734, 403.712 69, 386.329 69 C 375.738 69, 372.293 68.671, 371.042 67.538 C 369.709 66.331, 368.125 66.251, 361.963 67.076 C 348.358 68.899, 341 69.255, 341 68.089 C 341 67.490, 342.462 66.957, 344.250 66.904 C 346.038 66.851, 349.750 66.230, 352.500 65.523 L 357.500 64.238 350.332 64.119 C 346.389 64.053, 342.564 63.847, 341.832 63.659 C 341.099 63.472, 336 63.634, 330.500 64.020 M 71.892 67.058 C 74.802 69.482, 75.324 69.130, 64.859 71.797 C 55.024 74.304, 47.442 74.798, 54.500 72.472 C 59.972 70.669, 55.574 70.528, 47.417 72.246 L 41.500 73.492 46 74.039 L 50.500 74.587 46 75.638 C 42.533 76.448, 41.257 76.397, 40.441 75.414 C 39.737 74.568, 37.973 74.328, 35.191 74.701 C 29.159 75.510, 30.034 73.731, 36.750 71.530 C 42.801 69.548, 45.485 68, 42.871 68 C 42.031 68, 36.432 69.575, 30.429 71.500 C 24.426 73.425, 18.612 75.029, 17.508 75.063 C 15.792 75.118, 15.864 75.272, 18 76.126 C 19.375 76.675, 21.877 76.867, 23.559 76.553 C 25.242 76.238, 28.622 76.584, 31.070 77.320 C 33.517 78.057, 36.078 78.474, 36.760 78.247 C 37.442 78.019, 38 78.546, 38 79.417 C 38 80.287, 37.325 81, 36.500 81 C 35.675 81, 35 81.450, 35 82 C 35 82.550, 34.127 83, 33.059 83 C 31.991 83, 30.798 83.518, 30.406 84.152 C 29.270 85.990, 38.220 84.420, 39.594 82.540 C 40.382 81.463, 42.983 80.773, 47.630 80.409 C 52.903 79.996, 54.093 80.130, 52.750 80.985 C 51.788 81.598, 51 82.527, 51 83.050 C 51 84.545, 58.288 84.097, 60.441 82.468 C 62.819 80.670, 70.607 80.515, 71.417 82.250 C 71.883 83.249, 72.117 83.249, 72.583 82.252 C 72.913 81.545, 74.106 81.233, 75.333 81.533 C 76.525 81.824, 79.750 81.633, 82.500 81.109 C 86.593 80.330, 87.818 80.443, 89.250 81.733 C 90.245 82.629, 91 82.833, 91 82.204 C 91 81.021, 71.670 64.977, 70.311 65.033 C 69.865 65.052, 70.576 65.963, 71.892 67.058 M 127.667 100.667 C 127.300 101.033, 127 103.249, 127 105.590 C 127 108.710, 126.309 110.668, 124.413 112.921 C 122.088 115.684, 122.001 116.063, 123.557 116.660 C 124.644 117.077, 125.760 116.681, 126.552 115.597 C 127.247 114.647, 128.420 113.970, 129.158 114.093 C 129.896 114.215, 131.318 113.960, 132.317 113.525 C 133.385 113.061, 134.596 113.196, 135.254 113.854 C 136.079 114.679, 136.914 114.524, 138.436 113.263 C 139.571 112.322, 139.938 112.194, 139.250 112.977 C 138.563 113.759, 138 115.483, 138 116.807 C 138 118.525, 137.575 119.051, 136.515 118.644 C 135.268 118.166, 135.228 118.395, 136.265 120.071 C 137.256 121.673, 137.564 121.765, 137.823 120.534 C 138.001 119.690, 138.537 119, 139.014 119 C 140.798 119, 141.065 121.070, 139.558 123.221 C 137.367 126.349, 137.620 127.654, 140 125.500 C 141.107 124.498, 142 122.420, 142 120.845 C 142 119.280, 142.450 118, 143 118 C 144.296 118, 144.278 121.139, 142.961 124.602 C 142.180 126.658, 142.241 127.556, 143.211 128.233 C 144.056 128.821, 143.724 128.913, 142.250 128.498 C 139.177 127.634, 139.426 128.735, 143.098 132.244 C 145.416 134.459, 145.909 135.491, 145.056 136.344 C 144.204 137.196, 143.707 137.144, 143.083 136.135 C 142.571 135.305, 142.012 135.172, 141.631 135.788 C 141.290 136.340, 141.684 137.048, 142.506 137.364 C 143.328 137.679, 144 138.626, 144 139.469 C 144 140.466, 144.942 141, 146.700 141 C 148.716 141, 149.112 141.288, 148.264 142.136 C 147.415 142.985, 146.210 142.731, 143.507 141.136 C 139.127 138.553, 139.429 138.563, 139.429 141 C 139.429 142.296, 140.095 143, 141.321 143 C 142.449 143, 143.015 143.518, 142.723 144.280 C 142.400 145.122, 143.119 145.550, 144.820 145.530 C 146.480 145.511, 147.796 146.267, 148.490 147.638 C 152.919 156.386, 159 159.940, 159 153.780 C 159 153.354, 160.518 150.866, 162.374 148.252 C 166.908 141.867, 170.370 133.847, 168.967 132.980 C 167.702 132.198, 170.301 124.865, 173.173 121.115 C 175.171 118.507, 175.576 116, 174 116 C 173.450 116, 173 116.338, 173.001 116.750 C 173.002 117.648, 165.619 117.475, 161.750 116.486 C 158.414 115.633, 158.231 116.556, 161.250 119.004 C 162.488 120.007, 163.171 121.158, 162.770 121.561 C 162.368 121.964, 160.568 120.765, 158.770 118.897 C 154.896 114.873, 151.306 112.696, 150.552 113.916 C 150.255 114.397, 150.684 115.048, 151.506 115.364 C 152.328 115.679, 153 116.471, 153 117.124 C 153 117.777, 154.022 119.704, 155.270 121.406 C 157.174 124, 158.549 126.467, 160.719 131.181 C 160.892 131.555, 160.566 132.150, 159.995 132.503 C 159.418 132.860, 158.259 131.450, 157.381 129.322 C 155.104 123.806, 151.049 118.767, 149.398 119.401 C 148.629 119.696, 148 119.501, 148 118.969 C 148 118.436, 147.539 118.113, 146.975 118.250 C 144.106 118.950, 142.618 113.345, 144.844 110.220 C 146.030 108.554, 146.984 106.361, 146.965 105.346 C 146.934 103.756, 146.756 103.812, 145.679 105.750 C 144.486 107.899, 144.347 107.922, 142.595 106.250 C 141.251 104.968, 140.636 104.835, 140.297 105.750 C 139.478 107.957, 136.792 107.093, 133.303 103.500 C 129.863 99.958, 128.873 99.460, 127.667 100.667 M 1.001 125.671 L 1 135.841 3.989 136.497 C 7.788 137.332, 8.528 138.457, 5.400 138.644 C 0.254 138.953, 0 139.409, 0 148.335 L 0 156.733 7.250 156.327 C 19.389 155.648, 23 154.996, 23 153.484 C 23 152.647, 24.496 151.853, 26.750 151.494 C 34.483 150.264, 39.174 148.726, 37.818 147.866 C 36.819 147.233, 36.803 147.027, 37.750 147.015 C 38.438 147.007, 39 146.514, 39 145.921 C 39 145.247, 37.897 145.083, 36.065 145.486 C 34.451 145.840, 31.569 145.699, 29.659 145.172 C 27.387 144.544, 25.841 144.559, 25.187 145.213 C 24.577 145.823, 22.100 145.925, 18.843 145.475 C 12.403 144.585, 14.733 143.379, 22.750 143.452 C 25.637 143.478, 28 143.162, 28 142.750 C 28 142.338, 31.123 142, 34.941 142 C 38.860 142, 42.174 141.527, 42.554 140.913 C 42.923 140.315, 43.962 140.015, 44.863 140.246 C 45.763 140.477, 47.713 140.166, 49.196 139.555 C 52.603 138.151, 51.559 136.102, 47.152 135.545 C 45.393 135.322, 42.325 134.602, 40.335 133.946 C 38.231 133.251, 33.881 132.954, 29.942 133.236 C 21.746 133.823, 20.293 133.204, 22.046 129.877 C 24.008 126.155, 33.727 123.327, 36.169 125.769 C 36.811 126.411, 35.577 126.986, 32.598 127.433 C 30.095 127.808, 27.785 128.540, 27.464 129.058 C 26.709 130.280, 31.304 130.290, 32.550 129.069 C 33.072 128.556, 36.425 128.071, 40 127.990 C 49.895 127.765, 50.281 127.826, 49.638 129.500 C 48.957 131.276, 62.411 131.762, 63.500 130 C 64.595 128.228, 65.945 128.931, 66.621 131.626 C 67.269 134.208, 67.384 134.240, 73.390 133.537 C 76.751 133.143, 80.513 132.749, 81.750 132.660 C 82.987 132.572, 84 132.162, 84 131.750 C 84 130.790, 88.434 130.767, 89.388 131.722 C 90.703 133.037, 98.393 132.962, 106 131.562 C 110.125 130.802, 112.455 130.140, 111.179 130.090 C 108.758 129.996, 106 127.882, 106 126.121 C 106 125.559, 105.437 124.740, 104.750 124.300 C 104.063 123.860, 102.642 121.813, 101.593 119.750 C 100.543 117.688, 99.273 116, 98.770 116 C 98.267 116, 98.781 117.178, 99.914 118.618 C 102.697 122.156, 102.141 122.638, 93.747 123.964 C 89.761 124.594, 85.118 125.534, 83.429 126.054 C 80.447 126.973, 71.246 127.410, 72.083 126.594 C 72.313 126.371, 74.005 125.953, 75.844 125.666 C 79.333 125.122, 80.700 124.367, 79.809 123.476 C 78.758 122.425, 66 121.704, 66 122.695 C 66 123.603, 62.157 125.072, 56 126.517 C 53.845 127.023, 53.716 126.924, 55.062 125.802 C 55.921 125.086, 56.919 123.713, 57.281 122.750 C 57.707 121.613, 58.998 121, 60.969 121 C 64.200 121, 65.040 119.613, 62.418 118.607 C 59.391 117.445, 56.752 117.911, 57.362 119.500 C 58.318 121.993, 46.546 121.575, 43.273 119 C 41.874 117.900, 39.918 117, 38.924 117 C 37.931 117, 36.846 116.560, 36.514 116.022 C 36.148 115.431, 29.007 115.134, 18.455 115.272 L 1.002 115.500 1.001 125.671 M 173.479 126.635 C 174.699 129.547, 174.970 137, 173.856 137 C 172.087 137, 170 139.791, 169.985 142.179 C 169.976 143.455, 169.575 145.123, 169.093 145.884 C 168.596 146.668, 168.590 148.572, 169.079 150.275 C 169.620 152.162, 169.552 153.882, 168.895 154.891 C 167.966 156.320, 167.909 156.306, 168.387 154.765 C 169.094 152.486, 165.324 150.268, 163.643 151.975 C 162.784 152.847, 162.955 153.471, 164.334 154.489 C 166.077 155.776, 166.039 155.928, 163.584 157.537 C 162.163 158.468, 161 159.827, 161 160.556 C 161 161.285, 160.480 162.203, 159.845 162.595 C 159.130 163.038, 158.962 162.870, 159.405 162.155 C 160.316 160.680, 158.792 160.682, 155.547 162.161 C 154.057 162.839, 153 164.149, 153 165.316 C 153 167.247, 153.064 167.252, 155 165.500 C 156.864 163.813, 157.124 163.802, 158.829 165.345 C 159.835 166.255, 161.037 167, 161.500 167 C 161.963 167, 163.071 167.659, 163.961 168.465 C 165.400 169.767, 165.596 169.709, 165.729 167.943 C 165.812 166.851, 165.465 166.212, 164.960 166.525 C 162.633 167.963, 159.892 165.030, 161.746 163.087 C 165.523 159.128, 173.295 161.182, 171.568 165.683 C 170.956 167.278, 172.642 168.388, 173.521 166.967 C 173.933 166.300, 174.887 166.716, 176.069 168.079 C 177.108 169.278, 177.740 170.612, 177.472 171.046 C 177.204 171.479, 177.500 174.233, 178.129 177.166 C 178.758 180.100, 179.178 182.707, 179.062 182.961 C 178.947 183.214, 179.671 183.709, 180.671 184.060 C 181.672 184.411, 182.492 185.524, 182.495 186.533 C 182.501 188.665, 189.171 190.988, 189.807 189.080 C 190.007 188.479, 190.579 188.240, 191.078 188.548 C 191.577 188.857, 190.751 190.201, 189.243 191.536 C 186.923 193.590, 186.731 194.118, 188 194.967 C 189.177 195.753, 188.881 195.973, 186.628 195.985 C 184.094 195.998, 183.913 195.809, 185.098 194.382 C 186.259 192.982, 186.039 192.441, 183.471 190.377 C 181.837 189.065, 180.632 187.318, 180.794 186.495 C 180.955 185.673, 180.618 185, 180.044 185 C 179.470 185, 179 185.450, 179 186 C 179 187.798, 177.150 187.049, 176.495 184.985 C 176.138 183.860, 175.372 183.270, 174.758 183.650 C 174.053 184.085, 173.889 183.733, 174.299 182.664 C 174.650 181.749, 174.614 181.007, 174.219 181.015 C 172.772 181.046, 171.254 182.551, 170.620 184.583 C 169.878 186.964, 167.987 187.282, 166.167 185.333 C 165.160 184.255, 165.259 184, 166.683 184 C 168.220 184, 168.179 183.814, 166.364 182.543 C 164.059 180.928, 155.693 183.260, 154.008 185.987 C 153.456 186.880, 152.014 187.102, 149.457 186.687 C 146.606 186.224, 145.121 186.546, 143.222 188.040 C 141.852 189.118, 139.639 190, 138.306 190 C 136.973 190, 136.123 190.390, 136.417 190.866 C 137.055 191.898, 141.979 191.144, 143.750 189.743 C 144.624 189.053, 145 189.171, 145 190.137 C 145 191.874, 141.267 194.283, 139.892 193.433 C 139.327 193.084, 138.625 193.716, 138.332 194.838 C 137.807 196.844, 131.291 199, 125.751 199 C 124.106 199, 123.876 199.276, 124.772 200.172 C 126.281 201.681, 136.097 201.304, 142 199.510 C 151.565 196.603, 151.302 196.538, 153.337 202.300 C 154.347 205.160, 155.285 208.703, 155.421 210.173 C 155.558 211.643, 156.419 213.990, 157.335 215.388 C 159.321 218.419, 159.573 221.453, 157.750 220.387 C 157.063 219.985, 157.330 220.603, 158.344 221.761 C 159.358 222.918, 160.728 223.658, 161.389 223.404 C 162.066 223.144, 163.382 224.739, 164.406 227.060 C 165.563 229.681, 166.571 230.829, 167.180 230.220 C 168.448 228.952, 165.916 222.931, 162.953 220.171 C 160.956 218.311, 160.883 217.982, 162.343 217.422 C 164.126 216.738, 164.652 214, 163 214 C 162.450 214, 162 213.357, 162 212.571 C 162 211.786, 161.293 210.436, 160.429 209.571 C 158.854 207.997, 159.502 207.516, 162.675 207.908 C 163.321 207.988, 164.135 207.591, 164.484 207.027 C 164.833 206.462, 165.909 206, 166.875 206 C 168.773 206, 173.500 198.618, 172.567 197.109 C 172.262 196.614, 172.684 195.952, 173.506 195.636 C 174.328 195.321, 175 195.499, 175 196.031 C 175 196.564, 175.470 197, 176.044 197 C 177.924 197, 182.297 201.699, 181.103 202.436 C 180.321 202.919, 180.300 203.693, 181.032 205.061 C 182.406 207.627, 181.184 207.521, 178.314 204.826 C 176.349 202.979, 176 202.904, 176 204.326 C 176 205.247, 175.502 206, 174.893 206 C 174.284 206, 174.045 205.325, 174.362 204.500 C 174.975 202.902, 172.524 202.343, 171.583 203.866 C 170.838 205.072, 174.644 208.338, 175.893 207.566 C 176.454 207.220, 177.641 208.048, 178.532 209.408 C 179.499 210.884, 180.740 211.653, 181.613 211.318 C 182.417 211.010, 183.882 211.488, 184.868 212.381 C 186.928 214.245, 188.554 213.372, 186.849 211.318 C 185.176 209.302, 186.461 208.668, 189.153 210.181 C 192.325 211.964, 193.012 213.105, 192.394 215.566 C 191.668 218.460, 194.283 220.550, 196.698 219.003 C 198.272 217.995, 198.282 217.916, 196.782 218.381 C 195.837 218.673, 194.798 218.482, 194.473 217.956 C 194.148 217.430, 194.359 217, 194.941 217 C 196.458 217, 196.247 215.390, 194.500 213.643 C 193.675 212.818, 193 211.796, 193 211.371 C 193 210.947, 193.540 211.140, 194.200 211.800 C 195.962 213.562, 197.170 213.263, 196.813 211.154 C 196.641 210.138, 197.084 208.603, 197.799 207.743 C 198.601 206.776, 198.723 205.947, 198.118 205.573 C 197.579 205.240, 196.856 205.425, 196.510 205.984 C 196.165 206.543, 195.121 206.986, 194.191 206.968 C 192.732 206.941, 192.773 206.730, 194.495 205.429 C 195.830 204.420, 196.120 203.686, 195.371 203.211 C 193.858 202.250, 192.540 196, 193.851 196 C 194.406 196, 195.005 197.012, 195.180 198.250 C 195.412 199.879, 196.281 200.589, 198.329 200.824 C 200.295 201.049, 200.990 201.583, 200.610 202.574 C 199.998 204.168, 201.095 204.472, 202.550 203.112 C 204.618 201.180, 208 200.803, 208 202.504 C 208 203.591, 208.758 204.082, 210.250 203.961 C 213.803 203.673, 214.725 204.136, 212.074 204.877 C 208.211 205.957, 208.512 207.655, 212.483 207.192 C 214.746 206.928, 216 207.201, 216 207.958 C 216 208.680, 215.227 208.889, 214 208.500 C 212.900 208.151, 212 208.313, 212 208.859 C 212 209.406, 211.331 209.999, 210.513 210.177 C 209.489 210.399, 209.774 210.848, 211.431 211.617 C 213.373 212.519, 213.734 212.471, 213.311 211.367 C 212.947 210.419, 213.614 210, 215.487 210 C 217.346 210, 218.350 209.377, 218.710 208 C 219.408 205.331, 220.959 205.480, 224.250 208.531 C 226.967 211.050, 226.743 213.864, 223.643 216.125 C 223.172 216.469, 223.217 217.016, 223.743 217.341 C 224.268 217.666, 225.280 216.846, 225.990 215.519 C 226.700 214.192, 227.893 212.871, 228.641 212.584 C 230.440 211.894, 230.357 212.500, 228.381 214.476 C 226.499 216.358, 226.591 216.501, 230.250 217.378 C 232.579 217.937, 233 217.720, 233 215.960 C 233 214.741, 233.442 214.155, 234.068 214.542 C 234.656 214.905, 234.911 215.790, 234.636 216.507 C 234.037 218.066, 237.022 221, 239.206 221 C 240.058 221, 241.315 221.675, 242 222.500 C 242.685 223.325, 243.842 224, 244.573 224 C 245.303 224, 246.359 224.787, 246.920 225.750 C 247.486 226.721, 247.953 226.944, 247.970 226.250 C 248.013 224.456, 250 224.700, 250 226.500 C 250 227.325, 250.450 228, 251 228 C 251.550 228, 252 228.900, 252 230 C 252 231.100, 252.418 232, 252.929 232 C 253.439 232, 254.586 232.729, 255.476 233.619 C 256.367 234.510, 257.411 234.898, 257.798 234.482 C 258.184 234.066, 257.938 233.525, 257.250 233.280 C 256.563 233.034, 256 232.143, 256 231.299 C 256 230.331, 257.476 231.241, 260 233.765 C 262.200 235.965, 264 238.466, 264 239.323 C 264 240.181, 264.450 241.160, 265 241.500 C 265.550 241.840, 266 241.136, 266 239.937 C 266 238.064, 266.223 237.940, 267.576 239.063 C 269.472 240.636, 271.398 238.517, 270.361 236 C 270.021 235.175, 269.539 233.570, 269.290 232.434 C 269.041 231.297, 267.299 229.539, 265.419 228.526 C 263.538 227.514, 262 226.320, 262 225.874 C 262 225.428, 261.384 225.299, 260.631 225.588 C 259.820 225.899, 259.044 225.278, 258.726 224.062 C 257.959 221.127, 255.190 220.363, 253.517 222.625 C 252.214 224.386, 252.038 224.281, 250.608 220.884 C 249.604 218.500, 247.879 216.696, 245.543 215.587 C 243.594 214.663, 242 213.252, 242 212.453 C 242 211.654, 241.550 210.944, 241 210.875 C 240.450 210.806, 239.514 210.694, 238.919 210.625 C 238.325 210.556, 237.222 209.656, 236.467 208.625 C 235.646 207.501, 234.454 206.995, 233.496 207.363 C 232.606 207.705, 232.156 207.557, 232.482 207.029 C 233.255 205.778, 230.858 202, 229.291 202 C 228.615 202, 228.294 202.603, 228.577 203.340 C 228.860 204.077, 228.320 205.314, 227.377 206.090 C 225.805 207.383, 225.716 207.233, 226.299 204.289 C 226.656 202.486, 226.492 200.804, 225.927 200.455 C 225.372 200.112, 225.191 198.857, 225.525 197.666 C 225.991 196.001, 225.897 195.840, 225.120 196.971 C 223.652 199.106, 222.790 197.683, 223.599 194.460 C 224.247 191.878, 224.388 191.811, 225.620 193.496 C 227.009 195.394, 227.474 194.887, 228.191 190.697 C 228.798 187.152, 230.497 189.582, 230.350 193.786 C 230.214 197.680, 230.388 198.012, 232.252 197.420 C 233.865 196.908, 234.169 197.116, 233.678 198.397 C 233.177 199.702, 233.522 199.907, 235.418 199.431 C 238.010 198.781, 239.160 199.952, 239.566 203.654 C 239.740 205.233, 239.308 206, 238.245 206 C 237.377 206, 236.895 206.228, 237.174 206.507 C 238.590 207.923, 244.010 205.717, 242.774 204.228 C 241.689 202.920, 241.859 202.811, 244.008 203.431 C 246.398 204.122, 252 209.576, 252 211.212 C 252 212.896, 254.900 211.891, 255.500 210 C 256.514 206.806, 258.179 207.689, 257.857 211.250 C 257.660 213.436, 257.972 214.415, 258.812 214.240 C 259.499 214.097, 261.284 214.599, 262.780 215.356 C 264.276 216.113, 267.188 217.038, 269.250 217.412 C 271.313 217.785, 273 218.569, 273 219.154 C 273 219.798, 271.917 219.971, 270.250 219.593 C 267.638 219.001, 267.597 219.045, 269.441 220.485 C 270.509 221.318, 271.746 222, 272.191 222 C 272.636 222, 273 222.482, 273 223.071 C 273 224.658, 275.088 226.416, 278.750 227.914 C 281.988 229.238, 283.501 231.513, 280.336 230.299 C 279.217 229.869, 278.909 230.043, 279.395 230.830 C 280.384 232.431, 281.846 232.297, 283.707 230.436 C 285.559 228.584, 287.367 229.863, 286.827 232.644 C 286.404 234.826, 294.692 240.260, 301.358 242.173 C 306.498 243.647, 306.801 243.886, 304.971 245.023 C 303.911 245.682, 304.338 245.876, 306.500 245.719 C 308.906 245.543, 309.500 245.896, 309.500 247.500 C 309.500 249.899, 315.040 250.901, 316.697 248.801 C 318.163 246.944, 319.209 242, 318.136 242 C 317.639 242, 317.017 240.871, 316.754 239.491 C 316.365 237.461, 316.534 237.198, 317.637 238.114 C 318.387 238.736, 319 239.865, 319 240.622 C 319 241.380, 319.648 242, 320.441 242 C 323.737 242, 322.556 247.634, 318.566 250.945 C 316.920 252.312, 316.355 254.517, 317.895 253.565 C 318.388 253.260, 319.039 253.659, 319.343 254.450 C 319.744 255.497, 321.402 255.836, 325.431 255.695 C 328.475 255.588, 330.524 255.350, 329.983 255.167 C 329.442 254.983, 329 254.196, 329 253.417 C 329 252.637, 328.475 252, 327.833 252 C 327.192 252, 326.968 251.698, 327.337 251.329 C 327.706 250.961, 329.052 251.640, 330.328 252.839 C 332.724 255.089, 334.269 254.864, 333.324 252.402 C 332.991 251.535, 333.440 251, 334.500 251 C 335.568 251, 336.009 251.534, 335.670 252.417 C 334.958 254.273, 337.863 255.358, 339.627 253.895 C 340.382 253.268, 341 253.163, 341 253.662 C 341 255.172, 346.708 258.049, 348.410 257.396 C 349.465 256.991, 350 257.338, 350 258.425 C 350 260.997, 354.327 262.198, 355.218 259.874 C 355.613 258.843, 356.400 258, 356.968 258 C 358.899 258, 358.009 256.138, 355.750 255.452 C 354.512 255.077, 352.600 254.034, 351.500 253.135 C 347.342 249.736, 345.052 248.902, 342.956 250.023 C 340.242 251.476, 339.254 250.629, 339.747 247.274 C 340.155 244.492, 336.682 242.187, 331 241.468 C 330.175 241.363, 328.667 240.925, 327.649 240.493 C 326.472 239.994, 325.508 240.179, 325 241 C 324.535 241.753, 323.465 242.009, 322.434 241.613 C 321.086 241.096, 320.943 240.657, 321.833 239.767 C 322.475 239.125, 323 238.227, 323 237.770 C 323 236.142, 313.107 226.816, 312.063 227.461 C 311.432 227.851, 310.988 227.180, 310.970 225.809 C 310.932 222.867, 298.844 216.705, 295.056 217.696 C 292.920 218.254, 292.767 218.066, 293.376 215.639 C 293.939 213.395, 293.638 212.813, 291.497 211.999 C 290.096 211.466, 288.687 210.348, 288.367 209.515 C 288.048 208.682, 287.259 208, 286.616 208 C 285.972 208, 284.332 207.220, 282.973 206.267 C 281.613 205.314, 279.707 204.668, 278.738 204.832 C 277.474 205.046, 276.805 204.273, 276.369 202.094 C 276.023 200.364, 274.953 198.803, 273.881 198.462 C 272.846 198.134, 272 197.494, 272 197.040 C 272 196.586, 271.284 195.939, 270.409 195.604 C 268.573 194.899, 263 198.516, 263 200.413 C 263 201.115, 262.033 202.547, 260.850 203.595 C 258.439 205.732, 258.547 203.633, 261.174 197.294 C 261.811 195.757, 262.370 194.200, 262.416 193.833 C 262.462 193.467, 262.837 192.829, 263.250 192.417 C 264.733 190.934, 263.910 190.147, 258.051 187.442 C 254.779 185.932, 252.132 184.427, 252.169 184.098 C 252.378 182.254, 251.832 181.895, 250.500 183 C 249.270 184.021, 249 183.949, 249 182.601 C 249 181.697, 247.875 180.445, 246.500 179.818 C 245.125 179.192, 244 178.065, 244 177.315 C 244 176.564, 242.846 175.512, 241.435 174.975 C 238.243 173.762, 238 173.763, 238 175 C 238 175.550, 238.648 176, 239.441 176 C 240.234 176, 241.136 176.411, 241.446 176.912 C 241.756 177.414, 240.893 177.702, 239.528 177.553 C 236.988 177.274, 234 180.403, 234 183.342 C 234 184.836, 231.258 187.592, 230.514 186.847 C 230.273 186.606, 230.733 185.140, 231.538 183.590 C 232.342 182.040, 233 179.525, 233 178.002 C 233 176.074, 233.607 175.074, 235 174.710 C 236.100 174.423, 237 173.805, 237 173.338 C 237 172.416, 230.952 169.420, 229.786 169.765 C 229.393 169.881, 229.337 169.285, 229.661 168.440 C 230.350 166.645, 227.390 164.078, 224.579 164.032 C 223.522 164.014, 221.900 163.314, 220.973 162.476 C 219.213 160.883, 216.420 161.337, 215.686 163.335 C 215.451 163.976, 215.418 163.240, 215.614 161.700 C 215.817 160.101, 215.562 159.153, 215.018 159.489 C 214.494 159.813, 213.492 159.160, 212.792 158.039 C 212.092 156.917, 210.952 156, 210.259 156 C 209.567 156, 209 155.058, 209 153.906 C 209 152.688, 208.203 151.604, 207.092 151.314 C 206.043 151.040, 204.960 149.957, 204.686 148.908 C 204.093 146.641, 201.180 146.367, 200.362 148.500 C 199.241 151.420, 198.153 149.952, 199.070 146.757 C 200.314 142.417, 200.375 142.600, 197.250 141.256 C 192.133 139.055, 188 135.844, 188 134.071 C 188 133.482, 186.650 133, 185 133 C 183.350 133, 181.998 132.662, 181.995 132.250 C 181.985 130.660, 177.385 126.139, 175.099 125.471 C 173.031 124.867, 172.806 125.028, 173.479 126.635 M 365.823 162.709 C 364.351 162.934, 362.608 163.767, 361.951 164.559 C 361.293 165.352, 360 166, 359.078 166 C 358.155 166, 356.972 166.424, 356.450 166.943 C 355.928 167.461, 353.700 168.331, 351.500 168.876 C 349.300 169.422, 344.575 170.586, 341 171.464 C 332.669 173.511, 326 176.032, 326 177.136 C 326 178.324, 327.756 178.229, 328.167 177.019 C 328.350 176.479, 330.525 175.830, 333 175.576 C 335.475 175.322, 337.500 175.079, 337.500 175.036 C 337.500 174.992, 342.310 174.724, 348.188 174.440 C 354.066 174.156, 362.161 173.298, 366.176 172.533 C 375.100 170.832, 377.396 172.546, 369 174.641 C 367.625 174.985, 364.700 176.064, 362.500 177.041 C 359.168 178.520, 338.844 181.233, 331.750 181.146 C 329.745 181.121, 329.375 182.852, 331.250 183.484 C 340.046 186.447, 371.823 181.770, 375 177.045 C 375.985 175.581, 389.358 170.819, 393.883 170.321 C 398.146 169.853, 399.946 168.772, 399.985 166.660 C 399.998 165.932, 374.753 166.336, 366.598 167.194 C 364.929 167.370, 363.512 166.969, 363.264 166.250 C 362.996 165.472, 363.762 165, 365.292 165 C 369.203 165, 374 163.829, 374 162.875 C 374 162.001, 370.870 161.937, 365.823 162.709 M 174.690 229.452 C 173.892 230.251, 173.028 230.694, 172.770 230.437 C 172.513 230.180, 170.772 230.619, 168.901 231.412 L 165.500 232.855 168 233.827 C 170.120 234.652, 170.241 234.904, 168.798 235.488 C 166.703 236.336, 165 235.386, 165 233.370 C 165 232.538, 164.328 231.186, 163.508 230.365 C 161.711 228.568, 159.363 229.528, 160.931 231.417 C 161.726 232.375, 160.771 232.672, 156.730 232.726 C 145.803 232.870, 128.777 233.890, 128.233 234.433 C 127.922 234.745, 130.329 235.004, 133.583 235.009 C 142.119 235.021, 150.042 236.123, 149.374 237.204 C 149.057 237.717, 148.212 237.912, 147.497 237.637 C 146.781 237.362, 145.894 237.439, 145.525 237.808 C 145.157 238.177, 143.650 238.562, 142.178 238.664 C 127.822 239.658, 110.265 241.445, 104.534 242.495 L 97.500 243.784 103.191 243.892 C 106.321 243.951, 109.152 244.437, 109.482 244.971 C 109.859 245.581, 105.858 245.859, 98.698 245.721 C 91.632 245.584, 86.402 245.942, 84.907 246.664 C 83.583 247.305, 80.025 248.258, 77 248.783 C 71.896 249.668, 72.334 249.747, 83.066 249.869 C 95.328 250.008, 104.566 248.864, 109.500 246.596 C 114.134 244.466, 122.492 243.250, 134 243.034 C 141.993 242.884, 144.923 242.456, 146.274 241.242 C 147.633 240.019, 148.322 239.922, 149.224 240.824 C 149.924 241.524, 153.554 242, 158.200 242 C 164.325 242, 166 242.309, 166 243.441 C 166 244.234, 166.468 245.171, 167.040 245.525 C 167.715 245.942, 167.852 245.259, 167.432 243.584 C 166.693 240.639, 167.206 240.349, 169.354 242.496 C 171.174 244.317, 176.561 241.786, 177.359 238.736 C 177.765 237.181, 177.300 237.009, 173.824 237.428 C 170.518 237.826, 169.923 237.643, 170.410 236.373 C 170.735 235.528, 171 233.954, 171 232.874 C 171 231.795, 171.563 231.017, 172.250 231.145 C 174.906 231.639, 180.315 229.813, 178.883 228.907 C 176.976 227.699, 176.365 227.778, 174.690 229.452 M 183.607 247.582 C 182.679 250.001, 182.869 250.354, 184.411 249.074 C 185.376 248.273, 186.027 248.235, 186.470 248.951 C 186.826 249.528, 186.869 250, 186.566 250 C 186.262 250, 186.991 251.125, 188.187 252.500 C 189.382 253.875, 190.955 255, 191.680 255 C 192.406 255, 193 255.450, 193 256 C 193 258.299, 187.112 256.939, 184.338 254 C 182.781 252.350, 181.089 251, 180.579 251 C 180.069 251, 180.578 252.012, 181.711 253.250 C 184.421 256.211, 185.571 259.961, 183.817 260.117 C 178.898 260.554, 174.537 260.111, 174.214 259.141 C 173.994 258.482, 174.460 258.239, 175.315 258.567 C 176.131 258.880, 177.037 258.750, 177.328 258.278 C 177.620 257.805, 175.395 257.472, 172.382 257.538 C 167.230 257.650, 163.758 256.594, 168.182 256.261 C 171.081 256.043, 171.603 255.195, 170.212 252.968 C 169.545 251.901, 169 250.346, 169 249.514 C 169 248.681, 168.550 248, 168 248 C 166.541 248, 166.775 249.727, 168.615 252.535 C 170.190 254.938, 170.165 255, 167.615 255 C 166.177 255, 165 255.494, 165 256.098 C 165 256.869, 161.204 257.017, 152.250 256.597 C 135.295 255.800, 134.885 255.741, 135.485 254.177 C 135.814 253.322, 135.376 252.990, 134.246 253.237 C 133.286 253.447, 132.574 254.042, 132.664 254.559 C 132.755 255.081, 129.193 255.516, 124.664 255.535 C 120.174 255.554, 115.600 255.968, 114.500 256.455 C 113.400 256.941, 110.700 257.417, 108.500 257.512 C 94.973 258.098, 74.364 262, 84.800 262 C 90.314 262, 88.287 263.770, 81.928 264.508 C 78.373 264.921, 75.645 265.761, 75.348 266.536 C 75.042 267.332, 72.269 268.133, 68.370 268.551 C 64.811 268.932, 61.279 269.864, 60.521 270.622 C 58.939 272.204, 56.573 272.500, 57.500 271 C 57.840 270.450, 57.416 270, 56.559 270 C 55.702 270, 55 270.371, 55 270.824 C 55 271.277, 53.317 272.064, 51.261 272.574 C 48.833 273.175, 47.394 274.164, 47.160 275.393 C 46.861 276.957, 47.207 277.167, 49.149 276.600 C 50.442 276.223, 52.625 275.686, 54 275.407 C 55.375 275.127, 59.340 274.246, 62.812 273.449 C 66.284 272.652, 70.221 272, 71.562 272 C 72.903 272, 74 271.550, 74 271 C 74 270.450, 74.620 270, 75.378 270 C 76.135 270, 77.315 269.325, 78 268.500 C 78.902 267.413, 81.291 267, 86.681 267 C 91.158 267, 93.883 266.619, 93.527 266.044 C 93.202 265.518, 92.275 265.341, 91.468 265.651 C 90.661 265.960, 90 265.716, 90 265.107 C 90 264.498, 89.996 263.715, 89.992 263.367 C 89.987 263.019, 91.541 262.640, 93.443 262.524 C 96.520 262.337, 96.793 262.518, 95.916 264.157 C 95.373 265.171, 95.283 265.995, 95.715 265.988 C 97.574 265.960, 107.217 263.069, 108.306 262.214 C 109.939 260.931, 114.565 259.898, 115.315 260.648 C 115.652 260.985, 118.981 261.314, 122.713 261.380 C 127.802 261.470, 129.430 261.834, 129.221 262.836 C 129.013 263.835, 129.730 263.999, 132.072 263.484 C 138.476 262.078, 171.757 262.556, 173.637 264.082 C 174.755 264.989, 175.113 265.050, 174.633 264.250 C 174.170 263.479, 174.439 263, 175.334 263 C 176.133 263, 177.045 263.675, 177.362 264.500 C 177.678 265.325, 178.417 266, 179.004 266 C 179.720 266, 179.677 265.261, 178.871 263.750 C 177.799 261.738, 177.842 261.640, 179.276 262.822 C 181.313 264.502, 186.192 263.972, 186.836 262 C 187.258 260.706, 187.094 260.691, 185.638 261.893 C 184.711 262.658, 183.719 263.052, 183.434 262.768 C 183.150 262.483, 184.779 261.329, 187.056 260.202 C 193.305 257.110, 202 258.519, 202 262.622 C 202 263.380, 202.620 264, 203.378 264 C 204.135 264, 205.315 264.675, 206 265.500 C 207.731 267.586, 208.910 267.374, 208.312 265.085 C 208.036 264.031, 206.744 262.902, 205.441 262.575 C 203.833 262.171, 203.260 261.487, 203.658 260.449 C 203.981 259.607, 203.853 258.985, 203.373 259.067 C 201.326 259.417, 198.021 257.641, 197.466 255.894 C 197.137 254.855, 195.659 253.718, 194.183 253.368 C 190.351 252.459, 187.862 250.011, 188.553 247.832 C 189.307 245.456, 184.516 245.213, 183.607 247.582" stroke="none" fill="#1a1a2e" fill-rule="evenodd"/>
</svg>