<svg xmlns="http://www.w3.org/2000/svg" width="400" height="264" viewBox="0 0 400 264" version="1.1">
	<path d="M 134 55.187 C 134 55.472, 132.866 58.810, 131.481 62.603 C 128.385 71.077, 126 81.015, 126 85.441 C 126 89.240, 125.269 89.637, 113 92.494 C 86.533 98.657, 72.047 104.580, 47.804 119.149 C 27.873 131.126, 21 135.946, 21 137.947 C 21 140.152, 22.567 141.510, 23.454 140.074 C 24.656 138.129, 43.203 136.771, 45.889 138.431 C 46.500 138.809, 47 138.914, 47 138.664 C 47 138.415, 48.500 138.549, 50.334 138.963 C 53.515 139.680, 53.649 139.594, 53.244 137.107 C 52.832 134.574, 52.877 134.589, 54.829 137.641 C 58.034 142.653, 65.333 142.267, 66.707 137.013 C 67.104 135.496, 68.067 135, 70.617 135 C 73.438 135, 74.012 134.626, 74.070 132.750 C 74.135 130.683, 74.202 130.657, 74.898 132.434 C 75.418 133.763, 75.884 133.997, 76.387 133.184 C 76.789 132.533, 77.568 132, 78.118 132 C 78.668 132, 78.840 132.450, 78.500 133 C 78.160 133.550, 78.584 134, 79.441 134 C 80.298 134, 81.020 133.213, 81.045 132.250 C 81.074 131.143, 81.595 131.602, 82.464 133.500 C 83.219 135.150, 83.874 135.882, 83.919 135.128 C 83.983 134.040, 84.302 134.006, 85.456 134.964 C 87.613 136.754, 89.256 135.347, 87.922 132.854 C 87.326 131.740, 87.099 130.567, 87.419 130.248 C 87.739 129.928, 88 130.122, 88 130.678 C 88 131.234, 89.162 132.996, 90.583 134.594 L 93.165 137.500 92.535 134.396 C 91.763 130.593, 95.951 126.885, 98.567 129.056 C 99.692 129.989, 100.014 129.950, 100.063 128.872 C 100.098 128.118, 100.629 128.625, 101.243 130 C 102.333 132.442, 102.375 132.407, 103.038 128.500 C 103.631 125.004, 103.736 124.878, 103.873 127.500 C 103.995 129.829, 104.247 130.165, 105 129 C 105.828 127.718, 105.972 127.754, 105.985 129.250 C 106.010 132.158, 107.994 131.211, 108.079 128.250 C 108.122 126.737, 108.385 126.063, 108.662 126.750 C 108.940 127.437, 109.565 128, 110.052 128 C 110.539 128, 110.678 127.325, 110.362 126.500 C 110.045 125.675, 110.074 125, 110.425 125 C 110.777 125, 111.471 126.013, 111.969 127.250 C 112.750 129.194, 112.882 129.241, 112.937 127.595 C 112.997 125.788, 113.098 125.779, 114.896 127.406 C 116.376 128.745, 116.917 128.834, 117.357 127.811 C 117.667 127.090, 117.826 128.300, 117.710 130.500 C 117.543 133.688, 117.131 134.469, 115.681 134.350 C 114.456 134.248, 114.048 134.683, 114.431 135.681 C 114.744 136.497, 115.007 137.689, 115.015 138.332 C 115.026 139.134, 115.285 139.099, 115.843 138.220 C 116.497 137.189, 117.189 137.216, 119.394 138.360 C 121.689 139.551, 122.566 139.567, 124.816 138.459 C 127.951 136.915, 135.738 138.003, 139.274 140.479 C 140.468 141.316, 142.245 142, 143.223 142 C 144.200 142, 145 142.450, 145 143 C 145 143.550, 146.125 144, 147.500 144 C 150.611 144, 150.809 142.260, 147.750 141.802 C 144.433 141.306, 166.497 137.055, 173.500 136.842 C 176.800 136.741, 180.175 136.149, 181 135.526 C 181.825 134.904, 184.407 133.518, 186.739 132.447 C 189.976 130.960, 190.980 129.940, 190.989 128.128 C 190.997 126.393, 191.336 126.009, 192.250 126.701 C 194.537 128.430, 197.721 127.935, 198.811 125.679 C 199.831 123.569, 199.867 123.586, 199.932 126.191 C 200.020 129.664, 202 130.974, 202 127.559 C 202 126.018, 202.564 125, 203.417 125 C 204.196 125, 205.060 124.437, 205.338 123.750 C 205.615 123.063, 205.914 123.850, 206.002 125.500 L 206.162 128.500 207.364 125.793 C 208.447 123.351, 208.679 123.254, 209.731 124.793 C 210.753 126.290, 211.024 126.315, 211.933 125 C 212.807 123.735, 212.987 123.814, 213.084 125.500 C 213.180 127.167, 213.333 127.084, 214 125 C 214.745 122.673, 214.808 122.651, 214.900 124.691 C 215.018 127.274, 216.229 128.233, 218.347 127.420 C 219.218 127.086, 219.651 126.118, 219.355 125.167 C 218.885 123.654, 218.960 123.647, 220.168 125.088 C 220.901 125.961, 222.125 126.465, 222.889 126.208 C 223.657 125.950, 223.997 126.195, 223.650 126.757 C 222.656 128.366, 226.368 127.668, 227.679 126 C 228.713 124.684, 228.940 124.715, 229.536 126.250 C 229.909 127.213, 230.642 128, 231.166 128 C 231.690 128, 231.859 127.581, 231.543 127.069 C 231.226 126.557, 231.425 125.856, 231.984 125.510 C 232.543 125.165, 233 125.557, 233 126.382 C 233 127.207, 233.520 128.203, 234.155 128.595 C 234.844 129.021, 235.039 128.871, 234.638 128.224 C 234.269 127.627, 234.425 126.856, 234.984 126.510 C 235.543 126.165, 236 126.407, 236 127.049 C 236 127.795, 236.903 127.990, 238.500 127.589 C 240.058 127.198, 241 127.386, 241 128.088 C 241 128.707, 241.692 128.948, 242.538 128.624 C 243.433 128.280, 244.327 128.689, 244.677 129.601 C 245.088 130.672, 245.500 130.809, 245.979 130.034 C 246.984 128.407, 251.860 128.530, 254.611 130.251 C 255.221 130.633, 256.018 130.649, 256.381 130.286 C 257.366 129.301, 261 129.207, 261 130.167 C 261 130.625, 261.450 131, 262 131 C 262.550 131, 263 130.239, 263 129.309 C 263 127.748, 263.096 127.744, 264.250 129.258 C 265.710 131.174, 273.426 132.174, 274.955 130.645 C 275.638 129.962, 276 129.950, 276 130.613 C 276 131.169, 277.913 131.645, 280.250 131.668 C 282.587 131.692, 286.075 132.051, 288 132.466 C 289.925 132.881, 303.355 133.363, 317.844 133.537 C 343.494 133.846, 348.267 134.234, 342.368 135.535 C 336.646 136.796, 336.627 136.845, 340.273 140.880 C 342.191 143.003, 345.692 148.061, 348.053 152.120 C 356.717 167.014, 362.427 173.258, 376.407 183.125 C 383.345 188.022, 387.644 189.686, 384.939 186.427 C 384.221 185.562, 381.916 183.978, 379.817 182.907 C 375.493 180.701, 374.955 179.945, 378.250 180.708 L 380.500 181.228 378.233 179.546 C 376.987 178.620, 376.228 177.441, 376.547 176.925 C 376.865 176.409, 376.198 174.682, 375.063 173.089 C 373.928 171.495, 373 169.698, 373 169.096 C 373 168.493, 372.475 168, 371.833 168 C 371.192 168, 370.949 167.718, 371.294 167.372 C 371.639 167.027, 370.823 164.777, 369.481 162.372 C 368.138 159.968, 367.234 158, 367.472 158 C 367.710 158, 367.214 155.863, 366.371 153.250 C 362.297 140.631, 360.165 129.218, 361.511 127.235 C 362.863 125.244, 365.308 115.975, 364.654 115.320 C 364.414 115.080, 365.739 111.758, 367.598 107.937 C 369.458 104.116, 371.028 100.655, 371.087 100.245 C 371.146 99.835, 372.501 97.724, 374.097 95.553 C 375.694 93.382, 377 91.302, 377 90.929 C 377 89.865, 384.282 82.375, 386.500 81.158 C 390.968 78.707, 385.531 80.208, 380.208 82.895 C 366.778 89.674, 353.833 102.375, 344.970 117.467 C 340.672 124.787, 340.375 125.064, 337.242 124.649 C 335.450 124.412, 333.736 124.619, 333.433 125.109 C 333.130 125.599, 333.809 126, 334.941 126 C 336.073 126, 337 126.450, 337 127 C 337 129.091, 321.861 125.677, 312.500 121.475 L 309.500 120.128 313 120.034 C 315.606 119.963, 316.102 119.706, 314.942 119.027 C 313.986 118.468, 311.807 118.516, 309.307 119.150 C 305.992 119.991, 304.695 119.877, 302.365 118.537 L 299.500 116.889 302.800 117.429 C 305.022 117.793, 305.881 117.617, 305.431 116.889 C 305.008 116.204, 303.117 116.055, 300.266 116.483 C 296.991 116.974, 294.236 116.627, 290.134 115.209 C 280.111 111.743, 274.630 110.070, 268 108.453 C 256.835 105.731, 255.512 105.344, 253.292 104.156 C 252.104 103.520, 250.089 102.985, 248.816 102.967 C 243.828 102.897, 236.263 99.531, 237.321 97.853 C 238.071 96.664, 237.427 95.129, 234.655 91.499 C 232.645 88.866, 231 86.102, 231 85.356 C 231 84.610, 230.621 84, 230.159 84 C 224.769 84, 234.725 67.190, 244.840 59.212 C 251.553 53.917, 249.290 53.720, 241.272 58.903 C 232.958 64.276, 220.479 75.448, 213.406 83.851 C 207.489 90.879, 202 93.598, 202 89.500 C 202 88.675, 201.550 88, 201 88 C 200.450 88, 200 88.450, 200 89 C 200 90.276, 196.311 90.312, 195.527 89.044 C 195.202 88.518, 194.270 88.343, 193.455 88.656 C 192.641 88.968, 191.376 88.727, 190.645 88.121 C 189.914 87.514, 189.058 87.275, 188.744 87.590 C 188.429 87.904, 187.204 87.644, 186.022 87.012 C 184.372 86.129, 183.521 86.153, 182.360 87.116 C 179.785 89.254, 178.113 85.527, 180.035 81.934 C 180.857 80.398, 180.742 80, 179.476 80 C 178.599 80, 178.119 80.384, 178.409 80.853 C 178.699 81.322, 178.239 82.559, 177.386 83.603 C 175.954 85.357, 175.880 85.363, 176.412 83.684 C 176.885 82.192, 176.506 81.925, 174.283 82.184 C 172.389 82.405, 171.373 83.249, 170.889 85 L 170.199 87.500 170.100 84.750 C 170.045 83.237, 169.600 82, 169.111 82 C 168.622 82, 168.285 81.261, 168.361 80.358 C 168.438 79.454, 167.938 78.517, 167.250 78.274 C 166.513 78.014, 166 78.675, 166 79.885 C 166 81.298, 165.533 81.758, 164.500 81.362 C 163.675 81.045, 163 80.358, 163 79.834 C 163 79.310, 163.385 79.120, 163.856 79.411 C 164.326 79.702, 164.477 78.716, 164.190 77.220 C 163.702 74.670, 163.577 74.781, 162.188 79 C 160.218 84.989, 158 88.390, 158 85.423 C 158 84.310, 158.471 82.929, 159.046 82.354 C 160.278 81.122, 160.914 73, 159.778 73 C 159.350 73, 158.993 73.787, 158.985 74.750 C 158.973 76.126, 158.784 76.207, 158.102 75.130 C 157.401 74.024, 157.027 74.121, 156.160 75.630 C 155.302 77.125, 155.182 76.698, 155.560 73.500 L 156.033 69.500 154.090 73.500 C 153.022 75.700, 152.115 78.463, 152.074 79.639 C 152.033 80.816, 151.115 82.841, 150.033 84.139 L 148.067 86.500 148.045 83.500 C 148.033 81.850, 148.688 78.025, 149.500 75 C 151.206 68.644, 151.337 67, 150.138 67 C 149.664 67, 148.442 70.807, 147.422 75.459 C 146.402 80.111, 145.277 83.449, 144.923 82.875 C 144.529 82.238, 144.042 82.449, 143.671 83.416 C 142.336 86.894, 141.294 84.810, 142.130 80.334 C 142.609 77.768, 142.789 75.455, 142.529 75.195 C 141.796 74.462, 139.868 80.103, 139.519 84 C 139.111 88.568, 139.203 88.413, 137.658 87.131 C 136.920 86.519, 136.050 86.283, 135.725 86.608 C 134.814 87.519, 136.146 74.711, 137.478 69.750 C 138.770 64.941, 137.223 66.788, 135.013 72.695 C 133.841 75.827, 132.850 80.664, 132.811 83.445 C 132.771 86.225, 132.534 87.935, 132.284 87.244 C 132.034 86.553, 131.469 86.210, 131.028 86.483 C 127.105 88.907, 127.716 80.312, 132.657 63.581 C 133.943 59.226, 134.772 55.438, 134.498 55.164 C 134.224 54.891, 134 54.901, 134 55.187" stroke="none" fill="#1a1a2e" fill-rule="evenodd"/>
</svg>