<svg xmlns="http://www.w3.org/2000/svg" width="400" height="225" viewBox="0 0 400 225" version="1.1">
	<path d="M 0 105 C 0 181.969, 0.300 210, 1.122 210 C 1.933 210, 1.921 210.390, 1.081 211.403 C 0.187 212.480, 0.216 212.926, 1.208 213.324 C 2.197 213.720, 2.207 213.861, 1.250 213.921 C 0.468 213.970, -0 215.521, -0 218.059 C -0 220.510, 0.396 221.873, 1 221.500 C 1.550 221.160, 2 221.359, 2 221.941 C 2 222.523, 1.550 223, 1 223 C 0.450 223, 0 223.450, 0 224 C 0 225.443, 8.349 225.233, 9.947 223.750 C 11.024 222.750, 11.152 222.750, 10.588 223.750 C 9.755 225.224, 11.595 225.465, 12.500 224 C 12.840 223.450, 13.568 223, 14.118 223 C 14.668 223, 14.887 223.373, 14.605 223.829 C 13.947 224.896, 17.098 224.676, 18.959 223.526 C 19.858 222.970, 20.523 223.069, 20.766 223.797 C 21.032 224.596, 21.907 224.452, 23.624 223.327 C 25.528 222.079, 26.029 222.019, 25.799 223.066 C 25.562 224.144, 28.042 224.483, 37.746 224.702 C 46.350 224.895, 49.919 224.646, 49.746 223.864 C 49.611 223.251, 50.063 222.544, 50.751 222.291 C 51.601 221.980, 51.781 222.419, 51.313 223.666 C 50.708 225.281, 50.827 225.336, 52.313 224.128 C 53.241 223.373, 54 222.135, 54 221.378 C 54 220.620, 54.450 220, 55 220 C 56.344 220, 56.273 221.713, 54.893 222.566 C 52.653 223.951, 56.552 224.969, 64 224.945 C 71.217 224.921, 71.396 224.864, 68.750 223.428 C 65.534 221.684, 65.133 220.540, 68 221.290 C 69.100 221.577, 70 221.450, 70 221.006 C 70 220.563, 71.676 220.200, 73.723 220.200 C 77.160 220.200, 77.299 220.308, 75.532 221.600 C 73.749 222.904, 73.844 223, 76.916 223 C 79.448 223, 80.079 222.649, 79.634 221.488 C 78.901 219.577, 80.930 215, 82.511 215 C 85.051 215, 89.930 217.232, 89.721 218.297 C 89.599 218.914, 90.527 219.489, 91.782 219.574 C 94.833 219.782, 95.355 220.468, 94.163 222.696 C 93.242 224.416, 93.637 224.575, 99.181 224.715 C 104.602 224.852, 105.150 224.681, 104.710 222.998 C 104.045 220.458, 106.641 216.925, 108.615 217.683 C 109.808 218.140, 110.095 217.718, 109.835 215.891 C 109.566 214.009, 108.966 213.559, 107.016 213.779 C 104.609 214.050, 104.595 214.015, 106.519 212.560 C 108.315 211.202, 108.663 211.256, 110.250 213.142 C 112.931 216.328, 112.537 219.469, 109.434 219.648 C 108.024 219.730, 106.575 220.092, 106.214 220.453 C 105.234 221.432, 108.248 223.086, 110.175 222.626 C 111.283 222.362, 111.670 222.697, 111.317 223.617 C 110.595 225.499, 116.803 224.854, 118.191 222.903 C 118.977 221.797, 119.069 221.871, 118.626 223.250 C 118.256 224.399, 118.588 225, 119.590 225 C 120.546 225, 120.837 224.532, 120.367 223.750 C 119.799 222.804, 120.003 222.814, 121.210 223.791 C 124.081 226.117, 144.889 225.291, 144.257 222.876 C 143.881 221.435, 144.154 221.122, 145.379 221.592 C 146.271 221.934, 147 222.841, 147 223.607 C 147 225.284, 148.415 225.383, 151.186 223.900 C 152.839 223.016, 153.082 223.065, 152.429 224.150 C 151.757 225.267, 151.893 225.276, 153.219 224.201 C 154.101 223.487, 155.072 223.307, 155.377 223.801 C 155.682 224.295, 158.715 224.782, 162.117 224.884 C 167.576 225.048, 168.153 224.889, 167.029 223.535 C 165.285 221.434, 167.399 221.542, 169.519 223.662 C 171.160 225.303, 172.937 224.281, 172.985 221.668 C 172.993 221.211, 174.575 221.810, 176.500 223 C 178.453 224.207, 180 224.669, 180 224.046 C 180 223.229, 180.552 223.225, 182.055 224.030 C 183.186 224.635, 184.648 224.911, 185.305 224.644 C 185.962 224.377, 185.713 224.122, 184.750 224.079 C 182.694 223.986, 182.408 222.164, 184.333 221.426 C 185.778 220.871, 186.197 218, 184.833 218 C 183.111 218, 182.467 217.655, 181.282 216.099 C 180.195 214.673, 180.054 214.716, 179.976 216.500 C 179.923 217.713, 179.172 216.732, 178.068 214.009 C 175.787 208.382, 177.316 203.611, 181.009 204.832 C 182.245 205.241, 182.282 205.061, 181.224 203.779 C 180.182 202.516, 180.206 202.135, 181.357 201.693 C 182.817 201.133, 182.886 204.108, 181.556 210.250 C 180.900 213.280, 181.212 213.492, 184.066 211.965 C 185.266 211.323, 186 211.297, 186 211.897 C 186 212.430, 185.100 213.151, 184 213.500 C 182.900 213.849, 182 214.502, 182 214.951 C 182 216.104, 186.936 216.913, 187.583 215.866 C 187.877 215.390, 187.326 215, 186.359 215 C 184.991 215, 184.867 214.733, 185.800 213.800 C 186.733 212.867, 187.267 212.867, 188.200 213.800 C 189.656 215.256, 192 215.380, 192 214 C 192 213.450, 191.178 213, 190.174 213 C 189.170 213, 187.282 211.864, 185.978 210.476 C 183.542 207.883, 185.277 207.171, 188.750 209.338 C 189.556 209.841, 190 209.544, 190 208.500 C 190 207.610, 189.550 207.160, 189 207.500 C 188.450 207.840, 188 207.694, 188 207.176 C 188 206.657, 189.013 205.956, 190.250 205.617 C 192.127 205.102, 192.251 204.837, 191 204.015 C 189.726 203.179, 189.772 203.028, 191.309 203.015 C 192.434 203.006, 192.844 202.557, 192.395 201.830 C 191.909 201.043, 192.217 200.869, 193.336 201.299 C 194.423 201.716, 195 201.428, 195 200.469 C 195 199.661, 195.450 199, 196 199 C 197.369 199, 197.261 199.673, 195.446 202.443 C 193.256 205.785, 195.511 206.904, 198.327 203.872 L 200.500 201.532 200.820 203.766 C 200.995 204.995, 201.606 206, 202.177 206 C 202.747 206, 202.964 205.348, 202.658 204.551 C 202.294 203.603, 202.582 203.286, 203.491 203.635 C 205.753 204.503, 203.286 208.888, 200.889 208.261 C 198.370 207.602, 195.346 209.969, 197.203 211.146 C 199.488 212.596, 201.421 212.212, 200.065 210.579 C 199.097 209.412, 199.255 209.254, 200.943 209.695 C 202.074 209.991, 203 210.662, 203 211.186 C 203 211.710, 204.012 211.985, 205.250 211.796 C 206.487 211.607, 207.387 210.901, 207.250 210.226 C 206.893 208.475, 208.673 208.706, 209.362 210.500 C 210.491 213.444, 208.022 216.463, 206.500 214 C 206.160 213.450, 205.346 213.007, 204.691 213.015 C 203.972 213.025, 204.095 213.421, 205 214.015 C 206.283 214.858, 206.295 215.132, 205.083 215.912 C 203.341 217.034, 199.188 215.589, 197.317 213.211 C 196.292 211.908, 196.034 211.852, 196.236 212.976 C 196.381 213.788, 197.067 215.062, 197.759 215.807 C 199.059 217.205, 198.599 219, 196.941 219 C 196.423 219, 196 218.325, 196 217.500 C 196 215.522, 194.105 215.595, 191.823 217.661 C 190.813 218.574, 189.666 218.999, 189.273 218.606 C 188.880 218.213, 189.220 217.473, 190.029 216.961 C 190.838 216.449, 191.085 216.024, 190.579 216.015 C 187.845 215.970, 185.953 219.291, 187.647 221.162 C 188.639 222.259, 188.844 223, 188.155 223 C 187.520 223, 187 223.450, 187 224 C 187 224.550, 188.425 225, 190.167 225 C 191.908 225, 193.032 224.699, 192.664 224.331 C 190.927 222.594, 195.158 220.159, 198.121 221.192 C 200.866 222.149, 200.950 222.320, 199.289 223.580 C 197.674 224.805, 197.840 224.938, 201 224.953 C 203.481 224.965, 204.082 224.705, 203.064 224.061 C 201.893 223.320, 201.863 222.870, 202.900 221.620 C 203.600 220.777, 203.914 219.669, 203.597 219.157 C 203.281 218.646, 203.943 217.987, 205.068 217.692 C 206.738 217.256, 206.899 217.416, 205.945 218.566 C 201.646 223.746, 231.742 228.779, 237.658 223.869 C 238.533 223.143, 239 223.116, 239 223.791 C 239 224.360, 240.463 224.704, 242.250 224.555 C 247.035 224.157, 247.180 224.099, 246.434 222.893 C 245.957 222.122, 245.490 222.197, 244.890 223.143 C 244.258 224.142, 244.027 224.170, 244.015 223.250 C 244.007 222.563, 243.298 222, 242.441 222 C 241.584 222, 241.160 221.550, 241.500 221 C 241.840 220.450, 241.684 220, 241.153 220 C 240.622 220, 240.423 219.100, 240.710 218 C 241.238 215.983, 244 215.143, 244 217 C 244 217.550, 243.512 218, 242.917 218 C 239.383 218, 243.478 220.468, 247.441 220.726 C 251.778 221.009, 252.194 220.851, 251.735 219.095 C 251.377 217.725, 251.637 217.307, 252.613 217.682 C 253.376 217.975, 254 218.567, 254 218.999 C 254 219.701, 257.900 221.168, 260.500 221.443 C 261.050 221.501, 261.437 222.325, 261.361 223.274 C 261.242 224.755, 262.200 225, 268.111 225 C 274.384 225, 276.929 223.945, 273.750 222.662 C 272.750 222.259, 272.750 222.142, 273.750 222.079 C 274.438 222.036, 275.036 220.988, 275.079 219.750 C 275.122 218.512, 275.386 218.065, 275.664 218.756 C 276.536 220.919, 277.756 219.174, 277.244 216.495 C 276.845 214.409, 276.367 214.071, 274.628 214.643 C 273.458 215.028, 271.713 215.294, 270.752 215.234 C 269.790 215.174, 268.537 215.997, 267.967 217.062 C 267.208 218.480, 267.252 219, 268.131 219 C 268.793 219, 269.049 219.284, 268.702 219.631 C 268.355 219.979, 268.469 221.009, 268.957 221.920 C 269.676 223.263, 269.337 223.596, 267.172 223.677 C 265.702 223.732, 265.298 223.567, 266.273 223.311 C 267.814 222.906, 267.672 222.496, 265.188 220.172 C 263.616 218.703, 262.533 216.894, 262.781 216.153 C 263.140 215.078, 262.803 215.035, 261.116 215.938 C 259.952 216.561, 259 217.573, 259 218.188 C 259 218.803, 258.100 218.268, 257 217 C 254.872 214.547, 254.432 213.531, 255.886 214.430 C 256.374 214.731, 257.018 214.037, 257.319 212.888 C 257.642 211.654, 258.330 211.086, 259.001 211.501 C 259.625 211.887, 259.870 212.895, 259.545 213.743 C 259.057 215.015, 259.217 215.065, 260.464 214.030 C 261.295 213.340, 262.655 213.037, 263.487 213.357 C 265.180 214.006, 265.404 213.186, 264.096 211.122 C 263.616 210.364, 262.770 210.024, 262.217 210.366 C 261.663 210.708, 260.952 210.316, 260.636 209.494 C 260.321 208.672, 259.358 208, 258.496 208 C 257.240 208, 257.141 207.604, 258 206 C 258.854 204.404, 258.760 204, 257.535 204 C 256.691 204, 256 204.525, 256 205.167 C 256 205.808, 255.686 206.019, 255.302 205.635 C 254.918 205.251, 254.131 205.792, 253.552 206.836 C 252.778 208.234, 251.972 208.525, 250.500 207.938 C 248.804 207.262, 248.766 207.130, 250.250 207.070 C 251.985 207.001, 252.822 204, 251.107 204 C 249.931 204, 248.677 206.950, 248.700 209.664 C 248.712 211.125, 248.257 211.652, 247.301 211.285 C 246.487 210.973, 246.144 210.066, 246.495 209.151 C 246.831 208.277, 246.819 207.847, 246.470 208.197 C 246.120 208.547, 244.971 207.971, 243.917 206.917 C 241.839 204.839, 239 204.349, 239 206.067 C 239 206.680, 238.147 206.864, 237 206.500 C 235.853 206.136, 235 206.320, 235 206.933 C 235 207.520, 234.564 208, 234.031 208 C 233.499 208, 233.319 207.331, 233.633 206.514 C 234.271 204.852, 230.478 203, 226.435 203 C 223.638 203, 223.419 202.438, 225.429 200.429 C 227.223 198.634, 228 198.617, 228 200.372 C 228 201.815, 235.360 203.513, 237.061 202.463 C 237.577 202.143, 238 202.246, 238 202.691 C 238 203.136, 239.082 203.500, 240.405 203.500 C 241.727 203.500, 242.600 203.162, 242.345 202.750 C 242.091 202.338, 242.839 202, 244.008 202 C 245.680 202, 245.999 202.428, 245.500 204 C 245.122 205.192, 245.320 206, 245.992 206 C 246.611 206, 246.793 205.474, 246.395 204.830 C 245.909 204.043, 246.217 203.869, 247.336 204.299 C 248.251 204.650, 249 204.532, 249 204.036 C 249 203.540, 249.900 202.849, 251 202.500 C 252.100 202.151, 253 201.390, 253 200.810 C 253 200.159, 252.421 200.236, 251.486 201.012 C 250.194 202.084, 250.036 201.919, 250.411 199.884 C 250.653 198.573, 250.892 197.275, 250.941 197 C 250.990 196.725, 251.405 197.091, 251.863 197.813 C 253.359 200.172, 263.836 200.175, 265.098 197.817 C 266.133 195.883, 266.218 195.878, 267.955 197.662 C 268.939 198.673, 269.519 199.888, 269.244 200.362 C 268.559 201.542, 271.010 202.933, 272.659 202.300 C 273.397 202.018, 274 201.133, 274 200.334 C 274 199.535, 274.457 199.165, 275.016 199.510 C 275.575 199.856, 275.768 200.567, 275.444 201.091 C 275.120 201.615, 277.025 204.023, 279.677 206.442 L 284.500 210.840 282 211.856 C 279.646 212.814, 279.628 212.877, 281.683 212.937 C 285.495 213.047, 285.559 209.479, 281.806 206.065 C 279.988 204.412, 278.163 203.045, 277.750 203.029 C 277.337 203.013, 277 202.523, 277 201.941 C 277 201.359, 277.500 201.191, 278.112 201.569 C 278.723 201.947, 279.616 201.636, 280.096 200.878 C 280.765 199.823, 280.980 199.969, 281.016 201.500 C 281.042 202.600, 281.771 204.400, 282.635 205.500 L 284.207 207.500 283.626 205.500 C 283.307 204.400, 283.528 202.825, 284.117 202 C 285.050 200.694, 285.124 200.706, 284.687 202.091 C 284.036 204.154, 284.881 205.269, 288.202 206.727 C 290.593 207.777, 290.835 207.717, 290.305 206.207 C 289.816 204.815, 289.955 204.731, 291.053 205.750 C 291.794 206.438, 293.097 206.982, 293.950 206.960 C 294.844 206.937, 294.324 206.282, 292.720 205.412 C 291.192 204.583, 290.200 203.486, 290.517 202.973 C 291.819 200.866, 288.994 197.966, 286.210 198.554 C 283.924 199.037, 283.777 198.950, 285.268 198.003 C 286.240 197.386, 287.999 197.020, 289.175 197.190 C 290.352 197.361, 291.527 196.875, 291.787 196.111 C 292.074 195.266, 291.817 194.995, 291.130 195.420 C 290.508 195.804, 290 195.690, 290 195.166 C 290 193.772, 292.831 192.917, 293.557 194.092 C 293.970 194.761, 294.598 194.749, 295.431 194.057 C 296.120 193.485, 297.004 193.337, 297.395 193.728 C 297.786 194.119, 297.773 193.553, 297.366 192.470 C 296.724 190.762, 296.838 190.673, 298.224 191.799 C 299.456 192.799, 299.992 192.821, 300.565 191.894 C 301.037 191.131, 300.886 190.952, 300.155 191.405 C 299.470 191.827, 299 191.483, 299 190.559 C 299 189.702, 298.325 189, 297.500 189 C 296.675 189, 296 189.505, 296 190.122 C 296 190.942, 295.628 190.936, 294.622 190.101 C 293.537 189.200, 293.127 189.408, 292.689 191.080 C 292.383 192.250, 291.656 192.906, 291.067 192.542 C 290.480 192.179, 290 192.344, 290 192.910 C 290 193.475, 289.325 193.678, 288.500 193.362 C 287.675 193.045, 287 193.284, 287 193.893 C 287 194.502, 287.563 195.032, 288.250 195.070 C 288.938 195.109, 288.600 195.503, 287.500 195.947 C 286.361 196.406, 284.962 196.323, 284.250 195.754 C 283.353 195.037, 283 195.214, 283 196.378 C 283 197.270, 282.587 198, 282.082 198 C 281.577 198, 280.413 198.288, 279.495 198.640 C 278.252 199.117, 277.906 198.799, 278.138 197.390 C 278.310 196.351, 278.053 194.867, 277.569 194.092 C 276.883 192.997, 277.170 192.811, 278.861 193.253 C 280.098 193.577, 281.640 193.217, 282.437 192.420 C 283.302 191.555, 284.033 191.407, 284.345 192.034 C 284.623 192.593, 284.736 192.476, 284.596 191.775 C 284.456 191.074, 283.253 189.944, 281.921 189.265 C 279.643 188.103, 280.467 187.499, 283.750 187.925 C 284.438 188.015, 285 187.195, 285 186.103 C 285 183.073, 286.900 182.550, 289.888 184.759 C 292.859 186.956, 298.125 184.630, 296.422 181.873 C 295.963 181.131, 296.120 180.956, 296.845 181.405 C 297.480 181.797, 298 181.668, 298 181.118 C 298 178.992, 295.942 178.983, 295.156 181.107 C 294.536 182.783, 294.125 183.011, 293.512 182.019 C 292.995 181.183, 293.339 180.225, 294.447 179.415 C 295.430 178.696, 295.904 177.555, 295.526 176.817 C 295.155 176.092, 295.497 176.287, 296.286 177.250 C 297.818 179.119, 302 179.668, 302 178 C 302 177.450, 302.450 177, 303 177 C 304.847 177, 304.022 178.650, 301.500 180 C 298.829 181.429, 298.613 181.877, 299.765 183.596 C 300.735 185.042, 306.405 186.464, 305.525 185.040 C 305.171 184.468, 305.310 184, 305.834 184 C 306.869 184, 308.317 187.017, 307.617 187.716 C 307.381 187.952, 305.570 187.699, 303.594 187.154 C 299.658 186.067, 299.228 186.371, 301.497 188.640 C 302.391 189.534, 303.801 189.881, 304.997 189.501 C 306.147 189.136, 307 189.320, 307 189.933 C 307 190.520, 306.212 191.032, 305.250 191.070 C 303.754 191.130, 303.790 191.265, 305.500 192 C 306.600 192.473, 306.907 192.891, 306.183 192.930 C 305.307 192.976, 305.089 193.704, 305.531 195.099 C 306.087 196.848, 305.872 197.094, 304.240 196.576 C 302.305 195.962, 299.101 198.435, 300.291 199.624 C 301.172 200.505, 303.112 198.989, 302.457 197.931 C 301.363 196.161, 303.511 197.073, 306.383 199.598 C 308.532 201.487, 308.978 202.422, 308.133 203.267 C 307.510 203.890, 307 205.261, 307 206.313 C 307 207.856, 306.438 208.145, 304.100 207.801 C 301.528 207.424, 301.248 207.637, 301.620 209.688 C 301.971 211.625, 301.612 212, 299.403 212 C 297.293 212, 296.867 212.384, 297.270 213.925 C 297.623 215.276, 297.360 215.692, 296.387 215.318 C 295.559 215.001, 295 215.434, 295 216.393 C 295 217.277, 294.502 218, 293.893 218 C 293.284 218, 293.020 218.609, 293.305 219.353 C 293.873 220.832, 290.721 224.018, 288.739 223.970 C 288.026 223.952, 288.206 223.527, 289.161 222.969 C 290.075 222.436, 290.700 221.212, 290.550 220.250 C 290.399 219.287, 291.227 217.953, 292.388 217.285 C 293.550 216.617, 293.998 216.055, 293.385 216.035 C 292.772 216.016, 291.080 216.936, 289.625 218.080 C 288.171 219.224, 286.482 219.994, 285.873 219.791 C 284.694 219.398, 292.250 214, 293.979 214 C 294.540 214, 295 213.573, 295 213.052 C 295 212.466, 293.910 212.484, 292.143 213.100 C 290.572 213.648, 288.885 214.021, 288.393 213.929 C 284.607 213.225, 282.643 214.019, 284.559 215.481 C 286.239 216.763, 286.298 217.097, 285 217.962 C 283.926 218.679, 283.181 218.537, 282.377 217.464 C 281.694 216.553, 280.561 216.231, 279.487 216.643 C 277.820 217.283, 277.827 217.405, 279.610 218.795 C 280.808 219.730, 280.951 220.100, 280 219.807 C 277.865 219.148, 274.866 222.466, 276.300 223.900 C 276.905 224.505, 278.071 225, 278.891 225 C 280.008 225, 279.895 224.632, 278.441 223.532 C 277.374 222.724, 277.007 222.049, 277.628 222.032 C 278.248 222.014, 279.278 222.630, 279.917 223.400 C 281.205 224.952, 331.030 225.816, 330.968 224.285 C 330.922 223.139, 328.405 220, 327.533 220 C 327.122 220, 327.045 220.675, 327.362 221.500 C 327.678 222.325, 327.549 223, 327.076 223 C 325.824 223, 325.272 220.948, 325.548 217.322 C 325.741 214.792, 325.471 214.266, 324.222 214.745 C 323.126 215.166, 322.823 214.904, 323.217 213.878 C 323.595 212.892, 323.081 212.356, 321.653 212.249 C 320.483 212.161, 319.970 212.406, 320.513 212.794 C 321.831 213.737, 322.040 217, 320.782 217 C 320.234 217, 320.037 217.655, 320.345 218.456 C 320.765 219.552, 320.174 219.861, 317.954 219.706 C 314.983 219.499, 313.706 218, 316.500 218 C 317.325 218, 318 217.550, 318 217 C 318 216.450, 317.523 216, 316.941 216 C 316.359 216, 316.177 215.523, 316.537 214.940 C 316.953 214.267, 317.731 214.541, 318.668 215.690 C 320.023 217.352, 320.099 217.235, 319.597 214.250 C 319.296 212.463, 319.475 211, 319.994 211 C 320.513 211, 320.678 210.325, 320.362 209.500 C 319.821 208.090, 321.782 207.547, 326.750 207.731 C 327.437 207.757, 328 207.330, 328 206.782 C 328 206.234, 328.675 206.045, 329.500 206.362 C 330.423 206.716, 331 206.360, 331 205.436 C 331 204.611, 330.028 203.576, 328.840 203.136 C 326.771 202.371, 326.760 202.300, 328.590 201.475 C 331.240 200.280, 336.349 200.295, 337.235 201.500 C 337.650 202.065, 337.976 201.738, 337.985 200.750 C 338.002 198.815, 339.515 198.405, 340.537 200.060 C 340.951 200.730, 341.697 200.454, 342.564 199.310 C 343.888 197.564, 343.938 197.564, 343.968 199.309 C 343.986 200.304, 344.457 200.835, 345.016 200.490 C 345.575 200.144, 345.723 199.330, 345.344 198.681 C 344.966 198.031, 345.634 198.357, 346.828 199.405 C 348.748 201.089, 349 201.118, 349 199.655 C 349 198.745, 349.477 198, 350.059 198 C 350.641 198, 350.842 198.446, 350.505 198.992 C 350.168 199.538, 350.352 200.775, 350.915 201.742 C 351.796 203.254, 351.943 203.119, 351.970 200.781 C 351.993 198.670, 352.369 198.204, 353.652 198.697 C 354.917 199.182, 354.762 198.598, 352.993 196.205 C 351.722 194.485, 350.191 193.319, 349.591 193.613 C 348.991 193.908, 349.297 193.496, 350.270 192.699 C 351.919 191.349, 351.866 191.250, 349.502 191.250 C 346.744 191.250, 345.356 192.484, 346.984 193.490 C 347.543 193.835, 348 194.568, 348 195.118 C 348 195.668, 347.500 195.809, 346.888 195.431 C 346.277 195.053, 345.347 195.364, 344.823 196.122 C 344.153 197.089, 344.065 196.807, 344.525 195.178 C 345.162 192.922, 345.099 192.896, 342.340 194.290 C 340.778 195.080, 338.919 195.519, 338.208 195.266 C 335.944 194.459, 338.945 192, 342.194 192 C 343.816 192, 345.894 191.249, 346.812 190.331 C 348.370 188.773, 348.299 188.708, 345.740 189.350 C 342.531 190.156, 342.166 189.516, 344.977 188.012 C 346.415 187.243, 347.499 187.295, 348.952 188.202 C 350.435 189.128, 351.241 189.159, 352.078 188.322 C 353.342 187.058, 357.311 189.687, 356.390 191.178 C 355.606 192.447, 357.295 192.091, 359.310 190.564 C 360.454 189.697, 360.730 188.951, 360.060 188.537 C 359.477 188.177, 359 188.374, 359 188.976 C 359 189.763, 358.416 189.758, 356.922 188.958 C 355.678 188.293, 355.074 187.250, 355.416 186.358 C 355.833 185.273, 355.493 185.026, 354.161 185.449 C 352.064 186.115, 348.433 182.727, 349.461 181.063 C 349.822 180.478, 349.585 180, 348.934 180 C 348.152 180, 347.954 181.018, 348.350 183 C 348.808 185.290, 348.587 186, 347.416 186 C 346.490 186, 346.154 185.505, 346.568 184.750 C 346.945 184.063, 346.071 184.718, 344.627 186.206 C 343.182 187.695, 342 189.382, 342 189.956 C 342 190.530, 341.587 191, 341.082 191 C 340.577 191, 339.452 191.273, 338.582 191.607 C 337.552 192.002, 337 191.664, 337 190.638 C 337 189.567, 336.457 189.271, 335.301 189.715 C 333.927 190.242, 334.033 189.762, 335.859 187.198 C 337.587 184.772, 337.875 183.615, 337.088 182.264 C 336.523 181.294, 336.047 181.030, 336.030 181.677 C 336.014 182.324, 335.212 183.059, 334.250 183.311 C 332.583 183.746, 332.583 183.774, 334.250 183.884 C 336.483 184.032, 336.451 184.549, 334.063 186.938 C 332.744 188.256, 331.970 188.495, 331.641 187.688 C 331.269 186.773, 331.140 186.774, 331.079 187.691 C 331.036 188.346, 331.450 189.160, 332 189.500 C 333.639 190.513, 333.157 194, 331.378 194 C 330.049 194, 329.980 194.271, 331 195.500 C 332.003 196.709, 331.978 197.015, 330.872 197.077 C 326.330 197.330, 323.836 198.613, 325.571 199.804 C 327.184 200.911, 327.234 206.027, 325.626 205.410 C 323.762 204.695, 321.435 200.081, 321.813 197.848 C 322.006 196.706, 321.529 196, 320.563 196 C 319.703 196, 319.053 196.337, 319.118 196.750 C 319.502 199.176, 318.840 200.084, 317.092 199.529 C 314.512 198.710, 311.546 204.283, 313.058 207.108 C 313.615 208.149, 314.465 209, 314.947 209 C 315.924 209, 315.763 211.570, 314.720 212.614 C 313.840 213.493, 310.870 211.019, 311.528 209.955 C 311.806 209.505, 311.013 208.418, 309.767 207.540 C 307.847 206.188, 307.730 205.799, 309 205.003 C 309.825 204.485, 310.500 203.036, 310.500 201.781 C 310.500 200.416, 311.032 199.610, 311.824 199.775 C 312.553 199.926, 312.859 199.581, 312.505 199.008 C 312.151 198.436, 311.443 198.226, 310.931 198.543 C 309.568 199.385, 309.794 197.622, 311.250 196.053 C 312.262 194.962, 312.214 194.805, 311 195.225 C 309.962 195.585, 309.456 195.013, 309.356 193.372 C 309.252 191.660, 309.739 191, 311.106 191 C 313.239 191, 313.658 192.547, 311.750 193.377 C 311.063 193.676, 311.688 193.677, 313.141 193.379 C 314.593 193.082, 316.082 193.324, 316.450 193.919 C 317.209 195.148, 319.016 195.385, 318.968 194.250 C 318.871 191.959, 315.899 189.544, 314.976 191.005 C 314.257 192.142, 314.020 191.781, 313.985 189.500 C 313.947 187.022, 313.766 186.797, 312.943 188.208 C 312.395 189.148, 311.379 189.699, 310.684 189.432 C 308.731 188.683, 308.885 184.769, 310.923 183.341 C 313.572 181.486, 313.362 177.004, 310.625 176.986 C 307.083 176.964, 304.169 175.883, 303.592 174.378 C 303.146 173.217, 303.436 173.163, 305.161 174.086 C 307.753 175.473, 312.933 175.918, 313.617 174.811 C 314.397 173.549, 317.768 173.857, 318.407 175.250 C 318.723 175.938, 318.709 175.419, 318.375 174.099 C 317.893 172.189, 318.093 171.822, 319.353 172.305 C 321.398 173.090, 322.372 171.488, 321.163 169.327 C 320.517 168.172, 320.635 167.222, 321.538 166.319 C 323.087 164.770, 324.391 164.558, 323.500 166 C 323.160 166.550, 323.359 167, 323.941 167 C 324.523 167, 325 166.615, 325 166.144 C 325 165.672, 326.238 165.320, 327.750 165.361 C 329.262 165.402, 331.625 165.083, 333 164.652 C 334.878 164.064, 335.127 164.130, 334 164.919 C 332.508 165.964, 335.063 166.567, 338.824 166.058 C 339.552 165.959, 340.693 166.330, 341.358 166.882 C 342.125 167.519, 343.103 167.541, 344.034 166.943 C 346.185 165.560, 343.285 163.890, 340.114 164.686 L 337.711 165.289 339.855 163.145 C 341.035 161.965, 342.464 161, 343.031 161 C 343.599 161, 344.322 160.325, 344.638 159.500 C 344.955 158.675, 345.896 158, 346.729 158 C 347.963 158, 348.013 158.279, 347 159.500 C 345.541 161.257, 345.957 161.347, 349.435 160.025 C 351.053 159.409, 352 159.402, 352 160.006 C 352 160.532, 350.905 161.237, 349.567 161.573 C 347.999 161.966, 347.327 162.689, 347.678 163.604 C 347.978 164.386, 347.640 165.729, 346.926 166.589 C 345.856 167.879, 345.880 168.308, 347.064 169.044 C 347.934 169.584, 348.632 169.552, 348.835 168.962 C 349.020 168.426, 349.541 168.216, 349.993 168.496 C 350.445 168.775, 351.751 168.658, 352.895 168.235 C 354.958 167.471, 354.959 167.456, 352.987 166.224 C 351.687 165.412, 351 165.352, 351 166.051 C 351 166.638, 350.550 166.840, 350 166.500 C 349.450 166.160, 349 165.207, 349 164.382 C 349 163.557, 349.470 163.172, 350.044 163.527 C 350.618 163.882, 351.630 163.741, 352.294 163.215 C 353.545 162.221, 355.254 162.306, 358.250 163.510 C 359.235 163.906, 360 163.767, 360 163.190 C 360 162.627, 359.437 161.975, 358.750 161.741 C 358.063 161.508, 358.982 161.095, 360.793 160.825 C 363.347 160.444, 363.964 160.651, 363.543 161.749 C 363.244 162.527, 363 163.828, 363 164.641 C 363 165.453, 362.645 165.899, 362.212 165.631 C 361.779 165.363, 361.336 166.214, 361.227 167.523 C 361.119 168.831, 361.469 170.172, 362.004 170.502 C 362.554 170.842, 362.718 170.429, 362.382 169.552 C 362.054 168.698, 362.284 168, 362.893 168 C 363.502 168, 364 168.750, 364 169.667 C 364 170.583, 364.309 171.024, 364.687 170.646 C 365.296 170.037, 365.627 168.618, 366.176 164.250 C 366.263 163.563, 366.821 162.986, 367.417 162.970 C 368.012 162.953, 367.659 162.450, 366.630 161.853 C 365.101 160.964, 365.010 160.588, 366.130 159.789 C 367.223 159.009, 367.179 158.913, 365.909 159.313 C 365.034 159.589, 363.684 159.413, 362.909 158.923 C 361.919 158.296, 362.493 158.026, 364.842 158.015 C 366.713 158.007, 369.327 158.899, 370.779 160.041 C 373.051 161.828, 373.482 161.890, 374.237 160.541 C 374.711 159.694, 375.640 159.007, 376.300 159.015 C 377.102 159.026, 377.150 159.274, 376.445 159.765 C 375.752 160.248, 375.983 161.074, 377.118 162.173 C 378.600 163.608, 378.926 163.636, 379.411 162.371 C 379.775 161.424, 379.562 161.152, 378.819 161.612 C 378.063 162.079, 377.866 161.791, 378.252 160.786 C 378.577 159.938, 378.339 158.739, 377.722 158.122 C 376.893 157.293, 377.059 157, 378.359 157 C 379.326 157, 379.859 156.581, 379.543 156.069 C 378.701 154.708, 380.715 153.775, 382.958 154.487 C 384.130 154.859, 384.678 155.676, 384.342 156.551 C 383.659 158.330, 385.130 158.443, 386.925 156.750 C 387.891 155.839, 388.365 155.810, 388.673 156.644 C 388.906 157.273, 389.992 157.553, 391.088 157.267 C 392.942 156.782, 392.967 156.621, 391.448 154.942 C 389.916 153.249, 389.954 153.175, 392.064 153.727 C 393.606 154.130, 394.090 153.955, 393.604 153.169 C 393.152 152.436, 393.433 152.229, 394.385 152.594 C 395.275 152.936, 395.630 153.836, 395.267 154.833 C 394.721 156.334, 394.860 156.326, 396.659 154.750 C 397.758 153.787, 398.913 153, 399.225 153 C 400.394 153, 399.915 164.435, 398.715 165.197 C 396.588 166.549, 395.847 166.065, 396.498 163.750 C 396.950 162.143, 396.857 161.897, 396.172 162.887 C 395.594 163.723, 394.191 164.078, 392.641 163.782 C 391.227 163.512, 389.863 163.788, 389.611 164.395 C 389.314 165.110, 388.778 164.970, 388.091 164 C 386.912 162.333, 386.601 163.858, 387.765 165.599 C 388.585 166.824, 392.189 167.114, 391.434 165.894 C 391.172 165.469, 391.866 165.190, 392.978 165.273 C 394.090 165.357, 395 165.832, 395 166.329 C 395 166.826, 396.125 167.018, 397.500 166.755 C 400.878 166.109, 400.638 167.130, 396.913 169.250 C 393.026 171.462, 391.903 171.462, 392.666 169.250 C 393.152 167.839, 392.966 167.888, 391.704 169.500 C 390.844 170.600, 390.533 171.642, 391.014 171.815 C 391.494 171.988, 391.640 172.775, 391.337 173.565 C 390.687 175.259, 391.043 175.314, 394.399 174.038 C 396.034 173.417, 397.143 173.423, 397.534 174.055 C 397.866 174.592, 398.559 174.773, 399.073 174.455 C 399.603 174.128, 399.898 175.422, 399.754 177.436 C 399.614 179.394, 399.163 180.997, 398.750 180.998 C 398.337 180.999, 398 181.643, 398 182.429 C 398 183.214, 397.238 184.619, 396.307 185.551 C 394.715 187.142, 394.727 187.327, 396.503 188.626 C 397.969 189.698, 398.125 190.275, 397.196 191.204 C 396.288 192.112, 396 192.117, 396 191.221 C 396 189.342, 389.289 193.161, 388.103 195.716 C 387.331 197.378, 387.428 198.285, 388.489 199.347 C 389.268 200.125, 389.626 201.040, 389.286 201.381 C 388.945 201.721, 389.447 202, 390.401 202 C 391.742 202, 391.974 202.508, 391.423 204.242 C 390.791 206.235, 390.894 206.333, 392.356 205.120 C 394.108 203.665, 394.594 201, 393.107 201 C 392.616 201, 391.946 200.302, 391.618 199.448 C 391.277 198.558, 391.445 198.157, 392.011 198.507 C 392.555 198.843, 393.498 198.810, 394.107 198.434 C 394.907 197.939, 394.894 197.553, 394.059 197.037 C 393.234 196.527, 393.352 195.952, 394.476 195.020 C 395.789 193.930, 395.953 193.958, 395.480 195.193 C 395.077 196.240, 395.578 196.644, 397.207 196.584 C 398.856 196.524, 399.590 197.132, 399.820 198.750 C 400.007 200.070, 399.614 201, 398.870 201 C 397.882 201, 397.867 201.267, 398.800 202.200 C 400.284 203.684, 400.370 206, 398.941 206 C 398.359 206, 398.162 205.547, 398.504 204.993 C 398.847 204.439, 398.418 203.714, 397.551 203.381 C 395.759 202.694, 392.738 204.767, 393.570 206.113 C 393.871 206.601, 393.641 207, 393.059 207 C 392.477 207, 392 207.436, 392 207.969 C 392 208.501, 392.675 208.678, 393.500 208.362 C 395.302 207.670, 395.537 209.587, 393.750 210.407 C 393.063 210.723, 393.515 210.730, 394.755 210.422 C 397.544 209.729, 398.801 212.262, 396.910 214.763 C 395.794 216.239, 395.807 216.312, 396.998 215.250 C 399.224 213.265, 399.853 213.745, 400.272 217.750 L 400.664 221.500 400.832 217.450 C 400.924 215.222, 400.438 212.794, 399.750 212.053 C 398.809 211.039, 398.802 210.877, 399.723 211.396 C 400.684 211.937, 400.955 189.345, 400.986 106.043 L 401.026 -0 200.513 -0 L 0 0 0 105 M 373.579 164.541 C 373.211 166.006, 372.485 166.800, 371.864 166.416 C 371.154 165.977, 371.015 166.473, 371.458 167.868 C 371.984 169.524, 371.789 169.856, 370.565 169.387 C 369.704 169.056, 369 168.384, 369 167.893 C 369 167.402, 368.561 167, 368.025 167 C 367.409 167, 367.385 167.883, 367.961 169.397 C 368.462 170.716, 368.676 172.066, 368.436 172.397 C 368.196 172.729, 368.284 172.791, 368.631 172.535 C 368.979 172.280, 370.204 172.730, 371.354 173.535 C 374.469 175.717, 376.342 175.414, 375.668 172.837 C 375.167 170.924, 375.274 170.845, 376.585 172.156 C 377.863 173.434, 377.877 174.009, 376.686 176.305 C 375.925 177.770, 374.973 178.640, 374.570 178.237 C 374.167 177.834, 374.166 178.815, 374.568 180.416 C 375.184 182.870, 375.039 183.229, 373.650 182.696 C 372.557 182.276, 372 182.583, 372 183.603 C 372 185.383, 374.489 188.178, 375.327 187.339 C 375.638 187.028, 375.825 187.668, 375.743 188.761 C 375.607 190.566, 375.331 190.485, 372.720 187.874 C 371.139 186.293, 369.206 185, 368.423 185 C 367.640 185, 367 184.550, 367 184 C 367 183.450, 366.494 183.113, 365.875 183.250 C 365.256 183.388, 364.528 182.890, 364.257 182.145 C 363.898 181.160, 364.341 180.973, 365.882 181.462 C 368.309 182.233, 368.363 182.086, 366.983 178.456 C 366.283 176.615, 365.583 176.055, 364.733 176.657 C 363.625 177.443, 361.327 177.610, 360 177.001 C 358.335 176.237, 353.951 176.270, 353.469 177.050 C 353.154 177.560, 353.706 177.710, 354.698 177.383 C 355.689 177.056, 355.220 177.684, 353.655 178.777 C 350.119 181.247, 351.425 182.248, 357.685 181.863 C 362.437 181.571, 362.806 181.895, 363.225 186.750 C 363.354 188.243, 365.625 188.416, 366.500 187 C 367.471 185.428, 370 185.832, 370 187.559 C 370 188.416, 369.581 188.859, 369.069 188.543 C 368.557 188.226, 367.856 188.425, 367.510 188.984 C 367.165 189.543, 366.121 190.007, 365.191 190.015 C 362.044 190.044, 360.468 191.654, 361.899 193.379 C 363.794 195.661, 358.629 202.300, 355.613 201.458 C 354.083 201.032, 353.880 201.132, 354.878 201.823 C 355.636 202.347, 355.922 203.318, 355.513 203.979 C 355.050 204.728, 356.792 207.083, 360.135 210.227 C 363.086 213.002, 365.357 215.933, 365.182 216.742 C 364.722 218.867, 367.298 217.743, 368.539 215.278 C 369.111 214.142, 370.178 212.490, 370.911 211.607 C 371.645 210.723, 371.910 210, 371.500 210 C 371.090 210, 371.324 209.314, 372.020 208.476 C 372.716 207.638, 372.996 206.663, 372.643 206.309 C 372.289 205.956, 372 206.192, 372 206.833 C 372 207.475, 371.627 208, 371.171 208 C 370.714 208, 370.377 206.988, 370.421 205.750 C 370.477 204.148, 370.001 203.584, 368.766 203.790 C 367.561 203.992, 367.212 203.611, 367.623 202.540 C 368.435 200.425, 369.614 200.610, 371.380 203.131 C 372.272 204.406, 373.488 205.027, 374.404 204.675 C 375.247 204.352, 376.202 204.518, 376.527 205.044 C 376.852 205.570, 376.754 206.003, 376.309 206.006 C 375.236 206.015, 371.787 212.121, 372.470 212.804 C 372.763 213.097, 374.034 212.785, 375.294 212.110 C 377.230 211.074, 378.592 210.657, 381.941 210.077 C 382.184 210.034, 381.581 209.414, 380.602 208.698 C 379.035 207.553, 379.312 207.403, 382.908 207.448 C 385.841 207.485, 386.999 207.923, 387.012 209 C 387.028 210.313, 387.146 210.317, 387.962 209.028 C 388.759 207.767, 388.987 207.803, 389.553 209.278 C 389.917 210.225, 390.646 211, 391.174 211 C 392.280 211, 391.153 206.662, 389.924 206.185 C 389.478 206.012, 389.325 205.317, 389.585 204.640 C 390.455 202.372, 385.699 199.373, 381.336 199.438 C 378.673 199.479, 377.406 199.104, 377.692 198.361 C 377.932 197.734, 379.057 197.464, 380.191 197.760 C 381.514 198.106, 382.595 197.688, 383.207 196.594 C 383.959 195.251, 384.463 195.139, 385.581 196.067 C 386.361 196.715, 387.035 196.852, 387.077 196.372 C 387.620 190.214, 387.358 188.727, 385.560 187.765 C 383.676 186.756, 383.686 186.672, 385.921 184.863 C 389.016 182.357, 391.386 182.416, 390.715 184.983 C 390.270 186.685, 390.473 186.817, 392.150 185.920 C 393.225 185.344, 393.972 184.090, 393.809 183.132 C 393.647 182.174, 394.377 180.065, 395.432 178.445 C 396.980 176.068, 397.026 175.765, 395.675 176.872 C 394.754 177.627, 394 177.875, 394 177.422 C 394 176.970, 393.460 177.140, 392.800 177.800 C 392.140 178.460, 390.790 179, 389.800 179 C 388.810 179, 388 179.675, 388 180.500 C 388 181.325, 387.438 182.002, 386.750 182.004 C 384.199 182.011, 378.597 186.133, 379.977 186.986 C 380.972 187.601, 380.831 187.916, 379.395 188.287 C 378.200 188.596, 378.496 188.739, 380.195 188.675 C 382.299 188.595, 382.652 188.285, 381.803 187.262 C 381.204 186.541, 381.029 185.638, 381.412 185.255 C 382.428 184.239, 383.969 187.099, 383.969 190 C 383.969 191.886, 383.746 192.147, 383.061 191.064 C 382.311 189.879, 381.879 189.855, 380.587 190.928 C 378.890 192.336, 379.446 194.461, 381.224 193.362 C 381.885 192.953, 382.020 193.158, 381.570 193.886 C 381.164 194.544, 379.970 194.808, 378.916 194.473 C 377.510 194.027, 376.996 194.349, 376.985 195.683 C 376.972 197.221, 376.821 197.270, 376.003 196 C 375.344 194.977, 375.441 194.182, 376.307 193.500 C 377.033 192.928, 377.663 189.931, 377.778 186.500 C 378.158 175.212, 378.033 175.786, 379.795 177.213 C 380.774 178.006, 381.117 178.055, 380.689 177.340 C 379.555 175.449, 380.966 173.178, 382.952 173.698 C 383.954 173.960, 385.077 173.685, 385.446 173.087 C 385.827 172.470, 385.397 172, 384.452 172 C 383.344 172, 382.989 171.471, 383.393 170.418 C 383.727 169.548, 384 168.648, 384 168.418 C 384 168.188, 384.675 168, 385.500 168 C 386.325 168, 387 167.534, 387 166.965 C 387 166.263, 386.356 166.274, 385 167 C 383.900 167.589, 382.985 167.717, 382.966 167.285 C 382.947 166.853, 382.112 168.234, 381.109 170.352 C 379.488 173.779, 379.224 173.965, 378.721 172.041 C 378.364 170.675, 378.680 169.676, 379.578 169.332 C 380.360 169.032, 381 167.683, 381 166.334 C 381 164.928, 380.567 164.150, 379.984 164.510 C 379.425 164.856, 379.195 165.506, 379.473 165.956 C 379.751 166.405, 379.360 167.286, 378.606 167.912 C 377.091 169.170, 376 167.498, 376 163.918 C 376 161.135, 374.326 161.566, 373.579 164.541" stroke="none" fill="#1a1a2e" fill-rule="evenodd"/>
</svg>