<svg xmlns="http://www.w3.org/2000/svg" width="400" height="261" viewBox="0 0 400 261" version="1.1">
	<path d="M 272.195 5.460 C 269.364 7.407, 266.587 9, 266.024 9 C 265.461 9, 265 9.441, 265 9.981 C 265 10.520, 263.875 11.244, 262.500 11.589 C 261.125 11.934, 260 12.579, 260 13.021 C 260 14.074, 238.129 25, 236.021 25 C 235.129 25, 233.972 25.376, 233.450 25.835 C 232.927 26.294, 230.363 27.456, 227.750 28.417 C 222.741 30.261, 221.959 31.519, 224.615 33.460 C 226.009 34.480, 224.785 35.983, 215.632 44.495 C 206.102 53.357, 198.740 62, 200.721 62 C 201.133 62, 199.882 62.851, 197.941 63.892 C 193.115 66.478, 171.939 62.091, 160.100 56.051 C 155.102 53.501, 150.463 53.452, 144.072 55.881 L 139.122 57.762 137.451 53.631 C 136.532 51.359, 135.591 49.026, 135.359 48.447 C 135.111 47.827, 136.695 47.305, 139.219 47.175 C 166.012 45.802, 168.220 44.341, 164.948 30.151 C 163.105 22.159, 164.853 22.366, 129.707 25.981 C 98.692 29.172, 94.903 29.958, 92.697 33.664 C 92.111 34.647, 91.385 34.741, 90.019 34.010 C 87.517 32.671, 85 33.752, 85 36.166 C 85 37.240, 84.586 37.862, 84.080 37.549 C 82.926 36.836, 79.005 41.711, 78.985 43.885 C 78.972 45.199, 78.806 45.242, 78.091 44.113 C 76.472 41.556, 67.884 41.500, 64.684 44.026 C 58.369 49.011, 54.381 60.781, 57.836 64.236 C 58.476 64.876, 59 66.912, 59 68.759 C 59 70.744, 59.409 71.865, 60 71.500 C 62.282 70.089, 62.948 72.251, 60.996 74.732 L 58.957 77.325 61.153 79.662 C 64.140 82.842, 67.187 82.646, 69.258 79.140 C 70.187 77.567, 70.651 75.985, 70.290 75.623 C 69.928 75.261, 71.065 74.424, 72.816 73.763 C 74.567 73.102, 76 72.242, 76 71.851 C 76 69.848, 83.036 73.590, 87.458 77.944 C 99.105 89.410, 118.671 92.947, 139.622 87.371 C 159.505 82.080, 230.049 81.962, 250 87.186 C 254.125 88.267, 257.950 89.257, 258.500 89.386 C 260.711 89.908, 264.625 91.178, 266.750 92.063 C 267.988 92.578, 270.012 93.422, 271.250 93.938 C 286.798 100.419, 301.306 101.837, 312 97.920 C 315.025 96.812, 318.288 95.649, 319.250 95.336 C 321.748 94.523, 321.412 93.107, 318.455 91.983 C 316.609 91.281, 313.455 91.562, 306.966 93.008 C 302.046 94.103, 296.588 95, 294.836 95 C 291.456 95, 275 87.462, 275 85.914 C 275 85.411, 274.314 85, 273.475 85 C 272.636 85, 269.047 82.300, 265.500 79 C 258.698 72.672, 256.244 71.779, 254.285 74.916 C 252.967 77.026, 251.124 76.674, 232.500 70.750 C 228.005 69.320, 222.950 68.519, 218.374 68.512 L 211.248 68.500 214.313 64 C 224.152 49.554, 245.273 26, 248.388 26 C 249.183 26, 249.983 25.627, 250.167 25.170 C 250.675 23.906, 261.299 17, 262.737 17 C 263.431 17, 264 16.580, 264 16.067 C 264 15.554, 264.978 14.824, 266.173 14.445 C 267.368 14.066, 268.831 13.337, 269.423 12.826 C 270.015 12.316, 272.750 10.452, 275.500 8.685 C 280.490 5.478, 281.909 2.799, 278.921 2.223 C 278.052 2.056, 275.026 3.512, 272.195 5.460 M 175.678 100.066 C 166.985 103.594, 158.706 110.045, 144.994 123.975 C 128.924 140.302, 129.977 139.699, 107.402 145.473 C 77.893 153.019, 33.153 169.198, 12.743 179.703 C -2.197 187.392, 0.175 192.071, 22.750 199.446 C 25.638 200.389, 28.003 201.687, 28.007 202.330 C 28.038 207.631, 46.359 212.775, 81.792 217.433 L 101.085 219.968 111.292 230.292 C 128.414 247.608, 150.594 260, 164.468 260 C 170.121 260, 170.206 260.465, 162.759 250.691 C 146.058 228.773, 143.990 222.440, 153.250 221.576 C 165.412 220.441, 166.387 220.158, 156.793 220.547 C 146.393 220.969, 144.812 219.876, 150.869 216.452 C 153.005 215.245, 153.124 215.002, 151.500 215.161 C 147.589 215.545, 137.726 212.771, 130.169 209.162 C 120.026 204.318, 104.585 203.847, 97.256 208.157 L 93.012 210.653 96.574 214.815 L 100.136 218.977 97.318 218.490 C 95.768 218.221, 87.300 217.075, 78.500 215.943 C 51.018 212.407, 34.381 208.289, 30.571 204.078 C 28.159 201.413, 29.525 201.114, 37.500 202.564 C 51.959 205.193, 51.767 205.170, 49.035 203.979 C 47.679 203.389, 41.604 202.058, 35.535 201.023 C 29.466 199.988, 22.676 198.486, 20.447 197.684 C 14.053 195.386, 4 190.069, 4 188.986 C 4 187.759, 3.366 187.721, 12.662 189.500 C 21.794 191.247, 22 191.262, 22 190.171 C 22 189.714, 21.212 189.368, 20.250 189.402 C 16.554 189.530, 7 187.728, 7 186.904 C 7 186.428, 9.138 184.926, 11.750 183.566 C 14.363 182.206, 16.145 181.072, 15.710 181.047 C 15.276 181.021, 13.138 181.909, 10.960 183.020 C 8.782 184.132, 7 184.816, 7 184.541 C 7 183.439, 15.291 179.898, 16.649 180.419 C 17.449 180.726, 17.869 180.597, 17.582 180.132 C 15.725 177.128, 75.456 155.151, 107.927 146.891 C 116.459 144.721, 125.816 141.857, 128.720 140.528 C 135.291 137.519, 135.636 138.110, 129.250 141.434 C 126.638 142.794, 124.860 143.928, 125.300 143.953 C 128.042 144.113, 134.188 139.073, 146.500 126.568 C 155.082 117.851, 162.919 110.872, 166.750 108.532 C 173.320 104.520, 175.092 102.867, 170 105.500 C 168.350 106.353, 167 106.824, 167 106.546 C 167 105.847, 174.488 102.092, 179.192 100.432 L 183.079 99.061 182.501 102.280 C 182.182 104.051, 181.827 111.646, 181.711 119.158 C 181.479 134.165, 180.976 135.766, 179.959 124.729 L 179.293 117.500 179.217 123.500 C 179.132 130.207, 180.054 133.500, 182.017 133.500 C 182.741 133.500, 183.542 134.125, 183.796 134.889 C 184.105 135.815, 183.831 136.014, 182.975 135.485 C 182.127 134.960, 181.937 135.088, 182.415 135.862 C 182.813 136.506, 183.634 136.726, 184.239 136.352 C 184.913 135.936, 185.126 136.230, 184.787 137.113 C 184.482 137.906, 185.193 139.671, 186.367 141.035 C 189.114 144.228, 193.591 147.921, 192.533 146.120 C 191.973 145.167, 192.151 144.897, 193.111 145.245 C 193.875 145.523, 194.402 146.213, 194.282 146.779 C 194.162 147.345, 194.811 148.414, 195.724 149.154 C 197.122 150.288, 197.253 150.283, 196.553 149.120 C 195.975 148.161, 196.145 147.894, 197.111 148.245 C 197.875 148.523, 198.376 149.290, 198.225 149.949 C 198.074 150.609, 198.387 150.879, 198.920 150.549 C 199.454 150.220, 202.727 150.601, 206.195 151.397 C 209.663 152.193, 218.635 154.253, 226.133 155.975 C 233.632 157.697, 244.207 159.696, 249.633 160.417 C 258.766 161.631, 259.128 161.760, 254.500 162.159 C 251.750 162.396, 253.775 162.591, 259 162.593 C 264.989 162.595, 267.206 162.350, 265 161.930 C 262.032 161.365, 261.906 161.243, 264.168 161.132 C 265.636 161.059, 267.622 160.699, 268.582 160.330 C 269.836 159.849, 270.107 160.018, 269.543 160.930 C 268.925 161.931, 269.205 161.960, 270.869 161.070 C 272.030 160.449, 272.872 159.473, 272.740 158.902 C 272.394 157.403, 284.906 152.506, 286.080 153.680 C 286.675 154.275, 286.601 155.846, 285.882 157.909 C 285.041 160.322, 284.506 160.836, 283.866 159.846 C 283.242 158.883, 283.077 159.095, 283.285 160.593 C 283.444 161.744, 285.274 164.669, 287.350 167.093 C 289.427 169.517, 290.788 170.600, 290.375 169.500 C 289.714 167.737, 289.822 167.659, 291.281 168.846 C 292.191 169.586, 292.838 170.700, 292.718 171.322 C 292.598 171.944, 293.625 172.554, 295 172.678 L 297.500 172.903 295 172.051 C 290.955 170.673, 294.953 170.885, 302.407 172.445 C 308.428 173.705, 309.670 173.705, 312.107 172.445 C 313.643 171.650, 315.261 171.020, 315.700 171.045 C 316.140 171.070, 314.475 172.175, 312 173.500 C 306.558 176.414, 307.451 176.831, 313.034 173.983 C 315.209 172.873, 316.879 171.467, 316.744 170.858 C 316.610 170.248, 317.125 169.523, 317.889 169.245 C 318.786 168.919, 319.013 169.170, 318.529 169.953 C 318.071 170.694, 319 170.534, 320.923 169.540 C 322.704 168.619, 323.774 167.444, 323.394 166.828 C 322.996 166.185, 323.289 165.941, 324.111 166.231 C 326.101 166.935, 333.215 163.157, 332.396 161.832 C 331.996 161.184, 332.286 160.940, 333.111 161.231 C 335.151 161.952, 342.214 158.156, 341.371 156.792 C 340.924 156.068, 341.224 155.872, 342.204 156.248 C 344.106 156.978, 366.500 144.708, 366.500 142.936 C 366.500 142.238, 367.125 141.458, 367.889 141.204 C 368.856 140.881, 369.020 141.160, 368.428 142.120 C 367.884 143.003, 368.586 142.841, 370.375 141.670 C 377.965 136.707, 372.608 141.950, 360.306 151.526 C 329.035 175.868, 319.129 180.303, 283.500 185.910 C 276.900 186.949, 272.693 187.844, 274.151 187.899 C 283.006 188.235, 315.620 180.742, 325.643 176.069 C 337.009 170.770, 376.119 141.726, 389.947 128.314 C 393.493 124.875, 396.513 122.180, 396.658 122.324 C 397.252 122.919, 395.716 126.942, 395.052 126.532 C 394.655 126.287, 391.527 129.217, 388.101 133.044 L 381.872 140.001 384.575 141.028 C 387.866 142.280, 387.850 142.295, 388.154 137.779 C 388.289 135.774, 388.647 134.216, 388.950 134.317 C 389.252 134.417, 389.574 134.100, 389.665 133.612 C 389.755 133.123, 390.231 132.448, 390.723 132.112 C 391.214 131.775, 392.377 130.387, 393.308 129.027 C 394.239 127.668, 395 127.038, 395 127.627 C 395 128.217, 393.650 130.564, 392 132.841 C 390.350 135.119, 389 138.085, 389 139.432 C 389 142.643, 387.893 143.207, 384.150 141.902 C 381.148 140.856, 380.783 141.090, 369.747 151.164 C 339.665 178.623, 318.714 190.901, 307.833 187.447 C 298.078 184.351, 285.278 195.369, 291.455 201.545 L 293.909 204 290.405 204 C 287.211 204, 281 201.655, 281 200.449 C 281 200.174, 282.328 200.635, 283.950 201.474 C 287.226 203.168, 291.448 203.534, 290.527 202.044 C 290.202 201.518, 289.316 201.325, 288.558 201.616 C 287 202.214, 281 199.409, 281 198.083 C 281 197.278, 286.010 195.539, 286.421 196.201 C 286.524 196.366, 287.055 197.573, 287.603 198.885 C 288.518 201.075, 288.600 200.969, 288.600 197.605 C 288.600 195.172, 288.198 194.094, 287.404 194.398 C 286.746 194.651, 284.315 195.424, 282.002 196.118 C 278.192 197.259, 277.965 197.501, 279.589 198.689 C 282.653 200.929, 279.895 200.129, 275.327 197.451 C 270.534 194.642, 264.044 194.994, 257.500 198.418 C 255.850 199.281, 253.845 199.990, 253.044 199.994 C 249.390 200.009, 236.015 207.291, 237.563 208.423 C 238.738 209.281, 237.272 209.503, 231.298 209.368 L 223.500 209.193 230 209.906 C 234.400 210.389, 238.914 211.812, 243.972 214.310 C 251.164 217.862, 258 219.145, 258 216.943 C 258 216.361, 257.514 213.956, 256.920 211.597 C 255.812 207.197, 256.979 199.749, 258.969 198.519 C 264.002 195.409, 270.837 195.970, 277.304 200.025 C 285.012 204.858, 289.251 206.167, 293.960 205.168 L 297.419 204.435 294.210 202.149 C 288.480 198.069, 292.656 190.093, 301.379 188.457 C 306.867 187.427, 308.138 188.149, 312.434 194.735 C 325.575 214.879, 334.611 224, 341.427 224 L 343.725 224 340.417 215.250 C 333.598 197.208, 334.413 192.582, 346.267 182.058 C 362.764 167.412, 379.042 150.977, 380.730 147.264 C 381.671 145.194, 382.504 143.375, 382.582 143.222 C 382.659 143.069, 383.908 143.395, 385.356 143.945 C 388.163 145.012, 391.983 141.399, 390.531 139.050 C 390.178 138.479, 391.007 136.546, 392.373 134.755 C 394.532 131.925, 399 122.847, 399 121.292 C 399 119.386, 391.501 122.939, 384.147 128.330 C 372.052 137.196, 366.142 140.780, 336.038 157.507 L 309.576 172.210 302.072 170.927 C 293.773 169.507, 285.195 163.523, 286.527 160.083 C 290.467 149.908, 286.129 149.276, 270.101 157.691 C 263.533 161.139, 249.564 160.204, 228.755 154.925 C 224.495 153.844, 217.295 152.260, 212.755 151.404 C 199.082 148.828, 190.837 143.696, 185.364 134.358 C 182.402 129.305, 182.231 127.082, 183.467 109.750 C 184.428 96.279, 184.571 96.457, 175.678 100.066 M 367.500 154.200 C 339.684 179.486, 332.590 183.920, 312.774 188.409 L 310.048 189.026 313.079 193.263 C 314.746 195.593, 318.401 201.037, 321.200 205.359 C 327.714 215.416, 343.354 227.466, 340.529 220.250 C 331.920 198.269, 332.683 192.295, 345.565 180.820 C 368.673 160.235, 382.211 145.546, 379.870 143.599 C 379.667 143.430, 374.100 148.200, 367.500 154.200 M 104 206.621 C 95.117 208.262, 95.244 209.088, 106.142 220.487 C 111.170 225.746, 115.051 230.282, 114.766 230.567 C 114.482 230.852, 113.007 229.609, 111.490 227.806 C 105.604 220.811, 94.805 209.601, 95.782 211.500 C 104.719 228.870, 148.201 259.062, 162.482 257.813 L 166.067 257.500 159.442 248.523 C 146.588 231.105, 143.710 224.395, 146.655 218.700 C 148.202 215.708, 148.200 215.590, 146.632 216.891 C 145.184 218.093, 145.033 218.077, 145.532 216.778 C 145.965 215.648, 145.129 215.116, 142.174 214.644 C 140.009 214.298, 134.737 212.352, 130.457 210.319 C 122.666 206.619, 112.047 205.135, 104 206.621" stroke="none" fill="#1a1a2e" fill-rule="evenodd"/>
</svg>