<svg xmlns="http://www.w3.org/2000/svg" width="400" height="133" viewBox="0 0 400 133" version="1.1">
	<path d="M 158.500 24 C 157.400 24.473, 154.991 24.891, 153.147 24.930 C 149.530 25.006, 136.290 30.837, 129 35.566 C 126.525 37.171, 123.375 39.054, 122 39.751 C 119.767 40.882, 120.087 40.963, 125 40.507 C 128.025 40.226, 132.975 39.779, 136 39.513 L 141.500 39.029 135 40.490 C 131.425 41.294, 122.319 42.386, 114.764 42.916 C 100.387 43.926, 93.939 45.941, 88.324 51.180 C 87.127 52.296, 85.688 52.925, 85.125 52.577 C 82.663 51.056, 62.016 56.050, 62.004 58.171 C 62 58.755, 56.916 60.260, 55.524 60.089 C 55.244 60.054, 53.423 60.920, 51.477 62.013 C 49.531 63.106, 47.284 64, 46.483 64 C 45.682 64, 43.417 65.688, 41.450 67.750 C 38.662 70.674, 38.007 71.023, 38.478 69.333 C 39.080 67.172, 35.786 66.920, 34.483 69.027 C 34.216 69.459, 33.098 69.577, 31.999 69.289 C 30.848 68.989, 30 69.259, 30 69.927 C 30 70.565, 29.212 70.955, 28.250 70.794 C 27.229 70.622, 26.613 71.048, 26.772 71.815 C 26.921 72.538, 26.056 74.517, 24.849 76.212 C 22.392 79.662, 23.398 83.147, 27.500 85.401 C 28.600 86.006, 29.725 86.756, 30 87.070 C 30.275 87.383, 33.074 89.525, 36.220 91.829 C 39.366 94.133, 42.426 96.927, 43.020 98.037 C 43.614 99.148, 44.524 99.794, 45.042 99.474 C 45.560 99.154, 47.899 100.205, 50.242 101.809 C 56.483 106.084, 62.602 109.006, 65.210 108.956 C 66.971 108.922, 66.674 108.617, 63.921 107.633 C 58.265 105.611, 55.334 103.306, 57.658 102.707 C 58.807 102.411, 58.372 102.187, 56.500 102.111 C 54.850 102.045, 52.150 100.905, 50.500 99.580 L 47.500 97.169 56.500 97.579 C 61.963 97.828, 67.661 98.765, 71 99.962 C 74.025 101.047, 78.750 101.903, 81.500 101.864 C 86.968 101.787, 85.602 101.225, 75.500 99.396 C 73.300 98.997, 72.228 98.499, 73.119 98.288 C 74.009 98.077, 75.134 97.037, 75.619 95.977 C 76.277 94.539, 76.880 94.302, 78 95.044 C 79.297 95.904, 79.238 96.238, 77.559 97.519 C 75.749 98.900, 75.900 99, 79.809 99 C 82.835 99, 84 98.590, 84 97.526 C 84 94.438, 89.314 92.909, 92.575 95.058 C 97.111 98.049, 101.186 94.358, 97.829 90.298 C 96.647 88.869, 97.733 84.717, 99.072 85.544 C 99.582 85.860, 100 86.807, 100 87.649 C 100 91.833, 108.282 94.034, 110.320 90.392 C 110.829 89.484, 111.892 89.148, 113.074 89.524 C 114.230 89.890, 115 89.665, 115 88.959 C 115 88.206, 115.894 88.008, 117.488 88.408 C 118.856 88.751, 120.822 88.504, 121.855 87.858 C 122.978 87.157, 124.494 87.011, 125.618 87.496 C 126.653 87.942, 128.016 88.350, 128.647 88.403 C 129.278 88.457, 131.426 89.983, 133.420 91.795 C 135.414 93.607, 137.458 94.835, 137.961 94.524 C 138.465 94.213, 139.242 94.579, 139.689 95.338 C 140.862 97.332, 148.292 99.625, 148.785 98.144 C 149.444 96.168, 152.171 96.893, 154.831 99.750 C 156.770 101.833, 157.195 102.015, 156.582 100.500 C 154.915 96.380, 154.797 94.949, 156.004 93.495 C 157.970 91.126, 158.654 91.681, 160.019 96.750 C 160.723 99.362, 162.162 102.462, 163.219 103.638 C 164.275 104.815, 164.995 106.586, 164.819 107.576 C 164.345 110.250, 181.313 112.779, 184.891 110.568 C 185.501 110.190, 186 110.414, 186 111.063 C 186 111.903, 186.470 111.855, 187.625 110.896 C 188.519 110.154, 190.544 109.683, 192.125 109.849 C 193.706 110.015, 195 109.667, 195 109.075 C 195 108.484, 194.325 108, 193.500 108 C 190.929 108, 191.859 106.279, 194.750 105.687 C 196.262 105.377, 198.400 104.398, 199.500 103.510 C 201.452 101.935, 201.440 101.913, 199 102.580 C 197.625 102.957, 196.350 103.655, 196.167 104.132 C 195.983 104.609, 195.164 105, 194.345 105 C 193.063 105, 193.075 104.782, 194.429 103.429 C 195.293 102.564, 196 101.470, 196 100.996 C 196 100.522, 196.919 99.843, 198.042 99.487 C 199.421 99.049, 199.903 98.270, 199.528 97.087 C 198.423 93.606, 202.610 91.309, 204.946 94.114 C 206.601 96.100, 206.939 96.208, 206.967 94.756 C 207.001 92.956, 210.174 92.764, 211.724 94.468 C 212.151 94.937, 211.907 94.978, 211.183 94.560 C 210.346 94.076, 209.948 94.291, 210.091 95.150 C 210.214 95.892, 209.954 97.333, 209.512 98.351 C 208.537 100.598, 208.697 100.708, 221 106.234 L 230.500 110.500 249.500 110.690 C 267.072 110.866, 279.063 109.856, 281.500 107.995 C 282.050 107.575, 283.991 106.912, 285.813 106.522 C 288.876 105.867, 288.990 105.709, 287.313 104.438 C 285.617 103.152, 285.613 103.062, 287.250 103.032 C 288.212 103.014, 289 102.550, 289 102 C 289 101.450, 289.702 101, 290.559 101 C 291.416 101, 291.859 100.581, 291.543 100.069 C 291.226 99.557, 291.425 98.856, 291.984 98.510 C 292.543 98.165, 293 97.009, 293 95.941 C 293 94.873, 293.430 94, 293.955 94 C 294.480 94, 296.034 92.875, 297.409 91.500 C 298.784 90.125, 299.383 89, 298.740 89 C 298.022 89, 298.182 88.390, 299.153 87.418 C 301.242 85.329, 299.487 81.341, 296.105 80.491 C 294.258 80.027, 293.982 79.618, 294.897 78.703 C 295.812 77.788, 296.278 77.832, 296.934 78.894 C 297.482 79.780, 298.671 80.048, 300.273 79.646 C 303.264 78.896, 311.872 83.176, 319.813 89.361 C 339.996 105.082, 357 114.493, 357 109.941 C 357 109.345, 357.547 109.223, 358.250 109.660 C 358.938 110.088, 360.563 110.301, 361.862 110.133 C 363.270 109.951, 363.971 110.238, 363.596 110.845 C 362.577 112.493, 364.625 113.093, 367.518 111.993 C 369.390 111.281, 370.018 110.488, 369.590 109.375 C 369.149 108.225, 369.410 107.943, 370.521 108.370 C 372.753 109.226, 374.369 104.561, 372.836 101.685 C 371.806 99.751, 371.854 99.649, 373.247 100.799 C 375.216 102.422, 376.246 101.030, 375.892 97.227 C 375.752 95.727, 375.974 93.489, 376.385 92.254 C 377.241 89.680, 375.876 84.844, 372.117 77.133 C 367.900 68.485, 367.676 68.155, 365.539 67.456 C 363.549 66.804, 363.547 66.776, 365.458 66.281 C 368.374 65.525, 372.054 62.896, 371.485 61.976 C 371.211 61.533, 371.336 61.020, 371.763 60.835 C 374.667 59.579, 377.791 53.566, 376.177 52.338 C 374.616 51.152, 374.621 51.061, 376.250 51.032 C 377.212 51.014, 378 50.562, 378 50.026 C 378 49.490, 379.462 48.283, 381.250 47.343 L 384.500 45.636 382 45.016 C 379.701 44.446, 379.648 44.313, 381.340 43.358 C 382.351 42.787, 383.139 42.023, 383.090 41.660 C 382.584 37.933, 383.282 36.186, 385.750 35.005 L 388.500 33.688 385.250 32.700 C 383.462 32.156, 382 31.121, 382 30.401 C 382 25.366, 368.652 27.865, 355.496 35.362 C 343.558 42.165, 333.125 46.297, 317.432 50.435 C 306.778 53.245, 304.483 53.172, 294.546 49.708 L 290.591 48.330 292.796 46.443 C 298.924 41.195, 294.325 33.522, 285.213 33.791 C 282.071 33.884, 259.700 34.082, 235.500 34.232 C 211.300 34.381, 184.933 34.907, 176.906 35.400 L 162.312 36.296 162.480 34.028 C 162.571 32.780, 163.560 31.251, 164.677 30.630 C 165.793 30.008, 166.510 28.938, 166.270 28.250 C 166.030 27.563, 166.546 27, 167.417 27 C 168.287 27, 169 26.320, 169 25.488 C 169 24.283, 168.137 24.097, 164.750 24.569 C 161.592 25.009, 160.886 24.888, 162 24.096 C 163.927 22.728, 161.609 22.664, 158.500 24" stroke="none" fill="#1a1a2e" fill-rule="evenodd"/>
</svg>