<svg xmlns="http://www.w3.org/2000/svg" width="400" height="183" viewBox="0 0 400 183" version="1.1">
	<path d="M 186.119 36.702 C 183.319 40.991, 180.341 45.493, 179.500 46.707 C 177.475 49.631, 175.890 49.825, 145 50.934 C 115.306 51.999, 106.419 53.344, 76.413 61.309 C 57.952 66.209, 47.094 68.423, 31.013 70.566 C 17.277 72.396, 12.546 75.546, 16.938 79.938 C 19.762 82.762, 21.363 82.584, 20.597 79.531 C 19.632 75.684, 35.829 69.922, 40.131 72.581 C 40.528 72.826, 42.798 72.397, 45.176 71.627 C 47.554 70.858, 54 69.462, 59.500 68.525 C 65 67.589, 71.518 66.444, 73.985 65.982 C 77.137 65.392, 78.725 65.493, 79.329 66.321 C 79.896 67.099, 80.009 66.936, 79.661 65.841 C 79.124 64.156, 80.499 63.777, 95.750 61.405 C 98.087 61.042, 100 60.434, 100 60.054 C 100 59.675, 101.668 59.496, 103.707 59.656 C 105.746 59.817, 107.658 59.579, 107.957 59.129 C 109.167 57.302, 115.997 57.036, 116.052 58.813 C 116.095 60.174, 116.408 60.065, 117.674 58.250 C 119.618 55.464, 121.662 55.358, 122.500 58 C 122.849 59.100, 123.581 60, 124.126 60 C 124.672 60, 124.842 59.554, 124.505 59.008 C 124.168 58.462, 124.352 57.225, 124.915 56.258 C 125.607 55.071, 125.949 54.946, 125.970 55.872 C 125.991 56.836, 126.373 56.947, 127.250 56.246 C 127.938 55.696, 129.963 55.344, 131.750 55.462 C 133.545 55.582, 135.014 55.191, 135.032 54.589 C 135.049 53.990, 135.661 54.288, 136.392 55.250 C 137.957 57.312, 139.436 57.578, 138.702 55.667 C 138.421 54.933, 138.842 54.333, 139.638 54.333 C 140.435 54.333, 140.875 54.882, 140.618 55.553 C 140.315 56.344, 140.828 56.596, 142.075 56.270 C 143.134 55.993, 144 55.343, 144 54.824 C 144 54.306, 144.419 54.141, 144.931 54.457 C 145.443 54.774, 146.134 54.592, 146.467 54.054 C 146.854 53.427, 147.945 53.473, 149.506 54.185 C 151.263 54.985, 152.306 54.991, 153.252 54.206 C 154.260 53.369, 154.864 53.796, 155.862 56.050 C 156.983 58.584, 157.353 58.789, 158.580 57.563 C 160.470 55.673, 160.405 54.419, 158.500 56 C 157.464 56.860, 157 56.898, 157 56.122 C 157 55.505, 157 54.775, 157 54.500 C 157 54.225, 157.113 54.032, 157.250 54.070 C 157.387 54.109, 158.763 53.660, 160.307 53.073 C 162.073 52.402, 162.886 52.376, 162.498 53.003 C 162.150 53.566, 162.995 54, 164.441 54 C 165.848 54, 167 53.625, 167 53.167 C 167 52.708, 167.735 52.333, 168.632 52.333 C 170.053 52.333, 170.030 52.505, 168.455 53.656 C 167.460 54.384, 166.989 55.321, 167.409 55.740 C 167.829 56.158, 169.001 55.478, 170.014 54.229 C 171.091 52.900, 172.118 52.381, 172.487 52.979 C 172.834 53.540, 172.551 54, 171.859 54 C 170.856 54, 170.853 54.253, 171.842 55.242 C 172.830 56.230, 173.275 56.180, 174.026 54.992 C 174.545 54.171, 174.976 53.860, 174.985 54.300 C 174.993 54.740, 175.769 54.669, 176.708 54.143 C 177.946 53.450, 178.792 53.643, 179.782 54.844 C 180.534 55.755, 180.863 55.938, 180.515 55.250 C 179.661 53.564, 180.811 53.668, 182.579 55.436 C 183.477 56.334, 183.638 57.106, 183.008 57.495 C 181.663 58.326, 181.721 60, 183.094 60 C 183.695 60, 184.433 59.062, 184.732 57.915 C 185.136 56.373, 185.487 56.171, 186.084 57.137 C 186.528 57.855, 187.205 58.128, 187.588 57.745 C 187.971 57.362, 187.658 56.250, 186.893 55.274 C 185.656 53.699, 185.679 53.639, 187.092 54.741 C 187.968 55.424, 188.980 55.687, 189.342 55.325 C 189.704 54.963, 190 55.139, 190 55.717 C 190 57.497, 194.059 58.011, 194.710 56.313 C 195.209 55.014, 195.419 54.997, 196.093 56.202 C 197.081 57.966, 202.945 57.707, 204.094 55.849 C 204.763 54.765, 205.156 54.756, 206.200 55.800 C 207.179 56.779, 207.201 57.258, 206.294 57.818 C 205.594 58.251, 205.442 59.097, 205.925 59.878 C 206.564 60.913, 207.054 60.762, 208.155 59.189 C 209.551 57.196, 209.592 57.202, 212.033 59.748 C 214.467 62.287, 214.504 62.292, 214.820 60.160 C 214.995 58.972, 215.809 58, 216.629 58 C 217.448 58, 217.840 58.450, 217.500 59 C 217.160 59.550, 217.557 60, 218.382 60 C 219.207 60, 220.196 59.492, 220.579 58.872 C 221.052 58.107, 221.586 58.296, 222.235 59.456 C 222.888 60.622, 223.927 60.984, 225.493 60.591 C 227.015 60.209, 227.985 60.518, 228.364 61.507 C 228.679 62.328, 228.426 63, 227.802 63 C 227.178 63, 226.956 63.289, 227.309 63.643 C 227.663 63.996, 228.606 63.742, 229.406 63.078 C 231.722 61.156, 239.284 61.044, 240.731 62.911 C 241.818 64.314, 242.079 64.325, 242.966 63 C 243.858 61.667, 243.973 61.667, 244 63 C 244.027 64.333, 244.138 64.333, 245 63 C 245.883 61.634, 246.441 62.295, 246.101 64.304 C 246.026 64.746, 246.670 65.812, 247.532 66.674 C 248.954 68.097, 249.037 67.977, 248.431 65.371 C 247.787 62.607, 247.822 62.574, 249.349 64.500 C 250.222 65.600, 250.951 66.013, 250.968 65.417 C 251.017 63.755, 253.836 64.131, 254.511 65.889 C 255.014 67.199, 255.245 67.222, 255.978 66.036 C 256.654 64.942, 257.163 64.891, 258.266 65.806 C 259.046 66.453, 259.969 66.697, 260.318 66.349 C 260.666 66, 261.525 66.168, 262.226 66.721 C 263.608 67.812, 264.344 67.947, 270.749 68.279 C 273.086 68.401, 274.998 68.838, 274.999 69.250 C 274.999 69.662, 275.675 70, 276.500 70 C 277.325 70, 278 70.399, 278 70.887 C 278 71.374, 279.238 71.985, 280.750 72.245 C 282.262 72.505, 284.366 73.084, 285.424 73.532 C 286.949 74.179, 287.219 74.014, 286.730 72.738 C 286.390 71.853, 286.425 70.949, 286.806 70.729 C 287.188 70.508, 286.993 70.444, 286.374 70.585 C 285.754 70.727, 280.447 69.319, 274.580 67.457 C 263.045 63.797, 240.072 58.898, 225.250 56.939 C 220.162 56.266, 216 55.303, 216 54.799 C 216 54.295, 215.571 54.147, 215.048 54.471 C 214.524 54.794, 211.261 54.547, 207.798 53.921 C 204.334 53.296, 200.037 52.558, 198.250 52.283 C 196.463 52.007, 195 51.325, 195 50.768 C 195 50.183, 194.371 50.277, 193.513 50.989 C 192.695 51.668, 191.276 51.936, 190.359 51.584 C 188.849 51.005, 188.871 50.810, 190.597 49.504 C 191.643 48.712, 191.964 48.049, 191.309 48.032 C 190.654 48.014, 189.821 48.481, 189.458 49.068 C 189.095 49.656, 188.168 49.895, 187.399 49.600 C 186.537 49.269, 185.994 49.723, 185.985 50.781 C 185.972 52.257, 185.832 52.288, 185 51 C 184.467 50.175, 184.024 49.928, 184.015 50.450 C 184.007 50.973, 183.438 50.830, 182.750 50.133 C 181.748 49.117, 181.860 48.600, 183.310 47.529 C 184.403 46.721, 184.714 45.941, 184.094 45.558 C 182.936 44.842, 185.788 38, 187.244 38 C 187.725 38, 187.840 37.550, 187.500 37 C 187.160 36.450, 187.921 35.964, 189.191 35.921 C 190.461 35.878, 190.938 35.615, 190.250 35.338 C 188.217 34.517, 188.816 33.263, 191.571 32.572 C 192.985 32.217, 193.969 31.408, 193.759 30.776 C 192.810 27.931, 190.853 29.449, 186.119 36.702 M 379 50.306 C 379 51.024, 377.865 53.149, 376.479 55.029 C 375.092 56.909, 374.164 58.984, 374.416 59.640 C 374.668 60.297, 374.227 61.083, 373.437 61.386 C 372.647 61.689, 372 62.604, 372 63.419 C 372 64.234, 371.212 65.407, 370.250 66.026 C 368.630 67.067, 368.639 67.107, 370.371 66.561 C 371.858 66.091, 372.135 66.376, 371.724 67.948 C 371.121 70.255, 373.500 72.880, 374.301 70.792 C 374.573 70.081, 374.751 70.447, 374.696 71.604 C 374.622 73.167, 374.070 73.604, 372.548 73.305 C 371.422 73.084, 371.850 73.523, 373.500 74.281 L 376.500 75.658 374.250 77.070 C 371.608 78.727, 371.335 80, 373.622 80 C 374.997 80, 375.042 80.245, 373.916 81.601 C 372.250 83.608, 371.892 85.815, 373.111 86.568 C 373.623 86.885, 373.021 88.003, 371.771 89.052 C 369.827 90.685, 369.716 91.104, 371 91.964 C 372.323 92.851, 372.317 92.971, 370.950 92.985 C 370.098 92.993, 368.860 92.460, 368.200 91.800 C 367.336 90.936, 367 90.919, 367 91.741 C 367 92.369, 367.498 93.190, 368.107 93.566 C 368.881 94.045, 368.815 94.496, 367.886 95.071 C 367.155 95.522, 366.872 96.205, 367.255 96.588 C 367.638 96.971, 368.648 96.707, 369.500 96 C 370.352 95.293, 371.337 95.004, 371.691 95.357 C 372.044 95.711, 371.808 96, 371.167 96 C 370.525 96, 370 96.527, 370 97.171 C 370 97.815, 369.212 99.231, 368.250 100.317 C 366.890 101.853, 366.832 102.186, 367.990 101.816 C 368.809 101.554, 370.272 102.347, 371.240 103.578 C 373.393 106.315, 373.469 107.117, 371.506 106.364 C 370.684 106.048, 370.229 105.439, 370.494 105.010 C 370.760 104.580, 369.857 104.015, 368.488 103.753 C 365.689 103.218, 365.033 104.601, 367.750 105.311 C 368.950 105.624, 368.723 105.804, 367.027 105.884 L 364.555 106 366.824 107.589 C 368.072 108.463, 369.770 108.918, 370.598 108.601 C 371.452 108.273, 371.839 108.451, 371.493 109.011 C 371.157 109.555, 370.178 110, 369.319 110 C 368.048 110, 367.987 110.279, 368.989 111.487 C 369.697 112.340, 369.954 114.046, 369.593 115.487 C 369.246 116.869, 369.372 118, 369.874 118 C 371.206 118, 372.038 115.263, 371.295 113.326 C 370.765 111.946, 371.001 111.990, 372.640 113.576 C 374.619 115.492, 374.616 115.509, 371.817 117.892 C 369.186 120.132, 369.118 120.376, 370.753 121.716 C 371.714 122.504, 371.938 122.863, 371.250 122.515 C 370.563 122.167, 370 122.359, 370 122.941 C 370 123.523, 370.648 124, 371.441 124 C 373.654 124, 374.187 125.670, 372.509 127.348 C 370.639 129.218, 370.596 130, 372.361 130 C 373.259 130, 373.566 130.817, 373.264 132.402 C 372.914 134.228, 373.338 134.973, 375.034 135.511 C 376.608 136.010, 376.896 136.446, 376.012 136.992 C 375.080 137.569, 375.237 138.044, 376.630 138.853 C 377.659 139.450, 377.964 139.953, 377.309 139.970 C 376.654 139.986, 375.821 139.519, 375.458 138.932 C 375.095 138.344, 374.191 138.096, 373.450 138.381 C 372.529 138.734, 372.291 138.359, 372.698 137.199 C 373.164 135.873, 373.018 135.755, 372.034 136.663 C 370.218 138.339, 371.552 139.825, 375.546 140.575 C 379.786 141.370, 382.425 139.602, 381.524 136.570 C 379.444 129.573, 378.088 123.878, 377.460 119.500 C 377.066 116.750, 376.550 113.600, 376.314 112.500 C 375.034 106.528, 376.396 75.132, 378.075 71.905 C 378.531 71.027, 379.120 69.227, 379.382 67.905 C 379.645 66.582, 381.016 62.602, 382.430 59.060 C 385.852 50.485, 385.789 49, 382 49 C 380.198 49, 379 49.522, 379 50.306" stroke="none" fill="#1a1a2e" fill-rule="evenodd"/>
</svg>