<svg xmlns="http://www.w3.org/2000/svg" width="400" height="272" viewBox="0 0 400 272" version="1.1">
	<path d="M -0 136 L -0 272 200.250 271.750 L 400.500 271.500 400.754 135.750 L 401.007 0 200.504 0 L 0 0 -0 136 M 125.250 44.031 C 123.951 44.553, 123 45.795, 123 46.968 C 123 49.581, 121.326 49.602, 120.500 47 C 119.580 44.102, 118.259 44.546, 117.498 48.009 C 117.135 49.664, 116.455 50.781, 115.988 50.492 C 115.520 50.204, 114.851 50.432, 114.500 51 C 114.149 51.568, 113.474 51.793, 113 51.500 C 112.526 51.207, 111.856 51.425, 111.510 51.984 C 111.165 52.543, 109.942 53, 108.794 53 C 105.343 53, 95 57.172, 95 58.563 C 95 59.330, 97.275 60.331, 100.579 61.016 C 108.259 62.611, 106.981 63.061, 97.981 61.932 C 88.730 60.771, 81.793 58.534, 79.463 55.959 C 77.157 53.411, 76.555 53.487, 75.182 56.500 C 74.464 58.076, 73.204 59.013, 71.771 59.034 C 69.883 59.063, 70.713 60.201, 76.693 65.784 C 87.078 75.479, 98 96.715, 98 107.210 C 98 109.569, 99.664 109.496, 100.957 107.080 C 101.522 106.024, 103.590 104.630, 105.552 103.983 L 109.120 102.805 108.507 97.153 C 108.170 94.044, 107.685 90.487, 107.428 89.250 C 107.172 88.013, 107.381 87, 107.893 87 C 108.405 87, 109.141 88.912, 109.527 91.250 C 110.500 97.130, 110.875 97.466, 113.605 94.901 C 116.680 92.013, 116.669 91.936, 112.361 85.940 C 106.230 77.405, 109.058 60.593, 117.984 52.514 C 122.605 48.333, 125.439 62.882, 121 68 C 119.900 69.268, 119 70.912, 119 71.653 C 119 73.710, 115.031 77.226, 113.410 76.604 C 110.513 75.492, 114.109 84.979, 117.879 88.390 C 119.672 90.013, 120.194 90.084, 121.620 88.900 C 122.532 88.143, 124.228 87.616, 125.389 87.728 C 126.824 87.866, 128.620 86.521, 131 83.526 C 132.925 81.104, 135.287 79.094, 136.250 79.061 C 137.978 79.001, 138.883 75, 137.169 75 C 136.712 75, 135.762 73.925, 135.059 72.610 C 134.356 71.296, 132.684 69.721, 131.343 69.110 C 128.185 67.672, 127.950 67.705, 128.638 69.500 C 128.955 70.325, 128.791 71, 128.274 71 C 126.586 71, 125.995 69.711, 127.082 68.401 C 127.853 67.473, 127.582 65.793, 126.101 62.309 C 124.531 58.615, 124.453 58.080, 125.768 60 C 135.637 74.419, 152.500 83.485, 152.500 74.372 C 152.500 73.342, 154.412 70.097, 156.750 67.160 C 162.535 59.891, 161.314 50, 154.631 50 C 153.826 50, 152.940 49.438, 152.662 48.750 C 152.385 48.063, 152.119 48.400, 152.072 49.500 C 151.999 51.210, 151.706 51.074, 150.050 48.562 C 148.985 46.947, 148.342 45.256, 148.620 44.805 C 149.551 43.299, 145.906 42.722, 143.213 43.949 C 141.355 44.795, 140.445 44.835, 140.193 44.080 C 139.758 42.775, 128.468 42.738, 125.250 44.031 M 62.665 71.296 C 59.681 74.209, 56.057 78.927, 54.612 81.780 C 51.787 87.353, 51.775 87.013, 55.268 99.750 C 56.059 102.638, 56.435 105.007, 56.104 105.015 C 55.772 105.024, 56.120 105.423, 56.877 105.903 C 57.635 106.383, 59.997 106.542, 62.127 106.256 C 66.810 105.628, 67.327 107.330, 62.844 108.616 C 59.398 109.604, 58.466 111.778, 60.625 113.794 C 61.381 114.501, 62 114.836, 62 114.539 C 62 114.243, 63.013 115.013, 64.250 116.250 C 65.487 117.487, 66.501 118.950, 66.502 119.500 C 66.507 122.439, 86.154 120.323, 91.154 116.846 C 92.614 115.831, 94.252 115, 94.793 115 C 96.042 115, 97.245 108.801, 96.415 106.640 C 96.072 105.744, 95.370 105.272, 94.855 105.590 C 94.318 105.921, 94.173 105.160, 94.513 103.804 C 95.868 98.404, 85.431 74.636, 80.427 71.728 C 79.696 71.303, 78.412 70.269, 77.573 69.430 C 76.395 68.252, 75.586 68.151, 74.024 68.987 C 72.911 69.583, 72 69.841, 72 69.560 C 72 69.279, 70.769 69.517, 69.265 70.089 L 66.530 71.129 68.939 68.565 C 73.752 63.442, 68.261 65.832, 62.665 71.296 M 244.726 121.635 C 244.361 122.225, 243.841 125.136, 243.571 128.104 C 242.307 141.973, 241.422 143.296, 225.909 154.500 C 222.495 156.966, 219.222 162.307, 219.015 165.750 C 219.007 165.887, 220.658 166, 222.684 166 C 233.366 166, 244.706 178.781, 245.522 191.737 C 246.136 201.489, 248.538 196.784, 249.945 183.074 C 250.524 177.430, 251.199 172.487, 251.445 172.089 C 251.691 171.691, 252.391 165.575, 253 158.497 C 254.208 144.467, 255.330 140.411, 256.431 146.082 C 259.040 159.511, 261.117 163.410, 265.342 162.807 C 268.330 162.382, 268.015 158.506, 263.974 145.919 L 260.746 135.866 262.873 134.376 C 265.962 132.213, 265.487 131.117, 261.548 131.321 C 258.487 131.480, 258.161 131.758, 258.665 133.782 C 260.538 141.307, 257.816 141.992, 254.460 134.839 C 252.264 130.160, 251.997 129.899, 252.301 132.726 C 252.590 135.428, 252.415 135.759, 251.217 134.765 C 250.216 133.935, 249.935 132.266, 250.281 129.202 C 250.636 126.051, 250.470 125.130, 249.687 125.913 C 247.915 127.685, 247.105 127.186, 246.223 123.781 C 245.764 122.010, 245.090 121.045, 244.726 121.635 M 159.088 132.589 C 155.562 133.909, 152.516 135.150, 152.321 135.346 C 152.125 135.542, 154.640 137.129, 157.910 138.872 C 174.129 147.516, 178.424 168.397, 166.714 181.672 C 164.106 184.628, 169.041 187.695, 173.611 185.958 C 175.605 185.200, 176.532 185.242, 177.072 186.116 C 177.684 187.107, 181.827 180.656, 183.888 175.500 C 184.108 174.950, 185.573 171.756, 187.144 168.403 C 191.202 159.741, 190.999 154.972, 186.250 147.324 C 176.347 131.377, 170.619 128.271, 159.088 132.589 M 146.500 141.134 C 143.750 142.247, 141.140 143.798, 140.700 144.579 C 139.768 146.236, 134 149.420, 134 148.278 C 134 147.852, 131.957 149.698, 129.459 152.380 C 124.038 158.201, 124.114 158.776, 130.737 162 C 137.742 165.410, 138.332 166.314, 131.979 163.900 C 125.730 161.526, 123.540 161.745, 123.387 164.762 C 123.269 167.083, 122.994 166.967, 141.175 172.212 C 146.334 173.700, 148.321 172.738, 147.530 169.136 C 146.964 166.560, 147.202 166.210, 149.880 165.674 C 153.650 164.920, 154.343 161.124, 151.687 155.789 C 148.656 149.703, 149.495 148.500, 156.766 148.500 C 160.195 148.500, 163 148.232, 163 147.905 C 163 146.843, 159.553 144.219, 157.500 143.719 C 155.523 143.238, 155.523 143.231, 157.527 143.116 C 158.643 143.052, 160.555 143.701, 161.777 144.557 C 163 145.413, 164 145.676, 164 145.142 C 164 140.918, 153.163 138.436, 146.500 141.134 M 217.637 171.603 C 214.962 173.471, 213.175 175, 213.664 175 C 214.154 175, 215.562 174.295, 216.793 173.432 C 218.024 172.570, 220.009 172.008, 221.205 172.182 C 222.819 172.418, 221.401 173.515, 215.709 176.436 C 207.538 180.628, 206.571 181.557, 211.999 180 C 213.850 179.469, 214.945 179.393, 214.433 179.831 C 213.920 180.269, 210.873 181.421, 207.662 182.392 C 204.451 183.363, 202.077 184.410, 202.385 184.719 C 203.047 185.380, 198.236 191.835, 192.843 197.523 L 189.029 201.546 195.765 201.826 C 232.182 203.340, 241.377 199.486, 237.163 184.474 C 233.263 170.584, 225.974 165.779, 217.637 171.603 M 306.888 179.500 C 302.826 181.707, 300.003 190.652, 299.734 202.170 L 299.538 210.500 304.269 212.856 C 308.542 214.984, 309 215.546, 309 218.665 C 309 226.448, 310.766 220.314, 311.216 210.967 C 311.813 198.557, 313.961 194.824, 324.427 188 L 331.329 183.500 324.243 183 C 319.013 182.631, 316.363 181.911, 314.120 180.250 C 310.594 177.640, 310.356 177.615, 306.888 179.500 M 329.342 197.449 C 329.678 198.325, 329.128 199.142, 327.949 199.516 C 326.065 200.114, 325.584 201.121, 325.925 203.750 C 326.015 204.438, 325.602 205, 325.009 205 C 324.252 205, 324.239 205.577, 324.965 206.934 C 326.404 209.623, 326.257 210.458, 324.589 209.074 C 323.027 207.778, 321.417 209.248, 322.493 210.989 C 322.844 211.557, 322.439 211.722, 321.541 211.377 C 320.446 210.957, 320.148 211.222, 320.546 212.260 C 321.145 213.819, 318.493 215.422, 316.921 214.451 C 316.427 214.146, 316.297 214.611, 316.633 215.485 C 316.968 216.359, 316.472 217.926, 315.531 218.966 C 304.649 230.991, 323.828 248.687, 337.210 238.968 C 338.700 237.886, 340.500 236.990, 341.210 236.978 C 341.919 236.966, 343.625 236.076, 345 235 C 346.375 233.924, 348.006 233.034, 348.625 233.022 C 349.244 233.010, 350.020 231.650, 350.350 230 C 350.737 228.067, 351.581 226.972, 352.725 226.921 C 353.783 226.874, 353.992 226.637, 353.244 226.336 C 352.553 226.057, 352.242 225.418, 352.553 224.915 C 352.864 224.412, 352.529 223.966, 351.809 223.923 C 348.322 223.720, 346.610 222.860, 341.993 218.994 C 339.247 216.695, 337 214.600, 337 214.339 C 337 213.884, 342.961 217.813, 344 218.952 C 344.275 219.253, 345.175 219.500, 346 219.500 C 346.825 219.500, 347.500 220.025, 347.500 220.667 C 347.500 221.308, 347.910 222.208, 348.410 222.667 C 348.939 223.151, 349.019 222.976, 348.601 222.250 C 347.640 220.580, 349.045 220.719, 351.441 222.532 C 352.509 223.339, 353.971 224, 354.691 224 C 357.651 224, 355.576 221.726, 348.306 217.001 C 344.074 214.250, 341.037 212, 341.556 212.001 C 343.082 212.001, 353.414 216.068, 354.450 217.076 C 355.616 218.210, 359 218.301, 359 217.199 C 359 216.759, 356.942 215.399, 354.427 214.177 C 351.912 212.955, 350.139 212.415, 350.486 212.978 C 351.371 214.409, 350.394 214.255, 346.805 212.399 C 344.802 211.363, 344.123 210.542, 344.883 210.072 C 345.648 209.600, 345.117 208.919, 343.360 208.118 C 340.959 207.024, 340.805 207.060, 341.954 208.445 C 342.678 209.317, 342.799 210, 342.229 210 C 341.113 210, 339.671 206.996, 340.425 206.241 C 340.685 205.981, 342.271 206.247, 343.949 206.832 C 348.133 208.291, 347.805 207.363, 343.500 205.564 C 341.575 204.760, 340 203.629, 340 203.051 C 340 202.473, 339.298 202, 338.441 202 C 337.584 202, 337.161 201.549, 337.501 200.998 C 337.842 200.447, 336.871 199.521, 335.344 198.941 C 333.121 198.095, 332.860 197.700, 334.034 196.958 C 335.105 196.280, 334.596 196.027, 332.143 196.015 C 329.619 196.004, 328.924 196.359, 329.342 197.449" stroke="none" fill="#1a1a2e" fill-rule="evenodd"/>
</svg>