<svg xmlns="http://www.w3.org/2000/svg" width="400" height="337" viewBox="0 0 400 337" version="1.1">
	<path d="M 217.704 0.716 C 219.747 2.150, 218.864 6.032, 216.537 5.849 C 211.791 5.476, 211 5.938, 211 9.079 C 211 12.945, 214.654 12.516, 221.591 7.834 C 226.255 4.686, 227.433 4.722, 228.300 8.039 C 228.705 9.589, 228.218 10.347, 226.361 11.053 C 224.996 11.572, 224.158 12.447, 224.499 12.998 C 225.166 14.077, 223.306 14.410, 218.421 14.087 C 216.638 13.969, 214.798 14.539, 214.049 15.441 C 213.337 16.299, 212.167 17, 211.447 17 C 209.981 17, 209.298 20.113, 209.856 24.250 C 210.085 25.950, 210.838 27, 211.828 27 C 213.290 27, 213.291 27.137, 211.841 28.588 C 209.904 30.524, 205.629 28.515, 206.335 26 C 206.567 25.175, 206.924 23.887, 207.128 23.137 C 207.353 22.314, 205.077 20.426, 201.390 18.374 C 194.485 14.532, 192.655 14.821, 187.706 20.535 L 185.138 23.500 181.319 19.867 C 174.393 13.279, 165.602 12.466, 166.759 18.521 L 167.255 21.113 163.437 18.522 C 161.338 17.097, 159.102 16.130, 158.469 16.373 C 156.203 17.243, 154.306 15.111, 156.111 13.722 C 157.273 12.829, 157.491 11.856, 156.894 10.241 C 155.927 7.629, 154.741 7.403, 153 9.500 C 152.315 10.325, 151.074 11, 150.242 11 C 147.839 11, 143.724 15.963, 144.926 17.411 C 145.636 18.267, 145.232 19.665, 143.569 22.114 C 142.002 24.419, 141.369 26.480, 141.698 28.201 C 142.251 31.094, 139.624 32.650, 136.084 31.527 C 133.374 30.666, 132.621 32.533, 134.312 35.923 C 135.107 37.516, 135.542 39.946, 135.279 41.322 C 134.933 43.128, 135.367 44.126, 136.840 44.914 C 138.221 45.654, 138.980 47.216, 139.190 49.753 C 139.360 51.814, 139.996 53.410, 140.602 53.299 C 142.148 53.018, 141.050 58.298, 139.354 59.300 C 137.728 60.260, 137.599 63.383, 139.073 66.136 C 139.949 67.773, 139.724 68.505, 137.842 70.137 C 135.551 72.124, 135.535 72.124, 134.657 70.157 C 133.754 68.134, 125 70, 125 72.216 C 125 74.154, 123.223 72.691, 121.701 69.500 C 120.783 67.575, 119.636 66, 119.152 66 C 118.668 66, 117.030 64.208, 115.512 62.018 C 112.539 57.727, 110.471 57.479, 112.038 61.601 C 113.226 64.723, 113.229 65, 112.083 65 C 111.579 65, 110.792 63.881, 110.333 62.512 C 109.548 60.169, 109.344 60.106, 106.809 61.423 C 104.157 62.800, 104.132 62.783, 105.087 60.271 C 106.284 57.123, 106.144 56.982, 101.642 56.813 C 99.639 56.738, 98 56.299, 98 55.838 C 98 55.377, 97.550 55, 97 55 C 96.450 55, 96 55.738, 96 56.640 C 96 57.542, 95.213 58.861, 94.250 59.571 C 92.629 60.767, 92.685 60.936, 95 61.868 C 96.375 62.421, 96.974 62.902, 96.332 62.937 C 93.003 63.117, 91.953 61.767, 92.599 58.134 L 93.244 54.500 91.083 56.750 C 89.895 57.988, 87.927 59.036, 86.711 59.079 C 85.495 59.122, 85.063 59.385, 85.750 59.662 C 87.491 60.365, 87.316 62, 85.500 62 C 84.675 62, 84 62.675, 84 63.500 C 84 64.325, 83.842 65, 83.649 65 C 82.316 65, 76.380 62.492, 75.863 61.710 C 74.933 60.305, 68.025 59.988, 64.183 61.175 C 62.359 61.738, 60.607 61.940, 60.290 61.624 C 59.189 60.522, 62.263 58.001, 66.119 56.846 C 68.253 56.207, 70 55.289, 70 54.807 C 70 54.324, 70.870 54.395, 71.934 54.965 C 72.998 55.534, 75.248 56, 76.934 56 C 78.620 56, 80 56.450, 80 57 C 80 57.550, 80.675 58, 81.500 58 C 82.325 58, 83 57.536, 83 56.969 C 83 56.401, 83.787 55.639, 84.750 55.275 C 85.713 54.910, 87.095 54.024, 87.821 53.306 C 88.548 52.588, 90.002 52, 91.052 52 C 93.657 52, 94.622 47.630, 93.019 43.099 C 91.297 38.230, 90.171 37, 87.437 37 C 86.161 37, 84.833 36.538, 84.484 35.974 C 83.082 33.706, 76.579 35.311, 73.425 38.703 L 70.350 42.009 70.192 38.755 C 69.761 29.817, 69.250 27.614, 67.465 26.988 C 66.439 26.628, 65.157 24.626, 64.542 22.423 C 62.992 16.871, 55.627 15.878, 53.708 20.963 C 52.580 23.951, 52.364 24.042, 46.766 23.874 C 42.613 23.749, 40.476 24.164, 39.166 25.350 C 38.163 26.258, 36.815 27, 36.171 27 C 35.527 27, 35 27.955, 35 29.122 C 35 30.809, 35.282 31.011, 36.374 30.105 C 37.451 29.210, 38.114 29.526, 39.453 31.569 C 40.392 33.002, 41.011 34.282, 40.830 34.414 C 40.648 34.547, 39.038 35.237, 37.250 35.949 C 33.596 37.403, 32.958 39, 36.031 39 C 37.149 39, 38.326 39.686, 38.648 40.526 C 39.075 41.638, 39.580 41.764, 40.511 40.991 C 41.429 40.229, 42.800 40.414, 45.394 41.651 C 50.074 43.883, 49.964 45, 45.063 45 C 41.358 45, 41.108 45.190, 40.813 48.232 C 40.565 50.797, 39.885 51.674, 37.516 52.482 C 32.698 54.126, 30.619 56.868, 30.528 61.699 C 30.385 69.316, 27.018 71.534, 15.984 71.280 C 9.233 71.125, 7 71.392, 7 72.356 C 7 73.796, 2.525 78, 0.992 78 C -0.454 78, -0.225 83.729, 1.250 84.417 C 2.250 84.883, 2.250 85.117, 1.250 85.583 C 0.327 86.014, 0 90.321, 0 102.049 L 0 117.931 4.972 118.591 C 8.462 119.054, 10.112 119.776, 10.504 121.014 C 10.812 121.984, 12.145 123.944, 13.467 125.370 C 14.788 126.796, 15.562 128.143, 15.185 128.364 C 14.147 128.972, 10 127.194, 10 126.141 C 10 124.652, 4.941 123.804, 3.448 125.043 C 2.700 125.664, 1.618 125.882, 1.044 125.527 C 0.388 125.122, 0 126.308, 0 128.717 L 0 132.553 4.119 132.160 C 6.870 131.898, 8.526 132.221, 9.104 133.134 C 10.549 135.415, 10.132 136, 7.059 136 C 5.441 136, 3.840 136.450, 3.500 137 C 3.153 137.561, 3.941 138, 5.295 138 C 6.622 138, 8.892 139.097, 10.338 140.438 C 13.399 143.275, 21 143.900, 21 141.315 C 21 140.278, 20.359 140.057, 18.750 140.540 C 16.629 141.176, 16.597 141.114, 18.181 139.462 C 19.778 137.797, 20.021 137.868, 23.008 140.854 C 24.738 142.584, 26.553 144, 27.042 144 C 27.530 144, 28.448 144.968, 29.081 146.151 L 30.231 148.301 27.272 146.194 C 25.012 144.585, 24.037 144.363, 23.143 145.257 C 22.251 146.149, 21.238 146.151, 18.891 145.265 C 16.706 144.440, 15.319 144.408, 14.122 145.156 C 12.845 145.954, 11.524 145.698, 8.687 144.105 C 6.626 142.947, 4.278 142, 3.470 142 C 2.661 142, 2 141.100, 2 140 C 2 138.900, 1.567 138, 1.037 138 C 0.438 138, 0.055 151.963, 0.025 174.958 L -0.023 211.917 4.238 212.983 C 12.983 215.171, 18.741 217.130, 20.923 218.659 C 22.159 219.525, 26.578 221.955, 30.741 224.059 C 34.904 226.163, 38.657 228.444, 39.079 229.128 C 39.691 230.118, 40.155 230.116, 41.357 229.119 C 42.583 228.101, 43.370 228.196, 45.554 229.628 C 48.076 231.280, 48.319 231.284, 49.481 229.694 C 51.141 227.424, 53.648 227.547, 54.271 229.928 C 54.618 231.255, 55.823 231.957, 58.138 232.178 C 60.995 232.452, 61.549 232.926, 61.825 235.340 C 62.118 237.896, 62.417 238.105, 64.825 237.432 C 70.459 235.857, 72.477 236.305, 72.812 239.202 C 73.176 242.358, 76.003 243.640, 78.778 241.906 C 81.780 240.032, 88.268 241.581, 87.503 243.989 C 86.384 247.517, 96.748 245.581, 99.135 241.816 C 100.378 239.856, 100.172 236.964, 98.809 237.250 C 98.155 237.387, 97.457 236.769, 97.260 235.876 C 96.844 233.988, 101.805 232.603, 103.617 234.101 C 104.333 234.693, 105.186 234.481, 105.990 233.512 C 106.680 232.681, 107.865 232, 108.622 232 C 109.380 232, 110 231.550, 110 231 C 110 230.450, 111.070 230, 112.378 230 C 113.685 230, 115.315 229.325, 116 228.500 C 116.889 227.429, 119.241 227, 124.231 227 L 131.217 227 130.529 224.250 C 130.150 222.738, 129.202 221.140, 128.420 220.700 C 127.639 220.260, 127 219.410, 127 218.811 C 127 218.211, 126.212 217.109, 125.250 216.361 C 123.386 214.914, 123.784 214.918, 135.750 216.472 C 138.088 216.775, 140 216.660, 140 216.216 C 140 215.772, 138.537 215.308, 136.750 215.185 C 134.963 215.062, 129.900 214.027, 125.500 212.886 C 121.100 211.744, 116.150 210.629, 114.500 210.407 L 111.500 210.003 114.250 211.085 C 117.656 212.425, 117.824 214, 114.560 214 C 112.122 214, 112.003 214.443, 112.886 220.250 C 112.949 220.662, 113.675 221, 114.500 221 C 115.325 221, 116 221.480, 116 222.067 C 116 222.724, 115.134 222.854, 113.750 222.406 C 112.513 222.004, 110.207 221.593, 108.626 221.492 C 107.045 221.390, 105.321 220.538, 104.795 219.598 C 103.994 218.168, 103.581 218.102, 102.257 219.195 C 101.006 220.226, 100.587 220.238, 100.254 219.250 C 100.023 218.562, 98.971 218, 97.917 218 C 96.862 218, 96 217.550, 96 217 C 96 216.450, 95.305 216, 94.456 216 C 93.607 216, 92.985 215.438, 93.075 214.750 C 93.466 211.734, 92.891 210, 91.500 210 C 90.675 210, 90 209.602, 90 209.117 C 90 208.631, 89.213 207.963, 88.250 207.633 C 87.288 207.303, 85.477 206.586, 84.228 206.040 C 82.185 205.148, 82.059 205.241, 82.978 206.958 C 84.242 209.321, 84.263 210, 83.073 210 C 82.564 210, 81.941 209.213, 81.689 208.250 C 81.282 206.692, 81.219 206.684, 81.116 208.179 C 81.052 209.102, 81.723 210.580, 82.607 211.464 C 83.491 212.348, 83.992 213.922, 83.720 214.961 C 83.402 216.181, 83.661 216.683, 84.453 216.380 C 87.893 215.060, 88.318 219.077, 85.090 222.407 L 81.867 225.732 85.234 225.465 C 88.411 225.213, 88.589 225.368, 88.392 228.216 C 88.238 230.446, 88.679 231.365, 90.080 231.731 C 91.124 232.004, 91.750 232.595, 91.472 233.045 C 91.195 233.494, 91.425 234.144, 91.984 234.490 C 93.370 235.347, 93.268 237, 91.829 237 C 91.185 237, 89.807 237.770, 88.768 238.710 C 87.138 240.185, 86.752 240.219, 85.965 238.960 C 85.269 237.846, 85.639 237.425, 87.526 237.184 C 90.177 236.844, 91 235, 88.500 235 C 87.667 235, 87 234.111, 87 233 C 87 231.900, 86.550 231, 86 231 C 85.450 231, 85 230.325, 85 229.500 C 85 227.096, 82.426 227.770, 81.182 230.500 C 79.995 233.104, 74.808 234.117, 73.500 232 C 73.160 231.450, 73.584 231, 74.441 231 C 75.298 231, 76 230.311, 76 229.469 C 76 228.626, 76.631 227.695, 77.401 227.399 C 78.901 226.824, 80.329 223, 79.045 223 C 78.623 223, 78.491 221.881, 78.753 220.512 C 79.064 218.886, 78.708 217.825, 77.725 217.448 C 76.777 217.084, 76.421 216.106, 76.762 214.804 C 77.134 213.378, 76.557 212.174, 74.901 210.925 C 69.803 207.080, 72.782 190, 78.551 190 C 79.348 190, 80.844 189.156, 81.875 188.125 C 82.906 187.094, 84.369 186.004, 85.125 185.704 C 85.881 185.404, 85.318 185.122, 83.872 185.079 C 81.111 184.996, 78.515 182.818, 79.730 181.604 C 80.122 181.212, 79.882 180.545, 79.198 180.122 C 77.318 178.961, 76.823 175, 78.557 175 C 79.351 175, 80 174.325, 80 173.500 C 80 171.726, 81.160 171.560, 82.713 173.113 C 83.361 173.761, 84.384 173.876, 85.163 173.388 C 85.898 172.927, 87.287 172.679, 88.250 172.838 C 89.212 172.996, 90 172.591, 90 171.938 C 90 171.162, 89 170.950, 87.118 171.326 C 83.745 172.001, 82.567 171.226, 84.121 169.355 C 84.727 168.624, 84.967 167.356, 84.653 166.537 C 84.339 165.719, 84.733 163.491, 85.528 161.587 C 86.409 159.479, 86.723 156.865, 86.331 154.906 C 85.702 151.758, 85.755 151.701, 88.727 152.295 C 98.485 154.247, 97.793 154.182, 95 152.888 L 92.500 151.729 95 151.053 L 97.500 150.377 95.021 149.031 C 90.619 146.640, 88.039 143.033, 91.748 144.457 C 92.850 144.880, 92.415 143.999, 90.571 142.074 C 88.962 140.395, 87.950 138.716, 88.323 138.344 C 88.695 137.971, 89 138.218, 89 138.892 C 89 139.566, 89.430 139.852, 89.956 139.527 C 90.482 139.202, 90.665 138.163, 90.362 137.218 C 89.905 135.791, 89.987 135.749, 90.851 136.971 C 91.423 137.780, 92.205 138.128, 92.588 137.745 C 92.971 137.362, 92.716 136.362, 92.020 135.524 C 90.182 133.310, 92.374 133.650, 94.405 135.895 C 95.348 136.937, 98.905 139.494, 102.310 141.577 C 105.714 143.660, 108.725 145.646, 109 145.990 C 110.605 147.999, 114.858 149.996, 117.473 149.970 C 120.022 149.944, 120.222 149.777, 118.742 148.915 C 117.775 148.352, 116.613 148.121, 116.159 148.402 C 115.705 148.682, 115.333 148.257, 115.333 147.456 C 115.333 146.655, 115.708 146, 116.167 146 C 118.295 146, 116.663 143.778, 113.801 142.781 C 110.976 141.796, 110.830 141.575, 112.551 140.891 C 114.406 140.154, 114.391 140.084, 112.250 139.442 C 109.635 138.657, 109.362 137.456, 111.524 136.247 C 112.814 135.525, 112.666 135.035, 110.563 133.059 C 108.603 131.218, 108.288 130.330, 109.074 128.862 C 109.747 127.603, 109.735 127, 109.035 127 C 108.466 127, 108 126.502, 108 125.893 C 108 125.284, 108.638 125.031, 109.417 125.330 C 110.197 125.629, 111.071 125.257, 111.360 124.504 C 111.707 123.600, 110.866 122.910, 108.890 122.476 C 107.242 122.114, 106.067 121.298, 106.279 120.663 C 106.805 119.085, 114.081 117.996, 116.288 119.164 C 117.271 119.685, 118.921 119.843, 119.954 119.515 C 120.987 119.187, 122.168 119.463, 122.580 120.129 C 123.095 120.962, 122.809 121.141, 121.664 120.701 C 118.946 119.658, 119.762 121.962, 123.400 125.600 C 126.925 129.125, 127.082 129.649, 124.141 128.076 C 122.795 127.355, 122.382 127.575, 122.269 129.074 C 122.188 130.160, 123.076 131.456, 124.312 132.053 C 126.298 133.013, 126.338 132.980, 124.750 131.695 C 123.787 130.916, 123 129.922, 123 129.485 C 123 129.048, 123.889 129.495, 124.976 130.479 C 126.063 131.462, 126.733 132.623, 126.464 133.059 C 125.684 134.320, 128.188 139, 129.641 139 C 130.368 139, 131.250 140.146, 131.601 141.547 C 131.953 142.947, 132.422 143.911, 132.645 143.688 C 134.184 142.150, 141.253 151.498, 140.371 153.905 C 139.303 156.820, 139.670 160, 141.073 160 C 141.583 160, 142 159.250, 142 158.333 C 142 157.417, 142.276 156.942, 142.612 157.279 C 142.949 157.616, 142.503 160.011, 141.620 162.602 C 140.456 166.019, 140.311 167.670, 141.093 168.613 C 141.687 169.328, 141.908 170.340, 141.585 170.862 C 140.878 172.007, 136.795 171.112, 135.765 169.588 C 135.342 168.961, 135.024 169.414, 135.015 170.656 C 135.004 172.318, 134.541 172.693, 133 172.290 C 130.747 171.701, 130.432 173.070, 132.103 176.193 C 132.949 177.773, 132.891 178.478, 131.853 179.214 C 130.880 179.904, 131.148 180.031, 132.809 179.665 C 134.728 179.242, 135.066 179.524, 134.809 181.328 C 134.553 183.131, 133.905 183.467, 131 183.305 L 127.500 183.109 131.250 184.154 C 133.422 184.759, 135 185.821, 135 186.678 C 135 187.491, 136.764 189.903, 138.920 192.037 C 141.075 194.172, 143.131 196.837, 143.487 197.959 C 143.843 199.082, 144.667 200.037, 145.317 200.081 C 145.968 200.126, 148.525 202.541, 151 205.447 C 153.776 208.707, 156.649 211.010, 158.500 211.459 C 160.483 211.940, 160.992 212.376, 160 212.743 C 159.175 213.049, 158.237 213.701, 157.915 214.192 C 157.593 214.683, 153.768 215.178, 149.415 215.292 C 144.931 215.410, 141.500 215.934, 141.500 216.502 C 141.500 217.054, 139.944 218.992, 138.041 220.810 C 134.670 224.032, 134.587 228.009, 137.907 227.250 C 139.270 226.938, 139.357 229.661, 138.010 230.494 C 137.387 230.879, 137.479 231.603, 138.260 232.446 C 140.166 234.507, 142.473 232.669, 144.437 227.526 C 145.593 224.498, 147.163 222.450, 149.091 221.453 C 150.691 220.626, 152 219.346, 152 218.610 C 152 215.640, 179.048 215.307, 185 218.203 C 186.925 219.140, 190.975 220.764, 194 221.813 C 197.025 222.861, 199.405 224.179, 199.290 224.741 C 199.174 225.303, 201.199 226.332, 203.790 227.029 C 210.822 228.919, 211.505 230.325, 205.113 229.751 C 201.383 229.416, 200.251 229.561, 201.433 230.222 C 203.022 231.112, 210.935 230.853, 215.500 229.761 C 216.600 229.498, 217.831 229.782, 218.235 230.392 C 218.698 231.090, 218.975 230.882, 218.985 229.830 C 218.997 228.499, 220.372 228.031, 225.750 227.527 C 239.543 226.235, 253.377 221.532, 258.525 216.385 C 260.911 213.998, 262.195 213.520, 265.955 213.613 C 268.455 213.675, 270.761 213.323, 271.080 212.829 C 271.768 211.766, 275 212.819, 275 214.107 C 275 214.598, 274.325 215, 273.500 215 C 272.675 215, 272 215.470, 272 216.044 C 272 216.618, 272.563 217.019, 273.250 216.935 C 276.773 216.506, 279 218.272, 279 221.495 C 279 223.288, 279.705 226.444, 280.567 228.507 C 282.038 232.028, 282.008 232.555, 280.067 237.065 C 277.243 243.630, 277.406 248.267, 280.619 252.803 C 282.059 254.836, 282.967 255.695, 282.635 254.710 C 282.304 253.726, 282.442 252.151, 282.943 251.210 C 283.444 250.270, 284.098 248.713, 284.396 247.750 C 284.913 246.079, 287.128 245.188, 286.882 246.750 C 286.324 250.282, 287.232 252.832, 289.250 253.399 C 291.456 254.020, 291.461 254.054, 289.500 255.151 C 286.755 256.687, 283 261.022, 283 262.656 C 283 264.879, 279.158 264.169, 277.782 261.692 C 277.067 260.406, 275.505 259.349, 274.250 259.303 C 270.414 259.165, 270 259.032, 270 257.941 C 270 257.359, 270.445 257.157, 270.989 257.493 C 271.574 257.854, 271.711 257.411, 271.326 256.407 C 270.947 255.418, 271.290 254.250, 272.149 253.605 C 275.310 251.236, 276.774 242.025, 274 241.968 C 272.799 241.943, 272.856 241.667, 274.282 240.584 C 275.952 239.318, 275.876 239.074, 273.088 236.727 C 271.451 235.350, 270.410 233.924, 270.775 233.558 C 271.140 233.193, 270.665 233.191, 269.720 233.554 C 268.774 233.917, 268 234.841, 268 235.607 C 268 236.373, 267.550 237, 267 237 C 266.450 237, 266 236.380, 266 235.622 C 266 234.865, 265.315 233.676, 264.477 232.981 C 263.598 232.252, 263.204 230.932, 263.545 229.859 C 263.869 228.836, 263.711 228, 263.192 228 C 262.674 228, 261.974 229.380, 261.637 231.066 C 261.299 232.753, 260.650 233.902, 260.195 233.620 C 259.739 233.338, 257.411 233.781, 255.023 234.604 C 251.488 235.822, 250.523 235.858, 249.837 234.800 C 249.278 233.939, 249.079 234.344, 249.247 236 C 249.429 237.803, 249.059 238.429, 247.917 238.244 C 246.437 238.006, 246.064 238.917, 245.916 243.138 C 245.877 244.253, 245.244 244.615, 243.929 244.271 C 242.868 243.994, 242 244.269, 242 244.883 C 242 245.498, 241.356 246, 240.568 246 C 239.082 246, 238.963 242.487, 240.372 240.208 C 240.782 239.543, 240.677 239, 240.138 239 C 239.600 239, 238.887 237.763, 238.556 236.250 C 237.883 233.182, 231.855 232.218, 229.179 234.750 C 227.670 236.177, 224.331 236.423, 223.833 235.143 C 223.006 233.018, 216.148 232.852, 216.703 234.971 C 216.994 236.087, 216.843 237.015, 216.367 237.033 C 214.525 237.104, 210.714 241.150, 210.490 243.272 C 210.361 244.497, 210.198 245.868, 210.128 246.317 C 210.057 246.767, 208.988 246.850, 207.750 246.502 C 205.989 246.006, 205.826 246.097, 207 246.919 C 207.897 247.547, 208.027 247.976, 207.323 247.985 C 206.676 247.993, 205.981 248.787, 205.779 249.750 C 205.345 251.822, 209.821 257, 212.047 257 C 212.901 257, 214.167 257.563, 214.859 258.250 C 215.869 259.252, 215.986 259.153, 215.452 257.750 C 215.056 256.708, 215.254 256, 215.943 256 C 217.806 256, 223 258.963, 223 260.026 C 223 260.562, 223.675 261, 224.500 261 C 225.333 261, 226 261.889, 226 263 C 226 265.137, 227.459 265.684, 228.532 263.949 C 228.889 263.371, 228.019 261.820, 226.598 260.503 C 225.153 259.164, 224.452 257.839, 225.007 257.495 C 225.553 257.158, 226 257.246, 226 257.691 C 226 258.136, 228.424 258.507, 231.386 258.516 C 236.393 258.530, 236.755 258.372, 236.524 256.266 C 236.377 254.932, 236.817 254, 237.592 254 C 238.960 254, 244.448 249.048, 243.205 248.937 C 242.817 248.902, 243.519 248.464, 244.765 247.963 C 246.010 247.463, 247.499 245.819, 248.072 244.310 C 249.720 239.976, 250.814 239.123, 253.726 239.902 C 257.647 240.951, 258.121 243.474, 254.252 242.700 C 250.520 241.954, 249.874 242.538, 251.039 245.603 C 251.768 247.519, 251.626 248, 250.335 248 C 248.394 248, 246.076 250.828, 246.032 253.250 C 245.994 255.335, 249.949 255.611, 254.938 253.872 C 257.900 252.839, 258.123 252.470, 257.568 249.510 C 256.513 243.888, 259.260 243.200, 261.460 248.536 C 262.473 250.991, 263.799 253, 264.407 253 C 265.015 253, 267.502 256.375, 269.934 260.500 C 274.599 268.413, 275.470 269.066, 277.608 266.250 C 278.341 265.284, 278.951 265.033, 278.968 265.691 C 278.986 266.346, 278.550 267.160, 278 267.500 C 276.507 268.423, 276.793 271.936, 278.500 273.643 C 279.896 275.038, 280.450 274.690, 280.084 272.646 C 280 272.177, 280.204 270.933, 280.537 269.882 C 281.277 267.553, 283 268.376, 283 271.059 C 283 273.822, 291.268 273.883, 293.193 271.134 C 295.499 267.842, 300.290 267.532, 303.759 270.450 C 305.425 271.853, 307.204 273, 307.712 273 C 308.503 273, 312 282.301, 312 284.405 C 312 284.807, 311.082 284.844, 309.961 284.488 C 308.204 283.930, 308.005 284.173, 308.525 286.244 C 308.917 287.805, 308.580 289.104, 307.564 289.947 C 306.704 290.661, 306 291.838, 306 292.563 C 306 294.558, 308.102 295.441, 309.130 293.878 C 309.884 292.731, 310.194 292.766, 310.977 294.087 C 312.355 296.414, 336.856 295.796, 340.604 293.340 C 344.693 290.660, 358.977 290.655, 361.141 293.332 C 364.438 297.411, 370.454 298.166, 374.055 294.951 C 377.185 292.156, 380 291.977, 380 294.573 C 380 295.321, 380.759 297.525, 381.688 299.471 C 383.602 303.485, 384.960 302.570, 384.985 297.250 C 384.995 295.163, 385.493 294, 386.378 294 C 387.136 294, 388.462 292.988, 389.326 291.750 C 390.597 289.927, 390.905 289.822, 390.948 291.193 C 390.976 292.125, 390.133 293.494, 389.073 294.236 C 387.692 295.204, 386.947 297.344, 386.444 301.793 C 386.014 305.597, 385.273 308, 384.531 308 C 383.159 308, 380.611 312.944, 381.517 313.850 C 381.842 314.176, 382.472 313.855, 382.915 313.137 C 383.850 311.625, 385 313.800, 385 317.082 C 385 318.137, 385.450 319, 386 319 C 386.550 319, 387 317.200, 387 315 C 387 312.111, 387.417 311, 388.500 311 C 390.213 311, 390.451 309.851, 389.033 308.433 C 386.626 306.026, 389.015 303.165, 392.603 304.156 C 394.486 304.676, 396.466 304.830, 397.002 304.499 C 397.538 304.167, 397.732 304.535, 397.432 305.317 C 397.111 306.153, 397.630 306.931, 398.693 307.209 C 400.166 307.594, 400.476 307.110, 400.368 304.591 C 400.142 299.304, 400.040 299, 398.500 299 C 397.675 299, 397 298.564, 397 298.031 C 397 297.499, 397.675 297.322, 398.500 297.638 C 399.463 298.008, 400 297.618, 400 296.548 C 400 295.632, 399.641 295.104, 399.202 295.375 C 398.763 295.646, 397.751 295.455, 396.952 294.949 C 395.872 294.266, 396.237 294.027, 398.373 294.015 L 401.245 294 400.655 281.750 C 400.331 275.012, 400.051 266.111, 400.033 261.969 C 399.997 253.850, 397.682 251.124, 392.456 253.050 C 390.758 253.676, 390.895 253.863, 393.500 254.473 C 398.504 255.644, 398.658 255.839, 394.643 255.921 C 391.850 255.978, 390.928 256.370, 391.300 257.341 C 391.583 258.078, 391.413 259.316, 390.923 260.091 C 390.273 261.116, 390.026 260.751, 390.015 258.750 C 390.005 256.979, 389.466 256, 388.500 256 C 387.675 256, 387 256.675, 387 257.500 C 387 258.325, 386.502 259, 385.893 259 C 385.284 259, 385.059 258.288, 385.393 257.418 C 385.727 256.548, 386 255.648, 386 255.418 C 386 255.188, 386.723 255, 387.606 255 C 388.489 255, 390.064 253.917, 391.105 252.593 C 392.373 250.981, 393.659 250.359, 394.999 250.710 C 396.391 251.074, 397 250.741, 397 249.617 C 397 248.727, 396.475 248, 395.833 248 C 395.192 248, 394.928 247.739, 395.248 247.419 C 395.567 247.099, 396.767 247.340, 397.914 247.954 C 399.974 249.057, 400 248.924, 400 237.160 C 400 230.610, 400.275 223.873, 400.612 222.189 C 401.161 219.443, 401.007 219.185, 399.112 219.681 C 396.462 220.374, 396.175 217.560, 398.750 216.121 C 400.356 215.223, 400.514 212.438, 400.667 182.321 C 400.758 164.270, 400.613 150.287, 400.343 151.250 C 400.074 152.213, 399.485 153, 399.035 153 C 395.382 153, 394.185 165.642, 397.500 169.217 C 400.678 172.644, 400.830 174.515, 397.798 172.892 C 396.236 172.056, 395.490 172.031, 395.232 172.805 C 394.969 173.594, 394.200 173.593, 392.463 172.801 C 388.251 170.882, 385.519 174.376, 388.725 177.582 C 390.358 179.215, 390.239 179.267, 386.483 178.563 C 381.587 177.644, 381 177.294, 381 175.286 C 381 173.920, 381.312 173.964, 383.170 175.595 C 385.075 177.268, 385.263 177.291, 384.713 175.782 C 384.369 174.837, 384.457 173.835, 384.910 173.556 C 385.962 172.905, 385.056 168, 383.883 168 C 383.398 168, 383 168.436, 383 168.969 C 383 169.501, 382.360 169.692, 381.577 169.391 C 379.103 168.442, 376.361 172.267, 376.434 176.566 L 376.500 180.500 380.996 180.204 C 384.584 179.968, 385.240 180.160, 384.246 181.154 C 382.292 183.108, 382.783 184.999, 385.250 185.015 C 387.007 185.027, 387.182 185.232, 386.048 185.949 C 385.249 186.455, 384.237 186.646, 383.798 186.375 C 382.867 185.800, 382.740 188.159, 383.583 190.355 C 383.903 191.190, 384.758 191.646, 385.482 191.369 C 386.205 191.091, 387.081 191.322, 387.427 191.881 C 387.787 192.464, 386.528 193.185, 384.485 193.569 C 382.522 193.937, 379.619 195.535, 378.035 197.119 C 374.519 200.635, 371.811 200.725, 366.194 197.514 C 362.927 195.646, 361.420 195.288, 359.944 196.026 C 358.875 196.562, 357.056 197.481, 355.903 198.069 C 354.749 198.657, 353.722 198.995, 353.620 198.819 C 353.518 198.644, 352.829 197.710, 352.090 196.744 C 350.916 195.211, 351.079 194.725, 353.373 192.922 C 356.062 190.806, 357.037 185.759, 355 184.500 C 353.363 183.488, 353.863 182, 355.839 182 C 357.854 182, 359.863 185.484, 359.443 188.250 C 359.268 189.399, 359.833 190, 361.088 190 C 362.140 190, 363 189.373, 363 188.607 C 363 187.841, 363.675 186.955, 364.500 186.638 C 365.325 186.322, 366 185.374, 366 184.531 C 366 183.689, 366.567 183, 367.259 183 C 370.649 183, 371.665 173.523, 368.604 170.461 C 366.375 168.232, 366.594 167.689, 369.500 168.245 C 370.875 168.508, 372 168.335, 372 167.861 C 372 167.388, 371.288 167, 370.417 167 C 369.546 167, 369.037 166.438, 369.286 165.750 C 369.535 165.063, 369.053 163.712, 368.215 162.750 C 366.805 161.132, 366.922 161, 369.762 161 C 372.186 161, 373.059 160.421, 373.905 158.250 C 374.928 155.624, 374.952 155.658, 374.428 159 C 374.018 161.612, 374.144 162.120, 374.924 161 C 375.499 160.175, 375.976 158.514, 375.985 157.309 C 376.006 154.246, 377.774 153.486, 380.063 155.557 C 381.784 157.114, 382 157.130, 382 155.700 C 382 154.474, 382.619 154.709, 384.596 156.687 C 386.800 158.891, 387.030 159.639, 386.117 161.641 C 385.177 163.706, 385.301 164, 387.115 164 C 388.342 164, 389.399 164.811, 389.707 165.989 C 390.612 169.449, 391.769 167.217, 391.769 162.012 C 391.769 157.018, 391.757 157, 388.501 157 C 385.987 157, 385.102 156.498, 384.665 154.826 C 383.975 152.188, 384.601 151, 386.681 151 C 387.958 151, 388.016 151.275, 387 152.500 C 386.246 153.408, 386.166 154, 386.796 154 C 388.910 154, 391 152.748, 391 151.481 C 391 150.764, 391.788 150.312, 392.750 150.478 C 393.712 150.643, 395.525 150.135, 396.778 149.348 C 398.031 148.561, 399.494 148.187, 400.028 148.517 C 400.616 148.881, 401 146.726, 401 143.059 C 401 139.727, 400.581 137, 400.070 137 C 399.538 137, 399.464 135.821, 399.896 134.250 C 400.311 132.738, 400.679 120.925, 400.713 108 C 400.747 95.075, 400.569 85.513, 400.318 86.750 C 400.067 87.987, 399.387 89, 398.808 89 C 398.105 89, 398.084 89.415, 398.744 90.250 C 400.561 92.546, 400.074 100.947, 398.159 100.352 C 396.703 99.900, 396.714 100.013, 398.250 101.279 C 400.957 103.509, 400.755 113, 398 113 C 396.889 113, 396 113.667, 396 114.500 C 396 116.057, 394.818 116.485, 393.675 115.342 C 393.313 114.980, 393.470 114.139, 394.023 113.472 C 394.772 112.570, 394.031 112.101, 391.124 111.636 C 388.976 111.292, 386.982 110.396, 386.694 109.644 C 385.972 107.763, 382.246 106.917, 381.639 108.497 C 381.304 109.372, 381.805 109.602, 383.231 109.229 C 384.647 108.859, 385.084 109.055, 384.597 109.842 C 384.204 110.479, 381.685 111, 379 111 C 376.315 111, 373.826 111.472, 373.470 112.049 C 373.030 112.760, 372.348 112.704, 371.348 111.874 C 370.093 110.832, 369.974 111.047, 370.546 113.325 C 371.336 116.474, 368.758 117.177, 367.125 114.258 C 365.761 111.822, 364.593 113.371, 365.922 115.854 C 367.309 118.446, 365.575 119.718, 363.492 117.635 C 361.516 115.658, 361.498 110, 363.469 110 C 364.330 110, 364.711 109.410, 364.390 108.573 C 363.990 107.531, 364.403 107.293, 365.921 107.690 C 368.940 108.479, 368.470 106.557, 365.250 104.943 C 360.730 102.677, 360.448 102.612, 361.693 104.121 C 363.341 106.119, 362.679 109.428, 360.549 109.844 C 358.404 110.262, 355.847 107.991, 357.696 107.310 C 358.552 106.994, 358.354 105.911, 357 103.500 C 355.637 101.073, 355.442 99.995, 356.304 99.644 C 356.993 99.364, 356.758 99.071, 355.750 98.954 C 354.788 98.842, 353.100 98.638, 352 98.500 C 350.900 98.362, 348.650 98.194, 347 98.125 C 344.047 98.002, 342.606 96, 345.470 96 C 347.781 96, 347.195 88.864, 344.833 88.246 C 342.813 87.718, 342.746 87.418, 344 84.500 C 344.498 83.341, 344.889 83.091, 344.930 83.905 C 344.984 84.989, 345.457 84.896, 347 83.500 C 349.856 80.915, 349.479 79.654, 346.056 80.339 C 343.708 80.808, 342.986 80.530, 342.489 78.964 C 341.726 76.563, 340.129 76.442, 338.505 78.662 C 336.810 80.981, 334 79.652, 334 76.531 C 334 74.385, 334.457 74, 337 74 C 338.650 74, 339.993 73.662, 339.985 73.250 C 339.822 65.203, 328.338 53.442, 325.338 58.250 C 323.339 61.452, 324.064 63.020, 328.507 65.108 C 330.978 66.270, 333 67.846, 333 68.610 C 333 70.866, 328.956 70.204, 325.190 67.332 C 321.846 64.781, 321.447 64.712, 316.096 65.776 C 313.018 66.387, 308.337 67.193, 305.693 67.566 C 299.081 68.499, 296.616 71.898, 299.965 75.463 C 303.824 79.570, 299.551 81.886, 294.966 78.174 L 292.711 76.347 295.105 74.117 L 297.500 71.886 295.162 70.122 C 293.501 68.869, 292.893 67.511, 293.063 65.429 C 293.472 60.412, 293.042 57, 292 57 C 290.423 57, 283 49.165, 283 47.500 C 283 46.675, 283.712 46, 284.583 46 C 285.454 46, 285.976 45.438, 285.742 44.750 C 285.468 43.941, 283.851 43.619, 281.159 43.836 C 277.502 44.131, 277 43.920, 277 42.086 C 277 40.898, 277.646 40, 278.500 40 C 279.325 40, 280 39.550, 280 39 C 280 37.681, 278.402 37.732, 276.177 39.122 C 274.911 39.912, 273.018 39.953, 269.767 39.259 C 266.061 38.469, 264.862 38.567, 263.673 39.756 C 261.106 42.323, 259.935 40.226, 257.544 28.778 C 257.232 27.280, 256.120 25.255, 255.075 24.278 C 254.030 23.300, 253.023 21.158, 252.837 19.518 C 252.530 16.800, 252.071 16.464, 247.655 15.729 C 244.991 15.285, 241.733 14.216, 240.417 13.354 L 238.024 11.785 240.040 9.221 C 241.423 7.464, 241.734 6.334, 241.029 5.629 C 240.463 5.063, 240 3.565, 240 2.300 C 240 0.513, 239.442 0, 237.500 0 C 236.125 0, 235 0.450, 235 1 C 235 1.550, 235.402 2, 235.893 2 C 236.384 2, 237.045 2.675, 237.362 3.500 C 237.781 4.593, 237.242 5, 235.375 5 C 233.667 5, 232.641 4.343, 232.298 3.031 C 231.902 1.518, 230.940 1.070, 228.141 1.097 C 226.139 1.116, 222.700 0.848, 220.500 0.502 C 218.228 0.143, 217.020 0.236, 217.704 0.716 M 322 98.893 C 322 100.029, 325.062 101.390, 326.914 101.076 C 333.048 100.039, 335.529 108.757, 329.750 111.043 C 324.888 112.967, 322.872 115.021, 323.599 117.311 C 324.272 119.434, 323.957 119.436, 311.250 117.413 C 307.799 116.864, 307 117.026, 307 118.275 C 307 119.372, 306.363 119.646, 304.776 119.231 C 303.552 118.911, 303.102 118.466, 303.776 118.241 C 306.257 117.414, 304.898 116, 301.622 116 C 297.653 116, 294.743 118.592, 297.064 120.061 C 298.952 121.255, 300 121.234, 300 120 C 300 119.450, 300.436 119, 300.969 119 C 301.501 119, 301.648 119.753, 301.295 120.674 C 300.808 121.942, 301.058 122.192, 302.326 121.705 C 303.423 121.284, 304 121.569, 304 122.531 C 304 123.339, 303.530 124, 302.955 124 C 302.380 124, 300.819 125.090, 299.487 126.422 C 298.154 127.755, 296.150 129.135, 295.032 129.490 C 293.914 129.845, 293 130.702, 293 131.394 C 293 133.054, 298.530 132.272, 300.090 130.391 C 301.424 128.784, 304 128.526, 304 130 C 304 130.550, 305.163 131, 306.583 131 C 309.502 131, 309.440 132.765, 306.464 134.429 C 305.409 135.018, 303.988 136.175, 303.305 137 C 302.235 138.293, 302.059 138.206, 302.032 136.372 C 301.988 133.425, 299.254 131.175, 298.405 133.387 C 298.064 134.274, 297.186 135, 296.452 135 C 294.225 135, 293.689 137.052, 295.559 138.419 C 297.183 139.607, 297.076 139.884, 294.159 142.041 C 292.421 143.325, 291 145.240, 291 146.295 C 291 147.581, 290.510 148.026, 289.515 147.644 C 288.642 147.309, 286.479 148.499, 284.265 150.532 C 280.900 153.623, 280.734 153.991, 282.700 153.995 C 283.910 153.998, 285.318 153.254, 285.829 152.342 C 286.339 151.430, 287.607 150.621, 288.646 150.545 C 289.685 150.468, 291.093 150.060, 291.775 149.639 C 292.490 149.197, 293.735 149.592, 294.713 150.570 C 296.791 152.648, 297.601 150.991, 295.984 147.970 C 295.354 146.792, 295.161 145.530, 295.556 145.164 C 295.951 144.799, 296.475 145.063, 296.720 145.750 C 297.769 148.685, 298.974 146.692, 298.384 143 C 297.729 138.907, 298.419 137.983, 300.390 140.313 C 302.416 142.708, 312.273 141.289, 315.302 138.166 C 316.724 136.700, 319.520 133.813, 321.515 131.750 C 323.510 129.688, 325.785 128, 326.571 128 C 327.357 128, 328 127.541, 328 126.981 C 328 126.051, 325.990 126.240, 320.750 127.660 C 319.788 127.921, 319 128.779, 319 129.567 C 319 131.583, 317.692 131.347, 316.022 129.031 C 315.013 127.631, 313.865 127.217, 312.051 127.599 C 309.607 128.114, 309.580 128.071, 311.418 126.585 C 312.810 125.459, 313.689 125.327, 314.624 126.103 C 316.264 127.464, 318 126.418, 318 124.071 C 318 122.660, 319.019 122.145, 322.614 121.740 C 327.531 121.186, 332.568 118.134, 332.395 115.815 C 332.281 114.284, 335.679 113.987, 337.794 115.343 C 338.555 115.831, 339.731 115.639, 340.649 114.877 C 341.975 113.776, 342.607 114.064, 344.855 116.800 C 346.672 119.010, 348.361 120.015, 350.250 120.009 C 353.860 119.997, 353.720 118.839, 349.679 115.291 C 347.853 113.688, 346.065 111.611, 345.706 110.676 C 345.154 109.237, 344.183 109.079, 339.371 109.644 C 335.015 110.156, 333.866 110.026, 334.446 109.088 C 334.862 108.415, 335.832 108.105, 336.601 108.400 C 337.371 108.696, 338.033 108.614, 338.074 108.219 C 338.391 105.154, 339.221 102.439, 340.201 101.257 C 341.176 100.083, 340.643 99.943, 336.875 100.386 C 333.960 100.729, 331.403 100.403, 329.579 99.457 C 326.462 97.840, 322 97.508, 322 98.893 M 159.554 294.719 C 159.249 295.514, 159 297.162, 159 298.382 C 159 299.602, 158.489 301.111, 157.864 301.736 C 156.506 303.094, 159.414 306.500, 161.933 306.500 C 162.795 306.500, 163.641 307.488, 163.812 308.695 C 164.011 310.090, 164.630 310.695, 165.513 310.356 C 166.277 310.063, 168.432 310.990, 170.302 312.417 C 173.676 314.990, 179.121 315.231, 180.580 312.871 C 181.478 311.417, 185 311.898, 185 313.475 C 185 314.581, 185.751 314.800, 188 314.350 C 189.911 313.968, 191 314.158, 191 314.875 C 191 315.494, 190.550 316, 190 316 C 189.450 316, 189.036 316.788, 189.079 317.750 C 189.126 318.795, 189.361 318.997, 189.662 318.250 C 189.940 317.563, 191.029 317, 192.083 317 C 193.137 317, 194.010 316.438, 194.022 315.750 C 194.034 315.063, 194.924 313.375, 196 312 C 199.662 307.318, 194.313 302.169, 188.526 304.806 C 186.654 305.659, 186 305.664, 186 304.824 C 186 304.200, 185.100 304.505, 184 305.500 C 182.900 306.495, 182 307.889, 182 308.596 C 182 309.303, 181.524 310.176, 180.943 310.535 C 179.301 311.550, 175 310.124, 175 308.564 C 175 307.796, 174.438 306.977, 173.750 306.746 C 172.766 306.415, 172.781 305.984, 173.823 304.722 C 174.551 303.840, 175.749 303.350, 176.486 303.633 C 177.225 303.917, 177.976 303.392, 178.163 302.462 C 178.407 301.242, 179.669 300.721, 182.731 300.574 C 187.641 300.338, 188.289 299.918, 187.382 297.554 C 186.933 296.384, 185.959 295.966, 184.384 296.267 C 182.933 296.544, 181.415 296.011, 180.370 294.857 C 178.389 292.667, 175 292.390, 175 294.417 C 175 295.196, 175.436 295.983, 175.968 296.167 C 176.584 296.379, 176.590 297.045, 175.983 298 C 175.177 299.269, 175.028 299.221, 175.015 297.691 C 175.007 296.696, 174.581 296.141, 174.069 296.457 C 173.557 296.774, 172.851 296.568, 172.500 296 C 172.149 295.432, 171.432 295.233, 170.906 295.558 C 170.381 295.883, 170.074 295.574, 170.225 294.871 C 170.640 292.943, 160.292 292.796, 159.554 294.719 M 80.885 296.639 C 79.139 298.742, 78.347 312.747, 79.886 314.286 C 81.633 316.033, 81.239 316.717, 77.750 317.994 C 75.065 318.977, 74.813 319.304, 76.299 319.872 C 77.948 320.503, 77.896 320.750, 75.660 322.849 C 73.973 324.434, 73.396 325.809, 73.785 327.319 C 74.262 329.171, 74.118 329.313, 72.831 328.259 C 71.124 326.860, 69.886 327.541, 70.627 329.470 C 70.921 330.237, 70.107 330.938, 68.582 331.229 C 65.511 331.816, 64.636 331.143, 66.131 329.342 C 66.982 328.317, 66.876 328, 65.681 328 C 64.822 328, 63.835 328.457, 63.490 329.016 C 62.495 330.626, 61.312 329.305, 61.497 326.792 C 61.590 325.532, 61.853 324.583, 62.083 324.685 C 66.170 326.502, 69 325.121, 69 321.309 C 69 318.963, 65.739 320.266, 64.766 323 C 64.321 324.251, 64.112 324.209, 63.506 322.742 C 63.087 321.727, 63.480 319.508, 64.437 317.492 C 66.104 313.979, 68.401 312.928, 69.338 315.250 C 69.717 316.190, 69.862 316.167, 69.921 315.156 C 69.964 314.417, 69.100 313.577, 68 313.290 C 66.900 313.002, 66 312.321, 66 311.776 C 66 311.232, 65.332 311.042, 64.515 311.356 C 63.664 311.682, 62.617 311.153, 62.062 310.116 C 61.474 309.017, 59.898 308.273, 58.048 308.220 C 55.276 308.142, 55.100 308.319, 56.100 310.188 C 56.900 311.681, 56.899 312.056, 56.100 311.562 C 55.490 311.185, 55 311.539, 55 312.358 C 55 313.169, 54.438 314.078, 53.750 314.377 C 52.401 314.964, 57.230 314.166, 60.492 313.263 C 62.152 312.804, 62.281 312.957, 61.266 314.180 C 60.405 315.217, 60.360 315.960, 61.111 316.711 C 62.701 318.301, 60.254 319.456, 58.456 317.964 C 57.283 316.990, 57 317.070, 57 318.378 C 57 319.270, 56.520 320, 55.933 320 C 55.320 320, 55.136 319.147, 55.500 318 C 56.184 315.845, 55.357 315.489, 53.054 316.946 C 51.352 318.022, 47.992 316.535, 48.015 314.715 C 48.025 313.940, 48.368 314.033, 48.962 314.972 C 49.740 316.203, 49.999 316.122, 50.543 314.472 C 50.901 313.387, 51.936 311.020, 52.844 309.212 C 54.303 306.308, 54.321 305.804, 52.998 304.897 C 51.840 304.102, 52.011 304.013, 53.750 304.502 C 55.401 304.966, 56 304.714, 56 303.554 C 56 302.137, 55.639 302.124, 52.522 303.426 C 50.580 304.238, 48.798 304.481, 48.486 303.978 C 48.159 303.449, 46.861 303.483, 45.344 304.059 C 42.921 304.981, 42.790 304.879, 43.257 302.437 C 43.671 300.268, 43.440 299.913, 41.876 300.322 C 40.843 300.592, 40.249 300.405, 40.558 299.907 C 40.866 299.408, 40.416 299, 39.559 299 C 38.166 299, 37.340 302.257, 37.934 305.408 C 38.029 305.908, 37.523 306.677, 36.811 307.117 C 35.780 307.754, 35.770 308.170, 36.758 309.158 C 38.671 311.071, 38.323 315, 36.241 315 C 34.334 315, 31.713 318.438, 31.480 321.246 C 31.294 323.479, 34.502 326.426, 36.065 325.460 C 36.929 324.926, 36.809 324.473, 35.628 323.812 C 33.381 322.554, 33.586 321, 36 321 C 37.468 321, 38 320.333, 38 318.492 C 38 316.226, 38.196 316.105, 40.022 317.242 C 41.597 318.221, 41.904 319.142, 41.410 321.400 C 40.875 323.845, 41.041 324.198, 42.469 323.650 C 43.401 323.293, 45.053 323, 46.141 323 C 47.228 323, 47.835 322.543, 47.490 321.984 C 47.144 321.425, 46.443 321.226, 45.931 321.543 C 45.419 321.859, 45 321.641, 45 321.059 C 45 319.558, 47.968 319.737, 48.152 321.250 C 48.236 321.938, 48.360 322.950, 48.429 323.500 C 48.497 324.050, 48.907 325.066, 49.340 325.757 C 50.460 327.546, 47.161 328.582, 44.881 327.158 C 43.861 326.521, 42.819 326, 42.565 326 C 41.603 326, 37.323 330.575, 36.698 332.273 C 35.814 334.672, 33.012 335.617, 31.881 333.896 C 31.115 332.730, 30.802 332.773, 29.984 334.157 C 29.347 335.235, 28.250 335.617, 26.846 335.249 C 25.367 334.863, 24.912 335.049, 25.403 335.842 C 26.804 338.111, 63.083 337.400, 63.686 335.092 C 64.635 331.463, 70 331.435, 70 335.059 C 70 336.897, 70.824 337, 85.500 337 C 98.611 337, 101 336.769, 101 335.500 C 101 333.692, 99.833 333.567, 98.200 335.200 C 97.267 336.133, 97 335.450, 97 332.127 C 97 328.587, 97.300 327.915, 98.750 328.213 C 99.757 328.420, 100.375 329.300, 100.206 330.286 C 99.766 332.853, 101.134 332.355, 104.750 328.633 C 107.896 325.394, 109.047 322, 107 322 C 106.450 322, 106 322.433, 106 322.961 C 106 323.490, 104.313 324.380, 102.250 324.940 C 100.188 325.499, 96.836 327.091, 94.803 328.478 C 90.344 331.520, 90 331.557, 90 329 C 90 327.900, 90.421 327, 90.935 327 C 91.450 327, 92.440 325.425, 93.136 323.500 C 93.832 321.575, 94.810 320, 95.308 320 C 95.806 320, 95.933 319.268, 95.590 318.373 C 95.246 317.479, 95.478 316.129, 96.105 315.373 C 97.014 314.279, 96.792 314, 95.015 314 C 93.304 314, 92.941 313.593, 93.455 312.250 C 93.940 310.981, 93.533 311.132, 91.979 312.797 C 90.367 314.524, 90.106 315.423, 90.929 316.415 C 91.739 317.390, 91.651 318.045, 90.591 318.924 C 89.409 319.905, 89.252 319.753, 89.695 318.057 C 90.043 316.729, 89.749 315.989, 88.867 315.968 C 85.844 315.899, 80.036 309, 83 309 C 83.550 309, 84 309.730, 84 310.622 C 84 313.998, 86.675 310.037, 86.809 306.463 C 86.883 304.504, 87.188 302.505, 87.488 302.019 C 88.157 300.936, 84.001 297.881, 82.837 298.601 C 82.377 298.885, 82 298.454, 82 297.642 C 82 296.831, 82.563 295.940, 83.250 295.662 C 84.035 295.345, 84.081 295.129, 83.372 295.079 C 82.752 295.036, 81.633 295.737, 80.885 296.639 M 238.200 312.200 C 236.287 314.113, 236.791 316.248, 239.750 318.762 L 242.500 321.099 240 320.484 C 238.324 320.072, 237.937 320.173, 238.827 320.791 C 239.557 321.298, 240.007 322.549, 239.827 323.570 C 239.598 324.871, 240.698 326.088, 243.500 327.633 C 249.204 330.779, 249.513 330.551, 246.507 325.421 C 243.922 321.011, 243.699 319.078, 245.933 320.459 C 246.520 320.821, 247 321.883, 247 322.818 C 247 325.264, 250.848 327.560, 251.611 325.571 C 251.923 324.759, 251.872 323.601, 251.498 322.997 C 251.120 322.385, 252.503 322.601, 254.619 323.485 C 260.800 326.068, 264.332 331, 260 331 C 258.687 331, 258 331.667, 258 332.941 C 258 334.739, 258.202 334.776, 260.750 333.447 C 265.233 331.108, 270.539 332.956, 267.487 335.793 C 267.068 336.182, 266.525 335.938, 266.280 335.250 C 265.657 333.506, 262.335 333.685, 261.638 335.500 C 261.166 336.730, 262.137 337, 267.031 337 C 270.344 337, 273 336.555, 273 336 C 273 335.450, 272.550 335, 272 335 C 271.450 335, 271 334.104, 271 333.008 C 271 330.176, 276.280 330.895, 278.879 334.082 C 281.028 336.716, 282.936 334.882, 281.618 331.448 C 281.232 330.442, 281.426 330.145, 282.169 330.604 C 282.961 331.094, 283.126 330.592, 282.705 328.982 C 282.296 327.415, 282.654 326.226, 283.798 325.357 C 285.352 324.176, 285.307 324.061, 283.276 324.032 C 281.834 324.011, 280.506 322.944, 279.500 321 C 277.671 317.464, 274.121 316.975, 272.232 320 C 270.885 322.157, 269 322.685, 269 320.904 C 269 316.434, 261.709 312.004, 259.269 314.992 C 258.364 316.101, 257.832 316.190, 257.259 315.329 C 254.922 311.817, 250.815 312.631, 251.152 316.540 C 251.367 319.043, 251.027 320.491, 250.155 320.782 C 249.164 321.112, 248.909 320.145, 249.140 316.936 C 249.469 312.384, 247.332 310.014, 246.335 313.825 C 245.440 317.250, 243.019 317.343, 242.346 313.980 C 241.719 310.844, 240.206 310.194, 238.200 312.200 M 212.944 312.652 C 210.994 313.178, 208 318.140, 208 320.845 C 208 321.965, 207.532 323.171, 206.959 323.525 C 206.387 323.879, 206.164 324.942, 206.464 325.887 C 206.764 326.832, 206.347 328.481, 205.536 329.552 C 204.726 330.624, 204.056 332.175, 204.047 333 C 204.032 334.333, 204.149 334.333, 205.094 333 C 205.926 331.826, 206.062 332.093, 205.721 334.229 C 205.251 337.171, 213.595 338.299, 216.792 335.725 C 217.696 334.997, 218.433 335.033, 219.242 335.842 C 219.879 336.479, 221.547 336.955, 222.950 336.900 L 225.500 336.801 223 336.105 C 221.625 335.723, 220.500 334.761, 220.500 333.969 C 220.500 331.679, 223.727 331.669, 226.929 333.950 C 228.546 335.101, 230.237 335.962, 230.685 335.863 C 231.133 335.764, 232.333 336.044, 233.351 336.487 C 234.567 337.015, 235.536 336.813, 236.177 335.896 C 236.928 334.821, 237.269 334.787, 237.659 335.750 C 238.281 337.281, 248 337.476, 248 335.958 C 248 334.366, 244.769 331.331, 242.250 330.557 C 240.419 329.994, 240 330.250, 240 331.933 C 240 334.503, 239.552 334.504, 235.419 331.950 C 233.396 330.700, 232.311 329.354, 232.638 328.501 C 233 327.557, 232.090 326.820, 229.837 326.233 C 227.571 325.642, 226.467 324.743, 226.398 323.432 C 226.342 322.369, 226.229 320.998, 226.148 320.384 C 225.959 318.956, 217.025 311.962, 215.586 312.116 C 214.989 312.180, 213.800 312.421, 212.944 312.652" stroke="none" fill="#1a1a2e" fill-rule="evenodd"/>
</svg>