<svg xmlns="http://www.w3.org/2000/svg" width="400" height="191" viewBox="0 0 400 191" version="1.1">
	<path d="M 0 95.502 L 0 191.005 200.250 190.752 L 400.500 190.500 400.755 95.250 L 401.010 0 200.505 0 L 0 0 0 95.502 M 159.197 58.500 C 160.694 63.854, 162.018 63.503, 140.500 63.460 C 122.828 63.424, 104.393 62.741, 101.500 62.014 C 98.979 61.381, 97.591 61.991, 98.800 63.200 C 100.671 65.071, 100.300 67.328, 98.250 66.548 C 96.879 66.026, 96.762 66.145, 97.708 67.098 C 98.656 68.054, 99.250 68.037, 100.475 67.021 C 102.433 65.395, 121.940 64.718, 123.750 66.213 C 124.614 66.926, 125.414 66.901, 126.342 66.131 C 127.080 65.519, 127.978 65.312, 128.338 65.672 C 128.698 66.031, 133.608 66.382, 139.249 66.451 C 144.890 66.520, 150.026 66.898, 150.661 67.291 C 151.297 67.683, 153.674 67.771, 155.944 67.486 C 158.214 67.201, 160.955 67.441, 162.035 68.019 C 163.462 68.783, 164 68.754, 164 67.913 C 164 67.075, 164.360 67.054, 165.302 67.836 C 166.018 68.430, 167.593 68.658, 168.802 68.342 C 170.011 68.025, 171 68.173, 171 68.671 C 171 69.168, 171.939 69.645, 173.086 69.731 C 174.467 69.836, 174.996 69.431, 174.651 68.533 C 174.246 67.478, 174.766 67.359, 176.990 67.997 C 178.563 68.448, 180.108 68.558, 180.425 68.242 C 180.741 67.926, 181 68.207, 181 68.869 C 181 69.777, 181.509 69.798, 183.086 68.954 C 185.576 67.621, 187.232 68.731, 184.791 70.097 C 183.860 70.618, 182.442 71.701, 181.639 72.504 C 179.751 74.392, 170.986 74.200, 171.720 72.287 C 171.992 71.579, 171.716 71, 171.107 71 C 170.498 71, 169.968 71.563, 169.930 72.250 C 169.891 72.938, 169.489 72.600, 169.037 71.500 C 168.282 69.664, 168.156 69.644, 167.500 71.250 C 167.107 72.213, 166.358 73, 165.834 73 C 165.310 73, 165.188 72.505, 165.562 71.900 C 166.041 71.125, 165.689 71.089, 164.371 71.778 C 162.887 72.553, 158.477 72.725, 156.128 72.099 C 155.923 72.045, 156.315 71.325, 157 70.500 C 157.964 69.338, 157.971 69, 157.029 69 C 156.360 69, 155.577 69.900, 155.290 71 C 154.731 73.137, 152.540 73.682, 151.470 71.951 C 151.072 71.307, 150.374 71.254, 149.661 71.812 C 146.280 74.460, 119.521 73.600, 104.750 70.368 C 100.806 69.506, 101.282 71.468, 105.814 74.750 L 109.627 77.513 108.417 82.256 C 107.404 86.228, 107.435 87, 108.604 87 C 109.372 87, 110 87.450, 110 88 C 110 88.550, 110.723 89, 111.607 89 C 112.498 89, 112.986 89.557, 112.703 90.250 C 110.741 95.048, 110.735 95, 113.311 95 C 114.700 95, 116.622 95.301, 117.582 95.670 C 118.693 96.096, 119.089 95.953, 118.670 95.275 C 118.308 94.689, 118.712 93.941, 119.569 93.612 C 121.351 92.928, 120.570 91, 118.512 91 C 117.759 91, 116.348 91.787, 115.377 92.750 C 113.696 94.417, 113.645 94.413, 114.306 92.668 C 114.688 91.661, 115 90.364, 115 89.787 C 115 89.129, 116.395 88.975, 118.750 89.375 C 120.813 89.726, 127.225 90.301, 133 90.653 C 138.775 91.005, 143.792 91.743, 144.149 92.292 C 144.506 92.842, 145.576 92.993, 146.527 92.628 C 149.632 91.436, 157.996 93.073, 158.032 94.879 C 158.058 96.221, 158.336 96.156, 159.647 94.500 C 160.743 93.114, 161.373 92.884, 161.698 93.750 C 161.956 94.438, 162.606 95, 163.142 95 C 163.679 95, 163.892 94.634, 163.616 94.188 C 163.340 93.741, 168.713 93.375, 175.557 93.375 C 188.628 93.375, 189.786 93.845, 186.943 98 C 186.062 99.288, 185.958 99.262, 186.208 97.816 C 186.503 96.117, 186.321 96, 183.378 96 C 182.049 96, 181.980 96.271, 183 97.500 C 183.785 98.446, 183.852 99, 183.181 99 C 182.597 99, 181.826 98.528, 181.470 97.951 C 181.026 97.233, 180.381 97.269, 179.424 98.063 C 177.379 99.760, 174.663 98.396, 175.293 95.988 C 176.032 93.161, 174.538 93.523, 173.182 96.500 C 172.555 97.875, 171.528 99, 170.899 99 C 170.093 99, 170.129 98.549, 171.020 97.476 C 171.716 96.638, 171.996 95.663, 171.643 95.309 C 171.289 94.956, 171 95.139, 171 95.717 C 171 96.294, 170.134 96.993, 169.075 97.270 C 167.724 97.623, 167.308 97.360, 167.682 96.387 C 168.297 94.784, 165.455 94.454, 164.490 96.016 C 164.144 96.575, 163.474 96.793, 163 96.500 C 162.526 96.207, 161.902 96.349, 161.614 96.815 C 161.326 97.282, 159.607 97.535, 157.795 97.378 C 155.983 97.221, 151.125 96.856, 147 96.568 C 142.875 96.279, 139.275 95.982, 139 95.906 C 138.725 95.831, 137.663 95.858, 136.641 95.966 C 135.618 96.074, 135.051 95.727, 135.380 95.194 C 135.744 94.605, 134.120 94.351, 131.239 94.545 C 127.125 94.824, 126.531 95.138, 126.738 96.933 C 126.931 98.606, 126.418 99, 124.047 99 C 122.436 99, 120.866 99.407, 120.559 99.905 C 120.251 100.402, 118.200 100.568, 116 100.273 C 108.240 99.232, 118.234 105.374, 126.434 106.685 C 128.605 107.033, 131.533 107.918, 132.941 108.652 C 134.348 109.387, 137.442 109.990, 139.816 109.994 C 142.189 109.997, 144.966 110.447, 145.986 110.993 C 147.006 111.538, 152.714 112.043, 158.670 112.115 C 164.627 112.186, 171.272 112.610, 173.437 113.058 C 176.547 113.700, 177.618 113.537, 178.538 112.280 C 179.178 111.404, 180.556 110.608, 181.601 110.511 C 190.697 109.666, 197 107.603, 197 105.470 C 197 104.736, 197.965 104.462, 199.506 104.756 C 200.884 105.020, 202.680 104.681, 203.497 104.003 C 204.506 103.165, 206.491 102.996, 209.689 103.476 C 213.952 104.115, 214.269 104.029, 213.053 102.564 C 211.867 101.135, 212.049 100.955, 214.605 101.025 C 219.183 101.150, 237.500 99.493, 237.500 98.954 C 237.500 98.839, 238.400 98.638, 239.500 98.508 C 240.600 98.378, 244.200 97.680, 247.500 96.958 L 253.500 95.643 249.500 94.903 C 245.946 94.245, 237.285 94.600, 210.750 96.494 C 203.793 96.990, 202.998 96.865, 202.985 95.273 C 202.975 94.209, 202.676 93.929, 202.235 94.573 C 200.619 96.932, 198.215 96.904, 197.759 94.520 C 197.420 92.749, 197.677 92.323, 198.820 92.761 C 199.714 93.104, 200.067 92.917, 199.687 92.303 C 199.297 91.671, 200.853 91.018, 203.663 90.633 C 210.394 89.710, 211.285 89.814, 210.658 91.449 C 210.286 92.418, 210.582 92.714, 211.551 92.342 C 212.348 92.036, 213 91.387, 213 90.900 C 213 89.352, 221.417 90.231, 222.752 91.918 C 223.852 93.306, 223.923 93.266, 223.334 91.589 C 222.761 89.958, 223.016 89.773, 225.081 90.326 C 226.412 90.682, 227.864 90.979, 228.309 90.986 C 228.754 90.994, 228.840 91.450, 228.500 92 C 228.160 92.550, 228.321 93, 228.858 93 C 229.394 93, 230.062 92.438, 230.341 91.750 C 230.722 90.809, 231.114 90.871, 231.924 92 C 232.601 92.943, 233.278 93.129, 233.750 92.500 C 234.945 90.907, 238.343 90.616, 237.454 92.183 C 236.866 93.218, 236.984 93.243, 238.005 92.298 C 239.513 90.903, 266.894 91.438, 281 93.138 C 285.675 93.702, 291.637 94.104, 294.250 94.032 C 296.863 93.960, 299 94.331, 299 94.857 C 299 95.383, 299.902 95.577, 301.005 95.288 C 302.108 95, 303.624 95.273, 304.373 95.894 C 305.409 96.754, 306.050 96.644, 307.053 95.436 C 308.042 94.245, 309.264 94.023, 311.936 94.550 C 313.896 94.936, 316.942 95.382, 318.705 95.540 C 320.468 95.698, 322.381 96.117, 322.955 96.472 C 323.530 96.828, 324 96.694, 324 96.176 C 324 95.657, 323.212 95.007, 322.250 94.730 C 321.288 94.453, 319.639 93.874, 318.586 93.444 C 317.237 92.891, 316.885 93.006, 317.395 93.830 C 318.299 95.293, 316.770 95.370, 315.334 93.934 C 314.747 93.347, 312.745 92.628, 310.884 92.335 C 309.023 92.042, 306.801 91.428, 305.946 90.971 C 305.091 90.514, 303.782 90.517, 303.037 90.977 C 302.291 91.438, 301.191 91.669, 300.591 91.491 C 299.991 91.313, 298.222 90.886, 296.659 90.542 C 294.661 90.102, 293.990 89.468, 294.398 88.406 C 294.726 87.549, 294.550 87.160, 293.989 87.507 C 293.445 87.843, 293 88.793, 293 89.618 C 293 90.443, 292.527 90.826, 291.948 90.468 C 290.746 89.725, 284.774 89.205, 270.556 88.607 C 262.479 88.267, 260.366 87.854, 259.306 86.403 C 258.117 84.777, 258 84.769, 258 86.309 C 258 87.239, 257.298 88, 256.441 88 C 255.584 88, 255.157 87.555, 255.493 87.011 C 255.843 86.445, 255.442 86.277, 254.552 86.618 C 253.668 86.958, 253 86.685, 253 85.985 C 253 85.142, 252.607 85.065, 251.750 85.741 C 249.839 87.249, 247.004 86.859, 246.970 85.083 C 246.944 83.728, 246.795 83.748, 245.934 85.224 C 245.128 86.607, 243.548 86.936, 237.962 86.884 C 234.130 86.848, 231.235 86.429, 231.529 85.953 C 231.823 85.477, 232.725 85.341, 233.532 85.651 C 234.339 85.960, 235 85.756, 235 85.195 C 235 83.969, 232.720 84.196, 230.851 85.608 C 228.938 87.053, 222.985 86.587, 221.922 84.909 C 221.203 83.772, 221.028 83.837, 221.015 85.250 C 221.007 86.213, 220.564 87, 220.031 87 C 219.499 87, 219.322 86.325, 219.638 85.500 C 219.963 84.655, 219.663 84, 218.952 84 C 218.119 84, 218.305 83.321, 219.500 82 C 221.629 79.648, 223.461 79.356, 222.638 81.500 C 221.947 83.301, 223.134 83.466, 224.800 81.800 C 225.460 81.140, 226.007 81.027, 226.015 81.550 C 226.024 82.072, 226.474 81.825, 227.015 81 C 227.832 79.756, 228.149 79.732, 228.875 80.857 C 229.366 81.618, 230.006 81.799, 230.333 81.271 C 231.114 80.006, 242.305 80.971, 243.235 82.384 C 243.751 83.169, 243.974 83.129, 243.985 82.250 C 243.994 81.491, 245.375 81, 247.500 81 C 249.425 81, 251 81.477, 251 82.059 C 251 82.641, 251.412 82.864, 251.915 82.553 C 252.418 82.242, 253.057 82.553, 253.336 83.244 C 253.668 84.067, 253.869 83.951, 253.921 82.909 C 253.986 81.597, 254.780 81.436, 258.442 81.991 C 260.885 82.362, 265.411 82.573, 268.500 82.461 C 273.153 82.292, 274.016 82.516, 273.535 83.770 C 273.069 84.984, 273.237 85.048, 274.387 84.094 C 277.426 81.571, 289.538 83.125, 289.247 86 C 289.068 87.772, 289.253 88.099, 289.885 87.122 C 290.375 86.364, 291.235 86.027, 291.795 86.373 C 292.415 86.757, 292.603 86.200, 292.277 84.950 C 291.822 83.211, 292.105 82.980, 294.120 83.438 C 295.429 83.736, 297.772 84.185, 299.326 84.437 C 300.881 84.689, 303.581 85.345, 305.326 85.895 C 307.072 86.445, 310.975 87.031, 314 87.198 C 317.025 87.364, 320.095 88.063, 320.821 88.750 C 322.391 90.235, 327.399 90.455, 326.500 89 C 326.160 88.450, 325.207 88, 324.382 88 C 323.503 88, 323.177 87.522, 323.595 86.845 C 324.022 86.155, 323.871 85.961, 323.220 86.364 C 322.207 86.990, 315.751 85.050, 311.749 82.915 C 310.785 82.402, 308.310 81.763, 306.249 81.496 C 300.486 80.750, 298.299 80.230, 296.206 79.110 C 295.149 78.544, 293.106 78.295, 291.667 78.555 C 289.499 78.949, 289.162 78.728, 289.695 77.265 C 290.299 75.611, 290.209 75.614, 288.269 77.315 C 286.897 78.518, 285.973 78.766, 285.530 78.049 C 285.163 77.454, 284.474 77.207, 284 77.500 C 283.526 77.793, 282.875 77.606, 282.553 77.085 C 282.231 76.564, 282.432 75.851, 283 75.500 C 283.568 75.149, 283.774 74.443, 283.457 73.931 C 282.442 72.287, 281.148 72.934, 280.820 75.250 C 280.607 76.748, 279.776 77.537, 278.335 77.609 C 275.803 77.737, 276.225 75.321, 278.835 74.750 C 279.751 74.550, 279.038 74.152, 277.250 73.866 C 274.303 73.395, 273.993 73.587, 273.923 75.923 C 273.860 78.052, 273.617 77.805, 272.528 74.500 C 271.434 71.180, 270.435 70.422, 270.882 73.250 C 271.031 74.193, 269.562 74.229, 268.638 73.304 C 267.864 72.531, 265.759 72.031, 262 71.727 C 260.625 71.616, 259.223 71.141, 258.885 70.672 C 258.134 69.631, 251.941 69.096, 252.579 70.128 C 252.829 70.532, 252.575 71.144, 252.016 71.490 C 251.457 71.835, 251 71.615, 251 71 C 251 70.385, 250.550 70.160, 250 70.500 C 249.450 70.840, 249 70.698, 249 70.184 C 249 68.906, 239.297 67.015, 230.750 66.629 C 229.238 66.560, 228 66.157, 228 65.733 C 228 65.308, 226.913 65.158, 225.585 65.399 C 224.257 65.640, 222.929 65.596, 222.635 65.302 C 222.341 65.008, 219.041 64.649, 215.300 64.504 C 207.046 64.184, 207.486 64.324, 209 62.500 C 209.718 61.635, 209.815 61, 209.229 61 C 208.671 61, 207.977 61.617, 207.688 62.371 C 207.368 63.204, 206.049 63.618, 204.331 63.426 C 202.774 63.252, 200.375 62.989, 198.999 62.842 C 197.624 62.694, 195.968 62.902, 195.318 63.303 C 194.669 63.704, 193.856 63.575, 193.510 63.016 C 192.412 61.240, 190.014 61.849, 190.626 63.750 C 191.029 65.004, 190.927 65.136, 190.264 64.216 C 189.756 63.510, 188.589 63.221, 187.670 63.573 C 186.545 64.005, 186 63.699, 186 62.638 C 186 61.649, 186.558 61.277, 187.500 61.638 C 188.325 61.955, 189 61.698, 189 61.066 C 189 60.377, 187.502 59.986, 185.250 60.086 C 183.188 60.178, 180.634 59.893, 179.576 59.453 C 177.974 58.786, 177.766 58.974, 178.328 60.576 C 178.887 62.166, 178.662 62.097, 177.036 60.181 C 174.864 57.622, 171.865 58.310, 171.401 61.474 C 171.170 63.046, 171.286 63.051, 172.949 61.546 C 174.621 60.033, 174.784 60.066, 175.294 62.017 C 175.648 63.369, 175.427 63.964, 174.671 63.692 C 174.027 63.460, 172.713 63.675, 171.750 64.170 C 170.686 64.717, 170 64.702, 170 64.130 C 170 63.611, 168.210 63.430, 166 63.727 C 162.381 64.212, 162 64.053, 162 62.060 C 162 60.849, 161.244 59.102, 160.319 58.179 C 158.745 56.607, 158.674 56.627, 159.197 58.500 M 113.750 77.758 C 109.379 78.729, 113.445 82.422, 120.500 83.889 C 131.149 86.103, 146.658 85.651, 147.338 83.106 C 147.726 81.655, 147.779 81.658, 147.884 83.133 C 148.029 85.173, 151.413 86.154, 153.062 84.634 C 153.991 83.778, 154.120 83.807, 153.588 84.750 C 153.089 85.634, 153.799 86, 156.014 86 C 158.477 86, 159.065 85.626, 158.764 84.250 C 158.553 83.287, 157.862 82.607, 157.227 82.738 C 156.555 82.876, 156.325 82.318, 156.675 81.404 C 157.119 80.248, 157.477 80.153, 158.027 81.044 C 158.450 81.729, 159.327 81.916, 160.043 81.474 C 160.906 80.940, 161.061 81.093, 160.529 81.953 C 159.954 82.884, 160.372 83.058, 162.125 82.616 C 163.431 82.288, 163.932 82.279, 163.239 82.596 C 159.550 84.286, 159.845 87.058, 163.700 86.918 C 165.790 86.843, 170.088 86.989, 173.250 87.242 C 178.237 87.642, 180.957 86.841, 178.032 85.833 C 177.439 85.629, 177.415 84.934, 177.971 84.040 C 178.747 82.790, 179.171 82.845, 180.915 84.423 C 182.036 85.438, 182.781 86.545, 182.572 86.884 C 182.362 87.223, 183.273 87.500, 184.595 87.500 C 185.918 87.500, 187 87.130, 187 86.679 C 187 86.227, 187.716 85.142, 188.590 84.267 C 190.044 82.813, 190.151 82.876, 189.840 84.995 C 189.648 86.309, 190.087 87.514, 190.855 87.775 C 191.854 88.115, 192.023 87.647, 191.498 85.993 C 190.971 84.333, 191.111 83.951, 192.038 84.523 C 192.959 85.093, 193.156 84.598, 192.784 82.649 C 192.445 80.879, 192.710 80, 193.581 80 C 194.347 80, 194.726 80.826, 194.500 82 C 194.288 83.100, 194.539 84, 195.057 84 C 195.576 84, 196 84.436, 196 84.969 C 196 85.501, 195.325 85.678, 194.500 85.362 C 193.675 85.045, 193 85.302, 193 85.933 C 193 86.666, 194.593 86.976, 197.416 86.790 C 199.845 86.631, 201.758 86.106, 201.666 85.625 C 201.575 85.144, 202.125 84.523, 202.889 84.245 C 203.740 83.936, 204.008 84.178, 203.580 84.870 C 203.085 85.672, 205.078 86, 210.441 86 C 215.094 86, 218 85.593, 218 84.941 C 218 84.359, 217.631 84.110, 217.181 84.388 C 216.730 84.667, 216.562 83.529, 216.807 81.861 C 217.207 79.138, 217.009 78.865, 214.876 79.188 C 213.569 79.386, 212.612 80.099, 212.750 80.774 C 212.887 81.448, 212.339 82, 211.531 82 C 210.724 82, 210.278 81.438, 210.542 80.750 C 210.888 79.847, 209.366 79.452, 205.064 79.326 L 199.107 79.152 200.054 81.641 C 201.798 86.229, 200.163 86.524, 198.153 81.984 L 196.818 78.968 186.659 79.234 C 177.620 79.471, 176.532 79.693, 176.794 81.250 C 176.955 82.213, 176.618 83, 176.044 83 C 175.470 83, 175 83.675, 175 84.500 C 175 85.325, 174.523 86, 173.941 86 C 173.359 86, 173.139 85.584, 173.453 85.076 C 173.767 84.567, 173.231 83.945, 172.262 83.692 C 170.887 83.333, 170.981 83.207, 172.691 83.116 C 175.370 82.974, 176.160 81.878, 174.971 79.952 C 174.226 78.747, 169.268 78.462, 145.820 78.274 C 130.281 78.150, 117.103 77.895, 116.534 77.709 C 115.965 77.522, 114.713 77.544, 113.750 77.758 M 320.500 128.517 C 315.550 130.980, 311.144 132.996, 310.708 132.998 C 309.923 133, 308.486 134.058, 305.202 137.052 C 304.266 137.905, 301.587 139.436, 299.250 140.454 C 296.913 141.471, 295 142.655, 295 143.084 C 295 143.514, 293.988 144.174, 292.750 144.552 C 288.519 145.843, 264 163.358, 264 165.089 C 264 166.600, 267.020 166.112, 267.638 164.500 C 267.955 163.675, 268.818 163, 269.557 163 C 270.296 163, 271.260 162.438, 271.700 161.750 C 272.140 161.063, 280.144 156.675, 289.486 152 C 298.828 147.325, 308.416 142.213, 310.793 140.641 C 315.312 137.650, 318.163 137.769, 313.968 140.773 C 310.330 143.378, 302 148.106, 302 147.566 C 302 147.305, 300.895 148.195, 299.545 149.545 C 298.195 150.895, 296.612 152, 296.026 152 C 295.440 152, 293.152 153.141, 290.943 154.536 C 288.733 155.931, 286.423 156.761, 285.808 156.382 C 285.156 155.978, 284.969 156.141, 285.360 156.773 C 285.728 157.369, 285.235 158.121, 284.265 158.444 C 283.294 158.767, 280.250 161.098, 277.500 163.624 C 274.750 166.149, 271.488 168.606, 270.250 169.083 C 269.012 169.560, 268 170.385, 268 170.916 C 268 173.418, 270.502 172.748, 276.244 168.709 C 279.685 166.289, 283.175 163.997, 284 163.615 C 284.825 163.234, 286.403 162.377, 287.506 161.711 C 288.609 161.045, 292.659 158.735, 296.506 156.577 C 306.866 150.765, 309.659 149.194, 313.250 147.154 C 315.038 146.138, 319.200 143.808, 322.500 141.976 C 325.800 140.144, 329.848 137.712, 331.495 136.573 C 333.142 135.433, 336.412 133.570, 338.761 132.433 C 341.110 131.296, 342.725 130.058, 342.349 129.683 C 340.850 128.183, 336.566 129.171, 330.133 132.500 C 322.430 136.487, 322 136.588, 322 134.417 C 322 133.546, 322.558 133.019, 323.241 133.247 C 323.924 133.475, 325.022 133.175, 325.681 132.580 C 326.341 131.986, 328.469 130.375, 330.411 129 C 338.711 123.122, 332.001 122.795, 320.500 128.517" stroke="none" fill="#1a1a2e" fill-rule="evenodd"/>
</svg>