<svg xmlns="http://www.w3.org/2000/svg" width="400" height="265" viewBox="0 0 400 265" version="1.1">
	<path d="M 0.507 1.843 C -0.710 5.014, 0.042 97, 1.285 97.015 C 2.077 97.025, 1.998 97.348, 1.057 97.944 C -0.111 98.683, -0.163 99.346, 0.785 101.428 C 1.430 102.843, 1.545 104, 1.041 104 C 0.537 104, 0.193 104.911, 0.277 106.025 C 0.375 107.325, 0.934 107.856, 1.841 107.508 C 2.946 107.084, 2.897 107.508, 1.617 109.461 C -1.380 114.036, -0.338 121.014, 3.160 119.794 C 4.724 119.249, 6.254 118.397, 6.561 117.902 C 7.549 116.302, 9.847 116.943, 10.500 119 C 11.162 121.085, 14.427 121.736, 15.502 119.997 C 15.914 119.329, 16.761 119.337, 18.038 120.020 C 19.586 120.849, 19.843 120.753, 19.371 119.523 C 18.854 118.177, 17.015 117.524, 14.750 117.882 C 13.645 118.056, 13.838 116.218, 15 115.500 C 16.732 114.429, 16.093 112.986, 13.440 111.977 C 12.018 111.436, 11.173 110.529, 11.540 109.935 C 11.903 109.348, 12.439 109.106, 12.732 109.398 C 13.024 109.691, 14.077 109.494, 15.072 108.961 C 16.477 108.210, 17.230 108.491, 18.441 110.219 C 20.179 112.701, 20.580 110.953, 18.965 107.934 C 17.462 105.127, 18.892 105.564, 21.632 108.750 C 22.933 110.263, 23.998 110.938, 23.999 110.250 C 23.999 109.563, 25.012 109.014, 26.250 109.030 C 28.265 109.058, 28.316 109.168, 26.743 110.084 C 25.319 110.913, 25.197 111.499, 26.097 113.181 C 26.945 114.765, 26.899 115.445, 25.901 116.061 C 24.073 117.191, 22.681 116.089, 23.973 114.533 C 24.777 113.564, 24.531 113.111, 22.980 112.705 C 21.240 112.250, 21.023 112.505, 21.592 114.333 C 22.241 116.421, 22.194 116.436, 20.304 114.750 C 17.805 112.520, 17.350 112.552, 16.710 115 C 16.392 116.219, 16.680 117, 17.448 117 C 18.773 117, 24 121.435, 24 122.559 C 24 122.919, 23.339 122.960, 22.532 122.651 C 21.725 122.341, 20.798 122.518, 20.473 123.044 C 20.148 123.570, 20.782 124, 21.882 124 C 22.982 124, 24.160 124.450, 24.500 125 C 24.840 125.550, 25.627 126, 26.250 126 C 26.873 126, 26.553 125.394, 25.540 124.653 C 24.263 123.719, 24.051 123.087, 24.849 122.594 C 25.482 122.202, 26 122.359, 26 122.941 C 26 123.523, 26.498 124, 27.107 124 C 27.716 124, 27.955 123.325, 27.638 122.500 C 27.227 121.428, 27.736 121, 29.424 121 C 32.683 121, 33.379 118.431, 30.777 116.007 L 28.623 114 30.811 114 C 32.855 114, 33.426 113.100, 33.105 110.383 C 33.033 109.769, 33.655 108.702, 34.487 108.011 C 35.435 107.224, 36 107.152, 36 107.819 C 36 108.403, 35.543 109.165, 34.984 109.510 C 34.425 109.856, 34.238 110.577, 34.570 111.113 C 34.901 111.649, 34.571 112.816, 33.836 113.706 C 32.782 114.984, 32.765 115.414, 33.756 115.748 C 34.447 115.981, 34.719 116.695, 34.360 117.335 C 33.940 118.084, 34.188 118.053, 35.053 117.250 C 36.869 115.564, 39.067 115.662, 38.400 117.399 C 38.105 118.168, 38.339 119.092, 38.920 119.451 C 39.530 119.827, 39.757 119.532, 39.458 118.752 C 38.583 116.472, 45.339 113.792, 47.648 115.503 C 49.442 116.833, 49.438 116.923, 47.500 118.367 C 45.691 119.715, 45.661 119.920, 47.187 120.511 C 49.020 121.222, 48.624 123.780, 46.690 123.721 C 42.713 123.600, 41.882 124.052, 42.500 126 C 42.901 127.262, 42.680 128, 41.901 128 C 41.222 128, 40.913 128.246, 41.213 128.547 C 42.182 129.516, 48.468 125.443, 49.487 123.186 C 50.030 121.984, 50.844 121, 51.296 121 C 51.748 121, 51.852 120.570, 51.527 120.044 C 51.202 119.518, 50.163 119.365, 49.218 119.704 C 47.883 120.183, 48.002 119.768, 49.750 117.846 C 50.988 116.485, 52 114.838, 52 114.186 C 52 113.533, 52.505 113, 53.122 113 C 53.923 113, 53.939 112.632, 53.179 111.716 C 52.593 111.010, 52.249 109.547, 52.415 108.466 C 52.581 107.385, 52.218 106.128, 51.608 105.674 C 50.815 105.082, 50.857 104.703, 51.756 104.338 C 52.447 104.058, 52.787 103.465, 52.512 103.019 C 52.237 102.574, 52.713 101.940, 53.571 101.611 C 54.793 101.142, 54.994 101.498, 54.500 103.256 C 54.069 104.790, 54.162 105.078, 54.795 104.166 C 55.551 103.077, 55.829 103.111, 56.305 104.352 C 56.625 105.187, 56.350 106.089, 55.694 106.356 C 54.826 106.709, 54.850 106.864, 55.781 106.921 C 57.467 107.025, 58.711 103.737, 57.180 103.227 C 55.618 102.706, 55.667 100.286, 57.250 99.721 C 57.938 99.475, 59.680 99.870, 61.123 100.597 C 62.566 101.325, 63.973 101.694, 64.250 101.417 C 66.067 99.600, 65.446 104.538, 63.495 107.412 C 62.035 109.564, 61.496 111.189, 62.117 111.572 C 62.677 111.918, 63.380 111.261, 63.681 110.112 C 63.982 108.963, 64.535 108.213, 64.911 108.445 C 65.288 108.678, 66.249 108.455, 67.048 107.949 C 68.246 107.191, 68.188 107.028, 66.715 107.015 C 65.282 107.003, 65.127 106.631, 65.930 105.131 C 66.480 104.104, 66.656 102.990, 66.322 102.656 C 65.988 102.322, 66.225 101.434, 66.849 100.682 C 67.472 99.931, 67.687 99.020, 67.325 98.658 C 66.963 98.296, 67.192 98, 67.833 98 C 68.475 98, 69 98.956, 69 100.125 C 69 101.941, 69.425 102.165, 71.930 101.664 C 73.568 101.336, 75.009 101.528, 75.200 102.099 C 75.406 102.717, 76.716 102.478, 78.520 101.493 L 81.500 99.865 78.250 100.512 C 76.368 100.887, 75 100.750, 75 100.186 C 75 99.652, 74.302 98.946, 73.448 98.618 C 72.478 98.246, 72.149 98.432, 72.571 99.115 C 73.641 100.846, 68.072 96.922, 66.901 95.120 C 66.044 93.801, 65.935 93.785, 66.311 95.035 C 66.922 97.068, 60.876 97.123, 60.198 95.091 C 59.864 94.090, 60.238 93.877, 61.489 94.358 C 63.413 95.096, 71 92.178, 71 90.699 C 71 89.285, 65.656 90.905, 64.250 92.746 C 63.114 94.233, 63 94.210, 63 92.491 C 63 91.020, 62.733 90.867, 61.800 91.800 C 60.048 93.552, 57.315 93.266, 56.548 91.250 C 56.053 89.952, 56.173 89.790, 57.013 90.622 C 58.301 91.900, 62.967 90.248, 63.008 88.500 C 63.020 87.950, 63.467 88.175, 64 89 C 64.646 90, 64.974 90.083, 64.985 89.250 C 64.993 88.563, 65.477 88, 66.059 88 C 66.641 88, 66.843 88.445, 66.507 88.989 C 66.157 89.555, 66.557 89.724, 67.442 89.384 C 68.293 89.057, 68.700 88.275, 68.348 87.645 C 67.960 86.953, 68.240 86.995, 69.053 87.750 C 70.661 89.242, 72.376 89.417, 71.500 88 C 71.160 87.450, 71.359 87, 71.941 87 C 72.523 87, 73 87.927, 73 89.059 C 73 90.191, 73.450 90.840, 74 90.500 C 74.550 90.160, 75 90.782, 75 91.882 C 75 94.181, 73.439 95.519, 72.510 94.016 C 71.651 92.627, 70.314 92.739, 69.735 94.250 C 69.409 95.103, 70.566 95.582, 73.378 95.759 C 75.645 95.902, 76.961 95.665, 76.303 95.233 C 75.581 94.759, 75.439 93.908, 75.943 93.091 C 76.583 92.057, 76.950 92.266, 77.490 93.969 C 78.020 95.639, 78.486 95.914, 79.338 95.062 C 80.189 94.211, 79.658 93.283, 77.229 91.382 C 75.442 89.984, 74.234 88.430, 74.544 87.929 C 74.853 87.428, 76.261 88.088, 77.671 89.396 C 79.914 91.476, 80.678 91.651, 83.767 90.799 C 85.709 90.263, 88.356 90.026, 89.649 90.273 C 90.942 90.520, 92 90.283, 92 89.745 C 92 89.207, 92.900 89.002, 94 89.290 C 96.069 89.831, 96.762 88.589, 95 87.500 C 94.450 87.160, 94 86.426, 94 85.870 C 94 85.313, 94.667 85.524, 95.482 86.339 C 96.297 87.154, 97.535 88.087, 98.232 88.411 C 99.241 88.880, 99.245 89.119, 98.250 89.583 C 96.523 90.389, 96.680 92.940, 98.500 93.638 C 100.777 94.512, 100.295 95.483, 97.506 95.644 C 95.995 95.731, 95.269 95.375, 95.661 94.739 C 96.042 94.122, 95.827 93.989, 95.138 94.415 C 93.609 95.360, 94.443 96.621, 97.046 97.302 C 99.120 97.844, 103.757 92.350, 102.326 91.046 C 101.996 90.746, 101.524 91.065, 101.278 91.756 C 100.792 93.118, 99 92.477, 99 90.941 C 99 89.625, 102.734 89.761, 103.566 91.107 C 104.043 91.879, 104.515 91.803, 105.125 90.857 C 105.851 89.732, 106.168 89.756, 106.985 91 C 107.526 91.825, 108.033 92.162, 108.110 91.750 C 108.187 91.338, 108.313 90.662, 108.390 90.250 C 108.467 89.838, 108.935 88.861, 109.429 88.080 C 110.110 87.005, 109.924 86.815, 108.664 87.299 C 107.749 87.650, 107 87.538, 107 87.050 C 107 86.563, 106.733 85.339, 106.406 84.332 C 105.914 82.818, 105.995 82.760, 106.869 84 C 108.266 85.981, 110.104 85.896, 112.250 83.750 C 114.262 81.738, 114.610 79.538, 112.750 80.588 C 111.792 81.129, 111.772 80.999, 112.663 80.034 C 115.112 77.381, 116.148 80.084, 114.047 83.645 C 111.583 87.822, 111.600 87.232, 113.867 89.847 C 116.062 92.377, 117 92.573, 117 90.500 C 117 89.675, 116.325 89, 115.500 89 C 113.794 89, 113.570 87.212, 115 85 C 115.704 83.910, 115.974 83.858, 115.985 84.809 C 115.993 85.529, 116.386 85.880, 116.858 85.588 C 117.329 85.296, 119.129 85.463, 120.858 85.959 C 122.586 86.455, 124 86.507, 124 86.075 C 124 85.643, 122.537 84.872, 120.750 84.363 C 118.223 83.642, 117.428 82.819, 117.178 80.659 C 117.001 79.132, 116.225 77.640, 115.454 77.344 C 114.348 76.920, 114.311 76.550, 115.276 75.597 C 117.483 73.417, 119.896 73.039, 121.480 74.623 C 123.037 76.180, 122.715 78, 120.882 78 C 120.332 78, 120.160 77.550, 120.500 77 C 121.630 75.172, 119.954 73.904, 118.427 75.430 C 117.166 76.692, 117.301 77.222, 119.490 79.584 C 120.871 81.074, 122 82.676, 122 83.146 C 122 83.616, 123.125 84, 124.500 84 C 126.530 84, 127 83.508, 127 81.383 C 127 79.259, 127.376 78.865, 129 79.290 C 130.100 79.577, 131 79.433, 131 78.969 C 131 78.504, 131.900 78.192, 133 78.275 C 134.937 78.421, 135.930 80, 134.085 80 C 133.582 80, 132.119 80.906, 130.835 82.014 C 129.551 83.121, 127.600 84.720, 126.500 85.566 C 124.665 86.978, 124.738 86.989, 127.378 85.707 C 130.736 84.077, 134.979 85.420, 134.992 88.118 C 134.998 89.377, 134.114 89.685, 131 89.509 C 127.180 89.294, 125.855 90.174, 128.003 91.502 C 128.658 91.907, 128.600 92.879, 127.834 94.311 C 127.189 95.515, 126.772 96.714, 126.906 96.975 C 127.040 97.236, 126.604 97.632, 125.936 97.855 C 125.178 98.107, 124.990 97.740, 125.435 96.880 C 125.827 96.121, 125.527 96.255, 124.767 97.178 C 123.863 98.275, 122.903 98.558, 121.993 97.996 C 120.925 97.336, 121.344 96.713, 123.794 95.318 C 126.941 93.527, 127.955 92, 126 92 C 125.450 92, 125 92.450, 125 93 C 125 93.550, 124.406 94, 123.680 94 C 122.955 94, 121.313 95.205, 120.033 96.677 L 117.705 99.354 115.985 97.229 C 114.368 95.233, 110 94.491, 110 96.213 C 110 96.646, 109.325 97, 108.500 97 C 107.675 97, 107 96.550, 107 96 C 107 95.450, 106.325 95, 105.500 95 C 103.700 95, 103.456 96.986, 105.250 97.032 C 107.118 97.079, 101.162 101.995, 99.194 102.030 C 97.649 102.058, 97.656 102.152, 99.271 103.092 C 101.780 104.553, 100.394 106.281, 97.819 104.903 C 96.325 104.103, 95.945 104.103, 96.438 104.900 C 96.812 105.505, 96.641 106, 96.059 106 C 95.477 106, 95 106.800, 95 107.778 C 95 109.877, 98.677 113.332, 99.497 112.004 C 99.809 111.500, 100.643 111.310, 101.351 111.581 C 102.992 112.211, 102.734 118.928, 101.028 119.983 C 100.170 120.513, 100.678 121.075, 102.637 121.763 C 105.274 122.688, 105.342 122.831, 103.500 123.578 C 101.328 124.458, 99 126.480, 99 127.488 C 99 127.834, 99.445 127.843, 99.989 127.507 C 100.555 127.157, 100.723 127.558, 100.382 128.448 C 100.054 129.302, 100.242 130, 100.799 130 C 101.357 130, 101.577 130.900, 101.290 132 C 101.002 133.100, 100.369 134, 99.883 134 C 99.398 134, 99 134.498, 99 135.107 C 99 135.716, 99.675 135.955, 100.500 135.638 C 101.442 135.277, 102 135.649, 102 136.638 C 102 137.665, 101.448 138.002, 100.416 137.606 C 99.406 137.218, 98.992 137.451, 99.274 138.249 C 99.517 138.937, 100.485 139.432, 101.426 139.350 C 102.648 139.242, 102.942 139.672, 102.455 140.850 C 102.080 141.757, 101.555 143.256, 101.288 144.181 C 100.744 146.067, 98 145.508, 98 143.512 C 98 141.986, 91.125 136.541, 90.274 137.393 C 89.607 138.060, 93.813 142, 95.192 142 C 95.680 142, 95.544 142.573, 94.890 143.273 C 93.135 145.151, 87.332 139.284, 88.737 137.053 C 90.075 134.928, 93 134.474, 93 136.391 C 93 137.641, 95.759 140, 97.220 140 C 97.414 140, 97.522 138.538, 97.460 136.750 C 97.327 132.886, 95.415 128.968, 93.715 129.079 C 92.799 129.138, 92.808 129.282, 93.750 129.662 C 95.600 130.409, 95.267 131.697, 93.075 132.270 C 91.622 132.650, 91.290 132.372, 91.722 131.137 C 92.114 130.015, 91.964 129.815, 91.244 130.500 C 90.667 131.050, 90.038 132.363, 89.847 133.417 C 89.656 134.472, 88.825 135.557, 88 135.830 C 86.706 136.257, 86.691 136.094, 87.891 134.640 C 89.106 133.169, 89.074 133.034, 87.641 133.584 C 86.729 133.934, 86 133.723, 86 133.107 C 86 132.498, 86.723 132, 87.607 132 C 88.592 132, 89.001 131.445, 88.663 130.565 C 88.360 129.775, 88.586 128.971, 89.166 128.778 C 89.768 128.577, 89.520 127.847, 88.587 127.072 C 87.180 125.905, 87.040 125.942, 87.578 127.342 C 88.121 128.758, 87.803 128.827, 85.102 127.886 C 83.347 127.274, 82.286 126.346, 82.656 125.748 C 83.030 125.143, 82.834 124.984, 82.198 125.378 C 80.393 126.493, 82.020 129, 84.548 129 C 85.832 129, 87.160 129.450, 87.500 130 C 87.861 130.583, 86.844 131, 85.059 131 C 83.377 131, 82 131.477, 82 132.059 C 82 132.641, 82.445 132.843, 82.989 132.507 C 83.546 132.162, 83.728 132.545, 83.406 133.385 C 83.072 134.255, 82.141 134.636, 81.167 134.302 C 79.944 133.883, 80.030 134.143, 81.489 135.277 C 82.583 136.127, 83.820 136.611, 84.239 136.352 C 85.580 135.524, 85.053 137.090, 83.452 138.690 C 82.601 139.542, 82.213 140.522, 82.589 140.869 C 82.966 141.216, 83.475 140.938, 83.720 140.250 C 84.321 138.568, 85.659 138.669, 86.342 140.449 C 86.714 141.418, 86.418 141.714, 85.449 141.342 C 84.652 141.036, 84 141.270, 84 141.862 C 84 143.358, 81.279 142.169, 80.589 140.371 C 80.271 139.542, 80.456 139.164, 81.011 139.507 C 82.969 140.717, 81.943 138.205, 79.191 135.054 L 76.383 131.837 76.801 135.419 C 77.031 137.388, 77.620 139, 78.109 139 C 78.599 139, 79 139.520, 79 140.155 C 79 140.823, 78.186 140.573, 77.067 139.561 C 76.005 138.599, 75.360 137.225, 75.636 136.507 C 75.911 135.790, 75.703 134.934, 75.173 134.607 C 74.643 134.279, 73.909 134.795, 73.541 135.753 C 72.801 137.682, 77.440 142.464, 79.072 141.455 C 79.583 141.140, 80 141.332, 80 141.882 C 80 142.432, 79.550 143.160, 79 143.500 C 78.450 143.840, 77.993 145.104, 77.985 146.309 C 77.976 147.566, 77.656 148.036, 77.235 147.412 C 76.831 146.814, 75.375 146.049, 74 145.712 C 71.774 145.167, 71.690 145.242, 73.234 146.399 C 75.167 147.846, 74.588 149.163, 72.389 148.319 C 71.611 148.021, 70.376 148.273, 69.645 148.879 C 68.914 149.486, 68.050 149.716, 67.725 149.391 C 66.542 148.209, 64.857 150.122, 65.936 151.422 C 66.664 152.300, 66.604 152.681, 65.734 152.714 C 65.055 152.740, 63.651 153.112, 62.614 153.540 C 61.218 154.116, 60.855 153.952, 61.217 152.909 C 61.487 152.134, 62.373 151.615, 63.187 151.756 C 64.001 151.896, 64.667 151.358, 64.667 150.560 C 64.667 149.482, 64.212 149.351, 62.899 150.054 C 60.393 151.395, 60.333 151.344, 60.333 147.868 C 60.333 144.967, 60.435 144.874, 61.706 146.613 C 62.891 148.233, 63.209 148.285, 64.024 146.995 C 64.654 145.999, 64.974 145.918, 64.985 146.750 C 64.993 147.438, 65.708 148, 66.573 148 C 67.551 148, 68.002 147.337, 67.764 146.250 C 67.553 145.287, 66.845 144.612, 66.191 144.750 C 65.536 144.887, 65 144.627, 65 144.171 C 65 142.845, 60.640 143.367, 59.045 144.884 C 58.027 145.851, 57.475 145.925, 57.209 145.128 C 57 144.501, 56.341 144.289, 55.745 144.658 C 55.068 145.076, 54.886 144.739, 55.261 143.762 C 55.592 142.900, 55.647 141.980, 55.383 141.716 C 54.605 140.939, 50.114 145.376, 50.708 146.336 C 51.006 146.819, 51.609 146.632, 52.049 145.921 C 52.701 144.866, 53.137 144.869, 54.424 145.937 C 55.291 146.656, 56.007 146.852, 56.015 146.372 C 56.024 145.893, 56.467 146.175, 57 147 C 57.704 148.090, 57.974 148.142, 57.985 147.191 C 57.993 146.471, 58.457 146.165, 59.016 146.510 C 60.519 147.439, 59.181 149, 56.882 149 C 55.625 149, 55.147 149.429, 55.595 150.155 C 56.038 150.870, 55.870 151.038, 55.155 150.595 C 54.520 150.203, 53.993 149.121, 53.985 148.191 C 53.972 146.817, 53.803 146.763, 53.080 147.905 C 52.363 149.037, 51.714 148.794, 49.731 146.655 C 46.941 143.644, 46 143.347, 46 145.477 C 46 146.993, 46.897 147.660, 55.476 152.526 C 58.213 154.079, 59.885 155.538, 59.192 155.769 C 58.500 156, 57.293 155.659, 56.512 155.010 C 53.108 152.185, 48.119 150.248, 47.617 151.556 C 47.346 152.263, 46.308 152.686, 45.312 152.497 C 44.315 152.308, 42.911 152.119, 42.191 152.077 C 41.471 152.034, 41.187 151.507, 41.559 150.904 C 41.982 150.220, 41.533 149.952, 40.368 150.190 C 39.341 150.401, 37.960 149.881, 37.300 149.036 C 36.288 147.742, 36.189 147.854, 36.666 149.750 C 36.978 150.988, 37.743 152.007, 38.367 152.015 C 38.990 152.024, 38.825 152.467, 38 153 C 36.512 153.961, 36.721 154.079, 40.412 154.356 C 41.464 154.435, 42.511 155.175, 42.738 156 C 43.106 157.333, 43.034 157.333, 42.091 156 C 41.300 154.881, 41.027 154.835, 41.015 155.821 C 41.007 156.548, 40.437 157.695, 39.750 158.369 C 38.365 159.727, 33.846 160.058, 34.660 158.742 C 34.941 158.286, 34.633 157.263, 33.974 156.469 C 33.315 155.675, 33.071 154.257, 33.431 153.319 C 34.045 151.720, 33.969 151.718, 32.232 153.290 C 30.847 154.544, 29.633 154.763, 27.439 154.158 C 23.815 153.158, 18.477 154.289, 21.250 155.469 C 22.212 155.879, 23.729 155.934, 24.620 155.592 C 25.616 155.210, 26.965 155.806, 28.120 157.138 C 30.391 159.757, 30.489 160.402, 28.500 159.638 C 27.023 159.071, 26.574 160.051, 26.959 163 C 27.122 164.248, 26.932 164.227, 25.828 162.874 C 25.097 161.980, 23.600 160.714, 22.500 160.061 C 20.693 158.989, 20.766 158.930, 23.250 159.456 C 25.299 159.890, 26 159.651, 26 158.519 C 26 157.684, 25.137 157, 24.082 157 C 23.027 157, 21.379 156.699, 20.421 156.331 C 19.002 155.787, 18.787 156.076, 19.261 157.888 C 19.724 159.661, 19.571 159.889, 18.510 159.009 C 17.666 158.308, 16.957 158.260, 16.575 158.879 C 15.876 160.010, 18.988 161.287, 23.809 161.848 C 24.529 161.931, 24.842 162.446, 24.506 162.991 C 24.118 163.618, 22.587 163.436, 20.340 162.498 C 18.386 161.681, 16.445 161.225, 16.027 161.483 C 15.609 161.741, 14.420 160.987, 13.384 159.807 C 12 158.230, 11.899 157.805, 13.005 158.205 C 14.601 158.782, 17.302 156.635, 16.273 155.607 C 15.940 155.273, 14.575 155, 13.240 155 C 11.654 155, 10.632 154.307, 10.290 153 C 10.002 151.900, 9.257 150.963, 8.633 150.917 C 8.010 150.871, 6.488 150.721, 5.250 150.584 C 3.496 150.389, 3 150.842, 3 152.636 C 3 154.108, 2.534 154.758, 1.706 154.441 C 0.722 154.063, 0.416 155.628, 0.429 160.972 C 0.446 168.147, 1.012 169.131, 3.620 166.522 C 5.371 164.772, 5.094 161.982, 3 160.282 C 1.686 159.215, 1.713 159.060, 3.219 159.032 C 4.393 159.010, 4.763 158.446, 4.387 157.250 C 3.901 155.706, 3.993 155.679, 5.168 157.022 C 5.901 157.858, 7.513 158.482, 8.750 158.408 C 9.988 158.334, 11 158.710, 11 159.244 C 11 159.777, 10.339 159.960, 9.532 159.651 C 8.725 159.341, 7.755 159.587, 7.378 160.198 C 6.962 160.871, 7.146 161.028, 7.845 160.595 C 8.480 160.203, 9 160.389, 9 161.008 C 9 161.651, 9.798 161.881, 10.859 161.545 C 11.909 161.212, 13.240 161.584, 13.917 162.401 C 14.602 163.226, 16.165 163.656, 17.559 163.404 C 20.097 162.943, 20.883 164.336, 18.809 165.618 C 18.154 166.023, 17.441 165.822, 17.224 165.171 C 17.007 164.520, 16.385 164.262, 15.841 164.598 C 15.292 164.938, 15.773 165.853, 16.927 166.661 C 19.555 168.502, 19.589 169.920, 17 169.725 C 15.900 169.642, 15 168.995, 15 168.287 C 15 167.579, 14.339 167, 13.531 167 C 12.724 167, 12.291 166.405, 12.570 165.678 C 13.082 164.344, 8.230 161.437, 7.204 162.463 C 6.909 162.758, 7.079 163.007, 7.583 163.015 C 10.043 163.056, 11.196 164.765, 10.121 166.775 C 9.157 168.576, 9.285 168.743, 11.267 168.266 C 12.763 167.905, 13.170 168.060, 12.500 168.735 C 10.641 170.606, 6.254 171.103, 5.643 169.511 C 5.233 168.445, 4.457 168.265, 2.838 168.864 C 0.558 169.708, -0.200 173.249, 1.359 175.772 C 1.776 176.447, 1.656 177, 1.091 177 C 0.435 177, 0.379 177.812, 0.936 179.250 C 1.416 180.487, 2.359 181.368, 3.032 181.207 C 3.824 181.018, 4.061 181.657, 3.705 183.019 C 3.362 184.332, 3.697 185.330, 4.595 185.675 C 6.392 186.364, 6.010 189.265, 4 190.192 C 2.822 190.735, 2.981 191.028, 4.739 191.555 C 5.970 191.925, 6.771 192.561, 6.519 192.969 C 6.267 193.377, 7.100 193.512, 8.369 193.270 C 10.140 192.931, 10.647 193.260, 10.542 194.682 C 10.288 198.131, 7.812 199.693, 1.500 200.390 C 0.950 200.450, 0.472 202.428, 0.437 204.785 C 0.391 207.929, 0.724 208.936, 1.687 208.566 C 2.409 208.289, 3 208.691, 3 209.458 C 3 210.225, 2.213 211.042, 1.250 211.272 C -0.321 211.648, -0.296 211.777, 1.500 212.539 C 4.619 213.863, 6.741 216.253, 5.241 216.753 C 4.558 216.981, 4 217.834, 4 218.651 C 4 220.798, 7.773 219.381, 11.211 215.942 C 14.054 213.099, 14.929 211.308, 12.845 212.595 C 12.130 213.038, 11.962 212.870, 12.405 212.155 C 13.556 210.291, 14.917 210.821, 15.561 213.386 C 16.141 215.697, 20 216.130, 20 213.883 C 20 212.657, 24.179 212.803, 26 214.094 C 27.172 214.924, 26.900 215.061, 24.750 214.717 C 20.700 214.070, 21.397 215.664, 25.500 216.434 C 27.726 216.852, 29 217.659, 29 218.652 C 29 219.614, 28.436 219.998, 27.532 219.651 C 25.102 218.718, 24.784 220.784, 27.015 223.015 C 28.298 224.298, 29.807 224.879, 30.933 224.521 C 31.997 224.183, 32.978 224.502, 33.278 225.282 C 33.656 226.266, 33.021 226.510, 30.896 226.198 C 29.181 225.946, 28 226.227, 28 226.887 C 28 227.499, 27.212 228.014, 26.250 228.030 C 24.583 228.059, 24.583 228.109, 26.250 229.080 C 28.933 230.643, 28.329 232.103, 25.250 231.498 C 22.637 230.985, 22.611 231.016, 24.726 232.121 C 27.368 233.501, 30.240 231.789, 29.318 229.385 C 28.886 228.261, 29.369 228.028, 31.377 228.392 C 32.820 228.654, 34 228.447, 34 227.934 C 34 227.420, 34.450 227, 35 227 C 35.550 227, 36 227.662, 36 228.471 C 36 229.281, 37.462 230.370, 39.250 230.892 C 42.270 231.774, 42.341 231.891, 40.261 232.535 C 39.030 232.916, 38.269 233.626, 38.570 234.114 C 39.233 235.186, 43.104 235.312, 42.750 234.250 C 42.366 233.098, 43.712 232.815, 46.500 233.463 C 47.050 233.591, 48.291 233.764, 49.258 233.848 C 50.747 233.977, 50.830 234.300, 49.796 235.955 C 49.125 237.030, 48.921 238.254, 49.342 238.676 C 49.764 239.097, 50.422 238.960, 50.804 238.370 C 51.901 236.680, 56.859 236.125, 58.049 237.559 C 58.830 238.500, 58.633 239.117, 57.305 239.889 C 55.657 240.848, 55.696 240.942, 57.750 240.970 C 58.987 240.986, 60 240.606, 60 240.125 C 60 239.644, 61.170 239.250, 62.600 239.250 C 64.941 239.250, 65.142 239.542, 64.615 242.175 C 64.255 243.977, 64.408 244.866, 65.015 244.491 C 65.557 244.156, 66.014 243.121, 66.032 242.191 C 66.060 240.712, 66.247 240.743, 67.532 242.441 C 68.812 244.134, 69 244.166, 69 242.691 C 69 241.761, 69.422 241, 69.938 241 C 70.454 241, 70.792 242.188, 70.688 243.641 C 70.585 245.093, 71.093 246.491, 71.818 246.747 C 72.543 247.003, 73.052 246.602, 72.950 245.856 C 72.570 243.096, 73.041 242, 74.607 242 C 75.626 242, 76.003 242.550, 75.637 243.503 C 75.135 244.813, 75.367 244.806, 77.438 243.449 C 78.893 242.495, 80.051 242.273, 80.424 242.877 C 80.759 243.418, 80.568 244.149, 80 244.500 C 79.432 244.851, 79.226 245.557, 79.543 246.069 C 79.859 246.581, 79.754 247.014, 79.309 247.032 C 77.357 247.109, 75.006 249.853, 75.590 251.373 C 76.464 253.652, 78.267 253.417, 77.538 251.118 C 77.149 249.895, 77.517 249.016, 78.590 248.604 C 79.916 248.095, 80.145 248.464, 79.758 250.486 C 79.231 253.240, 80.426 253.938, 81.386 251.437 C 83.046 247.111, 83.933 251.519, 82.866 258.795 C 82.420 261.842, 83.139 263.091, 85 262.500 C 86.192 262.122, 87 262.320, 87 262.992 C 87 263.611, 87.450 263.840, 88 263.500 C 88.550 263.160, 89 263.271, 89 263.747 C 89 264.799, 96.532 264.802, 97.584 263.750 C 97.996 263.338, 97.808 263, 97.167 263 C 95.096 263, 95.929 261.431, 98.086 261.269 C 99.506 261.162, 99.998 261.562, 99.629 262.524 C 98.815 264.645, 101.125 265.550, 102.512 263.653 C 103.973 261.654, 105 261.525, 105 263.339 C 105 264.525, 107.750 264.777, 113.372 264.104 C 113.852 264.047, 113.728 263.378, 113.097 262.617 C 112.214 261.553, 112.289 261.103, 113.423 260.668 C 114.329 260.320, 115.136 260.854, 115.516 262.051 C 115.856 263.123, 116.442 264.039, 116.817 264.086 C 123.753 264.959, 124.194 264.784, 123.788 261.311 C 123.549 259.261, 123.805 258.103, 124.449 258.321 C 125.027 258.516, 125.517 259.536, 125.537 260.589 C 125.626 265.141, 135.220 267.091, 136.346 262.785 C 136.832 260.928, 140 260.247, 140 262 C 140 262.550, 139.325 263, 138.500 263 C 137.675 263, 137 263.370, 137 263.823 C 137 264.275, 143.075 264.675, 150.500 264.711 C 158.136 264.748, 164 264.376, 164 263.853 C 164 263.327, 164.832 263.375, 165.934 263.965 C 169.087 265.652, 172.998 265.258, 173.015 263.250 C 173.028 261.758, 173.171 261.721, 173.979 263 C 174.811 264.317, 188.679 264.527, 287.463 264.718 L 400 264.937 400.192 248.718 C 400.298 239.798, 400.334 231.375, 400.273 230 C 400.016 224.234, 400.055 212.117, 400.347 207 C 400.520 203.975, 400.366 199.159, 400.005 196.298 C 399.643 193.438, 399.646 191.281, 400.010 191.506 C 401.093 192.176, 400.588 176.566, 399.500 175.750 C 398.833 175.250, 398.833 174.750, 399.500 174.250 C 400.825 173.256, 400.942 165.686, 399.645 164.826 C 398.964 164.375, 398.986 163.715, 399.714 162.826 C 400.711 161.607, 400.704 158.620, 399.662 141.960 C 399.506 139.463, 398.994 136.799, 398.525 136.040 C 397.892 135.015, 398.100 134.825, 399.336 135.299 C 400.251 135.650, 400.986 135.614, 400.968 135.219 C 400.903 133.720, 396.029 129, 394.548 129 C 393.697 129, 393 128.523, 393 127.941 C 393 127.359, 392.550 127.160, 392 127.500 C 391.450 127.840, 391 127.716, 391 127.226 C 391 125.447, 392.270 125.127, 393.690 126.548 C 394.489 127.346, 396.123 127.939, 397.321 127.864 C 399.482 127.729, 399.481 127.724, 397.250 127.294 C 396.012 127.056, 395 126.416, 395 125.871 C 395 125.327, 395.403 125.131, 395.895 125.435 C 396.388 125.740, 397.048 125.316, 397.364 124.494 C 397.679 123.672, 398.739 122.993, 399.719 122.985 C 400.857 122.975, 401.085 122.704, 400.350 122.235 C 399.120 121.449, 398.682 119.717, 398.897 116.500 C 399.008 114.832, 399.192 114.749, 400 116 C 400.720 117.115, 400.973 116.531, 400.985 113.725 C 401.001 109.784, 397.937 107.319, 394.610 108.596 C 393.836 108.893, 392.908 108.661, 392.549 108.080 C 392.152 107.437, 392.504 107.256, 393.448 107.618 C 394.302 107.946, 395 107.716, 395 107.107 C 395 106.498, 394.523 106, 393.941 106 C 393.359 106, 393.207 105.474, 393.605 104.830 C 394.091 104.043, 393.783 103.869, 392.664 104.299 C 390.895 104.977, 390.333 103.530, 391.972 102.517 C 393.622 101.497, 398.172 105.110, 397.488 106.898 C 397.102 107.909, 397.637 107.685, 398.938 106.292 C 401.533 103.513, 401.551 102.690, 399 103.500 C 396.836 104.187, 396.198 102.548, 398.250 101.572 C 398.938 101.245, 398.488 101.166, 397.250 101.395 C 395.785 101.667, 395 101.322, 395 100.406 C 395 99.633, 394.502 99, 393.893 99 C 393.284 99, 393.032 98.358, 393.334 97.573 C 393.635 96.788, 393.149 95.551, 392.253 94.823 C 390.854 93.686, 390.715 93.739, 391.262 95.199 C 391.727 96.442, 391.489 96.741, 390.375 96.314 C 389.324 95.910, 389.041 94.971, 389.464 93.289 C 390.075 90.853, 390.072 90.852, 387.580 92.675 C 384.258 95.105, 383.198 97.499, 386.143 95.923 C 387.635 95.125, 388.045 95.118, 387.562 95.900 C 387.178 96.520, 387.562 97, 388.441 97 C 389.298 97, 390 97.450, 390 98 C 390 99.759, 385.531 99.075, 380.192 96.500 C 374.582 93.793, 372.468 93.433, 371.490 95.016 C 371.144 95.575, 370.474 95.793, 370 95.500 C 369.526 95.207, 368.856 95.425, 368.510 95.984 C 368.165 96.543, 367.121 97.007, 366.191 97.015 C 363.172 97.043, 361.476 98.663, 362.798 100.257 C 363.697 101.340, 363.682 101.696, 362.734 101.793 C 362.055 101.863, 360.262 102.215, 358.750 102.576 C 356.764 103.051, 356 102.851, 356 101.857 C 356 100.447, 352.090 97.409, 350.758 97.785 C 349.826 98.048, 346 94.825, 346 93.778 C 346 93.350, 346.477 93, 347.059 93 C 347.641 93, 347.840 93.450, 347.500 94 C 347.160 94.550, 347.487 95, 348.227 95 C 348.966 95, 349.571 94.100, 349.571 93 C 349.571 91.900, 348.966 91, 348.227 91 C 347.487 91, 347.160 90.550, 347.500 90 C 348.678 88.095, 352 88.886, 352 91.071 C 352 93.294, 354.702 96.631, 355.696 95.637 C 356.027 95.307, 357.171 96.041, 358.238 97.268 C 359.926 99.208, 359.972 99.542, 358.590 99.823 C 357.715 100.001, 357 100.579, 357 101.109 C 357 101.688, 357.795 101.645, 359 101 C 360.100 100.411, 361 98.997, 361 97.858 C 361 96.396, 361.457 95.961, 362.552 96.382 C 363.475 96.736, 363.846 96.560, 363.468 95.948 C 363.118 95.382, 362.017 95.177, 361.021 95.493 C 360.009 95.815, 358.503 95.360, 357.605 94.463 C 356.692 93.549, 356 93.344, 356 93.988 C 356 94.609, 355.519 94.821, 354.932 94.458 C 354.344 94.095, 354.105 93.168, 354.400 92.399 C 354.696 91.629, 354.446 91, 353.846 91 C 353.169 91, 353.276 90.360, 354.128 89.313 C 355.329 87.835, 355.282 87.707, 353.750 88.281 C 352.787 88.642, 352 88.519, 352 88.007 C 352 87.496, 350.208 86.594, 348.017 86.005 C 342.864 84.617, 340.203 80, 344.556 80 C 345.228 80, 345.715 80.728, 345.639 81.617 C 345.547 82.683, 346.438 83.342, 348.250 83.549 C 349.762 83.722, 351 83.444, 351 82.932 C 351 82.419, 350.475 82, 349.833 82 C 349.192 82, 348.902 81.764, 349.190 81.476 C 350.186 80.481, 352.872 82.170, 352.371 83.476 C 352.081 84.232, 353.112 85.408, 354.803 86.252 C 357.594 87.644, 357.713 87.617, 357.209 85.689 C 356.788 84.080, 357.038 83.800, 358.421 84.331 C 359.379 84.699, 360.914 85.032, 361.832 85.070 C 363.165 85.126, 363.098 85.313, 361.500 86 C 359.931 86.674, 359.855 86.875, 361.148 86.930 C 363.125 87.014, 372.044 91.971, 370.250 91.988 C 369.563 91.995, 369 92.436, 369 92.969 C 369 93.883, 369.476 93.829, 373.750 92.425 C 375.251 91.932, 371.415 89.438, 368.507 89.015 C 368.254 88.979, 366.846 87.835, 365.378 86.474 C 363.909 85.113, 362.051 84, 361.247 84 C 360.412 84, 360.014 83.406, 360.318 82.613 C 360.692 81.640, 360.276 81.377, 358.925 81.730 C 357.831 82.016, 357 81.726, 357 81.058 C 357 80.411, 356.570 80.148, 356.044 80.473 C 355.518 80.798, 355.323 81.679, 355.612 82.431 C 355.900 83.183, 355.768 84.024, 355.318 84.301 C 354.868 84.578, 354.401 83.437, 354.279 81.765 C 354.158 80.094, 354.330 78.997, 354.661 79.328 C 355.627 80.294, 359 78.069, 359 76.465 C 359 75.659, 359.436 75, 359.969 75 C 360.501 75, 360.653 75.740, 360.306 76.645 C 359.282 79.314, 362.502 81.014, 366.048 79.676 C 367.671 79.063, 369 78.184, 369 77.722 C 369 77.260, 368.550 77.160, 368 77.500 C 367.450 77.840, 367 77.673, 367 77.129 C 367 76.584, 367.788 75.944, 368.750 75.704 C 369.712 75.465, 369.280 75.419, 367.789 75.602 C 366.298 75.785, 364.809 75.499, 364.480 74.967 C 364.151 74.435, 364.584 73.944, 365.441 73.875 C 368.371 73.640, 368.834 73.499, 369.667 72.590 C 370.151 72.061, 369.976 71.981, 369.250 72.399 C 368.531 72.812, 368 72.583, 368 71.859 C 368 70.880, 367.733 70.867, 366.800 71.800 C 365.316 73.284, 364 73.350, 364 71.941 C 364 71.359, 364.450 71.160, 365 71.500 C 365.550 71.840, 366 71.388, 366 70.496 C 366 69.509, 366.684 68.987, 367.750 69.162 C 368.712 69.321, 370.063 69.097, 370.750 68.666 C 372.504 67.566, 372.313 64, 370.500 64 C 368.508 64, 368.604 63.016, 370.750 61.417 C 372.304 60.260, 372.165 60.152, 369.500 60.454 C 367.757 60.652, 366.623 61.310, 366.793 62.025 C 366.980 62.815, 366.353 63.064, 365.041 62.721 C 363.917 62.427, 363.218 62.544, 363.488 62.980 C 363.757 63.416, 365.558 64.070, 367.489 64.432 C 371.383 65.163, 372.061 66.529, 369.009 67.497 C 366.428 68.316, 364.246 67.092, 366.143 65.890 C 367.200 65.221, 367.113 65.027, 365.750 65.015 C 364.750 65.007, 363.993 65.750, 363.985 66.750 C 363.974 67.922, 363.720 68.108, 363.214 67.313 C 362.799 66.659, 361.118 65.645, 359.480 65.057 L 356.500 63.989 358.707 65.870 C 361.403 68.168, 360.753 69.167, 357.548 67.654 C 355.605 66.738, 355.221 65.843, 355.347 62.535 C 355.519 58.037, 357.630 56.773, 360.379 59.521 C 361.270 60.413, 362 60.691, 362 60.139 C 362 58.647, 366.041 57.641, 367.235 58.835 C 367.948 59.548, 368.965 59.414, 370.503 58.406 C 371.980 57.438, 374.153 57.121, 376.926 57.470 C 379.230 57.759, 380.910 57.660, 380.658 57.248 C 380.407 56.837, 382.884 56.385, 386.163 56.244 C 389.968 56.080, 391.901 56.352, 391.504 56.994 C 391.162 57.547, 391.310 58, 391.834 58 C 392.358 58, 393.023 57.381, 393.314 56.625 C 393.604 55.869, 395.217 55.048, 396.898 54.802 L 399.955 54.353 400.252 71.926 C 400.416 81.592, 400.570 69.475, 400.594 45 C 400.619 20.525, 400.352 3.875, 400 8 C 399.648 12.125, 399.279 15.050, 399.180 14.500 C 399.081 13.949, 396.188 13.499, 392.750 13.500 C 389.313 13.500, 383.800 12.927, 380.500 12.228 C 377.200 11.528, 369.325 11.013, 363 11.084 C 347.137 11.261, 346.158 11.190, 348 10 C 348.861 9.444, 349.002 9.024, 348.332 9.015 C 347.689 9.007, 346.339 8.691, 345.332 8.313 C 343.760 7.723, 343.683 7.851, 344.791 9.214 C 345.916 10.600, 345.468 11.019, 341.291 12.490 C 338.656 13.418, 335.719 14.587, 334.764 15.089 C 333.809 15.590, 332.079 16, 330.920 16 C 329.739 16, 328.608 16.784, 328.346 17.784 C 328.090 18.765, 325.924 20.605, 323.533 21.873 C 321.142 23.141, 318.962 25.039, 318.687 26.090 C 318.412 27.140, 317.669 28, 317.035 28 C 316.401 28, 316.203 27.480, 316.595 26.845 C 317.038 26.130, 316.870 25.962, 316.155 26.405 C 315.520 26.797, 315.003 29.004, 315.007 31.309 L 315.013 35.500 317 32.500 C 318.093 30.850, 318.990 29.907, 318.993 30.405 C 318.997 30.903, 319.787 30.634, 320.750 29.807 C 322.392 28.397, 325.220 26.996, 327.500 26.465 C 328.050 26.336, 330.458 25.700, 332.851 25.050 C 338.534 23.507, 339.259 24.283, 333.755 26.018 C 321.603 29.847, 315.518 35.264, 316.370 41.492 C 317.072 46.618, 315.412 43.215, 314.505 37.666 C 314.027 34.746, 313.509 33.975, 312.328 34.428 C 311.237 34.846, 310.949 34.575, 311.357 33.511 C 312.104 31.565, 310.612 31.558, 309 33.500 C 308.140 34.536, 308.102 35, 308.878 35 C 309.495 35, 310 35.498, 310 36.107 C 310 36.716, 309.369 36.972, 308.598 36.676 C 306.636 35.923, 305.800 37.054, 307.131 38.658 C 307.744 39.396, 307.840 40, 307.345 40 C 306.850 40, 305.674 39.100, 304.732 38 C 303.790 36.900, 303.465 36, 304.010 36 C 304.554 36, 305 35.590, 305 35.088 C 305 33.952, 303.167 34.229, 300.317 35.797 C 298.475 36.811, 298.038 36.725, 297.516 35.249 C 296.775 33.152, 291 28.401, 291 29.889 C 291 30.461, 291.900 31.411, 293 32 C 295.760 33.477, 295.506 35, 292.500 35 C 290.886 35, 290 34.439, 290 33.417 C 290 32.546, 289.437 32.035, 288.750 32.282 C 288.063 32.528, 286.655 32.294, 285.623 31.762 C 284.280 31.069, 283.509 31.176, 282.914 32.138 C 282.286 33.155, 281.801 33.201, 280.929 32.329 C 280.294 31.694, 280.030 30.760, 280.343 30.254 C 281.086 29.051, 287 29.924, 287 31.236 C 287 31.843, 287.557 31.783, 288.397 31.086 C 289.196 30.423, 289.565 28.979, 289.261 27.713 C 288.858 26.041, 289.018 25.769, 289.913 26.599 C 290.780 27.404, 291.981 27.269, 294.385 26.099 C 297.792 24.441, 300.512 20.435, 298.906 19.442 C 298.408 19.134, 298 17.334, 298 15.441 C 298 11.880, 297.204 11.196, 295.287 13.113 C 294.173 14.227, 292 13.564, 292 12.110 C 292 10.279, 296.888 8.662, 298.466 9.972 C 299.760 11.046, 300 10.923, 300 9.185 C 300 7.389, 299.552 7.198, 296.488 7.696 C 293.557 8.171, 292.564 7.822, 290.488 5.581 C 287.530 2.390, 287.463 2.050, 289.750 1.837 C 290.712 1.747, 289.025 1.404, 286 1.074 C 280.492 0.472, 277.482 1.352, 278.639 3.225 C 278.979 3.774, 278.636 4.616, 277.878 5.096 C 275.589 6.546, 274.474 6.105, 276.559 4.575 C 278.427 3.203, 278.391 3.108, 275.583 2.036 C 273.322 1.173, 272.479 1.212, 271.833 2.211 C 271.234 3.138, 270.789 3.185, 270.250 2.379 C 269.411 1.125, 261.861 -0.035, 262.629 1.209 C 262.898 1.644, 263.922 2, 264.905 2 C 267.902 2, 273.001 5.044, 272.985 6.823 C 272.972 8.216, 272.816 8.257, 272.061 7.064 C 271.345 5.932, 270.846 5.883, 269.705 6.830 C 268.512 7.820, 268.279 7.634, 268.379 5.765 C 268.486 3.767, 268.068 3.525, 264.841 3.710 C 262.408 3.849, 260.995 3.430, 260.623 2.460 C 260.167 1.271, 257.407 1.008, 245.781 1.045 C 232.861 1.086, 231.786 1.221, 234.500 2.464 C 237.177 3.690, 237.258 3.846, 235.250 3.919 C 234.012 3.963, 233 4.436, 233 4.969 C 233 5.501, 233.788 5.650, 234.750 5.299 C 236.305 4.732, 236.285 4.906, 234.566 6.862 C 233.058 8.579, 231.796 8.980, 228.832 8.683 C 226.741 8.474, 224.785 8.548, 224.486 8.847 C 223.337 9.996, 221.115 9.741, 220.601 8.401 C 220.290 7.592, 220.683 7, 221.531 7 C 222.339 7, 223 7.477, 223 8.059 C 223 8.641, 223.481 8.821, 224.068 8.458 C 224.656 8.095, 224.895 7.168, 224.600 6.399 C 224.299 5.615, 224.672 5, 225.448 5 C 226.210 5, 227.017 5.551, 227.241 6.224 C 227.466 6.898, 227.898 6.497, 228.202 5.335 C 229.320 1.062, 227.810 0.481, 216.332 0.770 C 209.209 0.949, 205.319 1.454, 204.778 2.270 C 204.167 3.191, 203.609 3.039, 202.557 1.662 C 201.754 0.613, 200.367 0.027, 199.326 0.296 C 197.670 0.724, 197.663 0.779, 199.250 0.884 C 200.213 0.948, 201 1.502, 201 2.117 C 201 2.771, 199.956 3.034, 198.475 2.750 C 195.892 2.257, 195.719 5.503, 198.242 7.125 C 198.847 7.514, 198.793 8.010, 198.100 8.438 C 197.487 8.817, 196.702 8.387, 196.355 7.483 C 195.970 6.478, 195 6.028, 193.862 6.326 C 191.931 6.831, 191.189 5.437, 193.057 4.814 C 196.168 3.777, 192.489 1.209, 187.190 0.718 C 174.257 -0.479, 36 0.039, 35.985 1.285 C 35.973 2.180, 35.776 2.197, 35.235 1.350 C 34.072 -0.470, 1.215 -0.004, 0.507 1.843 M 177 50.567 C 177 52.553, 177.396 53.011, 178.750 52.590 C 180.893 51.923, 184.184 53.875, 182.244 54.662 C 181.553 54.942, 181.223 55.551, 181.510 56.016 C 181.797 56.481, 181.575 57.144, 181.016 57.490 C 180.457 57.835, 180 57.615, 180 57 C 180 56.385, 179.550 56.160, 179 56.500 C 178.450 56.840, 178 56.615, 178 56 C 178 55.385, 177.550 55.160, 177 55.500 C 176.450 55.840, 176 56.879, 176.001 57.809 C 176.002 60.092, 181.005 60.353, 182.676 58.157 C 183.808 56.669, 183.940 56.729, 183.968 58.750 C 183.986 59.987, 183.523 61, 182.941 61 C 182.359 61, 182.179 61.480, 182.541 62.067 C 182.904 62.654, 182.593 63.050, 181.850 62.948 C 179.105 62.572, 177 63.028, 177 64 C 177 64.550, 177.675 65, 178.500 65 C 179.325 65, 180 65.480, 180 66.067 C 180 66.664, 179.155 66.867, 178.084 66.527 C 175.418 65.680, 174.273 67.995, 176.538 69.652 C 178.273 70.920, 178.237 71.004, 175.941 71.070 C 173.781 71.132, 173.723 71.228, 175.434 71.898 C 176.763 72.418, 176.997 72.884, 176.184 73.387 C 175.533 73.789, 175.007 74.654, 175.015 75.309 C 175.025 76.025, 175.418 75.901, 176 75 C 176.828 73.718, 176.972 73.754, 176.985 75.250 C 176.994 76.295, 177.763 77, 178.893 77 C 179.934 77, 181.059 77.712, 181.393 78.582 C 182.340 81.049, 182.126 81.269, 180.429 79.571 C 179.564 78.707, 178.102 77.997, 177.179 77.994 C 176.255 77.990, 174.294 77.359, 172.820 76.590 C 170.799 75.535, 170.028 75.485, 169.681 76.388 C 169.126 77.835, 171.286 81, 172.829 81 C 173.438 81, 173.678 81.675, 173.362 82.500 C 173.045 83.325, 172.159 84, 171.393 84 C 169.498 84, 169.628 85.643, 171.582 86.393 C 174.193 87.395, 175.247 87.087, 174.638 85.500 C 174.322 84.675, 174.386 83.949, 174.781 83.886 C 179.522 83.134, 180.667 83.280, 180.667 84.639 C 180.667 85.677, 179.998 85.965, 178.475 85.583 C 176.582 85.108, 176.348 85.372, 176.758 87.517 C 177.020 88.882, 177.617 90, 178.085 90 C 178.554 90, 178.650 89.253, 178.300 88.339 C 177.794 87.022, 178.111 86.796, 179.831 87.246 C 181.641 87.719, 182 87.387, 182 85.240 C 182 83.825, 182.299 82.966, 182.665 83.332 C 183.673 84.340, 183.980 89, 183.039 89 C 182.585 89, 181.917 89.774, 181.554 90.720 C 181.191 91.665, 181.214 92.119, 181.605 91.728 C 181.996 91.337, 182.845 91.456, 183.491 91.993 C 184.346 92.702, 184.723 92.085, 184.873 89.734 C 185.296 83.078, 185.156 81.552, 184.086 81.195 C 182.562 80.687, 183.777 79, 185.666 79 C 186.631 79, 186.997 79.565, 186.638 80.500 C 186.277 81.443, 186.649 82, 187.640 82 C 188.809 82, 189.060 82.626, 188.609 84.421 C 187.865 87.385, 188.763 90, 190.524 90 C 191.244 90, 191.983 90.436, 192.167 90.968 C 192.379 91.584, 193.045 91.590, 194 90.983 C 195.279 90.171, 195.243 90.028, 193.750 90.015 C 192.787 90.007, 192 89.550, 192 89 C 192 87.179, 194.825 87.963, 196.677 90.297 C 199.394 93.721, 201.526 94.852, 200.044 92.083 C 198.861 89.872, 199.460 86, 200.986 86 C 201.454 86, 202.622 85.699, 203.582 85.330 C 204.722 84.893, 205.092 85.042, 204.648 85.761 C 204.274 86.366, 204.425 87.144, 204.984 87.490 C 206.298 88.302, 206.288 86.406, 204.965 83.934 C 203.984 82.101, 204.841 81.512, 208.051 81.815 C 208.354 81.844, 209.175 80.950, 209.875 79.829 C 210.575 78.708, 210.696 78.070, 210.143 78.412 C 209.590 78.753, 208.808 78.498, 208.404 77.845 C 207.913 77.050, 207.398 77.396, 206.844 78.893 C 206.389 80.123, 205.558 80.845, 204.998 80.499 C 204.342 80.093, 204.490 79.139, 205.414 77.820 C 207.227 75.232, 206.424 73.019, 203.643 72.937 C 201.580 72.876, 201.588 72.838, 203.842 71.935 C 206.732 70.777, 208 71.475, 208 74.226 C 208 75.385, 208.284 76.049, 208.631 75.702 C 208.979 75.355, 210.152 75.546, 211.239 76.128 C 212.640 76.878, 213.533 76.867, 214.307 76.093 C 215.098 75.302, 214.860 74.996, 213.450 74.985 C 211.863 74.972, 211.773 74.797, 212.966 74.042 C 213.916 73.441, 214.953 73.535, 215.908 74.307 C 217.065 75.242, 217.222 75.230, 216.633 74.250 C 216.214 73.553, 216.368 73, 216.980 73 C 217.688 73, 217.620 72.499, 216.789 71.593 C 215.684 70.388, 215.244 70.416, 213.707 71.787 C 212.048 73.268, 211.873 73.232, 211.370 71.305 C 210.997 69.880, 209.984 69.200, 208.162 69.151 C 206.698 69.112, 204.488 69.057, 203.250 69.029 C 202.012 69.001, 201 68.588, 201 68.111 C 201 66.810, 203.588 64.921, 204.340 65.674 C 205.391 66.724, 210.095 66.963, 209.459 65.934 C 209.142 65.420, 208.009 65, 206.941 65 C 205.873 65, 205 64.502, 205 63.893 C 205 63.284, 204.325 63.045, 203.500 63.362 C 202.581 63.714, 202 63.361, 202 62.450 C 202 61.378, 202.672 61.131, 204.406 61.566 C 206.266 62.033, 206.961 61.697, 207.473 60.085 C 207.837 58.938, 208.554 58, 209.067 58 C 210.480 58, 210.128 55.743, 208.365 53.500 C 206.819 51.533, 206.804 51.537, 207.464 53.750 C 208.647 57.719, 205.204 62.795, 203.833 59.102 C 203.650 58.608, 202.314 59.508, 200.865 61.102 C 199.416 62.696, 198.589 64, 199.027 64 C 199.465 64, 199.686 65.237, 199.517 66.750 C 199.348 68.263, 199.647 70.322, 200.181 71.326 C 201.032 72.927, 200.907 73.020, 199.156 72.084 C 197.675 71.291, 197.029 71.336, 196.648 72.258 C 196.337 73.011, 195.871 72.637, 195.465 71.306 C 195.097 70.100, 193.984 68.975, 192.991 68.806 C 191.422 68.540, 191.515 68.255, 193.701 66.622 C 196.197 64.758, 196.211 64.760, 195.541 66.872 C 195.035 68.467, 195.287 69, 196.546 69 C 198.210 69, 198.144 64.917, 196.358 57.402 C 195.839 55.217, 191 55.069, 191 57.239 C 191 57.807, 190.347 57.703, 189.500 57 C 188.271 55.980, 188 56.049, 188 57.378 C 188 58.270, 187.277 59, 186.393 59 C 185.375 59, 184.997 58.450, 185.362 57.500 C 185.716 56.576, 185.359 56, 184.433 56 C 183.211 56, 183.142 55.603, 184.065 53.879 C 184.689 52.713, 184.787 52.014, 184.282 52.326 C 183.777 52.638, 182.177 51.792, 180.726 50.446 C 177.414 47.376, 177 47.389, 177 50.567 M 171 150.083 C 171 150.679, 170.438 150.976, 169.750 150.744 C 169.063 150.511, 167.538 151.617, 166.363 153.202 C 164.478 155.743, 164.051 155.908, 162.749 154.606 C 161.646 153.503, 160.983 153.417, 160.136 154.264 C 158.572 155.828, 158.674 153.771, 160.250 151.977 C 160.992 151.132, 160.687 151.206, 159.500 152.159 C 158.400 153.042, 153.450 155.705, 148.500 158.078 C 140.462 161.931, 133.639 166.315, 138.018 164.813 C 138.867 164.522, 140.859 165.734, 142.683 167.652 C 144.433 169.494, 146.346 171, 146.933 171 C 148.410 171, 148.275 172.722, 146.750 173.338 C 145.837 173.706, 145.875 173.863, 146.890 173.921 C 147.654 173.964, 148.779 174.681, 149.390 175.513 C 150.354 176.827, 150.842 176.708, 153.100 174.611 C 154.688 173.137, 156.191 172.500, 156.961 172.976 C 158.559 173.964, 162 173.104, 162 171.717 C 162 171.139, 161.741 170.926, 161.425 171.242 C 161.108 171.558, 159.476 171.423, 157.797 170.942 C 154.745 170.067, 150.186 171.852, 151.673 173.340 C 152.036 173.703, 151.808 174, 151.167 174 C 149.592 174, 149.694 172.449, 151.380 170.763 C 152.554 169.589, 152.292 169.174, 149.630 167.991 L 146.500 166.600 149 165.968 C 151.779 165.265, 154.239 165.804, 153.526 166.959 C 153.271 167.370, 154.195 168.223, 155.578 168.854 C 158.667 170.261, 159.299 170.293, 158.500 169 C 157.890 168.013, 159.075 167.642, 162 167.904 C 164.455 168.124, 166.029 164.588, 165.029 161.099 C 164.544 159.410, 164.469 157.828, 164.862 157.586 C 165.254 157.343, 165.672 158.313, 165.791 159.742 C 166.063 163.032, 166.860 163.845, 168.002 161.997 C 168.572 161.075, 168.462 160.278, 167.697 159.792 C 166.887 159.276, 167.065 159.026, 168.250 159.015 C 169.213 159.007, 170 158.550, 170 158 C 170 157.450, 170.338 157, 170.750 157 C 171.162 157, 171.500 158.125, 171.500 159.500 C 171.500 160.875, 171.103 162, 170.617 162 C 168.486 162, 165.836 166.580, 166.278 169.500 C 166.798 172.932, 166.268 175, 164.869 175 C 163.805 175, 159.082 180.057, 159.032 181.250 C 159.014 181.662, 159.450 182, 160 182 C 160.550 182, 161 181.298, 161 180.441 C 161 179.584, 161.457 179.165, 162.016 179.510 C 162.575 179.856, 162.744 180.605, 162.391 181.176 C 161.985 181.833, 162.499 181.976, 163.791 181.566 C 164.913 181.210, 166.121 181.387, 166.475 181.959 C 166.874 182.606, 165.770 183, 163.559 183 C 161.602 183, 160 183.409, 160 183.910 C 160 184.410, 157.124 185.851, 153.609 187.112 C 149.452 188.603, 146.649 190.294, 145.591 191.952 L 143.963 194.500 144.627 191.601 C 145.098 189.547, 144.958 188.908, 144.146 189.410 C 143.516 189.799, 143 189.668, 143 189.118 C 143 188.568, 143.450 187.840, 144 187.500 C 145.564 186.533, 145.172 183, 143.500 183 C 142.675 183, 142 183.477, 142 184.059 C 142 184.641, 142.450 184.840, 143 184.500 C 143.550 184.160, 144 184.373, 144 184.972 C 144 185.572, 143.353 186.311, 142.563 186.614 C 141.773 186.917, 141.373 187.808, 141.674 188.594 C 142.070 189.625, 141.704 189.854, 140.361 189.417 C 138.953 188.959, 138.835 189.051, 139.878 189.794 C 140.722 190.395, 140.938 191.305, 140.436 192.138 C 139.755 193.270, 139.889 193.279, 141.229 192.193 C 142.630 191.058, 142.772 191.157, 142.305 192.943 C 141.649 195.450, 141.211 195.487, 138.672 193.250 C 136.760 191.565, 136.706 191.579, 137.216 193.623 C 137.640 195.321, 137.371 195.648, 135.873 195.257 C 134.843 194.987, 134 194.118, 134 193.324 C 134 192.437, 134.481 192.171, 135.250 192.633 C 136.099 193.143, 136.060 192.842, 135.128 191.692 C 133.611 189.823, 132.502 189.386, 133.541 191.067 C 133.932 191.700, 133.490 192.005, 132.454 191.817 C 131.493 191.643, 130.514 192.175, 130.278 193 C 129.896 194.333, 129.966 194.333, 130.909 193 C 131.561 192.077, 131.975 191.958, 131.985 192.691 C 131.993 193.346, 131.519 194.179, 130.932 194.542 C 130.344 194.905, 130.105 195.832, 130.400 196.601 C 130.718 197.428, 130.305 198, 129.389 198 C 128.184 198, 127.976 198.720, 128.451 201.250 L 129.061 204.500 127.114 201 C 125.201 197.559, 125.200 197.495, 127.084 197.180 C 128.138 197.005, 129 196.191, 129 195.371 C 129 194.430, 128.540 194.169, 127.750 194.662 C 124.436 196.730, 118.335 195.174, 119.354 192.521 C 119.634 191.791, 119.195 190.363, 118.380 189.347 C 116.969 187.590, 116.926 187.607, 117.498 189.695 C 118.086 191.838, 114.995 193.216, 109.086 193.445 C 108.308 193.475, 107.483 194.063, 107.253 194.751 C 106.984 195.550, 107.411 195.779, 108.435 195.387 C 109.802 194.862, 109.887 195.168, 109.011 197.470 C 108.447 198.954, 108.272 200.630, 108.621 201.196 C 108.970 201.761, 108.636 202.616, 107.878 203.096 C 106.835 203.757, 106.811 203.973, 107.781 203.985 C 108.486 203.993, 109.310 203.356, 109.612 202.568 C 110.137 201.201, 114 200.747, 114 202.052 C 114 202.882, 109.296 205, 107.453 205 C 106.654 205, 106 205.375, 106 205.833 C 106 206.292, 105.265 206.667, 104.368 206.667 C 102.874 206.667, 102.877 206.563, 104.397 205.452 C 105.893 204.357, 105.901 204.176, 104.477 203.630 C 103.564 203.279, 103.154 203.441, 103.507 204.011 C 103.843 204.555, 103.641 205, 103.059 205 C 102.477 205, 102 206.152, 102 207.559 C 102 208.966, 102.403 209.869, 102.895 209.565 C 105.375 208.032, 104.582 212.162, 102.050 213.964 C 99.029 216.116, 96.453 216.694, 97.510 214.984 C 97.856 214.425, 98.506 214.195, 98.956 214.473 C 99.405 214.751, 100.351 214.282, 101.057 213.432 C 102.194 212.062, 101.792 211.951, 97.545 212.461 C 94.655 212.808, 92.219 212.597, 91.415 211.930 C 89.468 210.314, 83.862 211.810, 83.262 214.106 C 82.611 216.594, 80.802 216.513, 79.185 213.924 C 77.708 211.560, 74.672 212.983, 75.666 215.573 C 75.968 216.358, 75.666 217, 74.996 217 C 73.551 217, 74.524 210.293, 76.276 208.172 C 77.165 207.098, 77.691 207.265, 79.037 209.049 L 80.700 211.254 81.263 209.103 C 81.616 207.751, 81.394 207.052, 80.663 207.219 C 80.023 207.366, 79.388 207.039, 79.250 206.493 C 79.112 205.947, 79.525 205.500, 80.167 205.500 C 80.808 205.500, 81.521 204.937, 81.750 204.249 C 82.006 203.483, 81.593 203.219, 80.685 203.567 C 79.869 203.880, 78.862 203.586, 78.447 202.914 C 77.962 202.129, 78.107 201.948, 78.853 202.409 C 79.508 202.814, 80.285 202.421, 80.636 201.506 C 81.018 200.510, 81.883 200.123, 82.879 200.502 C 84.169 200.992, 84.247 200.864, 83.264 199.873 C 82.584 199.188, 81.009 198.485, 79.764 198.311 C 78.168 198.088, 77.900 198.253, 78.857 198.872 C 80.612 200.008, 78.840 201.137, 77.044 200.027 C 75.465 199.051, 70.798 200.864, 71.590 202.146 C 71.881 202.616, 71.566 203, 70.892 203 C 70.218 203, 69.971 203.305, 70.344 203.677 C 70.716 204.050, 71.985 203.320, 73.164 202.055 L 75.306 199.755 77.090 202.119 C 79.702 205.582, 77.271 208.225, 72.684 206.909 C 68.211 205.626, 68.139 205.719, 71.500 208.430 C 73.910 210.375, 74.254 211.101, 73.250 212.125 C 72.319 213.074, 72 213.094, 72 212.200 C 72 208.607, 68.948 211.366, 66.136 217.500 C 65.884 218.050, 66.792 217.488, 68.153 216.250 C 70.837 213.811, 72 213.433, 72 215 C 72 215.550, 71.295 216, 70.433 216 C 69.286 216, 69.035 216.604, 69.498 218.250 C 69.948 219.850, 69.855 220.101, 69.175 219.118 C 68.411 218.013, 68.083 218.164, 67.542 219.868 C 66.811 222.171, 65.010 222.792, 64.985 220.750 C 64.974 219.839, 64.734 219.872, 64.102 220.870 C 63.401 221.976, 63.022 221.880, 62.135 220.370 C 61.185 218.753, 60.903 218.703, 60.050 220 C 59.419 220.960, 59.412 221.620, 60.032 221.833 C 60.564 222.017, 61 222.634, 61 223.206 C 61 223.826, 60.385 223.735, 59.476 222.980 C 58.638 222.284, 57.727 221.940, 57.452 222.214 C 56.666 223.001, 58.099 226, 59.262 226 C 59.838 226, 59.495 226.900, 58.500 228 C 57.505 229.100, 57.172 230, 57.762 230 C 58.351 230, 59.023 229.438, 59.254 228.750 C 59.582 227.775, 60.041 227.802, 61.337 228.872 C 63.223 230.429, 63.628 229.028, 61.817 227.217 C 60.422 225.822, 60.965 225.085, 63.786 224.541 C 66.244 224.068, 67.549 226.634, 65.875 228.651 C 65.237 229.419, 65.029 230.362, 65.412 230.745 C 65.795 231.128, 66.510 230.793, 67 230 C 67.490 229.207, 68.253 228.921, 68.696 229.365 C 69.138 229.809, 68.400 231.064, 67.055 232.154 L 64.611 234.136 67.413 233.433 C 69.338 232.949, 70.489 233.163, 71.092 234.115 C 71.724 235.112, 71.974 235.150, 71.985 234.250 C 72.008 232.367, 73.788 232.749, 74.311 234.750 C 74.703 236.252, 74.784 236.267, 74.884 234.857 C 75.064 232.314, 77.616 231.918, 79.612 234.123 C 81.094 235.762, 81.197 236.454, 80.197 238.056 C 79.466 239.227, 79.384 240, 79.992 240 C 80.546 240, 81 239.600, 81 239.111 C 81 238.622, 81.725 238.285, 82.612 238.361 C 83.498 238.438, 84.735 237.600, 85.362 236.500 C 85.988 235.400, 87.116 234.110, 87.870 233.633 C 89.030 232.899, 89.030 232.630, 87.870 231.880 C 86.893 231.248, 87.175 231.066, 88.856 231.247 C 92.028 231.588, 96.257 226.406, 93.981 224.967 C 92.936 224.307, 92.877 224.026, 93.781 224.015 C 95.971 223.989, 96.235 226.711, 94.326 229.631 C 93.322 231.166, 93.012 232.108, 93.637 231.722 C 94.262 231.337, 95.325 231.687, 96 232.500 C 96.675 233.313, 97.626 233.731, 98.113 233.430 C 98.601 233.129, 99 233.385, 99 234 C 99 234.615, 99.450 234.840, 100 234.500 C 100.585 234.138, 101 235.176, 101 237 C 101 238.824, 101.415 239.862, 102 239.500 C 102.550 239.160, 103 239.557, 103 240.382 C 103 241.207, 103.515 242.200, 104.145 242.590 C 104.935 243.078, 105.133 242.477, 104.784 240.649 C 104.231 237.760, 104.902 237.307, 106.859 239.250 C 107.869 240.252, 107.986 240.153, 107.452 238.750 C 107.086 237.787, 106.384 237, 105.893 237 C 105.402 237, 105 236.606, 105 236.125 C 105 235.644, 106.173 235.250, 107.607 235.250 C 109.409 235.250, 109.797 235.507, 108.865 236.083 C 107.814 236.733, 107.782 237.182, 108.721 238.121 C 109.661 239.061, 110.158 238.715, 110.981 236.551 C 111.785 234.435, 112.521 233.903, 114.079 234.310 C 115.322 234.636, 116.336 234.288, 116.668 233.422 C 117.618 230.948, 118.870 231.883, 118.781 235 C 118.734 236.650, 118.328 238, 117.879 238 C 117.430 238, 117.358 238.787, 117.719 239.750 C 118.258 241.190, 118.114 241.289, 116.904 240.307 C 115.869 239.468, 114.998 239.422, 113.966 240.152 C 112.742 241.017, 112.778 241.100, 114.181 240.652 C 115.495 240.233, 115.846 240.728, 115.783 242.914 C 115.686 246.326, 116.624 248, 118.630 248 C 119.955 248, 119.948 247.805, 118.571 246.429 C 117.707 245.564, 117 244.267, 117 243.545 C 117 241.614, 120.755 240.920, 121.447 242.723 C 121.916 243.944, 122.306 243.991, 123.535 242.971 C 124.793 241.926, 124.941 241.991, 124.416 243.359 C 123.666 245.313, 121.880 245.477, 120.141 243.750 C 119.131 242.748, 119.014 242.847, 119.548 244.250 C 119.914 245.213, 120.841 246, 121.607 246 C 122.373 246, 122.947 246.338, 122.882 246.750 C 122.582 248.650, 123.097 250, 124.122 250 C 124.852 250, 124.765 249.417, 123.872 248.334 C 122.630 246.827, 122.785 246.734, 125.500 247.365 C 127.477 247.823, 128.024 247.744, 127.104 247.131 C 126.337 246.620, 125.985 245.481, 126.323 244.601 C 127.099 242.578, 129 242.506, 129 244.500 C 129 245.325, 129.420 246, 129.933 246 C 130.742 246, 132.307 249.209, 132.451 251.167 C 132.539 252.362, 134 253.365, 134 252.230 C 134 251.520, 135.339 251.328, 137.750 251.693 C 140.627 252.128, 141.241 251.983, 140.387 251.067 C 139.775 250.411, 137.862 249.834, 136.137 249.785 C 133.361 249.706, 133 249.361, 133 246.789 C 133 245.190, 132.581 244.141, 132.069 244.457 C 130.455 245.455, 129.952 243.285, 131.500 242 C 132.313 241.325, 132.731 240.374, 132.430 239.887 C 131.695 238.697, 134.679 238.758, 136.961 239.979 C 138.290 240.690, 139.126 240.553, 140.017 239.479 C 141.026 238.264, 140.911 237.993, 139.372 237.960 C 137.937 237.929, 138.162 237.561, 140.338 236.382 C 144.283 234.244, 144.749 235.329, 141.639 239.406 C 140.188 241.309, 138.993 243.459, 138.985 244.183 C 138.973 245.152, 138.720 245.106, 138.026 244.008 C 136.639 241.814, 134.611 244.199, 135.495 246.985 L 136.189 249.171 138.419 247.076 C 139.645 245.924, 140.945 245.279, 141.309 245.642 C 141.672 246.005, 141.188 246.917, 140.234 247.667 C 138.731 248.851, 138.860 248.879, 141.209 247.874 C 143.440 246.921, 143.743 246.388, 142.924 244.858 C 142.109 243.335, 142.290 243, 143.930 243 C 145.030 243, 146.432 243.939, 147.046 245.086 C 147.660 246.233, 148.365 246.969, 148.612 246.721 C 148.860 246.473, 148.285 244.916, 147.335 243.261 C 145.710 240.430, 145.708 240.149, 147.304 238.554 C 148.845 237.012, 149 237.006, 149 238.488 C 149 239.384, 149.375 239.886, 149.833 239.603 C 150.292 239.320, 150.667 239.743, 150.667 240.544 C 150.667 241.345, 150.179 242.029, 149.583 242.063 C 148.988 242.098, 149.625 242.600, 151 243.177 C 152.477 243.798, 152.988 244.420, 152.250 244.697 C 150.506 245.352, 150.685 247, 152.500 247 C 153.325 247, 154 246.512, 154 245.917 C 154 245.321, 154.563 245.030, 155.250 245.270 C 155.938 245.511, 156.368 246.448, 156.206 247.354 C 156.045 248.259, 156.409 249, 157.015 249 C 157.631 249, 157.787 248.448, 157.367 247.750 C 156.822 246.843, 157.064 246.863, 158.249 247.823 C 159.982 249.228, 159.547 252.128, 157.636 251.899 C 154.826 251.562, 152.936 252.087, 153.525 253.041 C 153.879 253.613, 155.030 253.808, 156.084 253.473 C 158.064 252.845, 158.770 254.406, 157 255.500 C 156.450 255.840, 156 256.541, 156 257.059 C 156 257.577, 156.450 258, 157 258 C 157.550 258, 158 257.325, 158 256.500 C 158 255.675, 158.477 255, 159.059 255 C 159.641 255, 159.865 254.591, 159.556 254.090 C 158.154 251.822, 160.242 249.894, 163.377 250.564 L 166.500 251.231 164.229 249.230 C 162.437 247.651, 162.263 247.113, 163.402 246.676 C 164.196 246.371, 165.043 245.082, 165.286 243.811 C 165.701 241.641, 165.736 241.631, 165.864 243.643 C 166.024 246.171, 168.870 247.572, 170.417 245.886 C 171.225 245.005, 171.056 244.862, 169.750 245.321 C 168.787 245.660, 168.014 245.614, 168.032 245.219 C 168.100 243.684, 170.797 241, 172.272 241 C 173.334 241, 173.737 240.210, 173.549 238.500 C 173.399 237.125, 173.663 236, 174.138 236 C 174.612 236, 175 236.445, 175 236.988 C 175 237.532, 175.787 237.910, 176.750 237.830 C 180.376 237.526, 183 238.036, 183 239.044 C 183 239.618, 182.259 239.955, 181.354 239.794 C 180.448 239.632, 179.490 240.126, 179.223 240.891 C 178.852 241.958, 179.380 242.121, 181.490 241.592 C 184.537 240.827, 187.248 238.581, 186.286 237.619 C 185.945 237.279, 186.200 237, 186.852 237 C 187.622 237, 187.832 237.966, 187.451 239.750 C 186.889 242.382, 186.931 242.417, 188.432 240.559 C 189.294 239.491, 190 238.366, 190 238.059 C 190 236.580, 195.080 237.677, 195.584 239.265 C 195.892 240.235, 196.562 240.771, 197.072 240.456 C 197.582 240.140, 198 240.359, 198 240.941 C 198 241.523, 198.450 242, 199 242 C 199.550 242, 200 241.298, 200 240.441 C 200 239.584, 200.419 239.141, 200.931 239.457 C 201.443 239.774, 202.144 239.575, 202.490 239.016 C 202.835 238.457, 202.641 238, 202.059 238 C 201.477 238, 201 237.100, 201 236 C 201 234.900, 201.498 234, 202.107 234 C 202.716 234, 202.936 233.275, 202.596 232.389 C 202.095 231.085, 202.456 230.898, 204.489 231.408 C 206.825 231.994, 207.508 231.317, 207.130 228.786 C 207.072 228.393, 207.783 228.363, 208.711 228.720 C 209.832 229.150, 209.982 229.506, 209.158 229.781 C 208.210 230.097, 208.191 230.525, 209.076 231.591 C 210.032 232.743, 209.711 232.927, 207.250 232.641 C 204.755 232.350, 204.344 232.598, 204.749 234.147 C 205.263 236.115, 207 236.727, 207 234.941 C 207 234.359, 207.414 234.138, 207.920 234.451 C 208.426 234.763, 209.718 233.903, 210.791 232.538 C 212.725 230.080, 212.758 230.075, 214.526 232.029 C 215.507 233.113, 216.708 234, 217.194 234 C 217.680 234, 217.165 233.020, 216.050 231.823 C 213.865 229.478, 214.068 227.982, 216.318 229.849 C 217.069 230.472, 217.980 230.687, 218.342 230.325 C 218.704 229.963, 219.052 230.304, 219.115 231.083 C 219.179 231.862, 219.291 233.175, 219.365 234 C 219.466 235.122, 220.698 235.471, 224.250 235.386 C 226.863 235.323, 229 235.661, 229 236.136 C 229 236.611, 229.525 237, 230.167 237 C 230.808 237, 231.040 236.707, 230.682 236.349 C 230.324 235.991, 230.812 235.105, 231.766 234.381 C 233.523 233.046, 232.054 232.524, 227.167 232.745 C 226.340 232.783, 226.719 231.833, 228.167 230.241 C 229.450 228.831, 229.978 227.977, 229.340 228.342 C 227.921 229.155, 225 228.141, 225 226.834 C 225 226.310, 225.520 226.203, 226.155 226.595 C 226.893 227.052, 227.037 226.868, 226.553 226.086 C 226.138 225.414, 225.145 225.114, 224.347 225.420 C 223.506 225.743, 223.163 225.545, 223.532 224.948 C 223.882 224.382, 225.139 224.227, 226.326 224.604 C 228.239 225.211, 228.329 225.101, 227.120 223.644 C 226.038 222.341, 226.023 222, 227.044 222 C 228.317 222, 227.457 220.514, 226.167 220.485 C 225.800 220.476, 224.868 220.069, 224.095 219.580 C 223.130 218.969, 222.914 219.052, 223.405 219.845 C 224.031 220.859, 222.501 221.260, 219.289 220.926 C 218.898 220.885, 218.255 221.673, 217.859 222.676 C 217.242 224.241, 217.131 224.173, 217.070 222.191 C 217.030 220.854, 216.561 220.153, 215.956 220.527 C 215.382 220.882, 214.370 220.748, 213.706 220.231 C 211.510 218.516, 208 218.088, 208 219.535 C 208 221.546, 210.097 222.456, 211.096 220.878 C 211.744 219.855, 211.973 220.080, 211.985 221.750 C 211.994 223.090, 211.393 224, 210.500 224 C 209.675 224, 209 224.450, 209 225 C 209 225.550, 208.495 226, 207.878 226 C 207.110 226, 207.155 225.518, 208.020 224.476 C 209.663 222.497, 208.503 221.337, 206.524 222.980 C 205.686 223.676, 204.963 224.077, 204.917 223.872 C 204.219 220.755, 204.517 218.984, 205.664 219.425 C 206.399 219.707, 207 219.319, 207 218.564 C 207 217.551, 206.004 217.324, 203.209 217.699 C 200.479 218.065, 199.044 217.758, 198.086 216.604 C 196.568 214.774, 194.513 214.404, 195.595 216.155 C 196.040 216.874, 195.870 217.037, 195.144 216.589 C 194.280 216.055, 194.350 215.338, 195.414 213.820 C 196.203 212.693, 196.608 211.142, 196.313 210.374 C 195.941 209.405, 196.278 209.170, 197.414 209.605 C 198.599 210.060, 198.763 210.580, 198.008 211.490 C 197.243 212.412, 197.600 213.163, 199.348 214.309 C 201.600 215.784, 201.847 215.727, 203.815 213.281 C 205.789 210.828, 205.890 210.805, 205.737 212.846 C 205.647 214.031, 204.995 215, 204.287 215 C 203.579 215, 203 215.360, 203 215.800 C 203 216.240, 204.575 216.600, 206.500 216.600 C 208.425 216.600, 210 216.240, 210 215.800 C 210 215.360, 209.325 215, 208.500 215 C 206.734 215, 206.559 213.841, 208.093 212.307 C 208.883 211.517, 209.910 211.591, 211.804 212.574 C 213.245 213.321, 214.666 213.567, 214.962 213.120 C 215.258 212.673, 216.756 212, 218.291 211.625 C 219.826 211.249, 220.831 210.536, 220.525 210.040 C 219.486 208.360, 222.005 207.862, 223.579 209.436 C 224.439 210.296, 225.561 211, 226.071 211 C 226.582 211, 227 211.431, 227 211.958 C 227 212.485, 225.413 212.791, 223.473 212.638 C 219.653 212.337, 216.957 214.229, 219.201 215.636 C 221.725 217.217, 224.693 217.001, 226.914 215.074 C 228.151 214.002, 229.801 213.370, 230.581 213.669 C 232.682 214.476, 232.302 216, 230 216 C 228.900 216, 228 216.354, 228 216.787 C 228 217.931, 231.855 218.044, 232.549 216.920 C 232.873 216.396, 233.557 216.226, 234.069 216.543 C 234.581 216.859, 235 216.586, 235 215.937 C 235 215.044, 235.338 215.036, 236.383 215.903 C 237.460 216.797, 237.915 216.664, 238.437 215.304 C 238.963 213.934, 239.285 213.842, 239.927 214.881 C 240.838 216.356, 245 214.784, 245 212.965 C 245 212.434, 245.900 211.100, 247 210 C 248.100 208.900, 248.582 208, 248.071 208 C 247.561 208, 246.468 208.675, 245.643 209.500 C 244.818 210.325, 243.404 211, 242.500 211 C 241.596 211, 240.149 211.708, 239.283 212.574 C 237.999 213.858, 237.538 213.904, 236.779 212.824 C 236.065 211.809, 235.731 211.785, 235.349 212.724 C 234.974 213.646, 234.262 213.562, 232.469 212.388 C 231.160 211.530, 229.618 211.118, 229.044 211.473 C 228.470 211.828, 228 211.632, 228 211.038 C 228 210.443, 226.836 209.427, 225.413 208.779 C 223.003 207.680, 222.948 207.511, 224.604 206.300 C 226.227 205.113, 226.235 205, 224.691 205 C 223.761 205, 223 205.450, 223 206 C 223 207.569, 221.279 207.170, 220.618 205.448 C 220.291 204.594, 220.437 204.152, 220.943 204.465 C 221.449 204.778, 222.578 204.013, 223.451 202.767 C 224.324 201.520, 225.292 200.650, 225.603 200.833 C 225.913 201.017, 226.429 200.904, 226.750 200.583 C 227.071 200.263, 226.610 200, 225.726 200 C 224.841 200, 223.840 200.450, 223.500 201 C 223.160 201.550, 222.057 202, 221.048 202 C 219.363 202, 218 203.826, 218 206.082 C 218 206.587, 218.771 207, 219.714 207 C 222.503 207, 218.888 210.070, 215.915 210.227 C 214.587 210.297, 212.851 210.837, 212.058 211.427 C 210.973 212.235, 210.802 212.191, 211.367 211.250 C 211.791 210.544, 211.626 210, 210.988 210 C 210.366 210, 210.619 209.238, 211.551 208.306 C 213.468 206.389, 211.395 204.910, 207.723 205.574 C 206.746 205.751, 206.215 205.462, 206.542 204.931 C 206.870 204.401, 207.552 204.223, 208.058 204.536 C 208.563 204.848, 208.715 204.420, 208.394 203.584 C 208.073 202.747, 207.347 202.162, 206.780 202.282 C 205.369 202.581, 204.849 200.789, 205.877 199.167 C 206.896 197.558, 221.604 196.550, 222.516 198.026 C 223.306 199.305, 226 199.284, 226 198 C 226 197.450, 225.325 197, 224.500 197 C 223.675 197, 223 196.550, 223 196 C 223 195.450, 222.127 195, 221.059 195 C 218.363 195, 217.600 193.332, 219.729 192.092 C 220.703 191.525, 220.972 191.047, 220.327 191.030 C 219.681 191.014, 217.803 192.137, 216.152 193.526 C 214.345 195.046, 212.898 195.643, 212.516 195.026 C 212.167 194.462, 211.035 194, 210 194 C 208.965 194, 207.805 193.494, 207.423 192.875 C 206.940 192.094, 207.840 191.879, 210.364 192.174 C 214.085 192.608, 215.399 191.370, 212.250 190.396 C 211.287 190.098, 209.665 189.404, 208.645 188.853 C 207.345 188.151, 206.990 188.175, 207.459 188.933 C 208.642 190.848, 205.112 191.255, 203.276 189.416 C 201.575 187.713, 201.594 187.663, 203.750 188.226 C 205.258 188.619, 206 188.370, 206 187.469 C 206 186.504, 206.943 186.279, 209.352 186.670 C 211.773 187.063, 212.863 186.799, 213.277 185.720 C 213.704 184.607, 213.326 184.364, 211.791 184.765 C 210.325 185.148, 209.867 184.900, 210.199 183.902 C 210.456 183.131, 211.304 182.500, 212.083 182.500 C 212.863 182.500, 213.455 181.938, 213.400 181.250 C 213.345 180.563, 213.233 179.325, 213.150 178.500 C 213.062 177.615, 212.077 177.048, 210.750 177.116 C 209.057 177.203, 208.933 177.345, 210.250 177.689 C 212.360 178.241, 212.436 179.021, 210.622 181.502 C 209.171 183.486, 206.964 182.393, 205.885 179.155 C 205.577 178.230, 204.871 178.504, 203.474 180.093 C 201.621 182.202, 201.614 182.298, 203.361 181.658 C 204.791 181.135, 205.081 181.347, 204.611 182.570 C 204.275 183.447, 204 184.289, 204 184.443 C 204 184.597, 202.880 184.509, 201.512 184.247 C 200.031 183.964, 199.281 183.311, 199.658 182.636 C 200.008 182.011, 199.669 182.081, 198.905 182.792 C 197.760 183.857, 197.749 184.227, 198.842 184.902 C 199.874 185.540, 199.761 185.886, 198.334 186.461 C 196.649 187.140, 196.682 187.271, 198.750 188.068 C 199.988 188.545, 201 189.625, 201 190.468 C 201 191.310, 201.405 191.888, 201.900 191.750 C 202.395 191.613, 202.845 191.838, 202.900 192.250 C 203.006 193.044, 202.291 193.049, 200.256 192.268 C 199.571 192.005, 199.297 191.329, 199.645 190.765 C 200.015 190.166, 199.701 190.002, 198.889 190.370 C 198.125 190.716, 196.713 191.276, 195.750 191.616 C 194.787 191.955, 194 193.107, 194 194.176 C 194 195.244, 193.543 195.835, 192.984 195.490 C 192.425 195.144, 192.186 194.508, 192.453 194.075 C 192.721 193.643, 191.716 193.476, 190.220 193.705 C 187.702 194.091, 187.649 194.031, 189.500 192.896 C 190.600 192.222, 191.725 191.369, 192 191 C 192.275 190.631, 193.400 189.771, 194.500 189.089 C 196.236 188.013, 196.254 187.926, 194.639 188.436 C 193.264 188.869, 192.929 188.628, 193.357 187.511 C 193.712 186.586, 193.368 186, 192.469 186 C 191.661 186, 191 185.523, 191 184.941 C 191 184.359, 190.550 184.160, 190 184.500 C 189.450 184.840, 189 184.641, 189 184.059 C 189 183.477, 189.605 183, 190.345 183 C 191.085 183, 192.514 182.089, 193.521 180.976 C 194.660 179.719, 195.707 179.307, 196.289 179.889 C 197.604 181.204, 196.241 183.030, 194.457 182.345 C 193.387 181.934, 193.157 182.246, 193.628 183.472 C 194.665 186.175, 198.442 181.968, 197.537 179.118 C 196.743 176.614, 195.693 176.450, 193.635 178.508 C 192.778 179.365, 191.875 179.606, 191.542 179.067 C 191.219 178.546, 191.889 177.250, 193.030 176.187 C 194.688 174.642, 194.818 174.144, 193.674 173.705 C 191.852 173.006, 189.993 174.819, 190.685 176.622 C 190.976 177.380, 190.668 178, 190 178 C 189.332 178, 189.034 178.647, 189.338 179.437 C 190.110 181.450, 186.796 181.936, 185.248 180.036 C 184.143 178.681, 184.065 178.702, 184.589 180.210 C 185.211 181.998, 184.758 182.020, 178.750 180.485 C 177.238 180.099, 176 179.355, 176 178.833 C 176 178.310, 175.502 178.190, 174.893 178.566 C 174.121 179.043, 174.197 179.515, 175.143 180.125 C 176.269 180.851, 176.245 181.186, 175 182.094 C 173.723 183.026, 173.755 183.107, 175.218 182.638 C 177.289 181.974, 178.581 183.563, 176.591 184.327 C 175.302 184.821, 172.600 184.480, 169.083 183.378 C 168.056 183.057, 167.967 182.633, 168.761 181.839 C 170.773 179.827, 167.990 176.699, 165.884 178.605 C 164.957 179.444, 163.959 179.743, 163.667 179.270 C 163.375 178.797, 164.680 177.031, 166.568 175.345 C 168.455 173.659, 170 172.854, 170 173.557 C 170 174.259, 169.524 174.992, 168.943 175.186 C 167.544 175.652, 168.757 178.693, 170.629 179.411 C 171.458 179.729, 171.836 179.544, 171.493 178.989 C 171.157 178.445, 171.284 178, 171.774 178 C 172.265 178, 172.667 177.345, 172.667 176.544 C 172.667 175.743, 172.292 175.320, 171.833 175.603 C 170.757 176.268, 170.783 175.701, 171.975 172.565 C 172.512 171.154, 173.524 170.036, 174.225 170.079 C 175.228 170.141, 175.233 170.265, 174.250 170.662 C 173.563 170.940, 173 171.859, 173 172.706 C 173 173.960, 173.277 174.015, 174.500 173 C 175.742 171.969, 176.005 172.077, 176.030 173.628 C 176.059 175.386, 176.130 175.378, 177.195 173.500 C 177.819 172.400, 178.653 171.275, 179.049 171 C 179.445 170.725, 179.993 169.600, 180.268 168.500 C 180.746 166.587, 180.773 166.591, 180.884 168.611 C 181.001 170.748, 186 171.014, 186 168.883 C 186 168.398, 186.563 168.113, 187.250 168.250 C 187.938 168.388, 188.500 167.831, 188.500 167.014 C 188.500 166.196, 187.600 165.385, 186.500 165.210 C 184.850 164.948, 184.763 165.074, 186 165.931 C 187.896 167.244, 186.024 167.308, 184 166 C 182.843 165.252, 182.810 165.027, 183.857 165.015 C 184.650 165.006, 184.975 164.377, 184.638 163.500 C 183.881 161.527, 184.031 161.572, 188 164.500 C 192.369 167.723, 194.439 167.697, 190.500 164.469 C 188.850 163.117, 188.045 162.008, 188.711 162.005 C 189.377 162.002, 190.772 162.912, 191.810 164.027 C 192.961 165.262, 194.343 165.806, 195.349 165.420 C 197.552 164.574, 197.470 166.627, 195.250 167.920 C 193.583 168.891, 193.583 168.941, 195.250 168.970 C 197.629 169.011, 197.481 170.538, 195.081 170.719 C 194.025 170.798, 192.914 170.219, 192.612 169.432 C 191.890 167.551, 189 167.580, 189 169.469 C 189 170.415, 189.622 170.737, 190.750 170.374 C 192.177 169.915, 192.232 170.001, 191.048 170.840 C 190.249 171.405, 189.237 171.646, 188.798 171.375 C 188.359 171.104, 188 171.332, 188 171.882 C 188 173.393, 189.840 174.218, 191.250 173.340 C 191.938 172.912, 193.536 172.696, 194.803 172.859 C 196.070 173.023, 197.757 172.617, 198.553 171.956 C 199.715 170.992, 200 171.075, 200 172.378 C 200 173.270, 199.550 174, 199 174 C 197.614 174, 197.742 176.723, 199.170 177.605 C 199.952 178.088, 200.132 177.787, 199.714 176.696 C 199.369 175.798, 199.587 174.755, 200.198 174.378 C 200.871 173.962, 201.028 174.146, 200.595 174.845 C 200.164 175.543, 200.547 176, 201.563 176 C 202.959 176, 203.029 175.740, 201.975 174.470 C 200.996 173.290, 200.968 172.366, 201.853 170.423 C 203.255 167.347, 203.269 167, 202 167 C 201.450 167, 201 167.730, 201 168.622 C 201 169.991, 200.752 170.039, 199.412 168.927 C 197.689 167.497, 201.080 165.313, 203.092 166.557 C 203.592 166.866, 204 166.615, 204 166 C 204 165.385, 204.521 165.204, 205.158 165.597 C 205.951 166.088, 206.138 165.634, 205.751 164.156 C 205.079 161.588, 205.819 161.370, 207.483 163.646 C 208.539 165.090, 208.666 164.997, 208.511 162.896 C 208.414 161.578, 207.922 160.493, 207.417 160.485 C 206.913 160.476, 205.931 160.108, 205.235 159.666 C 203.165 158.352, 196.090 158.046, 195.353 159.238 C 194.930 159.923, 195.239 160.122, 196.169 159.765 C 197.061 159.423, 197.667 159.759, 197.667 160.595 C 197.667 162.264, 196.394 162.446, 195.446 160.913 C 195.077 160.315, 193.881 160.059, 192.788 160.345 C 191.696 160.631, 191.056 160.611, 191.366 160.301 C 192.453 159.214, 189.857 155.841, 188.371 156.411 C 187.560 156.722, 187.140 156.583, 187.437 156.102 C 187.735 155.620, 187.308 154.671, 186.489 153.991 C 185.670 153.311, 184.986 153.148, 184.968 153.628 C 184.951 154.107, 184.329 153.699, 183.586 152.721 C 182.390 151.143, 182.168 151.121, 181.630 152.523 C 181.296 153.392, 181.437 153.848, 181.942 153.536 C 182.448 153.223, 183.149 153.432, 183.500 154 C 183.851 154.568, 184.557 154.774, 185.069 154.457 C 185.581 154.141, 186 154.359, 186 154.941 C 186 155.523, 185.600 156, 185.111 156 C 184.622 156, 184.285 156.725, 184.361 157.612 C 184.571 160.046, 181.375 161.791, 179.778 160.115 C 178.722 159.008, 178.891 158.893, 180.750 159.455 C 182.588 160.010, 183 159.748, 183 158.024 C 183 156.568, 182.457 156.004, 181.250 156.206 C 180.272 156.370, 179.610 155.948, 179.750 155.250 C 179.887 154.563, 179.550 154, 179 154 C 178.450 154, 177.986 154.563, 177.968 155.250 C 177.951 155.941, 177.264 155.611, 176.434 154.511 C 175.607 153.418, 174.159 152.518, 173.215 152.511 C 172.139 152.504, 171.610 151.848, 171.794 150.750 C 171.955 149.787, 171.843 149, 171.544 149 C 171.245 149, 171 149.488, 171 150.083 M 82.473 156.916 C 82.808 157.970, 82.586 159.138, 81.981 159.512 C 81.254 159.961, 81.494 160.641, 82.689 161.514 C 83.683 162.241, 84.160 163.173, 83.748 163.585 C 83.337 163.997, 83 163.768, 83 163.078 C 83 162.359, 81.684 162.930, 79.923 164.411 C 76.192 167.551, 75 167.668, 75 164.893 C 75 163.431, 75.459 162.962, 76.500 163.362 C 77.405 163.709, 78 163.367, 78 162.500 C 78 160.797, 74.931 161.635, 73.700 163.675 C 72.608 165.485, 71 165.346, 71 163.441 C 71 162.584, 70.519 162.179, 69.932 162.542 C 69.344 162.905, 69.105 163.832, 69.400 164.601 C 69.706 165.399, 69.321 166, 68.504 166 C 66.897 166, 64.723 169.390, 65.702 170.369 C 66.049 170.716, 65.760 171, 65.060 171 C 64.338 171, 64.036 171.651, 64.362 172.500 C 64.678 173.325, 64.501 174, 63.969 174 C 63.436 174, 63 173.506, 63 172.901 C 63 172.269, 61.621 172.611, 59.750 173.709 C 57.962 174.758, 55.150 175.535, 53.500 175.437 C 51.850 175.338, 49.220 175.200, 47.656 175.129 C 45.767 175.043, 44.645 174.360, 44.314 173.092 C 43.521 170.060, 40.278 169.766, 39.722 172.676 C 39.382 174.451, 39.629 174.973, 40.628 174.589 C 41.382 174.300, 42 174.499, 42 175.031 C 42 175.564, 42.788 176.059, 43.750 176.132 C 44.712 176.204, 43.925 176.555, 42 176.911 C 38.461 177.567, 34 174.706, 34 171.782 C 34 171.168, 33.728 170.939, 33.396 171.271 C 33.063 171.603, 33.515 173.326, 34.400 175.100 C 35.285 176.874, 35.782 178.552, 35.504 178.829 C 35.227 179.106, 35 178.739, 35 178.014 C 35 177.262, 34.116 177.714, 32.944 179.065 C 31.709 180.488, 30.610 181.030, 30.194 180.420 C 29.319 179.139, 24.750 178.786, 25.537 180.061 C 25.857 180.577, 25.641 181, 25.059 181 C 24.477 181, 24 180.577, 24 180.059 C 24 178.521, 26.311 177.554, 29.252 177.862 C 32.268 178.179, 34.071 175.671, 32.184 173.784 C 31.152 172.752, 33.187 167, 34.585 167 C 34.878 167, 34.840 167.450, 34.500 168 C 34.160 168.550, 34.864 169, 36.063 169 C 37.889 169, 38.042 168.755, 37 167.500 C 36.022 166.322, 36.019 166, 36.985 166 C 37.707 166, 37.958 165.332, 37.592 164.379 C 37.114 163.133, 37.436 162.881, 38.985 163.286 C 40.093 163.576, 41 163.457, 41 163.023 C 41 161.358, 36.977 161.215, 35.940 162.843 C 35.171 164.050, 34.741 164.160, 34.359 163.250 C 33.761 161.828, 31 161.534, 31 162.893 C 31 163.384, 31.708 164.058, 32.574 164.390 C 34.005 164.939, 34.004 165.139, 32.565 166.578 C 31.694 167.449, 31.206 168.524, 31.480 168.967 C 31.754 169.411, 31.308 170.329, 30.489 171.009 C 29.252 172.036, 29 171.895, 29 170.181 C 29 169.047, 28.502 167.810, 27.893 167.434 C 27.119 166.955, 27.185 166.504, 28.114 165.929 C 28.845 165.478, 29.128 164.795, 28.745 164.412 C 28.362 164.029, 27.434 164.225, 26.682 164.849 C 25.931 165.472, 25.020 165.687, 24.658 165.325 C 24.296 164.963, 24 165.154, 24 165.750 C 24 166.346, 24.338 167.022, 24.750 167.253 C 25.163 167.483, 24.943 167.537, 24.263 167.373 C 23.583 167.208, 21.783 168.221, 20.263 169.624 C 18.062 171.657, 17.906 172.044, 19.500 171.529 C 21.104 171.010, 21.253 171.131, 20.250 172.141 C 19.563 172.833, 19 174.075, 19 174.900 C 19 176.067, 19.267 176.133, 20.200 175.200 C 21.651 173.749, 23.365 173.600, 22.500 175 C 22.160 175.550, 22.653 176, 23.596 176 C 25.183 176, 25.176 176.149, 23.500 178 C 22.505 179.100, 21.088 180, 20.352 180 C 19.457 180, 19.733 180.828, 21.187 182.500 C 23.608 185.285, 25.244 185.800, 24.362 183.500 C 23.444 181.109, 26.583 181.709, 29.595 184.500 C 32.005 186.734, 32.049 187.481, 29.750 187.118 C 29.338 187.053, 29 187.675, 29 188.500 C 29 190.726, 31.684 190.318, 32.290 188 C 32.577 186.900, 33.331 186, 33.965 186 C 34.599 186, 34.840 186.450, 34.500 187 C 34.160 187.550, 34.282 188, 34.772 188 C 35.262 188, 36.264 186.875, 37 185.500 C 38.441 182.808, 40.595 182.007, 39.629 184.523 C 39.153 185.766, 39.409 185.851, 41.023 184.988 C 42.110 184.406, 43 183.694, 43 183.406 C 43 183.118, 42.547 183.162, 41.993 183.504 C 41.439 183.847, 40.712 183.412, 40.376 182.538 C 39.895 181.285, 39.465 181.199, 38.341 182.132 C 37.309 182.988, 36.613 183.013, 35.822 182.222 C 35.031 181.431, 34.319 181.539, 33.245 182.612 C 32.429 183.428, 31.511 183.844, 31.204 183.537 C 30.255 182.588, 34.401 179.983, 36.202 180.397 C 37.138 180.612, 38.038 180.385, 38.203 179.892 C 38.374 179.379, 39.997 179.434, 42.001 180.019 C 49.430 182.190, 85.381 180.533, 92.173 177.707 C 94.003 176.945, 96.077 176.517, 96.781 176.755 C 97.486 176.993, 97.936 176.630, 97.781 175.949 C 97.627 175.268, 98.984 174.308, 100.797 173.815 C 102.610 173.322, 104.346 172.262, 104.654 171.459 C 104.962 170.657, 105.841 170, 106.607 170 C 107.373 170, 108 169.646, 108 169.214 C 108 167.847, 103.547 168.334, 102.421 169.824 C 101.547 170.981, 100.912 171.023, 99.085 170.046 C 97.844 169.381, 96.567 169.099, 96.248 169.419 C 95.928 169.739, 96.267 170, 97 170 C 97.733 170, 98.020 170.313, 97.638 170.696 C 96.077 172.256, 93.886 171.674, 91.857 169.161 C 89.847 166.671, 89.744 166.645, 90.261 168.750 C 90.636 170.278, 90.362 171, 89.406 171 C 88.573 171, 88 169.982, 88 168.500 C 88 166.944, 87.433 166, 86.500 166 C 85.675 166, 85 165.502, 85 164.893 C 85 164.284, 85.565 164.003, 86.255 164.268 C 86.946 164.533, 88.053 164.169, 88.716 163.459 C 89.676 162.431, 89.319 161.958, 86.961 161.136 C 84.723 160.356, 84 159.481, 84 157.552 C 84 156.148, 83.520 155, 82.933 155 C 82.336 155, 82.133 155.845, 82.473 156.916 M 280.256 160.750 C 280.488 165.270, 280.379 165.488, 278 165.262 L 275.500 165.024 277.750 166.165 C 278.988 166.792, 280 167.687, 280 168.153 C 280 169.379, 278.773 169.143, 276.603 167.500 C 275.559 166.710, 274.322 166.301, 273.853 166.591 C 273.384 166.881, 273 166.677, 273 166.138 C 273 165.600, 274.350 164.862, 276 164.500 C 277.650 164.138, 279 163.378, 279 162.812 C 279 162.208, 277.945 162.048, 276.448 162.424 C 274.127 163.006, 273.994 162.880, 274.983 161.032 C 275.714 159.665, 275.732 159, 275.035 159 C 274.466 159, 274 159.675, 274 160.500 C 274 162.425, 273.477 162.389, 271.033 160.296 C 269.531 159.010, 269.344 158.373, 270.271 157.702 C 271.092 157.107, 270.891 157.009, 269.668 157.406 C 268.661 157.733, 267.086 158.014, 266.168 158.032 C 264.680 158.060, 264.666 158.195, 266.041 159.282 C 267.417 160.370, 267.391 160.686, 265.791 162.250 C 264.083 163.919, 263.524 163.690, 263.964 161.500 C 264.074 160.950, 263.050 161.547, 261.687 162.826 C 259.547 164.835, 258.741 165.023, 255.767 164.201 C 252.481 163.294, 252.346 163.359, 252.782 165.640 C 253.142 167.523, 252.896 167.897, 251.619 167.407 C 250.729 167.066, 250 166.384, 250 165.893 C 250 164.630, 246.241 164.778, 245.814 166.057 C 245.414 167.258, 242 166.244, 242 164.924 C 242 164.451, 242.787 164.310, 243.750 164.613 C 245.272 165.092, 245.252 164.961, 243.592 163.606 C 241.859 162.192, 241.573 162.201, 240.467 163.714 C 239.399 165.175, 239.250 165.051, 239.250 162.708 C 239.250 161.238, 239.644 160.280, 240.125 160.577 C 240.606 160.875, 241 160.593, 241 159.952 C 241 159.300, 240.303 159.053, 239.418 159.393 C 238.548 159.727, 237.086 160.016, 236.168 160.035 C 234.928 160.062, 235.095 160.401, 236.818 161.357 C 238.875 162.499, 238.961 162.788, 237.579 163.935 C 235.854 165.366, 236.495 167.408, 238.434 166.664 C 239.112 166.403, 239.667 166.780, 239.667 167.500 C 239.667 168.252, 239.029 168.565, 238.169 168.235 C 237.239 167.878, 236.930 168.077, 237.352 168.761 C 237.726 169.366, 237.575 170.144, 237.016 170.490 C 236.457 170.835, 236 170.641, 236 170.059 C 236 169.477, 235.523 169, 234.941 169 C 234.359 169, 234.160 169.450, 234.500 170 C 234.840 170.550, 234.390 171, 233.500 171 C 231.429 171, 232.556 169.138, 235.352 167.939 C 237.394 167.063, 237.376 167.028, 235 167.228 C 230.970 167.567, 229.537 166.169, 231.590 163.901 C 232.595 162.790, 232.830 162, 232.155 162 C 231.520 162, 231 162.450, 231 163 C 231 163.550, 230.325 164, 229.500 164 C 227.608 164, 227.603 164.988, 229.482 167.670 C 230.790 169.539, 230.790 169.929, 229.482 171.015 C 226.837 173.210, 227.614 175.938, 230.722 175.374 L 233.444 174.880 231.102 176.911 C 229.262 178.507, 228.341 178.718, 226.802 177.894 C 224.753 176.798, 222 177.318, 222 178.802 C 222 179.720, 223.635 180.027, 228.500 180.024 C 231.216 180.022, 231.334 180.150, 229.750 181.371 C 227.607 183.024, 227.452 184.424, 229.500 183.638 C 230.325 183.322, 231 183.402, 231 183.817 C 231 184.232, 231.867 184.571, 232.927 184.571 C 233.986 184.571, 234.635 184.218, 234.368 183.786 C 234.100 183.354, 235.259 183, 236.941 183 C 238.623 183, 240 183.525, 240 184.167 C 240 184.808, 240.266 185.067, 240.592 184.742 C 240.917 184.416, 240.805 183.554, 240.342 182.825 C 239.460 181.437, 233 180.923, 233 182.240 C 233 182.658, 232.546 183, 231.992 183 C 231.346 183, 231.377 182.370, 232.077 181.250 C 233.224 179.414, 242.240 178.705, 244.660 180.261 C 245.298 180.671, 246.535 180.732, 247.410 180.396 C 248.284 180.061, 249 180.284, 249 180.893 C 249 182.744, 250.567 182.127, 250.633 180.250 C 250.668 179.287, 250.877 177.982, 251.098 177.350 C 251.319 176.717, 251.050 176.267, 250.500 176.350 C 249.950 176.432, 249.567 177.087, 249.648 177.804 C 249.730 178.529, 249.065 178.946, 248.148 178.744 C 247.242 178.545, 246.612 177.845, 246.750 177.191 C 246.887 176.536, 246.339 176, 245.531 176 C 244.637 176, 244.288 175.414, 244.638 174.500 C 244.955 173.675, 245.953 173.007, 246.857 173.015 C 248.160 173.027, 248.219 173.208, 247.143 173.890 C 246.040 174.589, 246.029 174.900, 247.084 175.552 C 247.845 176.022, 248.544 175.867, 248.774 175.177 C 248.990 174.530, 249.804 174, 250.583 174 C 251.363 174, 252 173.325, 252 172.500 C 252 171.675, 252.702 171, 253.559 171 C 254.416 171, 254.869 170.597, 254.565 170.105 C 254.260 169.612, 254.655 168.963, 255.441 168.661 C 256.227 168.359, 257.052 168.650, 257.273 169.306 C 257.569 170.187, 258.123 170.130, 259.385 169.088 C 260.524 168.148, 260.729 167.451, 260 167 C 259.262 166.544, 259.423 165.894, 260.495 165.004 C 261.749 163.963, 262.340 163.943, 263.292 164.910 C 264.238 165.868, 264.123 166.413, 262.766 167.416 C 261.812 168.121, 261.324 168.991, 261.682 169.349 C 262.836 170.503, 265.720 170.043, 267 168.500 C 268.446 166.758, 270 166.530, 270 168.059 C 270 168.641, 269.550 168.840, 269 168.500 C 267.543 167.599, 267.777 169.313, 269.418 171.557 C 270.220 172.654, 271.198 173.112, 271.668 172.612 C 272.126 172.125, 271.935 171.524, 271.244 171.278 C 269.003 170.478, 270.955 169.124, 273.645 169.612 C 279.801 170.728, 281.332 170.379, 280.710 168 C 280.363 166.672, 280.680 166, 281.653 166 C 282.459 166, 282.821 165.520, 282.459 164.933 C 282.096 164.347, 282.589 163.290, 283.553 162.585 C 285.440 161.205, 284.775 159, 282.472 159 C 281.630 159, 281.294 158.396, 281.638 157.500 C 281.955 156.675, 281.718 156, 281.113 156 C 280.431 156, 280.105 157.811, 280.256 160.750 M 290.972 179.750 C 289.419 181.596, 289.487 186, 291.070 186 C 291.581 186, 292 186.689, 292 187.531 C 292 188.374, 292.672 189.321, 293.494 189.636 C 294.316 189.952, 294.785 190.539, 294.536 190.942 C 294.287 191.344, 295.429 191.593, 297.072 191.496 C 298.867 191.389, 299.903 191.754, 299.665 192.409 C 299.448 193.009, 299.711 194.353, 300.249 195.396 C 301.090 197.027, 300.925 197.214, 299.072 196.729 C 297.299 196.266, 297.026 196.505, 297.526 198.083 C 298.265 200.411, 296.471 200.671, 295.586 198.364 C 295.005 196.849, 294.824 196.850, 293.148 198.366 C 292.152 199.267, 290.965 199.666, 290.509 199.252 C 290.052 198.838, 290.003 199.063, 290.399 199.750 C 290.856 200.545, 290.460 201.036, 289.309 201.100 C 288.028 201.170, 288.229 201.433, 290 202 C 291.375 202.440, 291.911 202.845, 291.191 202.900 C 290.471 202.955, 290.164 203.456, 290.508 204.014 C 290.853 204.571, 289.588 204.233, 287.698 203.264 C 284.041 201.387, 283.703 198.848, 287.233 199.771 C 288.889 200.204, 289.201 199.967, 288.700 198.661 C 288.208 197.377, 288.680 196.974, 290.781 196.884 C 292.858 196.795, 293.027 196.654, 291.500 196.287 C 288.119 195.474, 287.736 194.324, 290.111 192.111 C 291.998 190.353, 292.159 189.776, 291.047 188.744 C 289.951 187.728, 289.826 187.841, 290.364 189.361 C 290.847 190.726, 290.637 191.075, 289.576 190.668 C 288.780 190.362, 287.948 190.650, 287.727 191.306 C 287.423 192.208, 286.941 192.183, 285.752 191.201 C 284.694 190.329, 283.965 190.247, 283.530 190.951 C 283.174 191.528, 283.385 192, 284 192 C 284.615 192, 284.849 192.435, 284.520 192.967 C 284.191 193.499, 284.795 194.480, 285.861 195.146 C 288.058 196.517, 287.627 199.178, 285.350 198.304 C 283.040 197.418, 277.066 200.915, 277.015 203.183 C 277.007 203.558, 278.012 204.187, 279.250 204.581 C 281.419 205.270, 281.428 205.321, 279.501 205.998 C 278.188 206.460, 277.083 206.152, 276.283 205.100 C 275.612 204.220, 275.049 203.893, 275.032 204.372 C 275.014 204.852, 274.291 204.656, 273.424 203.937 C 272.123 202.857, 271.702 202.864, 271.015 203.976 C 269.823 205.905, 260.125 206.312, 257.432 204.547 C 256.247 203.771, 254.428 203.267, 253.389 203.426 C 252.350 203.586, 251.181 203.222, 250.792 202.617 C 250.280 201.822, 249.766 201.834, 248.941 202.659 C 248.085 203.515, 248.338 203.972, 249.952 204.485 C 251.797 205.070, 251.919 205.407, 250.803 206.834 C 249.632 208.331, 249.680 208.358, 251.274 207.107 C 252.250 206.342, 253.375 206.066, 253.774 206.494 C 254.173 206.923, 253.938 207.475, 253.250 207.720 C 252.563 207.966, 252 208.852, 252 209.690 C 252 210.669, 252.566 210.997, 253.582 210.607 C 254.452 210.273, 255.378 210, 255.641 210 C 255.903 210, 255.875 209.606, 255.577 209.125 C 255.280 208.644, 256.118 208.250, 257.439 208.250 C 259.191 208.250, 259.681 208.667, 259.251 209.789 C 258.897 210.711, 259.077 211.070, 259.701 210.685 C 260.273 210.331, 261.772 210.935, 263.031 212.027 C 265.456 214.130, 267.023 213.938, 265.215 211.759 C 264.370 210.741, 265.063 210.461, 268.511 210.430 C 270.912 210.408, 272.653 210.752, 272.380 211.195 C 272.106 211.638, 271.234 212, 270.441 212 C 269.648 212, 269 212.477, 269 213.059 C 269 213.641, 268.550 213.840, 268 213.500 C 267.450 213.160, 267 213.359, 267 213.941 C 267 214.523, 267.563 215.037, 268.250 215.081 C 268.938 215.126, 268.150 215.757, 266.501 216.483 C 264.666 217.291, 262.881 217.472, 261.903 216.948 C 259.327 215.570, 254.375 217.236, 256.299 218.833 C 257.327 219.686, 258.033 219.756, 258.470 219.049 C 258.826 218.472, 259.879 218.007, 260.809 218.015 C 262.279 218.029, 262.304 218.171, 261 219.110 C 259.802 219.971, 259.903 220.038, 261.500 219.442 C 262.600 219.031, 265.582 218.654, 268.126 218.605 C 271.706 218.536, 272.627 218.193, 272.202 217.085 C 271.805 216.050, 272.140 215.840, 273.408 216.326 C 274.374 216.697, 275.338 217, 275.550 217 C 275.763 217, 275.678 217.675, 275.362 218.500 C 274.722 220.166, 277.482 220.647, 278.474 219.043 C 279.282 217.735, 273.506 214.869, 271.563 215.614 C 269.433 216.431, 269.590 214.681, 271.829 212.655 C 274.064 210.632, 277.815 210.313, 276.178 212.286 C 275.383 213.244, 275.543 213.610, 276.805 213.721 C 277.737 213.804, 279.850 214.117, 281.500 214.417 C 284.195 214.907, 284.245 214.873, 282 214.081 C 280.625 213.596, 279.950 213.139, 280.500 213.064 C 281.050 212.990, 280.482 212.364, 279.238 211.673 C 277.179 210.530, 277.109 210.240, 278.456 208.458 C 279.815 206.661, 279.939 206.646, 279.968 208.285 C 279.995 209.779, 280.338 209.890, 282.071 208.962 C 283.562 208.164, 285.004 208.154, 287.220 208.927 C 291.042 210.259, 292 210.274, 292 209 C 292 208.450, 291.325 208, 290.500 208 C 289.675 208, 289 207.612, 289 207.139 C 289 206.665, 290.125 206.492, 291.500 206.755 C 293.780 207.191, 295.039 205.747, 293.250 204.747 C 292.837 204.517, 293.048 204.459, 293.718 204.620 C 295.411 205.027, 296.295 203.301, 294.756 202.595 C 294.065 202.278, 294.512 202.270, 295.750 202.577 C 297.193 202.935, 298 202.680, 298 201.867 C 298 200.882, 298.267 200.867, 299.200 201.800 C 302.652 205.252, 307.139 202.841, 303.826 199.314 L 301.651 197 304.076 196.968 C 306.340 196.938, 306.381 196.846, 304.697 195.569 C 303.705 194.817, 303.327 194.044, 303.855 193.851 C 306.500 192.886, 305.467 189.504, 302.621 189.808 C 300.368 190.049, 299.870 189.780, 300.334 188.572 C 300.777 187.417, 300.320 187.079, 298.518 187.228 C 296.677 187.380, 296.361 187.730, 297.177 188.714 C 297.959 189.656, 297.878 189.998, 296.872 189.992 C 296.118 189.988, 294.961 188.824, 294.303 187.406 C 293.318 185.283, 293.350 184.920, 294.480 185.354 C 296.225 186.023, 298.555 183.461, 297.049 182.530 C 296.472 182.174, 296 182.541, 296 183.347 C 296 184.551, 295.556 184.606, 293.509 183.656 C 290.804 182.401, 290.704 180.415, 293.358 180.639 C 294.261 180.715, 295 180.153, 295 179.389 C 295 177.452, 292.735 177.655, 290.972 179.750" stroke="none" fill="#1a1a2e" fill-rule="evenodd"/>
</svg>