<svg xmlns="http://www.w3.org/2000/svg" width="300" height="159" viewBox="0 0 300 159" version="1.1">
	<path d="M 191 6.461 C 191 6.779, 192.044 8.718, 193.320 10.770 C 195.612 14.454, 199 22.266, 199 23.865 C 199 24.509, 189.148 24.608, 179.403 24.062 C 178.799 24.028, 177.775 22.988, 177.127 21.750 L 175.948 19.500 176.380 21.750 C 176.685 23.334, 176.322 24.023, 175.156 24.077 C 174.245 24.119, 172.796 24.292, 171.936 24.461 C 171 24.645, 168.429 22.303, 165.538 18.634 C 162.879 15.260, 159.308 11.409, 157.602 10.076 C 155.103 8.123, 155.297 8.512, 158.600 12.076 C 163.534 17.401, 168.001 23.351, 167.998 24.594 C 167.994 26.218, 161.591 25.821, 160.314 24.118 C 159.266 22.723, 159.178 22.811, 159.670 24.765 C 160.109 26.507, 159.890 26.895, 158.722 26.447 C 157.886 26.126, 156.917 26.325, 156.569 26.888 C 156.221 27.452, 155.275 27.659, 154.468 27.349 C 153.640 27.032, 153 27.354, 153 28.089 C 153 28.808, 151.542 28.036, 149.750 26.371 C 145.312 22.244, 139.018 17.538, 136 16.090 C 132.992 14.646, 133.798 15.324, 142.836 21.841 C 148.739 26.098, 151.136 29.010, 148.719 28.989 C 148.048 28.983, 146.076 27.512, 144.335 25.720 C 140.583 21.857, 131.977 15.527, 132.055 16.688 C 132.085 17.135, 135.089 19.750, 138.732 22.500 C 148.898 30.175, 146.908 34.622, 136.570 27.330 L 131.500 23.754 135.800 27.660 C 142.145 33.424, 139.800 33.636, 132.728 27.938 C 129.378 25.239, 126.408 23.258, 126.129 23.538 C 125.849 23.817, 126.705 24.806, 128.031 25.734 C 132.684 28.993, 136.491 32.842, 135.773 33.560 C 135.375 33.959, 134.250 33.658, 133.274 32.893 C 131.699 31.656, 131.639 31.679, 132.741 33.092 C 135.202 36.248, 132.620 35.890, 128.940 32.565 C 126.870 30.695, 124.125 28.653, 122.838 28.027 C 120.603 26.940, 120.610 26.976, 123 28.847 C 127.902 32.686, 131.213 36.120, 130.601 36.732 C 130.259 37.074, 128.634 36.065, 126.990 34.490 C 124.015 31.640, 122.639 31.782, 125.500 34.643 C 128.219 37.362, 127.061 38.431, 124.250 35.796 C 120.770 32.534, 107.977 24, 106.566 24 C 105.982 24, 107.873 25.457, 110.768 27.237 C 114.091 29.281, 115.839 30.977, 115.509 31.838 C 115.221 32.587, 116.130 34.101, 117.528 35.201 C 120.126 37.244, 120.167 40.554, 117.615 42.235 C 115.716 43.486, 115.206 43.093, 115.356 40.490 C 115.445 38.931, 115.974 38.161, 116.750 38.458 C 121.109 40.128, 110.568 31.395, 104.250 28.102 C 100.158 25.970, 101.908 27.606, 108.500 32.076 C 114.590 36.206, 116.274 38, 114.059 38 C 113.541 38, 112.839 37.548, 112.497 36.995 C 111.793 35.856, 100.438 28, 99.496 28 C 99.158 28, 99.160 28.450, 99.500 29 C 99.840 29.550, 99.727 30, 99.250 30 C 98.773 30, 97.591 30.579, 96.624 31.286 C 94.975 32.491, 94.990 32.571, 96.859 32.571 C 97.956 32.571, 98.635 32.218, 98.368 31.786 C 96.684 29.062, 103.160 33.460, 110.264 39.865 C 113.731 42.990, 113.889 43.360, 112.271 44.544 C 111.304 45.251, 110.278 45.530, 109.990 45.165 C 109.703 44.799, 108.104 43.266, 106.438 41.758 L 103.407 39.016 103.454 41.425 C 103.479 42.750, 103.861 44.195, 104.303 44.637 C 104.744 45.078, 104.809 44.665, 104.446 43.720 C 103.549 41.382, 105.169 41.549, 107.278 44.011 C 109.468 46.569, 109.615 48.755, 107.477 46.981 C 106.186 45.909, 106.055 46.005, 106.616 47.609 C 106.979 48.649, 103.754 46.125, 99.447 42 C 95.141 37.875, 92.170 35.240, 92.844 36.145 C 93.518 37.049, 93.943 38.174, 93.789 38.645 C 93.417 39.774, 99.121 47.213, 99.821 46.512 C 100.119 46.214, 98.843 44.402, 96.985 42.485 C 95.128 40.568, 94.058 39, 94.608 39 C 95.540 39, 99.024 42.454, 103.441 47.756 C 104.475 48.997, 105.019 50.314, 104.650 50.683 C 104.281 51.052, 103.308 50.487, 102.487 49.427 C 101.085 47.616, 101.035 47.613, 101.649 49.365 C 102.208 50.961, 101.956 51.121, 99.909 50.471 C 97.873 49.825, 97.699 49.932, 98.742 51.189 C 100.318 53.088, 95.897 57.497, 94.159 55.759 C 93.429 55.029, 93.282 55.362, 93.673 56.856 C 93.999 58.103, 93.766 59, 93.117 59 C 92.502 59, 92 58.350, 92 57.556 C 92 56.761, 90.834 54.849, 89.408 53.306 L 86.817 50.500 88.777 53.500 C 91.801 58.127, 92.631 61.456, 90.563 60.663 C 89.646 60.311, 89.126 60.395, 89.407 60.850 C 89.689 61.305, 88.062 62.721, 85.792 63.997 C 82.263 65.980, 81.761 66.064, 82.332 64.577 C 82.703 63.611, 82.333 61.885, 81.500 60.696 C 79.765 58.220, 79.516 59.130, 81.056 62.316 C 82.107 64.487, 82.102 64.487, 80.146 62.250 C 77.325 59.023, 76.489 59.473, 78.932 62.904 C 81.837 66.985, 81.445 68.108, 78.375 64.500 C 76.326 62.092, 76.057 61.969, 77.014 63.877 C 80.046 69.922, 66.716 69.486, 53.683 63.113 C 43.977 58.367, 40.775 57.891, 49.594 62.504 C 55.522 65.606, 57.062 67, 54.559 67 C 53.702 67, 53 67.436, 53 67.969 C 53 68.501, 52.264 68.655, 51.364 68.309 C 50.266 67.888, 49.874 68.123, 50.174 69.022 C 50.727 70.682, 57.612 70.799, 57.250 69.143 C 56.888 67.487, 59.539 67.740, 61 69.500 C 61.685 70.325, 63.315 71, 64.622 71 C 66.608 71, 67 71.505, 67 74.059 C 67 75.923, 67.406 76.867, 68.041 76.475 C 68.613 76.121, 68.808 74.970, 68.473 73.916 C 67.740 71.605, 69.255 71.397, 71.052 73.563 C 72.224 74.975, 72.441 74.963, 73.292 73.443 C 74.063 72.065, 74.391 72.008, 75.102 73.130 C 75.734 74.128, 75.974 74.161, 75.985 73.250 C 75.993 72.563, 77.092 72, 78.427 72 C 79.761 72, 81.047 72.563, 81.283 73.250 C 81.520 73.938, 81.595 73.713, 81.450 72.750 C 81.306 71.787, 81.781 71, 82.508 71 C 83.234 71, 85.464 69.412, 87.462 67.471 C 89.461 65.530, 91.478 64.177, 91.943 64.465 C 92.409 64.753, 93.057 64.295, 93.382 63.447 C 93.707 62.600, 94.542 61.981, 95.237 62.072 C 97.899 62.420, 100 61.961, 100 61.031 C 100 60.499, 99.251 60.350, 98.336 60.701 C 97.217 61.131, 96.909 60.957, 97.395 60.170 C 97.793 59.526, 98.766 59, 99.559 59 C 100.352 59, 101 58.622, 101 58.161 C 101 57.699, 102.331 57.401, 103.958 57.498 C 105.585 57.594, 106.665 57.267, 106.358 56.770 C 106.051 56.273, 106.407 55.950, 107.150 56.052 C 110.886 56.565, 112.593 55.993, 110.668 54.874 C 109.661 54.289, 107.973 54.035, 106.917 54.311 C 105.861 54.588, 105.249 54.405, 105.558 53.907 C 106.384 52.569, 109.116 52.812, 112.379 54.514 C 114.623 55.684, 115.006 55.712, 114.116 54.640 C 113.245 53.591, 113.333 52.968, 114.488 52.010 C 115.319 51.320, 116 50.119, 116 49.342 C 116 48.240, 116.439 48.164, 118 49 C 119.100 49.589, 120 50.560, 120 51.158 C 120 51.832, 119.335 51.724, 118.250 50.872 C 116.661 49.626, 116.627 49.662, 117.883 51.262 C 118.968 52.646, 119.569 52.772, 120.680 51.851 C 121.825 50.901, 121.847 50.517, 120.797 49.838 C 119.220 48.819, 121.764 46.736, 123.372 47.730 C 123.936 48.078, 124.065 47.611, 123.681 46.612 C 123.290 45.593, 123.424 45.144, 124.011 45.507 C 124.555 45.843, 125 45.512, 125 44.772 C 125 43.157, 128.915 42.685, 130.615 44.095 C 131.421 44.765, 132.028 44.764, 132.443 44.092 C 132.785 43.540, 133.725 43.341, 134.532 43.651 C 135.376 43.974, 136.007 43.637, 136.015 42.857 C 136.028 41.715, 136.167 41.714, 136.890 42.857 C 137.494 43.809, 137.955 43.882, 138.438 43.100 C 138.817 42.487, 138.423 41.716, 137.563 41.386 C 136.704 41.056, 136.007 40.047, 136.015 39.143 C 136.029 37.717, 136.159 37.698, 137 39 C 137.712 40.102, 137.973 40.151, 137.985 39.183 C 137.995 38.322, 138.694 38.085, 140 38.500 C 141.192 38.878, 142 38.680, 142 38.008 C 142 37.389, 142.445 37.157, 142.989 37.493 C 143.555 37.843, 143.723 37.442, 143.382 36.554 C 142.935 35.387, 143.395 35.055, 145.246 35.208 C 147.157 35.366, 147.607 35.867, 147.266 37.456 C 146.905 39.135, 147.018 39.232, 147.898 38 C 148.500 37.157, 148.976 37.001, 148.985 37.643 C 148.993 38.272, 149.652 39.036, 150.449 39.342 C 151.467 39.733, 151.714 39.418, 151.279 38.285 C 150.852 37.173, 151.043 36.908, 151.893 37.434 C 152.601 37.871, 153.983 37.420, 155.137 36.376 C 157.558 34.185, 157.416 36.506, 154.979 38.965 C 154.142 39.809, 153.895 40.163, 154.429 39.750 C 155.961 38.566, 157 38.869, 157 40.500 C 157 41.325, 157.422 42, 157.937 42 C 158.453 42, 158.619 40.425, 158.306 38.500 C 157.674 34.607, 160.318 33.276, 161.471 36.908 C 162.247 39.353, 164.861 40.360, 166.627 38.895 C 167.677 38.023, 168.004 38.077, 168.015 39.128 C 168.026 40.053, 168.270 40.139, 168.765 39.392 C 169.169 38.782, 170.287 38.405, 171.250 38.553 C 172.213 38.702, 173 38.358, 173 37.789 C 173 37.157, 173.566 37.225, 174.456 37.964 C 175.940 39.195, 178 38.619, 178 36.972 C 178 36.472, 177.251 36.350, 176.336 36.701 C 175.231 37.125, 174.910 36.954, 175.382 36.191 C 175.773 35.559, 175.606 34.132, 175.011 33.021 C 173.382 29.978, 174.575 30.594, 177.055 34.077 C 178.675 36.353, 178.954 37.446, 178.123 38.277 C 176.576 39.824, 176.701 41.493, 178.267 40.193 C 179.196 39.422, 180.157 39.790, 181.872 41.571 L 184.210 44 181.355 44.015 C 179.367 44.026, 178.913 44.292, 179.861 44.893 C 183.434 47.157, 185.820 44.615, 183.384 41.138 C 182.195 39.441, 182.063 38.537, 182.884 37.716 C 183.705 36.895, 184.004 37.115, 184.015 38.550 C 184.026 39.904, 184.274 40.116, 184.827 39.246 C 185.265 38.556, 186.801 38.089, 188.240 38.208 C 189.679 38.327, 190.703 38.672, 190.516 38.975 C 190.329 39.277, 190.724 40.551, 191.395 41.804 L 192.615 44.083 194.544 41.951 C 196.449 39.846, 196.449 39.802, 194.546 38.410 C 193.485 37.634, 193.068 37, 193.618 37 C 194.168 37, 195.491 37.661, 196.559 38.468 C 199.231 40.489, 200.529 40.367, 198.890 38.250 C 197.765 36.798, 197.911 36.821, 199.746 38.386 C 201.831 40.164, 201.997 40.171, 202.631 38.519 C 203.248 36.912, 203.396 36.937, 204.402 38.817 C 205.006 39.945, 205.950 40.872, 206.500 40.875 C 207.050 40.879, 207.831 41.921, 208.236 43.191 C 208.727 44.731, 208.840 44.167, 208.578 41.500 C 208.361 39.300, 208.405 38.065, 208.677 38.756 C 208.949 39.447, 209.659 39.711, 210.255 39.342 C 210.934 38.923, 211.113 39.264, 210.733 40.253 C 209.992 42.186, 212.325 43.275, 213.878 41.722 C 214.707 40.893, 215 41.059, 215 42.359 C 215 43.326, 215.457 43.835, 216.016 43.490 C 216.575 43.144, 216.774 42.443, 216.457 41.931 C 215.794 40.857, 217.113 40.722, 219.461 41.624 C 220.938 42.190, 220.923 42.442, 219.300 44.374 C 217.930 46.006, 218.155 45.933, 220.270 44.063 C 222.545 42.052, 223.242 41.859, 224.263 42.960 C 225.246 44.019, 225.245 44.150, 224.261 43.595 C 223.433 43.128, 223.218 43.405, 223.613 44.434 C 224.106 45.719, 224.488 45.618, 225.944 43.821 L 227.684 41.672 228.330 44.902 C 228.692 46.709, 229.422 47.857, 229.988 47.507 C 230.545 47.163, 231 47.544, 231 48.353 C 231 49.332, 231.844 49.731, 233.524 49.547 C 234.913 49.394, 236.332 49.729, 236.679 50.289 C 237.040 50.873, 236.815 51.004, 236.155 50.595 C 235.520 50.203, 235 50.359, 235 50.941 C 235 52.299, 238.556 52.308, 241.080 50.957 C 243.147 49.851, 243.530 51.762, 241.529 53.196 C 240.995 53.578, 240.856 54.190, 241.221 54.555 C 241.586 54.920, 243.373 54.190, 245.192 52.933 C 247.012 51.676, 248.166 51.023, 247.759 51.482 C 247.351 51.941, 247.576 53.032, 248.259 53.908 C 249.357 55.317, 249.298 55.342, 247.750 54.128 C 246.707 53.310, 246 53.185, 246 53.819 C 246 54.403, 246.479 55.178, 247.065 55.540 C 247.760 55.970, 247.499 56.940, 246.315 58.332 C 245.062 59.805, 244.993 60.087, 246.092 59.241 C 246.968 58.568, 248.052 58.351, 248.502 58.759 C 248.952 59.166, 248.997 58.938, 248.601 58.250 C 247.769 56.805, 249.585 56.520, 250.473 57.956 C 251.151 59.053, 254 58.220, 254 56.924 C 254 56.451, 253.213 56.340, 252.250 56.679 C 250.875 57.162, 250.751 57.022, 251.672 56.025 C 252.316 55.327, 252.578 54.024, 252.252 53.128 C 251.736 51.707, 251.915 51.722, 253.662 53.252 C 254.762 54.216, 256.035 54.666, 256.490 54.252 C 256.946 53.838, 257.058 54.231, 256.739 55.124 C 256.359 56.188, 256.994 57.194, 258.580 58.043 C 259.911 58.755, 261 59.712, 261 60.169 C 261 60.626, 261.691 61, 262.534 61 C 263.573 61, 263.077 61.970, 261 64 C 259.312 65.650, 257.320 67, 256.573 67 C 254.460 67, 253.741 70.170, 255.463 71.892 C 256.809 73.238, 257 73.243, 257 71.932 C 257 71.028, 258.070 70.348, 259.706 70.212 C 262.723 69.963, 265.348 68.077, 262.950 67.882 C 260.651 67.696, 271.083 65.836, 275.416 65.659 C 277.704 65.566, 279.521 64.936, 279.785 64.145 C 280.117 63.149, 279.610 62.965, 277.868 63.451 C 275.514 64.109, 275.516 64.098, 278.137 61.701 C 280.734 59.327, 283.478 55.126, 282.831 54.517 C 282.649 54.346, 281.314 55.509, 279.865 57.103 C 278.416 58.696, 277.516 60.014, 277.865 60.030 C 278.214 60.047, 277.679 60.538, 276.675 61.122 C 273.577 62.923, 273.802 61.496, 277.473 56.040 C 279.413 53.157, 280.998 50.282, 280.996 49.650 C 280.993 49.017, 279.670 50.492, 278.054 52.928 C 272.859 60.759, 269.357 61.192, 273.673 53.469 C 275.159 50.810, 276.484 47.029, 276.617 45.067 C 276.837 41.822, 276.707 41.964, 275.179 46.646 C 273.389 52.132, 270.112 57.187, 268.851 56.408 C 268.015 55.891, 268.391 54.549, 271.074 48.465 C 272.053 46.246, 273.123 43.096, 273.452 41.465 L 274.051 38.500 272.574 41.500 C 271.762 43.150, 270.186 46.671, 269.072 49.324 C 266.040 56.546, 264.868 54.049, 267.668 46.334 C 269.004 42.652, 269.942 38.483, 269.751 37.070 C 269.510 35.285, 268.997 36.407, 268.072 40.746 C 267.340 44.181, 265.900 47.963, 264.871 49.149 C 262.618 51.746, 262.488 50.183, 264.489 44.566 C 265.260 42.402, 265.629 40.209, 265.309 39.691 C 264.990 39.174, 264.139 40.465, 263.419 42.559 C 262.698 44.654, 262.317 46.704, 262.571 47.115 C 263.295 48.286, 261.546 48.956, 260.099 48.061 C 259.121 47.457, 259.062 46.753, 259.863 45.257 C 261.574 42.060, 262.890 35.050, 261.895 34.435 C 261.403 34.131, 260.997 34.921, 260.994 36.191 C 260.984 40.495, 258.952 46, 257.374 46 C 256.183 46, 255.981 45.275, 256.468 42.750 C 257.042 39.771, 256.972 39.652, 255.629 41.329 C 252.443 45.306, 250.222 41.990, 250.576 33.785 L 250.890 26.500 250.069 32.326 C 249.439 36.800, 247.109 42.545, 246.977 39.950 C 246.965 39.703, 246.848 35.806, 246.717 31.290 C 246.570 26.173, 245.991 22.595, 245.181 21.790 C 244.119 20.736, 243.975 20.774, 244.392 22 C 245.373 24.887, 245.837 35.983, 244.997 36.502 C 244.090 37.063, 239.063 35.072, 238.906 34.089 C 238.854 33.765, 238.714 32.150, 238.595 30.500 C 238.185 24.812, 236.767 17.974, 235.885 17.429 C 234.761 16.734, 234.799 17.304, 236.323 24 C 237.645 29.810, 237.481 34, 235.930 34 C 235.073 34, 234.543 31.704, 234.922 29.628 C 235.147 28.396, 230.879 15.788, 230.399 16.267 C 230.182 16.484, 230.856 20.001, 231.897 24.081 C 233.879 31.856, 233.757 33.873, 231.422 31.935 C 230.652 31.296, 230.234 30.430, 230.494 30.010 C 230.887 29.373, 229.265 22.553, 227.424 17.107 C 226.063 13.082, 226.049 17.657, 227.407 22.330 C 229.203 28.508, 229.408 31, 228.119 31 C 227.634 31, 226.714 28.920, 226.074 26.378 C 225.434 23.836, 224.672 21.994, 224.382 22.285 C 224.092 22.575, 224.301 24.430, 224.846 26.406 C 225.627 29.234, 225.554 30, 224.502 30 C 223.716 30, 222.743 28.030, 222.140 25.215 C 221.083 20.286, 217.451 11, 216.580 11 C 216.310 11, 217.224 14.013, 218.610 17.696 C 219.996 21.379, 220.918 25.205, 220.659 26.198 C 220.399 27.190, 220.595 27.751, 221.093 27.442 C 221.592 27.134, 222 27.411, 222 28.058 C 222 28.789, 221.149 29.005, 219.750 28.630 C 218.512 28.299, 216.747 28.021, 215.828 28.014 C 214.774 28.005, 213.724 26.612, 212.991 24.250 C 211.462 19.323, 209.050 14, 208.346 14 C 208.038 14, 208.114 14.787, 208.514 15.750 C 212.470 25.253, 212.870 27, 211.089 27 C 209.908 27, 208.837 25.479, 207.746 22.250 L 206.140 17.500 206.698 21.750 C 207.264 26.063, 205.538 27.936, 204.394 24.250 C 203.478 21.295, 200.951 16.373, 201.443 18.500 C 201.697 19.600, 202.200 21.737, 202.561 23.250 C 202.976 24.990, 202.810 26, 202.108 26 C 201.499 26, 201 25.506, 201 24.902 C 201 23.369, 192.979 7.105, 191.891 6.433 C 191.401 6.130, 191 6.142, 191 6.461 M 283.531 68.970 C 281.770 70.131, 279.671 70.704, 278.374 70.379 C 277.171 70.077, 275.244 70.334, 274.093 70.950 C 272.942 71.566, 272 71.700, 272 71.248 C 272 70.796, 271.090 70.357, 269.978 70.273 C 268.866 70.190, 268.218 70.544, 268.537 71.061 C 268.857 71.577, 269.744 72, 270.509 72 C 271.275 72, 272.260 72.602, 272.700 73.339 C 273.140 74.075, 274.400 75.234, 275.500 75.914 C 276.927 76.796, 277.007 76.999, 275.782 76.619 C 274.837 76.327, 273.794 76.525, 273.463 77.060 C 272.676 78.334, 270.783 77.150, 271.271 75.688 C 271.797 74.108, 263.791 69.950, 262.408 71.086 C 261.807 71.579, 261.020 71.687, 260.658 71.325 C 260.296 70.963, 259.944 71.192, 259.875 71.833 C 259.806 72.475, 259.694 73.466, 259.625 74.036 C 259.556 74.607, 258.825 75.500, 258 76.021 C 257.168 76.547, 257.015 76.976, 257.656 76.985 C 258.318 76.993, 258.589 77.855, 258.290 79 C 258.002 80.100, 257.450 81, 257.062 81 C 256.238 81, 256.474 87.329, 257.466 91.844 C 257.844 93.566, 259.253 95.841, 260.597 96.898 C 262.263 98.208, 262.637 98.982, 261.770 99.331 C 260.876 99.691, 260.853 99.865, 261.691 99.921 C 262.346 99.964, 263.160 99.550, 263.500 99 C 264.500 97.382, 268.022 97.778, 267.386 99.437 C 267.068 100.264, 266.163 100.616, 265.253 100.267 C 264.287 99.896, 263.925 100.070, 264.323 100.714 C 265.204 102.139, 259.364 104.453, 255.609 104.167 C 250.988 103.815, 247 97.933, 247 91.469 C 247 90.102, 245.670 88.223, 243.567 86.619 C 240.094 83.970, 237.624 83.024, 239.762 85.162 C 240.644 86.044, 240.211 87.135, 237.962 89.696 C 236.333 91.552, 235 93.504, 235 94.035 C 235 95.694, 242.809 95.163, 243.774 93.439 C 244.460 92.213, 244.992 92.751, 246.244 95.939 C 247.516 99.176, 247.570 100, 246.513 100 C 245.653 100, 245.383 100.747, 245.743 102.126 C 246.103 103.501, 245.716 104.579, 244.650 105.176 C 243.742 105.684, 243 106.582, 243 107.172 C 243 107.905, 243.435 107.884, 244.370 107.108 C 245.488 106.180, 245.718 106.618, 245.620 109.496 C 245.538 111.904, 244.945 113.197, 243.750 113.578 C 242.787 113.884, 242 114.742, 242 115.484 C 242 116.226, 241.438 117.092, 240.750 117.407 C 240.063 117.723, 240.568 117.713, 241.874 117.384 C 243.179 117.056, 244.806 116.705, 245.489 116.605 C 247.039 116.377, 258.972 110.144, 261 108.502 C 261.825 107.834, 265.650 105.613, 269.500 103.566 C 279.888 98.043, 293.856 86.773, 293.973 83.819 C 293.988 83.445, 291.771 80.983, 289.046 78.348 C 284.507 73.959, 284.221 73.413, 285.633 71.853 C 288.468 68.720, 286.988 66.692, 283.531 68.970 M 185.807 72.750 C 185.088 73.713, 183.934 74.614, 183.243 74.752 C 181.492 75.104, 174.102 75.939, 170.500 76.192 C 168.850 76.308, 167.169 76.875, 166.765 77.451 C 166.297 78.119, 166.025 78.007, 166.015 77.143 C 166.006 76.350, 165.377 76.025, 164.500 76.362 C 163.675 76.678, 162.993 76.389, 162.985 75.719 C 162.973 74.797, 162.787 74.787, 162.220 75.678 C 161.380 76.999, 156.090 77.873, 145 78.523 C 140.875 78.764, 134.350 79.249, 130.500 79.599 C 126.650 79.950, 121.925 80.374, 120 80.543 C 118.075 80.711, 116.500 80.934, 116.500 81.037 C 116.500 81.707, 104.764 81.428, 104.344 80.748 C 104.057 80.283, 103.193 80.425, 102.424 81.063 C 100.859 82.362, 97.549 81.539, 98.453 80.076 C 98.772 79.560, 98.603 78.873, 98.079 78.549 C 97.539 78.215, 97.308 78.970, 97.547 80.285 C 97.921 82.350, 97.549 82.637, 94.234 82.844 C 92.180 82.972, 89.600 83.227, 88.500 83.410 C 87.400 83.593, 85.978 83.329, 85.339 82.823 C 84.612 82.247, 83.921 82.319, 83.490 83.017 C 83.018 83.780, 82.130 83.559, 80.668 82.315 C 78.970 80.871, 78.798 80.841, 79.824 82.171 C 80.954 83.635, 80.847 83.773, 78.955 83.278 C 77.664 82.940, 76.440 83.274, 75.913 84.107 C 75.428 84.873, 75.024 85.005, 75.015 84.399 C 75.002 83.443, 72.855 83.267, 68.250 83.843 C 66.371 84.079, 66.746 86, 68.671 86 C 69.590 86, 71.270 86.787, 72.404 87.750 C 74.367 89.417, 74.401 89.417, 73.110 87.750 C 71.871 86.150, 72.086 86.005, 75.628 86.063 C 78.956 86.118, 79.184 86.254, 77.250 87.031 C 74.895 87.978, 74.157 90, 76.167 90 C 76.808 90, 77.040 89.707, 76.682 89.348 C 76.323 88.990, 77.113 88.135, 78.437 87.448 C 81.329 85.948, 88.499 84.833, 89.409 85.742 C 90.510 86.844, 93 86.881, 93 85.795 C 93 85.229, 93.900 85.002, 95 85.290 C 96.145 85.589, 97.007 85.318, 97.015 84.656 C 97.026 83.856, 97.257 83.831, 97.765 84.573 C 99.175 86.632, 101.917 86.968, 102.955 85.208 C 103.837 83.714, 104.089 83.688, 104.966 85 C 105.858 86.333, 105.971 86.333, 105.985 85 C 105.997 83.842, 107.310 83.502, 111.750 83.507 C 114.913 83.510, 118.288 83.157, 119.250 82.722 C 120.530 82.142, 121 82.373, 121 83.581 C 121 84.769, 121.592 85.078, 123.107 84.682 C 124.266 84.379, 126.287 84.539, 127.598 85.037 C 128.909 85.536, 129.932 85.619, 129.872 85.222 C 129.431 82.302, 130.256 80.677, 131 83 L 131.801 85.500 132 83 L 132.199 80.500 133 83 L 133.801 85.500 133.982 83 C 134.160 80.528, 134.178 80.533, 135.536 83.500 C 136.405 85.398, 136.926 85.857, 136.955 84.750 C 136.980 83.787, 137.563 82.968, 138.250 82.930 C 138.938 82.891, 138.600 82.464, 137.500 81.982 C 135.841 81.254, 136.028 81.130, 138.604 81.254 C 141.176 81.378, 141.632 81.754, 141.267 83.452 C 140.938 84.983, 141.070 85.156, 141.792 84.137 C 142.608 82.986, 142.853 82.986, 143.370 84.137 C 143.706 84.887, 143.747 84.541, 143.461 83.368 C 143.142 82.063, 143.489 81.026, 144.357 80.693 C 145.363 80.307, 145.628 80.708, 145.270 82.075 C 144.984 83.169, 145.274 84, 145.942 84 C 146.589 84, 146.859 83.581, 146.543 83.069 C 146.226 82.557, 146.370 81.889, 146.862 81.585 C 147.354 81.281, 148.095 82.488, 148.509 84.266 C 149.023 86.476, 149.402 86.946, 149.704 85.750 C 149.948 84.787, 150.789 84, 151.573 84 C 152.358 84, 153.007 83.438, 153.015 82.750 C 153.025 81.976, 153.310 81.881, 153.765 82.500 C 155.033 84.225, 156.997 84.077, 157.070 82.250 C 157.135 80.643, 157.199 80.649, 157.859 82.324 C 158.255 83.327, 158.960 84.076, 159.427 83.989 C 159.894 83.901, 160.657 84.430, 161.123 85.165 C 161.811 86.251, 161.972 86.231, 161.985 85.059 C 161.996 84.021, 162.420 84.160, 163.502 85.559 C 164.970 87.455, 164.989 87.455, 164.329 85.576 C 163.800 84.071, 164.010 83.790, 165.297 84.284 C 166.207 84.633, 167.625 84.232, 168.471 83.386 C 169.373 82.484, 170 82.321, 170 82.988 C 170 83.609, 170.563 83.800, 171.250 83.412 C 172.250 82.848, 172.250 82.976, 171.250 84.053 C 170.563 84.794, 170 85.787, 170 86.259 C 170 86.731, 170.563 86.766, 171.250 86.335 C 171.938 85.905, 173.131 85.541, 173.902 85.526 C 175.664 85.493, 176.191 82.292, 174.883 79.569 C 173.913 77.548, 173.926 77.545, 175.445 79.441 C 176.300 80.509, 177 82.439, 177 83.731 C 177 85.689, 177.232 85.865, 178.395 84.789 C 179.162 84.080, 179.605 83.194, 179.379 82.819 C 179.152 82.445, 179.494 81.813, 180.138 81.415 C 180.869 80.963, 181.041 81.124, 180.595 81.845 C 180.201 82.483, 180.442 83, 181.132 83 C 181.844 83, 181.595 83.576, 180.554 84.337 C 179.548 85.073, 178.976 86.310, 179.283 87.087 C 179.695 88.128, 179.863 88.039, 179.921 86.750 C 179.964 85.787, 180.436 85, 180.969 85 C 181.501 85, 181.650 85.749, 181.299 86.664 C 180.869 87.783, 181.043 88.091, 181.830 87.605 C 182.474 87.207, 183 85.543, 183 83.906 C 183 81.226, 183.202 81.038, 185.028 82.015 C 186.143 82.612, 186.792 83.528, 186.469 84.050 C 186.146 84.573, 186.584 85, 187.441 85 C 188.298 85, 188.947 84.662, 188.882 84.250 C 188.816 83.838, 188.863 82.150, 188.984 80.500 L 189.205 77.500 190.022 80.975 C 190.472 82.887, 190.624 84.799, 190.361 85.225 C 190.097 85.651, 190.359 86, 190.941 86 C 191.523 86, 192 85.523, 192 84.941 C 192 84.359, 192.430 84.148, 192.956 84.473 C 193.482 84.798, 193.659 85.725, 193.349 86.532 C 193.040 87.339, 193.311 88, 193.952 88 C 194.593 88, 194.857 87.578, 194.538 87.061 C 194.219 86.545, 194.751 85.679, 195.721 85.136 C 196.690 84.594, 197.125 83.792, 196.687 83.354 C 196.249 82.916, 195.526 83.149, 195.080 83.871 C 194.507 84.798, 194.121 84.415, 193.768 82.568 C 193.493 81.129, 193.658 79.711, 194.134 79.417 C 194.610 79.123, 195 79.610, 195 80.500 C 195 81.392, 195.479 81.822, 196.067 81.458 C 196.665 81.089, 197.399 81.810, 197.735 83.096 C 198.301 85.260, 198.380 85.280, 199.098 83.446 C 199.758 81.759, 199.869 81.733, 199.930 83.250 C 199.968 84.213, 200.408 85, 200.906 85 C 201.405 85, 201.577 84.100, 201.290 83 C 201.002 81.900, 201.194 81, 201.717 81 C 202.239 81, 202.667 80.332, 202.667 79.516 C 202.667 78.313, 202.378 78.266, 201.141 79.266 C 200.062 80.139, 199.823 80.155, 200.324 79.319 C 200.714 78.670, 200.575 77.856, 200.016 77.510 C 199.457 77.165, 199.007 76.121, 199.015 75.191 C 199.029 73.734, 199.165 73.707, 200 75 C 200.818 76.265, 200.972 76.274, 200.985 75.059 C 200.998 73.810, 201.167 73.812, 202.250 75.071 C 202.938 75.870, 203.396 76.339, 203.268 76.113 C 203.141 75.888, 203.968 74.895, 205.107 73.907 C 207.162 72.125, 207.162 72.112, 205.158 72.263 C 204.047 72.347, 203.355 72.765, 203.619 73.193 C 203.883 73.620, 202.840 73.723, 201.300 73.421 C 199.760 73.119, 195.918 73.282, 192.763 73.783 C 186.594 74.762, 185.381 74.451, 187.131 72.342 C 187.744 71.604, 187.990 71, 187.679 71 C 187.368 71, 186.525 71.787, 185.807 72.750 M 50.667 85.667 C 50.300 86.033, 50 86.996, 50 87.806 C 50 88.617, 49.212 89.877, 48.250 90.608 C 46.609 91.854, 46.624 91.940, 48.500 92 C 50.415 92.061, 50.422 92.122, 48.678 93.445 C 46.916 94.781, 46.916 94.841, 48.678 95.297 C 50.266 95.708, 50.237 95.783, 48.450 95.884 C 47.323 95.948, 45.926 96.474, 45.346 97.054 C 44.766 97.634, 42.763 98.262, 40.896 98.449 L 37.500 98.789 41.245 97.145 C 43.305 96.240, 44.992 95.147, 44.995 94.715 C 44.998 94.283, 44.024 94.452, 42.831 95.090 C 41.638 95.729, 39.276 96.340, 37.581 96.449 C 35.887 96.558, 34.593 97.117, 34.706 97.692 C 34.894 98.643, 29.839 101.060, 18.209 105.582 C 15.848 106.500, 14.136 107.469, 14.403 107.737 C 14.671 108.004, 19.423 106.373, 24.965 104.111 C 36.036 99.594, 36.440 99.479, 35.405 101.155 C 34.959 101.876, 35.131 102.037, 35.862 101.585 C 36.506 101.187, 36.792 100.472, 36.498 99.996 C 36.203 99.520, 37.731 99.292, 39.893 99.490 C 42.163 99.698, 44.599 99.280, 45.661 98.501 C 47.218 97.360, 47.756 97.383, 49.167 98.656 C 50.490 99.850, 51.314 99.926, 53.167 99.025 C 55.330 97.972, 55.365 97.998, 53.650 99.378 C 52.529 100.280, 52.100 101.386, 52.560 102.183 C 52.978 102.908, 52.938 103.152, 52.469 102.726 C 52.001 102.300, 49.454 104.083, 46.809 106.688 C 44.164 109.293, 42 111.032, 42 110.552 C 42 110.071, 43.428 108.404, 45.173 106.846 C 46.918 105.287, 48.052 103.719, 47.693 103.360 C 47.335 103.001, 45.017 104.573, 42.543 106.854 C 40.069 109.134, 37.472 110.983, 36.772 110.962 C 36.073 110.942, 37.300 109.373, 39.500 107.477 C 41.850 105.452, 42.881 104.010, 42 103.983 C 40.853 103.947, 40.957 103.591, 42.441 102.468 C 43.509 101.661, 43.846 101, 43.191 101 C 42.536 101, 41.663 101, 41.250 101 C 40.837 101, 40.500 101.525, 40.500 102.167 C 40.500 102.808, 39.875 103.542, 39.111 103.796 C 38.172 104.109, 37.985 103.834, 38.532 102.948 C 38.978 102.227, 36.903 103.098, 33.921 104.884 C 30.939 106.669, 25.238 109.665, 21.250 111.540 C 17.263 113.415, 14 115.175, 14 115.450 C 14 116.132, 17.862 114.610, 23.904 111.549 C 29.390 108.769, 30.441 108.478, 29.500 110 C 28.635 111.400, 30.349 111.251, 31.800 109.800 C 32.460 109.140, 32.997 109.027, 32.994 109.550 C 32.990 110.072, 31.753 111.272, 30.244 112.215 C 28.735 113.159, 25.294 115.497, 22.597 117.412 L 17.694 120.894 21.973 120.502 C 24.605 120.262, 27.166 119.253, 28.623 117.885 C 31.470 115.210, 30.878 113.895, 28 116.500 C 26.893 117.502, 25.803 118.136, 25.577 117.911 C 25.352 117.685, 26.837 116.300, 28.877 114.834 C 32.261 112.402, 32.599 112.332, 32.728 114.045 C 32.909 116.440, 25.189 122.271, 22.693 121.625 C 21.597 121.341, 21.048 121.619, 21.299 122.329 C 22.887 126.836, 42.362 119.086, 52.346 109.973 C 62.106 101.065, 64.320 100, 73.081 100 C 77.371 100, 81.165 100.457, 81.510 101.016 C 81.856 101.575, 82.623 101.733, 83.215 101.367 C 83.928 100.926, 84.082 101.536, 83.671 103.174 C 83.102 105.443, 83.315 105.631, 86.275 105.465 C 88.867 105.319, 89.737 105.796, 90.705 107.892 C 91.368 109.326, 91.930 109.938, 91.955 109.250 C 91.980 108.563, 92.456 108, 93.013 108 C 93.606 108, 93.398 109.504, 92.513 111.622 C 91.681 113.614, 91.031 116.202, 91.070 117.372 C 91.108 118.542, 91.790 117.385, 92.586 114.799 C 94.367 109.009, 96.596 107.081, 95.712 112.095 C 95.189 115.063, 95.252 115.211, 96.209 113.250 C 97.744 110.102, 99.344 110.437, 98.595 113.750 C 98.039 116.204, 98.097 116.285, 99.134 114.500 C 99.772 113.400, 100.410 112.356, 100.551 112.180 C 100.872 111.779, 109.322 116.031, 110 116.936 C 110.275 117.303, 112.750 118.440, 115.500 119.463 C 118.250 120.486, 121.567 122.013, 122.871 122.856 C 124.175 123.699, 125.975 124.458, 126.871 124.542 C 129.589 124.797, 143.439 129.129, 144.372 130.015 C 144.851 130.471, 145.864 130.606, 146.622 130.315 C 147.380 130.024, 148 130.187, 148 130.677 C 148 131.167, 149.463 131.553, 151.250 131.534 C 153.037 131.515, 154.743 131.824, 155.040 132.219 C 155.544 132.890, 165.008 134.045, 173 134.411 C 174.925 134.499, 176.950 134.832, 177.500 135.151 C 178.050 135.470, 183.113 135.659, 188.750 135.570 C 194.674 135.477, 199 135.810, 199 136.360 C 199 136.882, 199.967 136.453, 201.150 135.405 L 203.299 133.500 202.610 136.334 C 202.157 138.195, 202.277 138.947, 202.960 138.525 C 203.532 138.171, 204 137.249, 204 136.476 C 204 135.703, 204.900 134.589, 206 134 C 207.596 133.146, 208 133.240, 208 134.465 C 208 135.309, 207.475 136, 206.833 136 C 206.192 136, 205.963 136.296, 206.325 136.658 C 206.687 137.020, 206.481 137.920, 205.869 138.658 C 205.115 139.566, 205.097 140, 205.813 140 C 206.395 140, 207.429 138.457, 208.111 136.571 C 209.626 132.380, 212.429 131.429, 215.173 134.173 C 217.196 136.196, 217.197 136.196, 216.558 134.183 C 216.206 133.075, 216.382 131.882, 216.948 131.532 C 217.560 131.154, 217.736 131.525, 217.382 132.448 C 217.054 133.302, 217.284 134, 217.893 134 C 218.502 134, 219 133.583, 219 133.073 C 219 132.564, 220.393 131.451, 222.096 130.602 C 224.763 129.272, 225.109 129.262, 224.596 130.529 C 224.268 131.338, 223.699 132.749, 223.330 133.664 C 222.877 134.790, 223.039 135.094, 223.830 134.605 C 224.474 134.207, 225 133.207, 225 132.382 C 225 131.557, 225.457 131.165, 226.016 131.510 C 226.575 131.856, 226.774 132.557, 226.457 133.069 C 226.141 133.581, 226.289 134, 226.786 134 C 227.938 134, 231.010 130.637, 230.968 129.421 C 230.951 128.915, 230.335 129.292, 229.600 130.261 C 228.474 131.745, 228.082 131.803, 227.111 130.633 C 225.685 128.916, 229.693 127.500, 231.570 129.058 C 232.408 129.753, 232.902 129.239, 233.297 127.263 C 233.688 125.309, 234.798 124.137, 237.074 123.278 C 239.802 122.249, 240.103 121.829, 239.035 120.542 C 237.616 118.833, 235.596 119.489, 236.644 121.319 C 237.016 121.969, 236.964 122.178, 236.529 121.785 C 236.093 121.392, 234.896 121.520, 233.869 122.070 C 232.298 122.911, 231.998 122.705, 231.985 120.785 C 231.972 118.943, 231.781 118.791, 231 120 C 230.135 121.338, 229.578 120.740, 229.870 118.786 C 229.928 118.393, 229.306 118.329, 228.488 118.643 C 227.670 118.957, 227 119.616, 227 120.107 C 227 120.598, 226.523 121, 225.941 121 C 225.359 121, 225.141 120.581, 225.457 120.069 C 225.774 119.557, 225.623 118.885, 225.123 118.576 C 224.623 118.267, 223.927 119.154, 223.577 120.548 C 223.211 122.008, 222.485 122.800, 221.864 122.416 C 221.114 121.952, 221.148 121.527, 221.977 121.014 C 222.847 120.476, 222.768 120.125, 221.682 119.708 C 220.675 119.322, 220.302 119.679, 220.522 120.819 C 220.701 121.744, 220.881 123.020, 220.923 123.656 C 220.966 124.304, 221.990 124.625, 223.250 124.386 C 225.321 123.993, 225.341 124.030, 223.500 124.854 C 222.295 125.393, 220.770 125.369, 219.662 124.792 C 215.084 122.409, 212.715 122.730, 213.444 125.634 C 214.042 128.015, 213.934 128.190, 212.563 127.052 C 210.740 125.539, 210.430 127.030, 212.200 128.800 C 213.133 129.733, 213.133 130, 212.200 130 C 211.540 130, 211 129.625, 211 129.167 C 211 128.708, 210.325 128.333, 209.500 128.333 C 208.675 128.333, 207.993 129.046, 207.985 129.917 C 207.971 131.304, 207.849 131.314, 207 130 C 206.244 128.830, 206.027 128.800, 206.015 129.867 C 206.006 130.739, 205.276 131.044, 203.999 130.710 C 202.740 130.381, 202.241 130.581, 202.654 131.249 C 203.096 131.964, 202.236 132.097, 200.030 131.656 C 198.226 131.295, 196.356 131, 195.875 131 C 195.394 131, 195 130.523, 195 129.941 C 195 129.359, 195.526 129.207, 196.170 129.605 C 196.944 130.084, 197.135 129.793, 196.733 128.747 C 196.387 127.846, 196.730 126.934, 197.531 126.626 C 199.151 126.005, 200.412 127.525, 199.500 129 C 199.160 129.550, 199.359 130, 199.941 130 C 201.193 130, 201.304 128.028, 200.155 126.216 C 199.681 125.470, 198.598 125.217, 197.569 125.612 C 196.511 126.018, 195.410 125.730, 194.834 124.896 C 194.148 123.903, 194.043 124.223, 194.471 126 C 195.058 128.438, 195.034 128.432, 193.505 125.750 C 192.080 123.251, 189.830 121.923, 190.118 123.750 C 190.659 127.176, 189.847 128.708, 187.620 128.464 C 185.678 128.251, 185.309 128.598, 185.616 130.351 C 185.822 131.533, 185.206 130.815, 184.246 128.755 C 183.286 126.695, 182.136 125.008, 181.691 125.005 C 181.246 125.002, 181.165 125.457, 181.510 126.016 C 182.193 127.121, 183.208 131.976, 182.770 132.038 C 182.621 132.059, 180.700 132.331, 178.500 132.642 C 176.300 132.954, 174.816 132.883, 175.202 132.485 C 176.058 131.604, 173.614 129, 171.932 129 C 171.266 129, 170.123 129.787, 169.392 130.750 C 168.510 131.912, 168.053 132.060, 168.032 131.191 C 168.014 130.471, 167.438 130.167, 166.750 130.515 C 166.063 130.863, 166.314 130.483, 167.310 129.670 C 168.459 128.732, 168.733 127.953, 168.060 127.537 C 167.477 127.177, 167 127.347, 167 127.916 C 167 128.602, 166.170 128.635, 164.535 128.013 C 162.861 127.377, 161.849 127.435, 161.381 128.193 C 161.001 128.807, 161.136 129.034, 161.679 128.698 C 162.222 128.363, 162.667 128.745, 162.667 129.548 C 162.667 130.756, 162.350 130.722, 160.833 129.349 C 159.129 127.807, 159 127.807, 159 129.345 C 159 130.255, 158.523 131, 157.941 131 C 157.359 131, 157.207 130.474, 157.605 129.830 C 158.100 129.029, 157.769 128.875, 156.553 129.341 C 155.185 129.866, 154.923 129.643, 155.412 128.370 C 155.880 127.150, 155.713 126.967, 154.773 127.671 C 153.607 128.544, 152.907 128.605, 149.281 128.152 C 148.599 128.067, 148.305 127.230, 148.613 126.250 C 149.071 124.792, 148.883 124.834, 147.484 126.500 C 145.857 128.439, 145.825 128.405, 146.454 125.377 C 146.916 123.155, 146.698 122.098, 145.699 121.715 C 144.714 121.337, 144.368 121.847, 144.541 123.421 C 144.688 124.761, 144.243 125.667, 143.438 125.667 C 142.695 125.667, 142.291 125.339, 142.538 124.938 C 143.291 123.720, 139.832 122.894, 138.525 123.979 C 137.663 124.695, 136.790 124.426, 135.558 123.064 C 134.598 122.003, 133.179 121.378, 132.406 121.674 C 131.557 122, 131 121.577, 131 120.607 C 131 118.701, 129.864 118.536, 128.200 120.200 C 127.267 121.133, 127 120.895, 127 119.129 C 127 117.147, 126.815 117.042, 125.554 118.304 C 122.431 121.426, 113.305 117.766, 114.340 113.807 C 114.719 112.357, 114.470 112.213, 112.968 113.017 C 110.284 114.454, 109.705 114.238, 110.285 112.017 C 110.725 110.334, 110.518 110.187, 108.911 111.048 C 105.197 113.035, 98.963 108.239, 102.609 106.199 C 103.949 105.449, 103.604 104.919, 100.557 103.035 C 98.543 101.790, 96.622 101.044, 96.289 101.377 C 95.956 101.710, 95.193 101.600, 94.592 101.132 C 92.203 99.271, 87.045 98.953, 87.718 100.707 C 88.160 101.859, 87.701 101.701, 86.174 100.174 C 84.194 98.194, 82.751 97.577, 80.786 97.870 C 80.393 97.928, 80.333 97.295, 80.653 96.462 C 81.109 95.273, 81.539 95.202, 82.659 96.132 C 83.759 97.045, 84.361 97.037, 85.292 96.098 C 86.239 95.144, 86.068 95.043, 84.500 95.628 C 82.714 96.295, 82.649 96.192, 83.891 94.664 C 85.094 93.186, 85.078 93.033, 83.773 93.534 C 82.771 93.918, 82.050 93.336, 81.631 91.807 C 81.143 90.021, 80.799 89.811, 80.112 90.878 C 79.623 91.636, 78.754 91.966, 78.181 91.612 C 77.607 91.257, 76.856 91.425, 76.510 91.984 C 75.528 93.572, 74 93.176, 74 91.333 C 74 89.501, 72.720 90.302, 72.423 92.321 C 72.322 93.015, 73.310 93.672, 74.619 93.781 C 75.929 93.889, 77 93.575, 77 93.082 C 77 92.590, 77.918 92.427, 79.041 92.721 C 82.372 93.592, 80.636 95.505, 76.677 95.326 C 74.665 95.236, 72.775 95.555, 72.477 96.037 C 72.179 96.519, 71.353 96.689, 70.640 96.416 C 69.928 96.142, 68.199 96.354, 66.799 96.886 C 65.022 97.562, 63.870 97.499, 62.980 96.677 C 62.083 95.848, 61.896 95.839, 62.348 96.645 C 62.700 97.275, 62.279 98.063, 61.412 98.395 C 58.952 99.339, 57.814 99.110, 58.605 97.830 C 59.100 97.029, 58.769 96.875, 57.553 97.341 C 56.244 97.844, 55.927 97.633, 56.346 96.540 C 56.659 95.725, 56.291 93.357, 55.528 91.279 C 54.765 89.200, 54.109 88.342, 54.070 89.372 C 54.012 90.934, 53.747 91.035, 52.477 89.981 C 51.598 89.252, 51.204 87.932, 51.545 86.859 C 52.153 84.942, 51.830 84.503, 50.667 85.667" stroke="none" fill="#1a1a2e" fill-rule="evenodd"/>
</svg>