<svg xmlns="http://www.w3.org/2000/svg" width="400" height="270" viewBox="0 0 400 270" version="1.1">
	<path d="M 0 134.997 L 0 270 131.521 270 L 263.043 270 264.129 267.250 C 264.726 265.738, 265.617 263.719, 266.108 262.764 C 266.598 261.809, 267 260.169, 267 259.121 C 267 255.664, 272.965 254.198, 275.524 257.026 C 277.699 259.430, 279.798 259.682, 277.872 257.308 C 276.940 256.158, 276.901 255.857, 277.750 256.367 C 278.572 256.861, 279 256.478, 279 255.247 C 279 253.348, 282.703 244.915, 283.939 244 C 284.310 243.725, 285.223 241.925, 285.967 240 C 287.573 235.847, 289.573 233.348, 288.530 236.798 C 288.148 238.062, 288.257 239.637, 288.772 240.298 C 291.031 243.194, 291.792 247.740, 290.701 251.827 C 289.486 256.377, 290.152 257.949, 292.476 256.020 C 293.735 254.975, 294 255.037, 294 256.378 C 294 257.270, 294.477 258, 295.059 258 C 295.641 258, 295.840 257.550, 295.500 257 C 295.160 256.450, 295.359 256, 295.941 256 C 296.523 256, 297 257.548, 297 259.441 C 297 261.334, 297.468 263.171, 298.041 263.525 C 298.613 263.879, 298.825 264.977, 298.511 265.966 C 297.846 268.060, 299.828 269.119, 302.904 268.315 C 305.128 267.733, 305.762 264.589, 303.888 263.431 C 303.277 263.053, 302.338 263.364, 301.801 264.122 C 301.084 265.135, 300.959 264.899, 301.325 263.228 C 301.600 261.978, 301.225 259.728, 300.493 258.228 C 297.157 251.395, 298.185 245.310, 303 243.383 C 305.200 242.503, 307 241.366, 307 240.856 C 307 240.344, 307.918 240.421, 309.055 241.030 C 312.054 242.635, 313.219 241.860, 314.453 237.441 C 315.343 234.252, 316.064 233.440, 318.233 233.188 C 320.399 232.935, 321.427 231.784, 323.587 227.188 C 325.057 224.059, 326.764 221.175, 327.380 220.778 C 327.996 220.382, 329.141 219.632, 329.924 219.112 C 330.849 218.498, 331.446 215.938, 331.630 211.800 C 332.204 198.868, 338.631 189.895, 339.625 200.638 C 339.872 203.312, 340.237 206.694, 340.435 208.154 C 340.633 209.613, 339.999 212.117, 339.025 213.718 C 336.671 217.590, 340.350 222, 345.935 222 C 348.857 222, 353.084 217.745, 351.947 215.949 C 348.402 210.345, 352.025 208.033, 356.600 212.978 C 361.599 218.381, 368 217.512, 368 211.431 C 368 208.387, 362.610 204.669, 361.786 207.143 C 361.051 209.346, 357.183 206.119, 353.823 200.501 C 352.019 197.485, 350.083 195.067, 349.522 195.127 C 343.069 195.821, 342.406 192.018, 348.072 186.806 C 349.682 185.325, 351 183.224, 351 182.138 C 351 175.837, 354.091 175.400, 355.877 181.448 C 356.599 183.895, 357.485 186.032, 357.845 186.198 C 359.542 186.980, 363 193.193, 363 195.460 C 363 196.857, 363.450 198, 364 198 C 364.920 198, 365.408 196.583, 365.118 194.750 C 365.053 194.338, 365.860 194, 366.911 194 C 369.969 194, 375.269 201.242, 373.750 203.346 C 373.613 203.537, 374.118 204.437, 374.872 205.346 C 376.532 207.346, 379 207.521, 379 205.639 C 379 200.206, 386.297 208.078, 387.214 214.500 C 387.657 217.597, 389.785 219.300, 392.286 218.556 C 393.504 218.195, 395.730 217.670, 397.233 217.392 L 399.967 216.885 400.251 243.193 C 400.407 257.662, 400.639 208.863, 400.767 134.750 L 401 0 391.685 -0 L 382.369 -0 382.589 4.250 C 382.722 6.837, 382.238 9.141, 381.351 10.138 C 380.066 11.581, 380.124 12.156, 381.836 14.971 C 383.008 16.898, 384.049 17.730, 384.459 17.067 C 384.832 16.462, 385.579 16.240, 386.118 16.573 C 386.738 16.956, 386.681 17.680, 385.962 18.545 C 384.518 20.286, 385.553 22, 388.049 22 C 389.885 22, 389.895 22.099, 388.268 24 C 387.326 25.100, 386.029 26, 385.385 26 C 384.741 26, 383.955 26.675, 383.638 27.500 C 383.322 28.325, 382.175 29, 381.090 29 C 380.006 29, 378.861 29.415, 378.548 29.923 C 378.234 30.431, 376.632 31.142, 374.989 31.503 C 373.345 31.864, 372 32.573, 372 33.079 C 372 34.362, 382.691 34.236, 385.141 32.924 C 386.967 31.948, 387.049 32.039, 386.041 33.924 C 385.430 35.066, 384.418 36, 383.794 36 C 383.169 36, 381.815 36.762, 380.786 37.694 C 379.014 39.297, 378.884 39.271, 378.340 37.194 C 377.747 34.923, 375.582 34.250, 374.500 36 C 374.160 36.550, 369.859 37, 364.941 37 L 356 37 356 33.191 C 356 31.096, 356.611 28.546, 357.358 27.525 C 358.514 25.944, 358.478 25.252, 357.110 22.868 C 354.812 18.865, 357.258 16.489, 363.402 16.757 C 368.129 16.962, 369.448 16.047, 370.508 11.825 C 371.346 8.486, 367.019 4.910, 364.584 6.930 C 362.719 8.478, 361.242 6.317, 363.034 4.663 C 363.999 3.772, 364.129 3.792, 363.588 4.750 C 363.200 5.437, 363.359 6, 363.941 6 C 365.115 6, 365.322 4.003, 364.397 1.593 C 363.852 0.173, 346.300 0.021, 181.897 0.008 L 0 -0.006 0 134.997 M 245.577 109.523 C 244.667 110.911, 244.053 112.824, 244.212 113.773 C 244.397 114.886, 243.967 115.367, 243 115.126 C 242.175 114.921, 239.925 114.356, 238 113.870 C 236.075 113.385, 231.575 113.024, 228 113.070 C 224.425 113.115, 221.050 113.054, 220.500 112.934 C 217.800 112.346, 208.001 112.594, 208.001 113.250 C 208 113.662, 206.537 113.993, 204.750 113.985 C 202.590 113.975, 201.947 113.686, 202.834 113.124 C 203.930 112.429, 203.914 112.181, 202.743 111.732 C 200.856 111.007, 198.564 112.485, 199.422 113.873 C 200.219 115.163, 194.079 114.264, 192.550 112.868 C 191.109 111.552, 190 111.826, 190 113.500 C 190 114.325, 189.325 115, 188.500 115 C 186.923 115, 186.519 116.186, 187.696 117.362 C 189.006 118.672, 188.824 121, 187.412 121 C 186.635 121, 186 121.723, 186 122.607 C 186 123.635, 186.548 124.004, 187.523 123.629 C 189.240 122.971, 187.898 126.327, 185.968 127.520 C 185.407 127.867, 185.045 129.605, 185.165 131.384 C 185.475 135.981, 181.642 139.891, 179.090 137.581 C 176.823 135.529, 175.028 135.579, 173.451 137.737 C 172.245 139.386, 172.084 139.386, 170.262 137.737 C 168.233 135.901, 164 135.356, 164 136.930 C 164 137.442, 163.023 138.005, 161.828 138.180 C 156.713 138.933, 159.389 140.499, 165.750 140.475 C 169.462 140.460, 177.900 140.812, 184.500 141.255 C 191.100 141.698, 197.498 142.103, 198.718 142.155 C 202.203 142.304, 199.787 145.630, 195.628 146.410 C 193.743 146.764, 190.919 147.693, 189.351 148.475 C 184.312 150.988, 178 151.560, 178 149.503 C 178 148.109, 178.584 147.867, 180.851 148.320 C 184.111 148.972, 188 148.190, 188 146.883 C 188 146.398, 186.762 145.980, 185.250 145.956 C 183.738 145.932, 180.250 145.305, 177.500 144.564 C 172.198 143.135, 169.844 143.903, 171.907 146.388 C 173.289 148.053, 169.956 150.581, 167.581 149.670 C 166.887 149.403, 165.684 149.587, 164.909 150.077 C 163.809 150.774, 163.939 150.974, 165.500 150.991 C 166.600 151.003, 168.846 151.714, 170.491 152.572 C 172.360 153.546, 174.667 153.910, 176.639 153.540 C 179.273 153.046, 180.322 153.476, 182.988 156.142 C 186.530 159.684, 186.924 159.646, 198 154.687 C 200.475 153.579, 202.777 152.726, 203.116 152.792 C 204.866 153.130, 239.473 150.905, 245.500 150.067 C 249.350 149.531, 255.200 148.830, 258.500 148.508 L 264.500 147.922 261.830 149.728 C 258.529 151.962, 254 156.776, 254 158.052 C 254 159.807, 255.750 159.022, 261.856 154.527 C 270.837 147.916, 278.239 145.156, 290.244 143.943 C 295.885 143.374, 302.174 142.465, 304.219 141.924 C 308.079 140.902, 318.259 139.351, 343 136.013 C 350.975 134.937, 359.127 133.594, 361.116 133.029 C 363.105 132.463, 365.706 132, 366.897 132 C 369.415 132, 370.783 129.383, 369.129 127.729 C 368.100 126.700, 350.657 126.560, 343 127.520 C 341.625 127.692, 339.938 127.871, 339.250 127.917 C 338.563 127.963, 337.986 129.012, 337.968 130.250 C 337.938 132.420, 337.886 132.433, 336.500 130.603 C 335.710 129.559, 335.329 128.277, 335.653 127.753 C 336.025 127.150, 335.554 127.149, 334.371 127.750 C 331.573 129.169, 318.012 128.637, 317.043 127.070 C 316.395 126.021, 316.151 126.034, 315.767 127.137 C 315.381 128.246, 314.939 128.202, 313.396 126.902 C 310.498 124.459, 309.566 124.249, 280.588 119.492 C 265.690 117.046, 252.028 114.787, 250.228 114.473 C 247.300 113.961, 247.116 113.741, 248.476 112.381 C 249.617 111.240, 249.738 110.380, 248.963 108.931 C 247.651 106.479, 247.561 106.494, 245.577 109.523 M 377 238.800 C 377 240.089, 376.379 241, 375.500 241 C 374.675 241, 374 240.550, 374 240 C 374 239.450, 373.501 239, 372.892 239 C 372.200 239, 372.026 239.968, 372.429 241.574 C 372.867 243.319, 372.258 245.876, 370.538 249.512 C 369.142 252.462, 368 255.772, 368 256.867 C 368 257.961, 367.294 259.563, 366.432 260.426 C 363.492 263.365, 368.373 269.945, 372.359 268.416 C 373.271 268.066, 374 268.278, 374 268.893 C 374 269.635, 377.625 270, 385 270 L 396 270 396 266.434 C 396 264.473, 396.505 261.925, 397.123 260.771 C 400.974 253.574, 392.930 239, 385.105 239 C 381.967 239, 378.860 238.460, 378.200 237.800 C 377.267 236.867, 377 237.089, 377 238.800" stroke="none" fill="#1a1a2e" fill-rule="evenodd"/>
</svg>