<svg xmlns="http://www.w3.org/2000/svg" width="400" height="261" viewBox="0 0 400 261" version="1.1">
	<path d="M -0 88.071 C -0 179.544, -0.023 179, 3.806 179 C 6.057 179, 7.074 181.747, 5.022 182.284 C 3.911 182.575, 2.750 182.404, 2.442 181.906 C 0.482 178.735, 0.098 184.769, 0.048 219.500 C -0.007 256.990, 0.043 258, 1.937 258 C 3.007 258, 4.160 258.450, 4.500 259 C 4.840 259.550, 5.577 260, 6.138 260 C 7.598 260, 6.075 253.685, 4.378 252.700 C 2.029 251.337, 2.830 250.057, 7.426 247.824 C 11.613 245.790, 11.990 245.763, 14.391 247.337 C 18.057 249.739, 37.519 249.745, 40.171 247.345 C 41.623 246.031, 42 245.980, 41.999 247.095 C 41.998 248.195, 44.009 248.518, 51.249 248.582 C 56.337 248.627, 65.403 249.033, 71.396 249.483 L 82.292 250.302 80.396 247.008 C 79.353 245.197, 76.366 241.416, 73.758 238.607 C 67.999 232.404, 67.879 231.693, 72.886 233.460 C 79.387 235.754, 82.513 237.701, 87.907 242.819 C 90.749 245.515, 92.937 247.446, 92.770 247.110 C 92.603 246.775, 91.425 244.390, 90.152 241.812 C 88.879 239.233, 86.749 236.411, 85.419 235.539 C 84.089 234.667, 83 233.551, 83 233.058 C 83 231.962, 89.941 233.752, 91.904 235.354 C 92.676 235.984, 93.471 236.275, 93.670 236 C 93.870 235.725, 96.276 237.669, 99.017 240.319 C 101.757 242.970, 104 244.651, 104 244.054 C 104 242.719, 98.219 232.151, 96.172 229.744 C 93.892 227.062, 95.352 226.685, 99.208 228.960 L 102.669 231.002 107.318 227.380 C 112.568 223.290, 112.537 222.007, 107.191 221.985 C 104.881 221.975, 103.984 221.663, 104.793 221.149 C 105.504 220.698, 107.754 220.622, 109.793 220.980 C 112.740 221.498, 114.605 221.054, 118.891 218.816 C 121.856 217.267, 125.317 216, 126.582 216 C 127.847 216, 129.124 215.609, 129.419 215.130 C 129.723 214.640, 131.818 214.657, 134.228 215.170 C 140.052 216.410, 145.405 216.525, 152.348 215.559 C 159.492 214.565, 160.627 217.720, 153.739 219.426 C 150.042 220.342, 148.599 222, 151.500 222 C 152.325 222, 153 222.402, 153 222.893 C 153 224.289, 150.271 225, 144.918 225 C 142.213 225, 140 225.439, 140 225.975 C 140 226.525, 138.692 226.688, 137 226.350 C 135.350 226.020, 134 226.144, 134 226.625 C 134 227.106, 129.148 227.570, 123.218 227.655 C 113.988 227.788, 111.885 228.135, 108.603 230.072 L 104.769 232.334 110.497 237.794 C 113.647 240.797, 116.512 242.827, 116.862 242.304 C 117.809 240.893, 121 239.912, 121 241.031 C 121 241.564, 120.438 242.035, 119.750 242.078 C 119.063 242.120, 120.525 242.908, 123 243.828 C 133.045 247.561, 135.155 252, 126.883 252 C 125.273 252, 125.531 252.528, 128.358 255.010 C 130.718 257.081, 132.365 257.811, 133.643 257.350 C 136.242 256.414, 135.023 257.586, 131.473 259.437 C 128.755 260.855, 133.322 260.988, 184.719 260.994 C 234.282 260.999, 240.869 260.822, 240.362 259.500 C 239.586 257.478, 244.171 257.498, 250.172 259.543 C 253.213 260.579, 257.457 260.990, 263.100 260.793 L 271.500 260.500 264.645 258.250 C 260.874 257.012, 255.947 256, 253.695 256 C 243.822 256, 252.264 253.639, 262.912 253.422 C 268.939 253.299, 274.236 252.976, 274.685 252.704 C 276.127 251.830, 287.067 253.998, 289.605 255.661 C 293.028 257.903, 292.186 258.161, 286.766 256.530 C 280.906 254.767, 267.988 253.450, 268.036 254.621 C 268.056 255.104, 269.729 256.757, 271.754 258.294 L 275.434 261.087 319.635 260.794 C 343.945 260.632, 364.120 260.215, 364.469 259.866 C 364.817 259.517, 365.193 258.050, 365.304 256.607 C 365.683 251.679, 375.259 245.415, 378.905 247.710 C 380.655 248.812, 381.573 259, 379.922 259 C 379.415 259, 379 259.450, 379 260 C 379 260.602, 383.130 261, 389.389 261 L 399.777 261 400.393 257.719 C 401.346 252.639, 401.004 181.502, 400.010 178.036 C 399.468 176.145, 399.489 175.184, 400.064 175.540 C 400.643 175.897, 401 142.478, 401 88.059 L 401 0 331.087 0 L 261.175 0 258.450 7.250 C 253.982 19.137, 252.811 21.590, 252.280 20.174 C 251.593 18.343, 253.840 10.460, 256.675 4.750 L 259.034 -0 129.517 -0 L 0 0 -0 88.071 M 184.502 9.500 C 197.592 30.084, 200.087 34.487, 196.800 31.200 C 194.464 28.864, 194.094 30.046, 196.098 33.442 C 200.163 40.331, 207.805 45.742, 209.530 42.952 C 209.886 42.376, 210.933 42.032, 211.857 42.189 C 218.279 43.277, 228.946 34.192, 239.963 18.249 C 247.932 6.717, 247.600 6.035, 238.626 15.500 C 232.907 21.531, 230.077 23.903, 230.046 22.691 C 229.978 20.010, 228.347 21.514, 227.674 24.880 C 227.227 27.116, 225.788 28.546, 221.545 30.974 C 217.745 33.148, 216 34.772, 216 36.132 C 216 37.225, 215.550 37.840, 215 37.500 C 213.277 36.435, 213.909 31.896, 216.021 30.160 C 218.159 28.404, 218.176 28.556, 214.771 18.852 C 213.836 16.186, 208.563 14.281, 207.387 16.183 C 207.098 16.650, 206.490 16.803, 206.035 16.522 C 204.781 15.747, 204.202 24.184, 205.333 26.754 C 208.333 33.572, 204.523 30.418, 188.047 12.448 C 185.048 9.176, 183.453 7.850, 184.502 9.500 M 249.016 12.967 C 247.738 15.695, 246.424 17.763, 246.096 17.563 C 245.768 17.362, 243.933 19.515, 242.017 22.349 C 236.786 30.086, 231.756 35.967, 230.849 35.406 C 229.433 34.532, 225.925 37.042, 226.218 38.721 C 226.382 39.662, 224.623 41.774, 222 43.783 C 219.525 45.679, 217.355 47.853, 217.177 48.615 C 216.614 51.027, 215.279 50.117, 214.441 46.750 L 213.633 43.500 213.256 47.250 C 212.899 50.800, 211 52.695, 211 49.500 C 211 48.675, 210.127 48, 209.059 48 C 207.991 48, 206.858 47.580, 206.541 47.066 C 206.223 46.552, 203.384 45.382, 200.232 44.466 C 193.726 42.576, 187.153 38.200, 178.634 30.086 C 172.146 23.907, 172.476 25.913, 179.210 33.579 C 185.258 40.466, 186.832 42.584, 185.150 41.571 C 182.198 39.794, 185.975 44.738, 190.198 48.179 C 198.874 55.248, 211 59.759, 211 55.917 C 211 55.413, 210.127 55, 209.059 55 C 207.991 55, 206.905 54.655, 206.644 54.233 C 206.384 53.812, 208.720 53.451, 211.835 53.432 C 215.214 53.411, 218.812 52.702, 220.750 51.673 C 224.382 49.746, 225.058 50.733, 222 53.500 C 219.605 55.667, 219.085 60.004, 221.456 58.036 C 222.257 57.372, 223.382 57.118, 223.956 57.473 C 224.565 57.849, 225.006 57.156, 225.015 55.809 C 225.039 52.276, 226.447 50.690, 228.875 51.460 C 231.331 52.240, 231.692 50.819, 229.500 49 C 228.584 48.240, 227.495 48.095, 226.703 48.628 C 225.989 49.107, 226.148 48.806, 227.056 47.959 C 227.964 47.111, 229.238 45.423, 229.888 44.209 C 230.538 42.994, 231.516 42, 232.061 42 C 232.606 42, 232.377 43.305, 231.552 44.900 C 230.144 47.623, 230.167 47.769, 231.935 47.307 C 233.188 46.979, 233.976 47.430, 234.293 48.657 C 234.656 50.066, 234.795 49.932, 234.884 48.088 C 235.079 44.043, 240.395 35.857, 240.787 39 C 241.440 44.242, 241.996 44.481, 244.699 40.683 C 246.140 38.658, 247.949 37, 248.719 37 C 249.488 37, 249.818 36.515, 249.452 35.922 C 247.876 33.372, 248.262 21.324, 250.119 15.098 C 252.474 7.205, 252.075 6.435, 249.016 12.967 M 283.194 33.712 C 281.509 36.345, 278.790 41.210, 277.151 44.521 C 275.251 48.360, 272.378 52.055, 269.222 54.715 C 263.941 59.169, 261.561 65.561, 264.062 68.575 C 265.104 69.830, 260.449 75.782, 259.313 74.646 C 257.041 72.375, 257.274 62.507, 259.674 59.361 C 264.254 53.356, 261.517 54.760, 256.057 61.218 C 251.149 67.020, 250.823 67.735, 251.269 71.690 C 251.709 75.594, 251.596 75.854, 249.873 74.932 C 248.843 74.381, 247.986 73.383, 247.970 72.715 C 247.952 72.025, 247.532 72.196, 246.997 73.112 C 246.479 73.999, 244.130 75.230, 241.777 75.848 C 232.660 78.242, 220.364 81.084, 217.500 81.459 C 215.850 81.675, 213.225 82.338, 211.666 82.933 C 210.107 83.528, 208.420 83.760, 207.916 83.448 C 207.412 83.137, 207 83.296, 207 83.802 C 207 84.308, 205.421 84.596, 203.492 84.443 C 201.562 84.290, 200.169 84.465, 200.396 84.832 C 200.623 85.200, 199.614 85.575, 198.154 85.667 C 194.835 85.875, 192 83.423, 192 80.345 C 192 79.055, 191.550 78, 191 78 C 190.450 78, 190 77.534, 190 76.965 C 190 75.447, 193.832 77.706, 196.613 80.863 C 197.891 82.313, 198.951 82.993, 198.968 82.372 C 198.986 81.752, 198.325 80.685, 197.500 80 C 196.675 79.315, 196 78.282, 196 77.703 C 196 77.125, 197.125 77.708, 198.500 79 C 199.875 80.292, 201 80.890, 201 80.329 C 201 78.557, 197.438 76.001, 194.921 75.968 C 193.590 75.951, 191.626 75.276, 190.559 74.468 C 188.787 73.128, 189.173 73, 194.994 73 C 200.165 73, 201.809 73.411, 203.686 75.174 C 205.999 77.347, 207.054 76.454, 204.817 74.217 C 202.454 71.854, 205.078 71.725, 207.595 74.079 L 210.181 76.500 208.466 73.500 C 207.018 70.968, 206.107 70.483, 202.625 70.393 C 192.182 70.121, 183.657 69.006, 182.147 67.714 C 178.815 64.862, 177.701 64.573, 178.935 66.879 C 180.737 70.245, 172.279 69.947, 168.182 66.500 C 164.602 63.487, 163.565 63.318, 164.989 65.980 C 165.966 67.805, 165.792 67.917, 162.774 67.408 C 159.669 66.885, 159.600 66.938, 161.441 68.428 C 162.509 69.293, 163.987 70, 164.727 70 C 166.182 70, 170 77.989, 170 81.036 C 170 82.064, 170.523 84.054, 171.162 85.457 C 172.887 89.241, 171.725 89.515, 164.851 86.944 C 161.434 85.666, 159.201 84.433, 159.889 84.204 C 160.713 83.929, 160.411 83.276, 159.005 82.291 C 155.690 79.969, 155.503 81.476, 158.475 86.547 C 161.067 90.971, 164.238 94.443, 165.782 94.549 C 167.790 94.687, 171.646 96.503, 175.615 99.182 L 180.042 102.170 198.085 102.380 C 208.138 102.497, 216.432 103.013, 216.814 103.545 C 217.191 104.070, 218.175 104.584, 219 104.687 C 219.825 104.790, 223.425 106.004, 227 107.385 C 232.894 109.662, 233.001 110.821, 227.250 110.075 C 226.563 109.985, 226 110.336, 226 110.853 C 226 111.370, 228.137 111.845, 230.750 111.908 C 237.455 112.070, 241.232 112.527, 243.202 113.412 C 244.138 113.833, 245.376 113.886, 245.952 113.530 C 246.528 113.173, 247 113.541, 247 114.347 C 247 115.320, 247.672 115.637, 249 115.290 C 250.100 115.002, 251 114.383, 251 113.915 C 251 113.446, 251.681 113.324, 252.513 113.643 C 253.345 113.963, 254.655 113.702, 255.424 113.063 C 256.480 112.186, 256.996 112.185, 257.536 113.058 C 258.071 113.924, 258.427 113.927, 258.958 113.068 C 259.456 112.262, 260.433 112.214, 262.254 112.906 C 264.471 113.749, 265.071 113.540, 266.444 111.445 C 268.571 108.199, 269.396 108.360, 270.554 112.250 C 271.086 114.037, 272.088 115.384, 272.781 115.243 C 273.654 115.065, 273.848 115.757, 273.412 117.493 C 272.746 120.146, 278.216 121.355, 280.550 119.070 C 282.150 117.504, 289.988 115.172, 290.557 116.093 C 291.657 117.872, 297.403 113.227, 297.474 110.500 C 297.488 109.950, 298.132 109.500, 298.905 109.500 C 300.233 109.500, 301 111.335, 301.297 115.225 C 301.416 116.781, 301.647 116.806, 303.679 115.475 C 306.294 113.762, 307.378 113.579, 306.500 115 C 306.160 115.550, 306.373 116, 306.972 116 C 307.572 116, 308.322 115.325, 308.638 114.500 C 309.607 111.975, 312.919 112.819, 314.915 116.100 C 315.952 117.805, 318.288 120.105, 320.108 121.212 C 323.304 123.155, 323.349 123.272, 321.458 124.678 C 318.811 126.644, 324.344 125.483, 327.750 123.358 C 334.422 119.194, 300.437 88.920, 282.414 82.971 C 278.518 81.686, 278.375 81.349, 280.655 78.829 C 282.628 76.648, 281.298 76.460, 278.559 78.532 C 275.045 81.189, 271.328 80.072, 274.183 77.217 C 274.834 76.566, 275.010 75.688, 274.574 75.267 C 274.138 74.845, 273.101 75.513, 272.269 76.750 C 271.144 78.423, 269.782 79, 266.960 79 C 258.953 79, 259.087 77.870, 268.260 68 C 269.537 66.625, 271.608 63.250, 272.860 60.500 C 277.147 51.088, 286.316 37, 288.156 37 C 288.592 37, 289.687 35.538, 290.588 33.750 L 292.228 30.500 288.114 34.453 C 283.517 38.870, 283.347 38.808, 285.559 33.514 C 287.820 28.103, 286.724 28.194, 283.194 33.712 M 139.081 131.223 C 137.200 131.730, 134.804 131.921, 133.756 131.646 C 131.814 131.139, 121.327 135.179, 116.929 138.130 C 114.826 139.542, 115.507 139.505, 122 137.861 C 127.291 136.522, 131.120 136.147, 135 136.590 C 142.297 137.422, 144.325 138.550, 140.168 139.463 C 136.959 140.168, 136.009 141.503, 138.197 142.232 C 138.855 142.452, 137.191 143.697, 134.500 145 C 128.041 148.127, 130.142 148.656, 138.142 145.918 C 152.596 140.970, 156.205 141.502, 151.003 147.812 C 147.735 151.777, 148.251 152.870, 153.500 153.102 C 155.462 153.188, 154.596 153.552, 151 154.153 C 146.407 154.921, 144.394 154.718, 138.789 152.923 C 133.588 151.258, 130.587 150.895, 125.448 151.312 C 118.751 151.855, 115.628 152.904, 120.083 153.114 C 127.270 153.453, 136.620 155.576, 137.549 157.079 C 139.030 159.475, 131.238 161.148, 125.847 159.590 L 120.500 158.046 122.861 160.023 C 124.700 161.564, 124.866 162.018, 123.611 162.083 C 118.029 162.372, 115.221 162.254, 114.314 161.694 C 113.745 161.342, 113.034 161.300, 112.734 161.599 C 112.434 161.899, 109.488 162.317, 106.186 162.528 C 102.483 162.765, 96.775 164.244, 91.288 166.387 C 86.396 168.299, 81.175 170.169, 79.687 170.542 C 74.647 171.807, 75.345 173.356, 80.671 172.725 C 83.412 172.401, 87.645 172.573, 90.078 173.107 C 97.675 174.778, 110.962 179.129, 111.595 180.154 C 112.810 182.119, 111.167 182.031, 107.626 179.942 C 105.632 178.765, 104 178.061, 104 178.376 C 104 178.692, 102.875 178.523, 101.500 178 C 99.052 177.069, 97.912 178.210, 100 179.500 C 101.407 180.370, 101.245 181.996, 99.750 182.019 C 99.063 182.029, 95.529 183.543, 91.898 185.384 C 85.335 188.710, 85.238 188.726, 75.398 188.043 C 60.487 187.009, 57.948 188.443, 70.233 190.961 C 78.302 192.615, 78.153 195.551, 69.812 199.243 C 68.265 199.928, 67 200.792, 67 201.162 C 67 201.533, 66.725 202.553, 66.389 203.430 C 65.682 205.272, 66.687 205.028, 74.500 201.458 C 84.679 196.806, 89.004 196.350, 97.115 199.075 C 106.636 202.272, 106.584 202.978, 96.497 207.473 C 89.799 210.457, 86.860 212.466, 82.970 216.723 C 77.544 222.660, 76.395 225.411, 80.750 222.036 C 89.339 215.381, 91.348 214.097, 92.279 214.673 C 92.846 215.023, 93.017 214.837, 92.661 214.260 C 92.293 213.665, 93.846 212.429, 96.256 211.399 C 98.590 210.401, 101.287 209.243, 102.250 208.825 C 103.656 208.214, 104 208.562, 104 210.591 C 104 212.148, 103.585 212.861, 102.919 212.450 C 101.828 211.776, 96 216.643, 96 218.229 C 96 218.699, 95.063 220.077, 93.918 221.292 C 92.773 222.506, 91.350 224.400, 90.755 225.500 C 89.498 227.824, 90.498 227.173, 97.253 221.276 C 99.317 219.474, 101.679 218, 102.503 218 C 103.326 218, 104 217.424, 104 216.719 C 104 216.015, 105.237 214.908, 106.750 214.260 C 111.241 212.335, 119.481 209.002, 119.750 209.001 C 120.570 208.998, 119.793 212.818, 118.750 213.914 C 117.966 214.738, 118.724 214.610, 120.784 213.571 C 122.869 212.519, 123.964 211.291, 123.784 210.207 C 123.550 208.798, 124.198 208.549, 127.500 208.782 C 131.278 209.049, 131.391 208.978, 129.529 207.510 C 128.444 206.655, 126.944 206.191, 126.195 206.479 C 125.403 206.783, 125.005 206.478, 125.244 205.751 C 125.469 205.063, 126.836 204.360, 128.279 204.188 C 129.898 203.996, 131.160 203.071, 131.571 201.775 C 132.217 199.741, 132.271 199.735, 133.284 201.587 C 134.713 204.203, 136.295 205.105, 137.442 203.958 C 138.603 202.797, 143 202.677, 143 203.807 C 143 204.250, 146.037 205.365, 149.750 206.284 C 153.463 207.203, 157.625 208.259, 159 208.632 L 161.500 209.310 159 207.188 C 156.221 204.830, 156.897 204.537, 161.841 205.954 C 166.794 207.375, 164.350 204.962, 157.782 201.947 C 154.877 200.613, 152.174 199.015, 151.775 198.395 C 151.377 197.775, 149.954 197.477, 148.614 197.733 C 147.274 197.990, 145.439 197.785, 144.535 197.279 C 143.361 196.623, 145.565 196.010, 152.249 195.136 C 162.148 193.841, 165 194.214, 165 196.807 C 165 198.036, 165.271 198.129, 166.186 197.214 C 167.101 196.299, 167.789 196.404, 169.192 197.674 C 171.696 199.940, 172.759 198.496, 170.458 195.954 C 168.610 193.911, 168.617 193.904, 171.363 194.948 C 175.376 196.474, 175.833 196.214, 173 194.017 L 170.500 192.079 174.209 188.347 C 177.975 184.558, 183.171 185.505, 181.567 189.687 C 180.688 191.978, 182.028 191.143, 188.211 185.547 C 193.498 180.763, 194.416 180.273, 195.699 181.556 C 196.503 182.360, 197.555 182.775, 198.037 182.477 C 199.120 181.808, 198.142 179, 196.827 179 C 196.299 179, 197.870 176.412, 200.318 173.250 C 210.866 159.622, 209.364 157.883, 186.665 157.436 C 179.056 157.287, 172.532 156.865, 172.167 156.500 C 170.664 154.997, 175.545 152.918, 179.150 153.526 C 185.675 154.627, 187.551 152.392, 183.744 148.053 C 182.029 146.099, 179.781 144.448, 178.747 144.383 C 177.713 144.319, 176.336 143.736, 175.688 143.088 C 174.782 142.182, 175.527 141.977, 178.896 142.204 C 181.929 142.409, 183.434 142.075, 183.767 141.125 C 184.065 140.278, 183.722 139.936, 182.875 140.235 C 182.119 140.502, 179.377 139.658, 176.783 138.360 C 174.057 136.996, 170.259 135.994, 167.783 135.985 C 165.427 135.977, 162.375 135.321, 161 134.528 C 159.625 133.735, 157.600 132.680, 156.500 132.185 C 153.387 130.782, 142.871 130.202, 139.081 131.223" stroke="none" fill="#1a1a2e" fill-rule="evenodd"/>
</svg>