<svg xmlns="http://www.w3.org/2000/svg" width="400" height="287" viewBox="0 0 400 287" version="1.1">
	<path d="M 0 20.144 C 0 38.105, 0.189 40.435, 1.750 41.721 C 3.417 43.095, 3.417 43.137, 1.750 42.613 C 0.090 42.091, 0 48.352, 0 164.534 L -0 287.005 200.250 286.752 L 400.500 286.500 400.743 143.251 L 400.985 0.001 235.493 0.006 L 70 0.011 70 2.505 C 70 3.877, 69.612 5, 69.139 5 C 68.665 5, 68.490 3.885, 68.751 2.523 L 69.224 0.046 34.612 0.028 L 0 0.009 0 20.144 M 229.663 88.481 C 229.198 89.665, 229.311 90.604, 229.943 90.814 C 230.524 91.008, 230.964 91.917, 230.921 92.833 C 230.872 93.873, 230.652 94.030, 230.338 93.250 C 229.400 90.926, 228.499 91.982, 228.632 95.250 C 228.844 100.466, 229.011 100.662, 230.556 97.500 C 231.816 94.920, 231.956 94.843, 231.553 96.948 C 231.295 98.294, 231.579 99.992, 232.183 100.721 C 233.018 101.726, 232.947 101.917, 231.891 101.512 C 230.868 101.120, 230.526 101.840, 230.599 104.239 C 230.783 110.308, 230.900 110.699, 232.015 109 C 233.156 107.262, 235.017 109.187, 234.914 112 C 234.878 112.997, 234.606 112.852, 234.102 111.566 C 233.082 108.961, 232.310 110.602, 232.149 115.715 C 232.044 119.073, 232.321 119.814, 233.509 119.358 C 235.385 118.638, 235.393 118.544, 233 125.500 C 230.434 132.958, 231.875 135.698, 234.840 129 C 235.570 127.350, 236.586 126, 237.096 126 C 237.607 126, 236.979 127.688, 235.701 129.750 C 232.383 135.105, 230.981 139.053, 231.174 142.500 C 231.267 144.150, 231.008 146.673, 230.599 148.106 C 230.096 149.869, 230.319 151.176, 231.287 152.144 C 232.528 153.386, 232.339 154.029, 229.859 157 C 228.287 158.883, 227 159.852, 227 159.153 C 227 158.445, 226.487 158.199, 225.843 158.597 C 224.998 159.119, 224.856 158.067, 225.318 154.700 C 225.665 152.163, 225.558 149.845, 225.080 149.549 C 224.589 149.246, 224.606 147.250, 225.119 144.966 C 225.709 142.339, 225.664 140.241, 224.990 138.982 C 224.420 137.916, 224.205 135.796, 224.512 134.272 C 226.704 123.399, 223.338 98.027, 220.339 102.828 C 218.876 105.172, 219.842 111.275, 221.571 110.611 C 222.991 110.066, 222.509 112.440, 220.733 114.737 C 220.207 115.418, 220.046 116.679, 220.377 117.539 C 220.722 118.439, 220.557 118.844, 219.989 118.493 C 219.445 118.157, 219 118.815, 219 119.955 C 219 121.094, 218.459 122.893, 217.798 123.952 C 216.842 125.482, 216.893 126.435, 218.048 128.602 C 219.177 130.721, 219.222 131.421, 218.250 131.747 C 216.433 132.357, 216.618 139, 218.451 139 C 219.644 139, 219.559 139.755, 217.973 143.250 C 216.912 145.588, 216.034 148.461, 216.022 149.635 C 216.010 150.809, 214.885 152.501, 213.521 153.394 C 210.349 155.473, 208.771 151.525, 211.257 147.730 C 212.412 145.967, 212.470 145.228, 211.519 144.341 C 210.645 143.524, 210.379 138.933, 210.572 127.960 C 210.719 119.576, 210.447 111.992, 209.969 111.108 C 209.490 110.223, 208.819 106.912, 208.477 103.750 C 208.136 100.588, 207.412 98, 206.869 98 C 206.326 98, 206.203 98.520, 206.595 99.155 C 207.046 99.884, 206.869 100.037, 206.114 99.570 C 205.456 99.164, 205.185 97.992, 205.511 96.966 C 206.219 94.735, 203.324 88.681, 201.955 89.528 C 201.346 89.904, 201.361 90.806, 201.997 91.995 C 203.273 94.379, 203.274 95.287, 202 94.500 C 201.406 94.133, 201 95.303, 201 97.382 C 201 99.307, 201.468 101.171, 202.040 101.525 C 202.647 101.900, 202.858 104.051, 202.548 106.692 C 201.957 111.717, 202.885 114.515, 204.120 111.434 C 204.691 110.010, 204.864 110.423, 204.775 113 C 204.708 114.925, 204.344 117.175, 203.965 118 C 202.237 121.765, 201.970 125, 203.387 125 C 205.105 125, 204.367 128.971, 202.633 129.055 C 201.143 129.128, 196.667 134.820, 196.667 136.643 C 196.667 137.583, 196.330 137.730, 195.676 137.076 C 195.021 136.421, 195.029 135.646, 195.699 134.792 C 196.340 133.975, 196.431 130.741, 195.946 126 C 195.525 121.875, 194.870 115.369, 194.493 111.543 C 194.115 107.717, 193.582 103.667, 193.308 102.543 C 193.034 101.419, 192.492 98.925, 192.104 97 C 191.441 93.715, 191.365 93.658, 190.872 96.069 C 190.583 97.482, 190.656 99.507, 191.035 100.569 C 191.932 103.086, 191.177 105.005, 189.538 104.376 C 188.824 104.102, 187.335 105.030, 186.227 106.438 C 184.430 108.723, 184.137 108.810, 183.499 107.249 C 182.844 105.644, 182.718 105.665, 181.963 107.500 C 180.702 110.568, 180.802 115.240, 182.112 114.431 C 182.723 114.053, 183.564 114.295, 183.980 114.968 C 184.684 116.107, 187.494 110.635, 187.155 108.786 C 187.083 108.393, 187.625 108.302, 188.359 108.584 C 189.409 108.987, 189.485 110.147, 188.718 114.028 C 188.182 116.740, 187.351 118.717, 186.872 118.421 C 186.392 118.124, 186 118.359, 186 118.941 C 186 120.774, 184.355 120.093, 183.122 117.750 C 182.471 116.513, 182.163 116.287, 182.438 117.250 C 182.712 118.213, 182.501 119, 181.969 119 C 181.436 119, 181 119.605, 181 120.345 C 181 123.058, 177.369 125.268, 174.998 123.999 C 173.805 123.360, 173.081 122.585, 173.390 122.276 C 173.699 121.968, 174.612 122.263, 175.419 122.933 C 176.627 123.935, 176.861 123.809, 176.742 122.220 C 176.661 121.154, 175.903 120.337, 175.048 120.395 C 174.068 120.461, 173.450 119.583, 173.363 118 C 173.288 116.625, 173.070 112.695, 172.879 109.267 C 172.659 105.325, 172.050 102.849, 171.222 102.532 C 170.248 102.158, 170.181 101.531, 170.957 100.081 C 172.265 97.636, 172.360 94.228, 171.082 95.550 C 169.186 97.513, 168.620 106, 170.386 106 C 171.274 106, 172 106.480, 172 107.067 C 172 107.657, 171.158 107.868, 170.118 107.538 C 168.897 107.150, 168.016 107.516, 167.607 108.582 C 167.167 109.729, 167.403 110.059, 168.391 109.680 C 170.715 108.789, 171.045 110.093, 169.331 113.390 C 166.280 119.259, 166 119.977, 166 121.927 C 166 123.002, 165.502 124.190, 164.893 124.566 C 164.158 125.021, 164 124.576, 164.423 123.244 C 164.842 121.922, 164.537 121.036, 163.530 120.650 C 162.688 120.327, 162 119.422, 162 118.638 C 162 117.855, 161.325 116.955, 160.500 116.638 C 159.675 116.322, 159 114.849, 159 113.365 C 159 107.331, 157.650 112.328, 156.531 122.500 C 154.920 137.154, 152.270 145.903, 149.887 144.430 C 149.399 144.129, 149 144.421, 149 145.081 C 149 145.740, 148.213 146.877, 147.250 147.608 C 146.261 148.358, 146.024 148.950, 146.703 148.968 C 147.365 148.986, 150.023 146.863, 152.609 144.250 C 155.556 141.274, 156.826 140.418, 156.010 141.957 C 155.294 143.309, 152.416 146.647, 149.614 149.376 C 143.787 155.052, 146.391 155.538, 154.500 150.289 L 158.500 147.699 156.500 150.100 C 153.779 153.366, 152.841 153.967, 150.441 153.985 C 149.309 153.993, 147.509 154.703, 146.441 155.563 C 144.627 157.024, 144.812 157.098, 149.250 156.686 C 151.863 156.444, 154 156.592, 154 157.016 C 154 158.113, 151.003 159.120, 149.853 158.409 C 149.321 158.081, 147.674 158.144, 146.193 158.549 L 143.500 159.287 146 160.044 C 148.389 160.767, 148.400 160.805, 146.250 160.900 C 144.857 160.962, 144 161.634, 144 162.667 C 144 163.583, 143.716 164.049, 143.369 163.702 C 143.021 163.355, 141.827 163.708, 140.714 164.488 C 139.204 165.545, 138.188 165.636, 136.710 164.845 C 135.142 164.006, 135.013 163.610, 136.089 162.945 C 137.170 162.277, 136.971 161.598, 135.109 159.616 C 132.840 157.200, 132.833 157.144, 134.886 157.680 C 136.273 158.043, 137.005 157.763, 137.015 156.867 C 137.027 155.800, 137.244 155.830, 138 157 C 138.533 157.825, 138.976 158.147, 138.985 157.715 C 138.993 157.283, 138.310 155.876, 137.467 154.589 C 135.011 150.841, 134.866 148.177, 137.081 147.474 C 138.152 147.134, 138.783 146.458, 138.483 145.972 C 137.854 144.954, 142.052 141.962, 144.644 141.582 C 145.605 141.441, 146.587 140.739, 146.826 140.023 C 147.082 139.255, 146.798 139.007, 146.133 139.418 C 145.323 139.918, 145.269 139.423, 145.939 137.660 C 146.452 136.310, 146.564 134.862, 146.186 134.442 C 145.809 134.023, 146.040 133.989, 146.700 134.368 C 147.404 134.772, 148.385 134.116, 149.075 132.778 C 149.721 131.525, 151.122 129.541, 152.188 128.369 C 153.474 126.954, 154.285 124.263, 154.599 120.369 C 154.859 117.141, 155.509 114.349, 156.042 114.165 C 156.576 113.980, 156.787 113.464, 156.512 113.019 C 156.236 112.573, 156.680 110.924, 157.499 109.354 C 158.318 107.784, 158.962 105.600, 158.930 104.500 C 158.882 102.791, 158.729 102.860, 157.885 104.976 C 157.141 106.841, 156.692 107.120, 156.065 106.106 C 155.405 105.038, 155.010 105.146, 154.147 106.630 C 153.454 107.823, 153.050 108.003, 153.030 107.128 C 153.008 106.098, 152.667 106.031, 151.667 106.862 C 149.725 108.473, 149.827 105.004, 151.788 102.750 C 152.625 101.787, 152.975 101, 152.565 101 C 152.156 101, 150.923 102.013, 149.827 103.250 C 148.317 104.954, 147.967 105.075, 148.385 103.750 C 148.689 102.787, 148.440 102, 147.833 102 C 147.120 102, 146.909 103.508, 147.236 106.250 C 147.516 108.588, 147.397 111.625, 146.972 113 C 146.327 115.087, 146.177 115.170, 146.064 113.500 C 145.859 110.469, 143.075 105.835, 143.059 108.500 C 143.038 112.151, 144.836 118.280, 146.178 119.131 C 147.264 119.820, 147.258 119.972, 146.143 119.985 C 145.354 119.994, 145.025 120.624, 145.358 121.490 C 145.753 122.520, 145.092 123.158, 143.215 123.559 C 141.722 123.878, 139.559 124.515, 138.408 124.976 C 136.056 125.917, 134.639 125.275, 133.752 122.863 C 133.300 121.635, 133.615 121.348, 135.013 121.714 C 136.037 121.981, 137.904 121.481, 139.160 120.600 C 140.417 119.720, 140.840 119, 140.100 119 C 139.018 119, 138.998 118.707, 140 117.500 C 140.928 116.382, 140.944 116, 140.063 116 C 139.414 116, 139.173 115.529, 139.528 114.954 C 140.468 113.434, 138.979 103.895, 137.906 104.558 C 137.408 104.866, 137 103.741, 137 102.059 C 137 99.916, 136.519 99, 135.393 99 C 134.509 99, 134.002 99.563, 134.266 100.250 C 134.567 101.035, 133.858 101.500, 132.362 101.500 C 130.865 101.500, 130.156 101.035, 130.458 100.250 C 130.721 99.563, 130.539 99, 130.052 99 C 129.565 99, 128.940 99.563, 128.662 100.250 C 128.385 100.938, 128.122 100.487, 128.079 99.250 C 128.005 97.130, 126 95.895, 126 97.969 C 126 98.501, 125.338 98.683, 124.529 98.373 C 123.277 97.892, 123.295 98.283, 124.649 100.998 C 126.213 104.133, 126.188 104.235, 123.216 106.950 L 120.192 109.712 119.658 107.106 C 119.364 105.673, 118.148 103.904, 116.957 103.176 C 115.765 102.448, 115.052 102.275, 115.372 102.793 C 116.146 104.045, 112.954 106.743, 110.750 106.701 C 108.358 106.654, 108.536 104.934, 111 104.290 C 113.247 103.702, 113.807 99.494, 111.750 98.659 C 110.808 98.277, 110.868 97.897, 111.992 97.118 C 113.169 96.301, 113.225 95.825, 112.258 94.858 C 110.707 93.307, 110.042 93.982, 109.543 97.614 C 108.126 107.921, 93.203 120.992, 89.567 115.109 C 89.282 114.647, 87.850 114.497, 86.386 114.777 C 84.294 115.177, 83.130 114.605, 80.946 112.103 C 79.202 110.106, 77.913 109.331, 77.486 110.023 C 77.111 110.630, 77.593 111.998, 78.557 113.063 C 79.521 114.128, 79.983 115, 79.582 115 C 79.182 115, 79.788 116.186, 80.927 117.635 C 82.067 119.084, 83 120.898, 83 121.666 C 83 122.434, 83.788 123.361, 84.750 123.725 C 87.082 124.608, 89.050 126.616, 88.310 127.357 C 87.983 127.684, 88.308 128.666, 89.032 129.539 C 90.224 130.975, 90.433 130.978, 91.225 129.563 C 92.503 127.279, 93.700 127.650, 94.245 130.500 C 94.508 131.875, 94.260 133, 93.695 133 C 92.285 133, 93.713 134.320, 95.529 134.696 C 96.338 134.863, 97.662 135.137, 98.471 135.304 C 100.381 135.700, 101.681 137, 100.167 137 C 99.525 137, 99 137.520, 99 138.155 C 99 138.818, 99.835 138.554, 100.960 137.536 C 102.038 136.560, 102.885 135.478, 102.842 135.131 C 102.483 132.251, 103.102 131.783, 105 133.500 C 106.100 134.495, 106.986 135.803, 106.970 136.405 C 106.953 137.007, 106.481 136.713, 105.920 135.750 C 105.359 134.787, 104.418 134, 103.828 134 C 103.141 134, 103.203 134.539, 104 135.500 C 105.382 137.165, 103.595 140.486, 101.887 139.430 C 101.399 139.129, 101 139.385, 101 140 C 101 140.615, 100.641 140.896, 100.202 140.625 C 99.763 140.354, 98.751 140.571, 97.952 141.108 C 96.695 141.952, 96.701 142.062, 98 141.923 C 102.118 141.483, 103.040 141.997, 102.589 144.484 C 101.635 149.745, 97.398 150.920, 95.344 146.492 C 94.708 145.121, 94.596 144, 95.094 144 C 95.592 144, 96 143.524, 96 142.943 C 96 142.335, 95.103 142.515, 93.885 143.368 C 92.722 144.183, 91.035 144.590, 90.135 144.273 C 89.236 143.956, 90.588 145.322, 93.139 147.309 C 96.199 149.693, 99.017 151.006, 101.417 151.167 C 104.001 151.341, 105.014 151.860, 104.913 152.956 C 104.621 156.108, 105.028 158, 106 158 C 106.550 158, 107 157.325, 107 156.500 C 107 155.675, 106.564 155, 106.031 155 C 105.499 155, 105.322 154.325, 105.638 153.500 C 105.955 152.675, 106.769 152, 107.447 152 C 108.125 152, 109.274 150.200, 110 148 C 110.726 145.800, 111.658 144, 112.072 144 C 113.147 144, 112.626 146.541, 111.197 148.262 C 110.175 149.494, 110.379 149.650, 112.491 149.246 C 113.958 148.966, 115 149.231, 115 149.883 C 115 151.741, 116.994 151.133, 117.079 149.250 C 117.126 148.205, 117.361 148.003, 117.662 148.750 C 117.940 149.438, 118.804 150, 119.583 150 C 120.363 150, 121 150.450, 121 151 C 121 151.550, 121.661 152, 122.469 152 C 123.398 152, 123.714 152.582, 123.329 153.584 C 122.904 154.693, 122.507 154.820, 122.004 154.007 C 121.610 153.369, 118.766 152.729, 115.685 152.585 C 112.603 152.441, 110.312 152.696, 110.593 153.150 C 110.874 153.605, 110.406 153.709, 109.552 153.382 C 108.300 152.901, 108 153.604, 108 157.015 C 108 160.479, 108.248 161.039, 109.367 160.110 C 110.407 159.247, 111.035 159.337, 111.990 160.488 C 112.852 161.527, 112.894 162, 112.122 162 C 111.505 162, 111 161.454, 111 160.786 C 111 160.038, 110.328 160.243, 109.250 161.322 C 107.404 163.168, 109.162 165.636, 111.357 164.280 C 111.881 163.956, 111.988 164.211, 111.595 164.845 C 111.203 165.480, 111.407 166, 112.048 166 C 112.689 166, 112.958 166.668, 112.644 167.485 C 112.309 168.357, 112.884 169.402, 114.037 170.020 C 115.117 170.598, 116 170.774, 116 170.413 C 116 170.051, 116.635 170.282, 117.411 170.926 C 118.376 171.727, 119.027 171.765, 119.470 171.049 C 119.826 170.472, 119.656 170, 119.090 170 C 118.525 170, 118.341 169.276, 118.680 168.391 C 119.246 166.917, 119.375 166.919, 120.210 168.412 C 120.712 169.308, 121.545 169.781, 122.061 169.462 C 122.578 169.143, 123 169.659, 123 170.608 C 123 171.557, 123.296 172.037, 123.658 171.675 C 124.716 170.618, 126.933 173.010, 126.337 174.565 C 126.037 175.345, 126.514 176.260, 127.396 176.599 C 128.278 176.937, 129 177.841, 129 178.607 C 129 179.373, 129.675 180, 130.500 180 C 132.259 180, 132.443 178.843, 130.924 177.324 C 130.156 176.556, 130.566 176.385, 132.353 176.727 C 135.258 177.283, 134.947 179.216, 131.692 180.839 C 129.628 181.868, 129.661 181.909, 132.250 181.532 C 134.157 181.255, 135 181.572, 135 182.566 C 135 184.492, 139.619 184.435, 140.362 182.500 C 140.678 181.675, 141.428 181, 142.028 181 C 142.627 181, 142.840 181.450, 142.500 182 C 142.160 182.550, 142.359 183, 142.941 183 C 143.523 183, 144 183.661, 144 184.469 C 144 185.408, 143.369 185.741, 142.250 185.393 C 140.595 184.879, 140.596 184.910, 142.258 185.979 C 143.225 186.600, 144.462 186.832, 145.008 186.495 C 145.554 186.158, 146 186.864, 146 188.063 C 146 189.817, 146.274 190.018, 147.397 189.086 C 148.172 188.442, 148.574 186.942, 148.300 185.713 C 147.940 184.099, 148.441 184.447, 150.153 187 C 152.635 190.701, 158 192.516, 158 189.654 C 158 187.881, 160.889 187.058, 163.516 188.085 C 165.351 188.801, 165.019 189.046, 161.764 189.375 C 161.084 189.444, 160.357 190.400, 160.148 191.500 C 159.939 192.600, 159.258 193.831, 158.634 194.235 C 158.005 194.642, 158.765 194.976, 160.344 194.985 C 162.338 194.995, 163.341 194.413, 163.702 193.033 C 163.984 191.951, 165.067 190.796, 166.108 190.466 C 167.712 189.957, 168.419 188.416, 168.184 185.947 C 168.110 185.171, 173.997 185.662, 174.822 186.500 C 175.195 186.880, 174.604 187.035, 173.509 186.845 C 172.201 186.618, 171.177 187.271, 170.522 188.750 C 169.974 189.988, 168.973 191, 168.298 191 C 167.623 191, 166.589 191.900, 166 193 C 165.411 194.100, 165.125 195, 165.363 195 C 166.372 195, 174.478 190.009, 174.250 189.528 C 174.113 189.238, 174.225 189, 174.500 189 C 174.775 189, 175.477 189, 176.059 189 C 176.641 189, 176.886 189.375, 176.603 189.833 C 176.320 190.292, 176.718 190.667, 177.488 190.667 C 178.259 190.667, 178.801 190.235, 178.694 189.708 C 178.587 189.181, 179.063 188.544, 179.750 188.292 C 180.497 188.018, 181 188.672, 181 189.917 C 181 191.063, 181.431 192, 181.958 192 C 182.485 192, 182.790 193.591, 182.637 195.535 C 182.384 198.748, 182.502 198.927, 183.929 197.499 C 185.231 196.196, 185.267 195.784, 184.137 195.085 C 182.144 193.853, 184.940 192.982, 187.185 194.136 C 188.535 194.829, 189.122 194.304, 190.136 191.500 C 190.832 189.575, 191.770 188, 192.220 188 C 192.670 188, 192.798 186.762, 192.504 185.250 C 192.061 182.974, 192.132 182.845, 192.914 184.500 C 193.434 185.600, 193.898 186.050, 193.945 185.500 C 193.992 184.950, 194.453 185.168, 194.969 185.985 C 195.630 187.030, 195.329 188.085, 193.951 189.553 L 191.993 191.636 195.447 191.364 C 198.204 191.147, 198.783 191.402, 198.313 192.627 C 197.976 193.505, 196.960 193.961, 195.937 193.694 C 194.719 193.375, 194.318 193.666, 194.680 194.607 C 194.971 195.367, 195.612 195.740, 196.105 195.435 C 197.698 194.451, 197.052 197.805, 195.314 199.543 C 193.732 201.125, 193.903 201.194, 198.064 200.666 C 200.504 200.355, 202.812 200.079, 203.193 200.051 C 203.574 200.023, 203.714 199.109, 203.504 198.021 C 203.049 195.658, 204.607 194.431, 206.294 195.824 C 207.205 196.576, 207.576 195.444, 207.811 191.189 C 207.982 188.092, 208.582 185.004, 209.144 184.327 C 209.706 183.650, 209.882 182.062, 209.535 180.798 C 208.955 178.683, 208.999 178.652, 210.092 180.411 C 210.976 181.833, 210.993 182.781, 210.160 184.115 C 208.516 186.747, 210.658 187.607, 213.233 185.348 C 215.263 183.567, 215.315 183.566, 214.670 185.332 C 214.301 186.339, 214 187.802, 214 188.582 C 214 189.362, 213.438 189.887, 212.750 189.750 C 212.063 189.612, 211.607 190.046, 211.738 190.714 C 211.876 191.416, 211.348 191.687, 210.488 191.357 C 209.537 190.992, 209 191.388, 209 192.456 C 209 193.614, 209.690 194.030, 211.250 193.813 C 213.108 193.555, 213.453 193.923, 213.230 195.929 C 213.082 197.264, 213.503 198.693, 214.166 199.102 C 215.094 199.676, 215.065 200.216, 214.043 201.448 C 212.527 203.275, 212.435 203.166, 216.745 204.681 C 220.188 205.892, 224.910 201.815, 223.705 198.673 C 223.439 197.982, 223.804 196.621, 224.514 195.650 C 225.452 194.367, 225.696 190.762, 225.406 182.499 C 225.163 175.566, 225.396 170.873, 226.003 170.498 C 226.551 170.159, 227.015 170.471, 227.033 171.191 C 227.052 171.933, 227.919 171.477, 229.033 170.139 C 230.922 167.871, 231 167.860, 231 169.840 C 231 170.973, 230.258 172.316, 229.351 172.824 C 228.444 173.331, 227.547 175.154, 227.359 176.873 C 226.984 180.296, 228.312 181.010, 229.920 178.250 C 230.862 176.632, 230.941 176.628, 230.970 178.203 C 231.010 180.439, 228.909 185, 227.839 185 C 227.378 185, 227 185.502, 227 186.117 C 227 186.755, 227.890 187, 229.079 186.690 C 230.640 186.281, 231.014 186.522, 230.579 187.655 C 230.261 188.485, 230 189.545, 230 190.010 C 230 190.476, 229.213 191.646, 228.250 192.609 C 226.583 194.278, 226.608 194.333, 228.772 193.769 C 231.336 193.099, 231.588 200.382, 229.103 203.376 C 228.181 204.487, 228.204 204.921, 229.208 205.324 C 229.919 205.609, 229.488 205.878, 228.250 205.921 C 225.889 206.004, 225.396 206.954, 226.888 208.550 C 228.805 210.603, 229.336 214.343, 227.615 213.683 C 226.727 213.342, 226 213.451, 226 213.924 C 226 214.398, 226.675 215.045, 227.500 215.362 C 229.734 216.219, 229.339 218.242, 227.079 217.525 C 225.876 217.143, 224.473 217.620, 223.329 218.797 C 222.323 219.833, 220.713 220.963, 219.750 221.309 C 217.240 222.210, 217.229 229.295, 219.739 228.812 C 220.695 228.628, 221.633 227.582, 221.823 226.489 C 222.260 223.977, 224.765 221.972, 226.591 222.673 C 227.374 222.974, 228.320 222.394, 228.744 221.355 C 229.160 220.335, 230.175 219.500, 231 219.500 C 232.082 219.500, 232.412 218.623, 232.185 216.352 C 231.953 214.026, 232.438 212.806, 234.044 211.682 C 235.371 210.752, 235.920 209.679, 235.454 208.925 C 234.962 208.129, 235.104 207.946, 235.853 208.409 C 236.519 208.821, 237.301 208.380, 237.687 207.373 C 238.064 206.392, 237.865 205.455, 237.236 205.245 C 236.618 205.039, 236.333 204.297, 236.602 203.596 C 236.871 202.894, 236.383 201.733, 235.517 201.014 C 234.117 199.853, 234.242 199.526, 236.640 198.076 C 238.124 197.178, 239.476 195.556, 239.643 194.472 C 239.811 193.387, 240.236 191.037, 240.588 189.250 C 240.978 187.268, 240.824 186, 240.194 186 C 239.494 186, 239.476 184.860, 240.137 182.466 C 240.674 180.522, 240.825 178.025, 240.474 176.917 C 239.258 173.087, 244.018 168.685, 246.591 171.258 C 247.581 172.247, 246.205 176.652, 244.318 178.539 C 242.746 180.111, 242.746 180.278, 244.319 181.159 C 245.289 181.702, 246 183.322, 246 184.991 C 246 186.581, 246.450 188.160, 247 188.500 C 247.550 188.840, 248 190.190, 248 191.500 C 248 192.810, 248.435 194.151, 248.966 194.479 C 249.547 194.838, 249.263 196.478, 248.252 198.597 C 246.792 201.660, 246.764 202.239, 248.037 203.044 C 249.189 203.772, 249.211 203.973, 248.143 203.985 C 247.350 203.994, 247.025 204.623, 247.362 205.500 C 247.678 206.325, 247.526 207, 247.023 207 C 246.520 207, 246.172 209.152, 246.249 211.781 C 246.325 214.411, 246.049 217.111, 245.635 217.781 C 245.206 218.476, 245.388 219, 246.058 219 C 246.728 219, 247.016 219.832, 246.727 220.935 C 245.849 224.292, 248.960 224.324, 250.370 220.972 C 251.065 219.319, 251.941 218.274, 252.317 218.650 C 252.693 219.026, 253 218.808, 253 218.167 C 253 217.525, 252.464 217, 251.809 217 C 251.154 217, 251.469 216.378, 252.509 215.617 C 253.929 214.579, 254.839 214.507, 256.155 215.329 C 258.766 216.960, 259.396 215.535, 257.407 212.498 C 255.917 210.225, 255.079 209.878, 251.827 210.188 C 249.722 210.389, 248.007 210.316, 248.015 210.026 C 248.044 209.025, 249.930 206.500, 250.714 206.414 C 252.984 206.164, 255.054 204.584, 254.614 203.436 C 254.338 202.717, 254.637 201.954, 255.279 201.740 C 256.665 201.278, 257.285 193, 255.933 193 C 254.750 193, 254.704 189.301, 255.879 188.575 C 256.978 187.895, 256.086 178.938, 254.751 177.255 C 254.076 176.404, 254.283 175.217, 255.405 173.505 C 256.308 172.127, 256.630 171, 256.121 171 C 253.770 171, 253.003 164.934, 255.249 164.104 L 257.426 163.298 255.185 162.099 C 252.735 160.788, 252.558 156.509, 254.894 155.065 C 255.865 154.466, 255.769 154.126, 254.494 153.636 C 253.240 153.155, 252.874 151.929, 253.035 148.747 C 253.315 143.216, 252.231 139.974, 250.344 140.698 C 249.542 141.006, 249.116 141.861, 249.399 142.597 C 249.681 143.333, 249.448 144.223, 248.880 144.574 C 248.237 144.972, 247.970 144.134, 248.173 142.356 C 248.353 140.785, 248.768 139.725, 249.096 140 C 252.070 142.494, 254.341 130.763, 252.775 121 C 252.554 119.625, 252.699 117.819, 253.096 116.986 C 253.871 115.360, 251.735 111.599, 250.651 112.682 C 250.293 113.040, 250 112.448, 250 111.367 C 250 110.285, 250.515 108.885, 251.144 108.256 C 252.569 106.831, 250.432 101, 248.486 101 C 246.882 101, 245.764 103.736, 247.044 104.527 C 247.570 104.852, 247.993 105.654, 247.985 106.309 C 247.974 107.129, 247.708 107.088, 247.131 106.177 C 246.580 105.308, 246.069 106.479, 245.643 109.590 C 244.699 116.475, 246.457 117.373, 248.014 110.801 L 248.795 107.500 248.898 111.050 C 248.954 113.002, 248.495 115.105, 247.878 115.722 C 247.261 116.339, 246.567 118.792, 246.336 121.172 C 245.945 125.214, 246.019 125.372, 247.459 123.559 C 248.306 122.491, 249 121.254, 249 120.809 C 249 120.364, 249.505 120, 250.122 120 C 250.902 120, 250.868 120.454, 250.011 121.487 C 249.332 122.305, 249.023 123.618, 249.325 124.405 C 249.627 125.191, 249.318 126.048, 248.638 126.309 C 247.001 126.937, 245.044 133.453, 246.018 135.030 C 246.568 135.920, 247.121 135.642, 247.974 134.049 C 248.627 132.828, 249.387 132.053, 249.661 132.328 C 249.935 132.602, 249.404 133.980, 248.480 135.391 C 245.914 139.306, 244.922 144.756, 246.654 145.421 C 247.873 145.888, 247.871 146.279, 246.640 148.232 C 245.760 149.627, 245.503 151.269, 245.970 152.500 C 246.389 153.600, 246.316 155.608, 245.810 156.962 C 245.191 158.614, 245.283 160.159, 246.086 161.661 C 247.021 163.408, 247.013 164.555, 246.049 166.883 C 244.663 170.228, 242.346 170.103, 241.048 166.611 C 240.146 164.185, 240.783 161.748, 242.105 162.565 C 242.597 162.869, 243 162.690, 243 162.166 C 243 161.642, 242.330 160.957, 241.510 160.642 C 240.316 160.184, 240.075 158.327, 240.298 151.285 C 240.464 146.009, 240.103 141.501, 239.392 140 C 238.558 138.239, 238.476 135.875, 239.115 132 C 239.614 128.975, 240.092 125.938, 240.178 125.250 C 240.263 124.563, 240.965 124, 241.738 124 C 242.900 124, 242.882 123.739, 241.637 122.494 C 240.809 121.666, 239.846 120.091, 239.498 118.994 C 239.150 117.897, 238.394 117, 237.818 117 C 237.239 117, 237.488 115.904, 238.374 114.552 C 239.357 113.051, 239.595 111.868, 238.989 111.493 C 238.445 111.157, 238 109.634, 238 108.108 C 238 106.582, 237.687 105.020, 237.304 104.638 C 236.922 104.255, 236.514 103.300, 236.399 102.514 C 236.284 101.729, 235.479 99.662, 234.611 97.922 C 233.743 96.181, 233.295 94.332, 233.616 93.812 C 233.937 93.292, 233.518 92.334, 232.684 91.683 C 231.851 91.033, 231.005 89.600, 230.805 88.500 C 230.443 86.513, 230.436 86.513, 229.663 88.481 M 263.258 126.231 C 263.165 127.458, 262.412 128.957, 261.584 129.562 C 259.753 130.901, 257.770 135.819, 258.552 137.084 C 259.499 138.616, 260.999 138.108, 261.015 136.250 C 261.027 134.876, 261.217 134.794, 261.897 135.868 C 262.467 136.767, 262.119 137.881, 260.882 139.118 C 258.067 141.933, 258.319 146.322, 261.250 145.516 C 263.181 144.984, 263.285 145.081, 261.988 146.198 C 259.392 148.432, 257.874 152.896, 258.996 154.992 C 259.656 156.225, 259.666 157.749, 259.025 159.435 C 258.466 160.905, 258.435 162, 258.951 162 C 260.342 162, 260.731 165.244, 259.642 167.767 C 258.879 169.534, 259.044 170.312, 260.391 171.297 C 261.780 172.312, 261.921 173.076, 261.113 175.202 C 260.353 177.201, 260.447 178.126, 261.498 178.998 C 262.611 179.922, 262.654 180.666, 261.714 182.729 C 260.737 184.872, 260.812 185.479, 262.157 186.327 C 263.452 187.144, 263.577 187.916, 262.782 190.195 C 262.075 192.223, 262.132 193.454, 262.978 194.473 C 263.631 195.260, 263.873 196.826, 263.515 197.952 C 262.719 200.459, 264.504 200.680, 265.920 198.250 C 266.728 196.862, 266.945 196.813, 266.970 198.009 C 266.986 198.840, 266.100 200.081, 265 200.768 C 262.753 202.171, 262.274 206, 264.345 206 C 268.379 206, 272.852 194.950, 270.359 191.145 C 269.498 189.830, 269.289 189.061, 269.896 189.436 C 270.561 189.847, 271 189.322, 271 188.118 C 271 187.018, 270.581 185.859, 270.069 185.543 C 269.557 185.226, 269.344 183.831, 269.596 182.443 C 269.848 181.055, 269.637 179.173, 269.127 178.262 C 268.556 177.242, 268.560 175.658, 269.137 174.140 C 269.749 172.530, 269.714 171.314, 269.037 170.637 C 267.636 169.236, 267.718 166, 269.155 166 C 269.814 166, 269.542 165.152, 268.520 164.023 C 267.228 162.594, 266.886 161.091, 267.289 158.608 C 267.707 156.032, 267.380 154.749, 265.986 153.488 C 263.836 151.541, 261.568 152.426, 262.491 154.851 C 262.943 156.039, 262.813 156.197, 262.026 155.417 C 260.553 153.956, 261.693 151.314, 264.064 150.693 C 266.640 150.020, 267.306 147.936, 266.024 144.564 C 265.146 142.253, 264.716 141.991, 263.483 143.014 C 262.668 143.691, 262 143.924, 262 143.533 C 262 143.141, 262.996 142.014, 264.214 141.028 C 266.155 139.456, 266.281 138.913, 265.235 136.617 C 264.580 135.178, 264.387 134, 264.807 134 C 265.228 134, 265.599 133.213, 265.633 132.250 C 265.668 131.287, 265.817 130.050, 265.966 129.500 C 266.115 128.950, 266.184 127.487, 266.118 126.250 C 265.965 123.330, 263.477 123.313, 263.258 126.231" stroke="none" fill="#1a1a2e" fill-rule="evenodd"/>
</svg>