<svg xmlns="http://www.w3.org/2000/svg" width="400" height="278" viewBox="0 0 400 278" version="1.1">
	<path d="M 0.018 52 L -0.028 104 2.236 104.052 L 4.500 104.105 2.250 105.674 C -0.853 107.839, -1.315 134.977, 1.750 135.030 C 3.417 135.059, 3.417 135.109, 1.750 136.080 C 0.112 137.034, 0 141.229, 0 201.666 L 0 266.233 2.250 265.687 L 4.500 265.141 2.250 266.693 C 0.436 267.943, 0 269.190, 0 273.122 L 0 278 26.893 278 C 49.875 278, 53.870 277.782, 54.362 276.500 C 54.678 275.675, 55.626 275, 56.469 275 C 57.311 275, 57.888 274.652, 57.750 274.227 C 57.447 273.290, 64.618 266.751, 67.750 265.109 C 73.414 262.140, 65.989 271.577, 59 276.231 C 56.658 277.790, 61.836 277.898, 141.059 277.948 C 213.917 277.993, 225.886 277.797, 227.559 276.532 C 230.097 274.612, 234.675 274.597, 235.743 276.506 C 236.485 277.831, 246.412 277.981, 318.543 277.756 L 400.500 277.500 400.731 138.750 L 400.963 0 398.922 0 C 397.795 0, 397.163 0.455, 397.510 1.016 C 397.856 1.575, 398.557 1.774, 399.069 1.457 C 399.581 1.141, 400 1.331, 400 1.879 C 400 3.326, 396.142 2.814, 395.557 1.289 C 395.285 0.580, 394.122 -0, 392.972 -0 C 391.823 -0, 391.160 0.450, 391.500 1 C 391.840 1.550, 391.641 2, 391.059 2 C 390.477 2, 390 1.550, 390 1 C 390 0.438, 387.260 0.007, 383.750 0.015 C 379.346 0.026, 377.943 0.317, 379 1 C 380.322 1.854, 380.316 1.971, 378.950 1.985 C 378.098 1.993, 376.961 1.561, 376.425 1.025 C 375.791 0.391, 374.118 0.458, 371.647 1.216 C 368.741 2.108, 367.400 2.106, 365.961 1.208 C 364.633 0.378, 356.187 0.051, 337.289 0.097 C 321.640 0.135, 311.332 0.515, 312.500 1.010 C 314.670 1.931, 314.296 2.088, 309 2.476 C 307.075 2.617, 306.063 2.530, 306.750 2.283 C 310.711 0.859, 306.275 0.167, 293.019 0.143 C 281.946 0.122, 278.099 0.426, 278.269 1.308 C 278.546 2.738, 273.663 2.415, 273.167 0.971 C 272.711 -0.357, 241 -0.328, 241 1 C 241 1.550, 240.298 2, 239.441 2 C 238.584 2, 238.127 1.604, 238.426 1.120 C 238.728 0.631, 232.645 0.195, 224.735 0.138 C 215.632 0.073, 211.030 0.370, 211.971 0.963 C 212.780 1.474, 213.182 2.151, 212.864 2.469 C 211.975 3.359, 208.938 1.910, 209.565 0.895 C 209.889 0.370, 166.659 0, 105.091 0 L 0.064 0 0.018 52 M 272.500 9.950 C 270.713 10.763, 270.796 10.867, 273.282 10.930 C 274.811 10.968, 278.636 11.844, 281.782 12.877 C 286.863 14.544, 294.435 15.771, 303.500 16.397 C 306.523 16.605, 310.875 18.650, 312.235 20.500 C 312.646 21.060, 312.976 20.704, 312.985 19.691 C 312.995 18.489, 313.419 18.148, 314.250 18.676 C 315.681 19.584, 316.170 19.703, 319.200 19.875 C 321.971 20.032, 320.498 21.506, 316.666 22.411 C 314.531 22.915, 313.995 22.762, 314.490 21.790 C 314.852 21.081, 314.552 21.191, 313.824 22.036 C 313.096 22.881, 311.681 23.405, 310.679 23.199 C 309.524 22.963, 308.674 23.532, 308.354 24.755 C 307.821 26.791, 300.213 26.963, 298.979 24.967 C 298.678 24.479, 293.272 23.628, 286.966 23.075 C 271.416 21.711, 250.545 21.101, 252.090 22.055 C 253.387 22.857, 266.591 24.530, 268.675 24.157 C 269.321 24.042, 270.153 24.439, 270.525 25.040 C 270.898 25.644, 270.596 26.051, 269.850 25.948 C 265.741 25.384, 260.563 26.170, 262.500 27.063 C 263.897 27.708, 262.992 27.829, 259.500 27.465 C 249.211 26.392, 245.030 26.848, 245.748 28.964 C 246.097 29.992, 245.788 29.884, 244.817 28.639 C 243.482 26.928, 243.235 26.908, 241.754 28.389 C 240.868 29.275, 239.716 30, 239.194 30 C 235.465 30, 236.227 32.936, 240.187 33.822 C 244.381 34.759, 243.904 35.118, 238.250 35.277 C 236.738 35.320, 235.187 35.824, 234.804 36.398 C 233.516 38.331, 232.826 36.193, 234.019 33.965 C 234.668 32.751, 234.756 32.033, 234.213 32.368 C 233.671 32.704, 232.702 32.346, 232.061 31.573 C 231.134 30.456, 231.316 30.035, 232.947 29.517 C 236.104 28.515, 235.385 27.400, 231.582 27.400 C 228.625 27.400, 228.390 27.569, 229.832 28.650 C 231.302 29.752, 231.233 29.833, 229.250 29.334 C 227.884 28.989, 227 29.222, 227 29.927 C 227 30.565, 227.787 30.955, 228.750 30.794 C 229.776 30.621, 230.386 31.048, 230.225 31.824 C 230.068 32.582, 230.430 32.852, 231.071 32.456 C 231.781 32.017, 232.061 32.447, 231.833 33.627 C 231.543 35.135, 230.714 35.436, 227.487 35.204 C 224.514 34.990, 223.881 35.178, 225 35.943 C 225.825 36.508, 227.400 37.028, 228.500 37.101 C 230.190 37.212, 230.228 37.303, 228.750 37.689 C 227.787 37.941, 227 38.564, 227 39.073 C 227 39.583, 226.298 40, 225.441 40 C 224.517 40, 224.173 39.530, 224.595 38.845 C 225.034 38.135, 224.870 37.962, 224.168 38.396 C 223.004 39.115, 223.077 42.410, 224.283 43.617 C 224.651 43.984, 225.551 43.787, 226.285 43.179 C 227.295 42.340, 228.041 42.567, 229.370 44.120 C 230.334 45.246, 231.764 45.921, 232.547 45.620 C 233.727 45.168, 233.759 45.413, 232.737 47.049 C 232.059 48.135, 230.947 48.810, 230.267 48.549 C 229.287 48.173, 229.284 48.482, 230.255 50.037 C 230.929 51.117, 231.935 52.014, 232.491 52.030 C 233.046 52.047, 232.703 52.525, 231.729 53.092 C 230.755 53.659, 230.232 54.567, 230.568 55.110 C 230.958 55.741, 231.671 55.688, 232.546 54.962 C 233.585 54.100, 234.460 54.209, 236.180 55.413 C 238.406 56.973, 238.409 57, 236.345 57 C 235.190 57, 233.720 57.632, 233.079 58.405 C 232.437 59.178, 231.145 59.692, 230.206 59.547 C 226.400 58.959, 226.600 65.656, 230.520 70 C 231.760 71.375, 233.081 73.512, 233.455 74.749 C 234.021 76.624, 234.460 76.824, 236.095 75.949 C 237.174 75.372, 237.792 74.472, 237.469 73.950 C 237.146 73.427, 237.776 73, 238.870 73 C 239.963 73, 241.461 72.396, 242.199 71.658 C 244.266 69.591, 248.419 67.512, 247.495 69.007 C 246.966 69.863, 247.344 70.026, 248.794 69.565 C 250.323 69.080, 251.008 69.450, 251.510 71.031 C 251.915 72.309, 252.738 72.931, 253.590 72.604 C 254.366 72.306, 255 72.499, 255 73.031 C 255 73.564, 254.550 74, 254 74 C 253.450 74, 253 74.498, 253 75.107 C 253 75.716, 253.698 75.946, 254.552 75.618 C 255.406 75.291, 255.860 75.417, 255.563 75.898 C 255.265 76.380, 255.648 77.293, 256.414 77.928 C 257.424 78.767, 257.907 78.778, 258.177 77.969 C 258.404 77.287, 261.056 78.190, 265.024 80.304 C 271.586 83.798, 273.134 83.928, 276.213 81.248 C 277.155 80.428, 278.575 80.007, 279.369 80.311 C 280.163 80.616, 281.586 80.010, 282.532 78.965 C 283.871 77.485, 284.677 77.292, 286.176 78.094 C 287.234 78.660, 290.215 78.923, 292.800 78.678 C 298.686 78.120, 308.288 80.806, 307.524 82.797 C 307.225 83.577, 307.516 83.995, 308.200 83.767 C 308.860 83.547, 310.155 80.021, 311.076 75.933 C 313.014 67.336, 314.425 63.473, 315.978 62.513 C 316.743 62.041, 316.851 62.700, 316.331 64.666 C 315.918 66.225, 315.628 68.513, 315.685 69.750 C 315.745 71.057, 315.204 72, 314.394 72 C 313.627 72, 313 72.900, 313 74 C 313 75.100, 313.666 76, 314.481 76 C 316.385 76, 317.565 80.614, 316.110 82.367 C 315.498 83.105, 314.924 85.574, 314.835 87.854 C 314.683 91.718, 310 94.710, 310 90.943 C 310 90.351, 309.023 90.571, 307.777 91.443 C 304.656 93.630, 299.414 93.414, 297 91 C 294.497 88.497, 294 88.494, 294 90.981 C 294 92.220, 293.158 93.149, 291.750 93.462 C 288.511 94.182, 260.997 94.608, 260.999 93.938 C 260.999 93.629, 258.188 93.404, 254.750 93.438 C 250.258 93.483, 248.570 93.148, 248.750 92.250 C 248.887 91.563, 248.662 91.096, 248.250 91.212 C 247.837 91.329, 246.463 90.850, 245.195 90.148 C 243.927 89.445, 242.352 89.065, 241.695 89.304 C 241.038 89.543, 241.713 90.308, 243.195 91.004 C 246.762 92.681, 247.651 95.005, 244.719 94.985 C 242.919 94.972, 242.784 94.786, 244 94 C 245.116 93.279, 244.539 93.027, 241.750 93.015 C 239.231 93.005, 238 92.546, 238 91.617 C 238 90.145, 235.363 88.996, 230.557 88.374 C 228.938 88.164, 227.363 87.656, 227.057 87.245 C 226.751 86.833, 225.262 85.859, 223.750 85.079 C 221.999 84.177, 221 82.854, 221 81.438 C 221 80.215, 220.325 78.955, 219.500 78.638 C 218.675 78.322, 217.986 77.261, 217.968 76.281 C 217.939 74.642, 217.819 74.655, 216.468 76.441 C 214.956 78.440, 214.545 77.712, 214.948 73.750 C 215.046 72.787, 214.647 72, 214.063 72 C 213.478 72, 213 72.599, 213 73.331 C 213 74.063, 211.762 75.280, 210.250 76.035 C 205.649 78.333, 203.061 81.156, 202.420 84.576 C 201.880 87.453, 201.209 88.022, 196.654 89.463 C 193.819 90.359, 190.825 91.347, 190 91.658 C 189.175 91.969, 185.800 92.391, 182.500 92.595 C 175.311 93.041, 173.284 93.382, 172.362 94.304 C 171.980 94.687, 170.448 95, 168.958 95 C 164.829 95, 160 96.145, 160 97.125 C 160 97.606, 160.579 98, 161.286 98 C 161.993 98, 162.571 98.900, 162.571 100 C 162.571 101.100, 161.966 102, 161.227 102 C 160.487 102, 160.160 102.450, 160.500 103 C 160.840 103.550, 160.165 104, 159 104 C 155.605 104, 157.602 105.684, 161.116 105.784 C 164.017 105.867, 169.042 109, 166.273 109 C 165.638 109, 164.864 108.589, 164.554 108.088 C 164.244 107.586, 161.743 107.352, 158.995 107.568 C 156.248 107.784, 154 107.594, 154 107.147 C 154 106.699, 153.414 106.333, 152.699 106.333 C 151.983 106.333, 148.886 105.145, 145.816 103.693 L 140.234 101.052 133.867 103.233 C 130.365 104.433, 128.264 105.575, 129.198 105.771 C 130.131 105.966, 131.789 105.648, 132.882 105.063 C 133.975 104.478, 135.911 104.020, 137.184 104.045 C 139.293 104.086, 139.232 104.213, 136.500 105.464 C 134.850 106.219, 134.089 106.874, 134.809 106.919 C 135.529 106.963, 135.821 107.481, 135.458 108.068 C 135.095 108.656, 134.168 108.895, 133.399 108.600 C 131.228 107.767, 131.737 108.864, 134.750 111.516 L 137.500 113.937 132.500 114.069 C 129.750 114.142, 125.475 114.331, 123 114.490 C 116.674 114.895, 116.244 111.769, 122.342 109.715 C 124.299 109.056, 121.302 106.310, 117.880 105.626 C 114.347 104.919, 110 105.770, 110 107.167 C 110 107.690, 110.450 107.840, 111 107.500 C 111.550 107.160, 112.550 107.222, 113.222 107.637 C 113.894 108.053, 116.257 108.298, 118.472 108.183 L 122.500 107.973 117.500 109.846 C 108.668 113.156, 101.558 117.284, 106.250 116.378 C 108.336 115.975, 108.323 116.021, 106.065 117.008 C 104.726 117.593, 103.015 117.836, 102.263 117.548 C 101.511 117.259, 101.139 117.416, 101.435 117.895 C 101.732 118.375, 100.518 119.312, 98.737 119.977 C 91.474 122.691, 91.274 122.861, 95.250 122.932 C 99.030 123.001, 100.722 125, 97 125 C 94.931 125, 94.299 126.449, 95.929 127.456 C 97.210 128.248, 103.945 124.777, 103.975 123.309 C 103.989 122.654, 103.492 121.804, 102.872 121.421 C 100.774 120.124, 104.663 118.981, 111.520 118.878 C 115.182 118.824, 118.527 119.166, 118.953 119.639 C 120.656 121.533, 121.987 127.551, 121.398 130.694 C 120.893 133.383, 121.059 133.915, 122.257 133.455 C 123.091 133.135, 124.004 133.568, 124.340 134.443 C 124.895 135.890, 124.019 136.402, 121.467 136.124 C 120.899 136.063, 119.925 137.359, 119.304 139.006 C 118.090 142.223, 113.185 142.013, 113.759 138.769 C 113.936 137.765, 113.072 137.278, 111.009 137.219 C 109.354 137.172, 108 137.602, 108 138.174 C 108 138.746, 108.675 138.955, 109.500 138.638 C 110.325 138.322, 111 138.499, 111 139.031 C 111 139.564, 108.885 140, 106.300 140 C 103.095 140, 101.926 140.326, 102.623 141.023 C 103.943 142.343, 107.603 143.159, 111.926 143.097 C 113.811 143.070, 115.948 143.542, 116.676 144.146 C 118.192 145.404, 133.626 143.414, 134.602 141.835 C 134.925 141.313, 134.058 141.198, 132.584 141.568 C 129.572 142.324, 129.465 141.768, 131.511 135.970 C 132.342 133.615, 132.847 131.514, 132.635 131.301 C 131.953 130.620, 127.956 138.119, 128.516 139.027 C 128.813 139.507, 128.099 140.412, 126.929 141.038 C 124.664 142.250, 124.840 137.230, 127.164 134.339 C 127.751 133.609, 127.708 132.938, 127.049 132.530 C 126.472 132.174, 126 132.166, 126 132.512 C 126 135.676, 123.177 129.195, 122.787 125.135 C 122.262 119.672, 124.068 116.918, 126.086 120.104 C 126.722 121.110, 126.974 120.732, 126.985 118.750 C 127.003 115.528, 132.942 114.733, 136.559 117.468 C 137.626 118.276, 139.512 118.951, 140.750 118.968 C 144.132 119.016, 142.357 133.077, 137.940 141.236 C 136.606 143.701, 136.774 145, 138.429 145 C 139.214 145, 140.593 145.736, 141.493 146.636 C 142.599 147.742, 143.457 147.943, 144.143 147.257 C 144.714 146.686, 147.654 146.453, 150.871 146.724 C 157.846 147.312, 159.463 145.985, 158.437 140.516 L 157.755 136.881 155.405 139.090 L 153.054 141.298 154.108 137.899 C 154.688 136.029, 155.403 133.713, 155.698 132.750 C 156.327 130.695, 157.149 130.549, 158.800 132.200 C 159.733 133.133, 160.267 133.133, 161.200 132.200 C 163.476 129.924, 164.230 130.982, 163.552 135.500 C 162.726 141.010, 164.394 141.574, 165.771 136.250 L 166.741 132.500 166.699 137.797 C 166.676 140.710, 166.284 143.325, 165.828 143.606 C 163.440 145.082, 165.513 146.836, 171.029 148.006 C 174.345 148.710, 177.297 149.671, 177.588 150.143 C 177.880 150.614, 179.040 151, 180.166 151 C 181.621 151, 182.039 151.457, 181.608 152.579 C 181.094 153.919, 181.800 154.108, 186.251 153.826 C 191.496 153.494, 191.501 153.490, 193 148.997 C 193.825 146.524, 194.838 144.350, 195.250 144.167 C 195.662 143.983, 196.007 142.633, 196.015 141.167 C 196.027 139.078, 196.241 138.825, 197 140 C 197.729 141.128, 197.977 140.631, 198 138 C 198.017 136.075, 198.425 133.878, 198.906 133.118 C 200.270 130.964, 201.289 135.329, 200.506 139.967 C 200.097 142.383, 200.321 144.729, 201.098 146.175 C 201.785 147.454, 202.623 149.850, 202.960 151.500 C 203.507 154.176, 204.325 154.750, 210.537 156.813 C 214.367 158.085, 218.400 159.941, 219.500 160.938 C 222.658 163.799, 225.911 165.163, 228 164.500 C 230.263 163.782, 234.320 165.674, 233.469 167.050 C 232.417 168.753, 234.043 170.209, 235.576 168.937 C 236.345 168.298, 237.655 168.037, 238.487 168.357 C 239.319 168.676, 240 168.515, 240 168 C 240 167.485, 240.686 167.326, 241.526 167.648 C 242.729 168.110, 242.800 168.536, 241.861 169.667 C 240.923 170.798, 241.034 171.459, 242.390 172.800 C 244.007 174.400, 244.069 174.397, 243.443 172.739 C 242.942 171.414, 243.167 171.127, 244.351 171.581 C 245.216 171.913, 246.161 172.932, 246.451 173.845 C 247.261 176.397, 251.072 178.501, 252.042 176.931 C 253.671 174.296, 250.950 171.303, 241.886 165.762 C 229.492 158.185, 225.420 154.437, 227.416 152.441 C 228.220 151.637, 229.446 149.409, 230.140 147.490 C 230.834 145.570, 231.986 144, 232.701 144 C 234.359 144, 234.394 145.674, 232.750 146.338 C 232.003 146.639, 232.205 146.874, 233.250 146.921 C 234.213 146.964, 235 146.337, 235 145.526 C 235 143.944, 239.873 141, 242.491 141 C 244.386 141, 257.069 137.043, 258.500 136.005 C 261.964 133.493, 272.416 131.066, 273.927 132.423 C 275.650 133.969, 285.186 135.820, 291.500 135.833 C 295.166 135.841, 295.305 135.749, 293.165 134.730 C 291.078 133.737, 290.899 133.160, 291.476 129.309 C 292.180 124.620, 292.080 124.543, 287.108 125.969 C 283.494 127.005, 283.545 126.428, 287.232 124.543 C 288.480 123.905, 289.440 122.637, 289.367 121.724 C 289.275 120.585, 292.249 118.507, 298.867 115.087 C 304.165 112.349, 309.718 108.959, 311.206 107.554 C 312.695 106.149, 314.382 105, 314.956 105 C 315.530 105, 316 104.352, 316 103.559 C 316 100.180, 318.471 101.179, 323.660 106.654 C 326.708 109.869, 328.508 111.320, 327.661 109.877 C 326.814 108.435, 326.371 106.297, 326.677 105.127 C 327.351 102.549, 326.206 102.360, 324.392 104.750 C 323.165 106.366, 323.061 106.324, 323.032 104.191 C 323.014 102.921, 322.597 102.131, 322.105 102.435 C 320.564 103.388, 320.284 100.614, 321.657 98 C 322.380 96.625, 322.977 96.053, 322.985 96.729 C 322.997 97.676, 323.572 97.696, 325.500 96.818 C 327.998 95.680, 329.239 88.572, 327.281 86.615 C 326.886 86.220, 326.695 82.272, 326.857 77.842 C 327.019 73.413, 326.780 70.015, 326.326 70.292 C 325.872 70.569, 325.395 68.998, 325.266 66.800 C 325.081 63.660, 325.420 62.703, 326.848 62.329 C 327.848 62.068, 329.089 60.650, 329.608 59.177 C 330.297 57.218, 330.584 59.931, 330.676 69.290 C 330.802 82.002, 332.243 90.127, 334.741 92.200 C 335.638 92.944, 336 92.888, 336 92.006 C 336 91.258, 336.795 90.975, 338.007 91.292 C 339.228 91.611, 340.502 91.150, 341.257 90.116 C 343.704 86.766, 348.695 88.530, 349.419 93 C 349.464 93.275, 350.295 93.391, 351.267 93.259 C 352.673 93.067, 352.909 93.515, 352.423 95.452 C 351.566 98.863, 352.632 100.247, 354.985 98.778 C 356.459 97.857, 357.421 97.887, 359.343 98.916 C 360.699 99.642, 362.293 99.937, 362.884 99.572 C 363.475 99.206, 364.868 99.394, 365.979 99.989 C 367.109 100.593, 368 100.662, 368 100.144 C 368 99.048, 363.282 97.708, 362.067 98.458 C 361.605 98.744, 360.671 98.308, 359.991 97.489 C 359.311 96.670, 357.985 96, 357.044 96 C 356.103 96, 355.333 95.345, 355.333 94.544 C 355.333 93.743, 355.718 93.325, 356.187 93.616 C 357.225 94.257, 363.128 89.461, 362.309 88.642 C 361.990 88.323, 363.094 88.453, 364.763 88.932 C 367.678 89.768, 370 88.822, 370 86.800 C 370 85.472, 373.901 82, 375.393 82 C 376.159 82, 377.023 81.383, 377.312 80.629 C 377.615 79.840, 378.935 79.378, 380.419 79.541 C 381.839 79.696, 383 79.482, 383 79.064 C 383 78.646, 384.462 78.286, 386.250 78.263 C 389.353 78.223, 389.386 78.261, 386.988 79.114 C 385.606 79.606, 383.866 81.019, 383.120 82.254 C 382.052 84.024, 382.044 84.235, 383.082 83.250 C 384.618 81.793, 388 81.573, 388 82.930 C 388 83.442, 386.988 84.076, 385.750 84.339 C 384.239 84.660, 384.485 84.765, 386.500 84.659 C 388.405 84.558, 389.400 84.016, 389.225 83.176 C 389.074 82.447, 389.392 82.124, 389.932 82.458 C 390.471 82.791, 390.623 83.837, 390.269 84.782 C 389.731 86.219, 389.875 86.297, 391.155 85.259 C 391.996 84.576, 392.942 84.275, 393.256 84.590 C 393.571 84.904, 394.743 84.673, 395.861 84.074 C 397.493 83.201, 398.095 83.333, 398.916 84.743 C 399.630 85.969, 399.948 77.202, 399.970 55.750 L 400 25 393.647 25 C 381.726 25, 374.414 23.884, 377.060 22.468 L 379.346 21.245 377.158 20.550 C 375.955 20.168, 375.181 19.516, 375.438 19.100 C 375.696 18.684, 373.340 18.470, 370.203 18.626 C 365.757 18.846, 365.161 18.724, 367.500 18.073 C 369.150 17.613, 369.911 17.183, 369.191 17.118 C 368.471 17.053, 368.149 16.567, 368.476 16.038 C 368.856 15.425, 370.014 15.435, 371.674 16.066 C 374.479 17.132, 375.962 16.562, 374.412 15.012 C 372.697 13.297, 357 13.286, 357 15 C 357 15.550, 358.012 16.046, 359.250 16.102 C 360.871 16.176, 360.521 16.472, 358 17.162 C 352.008 18.800, 329.353 18.472, 320.500 16.619 C 316.100 15.698, 311.703 14.929, 310.728 14.912 C 309.754 14.894, 309.248 14.408, 309.604 13.832 C 310.020 13.159, 309.493 13.026, 308.125 13.460 C 306.864 13.860, 306 13.701, 306 13.067 C 306 12.480, 305.298 12, 304.441 12 C 303.515 12, 303.172 12.470, 303.597 13.158 C 304.099 13.969, 303.594 14.123, 301.906 13.671 C 300.583 13.317, 297.363 13.021, 294.750 13.014 C 289.629 12.999, 288.248 11.405, 292.750 10.705 C 294.262 10.470, 293.025 10.281, 290 10.284 C 286.975 10.288, 282.250 10.010, 279.500 9.666 C 276.750 9.323, 273.600 9.451, 272.500 9.950 M 180.612 52.569 C 180.197 53.650, 179.347 53.927, 177.880 53.462 C 176.518 53.030, 175.981 53.160, 176.391 53.824 C 177.140 55.035, 176.501 55.484, 172.750 56.381 C 170.629 56.888, 170 56.675, 170 55.452 C 170 54.289, 169.432 54.045, 167.875 54.540 C 166.542 54.963, 165.430 54.708, 164.890 53.857 C 164.196 52.762, 164.028 52.799, 164.015 54.050 C 164.007 54.902, 164.563 56.167, 165.250 56.859 C 166.253 57.869, 166.104 57.992, 164.500 57.478 C 162.528 56.846, 162.527 56.859, 164.441 58.418 C 166.343 59.968, 166.337 60, 164.146 60 C 162.131 60, 161.975 59.652, 162.566 56.500 C 162.996 54.206, 162.840 53, 162.111 53 C 161.500 53, 161 53.450, 161 54 C 161 54.550, 160.564 55, 160.031 55 C 159.499 55, 159.321 54.326, 159.637 53.502 C 160.064 52.392, 159.567 52.058, 157.718 52.211 C 156.333 52.326, 155.416 52.921, 155.657 53.549 C 155.896 54.171, 155.283 55.314, 154.296 56.090 C 152.677 57.361, 152.629 57.336, 153.807 55.829 C 154.949 54.368, 154.856 54.225, 153.068 54.692 C 151.943 54.987, 151.297 55.671, 151.632 56.213 C 151.967 56.756, 151.233 56.660, 150 56 C 148.767 55.340, 148.029 55.238, 148.360 55.773 C 148.719 56.355, 147.161 56.697, 144.487 56.623 C 141.706 56.547, 140.010 56.039, 140.006 55.281 C 140.003 54.611, 139.355 54.310, 138.566 54.613 C 136.830 55.279, 137.006 60.445, 138.771 60.625 C 139.447 60.694, 140.450 60.806, 141 60.875 C 141.550 60.944, 142 61.505, 142 62.122 C 142 62.948, 141.645 62.950, 140.658 62.131 C 139.278 60.986, 138 61.564, 138 63.333 C 138 63.883, 138.284 64.049, 138.631 63.702 C 138.979 63.355, 140.104 63.520, 141.131 64.070 C 142.229 64.658, 143 64.687, 143 64.142 C 143 63.632, 143.652 62.964, 144.449 62.658 C 145.316 62.325, 145.715 62.583, 145.441 63.301 C 145.147 64.070, 146.151 64.537, 148.242 64.602 C 150.034 64.658, 150.938 64.508, 150.250 64.269 C 148.530 63.670, 148.682 62.336, 150.552 61.618 C 151.606 61.214, 151.865 61.420, 151.360 62.261 C 150.942 62.957, 151.434 62.842, 152.481 62 C 154.208 60.612, 154.304 60.668, 153.767 62.751 C 153.448 63.990, 153.595 64.751, 154.093 64.442 C 154.592 64.134, 155 64.359, 155 64.941 C 155 65.523, 155.450 66, 156 66 C 156.550 66, 157 65.298, 157 64.441 C 157 63.460, 157.463 63.160, 158.250 63.633 C 159.110 64.150, 159.075 63.860, 158.137 62.704 C 156.422 60.588, 159.188 59.082, 161.407 60.923 C 162.168 61.554, 163.174 61.979, 163.645 61.867 C 165.928 61.324, 172 63.361, 172 64.670 C 172 65.467, 171.550 65.840, 171 65.500 C 170.450 65.160, 170 65.359, 170 65.941 C 170 66.523, 170.450 67, 171 67 C 171.550 67, 172 67.702, 172 68.559 C 172 69.481, 172.471 69.827, 173.152 69.406 C 173.785 69.015, 174.855 69.448, 175.528 70.369 C 176.454 71.635, 177.333 71.828, 179.126 71.157 C 180.432 70.669, 182.400 70.627, 183.500 71.064 C 186.383 72.211, 191 72.171, 191 71 C 191 70.450, 190.287 70, 189.417 70 C 188.546 70, 188.019 69.442, 188.247 68.760 C 188.500 68, 190.039 67.640, 192.229 67.828 C 194.275 68.005, 196.120 67.614, 196.554 66.913 C 197.068 66.080, 196.892 65.949, 196 66.500 C 195.085 67.066, 194.931 66.921, 195.489 66.018 C 196.363 64.604, 199.935 68.370, 199.978 70.750 C 200.005 72.291, 202 72.433, 202 70.893 C 202 70.284, 202.647 70.034, 203.437 70.338 C 204.391 70.704, 205.782 69.309, 207.569 66.195 C 209.051 63.613, 211.197 59.925, 212.338 58 C 213.675 55.745, 213.895 54.857, 212.956 55.505 C 209.995 57.548, 199.767 56.691, 196.127 54.094 C 193.083 51.923, 192.663 51.850, 191.827 53.344 C 191.318 54.255, 190.221 55, 189.391 55 C 188.561 55, 188.121 54.613, 188.414 54.139 C 188.707 53.666, 187.140 53.609, 184.933 54.012 C 181.057 54.721, 180.978 54.682, 182.615 52.873 C 184.088 51.246, 184.107 51, 182.762 51 C 181.911 51, 180.943 51.706, 180.612 52.569 M 270.114 206.637 C 270.960 207.657, 270.947 208, 270.063 208 C 269.414 208, 269.157 208.446, 269.494 208.990 C 269.890 209.632, 264.711 209.896, 254.803 209.740 C 245.811 209.599, 237.456 209.978, 234.544 210.659 C 230.228 211.669, 229.423 211.604, 228.313 210.159 C 227.192 208.701, 226.917 208.681, 226.034 210 C 224.355 212.509, 224.730 212.694, 232.750 213.305 C 237.012 213.630, 243.806 215.045, 247.846 216.448 C 251.886 217.852, 256.633 219, 258.396 219 C 260.158 219, 262.027 219.408, 262.550 219.907 C 264.904 222.154, 271.456 223.053, 272.750 221.305 C 273.517 220.270, 274 220.101, 274 220.868 C 274 221.555, 274.487 221.817, 275.081 221.450 C 275.676 221.082, 277.439 222.005, 279 223.500 C 281.570 225.962, 284.892 226.252, 283.430 223.887 C 283.099 223.351, 285.025 224.264, 287.709 225.916 C 294.209 229.916, 300.525 227.925, 295.927 223.327 C 295.162 222.562, 296.314 221.728, 299.927 220.429 C 306.801 217.957, 306.311 216.700, 298.750 217.408 C 295.313 217.730, 290.475 218.142, 288 218.324 C 285.525 218.506, 282.747 218.993, 281.827 219.405 C 280.651 219.932, 279.809 219.512, 278.996 217.992 C 278.359 216.802, 276.864 214.708, 275.673 213.339 C 274.463 211.948, 273.641 209.835, 273.809 208.551 C 274.042 206.770, 273.535 206.144, 271.546 205.764 C 269.468 205.367, 269.197 205.532, 270.114 206.637 M 53.800 222.200 C 57.504 225.904, 52.629 228.184, 48.293 224.775 C 47.497 224.150, 46.314 224.367, 44.820 225.413 C 43.574 226.286, 41.767 227, 40.803 227 C 39.840 227, 38.374 228.309, 37.547 229.910 C 36.719 231.510, 35.470 233.051, 34.771 233.334 C 33.792 233.729, 33.838 234.083, 34.972 234.870 C 36.245 235.754, 36.218 235.979, 34.770 236.535 C 32.216 237.515, 30.808 236.227, 32 234 C 33.264 231.637, 31.540 230.307, 29.456 232.036 C 26.899 234.159, 27.640 237.885, 30.750 238.547 C 32.263 238.868, 34.752 239.811, 36.283 240.642 C 38.820 242.019, 39.626 241.971, 45.412 240.102 C 48.902 238.974, 53.342 238.111, 55.278 238.184 C 57.299 238.260, 60.356 237.397, 62.456 236.158 C 67.510 233.177, 89.050 233.379, 84.222 236.363 C 82.323 237.536, 88.584 250, 91.072 250 C 91.647 250, 91.791 249.471, 91.392 248.825 C 90.992 248.178, 89.894 243.874, 88.951 239.261 L 87.237 230.872 89.707 227.936 C 92.806 224.254, 92.334 224.265, 85.951 228.029 L 80.814 231.057 75.657 228.664 C 72.821 227.347, 68.250 225.494, 65.500 224.546 C 62.750 223.598, 59.719 222.413, 58.764 221.911 C 56.062 220.493, 52.311 220.711, 53.800 222.200" stroke="none" fill="#1a1a2e" fill-rule="evenodd"/>
</svg>