<svg xmlns="http://www.w3.org/2000/svg" width="400" height="205" viewBox="0 0 400 205" version="1.1">
	<path d="M -0 78.640 C -0 161.733, -0.100 159.723, 4.037 159.968 C 5.098 160.031, 4.882 155.560, 3.751 154.046 C 2.789 152.758, 2.830 152.709, 3.998 153.750 C 4.769 154.438, 6.102 155, 6.959 155 C 7.817 155, 9.104 155.938, 9.820 157.084 C 10.579 158.298, 11.738 158.931, 12.599 158.601 C 13.411 158.289, 14.331 158.699, 14.643 159.511 C 14.954 160.324, 15.642 160.721, 16.170 160.395 C 17.478 159.586, 14.112 156, 12.045 156 C 10.005 156, 8 154.083, 8 152.133 C 8 151.327, 8.284 150.951, 8.631 151.298 C 8.979 151.645, 10.158 151.451, 11.252 150.865 C 12.747 150.065, 13.059 150.095, 12.508 150.987 C 11.987 151.830, 12.751 152.089, 15.152 151.882 C 17.009 151.722, 19.085 151.934, 19.764 152.354 C 20.444 152.774, 21 152.729, 21 152.255 C 21 151.780, 22.858 151.281, 25.128 151.147 C 29.692 150.878, 37 154.797, 37 157.514 C 37 159.092, 39.652 159.315, 44 158.104 C 46.160 157.503, 46.256 157.314, 44.707 156.719 C 43.273 156.168, 43.124 155.637, 43.963 154.068 C 44.789 152.525, 44.639 151.868, 43.257 150.985 C 41.721 150.003, 41.793 149.925, 43.833 150.359 C 45.211 150.653, 48.032 149.863, 50.731 148.428 C 55.810 145.728, 59.347 145.424, 65.223 147.185 C 68.271 148.098, 69.613 148.098, 71.075 147.185 C 73.734 145.525, 79.513 145.708, 81 147.500 C 82.569 149.391, 87.745 149.367, 95.500 147.432 C 112.347 143.228, 135.022 144.854, 134.985 150.263 C 134.966 153.006, 133.375 155.709, 132.371 154.704 C 131.965 154.299, 132.166 153.434, 132.817 152.783 C 133.468 152.132, 134 151.231, 134 150.781 C 134 149.592, 128.686 151.010, 127.458 152.526 C 126.750 153.401, 125.881 153.513, 124.744 152.876 C 121.231 150.910, 94.909 149.599, 95.610 151.425 C 95.948 152.308, 94.804 152.936, 92.055 153.375 C 89.825 153.732, 88 154.416, 88 154.895 C 88 156.255, 82.649 156.946, 81.227 155.770 C 80.263 154.972, 80.107 155.115, 80.584 156.359 C 81.045 157.560, 80.650 158, 79.107 158 C 77.948 158, 77 158.470, 77 159.044 C 77 159.618, 76.437 159.974, 75.750 159.834 C 75.063 159.695, 73.487 160.141, 72.250 160.825 C 71.013 161.510, 70 161.760, 70 161.380 C 70 161.001, 69.165 161.446, 68.145 162.369 C 67.101 163.313, 65.569 163.772, 64.645 163.417 C 63.510 162.982, 63 163.321, 63 164.510 C 63 165.799, 62.384 166.115, 60.550 165.765 C 59.009 165.470, 57.898 165.824, 57.555 166.717 C 57.207 167.623, 56.283 167.907, 55.005 167.502 C 53.580 167.049, 53 167.319, 53 168.433 C 53 170.290, 50.894 170.494, 49.200 168.800 C 48.267 167.867, 48 168.200, 48 170.300 C 48 173.377, 46.870 173.754, 44.872 171.344 C 43.635 169.851, 43.450 169.973, 42.992 172.585 L 42.483 175.483 40.180 173.180 C 37.823 170.823, 37.621 167.284, 39.872 167.771 C 40.660 167.941, 40.452 167.117, 39.312 165.552 C 37.202 162.653, 35.648 162.231, 36.360 164.750 C 38.314 171.656, 38.242 177.500, 36.226 175.690 C 33.773 173.488, 32.538 168.609, 34.637 169.414 C 35.448 169.725, 35.093 168.693, 33.779 166.914 C 32.547 165.248, 31.375 164.376, 31.175 164.976 C 30.975 165.576, 31.278 166.630, 31.848 167.317 C 32.454 168.047, 32.530 169.143, 32.030 169.952 C 31.496 170.815, 31.762 172.234, 32.736 173.719 C 34.681 176.688, 33.066 179.130, 30.542 177.035 C 28.690 175.498, 28.498 171.346, 30.250 170.719 C 31.048 170.433, 30.503 169.471, 28.740 168.056 C 27.223 166.837, 26.280 165.356, 26.645 164.765 C 27.055 164.101, 26.835 163.984, 26.067 164.458 C 25.173 165.011, 25.130 165.530, 25.913 166.313 C 26.511 166.911, 27 168.516, 27 169.879 C 27 171.242, 27.536 173.841, 28.192 175.654 C 29.571 179.467, 28.710 180.924, 26.057 179.267 C 24.499 178.295, 24.117 178.446, 23.653 180.220 C 23.188 181.999, 22.859 182.128, 21.551 181.042 C 19.692 179.499, 19.493 175.337, 21.250 174.746 C 22.246 174.411, 22.248 174.019, 21.259 172.821 C 20.576 171.993, 20.351 170.982, 20.759 170.575 C 21.166 170.167, 20.881 169.983, 20.125 170.167 C 19.369 170.350, 18.544 169.938, 18.292 169.250 C 17.658 167.522, 20.485 167.675, 21.956 169.447 C 22.617 170.243, 23.072 171.930, 22.968 173.197 C 22.635 177.253, 22.977 177.567, 24.517 174.615 C 25.544 172.646, 25.703 171.347, 25.019 170.523 C 24.468 169.859, 24.351 168.982, 24.759 168.575 C 25.166 168.167, 24.881 167.983, 24.125 168.167 C 23.369 168.350, 22.544 167.938, 22.292 167.250 C 22.040 166.562, 22.321 166, 22.917 166 C 23.512 166, 24 165.339, 24 164.531 C 24 163.637, 23.414 163.288, 22.500 163.638 C 21.675 163.955, 21 163.716, 21 163.107 C 21 162.498, 22.125 162, 23.500 162 C 24.875 162, 26 161.522, 26 160.937 C 26 160.353, 25.212 159.954, 24.250 160.052 C 21.068 160.376, 20.141 160.019, 19.569 158.250 C 19.258 157.287, 17.790 155.939, 16.308 155.253 C 13.746 154.067, 13.782 154.179, 17.035 157.537 C 20.371 160.978, 20.401 161.082, 18.229 161.650 C 15.629 162.330, 15.431 163.288, 17.470 165.328 C 19.948 167.806, 14.572 168.534, 11.199 166.178 C 9.715 165.140, 7.304 164.003, 5.843 163.650 C 4.381 163.297, 2.469 162.733, 1.593 162.397 C 0.243 161.879, 0 162.717, 0 167.893 C -0 174.403, 0.788 175.212, 4 172 C 6.246 169.754, 7.506 169.355, 6.367 171.250 C 5.897 172.032, 6.344 171.950, 7.558 171.033 C 8.626 170.226, 9.653 169.473, 9.840 169.360 C 10.027 169.246, 8.227 168.681, 5.840 168.103 L 1.500 167.052 6.860 167.575 C 14.222 168.293, 18.952 171.348, 18.985 175.405 C 18.999 177.239, 18.926 177.243, 17.024 175.521 C 15.937 174.538, 15.288 173.343, 15.583 172.866 C 15.877 172.390, 15.416 172, 14.559 172 C 13.702 172, 13 171.564, 13 171.031 C 13 170.499, 12.305 170.330, 11.455 170.656 C 10.154 171.155, 10.233 171.475, 11.955 172.681 C 13.080 173.469, 14 175.043, 14 176.179 C 14 177.895, 13.748 178.036, 12.511 177.009 C 11.692 176.329, 11.269 175.374, 11.570 174.887 C 11.871 174.399, 11.454 174, 10.642 174 C 9.831 174, 8.955 173.437, 8.697 172.750 C 8.436 172.056, 7.617 172.890, 6.857 174.623 C 5.702 177.256, 5.282 177.528, 4.184 176.351 C 2.519 174.569, 1.368 175.297, 0.751 178.521 C 0.391 180.404, 0.817 181.366, 2.382 182.199 C 4.232 183.185, 4.340 183.133, 3.233 181.790 C 2.536 180.945, 2.242 179.532, 2.581 178.651 C 3.348 176.650, 9.475 180.884, 10.283 183.973 C 10.932 186.458, 7.951 187.654, 6.399 185.531 C 5.377 184.134, 5.185 184.185, 4.716 185.977 C 3.932 188.975, 1.205 188.479, 0.716 185.250 C 0.487 183.738, 0.232 186.282, 0.150 190.905 L -0 199.310 2.133 197.405 C 4.673 195.136, 4.047 199.033, 1.382 202.079 C 0.622 202.947, -0 203.988, -0 204.392 C -0 205.897, 29.257 204.600, 30.832 203.025 C 32.708 201.149, 26.407 199.515, 22.713 200.919 C 21.284 201.462, 19.691 201.407, 18.560 200.774 C 17.319 200.079, 16.930 200.078, 17.357 200.769 C 18.067 201.918, 16.107 202.918, 14.350 202.303 C 13.192 201.897, 15.563 194.103, 16.902 193.917 C 17.231 193.871, 18.554 193.718, 19.842 193.577 C 21.130 193.436, 22.586 192.686, 23.077 191.910 C 23.677 190.962, 23.974 190.899, 23.985 191.719 C 23.993 192.389, 24.634 192.694, 25.410 192.396 C 26.251 192.073, 27.078 192.670, 27.461 193.877 C 27.853 195.113, 28.665 195.682, 29.551 195.342 C 30.446 194.999, 31 195.401, 31 196.393 C 31 197.277, 31.506 198, 32.125 198 C 32.837 198, 33.034 199.081, 32.661 200.944 C 31.820 205.149, 40.140 206.156, 52.920 203.396 C 54.939 202.960, 55.174 203.071, 54 203.910 C 52.926 204.678, 64.556 204.914, 95 204.741 L 137.500 204.500 137.500 202 C 137.500 199.829, 137.082 199.518, 134.324 199.639 C 131.769 199.752, 131.268 199.458, 131.761 198.139 C 132.297 196.707, 132.158 196.676, 130.664 197.891 C 129.195 199.087, 129.032 199.079, 129.509 197.837 C 130.240 195.933, 120.492 194.263, 113.500 195.094 C 108.434 195.696, 104.270 193.311, 102.826 188.979 C 102.551 188.154, 100.935 187.716, 98.502 187.807 L 94.616 187.954 98.305 185.977 C 100.333 184.890, 102.937 184, 104.092 184 C 106.841 184, 112 180.923, 112 179.284 C 112 178.578, 112.730 178, 113.622 178 C 114.951 178, 115.020 177.729, 114 176.500 C 113.226 175.568, 113.154 175, 113.810 175 C 114.390 175, 115.151 175.900, 115.500 177 C 116.008 178.599, 117.073 179.024, 120.817 179.118 C 134.497 179.464, 134.733 183.488, 121.262 186.696 C 120.031 186.989, 119.229 187.561, 119.480 187.968 C 119.731 188.374, 122.089 188.147, 124.718 187.462 C 130.723 185.898, 132.123 186.990, 129.193 190.953 C 126.235 194.954, 126.391 195.319, 130.750 194.600 C 132.813 194.260, 136.769 193.713, 139.543 193.384 C 143.716 192.890, 144.866 192.298, 146.211 189.956 C 147.104 188.399, 149.672 186.187, 151.918 185.042 C 154.163 183.897, 156 182.717, 156 182.421 C 156 182.124, 155.438 182.200, 154.750 182.588 C 153.814 183.116, 153.781 182.988, 154.622 182.075 C 155.239 181.405, 157.714 180.690, 160.122 180.487 C 166.650 179.937, 170.152 178.656, 171.764 176.228 C 173.365 173.818, 173.348 173.805, 164.500 170.977 C 153.409 167.433, 150.429 165.331, 150.895 161.383 C 150.967 160.769, 150.259 159.644, 149.321 158.883 C 148.179 157.957, 147.864 157.913, 148.367 158.750 C 148.780 159.438, 148.641 160, 148.059 160 C 146.261 160, 146.878 158.674, 149.750 156.362 C 151.931 154.607, 152.246 153.890, 151.274 152.898 C 150.294 151.899, 149.675 151.984, 148.195 153.324 C 147.176 154.246, 145.344 155, 144.124 155 C 142.903 155, 140.908 156.075, 139.691 157.389 C 138.181 159.018, 136.606 159.682, 134.739 159.477 C 133.232 159.311, 132 159.586, 132 160.088 C 132 160.590, 131.298 161, 130.441 161 C 129.584 161, 129.160 161.450, 129.500 162 C 129.840 162.550, 129.604 163, 128.976 163 C 128.347 163, 128.027 162.438, 128.263 161.750 C 128.499 161.063, 128.343 159.262, 127.916 157.750 C 127.014 154.555, 127.576 154.321, 130.317 156.750 C 131.765 158.033, 132.409 158.166, 132.729 157.250 C 132.970 156.562, 133.966 156, 134.943 156 C 136.691 156, 146 148.515, 146 147.108 C 146 146.712, 143.965 144.202, 141.478 141.531 C 135.245 134.838, 133.896 125.976, 139.943 131.448 C 141.871 133.193, 141.921 133.185, 141.536 131.189 C 139.756 121.946, 238.021 116.397, 260 124.500 C 266.897 127.042, 281.102 128.900, 295.750 129.174 C 303.038 129.310, 309 129.777, 309 130.211 C 309 130.645, 309.477 131, 310.059 131 C 310.641 131, 310.857 130.577, 310.537 130.061 C 310.218 129.544, 310.835 129.187, 311.909 129.268 C 312.983 129.349, 313.601 129.837, 313.282 130.353 C 312.951 130.888, 313.827 131.075, 315.321 130.789 C 316.899 130.488, 317.697 130.681, 317.331 131.274 C 316.987 131.831, 317.326 131.986, 318.111 131.630 C 318.875 131.284, 320.288 130.724, 321.250 130.384 C 322.212 130.045, 323 129.327, 323 128.790 C 323 128.223, 324.781 128.041, 327.250 128.356 C 329.588 128.654, 331.691 128.921, 331.924 128.949 C 332.158 128.977, 331.258 130.238, 329.924 131.750 C 328.591 133.263, 327.897 134.178, 328.381 133.785 C 328.866 133.392, 330.152 133.546, 331.239 134.128 C 332.659 134.888, 333.536 134.861, 334.357 134.033 C 335.218 133.166, 335.027 133.062, 333.586 133.611 C 332.259 134.116, 331.891 133.985, 332.388 133.181 C 332.856 132.425, 332.566 132.229, 331.552 132.618 C 329.248 133.503, 329.673 132.246, 332.121 130.935 C 333.794 130.040, 334.076 130.068, 333.457 131.070 C 332.896 131.978, 333.162 132.152, 334.388 131.681 C 335.407 131.290, 335.856 131.424, 335.493 132.011 C 335.157 132.555, 335.414 133, 336.063 133 C 336.897 133, 336.840 133.497, 335.872 134.687 C 334.653 136.186, 334.723 136.291, 336.500 135.628 C 338.081 135.038, 338.244 135.139, 337.277 136.114 C 336.339 137.058, 335.468 137.079, 333.539 136.200 C 329.778 134.486, 328.343 135.497, 328.814 139.529 C 329.036 141.438, 329.646 143, 330.168 143 C 330.691 143, 330.824 142.524, 330.465 141.943 C 329.222 139.933, 330.884 136.018, 332.687 136.710 C 334.174 137.281, 334.146 137.438, 332.427 138.172 C 331.120 138.730, 331.627 138.839, 334 138.509 C 335.925 138.242, 336.938 138.281, 336.250 138.595 C 335.562 138.909, 335 139.804, 335 140.583 C 335 141.363, 334.325 142, 333.500 142 C 329.210 142, 332.785 144.017, 337.250 144.116 C 340.137 144.180, 341.707 144.439, 340.738 144.692 C 339.769 144.945, 339.233 145.567, 339.547 146.076 C 339.861 146.584, 338.940 147, 337.500 147 C 336.009 147, 335.148 146.569, 335.500 146 C 335.840 145.450, 335.491 145, 334.726 145 C 333.960 145, 333.333 145.675, 333.333 146.500 C 333.333 147.325, 333.763 148, 334.289 148 C 334.815 148, 334.715 148.639, 334.067 149.419 C 333.137 150.540, 333.269 151.069, 334.695 151.933 C 336.198 152.844, 336.040 152.923, 333.750 152.405 C 331.965 152.002, 331 152.193, 331 152.951 C 331 153.593, 331.520 153.797, 332.155 153.405 C 332.847 152.977, 333.038 153.129, 332.633 153.784 C 332.262 154.385, 332.692 155.288, 333.588 155.790 C 335.090 156.630, 335.088 156.752, 333.558 157.340 C 332.644 157.690, 332.142 157.579, 332.442 157.093 C 332.743 156.607, 332.299 155.945, 331.456 155.622 C 330.589 155.289, 329.678 155.675, 329.357 156.511 C 329.046 157.324, 328.318 157.697, 327.741 157.340 C 327.119 156.956, 326.989 157.173, 327.421 157.872 C 327.822 158.522, 328.679 158.988, 329.325 158.908 C 332.244 158.548, 333.543 159.004, 332.136 159.895 C 331.332 160.404, 328.765 160.229, 325.886 159.470 C 323.199 158.761, 321 158.590, 321 159.091 C 321 159.591, 321.915 160, 323.033 160 C 325.835 160, 334.572 164.550, 336.180 166.847 C 336.906 167.883, 339.073 169.077, 340.996 169.499 C 348.347 171.114, 351 173.060, 351 176.840 L 351 180.310 348.781 178.405 C 347.561 177.357, 346.008 175.992, 345.331 175.371 C 344.653 174.750, 342.118 173.945, 339.696 173.582 C 337.274 173.218, 334.381 172.072, 333.266 171.033 C 331.469 169.359, 331.007 169.307, 329.197 170.574 C 325.584 173.105, 321.229 171.717, 319.640 167.528 C 319.013 165.874, 318.742 165.793, 317.962 167.028 C 317.450 167.838, 317.020 168.050, 317.008 167.500 C 316.970 165.878, 312.661 164.352, 308.689 164.554 C 306.257 164.678, 305 164.305, 305 163.460 C 305 160.861, 297.171 165.833, 297.026 168.524 C 297.012 168.786, 297 169.410, 297 169.912 C 297 170.413, 296.213 170.672, 295.250 170.488 C 294.288 170.304, 292.600 170.112, 291.500 170.061 C 289.870 169.986, 289.772 169.797, 290.971 169.039 C 292.823 167.868, 291.638 166.541, 289.480 167.369 C 288.596 167.708, 288.181 168.484, 288.557 169.093 C 289.055 169.898, 288.675 169.896, 287.164 169.088 C 286.021 168.476, 284.729 167.408, 284.293 166.714 C 280.321 160.393, 268.617 161.242, 264.937 168.117 C 264.367 169.184, 263.564 169.848, 263.153 169.595 C 261.389 168.504, 244.996 167.917, 244.875 168.940 C 244.806 169.523, 244.637 170.450, 244.500 171 C 244.363 171.550, 244.194 172.505, 244.125 173.122 C 244.038 173.902, 243.534 173.858, 242.476 172.980 C 241.638 172.284, 240.673 171.993, 240.333 172.333 C 239.378 173.288, 242.091 176.062, 243.268 175.334 C 243.920 174.931, 244.003 175.186, 243.490 176.015 C 242.868 177.022, 243.131 177.145, 244.586 176.529 C 250.031 174.220, 259.497 175.445, 262.231 178.812 C 263.305 180.134, 263.233 180.274, 261.762 179.723 C 260.143 179.117, 259.643 180.725, 261.053 182 C 262.952 183.717, 266.997 189.920, 266.985 191.094 C 266.972 192.239, 266.789 192.221, 266 191 C 265.467 190.175, 265.009 189.950, 264.984 190.500 C 264.958 191.050, 264.276 190.626, 263.468 189.559 C 262.661 188.491, 262 188.127, 262 188.750 C 262 189.373, 262.398 190.128, 262.885 190.429 C 263.371 190.729, 263.966 192.314, 264.206 193.949 C 265.100 200.039, 259.345 198.502, 250.359 190.250 C 249.012 189.012, 247.534 188, 247.076 188 C 245.942 188, 243.568 182.082, 243.748 179.700 C 243.827 178.641, 243.619 178.048, 243.284 178.382 C 242.950 178.717, 241.287 177.932, 239.588 176.639 C 237.890 175.346, 235.375 173.969, 234 173.578 C 231.993 173.009, 231.796 173.096, 233 174.019 C 234.201 174.939, 233.895 175.065, 231.462 174.652 C 229.664 174.346, 225.684 175.057, 221.712 176.394 C 218.020 177.636, 215 178.518, 215 178.354 C 215 177.711, 227.303 171.995, 228.853 171.918 C 229.759 171.874, 228.925 171.119, 227 170.242 L 223.500 168.647 226.500 167.942 C 228.150 167.554, 231.637 167.183, 234.250 167.118 C 238.055 167.024, 241.637 165, 238 165 C 237.450 165, 237 164.502, 237 163.893 C 237 163.284, 237.577 163.008, 238.283 163.278 C 240.074 163.966, 243.289 161.132, 245.306 157.088 C 247.093 153.506, 246.958 152.290, 244.915 153.553 C 242.346 155.140, 236.531 154.536, 234.783 152.500 C 233.617 151.142, 233.056 150.940, 233.033 151.872 C 233.006 152.979, 232.709 153.004, 231.500 152 C 229.511 150.349, 229.583 148.903, 231.615 149.683 C 232.900 150.176, 233.091 149.862, 232.548 148.151 C 232.140 146.867, 232.295 146, 232.933 146 C 233.520 146, 234 146.627, 234 147.393 C 234 148.159, 234.698 149.054, 235.552 149.382 C 236.442 149.723, 236.843 149.555, 236.493 148.989 C 236.157 148.445, 236.557 148, 237.382 148 C 238.207 148, 239.140 148.417, 239.454 148.926 C 239.788 149.466, 241.242 149.504, 242.938 149.018 C 244.539 148.559, 246.133 148.466, 246.479 148.812 C 246.825 149.159, 247.433 148.917, 247.830 148.276 C 248.339 147.451, 249.715 147.372, 252.525 148.008 C 260.926 149.906, 320.410 147.108, 316.962 144.976 C 315.598 144.133, 310.833 144.367, 309.234 145.356 C 308.631 145.728, 307.842 145.553, 307.480 144.968 C 307.038 144.252, 306.426 144.231, 305.615 144.905 C 304.951 145.456, 303.529 145.912, 302.454 145.919 C 301.379 145.926, 298.925 145.991, 297 146.063 C 288.005 146.402, 282.524 145.954, 284 145 C 284.825 144.467, 285.012 144.024, 284.417 144.015 C 283.821 144.007, 283.005 144.328, 282.604 144.730 C 282.203 145.131, 279.765 145.525, 277.187 145.606 C 274.609 145.686, 273.263 145.555, 274.195 145.314 C 275.193 145.055, 275.659 144.276, 275.330 143.417 C 274.867 142.210, 274.488 142.280, 273.135 143.822 C 271.490 145.697, 268 146.384, 268 144.833 C 268 144.375, 268.450 144, 269 144 C 269.550 144, 270 143.480, 270 142.845 C 270 142.154, 269.265 142.355, 268.171 143.345 C 265.759 145.528, 265.223 145.436, 264.706 142.750 C 264.273 140.505, 264.272 140.505, 264.136 142.688 C 264.043 144.193, 263.397 144.830, 262.069 144.730 C 261.007 144.650, 260.276 144.341, 260.444 144.042 C 260.612 143.744, 260.388 142.600, 259.945 141.500 C 259.223 139.705, 259.133 139.687, 259.070 141.323 C 258.993 143.331, 255.500 143.327, 255.500 141.320 C 255.500 138.664, 253.993 138.916, 253.921 141.583 C 253.878 143.187, 253.615 143.938, 253.338 143.250 C 253.060 142.563, 252.148 142, 251.310 142 C 250.366 142, 250.005 141.429, 250.362 140.500 C 251.001 138.834, 249.474 138.424, 248.500 140 C 247.519 141.587, 246.277 141.167, 245.727 139.065 C 245.362 137.667, 244.635 137.283, 243.111 137.681 C 241.894 138, 241 137.760, 241 137.117 C 241 136.502, 240.550 136, 240 136 C 239.450 136, 239 136.675, 239 137.500 C 239 138.325, 238.325 139, 237.500 139 C 236.667 139, 236 138.111, 236 137 C 236 133.665, 234.135 134.762, 233.432 138.511 C 232.470 143.636, 231.266 143.643, 231.514 138.521 C 231.658 135.558, 231.281 133.938, 230.364 133.586 C 229.497 133.253, 229 133.779, 229 135.031 C 229 136.114, 228.336 137, 227.525 137 C 226.401 137, 226.257 136.455, 226.919 134.714 C 227.634 132.832, 227.453 132.429, 225.894 132.429 C 224.602 132.429, 224 133.137, 224 134.655 C 224 137.351, 222.433 138.570, 221.636 136.494 C 221.321 135.672, 221.499 135, 222.031 135 C 222.564 135, 222.888 134.438, 222.750 133.750 C 222.446 132.231, 219.116 130.624, 216.839 130.897 C 215.925 131.006, 214.912 130.666, 214.588 130.142 C 214.263 129.617, 213.098 129.423, 211.999 129.711 C 209.944 130.248, 209.545 129.350, 210.607 126.582 C 211.414 124.480, 214 124.550, 214 126.674 C 214 128.060, 214.431 127.944, 216.500 126 C 219.016 123.636, 219.352 123.831, 219.084 127.500 C 218.946 129.392, 219.043 129.378, 220.895 127.230 L 222.853 124.960 223.517 127.053 C 224.126 128.973, 224.325 129.016, 225.919 127.573 C 227.741 125.925, 229.471 125.429, 228.625 126.798 C 228.354 127.237, 228.545 128.249, 229.051 129.048 C 229.616 129.942, 229.975 130.044, 229.985 129.312 C 230.008 127.536, 233.995 128.178, 234.030 129.963 C 234.055 131.202, 234.260 131.157, 235.092 129.729 C 235.659 128.755, 236.615 128.262, 237.216 128.633 C 237.846 129.023, 238.025 128.850, 237.638 128.224 C 237.269 127.627, 237.481 126.821, 238.109 126.433 C 238.911 125.937, 239.124 126.815, 238.824 129.381 L 238.398 133.034 240.663 130.267 L 242.928 127.500 242.964 130.250 C 242.984 131.762, 243.402 133, 243.893 133 C 245.494 133, 245.997 129.968, 244.734 127.930 C 243.723 126.299, 243.771 125.766, 245 124.985 C 245.825 124.460, 246.085 124.024, 245.579 124.015 C 245.072 124.007, 243.863 124.719, 242.892 125.598 C 241.119 127.202, 238.466 126.674, 239.543 124.931 C 240.388 123.564, 238.604 123.796, 237.158 125.242 C 236.170 126.230, 235.728 126.180, 234.989 124.992 C 234.222 123.759, 233.708 123.719, 232.031 124.758 C 230.373 125.786, 230 125.770, 230 124.674 C 230 123.733, 228.625 123.357, 225.404 123.416 C 222.877 123.462, 220.658 123.256, 220.474 122.958 C 219.986 122.169, 199.036 122.630, 198.218 123.449 C 197.837 123.830, 197.520 124.897, 197.513 125.821 C 197.494 128.345, 194.548 127.841, 194.180 125.250 C 193.836 122.823, 192 122.098, 192 124.389 C 192 126.029, 186.581 127.242, 183 126.404 C 170.564 123.494, 157.662 124.201, 163 127.500 C 163.568 127.851, 163.793 128.526, 163.500 129 C 163.207 129.474, 163.425 130.144, 163.984 130.490 C 164.543 130.835, 165 131.738, 165 132.495 C 165 133.353, 163.944 132.859, 162.201 131.186 C 160.662 129.709, 159.564 128.162, 159.760 127.750 C 160.399 126.410, 154.555 127.022, 152.603 128.500 C 151.559 129.290, 150.311 129.692, 149.828 129.394 C 149.345 129.095, 149.034 129.222, 149.137 129.676 C 149.382 130.763, 147.204 136, 146.506 136 C 146.207 136, 146.198 134.762, 146.487 133.250 C 146.776 131.738, 146.746 131.065, 146.421 131.756 C 146.095 132.447, 145.469 132.790, 145.028 132.517 C 144.587 132.245, 143.613 132.765, 142.863 133.674 C 141.704 135.078, 141.715 135.254, 142.938 134.850 C 145.625 133.962, 148.144 137.714, 147.427 141.538 C 147.003 143.800, 147.163 145, 147.889 145 C 148.500 145, 149 145.596, 149 146.323 C 149 150.381, 165.209 158.288, 173.296 158.176 C 180.864 158.072, 191.698 164.106, 186.352 165.448 C 184.517 165.908, 183.411 165.495, 182.078 163.848 C 180.627 162.056, 179.055 161.566, 173.939 161.313 C 170.452 161.140, 167.149 160.549, 166.599 159.999 C 165.013 158.413, 162.997 158.838, 163.033 160.750 C 163.053 161.791, 165.180 163.715, 168.283 165.500 C 171.895 167.577, 173.603 169.229, 173.835 170.870 C 174.136 172.997, 174.560 173.188, 177.958 172.732 C 182.010 172.189, 184.494 173.129, 184.510 175.214 C 184.516 176.034, 185.965 176.524, 188.510 176.567 C 195.878 176.690, 196.917 176.988, 200.292 179.952 C 202.794 182.148, 204.274 182.748, 206.077 182.295 C 208.424 181.705, 208.445 181.749, 206.750 183.672 C 205.787 184.764, 205 186.383, 205 187.270 C 205 189.281, 203.361 190.393, 202.485 188.976 C 202.126 188.394, 200.937 188.203, 199.842 188.550 C 198.547 188.961, 197.407 188.572, 196.576 187.434 C 194.829 185.045, 188.056 186.752, 181.335 191.275 C 178 193.519, 174.981 194.685, 171.958 194.896 C 167.562 195.204, 163.765 195.537, 161.177 195.843 C 160.234 195.955, 160.451 196.758, 161.933 198.641 C 164.256 201.595, 163.473 203.563, 159.677 204.306 C 158.480 204.540, 212.175 204.680, 279 204.616 L 400.500 204.500 400.672 191.761 C 400.867 177.360, 400.596 176.758, 396.033 181.466 C 392.582 185.027, 389.311 185.048, 386.581 181.526 C 385.429 180.040, 374.165 176.780, 372.894 177.566 C 372.478 177.822, 371.881 177.616, 371.566 177.107 C 370.808 175.880, 358.607 176.678, 358.172 177.983 C 357.741 179.276, 356 179.318, 356 178.036 C 356 177.506, 357.571 176.005, 359.491 174.700 L 362.981 172.328 360.586 171.046 C 359.269 170.341, 357.698 170.069, 357.095 170.441 C 356.480 170.821, 356 170.434, 356 169.559 C 356 168.702, 355.325 168, 354.500 168 C 353.675 168, 353 167.550, 353 167 C 353 166.450, 352.155 166, 351.122 166 C 343.525 166, 340.080 160.648, 346.847 159.358 L 350.500 158.661 345.500 156.293 C 339.544 153.473, 340.120 153.602, 355.008 158.427 C 362.517 160.860, 367.730 163.192, 370.008 165.135 L 373.500 168.114 370.157 166.483 C 365.854 164.384, 365.263 165.084, 368.100 168.921 C 369.967 171.446, 371.107 172.014, 374.438 172.076 C 381.399 172.206, 387.145 175.167, 390.517 180.360 C 392.256 183.038, 392.421 183.093, 393.112 181.227 C 393.517 180.131, 395.195 178.639, 396.841 177.910 C 401.075 176.036, 400.897 180.013, 400.973 85.616 L 401.042 0 200.521 0 L 0 0 -0 78.640 M 204.193 20.496 C 184.652 23.621, 158.130 31.497, 148.378 37.072 C 145.561 38.682, 142.497 40, 141.569 40 C 140.641 40, 140.134 40.408, 140.442 40.907 C 140.751 41.405, 140.208 41.606, 139.237 41.352 C 138.266 41.098, 136.353 41.336, 134.986 41.882 C 133.142 42.617, 132.967 42.890, 134.309 42.937 C 135.348 42.973, 135.832 43.463, 135.446 44.087 C 135.077 44.685, 133.924 44.952, 132.886 44.680 C 131.847 44.409, 131.201 44.516, 131.450 44.919 C 131.699 45.322, 126.412 47.600, 119.701 49.981 C 112.991 52.362, 105.530 55.140, 103.123 56.155 C 100.715 57.170, 98.128 58, 97.373 58 C 96.618 58, 96 58.765, 96 59.700 C 96 61.022, 96.267 61.133, 97.200 60.200 C 98.989 58.411, 99.879 58.746, 99.293 60.989 C 99.007 62.083, 98.354 62.719, 97.843 62.403 C 97.331 62.086, 96.171 62.429, 95.264 63.164 C 94.089 64.117, 93.832 64.141, 94.367 63.250 C 94.842 62.459, 94.534 62, 93.528 62 C 92.653 62, 91.689 62.647, 91.386 63.437 C 91.083 64.227, 90.256 64.652, 89.549 64.380 C 88.669 64.043, 88.351 64.695, 88.543 66.443 C 88.824 69.001, 87.664 69.884, 86.500 68 C 86.160 67.450, 85.346 67.007, 84.691 67.015 C 83.975 67.025, 84.099 67.418, 85 68 C 86.090 68.704, 86.142 68.974, 85.191 68.985 C 84.471 68.993, 84.160 69.450, 84.500 70 C 84.840 70.550, 84.641 71, 84.059 71 C 82.065 71, 82.997 73.187, 85.241 73.773 C 87.389 74.335, 87.358 74.415, 84.491 75.704 L 81.500 77.049 85 76.487 L 88.500 75.925 86 77.504 L 83.500 79.083 85.875 78.435 C 87.485 77.995, 88.030 78.142, 87.566 78.893 C 87.190 79.502, 87.385 80, 88 80 C 88.615 80, 88.869 80.403, 88.565 80.895 C 88.260 81.388, 88.707 82.057, 89.558 82.384 C 90.408 82.710, 90.848 82.563, 90.536 82.058 C 90.223 81.552, 90.331 80.913, 90.776 80.638 C 91.221 80.363, 91.652 81.036, 91.735 82.134 C 91.823 83.295, 91.387 83.949, 90.693 83.699 C 90.037 83.463, 88.600 83.733, 87.500 84.299 C 85.650 85.250, 85.612 85.189, 87 83.476 C 88.371 81.785, 88.337 81.687, 86.609 82.336 C 85.003 82.939, 84.908 82.816, 85.981 81.523 C 87.540 79.644, 86.311 79.619, 83 81.463 C 80.839 82.667, 80.732 82.946, 82.212 83.520 C 86.442 85.162, 76.610 92.916, 71.869 91.676 C 70.512 91.321, 68.405 92.012, 66.130 93.558 C 64.153 94.901, 62.147 96, 61.672 96 C 59.989 96, 54.985 100.167, 55.557 101.093 C 55.877 101.610, 56.445 101.847, 56.819 101.620 C 57.194 101.393, 60.611 100.912, 64.413 100.551 C 68.216 100.191, 72.163 99.448, 73.184 98.901 C 74.206 98.355, 75.451 98.161, 75.952 98.470 C 76.453 98.780, 78.541 98.238, 80.593 97.267 C 83.537 95.872, 84.416 95.776, 84.765 96.811 C 85.115 97.848, 85.563 97.800, 86.906 96.585 C 87.840 95.740, 89.589 94.898, 90.791 94.714 C 91.993 94.531, 94.220 93.285, 95.739 91.947 C 97.257 90.609, 99.674 88.511, 101.110 87.286 C 103.398 85.333, 116.092 80.798, 135.500 75.001 C 138.800 74.015, 142.400 72.861, 143.500 72.435 L 145.500 71.661 143.500 73.966 L 141.500 76.272 144.697 75.817 C 146.456 75.567, 147.667 75.730, 147.388 76.181 C 146.537 77.559, 148.100 77.101, 151.567 74.959 C 153.610 73.696, 157.203 72.756, 160.989 72.493 C 165.712 72.166, 168.141 71.372, 171.633 69.015 C 174.122 67.335, 177.698 65.317, 179.579 64.531 C 182.903 63.143, 184.591 61.176, 181.412 62.395 C 180.449 62.765, 179.145 62.165, 178.095 60.869 C 176.239 58.577, 171.737 59.648, 172.260 62.256 C 172.392 62.914, 171.375 63.568, 170 63.709 C 167.712 63.944, 167.670 63.881, 169.500 62.970 C 171.756 61.848, 164.345 62.315, 160.250 63.553 C 158.920 63.955, 158 63.807, 158 63.190 C 158 62.616, 158.787 61.959, 159.750 61.731 C 161.117 61.406, 160.880 61.060, 158.666 60.150 C 157.107 59.510, 155.375 59.268, 154.816 59.614 C 154.194 59.998, 154.227 59.445, 154.900 58.186 C 156.588 55.032, 156.266 54.807, 152.750 56.682 C 150.963 57.636, 149.275 58.451, 149 58.494 C 148.725 58.536, 147.549 59.100, 146.388 59.747 C 143.698 61.244, 138 62.271, 138 61.258 C 138 60.492, 139.178 59.930, 148.246 56.366 C 150.857 55.340, 152.994 53.923, 152.996 53.219 C 152.998 52.514, 153.675 51.678, 154.500 51.362 C 155.325 51.045, 156 50.173, 156 49.424 C 156 48.625, 156.619 48.300, 157.500 48.638 C 158.557 49.044, 159 48.555, 159 46.985 C 159 45.116, 159.243 44.957, 160.500 46 C 161.889 47.153, 162.444 46.691, 162.093 44.675 C 162.014 44.221, 162.861 44.139, 163.975 44.492 C 166.256 45.216, 166.627 44.061, 164.750 42.082 C 163.716 40.992, 163.876 40.991, 165.676 42.077 C 168.042 43.503, 173 42.088, 173 39.986 C 173 39.258, 172.361 39.272, 170.945 40.030 C 169.814 40.635, 168.352 40.929, 167.695 40.684 C 166.110 40.093, 171.467 38, 174.565 38 C 175.904 38, 177 37.658, 177 37.241 C 177 36.823, 177.947 35.890, 179.105 35.167 C 180.262 34.444, 180.934 34.297, 180.598 34.841 C 180.262 35.384, 180.534 36.011, 181.202 36.234 C 182.516 36.672, 187.626 34.414, 188.492 33.014 C 188.784 32.541, 190.466 31.837, 192.229 31.450 C 195.191 30.799, 198.805 29.195, 200 28 C 200.275 27.725, 201.175 27.500, 202 27.500 C 202.825 27.500, 203.392 26.951, 203.260 26.280 C 202.953 24.719, 206.714 22.676, 208.578 23.392 C 209.360 23.692, 210 23.537, 210 23.048 C 210 21.699, 216.349 20.546, 216.773 21.819 C 216.969 22.407, 217.827 22.620, 218.681 22.292 C 219.980 21.794, 220.049 22.040, 219.101 23.810 C 217.985 25.896, 218.009 25.902, 220.904 24.240 C 227.594 20.401, 233.694 26.636, 230.886 34.446 L 229.277 38.920 231.363 37.458 C 234.198 35.473, 240 28.032, 240 26.382 C 240 21.237, 220.060 17.959, 204.193 20.496" stroke="none" fill="#1a1a2e" fill-rule="evenodd"/>
</svg>