<svg xmlns="http://www.w3.org/2000/svg" width="400" height="225" viewBox="0 0 400 225" version="1.1">
	<path d="M 208.848 0.885 C 210.659 2.033, 209.956 5.026, 207.555 6.393 C 206.485 7.002, 204.712 8.287, 203.616 9.250 C 202.520 10.213, 201.272 11, 200.843 11 C 200.414 11, 200.322 11.675, 200.638 12.500 C 200.996 13.432, 200.633 14, 199.678 14 C 197.668 14, 194.812 16.887, 195.585 18.137 C 196.922 20.300, 194.827 23.710, 190.473 26.463 C 186.412 29.030, 184 31.636, 184 33.457 C 184 33.781, 185.048 33.359, 186.330 32.520 C 188.644 31.004, 190.014 31.340, 189.985 33.417 C 189.976 34.012, 189.557 33.848, 189.053 33.052 C 188.317 31.888, 187.906 32.113, 186.955 34.200 C 186.304 35.628, 184.811 37.262, 183.636 37.830 C 182.461 38.399, 182.123 38.895, 182.885 38.932 C 183.705 38.972, 183.195 39.846, 181.635 41.073 C 180.186 42.212, 179 43.595, 179 44.144 C 179 44.693, 178.321 45.822, 177.491 46.652 C 175.168 48.975, 176.868 50.451, 179.355 48.271 C 180.535 47.237, 183.412 45.171, 185.750 43.681 C 189.571 41.245, 191.847 37.156, 188.750 38.292 C 188.063 38.544, 187.624 39.290, 187.775 39.949 C 187.926 40.609, 187.608 40.876, 187.068 40.542 C 186.529 40.209, 186.327 39.310, 186.621 38.545 C 187.259 36.883, 189.808 35.763, 191.115 36.571 C 191.629 36.889, 191.926 36.730, 191.775 36.218 C 191.438 35.077, 197.804 26, 198.941 26 C 199.390 26, 200.322 24.636, 201.013 22.969 C 202.239 20.009, 202.302 19.985, 203.693 21.973 C 204.809 23.565, 205.526 23.789, 206.993 23.004 C 208.025 22.452, 209.846 22, 211.041 22 C 212.594 22, 213.044 21.557, 212.618 20.448 C 212.291 19.594, 212.437 19.152, 212.942 19.464 C 213.448 19.777, 214.144 19.575, 214.490 19.016 C 214.835 18.457, 214.361 18, 213.437 18 C 212.055 18, 211.977 17.732, 213 16.500 C 213.685 15.675, 215.791 15, 217.681 15 C 219.718 15, 220.866 14.593, 220.500 14 C 220.160 13.450, 220.584 13, 221.441 13 C 222.298 13, 223 13.450, 223 14 C 223 14.550, 223.900 15, 225 15 C 226.100 15, 227 14.550, 227 14 C 227 13.450, 226.270 13, 225.378 13 C 224.055 13, 223.983 12.725, 224.990 11.512 C 226.072 10.208, 226.578 10.275, 229.077 12.055 L 231.929 14.086 233.205 12.043 C 234.680 9.682, 237.224 9.253, 236.357 11.511 C 235.929 12.628, 236.234 12.848, 237.525 12.352 C 238.762 11.877, 239.135 12.093, 238.800 13.091 C 238.540 13.866, 237.692 14.542, 236.914 14.594 C 236.136 14.646, 234.233 15.208, 232.685 15.844 C 231.137 16.480, 229.251 17, 228.494 17 C 227.737 17, 226.840 17.450, 226.500 18 C 225.495 19.627, 231.626 19.155, 233 17.500 C 233.685 16.675, 234.695 16, 235.245 16 C 235.816 16, 235.727 16.624, 235.036 17.456 C 234.372 18.257, 234.087 19.331, 234.403 19.843 C 234.719 20.355, 234.222 21.387, 233.297 22.137 C 232.141 23.074, 231.851 23.110, 232.367 22.250 C 232.780 21.563, 232.750 21, 232.300 21 C 230.804 21, 228.798 24.987, 230.242 25.090 C 230.934 25.140, 230.090 25.589, 228.367 26.088 C 226.146 26.732, 225.092 27.741, 224.745 29.552 L 224.257 32.107 226.478 30.020 C 228.451 28.167, 228.842 28.105, 229.972 29.467 C 230.839 30.511, 230.887 31, 230.122 31 C 229.505 31, 229 31.638, 229 32.418 C 229 33.199, 227.422 34.812, 225.494 36.004 C 223.565 37.196, 222.229 38.561, 222.523 39.038 C 222.818 39.515, 221.808 40.573, 220.280 41.389 L 217.500 42.873 220.500 42.505 C 222.150 42.303, 224.272 42.107, 225.216 42.069 C 226.837 42.004, 233 36.768, 233 35.455 C 233 34.268, 241.389 26.801, 243.928 25.729 L 246.500 24.643 244.195 24.245 C 242.927 24.026, 241.240 24.386, 240.445 25.046 C 239.650 25.705, 239 25.848, 239 25.363 C 239 24.878, 239.966 23.878, 241.147 23.140 C 242.849 22.077, 243.010 21.624, 241.923 20.952 C 240.824 20.273, 241.015 19.613, 242.881 17.627 C 244.162 16.263, 244.909 14.661, 244.541 14.066 C 244.080 13.320, 244.641 13.335, 246.352 14.114 C 247.715 14.736, 249.067 16.147, 249.356 17.252 C 249.701 18.572, 250.415 19.055, 251.440 18.661 C 252.427 18.283, 253 18.615, 253 19.567 C 253 20.725, 252.571 20.841, 251.131 20.070 C 249.074 18.969, 248 19.558, 248 21.789 C 248 22.861, 248.339 22.964, 249.284 22.180 C 251.701 20.173, 253.496 22.454, 251.614 25.141 C 250.705 26.439, 249.633 27.393, 249.231 27.262 C 248.829 27.131, 247.600 27.310, 246.500 27.660 L 244.500 28.296 246.500 29.078 C 248.104 29.705, 247.838 29.873, 245.156 29.930 C 242.688 29.982, 241.676 30.524, 241.290 32 C 241.002 33.100, 240.417 34, 239.990 34 C 239.563 34, 238.970 34.635, 238.672 35.411 C 238.240 36.537, 238.725 36.652, 241.065 35.981 C 242.679 35.518, 244 35.388, 244 35.692 C 244 35.996, 244.740 35.631, 245.644 34.880 C 247.117 33.658, 247.207 33.776, 246.512 36.008 C 246.085 37.379, 245.345 38.650, 244.868 38.833 C 244.391 39.017, 244 39.570, 244 40.062 C 244 40.554, 245.111 40.451, 246.469 39.832 C 247.826 39.214, 248.731 38.375, 248.480 37.967 C 248.228 37.560, 248.943 36.987, 250.068 36.692 C 251.633 36.283, 251.868 36.454, 251.066 37.421 C 250.489 38.116, 250.313 38.980, 250.675 39.342 C 251.037 39.704, 250.413 40, 249.289 40 C 248.165 40, 246.661 40.703, 245.948 41.563 C 244.811 42.932, 244.982 43.043, 247.325 42.454 C 250.572 41.640, 250.883 42.723, 247.750 43.934 L 245.500 44.804 247.624 45.652 C 251.660 47.263, 244.899 55.077, 240.261 54.162 C 239.580 54.028, 238.005 54.483, 236.761 55.173 C 235.518 55.864, 234.275 56.450, 234 56.476 C 228.768 56.968, 224.296 62, 229.090 62 C 231.236 62, 231.905 62.364, 231.387 63.250 C 230.985 63.938, 231.521 63.747, 232.578 62.827 C 234.990 60.728, 243 57.913, 243 59.165 C 243 60.991, 237.640 65.020, 233.853 66.040 C 231.734 66.610, 230 67.510, 230 68.039 C 230 68.567, 229.155 69, 228.122 69 C 227.090 69, 225.756 69.589, 225.158 70.310 C 224.560 71.030, 221.824 72.231, 219.078 72.979 C 216.331 73.727, 213.862 74.918, 213.590 75.626 C 213.078 76.961, 217.283 75.658, 219.450 73.810 C 221.141 72.368, 222.246 72.950, 221.710 75 C 221.361 76.334, 221.680 77, 222.665 77 C 223.959 77, 223.956 77.187, 222.643 78.500 C 221.818 79.325, 220.868 80, 220.533 80 C 220.197 80, 217.613 82.214, 214.791 84.921 C 207.404 92.004, 197.452 92.527, 186 86.432 C 180.163 83.326, 172.410 80, 171.005 80 C 170.398 80, 168.684 79.371, 167.196 78.601 C 163.028 76.446, 128.169 75.900, 128.453 77.994 C 128.565 78.822, 130.084 79.931, 131.828 80.457 C 133.573 80.983, 135 81.717, 135 82.089 C 135 82.460, 138.931 82.831, 143.736 82.913 C 153.038 83.071, 159.990 84.570, 161.300 86.700 C 161.740 87.415, 162.728 88, 163.496 88 C 164.264 88, 168.321 89.774, 172.512 91.943 C 176.703 94.112, 180.706 95.666, 181.408 95.397 C 182.110 95.128, 184.414 96.823, 186.530 99.165 C 188.645 101.506, 190.060 102.598, 189.673 101.590 C 189.079 100.042, 189.321 99.873, 191.235 100.493 C 198.139 102.731, 200.599 102.305, 211.664 96.955 C 226.070 89.990, 235 85.990, 235 86.501 C 235 86.854, 226.325 91.468, 218.258 95.406 C 215.325 96.837, 215.319 98.952, 218.250 98.354 C 219.665 98.065, 219.109 98.665, 216.750 99.971 C 211.556 102.847, 212.057 104, 218.500 104 C 221.525 104, 224 104.450, 224 105 C 224 105.882, 223.536 106.062, 221.481 105.979 C 214.643 105.705, 217.335 111.568, 224.617 112.810 C 234.754 114.539, 244.539 126, 235.878 126 C 234.845 126, 234 126.436, 234 126.969 C 234 127.501, 234.629 127.696, 235.399 127.400 C 236.168 127.105, 237.126 127.394, 237.526 128.043 C 238.399 129.454, 233.298 133.912, 230.750 133.964 C 229.787 133.984, 229 134.645, 229 135.433 C 229 137.042, 225.562 138.465, 224.002 137.501 C 223.443 137.156, 222.725 137.553, 222.406 138.384 C 222.076 139.243, 219.494 140.378, 216.413 141.018 C 209.686 142.414, 208.456 146.273, 214.250 147.799 C 218.267 148.857, 218.276 150.081, 214.392 167 C 214.077 168.375, 213.443 174, 212.985 179.500 C 212.094 190.193, 209.373 198.241, 207.950 194.393 C 205.905 188.866, 201.028 189.600, 200.985 195.441 C 200.960 198.810, 199.247 200.884, 198.482 198.472 C 198.137 197.387, 197.427 195.825, 196.904 195 C 193.779 190.078, 190.091 180.968, 184.961 165.500 C 180.932 153.352, 177.931 147.800, 174.423 146 C 172.816 145.175, 171.233 144.138, 170.907 143.695 C 170.581 143.252, 167.947 143.203, 165.054 143.587 C 161.352 144.078, 159.572 143.925, 159.043 143.070 C 158.141 141.610, 151.904 140.057, 146.809 140.024 C 144.779 140.011, 142.871 139.601, 142.570 139.113 C 142.269 138.626, 140.330 137.911, 138.261 137.525 C 128.560 135.716, 115.965 130.877, 114.286 128.313 C 113.354 126.891, 111.113 125.109, 109.305 124.354 C 101.852 121.240, 98.295 105.600, 104.190 101.861 C 105.220 101.208, 105.177 101.027, 103.991 101.015 C 100.517 100.980, 98.093 109.723, 99.986 115.458 C 100.996 118.518, 105.012 123.046, 112 129.003 L 114.500 131.134 112 130.648 C 110.625 130.380, 108.600 129.894, 107.500 129.568 C 104.956 128.812, 101.914 130.620, 103.740 131.803 C 104.576 132.344, 103.844 133.016, 101.490 133.867 C 99.570 134.562, 98 135.527, 98 136.013 C 98 137.434, 93.364 142.031, 92.650 141.317 C 92.293 140.959, 92 141.341, 92 142.164 C 92 143.734, 88.884 145.679, 85.525 146.207 C 82.664 146.657, 81.032 150.670, 81.015 157.297 C 80.997 164.428, 74.240 172.898, 69.783 171.376 C 68.528 170.948, 65.865 170.695, 63.866 170.814 C 58.589 171.129, 50.484 163.179, 54.509 161.635 C 55.338 161.317, 56.536 159.919, 57.169 158.528 C 57.803 157.138, 58.924 156, 59.661 156 C 60.397 156, 61 155.402, 61 154.671 C 61 151.761, 56.516 153.402, 56 156.500 C 55.725 158.150, 55.050 159.539, 54.500 159.586 C 51.972 159.805, 49.861 161.296, 51.044 162.027 C 52.682 163.039, 51.333 165, 49 165 C 47.965 165, 46.840 165.450, 46.500 166 C 46.160 166.550, 44.816 167, 43.514 167 C 42.149 167, 40.271 168.111, 39.084 169.620 C 37.670 171.417, 36.393 172.074, 35.013 171.714 C 33.907 171.424, 32.733 171.622, 32.405 172.153 C 32.075 172.688, 29.174 172.908, 25.904 172.647 C 22.428 172.370, 20 172.575, 20 173.147 C 20 173.681, 19.591 173.865, 19.090 173.556 C 17.898 172.819, 14.876 173.991, 15.474 174.959 C 16.113 175.992, 11.989 177.633, 9.250 177.436 C 8.012 177.346, 7 177.688, 7 178.196 C 7 178.703, 6.592 178.866, 6.092 178.557 C 5.593 178.249, 4.131 178.418, 2.842 178.935 C 1.109 179.629, 0.955 179.890, 2.250 179.937 C 4.693 180.025, 4.454 182, 2 182 C 0.062 182, 0 182.667, 0 203.500 L 0 225 199.941 225 C 309.909 225, 400.070 224.662, 400.300 224.250 C 400.529 223.838, 400.495 173.213, 400.224 111.750 L 399.730 0 316.615 0.070 C 270.902 0.109, 234.367 0.480, 235.427 0.895 C 236.956 1.495, 237.051 1.767, 235.885 2.214 C 235.077 2.524, 233.562 2.153, 232.517 1.389 C 229.918 -0.511, 222.537 -0.395, 220.565 1.578 C 217.790 4.353, 216.729 7, 218.391 7 C 219.196 7, 220.059 7.787, 220.311 8.750 C 220.746 10.417, 220.774 10.417, 220.884 8.750 C 220.961 7.581, 221.830 7, 223.500 7 C 226.521 7, 226.671 7.981, 224 10.268 C 222.900 11.210, 222 11.744, 222 11.455 C 222 11.166, 220.988 11.499, 219.750 12.196 C 218.512 12.892, 216.825 13.534, 216 13.622 C 215.175 13.709, 213.660 14.124, 212.634 14.542 C 211.044 15.191, 210.913 15.022, 211.754 13.402 C 212.296 12.356, 212.613 10.710, 212.458 9.745 C 212.303 8.780, 212.966 7.430, 213.931 6.745 C 218.155 3.749, 217.141 -0.001, 212.111 0.015 C 209.170 0.025, 207.988 0.340, 208.848 0.885 M 108 13.933 C 101.016 16.632, 100 17.153, 100 18.039 C 100 18.942, 103.350 18.683, 106.500 17.536 C 107.600 17.136, 109.027 16.654, 109.671 16.466 C 110.315 16.278, 112.047 17.241, 113.521 18.607 C 114.994 19.973, 117.514 21.353, 119.120 21.674 C 127.910 23.432, 128.882 31.656, 121.470 41.567 C 118.873 45.041, 117.711 51.660, 119.771 51.243 C 120.642 51.067, 120.852 51.740, 120.440 53.384 C 120.107 54.710, 120.332 56.087, 120.944 56.465 C 121.552 56.841, 121.926 56.710, 121.775 56.174 C 121.624 55.638, 121.950 55.043, 122.500 54.850 C 123.050 54.658, 123.651 55.824, 123.835 57.443 C 124.130 60.030, 123.979 60.227, 122.585 59.071 C 120.867 57.645, 120.635 58.672, 120.727 67.293 C 120.767 71.029, 123.197 75.023, 125.405 74.978 C 126.007 74.966, 125.411 74.118, 124.080 73.095 C 121.476 71.094, 121.527 70.695, 125.546 61.498 C 126.268 59.847, 127.790 56.323, 128.928 53.668 C 130.066 51.012, 132.514 46.963, 134.367 44.670 C 144.613 31.988, 143.190 27.736, 125.500 18.164 C 114.104 11.997, 113.432 11.835, 108 13.933" stroke="none" fill="#1a1a2e" fill-rule="evenodd"/>
</svg>