<svg xmlns="http://www.w3.org/2000/svg" width="282" height="400" viewBox="0 0 282 400" version="1.1">
	<path d="M 131.929 20.522 C 130.263 21.084, 128.549 22.112, 128.120 22.806 C 127.691 23.500, 126.647 23.802, 125.799 23.476 C 124.951 23.151, 123.637 23.473, 122.879 24.192 C 122.121 24.912, 119.701 26.333, 117.502 27.352 C 105.741 32.800, 94.237 46.835, 96.843 52.555 C 97.581 54.175, 97.471 57.504, 96.457 64.164 C 95.675 69.299, 95.028 73.893, 95.018 74.372 C 95.008 74.852, 94.345 74.701, 93.544 74.036 C 90.495 71.506, 88.293 77.217, 87.158 90.591 C 85.990 104.367, 87.956 110.609, 93.046 109.278 C 95.137 108.731, 95.899 118.378, 95.194 136.500 C 94.549 153.096, 78.835 170.057, 62.665 171.611 C 52.895 172.549, 45.859 174.621, 52.250 174.678 C 64.639 174.787, 82.223 192.557, 78.633 201.339 C 78.372 201.977, 78.115 201.600, 78.064 200.500 C 77.984 198.807, 77.806 198.730, 76.904 200 C 76.095 201.138, 75.994 200.776, 76.485 198.500 C 77.088 195.704, 77.034 195.632, 75.686 197.446 C 74.583 198.931, 74.481 200.081, 75.256 202.303 C 76.037 204.546, 75.952 205.414, 74.885 206.081 C 73.960 206.660, 73.393 206.458, 73.177 205.474 C 72.999 204.663, 72.211 204, 71.427 204 C 69.965 204, 69.609 205.423, 69.862 210.250 C 69.963 212.171, 69.521 213, 68.396 213 C 67.376 213, 66.997 213.549, 67.362 214.500 C 67.678 215.325, 67.501 216, 66.969 216 C 66.436 216, 66 216.845, 66 217.878 C 66 218.910, 65.388 220.263, 64.640 220.884 C 63.887 221.509, 63.447 223.238, 63.654 224.756 C 63.951 226.941, 63.856 227.106, 63.186 225.566 C 61.881 222.566, 60.819 225.373, 62.013 228.666 C 63.567 232.949, 65.381 236.415, 66.498 237.235 C 67.089 237.668, 66.884 237.982, 66 238 C 65.024 238.020, 64.885 238.287, 65.602 238.765 C 67.923 240.312, 70.090 246.932, 70.225 252.886 C 70.330 257.555, 70.688 258.950, 71.682 258.568 C 72.407 258.290, 73 258.724, 73 259.531 C 73 260.339, 72.100 261, 71 261 C 69.900 261, 69 261.450, 69 262 C 69 262.550, 69.450 263, 70 263 C 72.540 263, 69.561 274.385, 66.420 276.682 C 65.422 277.412, 63.681 277.726, 62.552 277.380 C 61.424 277.035, 60.823 277.093, 61.217 277.510 C 61.612 277.927, 61.049 279.393, 59.967 280.769 C 58.885 282.144, 58 283.745, 58 284.326 C 58 284.907, 58.638 284.509, 59.418 283.443 C 60.198 282.376, 61.137 281.804, 61.504 282.171 C 63.351 284.017, 56.471 288.683, 52.250 288.446 C 49.913 288.315, 48 288.638, 48 289.163 C 48 289.688, 47.550 289.840, 47 289.500 C 46.450 289.160, 46 287.982, 46 286.882 C 46 285.782, 45.550 285.160, 45 285.500 C 44.450 285.840, 44 285.593, 44 284.952 C 44 284.311, 43.348 284.036, 42.551 284.342 C 41.535 284.732, 41.264 284.390, 41.644 283.199 C 41.986 282.129, 41.398 282.425, 40.055 284 C 38.797 285.477, 38.023 285.886, 38.166 285 C 38.689 281.740, 35.145 277.235, 31.279 276.245 C 27.555 275.292, 27.537 275.264, 30 274.266 C 32.489 273.258, 32.482 273.246, 28.500 271.526 C 24.659 269.867, 24.589 269.757, 26.750 268.747 C 27.988 268.168, 29 267.258, 29 266.725 C 29 266.191, 28.241 266.373, 27.313 267.128 C 25.825 268.338, 25.708 268.280, 26.324 266.639 C 26.854 265.227, 26.652 264.920, 25.488 265.366 C 24.229 265.849, 24.146 265.596, 25.023 263.957 C 26.508 261.183, 25.105 259.136, 23.358 261.526 C 22.622 262.531, 21.737 263.071, 21.391 262.725 C 20.493 261.826, 23.557 259, 25.429 259 C 27.481 259, 27.419 258.064, 25.250 256.286 C 24.287 255.497, 24.015 255.107, 24.645 255.420 C 25.275 255.733, 26.063 255.279, 26.395 254.412 C 27.229 252.238, 27.155 251.786, 26.072 252.456 C 25.562 252.771, 24.854 252.116, 24.500 251 C 24.146 249.884, 23.380 249.265, 22.798 249.625 C 22.188 250.002, 21.948 249.691, 22.231 248.889 C 22.500 248.125, 23.796 247.583, 25.110 247.685 C 27.251 247.850, 27.188 247.725, 24.500 246.480 C 22.850 245.716, 20.938 245.070, 20.250 245.045 C 19.563 245.020, 19 244.550, 19 244 C 19 243.013, 20.924 242.615, 24.161 242.933 C 25.075 243.022, 26.111 242.629, 26.463 242.059 C 26.840 241.450, 26.494 241.257, 25.625 241.590 C 23.766 242.304, 24.625 238.237, 26.792 236.068 C 28.032 234.825, 27.983 234.460, 26.420 233.318 C 24.701 232.061, 24.708 231.999, 26.559 231.985 C 28.071 231.973, 28.191 231.774, 27.104 231.086 C 26.337 230.600, 25.972 229.514, 26.295 228.674 C 26.617 227.834, 26.233 226.608, 25.441 225.951 C 24.648 225.293, 24 224.243, 24 223.618 C 24 222.993, 23.100 221.919, 22 221.232 C 19.627 219.750, 19.375 218, 21.535 218 C 24.268 218, 21.319 214.229, 18.020 213.504 C 16.372 213.142, 14.719 212.354, 14.347 211.753 C 13.915 211.054, 14.271 210.890, 15.336 211.299 C 16.423 211.716, 17 211.428, 17 210.469 C 17 209.661, 17.012 208.691, 17.027 208.313 C 17.082 206.957, 13.865 207.189, 13.331 208.579 C 12.549 210.617, 11.475 210.335, 10.168 207.750 C 9.543 206.512, 9.078 206.175, 9.134 207 C 9.389 210.714, 9.037 211.598, 7.940 210 C 7.088 208.759, 6.951 208.845, 7.145 210.500 C 7.274 211.600, 6.618 215.048, 5.687 218.162 C 4.757 221.276, 4.277 224.557, 4.620 225.453 C 5.030 226.521, 4.774 226.982, 3.875 226.791 C 2.276 226.451, 1.647 265.119, 3.202 268.250 C 3.860 269.576, 3.652 270, 2.344 270 C 0.807 270, 0.830 270.161, 2.559 271.468 C 3.626 272.276, 3.980 272.951, 3.344 272.968 C 2.655 272.987, 2.415 273.873, 2.751 275.156 C 3.138 276.634, 2.951 277.088, 2.158 276.597 C 0.611 275.642, 0.617 285.290, 2.171 298.725 C 3.247 308.020, 3.197 309.125, 1.628 310.859 C -0.291 312.979, -0.755 353.416, 1.127 354.578 C 1.625 354.886, 1.793 355.526, 1.500 356 C 1.207 356.474, 1.425 357.144, 1.984 357.490 C 2.543 357.835, 3 358.891, 3 359.837 C 3 362.018, 6.141 364.758, 8.048 364.241 C 9.296 363.903, 9.293 363.991, 8.032 364.868 C 6.784 365.735, 6.891 366.171, 8.746 367.780 C 10.479 369.283, 10.678 369.942, 9.714 370.983 C 8.735 372.041, 8.872 372.163, 10.420 371.613 C 11.476 371.239, 12.621 371.387, 12.964 371.942 C 13.658 373.065, 21.049 371.442, 20.867 370.207 C 20.236 365.919, 21.241 365.439, 26.414 367.556 C 27.707 368.086, 28.108 367.983, 27.649 367.241 C 27.250 366.595, 27.902 365.981, 29.235 365.750 C 31.462 365.364, 31.456 365.338, 28.877 364.251 C 26.186 363.118, 24.175 358.425, 25.718 356.882 C 26.174 356.426, 27.744 356.673, 29.206 357.432 C 30.669 358.191, 33.277 359.122, 35.002 359.500 C 38.284 360.221, 36.892 364, 33.345 364 C 31.225 364, 31.778 367.129, 34 367.710 C 35.100 367.998, 36.056 368.631, 36.125 369.117 C 36.194 369.602, 36.306 370.412, 36.375 370.917 C 36.444 371.421, 36.806 372.140, 37.181 372.514 C 37.556 372.889, 37.610 373.853, 37.301 374.657 C 36.939 375.601, 37.542 376.329, 39.003 376.711 C 41.708 377.418, 41.454 388.431, 38.576 395.218 C 37.709 397.263, 37 399.185, 37 399.489 C 37 399.793, 60.175 400.011, 88.500 399.973 C 132.820 399.913, 140 399.701, 140 398.452 C 140 397.653, 140.900 397, 142 397 C 143.100 397, 144 397.450, 144 398 C 144 398.550, 145.125 399, 146.500 399 C 147.875 399, 149.007 398.438, 149.015 397.750 C 149.026 396.914, 149.357 396.997, 150.015 398 C 150.880 399.317, 151.115 399.321, 151.946 398.028 C 152.758 396.766, 152.987 396.801, 153.553 398.278 C 154.152 399.839, 156.391 400, 177.519 400 L 200.824 400 201.511 395.938 C 202.003 393.020, 202.826 391.637, 204.430 391.027 C 206.379 390.286, 206.626 389.562, 206.374 385.339 C 206.216 382.678, 206.513 378.475, 207.035 376 C 207.557 373.525, 208.171 368.973, 208.399 365.885 C 208.976 358.074, 216.352 350.716, 219.118 355.191 C 219.564 355.913, 220.336 355.911, 221.631 355.187 C 223.469 354.158, 220.250 352, 216.876 352 C 216.329 352, 216.136 351.588, 216.447 351.085 C 216.758 350.582, 216.447 349.943, 215.756 349.664 C 215.065 349.386, 215.400 349.109, 216.500 349.049 C 218.342 348.948, 218.362 348.859, 216.750 347.920 C 214.420 346.563, 214.533 345.429, 217 345.429 C 218.100 345.429, 219 345.782, 219 346.214 C 219 346.646, 219.450 347, 220 347 C 220.550 347, 221 346.100, 221 345 C 221 343.900, 221.450 343, 222 343 C 222.550 343, 223 342.363, 223 341.583 C 223 340.804, 223.563 339.940, 224.250 339.662 C 225.250 339.259, 225.250 339.142, 224.250 339.079 C 223.563 339.036, 223 338.298, 223 337.441 C 223 336.584, 223.412 336.136, 223.915 336.447 C 224.418 336.758, 225.064 336.447, 225.352 335.756 C 225.724 334.862, 226.364 335.077, 227.572 336.500 C 228.902 338.068, 229.143 338.133, 228.685 336.801 C 228.251 335.537, 228.517 335.261, 229.725 335.725 C 230.939 336.191, 231.186 335.926, 230.705 334.674 C 230.326 333.687, 230.563 332.963, 231.281 332.910 C 231.952 332.860, 231.023 332.394, 229.218 331.873 C 226.700 331.147, 225.797 330.236, 225.343 327.963 C 224.799 325.245, 223 323.713, 223 325.969 C 223 326.501, 222.251 326.650, 221.336 326.299 C 220.389 325.935, 219.926 326.072, 220.263 326.616 C 220.587 327.141, 220.029 327.571, 219.021 327.571 C 217.766 327.571, 216.830 326.377, 216.054 323.786 C 215.415 321.652, 214.283 320, 213.460 320 C 212.657 320, 212 319.580, 212 319.067 C 212 317.432, 207.820 316.675, 206.890 318.143 C 206.324 319.037, 206.025 319.097, 206.015 318.317 C 206.007 317.667, 205.055 316.835, 203.901 316.469 C 202.253 315.946, 201.893 315.179, 202.228 312.901 C 202.676 309.851, 201.358 308.902, 200.344 311.545 C 199.850 312.832, 199.500 312.732, 198.248 310.943 C 197.093 309.294, 196.556 309.101, 195.933 310.108 C 195.279 311.167, 194.772 311.115, 193.311 309.841 C 192.315 308.972, 190.938 308.465, 190.250 308.714 C 189.563 308.963, 189 308.711, 189 308.153 C 189 307.496, 187.914 307.451, 185.910 308.026 C 183.454 308.730, 182.928 308.630, 183.347 307.539 C 184.138 305.478, 179.962 304.755, 174.500 306.007 C 171.499 306.696, 168.821 305.910, 169.362 304.500 C 170.001 302.834, 168.474 302.424, 167.500 304 C 167.160 304.550, 165.757 305, 164.382 305 C 162.970 305, 162.151 304.565, 162.500 304 C 162.840 303.450, 162.443 303, 161.618 303 C 160.793 303, 159.840 303.450, 159.500 304 C 158.530 305.570, 155.279 305.170, 154.599 303.396 C 154.247 302.481, 153.343 302.038, 152.492 302.365 C 150.674 303.062, 150.557 301.905, 152.250 299.977 C 152.938 299.194, 152.565 299.329, 151.421 300.277 C 148.104 303.027, 140.717 302.177, 141.645 299.151 C 142.071 297.762, 141.973 297.778, 141.026 299.250 C 140.407 300.212, 139.238 301, 138.427 301 C 137.176 301, 137.203 300.621, 138.603 298.483 C 140.032 296.302, 140.046 296.045, 138.711 296.557 C 137.420 297.053, 137.264 296.450, 137.748 292.840 C 138.260 289.026, 138.155 288.702, 136.839 290.018 C 136.007 290.851, 135.450 292.938, 135.576 294.755 C 135.795 297.923, 134.008 300.525, 133.226 298.177 C 133.010 297.530, 132.304 297, 131.657 297 C 131.010 297, 129.898 296.066, 129.185 294.924 C 128.111 293.205, 127.627 293.065, 126.368 294.110 C 124.459 295.694, 123.038 293.845, 123.015 289.750 C 123.005 287.979, 122.466 287, 121.500 287 C 119.599 287, 119.616 284.091, 121.532 281.559 C 123.459 279.011, 123.441 276.617, 121.500 277.362 C 120.381 277.791, 120 277.207, 120 275.062 C 120 272.680, 119.658 272.277, 118 272.710 C 116.882 273.003, 116 272.741, 116 272.117 C 116 270.632, 120.675 270.733, 131 272.440 C 140.831 274.066, 151 277.027, 151 278.265 C 151 278.734, 151.401 278.870, 151.892 278.567 C 152.938 277.920, 162 281.108, 162 282.122 C 162 282.502, 162.970 282.559, 164.156 282.249 C 165.774 281.826, 166.108 282.017, 165.492 283.012 C 164.896 283.978, 165.126 284.166, 166.336 283.701 C 167.252 283.350, 168 283.546, 168 284.138 C 168 284.730, 168.692 284.948, 169.538 284.624 C 170.384 284.299, 171.312 284.648, 171.600 285.399 C 171.963 286.345, 173.984 286.765, 178.180 286.765 C 182.197 286.765, 184.540 287.225, 185.137 288.132 C 185.868 289.242, 186.317 289.134, 187.519 287.559 C 188.811 285.865, 189 285.833, 189 287.309 C 189 288.239, 189.436 289, 189.969 289 C 190.501 289, 190.678 288.325, 190.362 287.500 C 189.817 286.081, 191.835 285.354, 194.500 286.009 C 195.050 286.144, 196.175 286.200, 197 286.134 C 197.825 286.068, 200.024 286, 201.886 285.982 C 203.749 285.964, 205.774 285.637, 206.386 285.255 C 208.091 284.192, 212.089 283.973, 230 283.958 C 246.378 283.944, 253.177 282.874, 245.746 281.480 C 243.757 281.107, 241.660 281.092, 241.086 281.447 C 240.511 281.802, 239.125 281.602, 238.006 281.003 C 236.887 280.404, 233.777 279.840, 231.096 279.750 C 227.488 279.629, 226.355 279.239, 226.733 278.252 C 227.301 276.774, 224.915 276.923, 223.827 278.434 C 223.457 278.948, 223.340 277.439, 223.568 275.081 C 223.904 271.591, 223.703 270.900, 222.490 271.365 C 221.444 271.767, 221.005 271.277, 221.015 269.719 C 221.027 268.093, 221.260 267.863, 221.890 268.857 C 222.494 269.809, 222.955 269.882, 223.438 269.100 C 223.817 268.487, 223.395 267.705, 222.502 267.362 C 221.459 266.962, 220.975 265.800, 221.151 264.119 C 221.303 262.678, 221.079 260.937, 220.654 260.249 C 220.229 259.562, 220.136 258.588, 220.447 258.085 C 220.758 257.582, 220.567 257.020, 220.023 256.835 C 219.479 256.651, 218.875 255.036, 218.680 253.246 C 218.485 251.456, 218.027 249.694, 217.663 249.329 C 216.377 248.044, 217.021 247.070, 218.750 247.687 C 219.962 248.120, 219.761 247.649, 218.097 246.156 C 216.775 244.970, 216.133 244, 216.670 244 C 217.721 244, 217.656 233.749, 216.570 228.090 C 216.210 226.215, 214.596 223.016, 212.984 220.980 C 211.372 218.945, 210.341 216.992, 210.693 216.640 C 211.045 216.288, 210.808 216, 210.167 216 C 209.525 216, 209 215.530, 209 214.955 C 209 212.718, 203.856 208.617, 202.915 210.104 C 202.245 211.162, 202.027 210.972, 202.015 209.321 C 202.007 208.123, 201.296 206.439, 200.436 205.579 C 199.576 204.719, 199.086 203.669, 199.348 203.247 C 200.098 202.033, 197.250 198.727, 196.078 199.452 C 195.437 199.848, 195.256 199.495, 195.618 198.552 C 195.987 197.593, 195.665 197, 194.776 197 C 192.777 197, 190.704 192.747, 190.551 188.333 C 190.443 185.233, 180.337 179.777, 179.443 182.336 C 179.411 182.426, 177.978 185.425, 176.259 189 C 174.539 192.575, 172.207 197.664, 171.076 200.309 C 158.922 228.740, 143.269 231.288, 121 208.462 L 111.500 198.724 116.513 197.080 C 119.269 196.176, 123.769 194.143, 126.513 192.562 C 129.256 190.982, 132.963 188.990, 134.750 188.136 C 136.687 187.211, 138 185.835, 138 184.733 C 138 183.715, 138.453 183.162, 139.007 183.504 C 139.561 183.847, 140.321 183.311, 140.695 182.313 C 141.070 181.316, 142.079 179.952, 142.938 179.282 C 143.797 178.612, 144.147 178.049, 143.715 178.032 C 143.283 178.014, 143.409 177.104, 143.995 176.010 C 144.580 174.915, 145.588 174.128, 146.233 174.260 C 146.879 174.392, 147.428 173.825, 147.455 173 C 147.481 172.175, 148.832 169.475, 150.458 167 C 152.083 164.525, 154.606 160.007, 156.064 156.961 C 157.523 153.914, 160.352 149.639, 162.353 147.461 C 166.367 143.090, 167.357 140.377, 163.676 143.835 C 160.989 146.359, 159.600 145.703, 161.102 142.619 C 161.940 140.899, 161.742 140.971, 160.055 143 L 157.975 145.500 158.544 142.008 C 158.858 140.087, 159.651 138.206, 160.307 137.826 C 165.533 134.807, 166.818 130.666, 163.625 127.138 C 162.731 126.151, 162 124.794, 162 124.123 C 162 120.576, 149.913 111.713, 148.405 114.155 C 147.948 114.894, 148.132 115.037, 148.917 114.552 C 149.811 113.999, 150.055 114.698, 149.821 117.139 C 149.330 122.258, 143.435 122.128, 140.187 116.927 C 138.877 114.830, 139.626 109.651, 141.107 110.566 C 141.598 110.870, 142 109.484, 142 107.488 C 142 103.176, 144.622 99.667, 145.597 102.676 C 147.156 107.489, 148.346 110.096, 149.236 110.646 C 151.918 112.304, 156.931 111.902, 162.500 109.583 C 165.800 108.209, 167.938 107.066, 167.250 107.042 C 166.563 107.019, 166 106.553, 166 106.008 C 166 105.459, 168.075 105.123, 170.642 105.258 C 175.601 105.517, 177.088 104.231, 174.649 101.792 C 173.395 100.538, 173.457 100.196, 175.127 99.153 C 177.341 97.770, 176.102 94, 173.433 94 C 172.611 94, 171.668 93.299, 171.340 92.443 C 171.002 91.563, 170.092 91.134, 169.250 91.458 C 168.394 91.786, 166.648 90.921, 165.157 89.430 C 163.727 88, 162.394 87.318, 162.195 87.915 C 161.570 89.791, 158.210 89.099, 155.428 86.521 C 152.828 84.111, 152.797 83.948, 154.317 80.744 C 155.817 77.584, 161 75.464, 161 78.011 C 161 78.555, 161.675 79, 162.500 79 C 164.540 79, 164.394 80.679, 162.250 81.883 C 160.625 82.796, 160.642 82.912, 162.500 83.514 C 163.600 83.871, 165.625 84.655, 167 85.256 C 168.375 85.857, 169.885 86.255, 170.355 86.139 C 170.826 86.024, 171.913 86.508, 172.771 87.215 C 174.141 88.343, 174.245 88.153, 173.626 85.666 C 173.109 83.592, 173.240 83.030, 174.114 83.571 C 174.872 84.039, 175.046 83.884, 174.591 83.147 C 174.196 82.508, 174.547 81.310, 175.372 80.485 C 177.116 78.741, 178.653 80.265, 178.162 83.250 C 177.983 84.338, 178.511 85, 179.557 85 C 180.997 85, 181.177 85.873, 180.803 91.049 C 180.247 98.730, 181.408 96.694, 182.980 87.229 C 184.448 78.391, 187.088 70.924, 190.469 66.045 C 195.117 59.337, 192.027 44.576, 185.707 43.298 C 183.988 42.950, 182.345 41.635, 181.438 39.881 C 180.627 38.312, 178.847 36.749, 177.482 36.406 C 176.117 36.063, 174.948 35.269, 174.885 34.642 C 174.619 32.014, 174.437 31.350, 173.129 28.250 C 172.374 26.462, 171.335 25, 170.820 25 C 170.304 25, 170.207 25.526, 170.605 26.170 C 171.103 26.975, 170.765 27.124, 169.523 26.647 C 167.996 26.061, 167.913 26.190, 168.981 27.477 C 171.479 30.488, 167.903 29.095, 165.187 26 C 163.739 24.350, 162.126 23, 161.603 23 C 161.080 23, 161.630 24.042, 162.826 25.314 C 165.962 28.652, 165.505 29.844, 162.250 26.817 C 156.545 21.510, 154.076 20.576, 144.313 20.026 C 139.041 19.730, 133.636 19.946, 131.929 20.522 M 83.500 296 C 83.160 296.550, 83.359 297, 83.941 297 C 84.523 297, 85 297.675, 85 298.500 C 85 300.437, 84.097 300.397, 81.847 298.362 C 80.398 297.050, 79.744 296.968, 78.563 297.948 C 77.751 298.621, 76.618 298.882, 76.044 298.527 C 75.470 298.172, 75 298.584, 75 299.441 C 75 300.298, 74.602 301, 74.117 301 C 73.631 301, 72.998 301.900, 72.710 303 C 72.423 304.100, 72.581 305, 73.062 305 C 73.543 305, 73.650 305.747, 73.300 306.661 C 72.794 307.978, 73.111 308.204, 74.831 307.754 C 76.775 307.246, 77.165 307.591, 76.929 309.603 C 76.762 311.023, 83.559 314.667, 85.460 314.178 C 87.273 313.711, 87.345 313.842, 86.109 315.349 C 84.910 316.811, 84.922 316.967, 86.192 316.480 C 87.087 316.136, 87.667 316.503, 87.667 317.413 C 87.667 318.237, 87.215 318.633, 86.663 318.292 C 86.053 317.915, 85.927 318.367, 86.341 319.447 C 86.855 320.786, 86.638 321.075, 85.459 320.623 C 84.557 320.277, 84.156 320.443, 84.509 321.015 C 84.847 321.561, 86.155 321.748, 87.418 321.431 C 88.763 321.094, 90.297 321.440, 91.124 322.267 C 92.716 323.858, 96.962 325.096, 101.664 325.337 C 103.405 325.427, 105.167 325.837, 105.581 326.250 C 105.995 326.663, 107.121 327, 108.083 327 C 109.046 327, 109.983 327.419, 110.167 327.931 C 110.350 328.443, 112.750 329.005, 115.500 329.181 C 118.250 329.356, 120.761 329.853, 121.080 330.284 C 123.589 333.675, 143.249 331.055, 141.309 327.588 C 140.247 325.690, 131 319.696, 131 320.905 C 131 321.379, 130.059 322.013, 128.908 322.314 C 126.938 322.829, 126.913 322.754, 128.473 321.030 C 129.453 319.947, 129.730 318.951, 129.151 318.593 C 128.612 318.260, 127.995 318.514, 127.781 319.156 C 127.203 320.890, 123.307 321.528, 118.500 320.676 C 117.015 320.412, 116.445 319.443, 116.286 316.911 C 116.169 315.035, 116.308 314.030, 116.595 314.677 C 116.981 315.545, 117.910 315.579, 120.129 314.805 L 123.140 313.756 120.320 310.785 C 115.525 305.733, 94.651 296.412, 90.641 297.533 C 88.875 298.026, 88.762 297.930, 90 296.981 C 91.190 296.069, 90.819 295.949, 88.200 296.401 C 86.154 296.754, 85.132 296.596, 85.509 295.985 C 85.844 295.443, 85.668 295, 85.118 295 C 84.568 295, 83.840 295.450, 83.500 296" stroke="none" fill="#1a1a2e" fill-rule="evenodd"/>
</svg>