<svg xmlns="http://www.w3.org/2000/svg" width="400" height="225" viewBox="0 0 400 225" version="1.1">
	<path d="M -0 112.502 L -0 225.005 200.250 224.752 L 400.500 224.500 400.754 112.250 L 401.009 -0 200.504 -0 L 0 0 -0 112.502 M 215.500 49.023 C 214.400 49.423, 213.162 49.554, 212.750 49.316 C 212.067 48.921, 211.837 49.779, 212.100 51.750 C 212.155 52.163, 212.638 52.376, 213.174 52.225 C 213.710 52.074, 213.849 52.435, 213.483 53.028 C 213.116 53.621, 212.295 53.930, 211.658 53.715 C 211.021 53.500, 209.904 54.039, 209.176 54.912 C 208.448 55.786, 208.117 55.969, 208.442 55.319 C 208.767 54.670, 208.623 53.885, 208.123 53.576 C 206.982 52.871, 205.696 57.699, 206.624 59.200 C 207.054 59.897, 206.850 60.025, 206.073 59.545 C 205.354 59.101, 205.082 57.809, 205.423 56.452 C 206.040 53.993, 204.530 52.096, 203.664 54.244 C 203.262 55.242, 203.142 55.243, 203.079 54.250 C 203.036 53.563, 201.848 53, 200.441 53 C 198.962 53, 198.147 53.429, 198.510 54.016 C 198.856 54.575, 199.627 54.731, 200.224 54.362 C 200.889 53.951, 201.020 54.159, 200.562 54.900 C 199.994 55.819, 199.245 55.736, 197.443 54.554 C 194.422 52.575, 193.629 52.590, 194.404 54.611 C 194.838 55.741, 194.591 56.057, 193.576 55.668 C 192.780 55.362, 191.927 55.650, 191.679 56.306 C 191.382 57.094, 190.655 56.820, 189.541 55.500 C 188.612 54.400, 188.180 54.133, 188.581 54.906 C 189.168 56.036, 188.594 56.196, 185.655 55.719 C 183.645 55.393, 182 55.435, 182 55.813 C 182 56.414, 178.671 56.778, 170.160 57.109 C 168.332 57.180, 167.933 57.637, 168.340 59.192 C 168.843 61.114, 168.792 61.121, 166.887 59.398 C 165.110 57.789, 164.978 57.780, 165.564 59.306 C 166.068 60.619, 165.653 61, 163.721 61 C 162.350 61, 159.940 61.672, 158.364 62.494 C 156.789 63.315, 155.893 63.990, 156.372 63.994 C 156.852 63.997, 156.689 64.669, 156.011 65.487 C 155.332 66.305, 155.032 67.641, 155.344 68.455 C 155.657 69.270, 155.529 70.173, 155.061 70.462 C 154.593 70.752, 153.923 70.241, 153.572 69.327 C 153.107 68.114, 152.636 67.964, 151.830 68.770 C 151.023 69.577, 151.697 70.791, 154.321 73.267 C 157.273 76.050, 158.033 76.375, 158.566 75.079 C 159.116 73.740, 159.342 73.804, 160.049 75.500 C 160.858 77.440, 160.904 77.432, 161.558 75.250 C 162.364 72.563, 163.677 72.324, 164.311 74.750 C 164.746 76.417, 164.774 76.417, 164.884 74.750 C 165.013 72.810, 167 72.293, 167 74.200 C 167 75.133, 167.267 75.133, 168.200 74.200 C 169.864 72.536, 172.670 72.699, 173.362 74.500 C 173.678 75.325, 174.387 76, 174.937 76 C 175.487 76, 175.696 75.371, 175.400 74.601 C 175.105 73.832, 175.344 72.905, 175.932 72.542 C 176.557 72.156, 177 72.735, 177 73.941 C 177 75.139, 177.652 76, 178.559 76 C 179.416 76, 179.859 75.581, 179.543 75.069 C 179.226 74.557, 179.425 73.856, 179.984 73.510 C 180.543 73.165, 181 73.584, 181 74.441 C 181 75.298, 181.498 76, 182.107 76 C 182.716 76, 182.960 75.339, 182.651 74.532 C 182.341 73.725, 182.485 72.818, 182.972 72.518 C 183.458 72.217, 184.144 72.877, 184.495 73.985 C 185.263 76.403, 186.835 76.676, 186.639 74.358 C 186.563 73.454, 187.063 72.517, 187.751 72.274 C 188.590 71.978, 188.788 72.437, 188.354 73.666 C 187.832 75.143, 187.961 75.263, 189.018 74.285 C 190.057 73.323, 190.602 73.427, 191.633 74.785 C 192.861 76.401, 192.938 76.399, 192.968 74.750 C 192.986 73.787, 193.702 73, 194.559 73 C 195.540 73, 195.840 73.463, 195.367 74.250 C 194.857 75.099, 195.158 75.060, 196.308 74.128 C 197.766 72.945, 198 72.979, 198 74.378 C 198 75.270, 198.436 76, 198.969 76 C 199.501 76, 199.678 75.325, 199.362 74.500 C 199.045 73.675, 199.284 73, 199.893 73 C 200.502 73, 201 73.709, 201 74.577 C 201 75.748, 201.840 76.081, 204.264 75.872 C 206.060 75.717, 208.153 75.977, 208.916 76.448 C 209.795 76.991, 210.707 76.791, 211.405 75.903 C 212.683 74.276, 215.459 73.448, 214.515 74.975 C 214.167 75.539, 214.552 76, 215.371 76 C 216.191 76, 217.005 76.969, 217.180 78.154 C 217.500 80.308, 217.501 80.307, 220.500 77.847 C 223.675 75.243, 227 75.139, 227 77.645 C 227 78.926, 227.235 78.908, 228.619 77.524 C 229.510 76.633, 230.509 76.176, 230.840 76.507 C 231.171 76.838, 230.855 77.472, 230.137 77.915 C 229.109 78.551, 229.168 78.850, 230.416 79.329 C 231.287 79.664, 232 79.446, 232 78.846 C 232 78.079, 232.406 78.092, 233.367 78.890 C 234.407 79.753, 235.035 79.663, 235.990 78.512 C 236.680 77.681, 237.730 77, 238.322 77 C 239.024 77, 238.982 77.418, 238.200 78.200 C 236.158 80.242, 236.881 81.418, 239 79.500 C 240.199 78.415, 241 78.167, 241 78.880 C 241 79.756, 241.522 79.791, 242.977 79.012 C 244.591 78.149, 244.847 78.234, 244.371 79.477 C 243.723 81.165, 245.517 81.591, 246.510 79.984 C 246.856 79.425, 247.584 79.243, 248.129 79.580 C 248.702 79.934, 248.357 80.805, 247.310 81.648 C 245.608 83.017, 245.632 83.067, 247.712 82.496 C 248.929 82.162, 250.831 82.375, 251.940 82.968 C 253.594 83.853, 253.850 83.773, 253.371 82.523 C 253.049 81.685, 252.207 81, 251.500 81 C 250.088 81, 248.793 78.540, 249.718 77.616 C 250.037 77.297, 251.355 78.265, 252.648 79.768 C 253.940 81.270, 254.998 81.938, 254.999 81.250 C 254.999 80.563, 256.125 80, 257.500 80 C 258.875 80, 260 79.420, 260 78.711 C 260 78.003, 260.865 75.725, 261.923 73.651 C 263.520 70.518, 263.606 69.786, 262.429 69.334 C 261.649 69.035, 261.263 68.384, 261.570 67.888 C 262.215 66.843, 259.656 64, 258.071 64 C 257.482 64, 257.113 63.482, 257.250 62.848 C 257.680 60.868, 251.209 57.217, 243.957 55.349 C 240.131 54.363, 237 53.176, 237 52.711 C 237 52.246, 237.956 52.169, 239.125 52.540 C 240.447 52.959, 241.015 52.834, 240.628 52.208 C 239.210 49.913, 219.814 47.454, 215.500 49.023 M 320.434 62.791 L 316.500 66.548 305.500 66.818 C 295.436 67.066, 282.342 66.097, 272.689 64.392 L 268.879 63.719 269.189 68.609 C 269.380 71.603, 269.944 73.417, 270.645 73.285 C 271.275 73.167, 272.083 74.629, 272.441 76.535 C 273.047 79.769, 277 81.906, 277 79 C 277 78.450, 277.436 78, 277.969 78 C 278.501 78, 278.650 78.749, 278.299 79.664 C 277.831 80.884, 278.020 81.106, 279.007 80.496 C 279.748 80.038, 282.183 79.527, 284.418 79.360 C 286.652 79.194, 288.635 78.594, 288.824 78.029 C 289.012 77.463, 289.606 77, 290.142 77 C 290.679 77, 290.828 77.469, 290.473 78.043 C 289.676 79.333, 305.886 78.567, 310.863 77.080 C 312.712 76.527, 314.512 76.154, 314.863 76.250 C 315.213 76.346, 316.522 75.858, 317.771 75.166 C 320.511 73.647, 322.628 74.539, 320.984 76.519 C 320.080 77.609, 320.636 77.805, 323.962 77.568 C 326.212 77.408, 328.293 77.665, 328.586 78.138 C 328.878 78.612, 328.218 79, 327.118 79 C 325.027 79, 323.633 80.300, 324.642 81.308 C 324.965 81.632, 326.283 81.206, 327.571 80.362 C 328.858 79.518, 330.382 79.118, 330.956 79.473 C 332.256 80.276, 332.335 78.738, 331.060 77.450 C 329.648 76.024, 328.965 71, 330.183 71 C 330.761 71, 330.998 70.099, 330.710 68.998 C 330.397 67.802, 330.797 66.653, 331.702 66.147 C 333.018 65.410, 332.989 65.210, 331.483 64.632 C 330.528 64.265, 329.167 64.446, 328.459 65.034 C 327.639 65.715, 325.990 65.795, 323.908 65.256 L 320.643 64.410 322.999 62.216 C 324.294 61.009, 325.132 59.799, 324.861 59.528 C 324.590 59.256, 322.597 60.725, 320.434 62.791" stroke="none" fill="#1a1a2e" fill-rule="evenodd"/>
</svg>