<svg xmlns="http://www.w3.org/2000/svg" width="400" height="218" viewBox="0 0 400 218" version="1.1">
	<path d="M 0 47.567 C 0 92.397, 0.101 95.105, 1.750 94.624 C 2.713 94.344, 5.750 93.821, 8.500 93.462 C 11.250 93.103, 15.719 92.178, 18.432 91.405 C 26.640 89.066, 33.822 89.475, 33.296 92.250 C 33.062 93.487, 33.307 96.436, 33.840 98.801 C 35.565 106.446, 32.222 113.985, 27.095 114.015 C 25.103 114.027, 24.842 114.247, 25.972 114.962 C 27.233 115.759, 27.197 115.987, 25.722 116.553 C 24.775 116.917, 24 117.659, 24 118.202 C 24 118.745, 26.025 118.003, 28.500 116.553 C 30.975 115.102, 33 114.385, 33 114.958 C 33 115.531, 32.212 116.007, 31.250 116.015 C 29.798 116.028, 29.748 116.187, 30.952 116.949 C 31.751 117.455, 32.713 117.678, 33.089 117.445 C 33.465 117.212, 34.329 117.692, 35.009 118.511 C 36.771 120.633, 39.675 120.352, 40.290 117.998 C 40.714 116.377, 41.450 116.079, 44.157 116.431 C 45.996 116.670, 47.837 116.895, 48.250 116.933 C 50.268 117.114, 48.671 119, 46.500 119 C 43.554 119, 43.122 120.717, 45.952 121.180 C 47.839 121.489, 47.824 121.657, 45.501 126.221 C 42.754 131.616, 43.522 132.801, 48.221 130.419 C 52.693 128.152, 63.423 120.885, 63.833 119.844 C 64.456 118.268, 66.779 118.991, 66.639 120.717 C 66.556 121.746, 67.971 123.235, 70.168 124.431 C 74.341 126.703, 75.726 133.367, 73.250 139.256 C 71.538 143.329, 71.627 143.475, 74.623 141.511 C 76.066 140.566, 76.937 140.292, 76.560 140.903 C 75.169 143.154, 70.308 144.739, 63.001 145.324 C 58.118 145.716, 56.025 145.595, 57.001 144.978 C 58.082 144.295, 57.305 144.026, 54.215 144.015 C 47.656 143.992, 41.575 139.602, 44.769 137.196 C 46.249 136.081, 45.702 135.936, 41 136.196 L 35.500 136.500 35.350 140.270 C 35.267 142.343, 34.954 144.677, 34.655 145.457 C 34.304 146.371, 34.892 146.997, 36.305 147.216 C 38.286 147.524, 38.174 147.732, 35.160 149.351 C 33.323 150.338, 31.144 150.886, 30.320 150.569 C 29.495 150.253, 28.298 150.321, 27.660 150.720 C 27.022 151.120, 25.825 151.459, 25 151.474 C 24.175 151.488, 23.500 152.138, 23.500 152.917 C 23.500 153.696, 24.175 154.518, 25 154.743 C 26.333 155.107, 26.333 155.024, 25 153.995 C 23.783 153.056, 23.991 152.944, 26.102 153.401 C 27.532 153.710, 29.026 153.641, 29.420 153.246 C 30.115 152.551, 34.407 151.904, 38.500 151.876 C 67.196 151.684, 81.302 155.649, 65.741 159.533 C 61.052 160.703, 61.809 161.725, 66.995 161.226 C 72.843 160.665, 95.176 162.906, 94.508 163.987 C 94.253 164.400, 96.396 164.612, 99.272 164.458 C 102.282 164.297, 105.355 164.722, 106.515 165.458 C 107.623 166.162, 110.098 167.070, 112.015 167.477 C 113.932 167.883, 116.873 169.049, 118.551 170.066 C 120.340 171.152, 122.511 171.679, 123.801 171.342 C 125.010 171.026, 126 171.171, 126 171.666 C 126 172.160, 128.056 172.655, 130.570 172.764 C 135.041 172.958, 147.286 176.256, 149.423 177.841 C 150.015 178.280, 152.412 179.243, 154.750 179.980 C 160.319 181.736, 160.116 183.204, 154 185.403 C 151.250 186.392, 149 187.522, 149 187.915 C 149 189.107, 134.262 196, 131.715 196 C 127.544 196, 116 200.095, 116 201.574 C 116 202.337, 114.762 203.270, 113.250 203.647 C 111.737 204.023, 110.049 204.942, 109.497 205.688 C 108.945 206.435, 106.695 207.326, 104.497 207.669 C 102.299 208.012, 99.375 209.064, 98 210.006 C 96.625 210.948, 93.700 212.509, 91.500 213.474 C 80.592 218.261, 77.969 217.953, 129.781 217.977 C 171.790 217.997, 178.138 217.805, 178.638 216.500 C 178.955 215.675, 179.642 215, 180.166 215 C 180.690 215, 180.781 215.545, 180.370 216.210 C 179.959 216.876, 181.309 216.425, 183.371 215.209 C 185.433 213.992, 186.842 213.447, 186.501 213.998 C 186.133 214.594, 187.299 215, 189.382 215 C 191.307 215, 193.157 214.555, 193.493 214.011 C 193.843 213.445, 193.442 213.277, 192.552 213.618 C 191.698 213.946, 191 213.716, 191 213.107 C 191 211.451, 193.975 211.772, 194.638 213.500 C 194.955 214.325, 195.642 215, 196.166 215 C 196.690 215, 196.869 214.597, 196.565 214.105 C 195.835 212.923, 198.387 212, 202.382 212 C 204.152 212, 206.077 211.523, 206.661 210.939 C 208.297 209.303, 223.519 209.412, 224.542 211.067 C 224.859 211.580, 226.216 212, 227.559 212 C 228.902 212, 230 212.450, 230 213 C 230 213.550, 230.671 214, 231.492 214 C 232.312 214, 233.545 214.900, 234.232 216 C 235.465 217.974, 236.564 218, 317.741 218 L 400 218 400 209.655 C 400 202.580, 399.696 201.035, 398 199.500 C 396.900 198.505, 396 198.040, 396 198.467 C 396 198.895, 395.438 198.790, 394.750 198.234 C 393.681 197.370, 389.771 196.602, 380.500 195.435 C 376.485 194.930, 368.532 193.232, 369.643 193.118 C 370.272 193.053, 371.056 192.296, 371.387 191.435 C 371.845 190.240, 371.524 190.016, 370.031 190.490 C 367.734 191.219, 363.914 189.442, 364.260 187.804 C 364.392 187.180, 363.150 186.365, 361.500 185.994 C 359.850 185.623, 356.475 184.402, 354 183.281 C 351.525 182.160, 348.375 181.352, 347 181.484 C 345.625 181.617, 343.825 181.392, 343 180.984 C 342.175 180.576, 339.339 180.799, 336.697 181.480 C 332.543 182.550, 331.971 182.519, 332.459 181.247 C 332.878 180.154, 332.571 179.970, 331.261 180.530 C 327.948 181.946, 323.311 182.287, 325 180.990 C 326.209 180.062, 325.978 179.952, 323.811 180.423 C 322.245 180.763, 320.824 180.524, 320.407 179.849 C 319.965 179.134, 320.129 178.961, 320.834 179.397 C 321.574 179.855, 321.767 179.556, 321.382 178.552 C 320.661 176.673, 319.833 176.598, 318.053 178.250 C 316.950 179.274, 316.825 179.163, 317.364 177.639 C 317.924 176.056, 317.648 175.872, 315.511 176.408 C 314.060 176.772, 313 176.608, 313 176.019 C 313 175.459, 312.325 175, 311.500 175 C 310.675 175, 310 174.523, 310 173.941 C 310 173.359, 309.586 173.138, 309.081 173.450 C 308.575 173.763, 307.482 173.339, 306.652 172.509 C 305.822 171.679, 304.526 171, 303.771 171 C 303.017 171, 301.940 170.540, 301.378 169.978 C 300.816 169.416, 298.444 168.629, 296.106 168.228 C 291.903 167.508, 291.877 167.478, 293.745 165.511 C 295.382 163.788, 295.462 163.192, 294.347 161.043 C 293.237 158.904, 293.314 158.285, 294.903 156.532 C 295.916 155.414, 296.537 153.928, 296.282 153.229 C 296.028 152.530, 296.241 150.730, 296.757 149.229 C 297.477 147.132, 297.270 145.806, 295.859 143.500 C 294.850 141.850, 293.281 139.081, 292.373 137.347 C 290.881 134.498, 287.421 132, 284.965 132 C 284.447 132, 283.737 133.792, 283.387 135.981 C 283.037 138.171, 282.132 140.476, 281.375 141.104 C 280.619 141.731, 280 143.090, 280 144.122 C 280 145.749, 279.204 146, 274.052 146 C 269.104 146, 267.652 146.418, 265.426 148.481 C 263.953 149.846, 262.355 150.719, 261.874 150.422 C 261.393 150.125, 261 150.630, 261 151.545 C 261 152.954, 260.094 153.147, 255.065 152.805 C 251.801 152.584, 249.339 152.739, 249.593 153.151 C 250.630 154.829, 245.428 156.121, 237.706 156.105 C 233.199 156.095, 227.204 156.757, 224.384 157.577 C 221.565 158.396, 216.388 159.102, 212.879 159.146 C 204.203 159.253, 203.983 159.209, 204.638 157.500 C 205.006 156.543, 204.621 156, 203.576 156 C 202.674 156, 201.695 156.632, 201.398 157.405 C 200.789 158.992, 189.976 158.738, 184.535 157.010 C 179.174 155.306, 159.441 151, 156.930 150.986 C 148.916 150.941, 148.706 149.917, 155.265 142.897 L 160.500 137.294 173 136.714 C 187.518 136.040, 197.711 134.122, 209.834 129.782 C 217.887 126.900, 219.349 126.694, 230.500 126.873 C 240.128 127.028, 243.785 126.667, 249 125.044 C 255.107 123.144, 255.228 123.051, 251 123.498 C 248.525 123.760, 247.175 123.691, 248 123.345 C 250.777 122.179, 255.027 118.853, 254.609 118.174 C 254.381 117.803, 255.572 117.400, 257.256 117.278 C 262.325 116.910, 269.571 114.085, 271.955 111.548 C 273.188 110.235, 275.503 108.620, 277.099 107.959 C 281.076 106.312, 280.830 104.648, 276.750 105.596 C 268.759 107.451, 262.157 104.993, 267.035 101.978 C 267.713 101.559, 265.506 101.367, 262.131 101.551 C 258.756 101.735, 255.584 102.139, 255.081 102.450 C 254.579 102.760, 253.035 102.584, 251.651 102.057 C 249.936 101.405, 249.018 101.445, 248.773 102.182 C 248.337 103.488, 242 100.468, 242 98.955 C 242 98.408, 240.918 98.157, 239.595 98.397 C 237.868 98.710, 237.053 98.311, 236.705 96.981 C 236.123 94.753, 238.253 93.692, 240.025 95.328 C 241.028 96.254, 241.150 96.092, 240.604 94.556 C 239.951 92.715, 240.013 92.702, 241.786 94.306 C 242.815 95.238, 244.410 96, 245.329 96 C 246.248 96, 247 96.761, 247 97.691 C 247 99.166, 247.180 99.136, 248.411 97.452 C 250.285 94.889, 249.479 93.856, 246.189 94.604 C 243.511 95.213, 243.509 95.209, 245.669 93.608 C 246.862 92.724, 248.528 92.265, 249.371 92.589 C 250.214 92.912, 251.488 92.800, 252.202 92.339 C 252.916 91.877, 254.384 91.500, 255.465 91.500 C 256.980 91.500, 257.468 90.757, 257.598 88.250 C 257.711 86.069, 257.311 85, 256.383 85 C 255.622 85, 255 84.550, 255 84 C 255 83.450, 255.763 83, 256.695 83 C 257.628 83, 259.618 81.824, 261.119 80.386 C 264.294 77.344, 272.988 75.688, 273.015 78.120 C 273.028 79.292, 273.162 79.292, 273.904 78.122 C 274.616 76.996, 275.806 77.247, 280.388 79.489 C 286.312 82.387, 286.721 82.879, 284.800 84.800 C 283.867 85.733, 284.044 86, 285.600 86 C 286.700 86, 288.133 85.467, 288.783 84.817 C 290.543 83.057, 291.193 84.362, 290.053 87.361 C 288.968 90.214, 294.386 91.428, 297.292 88.984 C 297.956 88.426, 299.801 86.814, 301.390 85.402 C 303.066 83.914, 304.541 83.257, 304.900 83.839 C 305.241 84.390, 306.861 85.178, 308.500 85.589 C 311.332 86.300, 311.394 86.251, 309.740 84.597 C 307.562 82.419, 307.526 82.527, 310.501 82.356 C 311.875 82.276, 313 82.641, 313 83.165 C 313 83.689, 312.438 83.833, 311.750 83.485 C 311.063 83.137, 311.324 83.524, 312.331 84.345 C 314.191 85.863, 319.266 84.996, 320.534 82.945 C 320.825 82.473, 321.630 82.305, 322.323 82.570 C 323.015 82.836, 327.064 81.916, 331.322 80.527 C 335.579 79.137, 339.542 78, 340.130 78 C 340.717 78, 342.616 77.373, 344.349 76.607 C 346.082 75.841, 348.288 74.955, 349.250 74.638 C 354.351 72.960, 349.943 65.585, 343.536 65.077 C 341.400 64.907, 345.899 61.884, 351.034 60.038 C 357.971 57.543, 356.206 57.539, 342.583 60.015 C 325.762 63.072, 312.320 66.854, 303.092 71.126 C 293.308 75.655, 293.542 75.699, 295.578 69.724 C 297.365 64.480, 299.549 62.882, 311.778 57.870 C 316.025 56.129, 320.175 54.189, 321 53.559 C 321.825 52.929, 323.730 51.799, 325.233 51.047 C 326.736 50.295, 328.874 48.835, 329.983 47.801 C 331.331 46.545, 332.005 46.350, 332.015 47.211 C 332.025 48.002, 332.315 48.114, 332.765 47.500 C 333.981 45.845, 337.462 43.370, 336.633 44.750 C 335.536 46.576, 337.075 46.280, 338.449 44.401 C 339.527 42.926, 347.972 40.650, 348.911 41.581 C 349.136 41.805, 348.574 42.813, 347.661 43.823 C 344.370 47.459, 346.250 50.430, 351.154 49.343 C 355.919 48.286, 356.532 47.947, 355.188 47.116 C 353.523 46.087, 354.694 43.232, 357.092 42.471 C 358.142 42.138, 359 41.446, 359 40.933 C 359 40.420, 359.421 40, 359.935 40 C 360.449 40, 362.137 39.518, 363.685 38.930 C 365.233 38.341, 366.500 37.944, 366.500 38.048 C 366.500 38.151, 368.300 37.456, 370.500 36.502 C 376.858 33.747, 383 32.018, 383 32.983 C 383 37.036, 374.224 48.673, 368.563 52.125 L 365.500 53.993 368.872 53.996 C 371.804 54, 372.077 54.202, 370.959 55.549 C 369.836 56.902, 370.043 57.028, 372.587 56.545 C 374.189 56.241, 377.197 55.710, 379.272 55.365 C 381.347 55.020, 383.286 54.346, 383.581 53.869 C 383.876 53.391, 386.679 53.045, 389.809 53.100 C 394.167 53.176, 394.914 53.387, 393 54 C 390.605 54.767, 390.633 54.805, 393.668 54.900 C 400.284 55.108, 400.055 54.385, 399.952 74.712 C 399.901 84.876, 400.116 93.449, 400.429 93.763 C 400.743 94.077, 401 73.108, 401 47.167 L 401 0 200.500 0 L 0 0 0 47.567 M 356 23.276 C 355.725 23.530, 348.075 24.032, 339 24.392 C 278.655 26.782, 266.505 27.830, 239.500 32.978 C 215.471 37.558, 201.085 41.053, 185 46.219 C 167.843 51.729, 162.340 51.825, 154.686 46.750 C 151.576 44.687, 148.703 43, 148.303 43 C 147.054 43, 154.368 48.998, 157 50.132 C 159.374 51.155, 159.231 51.279, 154.144 52.611 C 147.915 54.242, 146.772 54.823, 147.494 55.991 C 147.784 56.459, 146.584 57.560, 144.828 58.436 C 142.419 59.638, 141.455 59.735, 140.898 58.835 C 140.183 57.679, 135.875 60.340, 130.561 65.220 C 129.495 66.199, 128.258 67, 127.811 67 C 127.365 67, 127 67.659, 127 68.465 C 127 70.319, 124.553 71.635, 119.482 72.508 C 117.292 72.885, 111 74.434, 105.500 75.950 C 97.257 78.222, 93.831 78.661, 86 78.445 C 75.869 78.166, 69.500 79.538, 69.500 82 C 69.500 83.167, 70.721 83.471, 75 83.371 C 78.025 83.301, 79.713 83.446, 78.750 83.695 C 76.017 84.400, 76.696 85.581, 79.750 85.433 C 81.263 85.360, 83.431 85.718, 84.568 86.228 C 86.431 87.063, 100.594 83.388, 108.500 80.018 C 113.019 78.091, 117.292 77.063, 118.269 77.666 C 118.920 78.069, 119.003 77.814, 118.490 76.985 C 117.896 76.023, 118.128 75.835, 119.336 76.299 C 120.488 76.741, 121.005 76.408, 121.015 75.219 C 121.024 74.244, 121.349 73.933, 121.765 74.500 C 122.753 75.845, 126.158 76.064, 125.333 74.730 C 124.926 74.071, 125.484 73.893, 126.843 74.249 C 128.028 74.559, 129.269 74.374, 129.600 73.838 C 129.931 73.302, 130.857 73.115, 131.657 73.422 C 132.457 73.729, 134.662 73.333, 136.556 72.541 C 138.450 71.750, 140 71.359, 140 71.673 C 140 71.988, 140.578 71.766, 141.284 71.180 C 141.998 70.586, 143.151 70.475, 143.885 70.929 C 144.615 71.380, 147.164 71.153, 149.601 70.419 C 152.021 69.691, 154 69.354, 154 69.670 C 154 69.986, 154.576 69.766, 155.281 69.182 C 155.986 68.597, 157.860 67.883, 159.447 67.595 C 161.034 67.308, 164.665 65.931, 167.516 64.536 C 170.367 63.141, 173.329 62.027, 174.100 62.059 C 175.268 62.109, 163.563 68.381, 150.250 74.840 C 148.463 75.707, 147 76.828, 147 77.331 C 147 77.834, 147.635 77.718, 148.411 77.074 C 149.476 76.190, 149.997 76.186, 150.536 77.058 C 151.064 77.912, 151.432 77.919, 151.948 77.084 C 152.332 76.462, 154.376 75.732, 156.489 75.462 C 158.602 75.191, 160.943 74.462, 161.690 73.842 C 162.437 73.222, 163.324 72.991, 163.661 73.328 C 163.998 73.665, 165.501 73.068, 167 72 C 168.499 70.932, 170.037 70.370, 170.417 70.751 C 170.798 71.131, 171.422 70.967, 171.804 70.386 C 172.558 69.241, 180.398 66.831, 183.272 66.861 C 184.246 66.871, 184.772 66.441, 184.441 65.905 C 183.861 64.967, 192.719 56.032, 194.250 56.011 C 194.662 56.005, 195 55.564, 195 55.031 C 195 54.499, 194.213 54.340, 193.250 54.679 C 191.073 55.445, 182.851 59.036, 181.500 59.811 C 180.950 60.126, 181.118 59.623, 181.872 58.692 C 182.627 57.761, 183.833 57, 184.551 57 C 185.269 57, 186.564 56.293, 187.429 55.429 C 188.293 54.564, 189 54.126, 189 54.454 C 189 54.783, 190.350 54.353, 192 53.500 C 193.708 52.617, 195 52.390, 195 52.974 C 195 54.772, 197.889 54.076, 198.994 52.012 C 199.579 50.918, 201.282 49.724, 202.779 49.358 C 204.275 48.992, 205.750 48.314, 206.055 47.853 C 206.360 47.391, 208.805 46.792, 211.487 46.520 C 214.170 46.249, 216.682 45.514, 217.069 44.888 C 217.456 44.262, 218.836 43.622, 220.136 43.467 C 221.436 43.311, 223.287 42.869, 224.250 42.485 C 225.272 42.076, 226 42.238, 226 42.874 C 226 43.472, 224.767 44.271, 223.260 44.650 C 221.753 45.028, 219.965 45.892, 219.286 46.571 C 218.608 47.249, 216.463 48.787, 214.520 49.987 C 212.577 51.188, 211.205 52.522, 211.470 52.952 C 212.115 53.996, 208.173 57.506, 207.317 56.650 C 206.948 56.281, 207.513 55.323, 208.573 54.521 C 209.633 53.720, 210.050 53.064, 209.500 53.064 C 207.714 53.064, 204.782 55.838, 205.441 56.904 C 205.794 57.475, 204.939 58.936, 203.541 60.151 C 202.143 61.366, 201 62.894, 201 63.545 C 201 64.197, 200.100 65.874, 199 67.273 C 197.900 68.671, 197 70.532, 197 71.408 C 197 72.283, 196.100 73.900, 195 75 C 193.503 76.497, 193.004 78.319, 193.015 82.250 C 193.026 86.008, 193.306 87.074, 194 86 C 194.533 85.175, 194.976 83.332, 194.985 81.905 C 195.003 78.845, 198.067 75.705, 200.226 76.533 C 201.060 76.853, 202.372 76.485, 203.142 75.715 C 205.037 73.820, 209.165 71.628, 211 71.543 C 213.378 71.433, 219.138 67.821, 223.229 63.874 C 225.296 61.880, 228.453 59.667, 230.244 58.956 C 232.035 58.246, 233.950 57.330, 234.500 56.922 C 235.050 56.513, 237.223 55.857, 239.330 55.463 C 241.436 55.070, 243.397 54.129, 243.687 53.374 C 243.977 52.618, 244.642 52, 245.166 52 C 245.690 52, 245.864 52.412, 245.553 52.915 C 244.148 55.187, 253.898 53.404, 256 51.004 C 256.275 50.690, 257.175 50.463, 258 50.500 C 258.825 50.538, 263.550 49.280, 268.500 47.705 C 281.363 43.613, 298.824 39, 301.451 39 C 302.684 39, 305.106 38.295, 306.834 37.433 C 308.561 36.571, 310.412 36.137, 310.947 36.467 C 311.481 36.797, 312.724 36.611, 313.709 36.052 C 315.951 34.780, 326.901 31.821, 329.250 31.852 C 330.212 31.865, 331 31.552, 331 31.156 C 331 30.760, 332.218 30.335, 333.706 30.212 C 335.194 30.089, 336.859 29.541, 337.406 28.994 C 337.953 28.447, 339.162 28, 340.093 28 C 341.024 28, 342.006 27.428, 342.274 26.728 C 342.543 26.028, 343.965 25.356, 345.436 25.235 C 346.998 25.105, 347.855 25.426, 347.496 26.007 C 347.158 26.553, 347.359 27, 347.941 27 C 348.523 27, 349 26.553, 349 26.006 C 349 24.955, 355.250 25.418, 357.182 26.612 C 357.870 27.038, 358.031 26.860, 357.595 26.155 C 357.203 25.520, 357.373 25, 357.972 25 C 358.572 25, 359.332 25.701, 359.660 26.557 C 360.027 27.514, 360.884 27.868, 361.879 27.475 C 364.329 26.508, 371.922 25.543, 377.206 25.527 C 380.363 25.517, 381.581 25.181, 380.906 24.506 C 379.914 23.513, 356.969 22.380, 356 23.276" stroke="none" fill="#1a1a2e" fill-rule="evenodd"/>
</svg>