<svg xmlns="http://www.w3.org/2000/svg" width="400" height="300" viewBox="0 0 400 300" version="1.1">
	<path d="M 110.649 1.474 C 110.338 2.284, 110.794 3.345, 111.663 3.831 C 113.028 4.595, 112.924 4.940, 110.899 6.358 C 109.610 7.261, 109.114 8, 109.797 8 C 110.616 8, 110.854 8.936, 110.496 10.750 C 110.001 13.261, 110.040 13.304, 110.945 11.250 C 112.365 8.025, 112.680 8.446, 112.314 13.076 C 111.938 17.832, 109.083 21.779, 108.882 17.821 C 108.816 16.545, 108.811 15.179, 108.870 14.786 C 108.928 14.393, 108.306 14.329, 107.488 14.643 C 105.241 15.505, 105.695 17.813, 108.651 20.552 C 111.123 22.844, 111.192 23.130, 109.671 24.811 C 108.163 26.478, 108.167 26.796, 109.723 29.056 C 111.136 31.110, 111.152 31.297, 109.824 30.229 C 108.488 29.154, 108.153 29.306, 107.654 31.214 C 107.106 33.312, 106.974 33.347, 105.782 31.718 C 104.573 30.066, 104.428 30.081, 103.242 31.983 C 102.180 33.684, 102.229 34, 103.557 34 C 106.734 34, 109.229 36.019, 107.952 37.558 C 107.025 38.675, 107.123 39.110, 108.417 39.606 C 109.931 40.187, 109.928 40.333, 108.377 41.467 C 107.451 42.143, 107.009 43.206, 107.393 43.828 C 107.778 44.450, 107.625 45.832, 107.054 46.899 C 106.312 48.286, 106.343 48.948, 107.161 49.220 C 107.948 49.483, 107.788 50.394, 106.650 52.131 C 105.739 53.522, 105.284 54.950, 105.639 55.306 C 105.994 55.661, 105.720 56.632, 105.030 57.464 C 104.004 58.700, 104.069 59.089, 105.387 59.595 C 106.277 59.937, 107.031 61.398, 107.070 62.857 C 107.133 65.232, 107.228 65.297, 108 63.500 C 108.473 62.400, 108.891 61.945, 108.930 62.489 C 109.116 65.112, 105.367 71.993, 103.750 71.996 C 101.577 72.001, 101.530 70.647, 103.594 67.497 C 104.471 66.159, 105.002 64.505, 104.774 63.821 C 104.543 63.130, 103.168 64.331, 101.680 66.521 C 98.280 71.524, 98.237 76.026, 101.519 83.446 C 102.904 86.578, 103.542 88.835, 102.937 88.461 C 102.258 88.042, 101.955 88.493, 102.144 89.641 C 102.312 90.663, 102.054 92.132, 101.571 92.905 C 100.995 93.824, 101.058 94.082, 101.752 93.653 C 102.419 93.241, 102.619 93.741, 102.290 94.999 C 102.002 96.099, 101.386 97, 100.920 97 C 100.454 97, 100.114 99.025, 100.163 101.500 C 100.213 103.975, 100.716 106, 101.282 106 C 101.847 106, 101.495 106.900, 100.500 108 C 99.505 109.100, 99.040 110, 99.467 110 C 99.895 110, 99.744 110.604, 99.131 111.342 C 98.519 112.080, 98.313 112.980, 98.675 113.342 C 99.037 113.704, 98.847 114, 98.253 114 C 97.559 114, 97.442 114.983, 97.924 116.750 C 98.410 118.526, 98.200 120.238, 97.332 121.583 C 96.196 123.345, 96.206 123.667, 97.399 123.667 C 98.175 123.667, 98.596 123.111, 98.336 122.433 C 98.030 121.637, 99.305 120.955, 101.931 120.512 C 104.444 120.087, 106 119.284, 106 118.412 C 106 117.573, 107.014 117, 108.500 117 C 109.875 117, 111 117.450, 111 118 C 111 118.550, 110.255 119, 109.345 119 C 107.858 119, 107.875 119.204, 109.506 121.006 C 111.871 123.620, 110.615 124.866, 108 122.500 C 106.893 121.498, 105.653 121.015, 105.244 121.426 C 104.835 121.836, 105.513 122.993, 106.750 123.996 C 107.987 125, 108.986 126.423, 108.968 127.160 C 108.948 128.026, 108.420 127.818, 107.479 126.573 C 105.904 124.491, 104.613 124.839, 105.494 127.107 C 106.156 128.811, 111 131.221, 111 129.847 C 111 129.316, 111.450 129.160, 112 129.500 C 112.550 129.840, 113 129.566, 113 128.892 C 113 128.218, 113.236 127.902, 113.524 128.190 C 114.375 129.042, 112.872 132.039, 111.895 131.435 C 111.403 131.131, 111 131.385, 111 132 C 111 132.646, 110.472 132.787, 109.750 132.334 C 109.063 131.903, 107.600 131.640, 106.500 131.749 C 105.400 131.859, 105.034 131.707, 105.688 131.412 C 106.504 131.043, 106.258 130.258, 104.901 128.901 C 103.815 127.815, 102.525 127.176, 102.033 127.480 C 101.541 127.784, 100.856 127.575, 100.510 127.016 C 100.165 126.457, 99.152 126, 98.260 126 C 95.905 126, 106.971 133.988, 109.431 134.063 C 111.336 134.122, 111.313 134.202, 109.136 135.073 C 107.181 135.856, 106.986 136.278, 108.008 137.510 C 109.206 138.954, 109.123 139.025, 106.261 138.991 C 105.854 138.987, 105.516 138.199, 105.511 137.241 C 105.504 136.160, 104.680 135.459, 103.335 135.391 C 101.979 135.322, 101.351 135.751, 101.654 136.539 C 102.255 138.106, 100.369 139.406, 99.510 138.016 C 98.627 136.588, 96.748 136.745, 97.236 138.207 C 97.457 138.871, 98.957 140.155, 100.569 141.062 C 102.293 142.032, 103.379 143.388, 103.206 144.355 C 103.045 145.260, 103.478 146, 104.170 146 C 105.040 146, 104.935 146.494, 103.831 147.598 C 102.523 148.906, 101.828 148.978, 99.996 147.998 C 98.512 147.204, 97.988 147.171, 98.438 147.900 C 98.812 148.505, 98.586 149, 97.937 149 C 97.142 149, 97.072 149.410, 97.722 150.250 C 99.668 152.764, 100.219 155.427, 98.499 153.999 C 97.648 153.293, 96.658 153.009, 96.299 153.368 C 95.940 153.727, 96.513 154.738, 97.573 155.616 C 99.082 156.865, 98.877 156.840, 96.624 155.500 C 94.251 154.088, 93.598 154.026, 92.890 155.145 C 92.205 156.225, 92.028 156.235, 92.015 155.191 C 92.007 154.471, 91.502 154.190, 90.893 154.566 C 89.482 155.438, 91.780 157.022, 93.499 156.362 C 94.148 156.113, 95.192 156.527, 95.819 157.282 C 96.728 158.377, 96.508 158.639, 94.729 158.577 C 93.503 158.535, 92.197 158.079, 91.826 157.564 C 91.428 157.011, 90.508 157.163, 89.576 157.937 C 88.277 159.015, 87.721 159.013, 86.412 157.927 C 84.987 156.744, 85.047 156.527, 86.996 155.806 C 89.244 154.974, 89.315 152.938, 87.121 152.207 C 86.432 151.977, 85.620 152.737, 85.317 153.895 C 85.014 155.053, 84.317 156, 83.768 156 C 83.219 156, 83.507 157.125, 84.408 158.500 C 85.309 159.875, 85.612 161, 85.082 161 C 84.552 161, 83.840 160.550, 83.500 160 C 82.556 158.473, 80.713 158.809, 81.322 160.397 C 82.055 162.307, 77.360 163.138, 75.884 161.360 C 74.593 159.805, 71.562 159.482, 72.500 161 C 72.840 161.550, 72.934 162, 72.708 162 C 71.652 162, 65.443 159.598, 65 159.017 C 64.725 158.657, 62.475 157.576, 60 156.616 C 57.525 155.655, 53.779 153.745, 51.676 152.371 C 48.734 150.450, 47.138 150.030, 44.758 150.553 C 40.835 151.415, 40.793 151.390, 60.455 159.647 C 71.783 164.404, 74.759 166.003, 72.500 166.118 C 69.804 166.257, 69.753 166.315, 72 166.694 C 73.375 166.926, 76.020 167.813, 77.878 168.666 C 79.736 169.518, 82.955 170.279, 85.030 170.358 C 88.796 170.500, 88.803 170.509, 88.422 174.397 C 88 178.702, 87.255 180.020, 86.196 178.337 C 85.247 176.830, 55.407 175.532, 54.525 176.960 C 54.098 177.651, 57.172 178.029, 63.691 178.088 C 69.086 178.136, 75.750 178.526, 78.500 178.954 L 83.500 179.733 79.401 179.866 C 70.354 180.161, 60 181.338, 60 182.071 C 60 182.792, 62.047 182.720, 75.500 181.525 C 82.145 180.935, 79.045 182.852, 72.006 183.686 C 69.253 184.012, 67 184.657, 67 185.120 C 67 185.914, 74.785 185.376, 77.970 184.362 C 78.778 184.105, 79.153 184.181, 78.803 184.530 C 78.079 185.254, 81.523 189, 82.912 189 C 83.414 189, 83.699 187.864, 83.547 186.476 C 83.249 183.764, 84.442 182.287, 85.520 184.032 C 85.882 184.618, 86.722 184.738, 87.386 184.299 C 88.051 183.859, 87.786 184.247, 86.797 185.160 C 84.556 187.231, 84.548 187.735, 86.750 188.311 C 88.200 188.689, 88.150 188.788, 86.464 188.884 C 85.266 188.952, 84.400 189.720, 84.359 190.750 C 84.320 191.713, 83.951 193.287, 83.538 194.250 C 82.948 195.623, 83.293 196.022, 85.143 196.100 C 86.879 196.174, 86.578 196.421, 84 197.038 C 82.075 197.498, 78.925 198.564, 77 199.406 L 73.500 200.937 78.366 200.317 C 83.111 199.712, 83.204 199.750, 82.081 201.848 C 81.448 203.032, 81.283 204.032, 81.715 204.070 C 82.147 204.109, 81.600 204.527, 80.500 205 C 78.623 205.807, 78.616 205.864, 80.386 205.930 C 82.053 205.992, 81.962 206.311, 79.603 208.670 C 77.820 210.452, 77.311 211.574, 78.069 212.043 C 78.845 212.522, 78.899 213.342, 78.238 214.623 C 77.706 215.655, 77.458 217.021, 77.688 217.658 C 77.918 218.295, 77.562 219.152, 76.898 219.563 C 76.131 220.037, 75.951 219.888, 76.405 219.155 C 76.797 218.520, 76.668 218, 76.118 218 C 74.614 218, 73.822 219.772, 75 220.500 C 75.568 220.851, 75.769 221.564, 75.447 222.085 C 75.125 222.606, 74.443 222.774, 73.931 222.457 C 73.419 222.141, 73 222.370, 73 222.966 C 73 223.562, 71.974 224.439, 70.721 224.916 C 67.798 226.027, 67.340 230.015, 70.054 230.724 C 72.239 231.296, 72.578 232.525, 70.845 233.595 C 70.082 234.068, 69.965 233.866, 70.500 233 C 71.054 232.103, 70.920 231.931, 70.073 232.455 C 69.363 232.894, 69.082 234.190, 69.412 235.505 C 69.798 237.043, 69.476 237.987, 68.430 238.389 C 67.574 238.717, 67.153 239.439, 67.496 239.993 C 67.838 240.547, 67.390 241, 66.500 241 C 65.610 241, 65.172 241.470, 65.527 242.044 C 65.882 242.618, 65.645 243.723, 65 244.500 C 64.355 245.277, 64.118 246.382, 64.473 246.956 C 65.372 248.411, 63.676 248.264, 62.095 246.750 C 61.028 245.728, 60.899 246.139, 61.392 249 L 61.994 252.500 60.534 248.704 C 58.483 243.374, 55.850 240.372, 53.620 240.820 C 52.586 241.027, 51.314 240.590, 50.794 239.848 C 50.073 238.821, 49.729 238.791, 49.349 239.725 C 48.994 240.597, 48.032 240.344, 46.005 238.846 L 43.160 236.742 37.624 239.037 C 34.579 240.299, 32.302 241.680, 32.565 242.105 C 32.827 242.529, 32.245 243.341, 31.271 243.908 C 30.297 244.475, 29.916 244.953, 30.424 244.970 C 30.933 244.986, 30.292 246.125, 29 247.500 C 26.337 250.334, 24.365 250.591, 21.559 248.468 C 17.608 245.480, 12 247.921, 12 252.629 C 12 253.713, 11.460 255.140, 10.800 255.800 C 9.939 256.661, 9.922 257, 10.738 257 C 11.364 257, 11.808 257.900, 11.725 259 C 11.545 261.386, 8.673 261.600, 5 259.500 C -0.028 256.626, 0 256.518, 0 279 L 0 300 57.917 300 C 103.272 300, 115.960 299.729, 116.417 298.750 C 116.883 297.750, 117.117 297.750, 117.583 298.750 C 119.081 301.959, 134.902 300.305, 139.897 296.417 L 144.500 292.834 140.583 296.417 L 136.667 300 158.310 300 L 179.954 300 181.645 297.419 C 183.134 295.147, 183.183 294.239, 182.056 289.842 C 180.850 285.135, 180.898 284.760, 182.888 283.366 C 184.218 282.434, 185 280.805, 185 278.964 C 185 275.772, 190.553 271.990, 195.210 272.010 C 196.812 272.017, 195.952 272.740, 192.350 274.418 C 188.202 276.349, 187.067 277.417, 186.521 279.907 C 186.147 281.607, 184.939 283.629, 183.837 284.402 C 181.912 285.750, 181.905 285.849, 183.666 286.873 C 184.675 287.459, 184.980 287.953, 184.345 287.970 C 183.585 287.990, 183.367 289.317, 183.707 291.856 C 183.992 293.977, 183.719 296.656, 183.102 297.810 L 181.978 299.909 208.723 299.966 L 235.467 300.023 233.201 297.762 C 231.259 295.824, 230.795 295.715, 229.967 297 C 229.115 298.321, 228.887 298.324, 228.049 297.021 C 226.961 295.327, 220.333 295.500, 218.174 297.279 C 217.214 298.069, 216.660 298.068, 216.168 297.272 C 215.795 296.668, 213.336 296.206, 210.704 296.246 C 208.072 296.285, 205.400 295.800, 204.768 295.168 C 203.901 294.301, 204.588 294.032, 207.559 294.076 C 209.726 294.108, 212.175 294.094, 213 294.044 C 213.825 293.995, 216.797 294.241, 219.604 294.591 C 222.786 294.987, 225.529 294.787, 226.887 294.060 C 228.443 293.228, 229.985 293.185, 232.283 293.913 C 234.052 294.472, 236.738 295.180, 238.250 295.484 C 239.762 295.789, 241 296.675, 241 297.453 C 241 298.231, 239.762 299.055, 238.250 299.284 C 236.738 299.513, 269.614 299.768, 311.309 299.850 C 361.632 299.950, 386.910 299.664, 386.500 299 C 386.160 298.450, 385.312 298, 384.615 298 C 383.919 298, 382.332 296.918, 381.089 295.595 L 378.829 293.189 380.999 292.500 C 382.481 292.030, 384.967 292.759, 388.835 294.798 C 391.951 296.441, 396.033 298.110, 397.907 298.506 L 401.315 299.228 400.734 270.524 C 400.113 239.828, 400.150 240.097, 396.748 241.769 C 395.512 242.377, 393.488 243.158, 392.250 243.505 C 391.012 243.851, 390 244.554, 390 245.067 C 390 245.580, 389.598 246, 389.106 246 C 387.434 246, 388.491 240.508, 390.500 238.756 C 391.971 237.473, 393.493 237.165, 396.250 237.594 L 400 238.176 400 234.025 C 400 230.629, 399.682 229.927, 398.250 230.162 C 397.288 230.321, 395.868 230.054, 395.095 229.571 C 394.083 228.936, 393.912 229.049, 394.485 229.975 C 395.017 230.837, 394.821 231.093, 393.889 230.755 C 393.125 230.477, 392.624 229.710, 392.775 229.051 C 392.926 228.391, 392.608 228.124, 392.069 228.458 C 391.529 228.791, 390.414 228.037, 389.591 226.782 C 387.180 223.106, 381.041 220.176, 379.925 222.169 C 379.199 223.467, 377.629 223.675, 371.269 223.318 C 363.142 222.862, 357.202 226.660, 363.109 228.535 C 364.149 228.865, 365 229.518, 365 229.986 C 365 230.454, 365.301 231.622, 365.670 232.582 C 366.157 233.853, 365.986 234.109, 365.040 233.525 C 364.169 232.987, 363.892 233.177, 364.200 234.101 C 364.453 234.860, 366.247 235.935, 368.186 236.490 C 373.295 237.953, 378.822 242.487, 377.351 244.009 C 376.622 244.763, 375.340 244.907, 373.851 244.403 C 372.558 243.966, 370.849 243.736, 370.054 243.893 C 368.792 244.141, 368.792 243.954, 370.054 242.426 C 371.322 240.890, 371.315 240.756, 370 241.337 C 369.175 241.701, 367.712 242.276, 366.750 242.616 C 365.788 242.955, 365 243.628, 365 244.110 C 365 244.593, 363.988 244.799, 362.750 244.568 C 359.355 243.935, 359.308 243.854, 361.908 243.127 C 365.437 242.140, 365.413 239.525, 361.873 239.394 C 360.012 239.325, 359 239.786, 359 240.703 C 359 241.481, 358.550 241.840, 358 241.500 C 356.394 240.507, 356.850 242.631, 358.546 244.038 C 359.396 244.743, 359.848 245.953, 359.552 246.726 C 359.171 247.718, 359.545 247.962, 360.823 247.556 C 361.989 247.186, 363.474 247.876, 364.991 249.491 C 366.288 250.871, 368.020 252, 368.841 252 C 369.662 252, 370.040 251.707, 369.682 251.349 C 369.324 250.991, 369.812 250.105, 370.766 249.381 C 372.309 248.209, 372.123 248.060, 369.083 248.032 C 365.419 247.998, 365.568 246.740, 369.270 246.454 C 371.957 246.246, 376.157 250.427, 375.357 252.512 C 374.998 253.449, 375.381 254, 376.393 254 C 377.277 254, 378 254.477, 378 255.059 C 378 255.641, 378.430 255.852, 378.956 255.527 C 379.482 255.202, 379.665 254.163, 379.362 253.218 C 378.893 251.755, 378.974 251.723, 379.906 253 C 380.878 254.333, 381.109 254.333, 381.985 253 C 382.828 251.716, 382.972 251.752, 382.985 253.250 C 382.993 254.213, 382.602 255, 382.117 255 C 381.631 255, 381.005 255.873, 380.726 256.941 C 380.219 258.880, 373.614 262.483, 371.250 262.110 C 370.494 261.990, 370 263.049, 370 264.789 C 370 266.372, 369.734 267.933, 369.408 268.259 C 368.524 269.143, 363 263.902, 363 262.179 C 363 260.669, 358.251 253.781, 356.785 253.165 C 356.346 252.980, 356.261 252.387, 356.594 251.847 C 356.928 251.307, 356.256 250.618, 355.101 250.316 C 353.945 250.014, 353 249.235, 353 248.584 C 353 246.609, 345.943 244.482, 344.892 246.141 C 344.273 247.118, 344.026 246.815, 344.015 245.064 C 344.007 243.725, 342.999 241.564, 341.776 240.262 C 340.027 238.400, 339.836 237.719, 340.883 237.072 C 341.906 236.440, 341.933 236.077, 341 235.500 C 340.070 234.925, 340.104 234.549, 341.143 233.890 C 342.181 233.233, 342.059 233.027, 340.628 233.015 C 339.102 233.003, 338.979 232.730, 339.964 231.544 C 340.628 230.743, 340.865 229.591, 340.490 228.984 C 340.035 228.248, 339.386 228.457, 338.541 229.614 C 337.372 231.212, 337.137 231.139, 335.522 228.673 C 334.558 227.203, 333.034 226.036, 332.135 226.079 C 331.098 226.129, 330.957 226.342, 331.750 226.662 C 334.216 227.657, 332.934 228.630, 329.512 228.361 C 324.832 227.992, 322.962 230.962, 325.977 233.977 C 327.487 235.487, 327.631 236, 326.545 236 C 325.745 236, 323.956 234.865, 322.568 233.477 C 321.181 232.090, 319.810 230.965, 319.523 230.977 C 317.314 231.073, 317.121 230.810, 317.897 228.750 C 318.855 226.207, 317.514 221.564, 316.078 222.452 C 315.561 222.771, 314.856 222.575, 314.510 222.016 C 312.876 219.372, 310.090 220.968, 310.611 224.250 C 310.895 226.037, 311.174 228.063, 311.230 228.750 C 311.287 229.438, 311.660 230, 312.058 230 C 312.457 230, 313.070 231.143, 313.421 232.541 C 313.772 233.938, 314.495 234.812, 315.029 234.482 C 315.563 234.152, 316 234.385, 316 235 C 316 235.615, 316.526 235.793, 317.170 235.395 C 317.984 234.892, 318.120 235.245, 317.617 236.555 C 317.220 237.591, 317.190 238.143, 317.552 237.781 C 317.914 237.419, 319.255 238.251, 320.532 239.629 C 321.809 241.007, 323.173 241.992, 323.563 241.817 C 323.952 241.643, 324.643 242.507, 325.099 243.738 C 325.554 244.969, 325.606 245.869, 325.213 245.738 C 324.821 245.607, 324.500 245.950, 324.500 246.500 C 324.500 247.050, 324.837 247.388, 325.250 247.250 C 325.662 247.113, 326 247.675, 326 248.500 C 326 249.325, 325.438 249.968, 324.750 249.930 C 322.954 249.829, 319.309 248.169, 320.500 247.994 C 321.050 247.914, 319.925 247.241, 318 246.500 C 316.075 245.759, 315.128 245.118, 315.896 245.076 C 316.777 245.028, 316.287 244.069, 314.566 242.474 C 312.656 240.703, 310.882 240.013, 308.633 240.164 C 306.868 240.283, 304.884 240.046, 304.224 239.638 C 303.386 239.120, 303.227 239.441, 303.699 240.698 C 304.284 242.258, 304.156 242.322, 302.747 241.177 C 301.851 240.449, 301.374 239.190, 301.685 238.379 C 301.996 237.568, 301.565 236.363, 300.726 235.702 C 298.879 234.245, 297.203 229.389, 298.912 230.446 C 299.532 230.829, 299.206 229.647, 298.189 227.821 C 296.286 224.403, 292.641 222.959, 290.731 224.869 C 290.159 225.441, 288.978 225.557, 288.097 225.126 C 287.219 224.697, 285.375 224.381, 284 224.423 C 282.625 224.465, 280.890 223.922, 280.144 223.215 C 279.110 222.236, 278.457 222.206, 277.394 223.088 C 276.627 223.724, 276 223.910, 276 223.500 C 276 223.090, 275.250 223.373, 274.334 224.128 C 272.825 225.371, 272.738 225.218, 273.413 222.510 C 274.592 217.779, 277.274 216.823, 281.535 219.615 C 288.111 223.924, 300 222.036, 300 216.683 C 300 214.845, 306.501 208.003, 308.250 208.001 C 308.663 208, 309 207.360, 309 206.578 C 309 203.864, 317.105 202.220, 333.500 201.606 C 346.314 201.126, 347.419 201.439, 347.740 205.647 C 348.056 209.793, 346.180 210.409, 340.666 207.970 C 336.846 206.281, 331.440 205.623, 325.892 206.174 C 324.420 206.320, 324.418 206.567, 325.873 209.102 C 327.775 212.416, 328.699 212.180, 326.917 208.836 C 325.784 206.710, 325.822 206.623, 327.336 207.872 C 331.856 211.601, 326.112 215.107, 319.750 212.502 C 318.746 212.091, 318 212.229, 318 212.826 C 318 214.586, 321.121 214.997, 331.311 214.577 C 338.444 214.284, 341.841 214.557, 343.804 215.581 C 349.128 218.359, 350.027 217.660, 349.378 211.250 C 348.544 203.001, 348.644 202.270, 351.018 199.235 C 354.588 194.672, 361.530 193.745, 367.770 196.997 C 372.155 199.283, 382.235 201.379, 385.675 200.722 C 386.954 200.477, 388 200.688, 388 201.190 C 388 202.495, 394.882 205.194, 396.848 204.660 C 398.153 204.306, 398.017 204.057, 396.202 203.477 C 393.234 202.527, 393.728 199.772, 397.005 198.999 L 399.500 198.410 399.755 99.205 L 400.010 0 255.612 0 C 129.333 0, 111.143 0.185, 110.649 1.474 M 223.500 157.260 C 217.099 161.557, 206.048 179.179, 212.100 175.438 C 212.865 174.966, 212.851 175.411, 212.054 176.900 C 210.710 179.410, 211.709 181.985, 213.201 179.857 C 213.971 178.759, 214.073 178.787, 213.738 180 C 213.510 180.825, 212.238 181.500, 210.912 181.500 C 209.516 181.500, 208.605 182.026, 208.750 182.750 C 208.890 183.450, 208.011 184.007, 206.750 184.015 C 205.512 184.024, 203.825 184.467, 203 185 C 201.937 185.687, 203.102 185.951, 207 185.906 C 210.025 185.871, 211.938 185.615, 211.250 185.338 C 210.563 185.060, 210 184.369, 210 183.802 C 210 183.229, 211.021 183.439, 212.292 184.272 C 213.552 185.097, 215.465 186.033, 216.542 186.351 C 217.701 186.692, 217.368 186.793, 215.726 186.598 C 214.201 186.417, 212.711 186.658, 212.417 187.134 C 212.123 187.610, 209.685 188, 207 188 C 202.509 188, 198.572 189.899, 202.691 190.079 C 203.740 190.125, 203.975 190.370, 203.250 190.662 C 200.275 191.863, 202.193 193.225, 206 192.616 C 208.453 192.224, 210 192.368, 210 192.988 C 210 193.545, 209.213 194.007, 208.250 194.015 C 205.156 194.042, 203.217 195.814, 205 196.985 C 206.276 197.822, 206.284 197.972, 205.050 197.985 C 203.925 197.997, 203.868 198.268, 204.796 199.196 C 205.725 200.125, 206.340 199.957, 207.543 198.446 C 209.015 196.599, 209.064 196.657, 208.509 199.564 C 208.038 202.026, 208.550 203.401, 211.117 206.564 C 212.875 208.729, 213.971 209.600, 213.554 208.500 C 210.671 200.896, 210.675 200.975, 213.027 198.471 C 214.272 197.146, 215.752 196.347, 216.315 196.695 C 216.927 197.073, 217.095 196.689, 216.731 195.741 C 216.305 194.631, 216.932 193.870, 218.811 193.212 C 221.357 192.321, 227.285 187.960, 233.156 182.659 C 236.432 179.702, 238.303 167.867, 235.876 165.457 C 234.711 164.299, 233.818 165.040, 230.040 170.295 C 227.587 173.708, 224.111 177.771, 222.316 179.325 C 216.396 184.451, 216.944 181.047, 223.277 173.363 C 232.838 161.760, 232.533 162.351, 229.368 161.556 C 227.562 161.103, 226.403 161.315, 225.914 162.187 C 225.510 162.909, 223.123 165.750, 220.611 168.500 C 218.099 171.250, 216.034 173.838, 216.022 174.250 C 216.010 174.662, 215.534 175, 214.964 175 C 214.094 175, 219.817 167.241, 225.475 160.750 C 227.406 158.534, 226.167 158.494, 223.057 160.673 C 221.743 161.593, 221.017 161.781, 221.443 161.092 C 221.869 160.402, 223.557 159.024, 225.192 158.029 C 226.828 157.035, 227.791 156.001, 227.333 155.733 C 226.875 155.465, 225.150 156.152, 223.500 157.260 M 244.250 168.675 C 242.511 169.888, 241.680 169.980, 240.595 169.079 C 238.971 167.731, 237.354 174.003, 237.859 179.691 C 238.139 182.836, 223.146 196.826, 220.950 195.469 C 220.557 195.226, 219.117 195.906, 217.751 196.981 C 216.385 198.055, 214.959 198.625, 214.581 198.248 C 214.203 197.870, 214.174 198.289, 214.515 199.179 C 214.857 200.069, 214.656 201.095, 214.068 201.458 C 212.392 202.494, 212.815 205.523, 214.901 207.410 C 216.897 209.217, 218.417 208.250, 217.468 205.777 C 217.172 205.005, 217.845 203.545, 218.965 202.532 C 221.108 200.592, 221.863 201.737, 219.800 203.800 C 218.867 204.733, 218.951 205, 220.178 205 C 223.287 205, 225.481 199.626, 223.692 196.392 C 222.785 194.751, 222.853 194.669, 224.206 195.776 C 225.480 196.817, 225.864 196.797, 226.299 195.664 C 226.591 194.902, 227.769 194.032, 228.917 193.732 C 230.064 193.432, 230.751 193.595, 230.442 194.093 C 230.134 194.592, 229.306 195, 228.601 195 C 227.897 195, 226.759 196.238, 226.071 197.750 C 225.384 199.262, 225.143 200.182, 225.534 199.793 C 226.984 198.355, 232.826 203.948, 232.235 206.208 C 231.804 207.856, 232.037 208.200, 233.266 207.728 C 234.139 207.393, 236.008 207.655, 237.419 208.310 C 239.955 209.486, 240.879 211, 239.062 211 C 238.546 211, 238.190 211.869, 238.270 212.931 C 238.350 213.993, 238.779 214.637, 239.224 214.362 C 239.669 214.087, 239.774 213.443, 239.457 212.931 C 239.141 212.419, 240.007 212, 241.382 212 C 242.757 212, 244.157 211.555, 244.493 211.011 C 244.854 210.427, 244.413 210.288, 243.415 210.671 C 242.233 211.124, 241.875 210.896, 242.221 209.909 C 242.493 209.134, 243.449 208.562, 244.347 208.637 C 245.244 208.712, 245.740 208.388, 245.448 207.916 C 245.157 207.445, 246.104 206.761, 247.554 206.397 C 249.497 205.909, 249.837 205.511, 248.845 204.883 C 247.872 204.266, 248.122 204.026, 249.750 204.015 C 251.090 204.006, 252 204.607, 252 205.500 C 252 206.325, 252.395 207, 252.879 207 C 253.362 207, 254.327 208.375, 255.023 210.056 C 256.513 213.652, 258.533 212.592, 257.201 208.913 C 256.275 206.352, 256.979 201.790, 258.267 202.017 C 260.398 202.392, 265.161 200.717, 264.001 200.001 C 263.087 199.436, 263.313 199.035, 264.815 198.559 C 266.740 197.948, 266.596 197.630, 262.869 194.263 C 256.952 188.917, 253.812 182.141, 254.386 175.959 C 254.639 173.232, 254.685 171, 254.488 171 C 252.025 171, 248.999 173.328, 248.996 175.225 C 248.994 176.476, 248.061 179.028, 246.923 180.895 C 245.547 183.152, 244.770 186.335, 244.604 190.395 C 244.432 194.585, 243.673 197.598, 242.181 200 C 240.985 201.925, 240.006 204.287, 240.004 205.250 C 240.002 206.213, 239.550 207, 239 207 C 237.424 207, 237.829 204.792, 240.084 201.093 C 241.810 198.263, 242.111 196.363, 241.865 189.859 C 241.669 184.686, 241.980 181.620, 242.784 180.816 C 243.453 180.147, 244 178.774, 244 177.765 C 244 176.755, 244.655 174.930, 245.456 173.707 C 246.438 172.209, 247.495 165.702, 246.537 167.052 C 246.517 167.081, 245.487 167.811, 244.250 168.675 M 268.537 235.389 C 264.295 240.566, 260.987 241.564, 257.405 238.747 C 255.551 237.289, 253.966 236.906, 251.459 237.313 C 247.650 237.931, 240.034 243.178, 241.996 243.832 C 242.675 244.058, 243.517 243.806, 243.866 243.272 C 244.866 241.739, 248.668 240.001, 249.406 240.739 C 249.774 241.107, 251.071 241.459, 252.288 241.520 C 253.504 241.581, 256.181 241.714, 258.235 241.815 C 264.569 242.128, 269.232 251, 263.063 251 C 261.513 251, 259.723 251.629, 259.084 252.399 C 258.446 253.168, 256.253 254.031, 254.212 254.317 C 243.451 255.825, 239.013 257.600, 239.132 260.350 C 239.183 261.532, 238.879 264.032, 238.457 265.905 C 237.897 268.383, 238.003 269.116, 238.844 268.596 C 239.480 268.203, 240 267.218, 240 266.406 C 240 263.039, 243.158 260, 246.655 260 C 248.539 260, 251.844 259.100, 254 258 C 260.429 254.720, 262.751 255.277, 268.527 261.484 C 272.595 265.855, 273.886 266.718, 274.887 265.734 C 275.886 264.753, 276.077 264.807, 275.821 266 C 275.645 266.825, 276.053 267.391, 276.729 267.257 C 277.928 267.020, 286.513 269.076, 290.500 270.556 C 291.600 270.964, 293.479 272.178, 294.676 273.254 C 295.873 274.329, 297.255 274.960, 297.748 274.656 C 298.240 274.351, 299.817 274.711, 301.251 275.455 C 302.685 276.199, 304.066 276.600, 304.320 276.346 C 304.574 276.093, 305.774 277.278, 306.986 278.980 C 309.570 282.609, 311.580 282.375, 316.268 277.895 C 319.771 274.546, 319.874 274.523, 322.640 276.461 C 324.458 277.734, 324.968 277.736, 326.613 276.480 C 328.188 275.277, 328.265 274.884, 327.083 274.107 C 326.304 273.595, 325.665 271.674, 325.662 269.838 L 325.657 266.500 324.375 269.630 C 322.156 275.045, 315.649 274.877, 309.755 269.254 C 307.378 266.986, 306.269 266.669, 301.491 266.891 C 294.819 267.200, 289.531 265.606, 287.502 262.673 C 286.675 261.478, 283.445 259.140, 280.324 257.477 C 274.236 254.233, 272.465 252, 275.980 252 C 277.631 252, 278.054 251.482, 277.813 249.750 C 277.451 247.151, 273.720 243, 271.745 243 C 271.005 243, 269.860 242.460, 269.200 241.800 C 267.609 240.209, 267.648 236.715, 269.250 237.253 C 269.938 237.483, 270.501 238.533, 270.501 239.586 C 270.502 240.639, 270.922 241.275, 271.436 241 C 272.176 240.603, 273.025 231, 272.320 231 C 272.218 231, 270.515 232.975, 268.537 235.389" stroke="none" fill="#1a1a2e" fill-rule="evenodd"/>
</svg>