<svg xmlns="http://www.w3.org/2000/svg" width="400" height="269" viewBox="0 0 400 269" version="1.1">
	<path d="M 0 37.500 C 0 66.825, 0.272 75.003, 1.250 75.015 C 2.081 75.025, 1.997 75.351, 1 75.985 C -0.269 76.792, -0.296 77.268, 0.824 79.074 C 1.552 80.248, 1.664 80.911, 1.074 80.546 C 0.326 80.084, 0 84.604, 0 95.422 L 0 110.962 2.750 111.619 C 4.263 111.980, 6.062 112.718, 6.749 113.260 C 7.582 113.915, 9.011 113.824, 11.035 112.985 C 15.249 111.240, 21.686 111.406, 23.793 113.313 C 24.879 114.295, 26.059 114.582, 26.894 114.066 C 28.622 112.997, 36 112.874, 36 113.913 C 36 114.347, 37.542 114.219, 39.426 113.629 C 41.311 113.039, 42.832 112.319, 42.808 112.028 C 42.263 105.564, 48.784 105.225, 55.740 111.356 C 57.490 112.898, 58.475 113.117, 60.240 112.357 C 61.483 111.822, 63.850 111.694, 65.500 112.074 C 67.150 112.453, 71.763 112.817, 75.750 112.882 C 82.951 112.999, 83.512 112.728, 83.092 109.325 C 83.012 108.679, 83.409 107.865, 83.973 107.516 C 86.935 105.686, 82.051 93.532, 78.771 94.573 C 77.651 94.928, 75.374 94.440, 73.534 93.448 L 70.278 91.695 73.698 88.692 C 82.641 80.840, 88 67.850, 88 54.025 C 88 48.882, 88.462 44.938, 89.145 44.255 C 90.004 43.396, 89.693 42.988, 87.895 42.618 C 86.578 42.347, 84.150 41.831, 82.500 41.471 C 74.607 39.748, 56.701 39.281, 49.202 40.603 C 36.749 42.798, 37.028 43.341, 44.603 31.649 C 50.054 23.233, 51.553 21.953, 53.580 23.980 C 54.220 24.620, 55.874 24.597, 58.348 23.914 C 61.105 23.153, 62.514 23.182, 63.524 24.020 C 64.288 24.654, 65.382 24.882, 65.956 24.527 C 66.530 24.172, 67 24.619, 67 25.520 C 67 26.800, 67.622 27.022, 69.841 26.535 C 71.787 26.108, 73.085 26.397, 73.963 27.456 C 75.641 29.478, 78.661 29.428, 79.819 27.358 C 80.510 26.124, 81.452 25.898, 83.619 26.448 C 90.090 28.092, 96.999 27.645, 96.999 25.583 C 97 24.529, 97.301 23.968, 97.669 24.336 C 98.037 24.703, 99.239 24.216, 100.341 23.252 C 101.442 22.288, 102.050 22.006, 101.690 22.625 C 100.896 23.992, 109.183 26.528, 111.517 25.632 C 112.435 25.280, 112.846 25.440, 112.493 26.011 C 112.157 26.555, 111.234 27, 110.441 27 C 109.648 27, 109 27.499, 109 28.108 C 109 29.254, 114.001 28.471, 114.990 27.171 C 115.786 26.124, 118.395 26.382, 119.500 27.617 C 120.050 28.231, 122.075 29.581, 124 30.617 C 127.828 32.677, 132 36.553, 132 38.052 C 132 39.573, 135.943 39.147, 139.096 37.284 C 140.693 36.341, 142 34.991, 142 34.284 C 142 33.033, 143.209 32.595, 145.750 32.925 C 146.438 33.015, 147 32.714, 147 32.258 C 147 31.802, 147.787 31.371, 148.750 31.300 C 149.713 31.229, 152.407 30.938, 154.738 30.654 C 157.914 30.266, 159.194 30.523, 159.842 31.682 C 160.470 32.804, 161.364 33.008, 163.103 32.427 C 164.422 31.987, 166.537 31.746, 167.805 31.892 C 169.073 32.038, 171.211 31.437, 172.555 30.556 C 173.900 29.675, 175 29.205, 175 29.512 C 175 29.819, 175.881 29.599, 176.958 29.022 C 178.539 28.176, 179.124 28.362, 179.993 29.987 C 180.586 31.094, 181.730 32, 182.535 32 C 183.481 32, 184 33.016, 184 34.865 C 184 38.812, 187.090 42.379, 191.876 43.959 C 194.087 44.689, 196.138 45.918, 196.435 46.691 C 197.145 48.542, 196.291 119.720, 195.544 120.929 C 195.227 121.442, 195.350 122.098, 195.818 122.388 C 196.286 122.677, 196.740 124.733, 196.827 126.957 C 197.008 131.575, 194.415 132.539, 190.659 129.250 C 188.830 127.649, 188.713 127.643, 189.276 129.190 C 189.835 130.725, 188.570 130.885, 175.446 130.939 L 161 130.998 161 128.499 C 161 127.125, 160.550 126, 160 126 C 159.450 126, 159 125, 159 123.777 L 159 121.555 157.441 123.781 C 155.780 126.152, 151.747 125.327, 152.260 122.720 C 152.426 121.875, 151.192 121.598, 148.250 121.817 C 145.333 122.035, 144 121.740, 144 120.876 C 144 120.184, 143.360 120.491, 142.577 121.559 C 141.302 123.299, 141.372 123.581, 143.249 124.281 C 144.609 124.789, 145.624 124.613, 146.143 123.781 C 147.348 121.852, 150.557 124.276, 150.262 126.891 C 150 129.208, 151.903 129.697, 153.800 127.800 C 154.733 126.867, 155 126.867, 155 127.800 C 155 128.460, 155.873 129, 156.941 129 C 158.009 129, 159.160 129.450, 159.500 130 C 160.922 132.300, 148.215 131.081, 143.535 128.468 C 140.340 126.684, 139 126.331, 139 127.275 C 139 128.011, 140.238 129.103, 141.750 129.701 C 144.095 130.627, 143.296 130.803, 136.332 130.894 C 127.166 131.013, 124.878 130.482, 125.670 128.417 C 126.010 127.531, 125.566 127, 124.485 127 C 123.048 127, 122.970 126.741, 124.020 125.476 C 124.716 124.638, 124.996 123.663, 124.643 123.309 C 124.289 122.956, 124 123.119, 124 123.673 C 124 124.226, 122.875 125.192, 121.500 125.818 C 120.033 126.486, 119 127.793, 119 128.979 C 119 130.903, 118.379 131, 106 131 C 98.850 131, 93 130.785, 93 130.523 C 93 130.260, 94.336 127.576, 95.968 124.558 L 98.937 119.072 96.443 120.208 C 95.071 120.833, 94.123 121.830, 94.337 122.422 C 94.916 124.027, 92.064 129.158, 90.969 128.481 C 90.449 128.159, 90.291 128.594, 90.618 129.448 C 91.385 131.446, 89.131 131.471, 85.364 129.506 C 82.925 128.233, 82.454 128.221, 82.193 129.423 C 81.954 130.519, 79.631 130.854, 71.836 130.917 C 62.683 130.991, 61.841 130.842, 62.396 129.249 C 62.974 127.588, 62.936 127.588, 61.640 129.253 C 59.855 131.546, 54.393 130.612, 53.682 127.893 C 53.410 126.852, 52.605 126, 51.894 126 C 50.887 126, 50.867 126.267, 51.800 127.200 C 53.640 129.040, 53.228 131, 51 131 C 49.436 131, 49 130.333, 49 127.941 C 49 125.981, 48.607 125.125, 47.906 125.558 C 47.304 125.930, 47.017 127.307, 47.267 128.617 C 47.762 131.207, 46.194 131.794, 44.175 129.775 C 43.256 128.856, 42.502 128.830, 41.156 129.671 C 39.041 130.992, 2 131.523, 2 130.233 C 2 129.775, 2.540 128.860, 3.200 128.200 C 4.093 127.307, 4.102 127, 3.235 127 C 0.210 127, 0 131.742, 0 199.934 L 0 269 42.500 269 C 79.611 269, 85 268.810, 85 267.500 C 85 266.675, 85.498 266, 86.107 266 C 86.716 266, 86.962 266.658, 86.653 267.461 C 85.924 269.362, 167.981 269.649, 169.155 267.750 C 169.657 266.936, 170.212 266.929, 171.174 267.722 C 173.712 269.816, 202.986 269.420, 203.075 267.291 C 203.117 266.306, 203.099 255.713, 203.035 243.750 C 202.972 231.788, 203.311 222, 203.789 222 C 204.268 222, 204.623 221.046, 204.579 219.881 C 204.457 216.627, 207.591 215.058, 209.365 217.484 C 210.555 219.111, 211.036 219.215, 212.351 218.124 C 213.313 217.326, 215.031 217.068, 216.800 217.456 C 218.789 217.893, 220.078 217.611, 220.963 216.544 C 222.306 214.927, 226 214.401, 226 215.827 C 226 216.282, 227.414 216.446, 229.142 216.192 C 232.131 215.754, 232.251 215.864, 231.602 218.449 C 231.106 220.427, 231.245 220.967, 232.114 220.429 C 232.852 219.973, 233.046 220.116, 232.622 220.802 C 232.245 221.413, 231.202 221.631, 230.304 221.286 C 229.213 220.868, 228.912 221.048, 229.395 221.830 C 229.793 222.474, 230.781 223, 231.590 223 C 232.400 223, 233.322 223.675, 233.638 224.500 C 233.955 225.325, 234.642 226, 235.166 226 C 235.690 226, 235.867 225.594, 235.560 225.097 C 234.989 224.173, 240.616 221.593, 242.603 221.868 C 244.208 222.089, 254.429 217.421, 261.972 213.021 C 270.733 207.911, 289.967 199.773, 291.707 200.441 C 292.475 200.736, 292.864 200.589, 292.571 200.115 C 291.910 199.046, 302.476 196, 306.847 196 C 308.800 196, 310.292 195.404, 310.645 194.482 C 310.965 193.648, 311.954 193.085, 312.841 193.232 C 313.729 193.380, 314.465 193.050, 314.478 192.500 C 314.510 191.055, 322.773 183, 324.223 183 C 324.895 183, 323.999 184.322, 322.230 185.937 C 318.396 189.439, 318.787 191.432, 323.653 193.191 C 326.654 194.277, 326.899 194.600, 325.497 195.626 C 324.579 196.297, 324.299 197.067, 324.850 197.407 C 326.066 198.159, 329 197.089, 329 195.893 C 329 195.402, 330.336 195, 331.969 195 C 334.197 195, 334.794 194.626, 334.362 193.500 C 334.045 192.675, 333.947 191.993, 334.143 191.984 C 334.339 191.975, 339.614 191.544, 345.865 191.027 C 357.399 190.073, 360 190.607, 360 193.929 C 360 195.153, 357.819 194.939, 356.862 193.622 C 355.969 192.393, 354 193.800, 354 195.666 C 354 196.631, 353.435 196.997, 352.500 196.638 C 351.675 196.322, 351 196.426, 351 196.871 C 351 198.552, 345.744 200.199, 344.841 198.801 C 344.166 197.757, 343.806 197.796, 343.015 199 C 342.241 200.180, 342.027 200.207, 342.015 199.128 C 342.004 198.077, 341.677 198.023, 340.627 198.895 C 339.871 199.522, 338.521 199.754, 337.627 199.410 C 336.540 198.993, 336 199.320, 336 200.393 C 336 202.228, 334.876 202.476, 333.374 200.974 C 332.673 200.273, 331.457 200.773, 329.534 202.556 C 327.337 204.592, 326.534 204.872, 325.875 203.832 C 325.229 202.813, 325.027 202.912, 325.015 204.250 C 325.007 205.213, 324.550 206, 324 206 C 323.450 206, 323 205.325, 323 204.500 C 323 203.675, 322.550 203, 322 203 C 321.450 203, 321 203.702, 321 204.559 C 321 205.416, 320.550 205.840, 320 205.500 C 319.450 205.160, 319 205.861, 319 207.058 C 319 209.383, 319.699 209.392, 326.769 207.160 C 328.567 206.593, 329.810 206.498, 329.531 206.951 C 329.251 207.403, 326.992 208.372, 324.511 209.105 C 322.030 209.837, 320 210.964, 320 211.609 C 320 212.254, 318.538 213.012, 316.750 213.295 C 314.962 213.578, 310.800 214.796, 307.500 216.003 C 299.408 218.961, 295 219.981, 295 218.895 C 295 218.403, 295.450 218, 296 218 C 296.550 218, 297 217.628, 297 217.173 C 297 215.905, 291.210 217.042, 289.953 218.557 C 289.061 219.631, 289.352 219.804, 291.421 219.429 C 294.514 218.868, 294.908 221.343, 292.474 226.050 C 290.597 229.680, 289.700 229.918, 291.025 226.435 C 292.749 221.899, 292.319 220.689, 289.250 221.437 C 287.738 221.806, 285.674 222.108, 284.664 222.109 C 283.495 222.111, 283.025 222.624, 283.371 223.524 C 283.669 224.300, 283.482 225.202, 282.956 225.527 C 281.705 226.300, 281.715 230, 282.969 230 C 283.501 230, 283.655 229.213, 283.309 228.250 C 282.964 227.287, 283.012 226.796, 283.416 227.158 C 283.820 227.520, 284.289 228.645, 284.458 229.658 C 284.627 230.671, 285.268 231.388, 285.883 231.250 C 286.497 231.113, 287 231.480, 287 232.067 C 287 232.680, 287.853 232.864, 289 232.500 C 290.100 232.151, 291 232.297, 291 232.826 C 291 233.354, 291.698 234.054, 292.552 234.382 C 293.432 234.719, 293.842 234.554, 293.500 234 C 293.153 233.438, 293.581 233.286, 294.506 233.640 C 295.391 233.980, 295.887 234.852, 295.608 235.578 C 295.266 236.469, 295.654 236.704, 296.801 236.302 C 298.065 235.858, 297.935 236.254, 296.292 237.853 C 295.077 239.034, 293.502 240.032, 292.792 240.070 C 290.453 240.198, 295.436 241.858, 298.372 241.930 C 300.713 241.987, 301.030 242.258, 300.087 243.395 C 298.571 245.222, 301.872 245.094, 303.821 243.250 C 305.477 241.684, 307 241.639, 307 243.155 C 307 243.810, 307.866 243.526, 309 242.500 C 310.100 241.505, 311 240.140, 311 239.467 C 311 236.658, 314.189 235.399, 315.666 237.624 L 317.058 239.720 321.168 237.687 C 323.428 236.569, 325.493 234.831, 325.756 233.827 C 326.018 232.822, 327.129 232, 328.224 232 C 329.523 232, 330.027 231.512, 329.674 230.594 C 328.977 228.777, 332.272 225.783, 334.168 226.511 C 335.061 226.854, 336.138 226.111, 336.950 224.593 C 338.228 222.205, 346.357 216.304, 347.262 217.108 C 347.505 217.323, 349.572 215.813, 351.855 213.750 C 354.138 211.688, 356.792 209.931, 357.753 209.848 C 358.714 209.764, 360.169 209.651, 360.987 209.596 C 361.804 209.541, 362.635 208.597, 362.834 207.498 C 363.032 206.399, 363.633 205.050, 364.168 204.500 C 364.811 203.841, 365.033 204.011, 364.821 205 C 364.556 206.241, 365.968 206.500, 373 206.500 L 381.500 206.500 381.167 203.109 L 380.834 199.718 384.830 200.357 C 387.027 200.708, 389.427 201.148, 390.163 201.334 C 390.898 201.520, 391.162 201.483, 390.750 201.253 C 389.335 200.461, 389.999 198.786, 391.500 199.362 C 393.370 200.079, 393.382 199.256, 391.553 195.750 C 390.095 192.955, 391.899 191.410, 393.534 194.054 C 393.966 194.753, 395.002 194.573, 396.611 193.519 C 398.756 192.114, 399.103 192.105, 399.615 193.439 C 400.304 195.234, 397.815 198, 395.512 198 C 394.616 198, 394.160 198.450, 394.500 199 C 394.840 199.550, 396.216 200, 397.559 200 C 398.902 200, 400 200.499, 400 201.108 C 400 201.771, 399.059 201.981, 397.662 201.630 C 395.403 201.063, 395.320 201.258, 395.219 207.372 L 395.114 213.701 397.807 213.189 C 400.112 212.751, 400.321 212.894, 399.259 214.181 C 398.576 215.008, 398.351 216.017, 398.759 216.423 C 399.166 216.830, 399.748 228.714, 400.051 242.831 C 400.354 256.949, 400.579 225.750, 400.551 173.500 C 400.523 121.250, 400.367 81.777, 400.206 85.782 C 399.929 92.609, 398 95.508, 398 89.096 C 398 87.564, 397.096 85.492, 395.992 84.493 C 394.164 82.839, 394.124 82.521, 395.540 80.955 C 396.511 79.883, 396.890 78.249, 396.549 76.618 C 396.247 75.178, 395.764 72.865, 395.475 71.477 C 395.065 69.506, 395.448 68.768, 397.225 68.103 C 399.279 67.335, 399.559 67.604, 400.108 70.876 C 400.443 72.869, 400.674 57.625, 400.622 37 L 400.529 -0.500 400.262 32 C 399.951 69.828, 400.287 67.697, 395.060 65.030 C 392.871 63.914, 390.535 63, 389.869 63 C 389.202 63, 387.846 62.266, 386.854 61.368 C 384.762 59.475, 381.520 60.427, 375.874 64.593 C 372.370 67.178, 371 67.579, 371 66.019 C 371 65.480, 372.132 64.754, 373.516 64.407 C 374.900 64.059, 376.925 62.640, 378.016 61.253 C 382.084 56.081, 379.985 55.694, 371.662 60.081 C 365.230 63.472, 363.156 63.449, 367.942 60.041 C 372.635 56.700, 371.593 55.904, 365.343 58.054 C 355.726 61.363, 356.507 59.707, 367.250 54.011 C 376.817 48.939, 381 46.061, 381 44.552 C 381 43.312, 376.280 38, 375.179 38 C 374.772 38, 373.929 36.650, 373.306 35 C 372.048 31.667, 372.211 31.507, 375.223 33.119 C 377.601 34.392, 377.472 21.115, 374.966 6.728 L 373.795 0 367.897 0 C 360.486 -0, 359.919 2.330, 365.935 8.053 C 370.115 12.030, 370.293 14.077, 366.227 11.413 L 363.794 9.819 364.510 14.159 C 364.904 16.547, 365.738 19.128, 366.363 19.896 C 368.129 22.064, 370.904 28.430, 370.329 28.994 C 370.046 29.272, 368.339 27.749, 366.538 25.608 C 364.507 23.195, 363.098 22.206, 362.832 23.005 C 362.518 23.947, 360.264 23.341, 354.451 20.751 C 343.194 15.734, 342 15.449, 342 17.778 C 342 18.829, 341.100 20.505, 340 21.500 C 335.935 25.178, 337.942 27.261, 342.785 24.391 L 345.500 22.783 343.052 24.962 C 340.857 26.916, 337.446 27.261, 332.283 26.051 C 332.164 26.023, 332.197 23.819, 332.357 21.153 C 332.628 16.613, 332.462 16.236, 329.750 15.212 C 325.106 13.459, 324.258 14.430, 323.831 21.992 C 323.556 26.846, 322.904 29.449, 321.600 30.889 C 320.587 32.009, 320.009 33.580, 320.316 34.380 C 320.623 35.180, 320.287 36.060, 319.570 36.335 C 318.732 36.656, 317.849 35.438, 317.095 32.923 C 315.892 28.908, 312.141 26, 308.165 26 C 307.101 26, 305.493 24.875, 304.592 23.500 C 302.535 20.361, 301.175 20.371, 294.865 23.568 L 289.797 26.137 293.087 28.564 C 294.896 29.899, 296.717 31.543, 297.134 32.217 C 298.383 34.237, 299.250 32.336, 298.078 30.146 C 297.366 28.815, 297.336 27.910, 297.993 27.504 C 298.542 27.165, 299.519 28.046, 300.165 29.462 C 301.363 32.091, 296.516 39.383, 295.061 37.142 C 294.752 36.667, 293.038 35.530, 291.250 34.614 C 289.462 33.698, 288 32.499, 288 31.950 C 288 29.831, 283.019 28.965, 279.438 30.461 C 275.145 32.255, 274.387 34.064, 276.310 37.920 C 278.231 41.771, 275.839 44.868, 273.458 41.612 C 272.682 40.551, 271.627 40.112, 270.912 40.554 C 270.088 41.064, 269.949 40.892, 270.485 40.025 C 271.001 39.189, 270.824 38.892, 269.977 39.174 C 269.261 39.413, 268.547 40.484, 268.392 41.554 C 268.236 42.624, 267.072 44.434, 265.804 45.576 C 261.563 49.397, 254 64.644, 254 69.374 C 254 73.942, 252.829 73.953, 249.371 69.420 C 247.402 66.838, 246.978 65.632, 247.850 65.093 C 248.738 64.544, 248.494 63.627, 246.934 61.643 C 245.765 60.157, 245.043 58.330, 245.329 57.584 C 245.675 56.683, 245.274 56.377, 244.139 56.674 C 242.932 56.990, 241.898 56.010, 240.626 53.342 C 239.055 50.047, 238.697 49.790, 237.833 51.334 C 237.160 52.537, 237.198 53.533, 237.952 54.442 C 238.609 55.234, 237.444 54.979, 235.100 53.819 C 230.618 51.602, 226.823 47, 229.477 47 C 230.315 47, 231 46.541, 231 45.981 C 231 45.070, 228.237 45.312, 224.178 46.580 C 223.450 46.807, 221.981 46.525, 220.913 45.953 C 219.437 45.163, 218.838 45.258, 218.421 46.346 C 218.097 47.189, 217.073 47.570, 215.935 47.273 C 214.386 46.868, 214 47.288, 214 49.383 C 214 51.491, 214.475 52, 216.441 52 C 219.138 52, 220.735 53.571, 218.756 54.278 C 218.065 54.524, 217.725 54.949, 218 55.221 C 218.275 55.494, 219.850 55.125, 221.500 54.403 C 223.514 53.522, 223.897 53.075, 222.667 53.045 C 219.486 52.967, 221.503 50.533, 225.254 49.924 C 228.308 49.427, 229.030 49.688, 230.091 51.670 C 230.777 52.952, 231.926 54, 232.644 54 C 233.583 54, 233.712 54.632, 233.103 56.250 C 231.857 59.556, 232.279 69.256, 233.689 69.728 C 234.457 69.985, 234.994 68.596, 235.203 65.813 L 235.527 61.500 237.112 65 C 238.510 68.088, 238.531 69.066, 237.290 73.316 C 236.516 75.965, 236.035 79.565, 236.221 81.316 L 236.558 84.500 238.197 81 C 239.181 78.901, 239.870 78.200, 239.918 79.250 C 240.007 81.158, 241.514 81.596, 242.500 80 C 243.526 78.340, 244.479 78.848, 246.382 82.070 C 248.438 85.549, 247.927 91.667, 245.581 91.667 C 244.816 91.667, 244.405 91.107, 244.668 90.424 C 245.140 89.194, 242.435 83, 241.426 83 C 241.139 83, 239.153 83.846, 237.013 84.880 C 232.621 87.002, 232 86.476, 232 80.636 C 232 77.016, 223.859 76.139, 221.390 79.492 C 220.779 80.321, 219.767 81, 219.140 81 C 218.513 81, 218 81.450, 218 82 C 218 82.550, 217.073 83, 215.941 83 C 214.809 83, 214.160 83.450, 214.500 84 C 215.532 85.670, 223.040 85.268, 222.391 83.577 C 222.075 82.752, 222.755 81.666, 224.008 80.996 C 226.449 79.689, 227.592 80.233, 226.413 82.141 C 225.176 84.142, 225.026 88, 226.185 88 C 226.761 88, 226.986 88.945, 226.684 90.099 C 226.234 91.821, 226.499 92.103, 228.160 91.668 C 230.086 91.165, 230.101 91.231, 228.471 93.032 C 225.798 95.986, 227.243 98.109, 231.468 97.438 C 235.825 96.746, 236.210 98.587, 232.400 101.900 C 229.838 104.127, 229.781 104.132, 228.429 102.202 C 226.021 98.764, 222.437 98.861, 220.745 102.410 C 219.086 105.887, 219.989 110, 222.411 110 C 223.223 110, 224.587 111, 225.443 112.223 C 226.299 113.445, 227 113.909, 227 113.254 C 227 112.590, 227.685 112.325, 228.548 112.657 C 229.399 112.984, 230.637 112.556, 231.298 111.707 C 232.433 110.250, 237.328 108.646, 250 105.581 C 253.025 104.850, 256.767 103.745, 258.315 103.126 C 259.863 102.507, 261.641 102, 262.265 102 C 264.004 102, 261.715 103.972, 259.427 104.446 C 244.821 107.468, 227.995 113, 233.406 113 C 234.320 113, 234.630 113.700, 234.290 115 C 234.002 116.100, 233.349 117, 232.840 117 C 232.330 117, 232.004 117.563, 232.117 118.250 C 232.229 118.938, 231.802 120.757, 231.168 122.294 C 228.285 129.286, 228.423 129.841, 233.157 130.263 C 235.546 130.476, 229.757 130.729, 220.292 130.825 L 203.085 131 203.495 104.750 C 203.721 90.313, 204.050 76.925, 204.225 75 C 204.401 73.075, 204.180 70.983, 203.735 70.352 C 203.289 69.721, 203.054 53.633, 203.212 34.602 L 203.500 -0.001 101.750 -0.001 L 0 0 0 37.500 M 103.006 38.603 C 95.705 41.089, 92.173 42.869, 96.807 41.726 C 98.717 41.255, 98.911 41.402, 97.933 42.581 C 95.893 45.039, 97.765 50.189, 102.441 54.989 C 106.469 59.124, 106.967 60.212, 108.411 68.040 C 110.107 77.238, 112.123 93.094, 112.061 96.750 C 112.040 97.987, 112.384 99, 112.826 99 C 113.268 99, 114.485 100.688, 115.531 102.750 C 118.923 109.442, 119.063 110, 117.351 110 C 116.268 110, 115.929 109.378, 116.281 108.034 C 116.564 106.953, 116.504 106.132, 116.147 106.209 C 114.999 106.458, 109.534 103.568, 108.406 102.115 C 107.692 101.196, 106.415 100.930, 104.738 101.351 C 103.086 101.765, 101.998 101.550, 101.698 100.748 C 101.374 99.886, 100.757 100.116, 99.703 101.489 C 98.864 102.583, 98.389 103.820, 98.648 104.239 C 98.906 104.658, 98.465 105, 97.666 105 C 96.867 105, 95.955 104.325, 95.638 103.500 C 95.322 102.675, 95.525 102, 96.090 102 C 96.656 102, 96.840 101.550, 96.500 101 C 96.160 100.450, 96.414 100, 97.063 100 C 97.964 100, 97.968 99.666, 97.081 98.597 C 96.186 97.520, 96.216 97.088, 97.208 96.734 C 99.671 95.857, 96.971 94.662, 91.499 94.208 C 87.825 93.904, 86 94.125, 86 94.876 C 86 95.494, 86.420 96, 86.933 96 C 87.899 96, 89.339 99.382, 89.486 102 C 89.621 104.384, 92.280 108.659, 92.751 107.247 C 93.387 105.338, 98.493 105.764, 101.139 107.948 L 103.500 109.896 101 109.437 C 98.761 109.026, 98.809 109.124, 101.463 110.376 C 103.092 111.145, 105.010 111.550, 105.725 111.275 C 106.440 111.001, 107.768 111.389, 108.675 112.138 C 109.964 113.202, 110.417 113.227, 110.746 112.250 C 111.335 110.501, 114.942 110.686, 115.638 112.500 C 115.955 113.325, 117.066 114, 118.107 114 C 119.148 114, 120 114.477, 120 115.059 C 120 115.641, 120.452 115.839, 121.004 115.498 C 121.556 115.157, 121.744 113.829, 121.423 112.548 C 121.082 111.191, 121.354 109.899, 122.073 109.455 C 122.819 108.994, 123.054 109.103, 122.666 109.731 C 122.309 110.310, 123.094 110.976, 124.434 111.232 C 126.677 111.661, 126.749 111.547, 125.471 109.596 C 124.276 107.773, 124.359 106.914, 126.104 103.016 C 127.208 100.551, 127.903 97.738, 127.649 96.767 C 127.392 95.784, 127.734 95, 128.419 95 C 131.860 95, 138.922 80.902, 138.979 73.920 C 139.001 71.273, 134.534 67.340, 127.307 63.641 C 124.467 62.188, 124.145 61.591, 124.397 58.254 C 124.554 56.189, 124.312 54.015, 123.861 53.422 C 123.409 52.828, 122.839 51.253, 122.594 49.922 C 122.349 48.590, 122.062 47.275, 121.956 47 C 121.850 46.725, 121.853 46.054, 121.962 45.509 C 122.606 42.301, 119.603 37.171, 116.748 36.600 C 112.193 35.689, 111.095 35.849, 103.006 38.603 M 52.374 42.037 C 49.460 43.143, 46.525 47.518, 44.459 53.837 C 43.471 56.858, 41.754 59.770, 40.464 60.615 C 39.220 61.431, 37.671 63.381, 37.021 64.950 C 36.371 66.519, 34.750 68.825, 33.420 70.076 C 30.245 73.058, 34.457 78.690, 38.154 76.405 C 38.786 76.014, 39.798 76.354, 40.402 77.159 C 41.006 77.965, 42.206 78.888, 43.069 79.211 C 43.932 79.534, 46.175 82.794, 48.053 86.456 C 52.545 95.214, 57.659 99.810, 55.211 92.889 C 53.923 89.247, 55.161 84.501, 57.400 84.495 C 60.440 84.486, 61.388 80.279, 61.340 67 C 61.279 49.911, 57.722 40.008, 52.374 42.037 M 147.675 158.041 C 146.288 159.132, 144.858 161.369, 144.497 163.012 C 143.785 166.256, 143.053 166.653, 141.200 164.800 C 139.752 163.352, 139.578 165.094, 141 166.800 C 141.727 167.673, 141.673 167.727, 140.800 167 C 139.340 165.784, 135 165.669, 135 166.847 C 135 167.920, 131.496 172, 130.574 172 C 130.193 172, 130.157 171.555, 130.493 171.011 C 130.834 170.459, 130.463 170.269, 129.653 170.580 C 128.855 170.886, 127.858 170.579, 127.437 169.898 C 126.919 169.061, 127.159 168.847, 128.177 169.238 C 130.124 169.985, 132.454 168.544, 131.582 167.132 C 131.149 166.432, 130.297 166.366, 129.204 166.947 C 128.267 167.446, 126.600 168.157, 125.500 168.527 C 123.542 169.186, 123.545 169.218, 125.648 170.030 C 128.476 171.123, 129.518 172.900, 127.272 172.800 C 126.297 172.757, 124.150 173.076, 122.500 173.510 C 119.501 174.299, 119.501 174.299, 121.388 172.168 C 122.909 170.452, 123.038 169.751, 122.052 168.563 C 121.379 167.751, 121.146 166.573, 121.535 165.944 C 122.052 165.107, 121.654 165.115, 120.051 165.973 L 117.861 167.145 119.937 168.945 C 121.775 170.539, 121.837 170.890, 120.483 172.014 C 119.600 172.747, 119.204 174.066, 119.545 175.141 C 119.869 176.164, 119.684 177, 119.132 177 C 118.581 177, 116.863 177.523, 115.315 178.161 C 113.767 178.800, 112.163 179.250, 111.750 179.161 C 111.338 179.073, 111 179.478, 111 180.063 C 111 180.647, 110.213 180.996, 109.250 180.838 C 108.287 180.679, 106.969 180.884, 106.319 181.291 C 105.670 181.699, 104.824 181.525, 104.441 180.905 C 103.574 179.502, 105.762 178.036, 108.750 178.015 C 109.987 178.007, 111.056 177.550, 111.125 177 C 111.194 176.450, 111.327 175.438, 111.420 174.750 C 111.514 174.063, 112.079 173.595, 112.676 173.710 C 113.273 173.826, 114.560 173.038, 115.536 171.960 C 118.195 169.022, 115.549 169.525, 110.680 172.884 C 104.571 177.098, 102.372 179.772, 103.824 181.224 C 105.648 183.048, 105.226 184, 102.594 184 C 100.770 184, 100.301 184.435, 100.657 185.797 C 101.260 188.104, 96.535 190.935, 94.867 189.267 C 93.619 188.019, 94.656 185.669, 96.069 186.543 C 97.708 187.555, 97.064 185.297, 95.308 183.872 C 94.139 182.924, 93.850 182.889, 94.372 183.758 C 94.802 184.473, 94.426 185.717, 93.499 186.643 C 92.349 187.794, 92.183 188.583, 92.936 189.336 C 94.545 190.945, 94.217 192, 92.107 192 C 91.066 192, 89.930 191.261, 89.583 190.357 C 89.237 189.453, 88.674 188.992, 88.334 189.333 C 87.994 189.673, 88.280 190.632, 88.970 191.464 C 90.342 193.117, 90.153 193.249, 84.662 194.458 C 82.245 194.990, 82.013 195.310, 83.097 196.617 C 84.135 197.867, 84.117 198.310, 83 199 C 81.936 199.658, 81.892 200.165, 82.806 201.266 C 83.453 202.046, 83.687 202.980, 83.325 203.342 C 82.069 204.598, 79.093 203.991, 77.974 202.250 C 76.925 200.619, 76.888 200.625, 77.428 202.340 C 77.746 203.352, 77.674 204.702, 77.269 205.340 C 76.541 206.483, 76.372 207.026, 76.125 209 C 75.955 210.360, 73.663 210.263, 72.235 208.835 C 71.348 207.948, 71.479 207.358, 72.785 206.367 C 74.930 204.737, 72.770 204.517, 69.870 206.070 C 68.176 206.976, 68.072 207.383, 69.185 208.732 C 70.222 209.989, 70.236 210.414, 69.250 210.746 C 67.686 211.272, 67.594 214, 69.140 214 C 69.767 214, 70.827 213.252, 71.495 212.338 C 72.245 211.311, 73.370 210.928, 74.434 211.336 C 75.931 211.911, 75.748 212.406, 73.033 215.120 C 71.316 216.838, 70.196 218.526, 70.545 218.872 C 70.894 219.217, 72.154 218.280, 73.345 216.790 C 74.972 214.755, 75.884 214.324, 77.006 215.059 C 78.306 215.911, 78.270 216.214, 76.727 217.396 C 75.061 218.672, 75.091 218.791, 77.209 219.345 C 79.090 219.836, 79.239 220.148, 78.108 221.217 C 77.030 222.236, 76.656 222.242, 76.292 221.250 C 76.040 220.563, 75.141 220, 74.294 220 C 73.120 220, 73.019 220.318, 73.869 221.342 C 74.481 222.080, 74.687 222.980, 74.325 223.342 C 73.963 223.704, 74.495 224, 75.508 224 C 77.200 224, 77.173 224.187, 75.174 226.314 C 72.363 229.307, 72.221 234, 74.941 234 C 76.009 234, 77.160 233.550, 77.500 233 C 78.467 231.436, 82 231.828, 82 233.500 C 82 234.325, 82.380 235, 82.845 235 C 84.292 235, 87.364 231.028, 86.524 230.244 C 86.085 229.835, 85.525 230.063, 85.280 230.750 C 84.743 232.252, 82 232.434, 82 230.968 C 82 229.796, 86.107 228.004, 87.250 228.676 C 87.663 228.919, 88 228.641, 88 228.059 C 88 227.477, 88.477 227, 89.059 227 C 89.658 227, 89.777 227.543, 89.334 228.250 C 88.903 228.938, 88.676 230.268, 88.831 231.207 C 88.985 232.146, 88.186 233.491, 87.056 234.197 C 84.915 235.534, 84.326 237, 85.929 237 C 86.439 237, 87.561 236.296, 88.421 235.436 C 89.281 234.576, 90.436 234.152, 90.988 234.493 C 91.540 234.834, 92.516 233.962, 93.156 232.556 C 94.315 230.014, 96 229.091, 96 231 C 96 231.550, 96.675 232, 97.500 232 C 98.325 232, 99 231.550, 99 231 C 99 230.450, 98.325 230, 97.500 230 C 96.675 230, 96 229.325, 96 228.500 C 96 227.675, 96.675 227, 97.500 227 C 98.325 227, 99 226.298, 99 225.441 C 99 224.584, 99.437 224.152, 99.972 224.483 C 100.506 224.813, 102.077 224.341, 103.462 223.433 C 106.196 221.642, 106.595 222.014, 107.201 226.922 C 107.365 228.254, 108.074 229.457, 108.775 229.597 C 109.476 229.736, 109.589 229.621, 109.025 229.342 C 107.705 228.687, 107.684 225, 109 225 C 109.550 225, 110 225.498, 110 226.107 C 110 226.716, 110.675 226.955, 111.500 226.638 C 113.270 225.959, 113.364 226.451, 111.965 229.066 C 111.381 230.156, 111.330 231, 111.848 231 C 112.353 231, 113.014 230.055, 113.316 228.899 C 113.618 227.744, 114.332 227.087, 114.903 227.440 C 115.476 227.794, 116.230 226.930, 116.587 225.510 C 117.077 223.558, 117.685 223.083, 119.116 223.537 C 120.158 223.868, 121 223.658, 121 223.067 C 121 222.480, 120.433 222, 119.741 222 C 118.255 222, 115.845 218.489, 116.726 217.608 C 117.060 217.274, 118.046 217.007, 118.917 217.015 C 120.186 217.028, 120.231 217.201, 119.143 217.890 C 118.197 218.490, 118.122 218.957, 118.893 219.434 C 119.502 219.810, 120.445 219.843, 120.989 219.507 C 121.555 219.157, 121.723 219.558, 121.382 220.448 C 121.054 221.302, 121.284 222, 121.893 222 C 124.032 222, 122.972 223.969, 120.500 224.589 C 118.053 225.203, 117.256 226.417, 118.750 227.253 C 119.162 227.483, 118.992 227.556, 118.372 227.414 C 117.148 227.134, 115 228.909, 115 230.200 C 115 230.640, 116.156 231, 117.568 231 L 120.136 231 118.098 233.863 C 116.976 235.437, 116.346 237.012, 116.696 237.363 C 117.047 237.713, 116.776 238, 116.095 238 C 115.414 238, 114.182 238.675, 113.357 239.500 C 112.375 240.482, 112.267 241, 113.044 241 C 117.405 241, 123.524 230.055, 119.250 229.900 L 116.500 229.801 119 229.086 C 120.375 228.692, 121.650 228.737, 121.833 229.185 C 122.017 229.633, 122.804 230, 123.583 230 C 127.366 230, 121.452 239.618, 115.625 242.942 C 106.875 247.933, 99.769 251.148, 95.718 251.948 C 91.661 252.749, 91.628 252.785, 94.849 252.890 C 107.119 253.292, 127 238.311, 127 228.662 C 127 225.914, 130.050 222.683, 130.732 224.710 C 131.393 226.671, 141.531 214.510, 142.819 210.211 C 144.373 205.024, 144.340 204.698, 142 202 C 140.900 200.732, 140 199.126, 140 198.431 C 140 197.736, 138.223 195.761, 136.052 194.041 L 132.103 190.914 135.302 185.527 C 137.061 182.564, 140.190 178.269, 142.255 175.983 C 144.320 173.696, 145.738 171.385, 145.405 170.846 C 145.072 170.307, 145.407 169.988, 146.150 170.136 C 146.892 170.285, 148.905 169.658, 150.623 168.743 C 152.341 167.828, 153.990 167.323, 154.288 167.621 C 155.223 168.556, 159 166.001, 159 164.433 C 159 162.200, 156.275 161.582, 154.454 163.403 C 152.294 165.563, 151 165.412, 151 163 C 151 161.704, 151.667 161, 152.893 161 C 153.934 161, 155.018 160.397, 155.300 159.659 C 156.637 156.178, 151.444 155.076, 147.675 158.041" stroke="none" fill="#1a1a2e" fill-rule="evenodd"/>
</svg>