<svg xmlns="http://www.w3.org/2000/svg" width="400" height="202" viewBox="0 0 400 202" version="1.1">
	<path d="M 1.664 35.250 C 1.300 54.638, 1.002 100.087, 1.002 136.250 L 1 202 34.500 202 C 63.293 202, 68 201.794, 68 200.531 C 68 199.560, 67.407 199.275, 66.250 199.691 C 65.287 200.036, 64.831 199.953, 65.236 199.507 C 66.301 198.331, 73 198.049, 73 199.180 C 73 199.705, 72.100 199.849, 71 199.500 C 69.591 199.053, 69 199.320, 69 200.405 C 69 201.758, 72.804 201.943, 100.457 201.941 C 129.787 201.939, 131.870 201.822, 131.263 200.219 C 130.659 198.624, 130.732 198.619, 132.269 200.142 C 134.117 201.973, 146.588 202.761, 145.486 200.978 C 145.154 200.440, 145.359 200, 145.941 200 C 146.523 200, 147 200.450, 147 201 C 147 201.550, 149.277 202, 152.059 202 C 155.177 202, 156.881 201.616, 156.500 201 C 156.160 200.450, 156.359 200, 156.941 200 C 157.523 200, 158 200.450, 158 201 C 158 201.550, 160.277 202, 163.059 202 C 166.177 202, 167.881 201.616, 167.500 201 C 167.160 200.450, 167.359 200, 167.941 200 C 168.523 200, 169 200.435, 169 200.966 C 169 202.331, 205.072 202.185, 206.725 200.813 C 207.628 200.064, 208 200.079, 208 200.864 C 208 201.667, 234.405 201.977, 304 201.990 L 400 202.007 400 101.004 L 400 0 201.162 0 L 2.324 0 1.664 35.250 M 156 82.981 C 156 83.468, 154.088 83.815, 151.750 83.752 C 146.565 83.611, 140.027 84.859, 138 86.377 C 133.874 89.466, 132.197 89.964, 132.726 87.940 C 134.012 83.023, 128.204 85.714, 126.662 90.750 L 125.208 95.500 125.006 91 C 124.817 86.784, 124.704 86.999, 123.209 94.422 C 121.456 103.128, 120.444 103.454, 121.751 94.892 C 122.643 89.042, 122.370 86, 120.952 86 C 120.456 86, 120.276 87.237, 120.552 88.750 C 121.106 91.781, 119.250 95.498, 118.327 93.208 C 118.002 92.404, 117.371 92.251, 116.653 92.803 C 116.019 93.291, 114.600 93.975, 113.500 94.324 C 111.747 94.880, 111.778 94.760, 113.750 93.357 C 114.987 92.477, 116 90.948, 116 89.961 C 116 88.974, 116.563 87.940, 117.250 87.662 C 117.938 87.385, 117.487 87.122, 116.250 87.079 C 115.013 87.036, 114 86.475, 114 85.833 C 114 85.192, 113.739 84.928, 113.419 85.248 C 113.099 85.567, 113.358 86.801, 113.994 87.988 C 114.989 89.847, 114.861 90.224, 113.075 90.691 C 111.934 90.989, 111 91.882, 111 92.676 C 111 93.469, 110.588 93.864, 110.085 93.553 C 109.582 93.242, 108.943 93.553, 108.664 94.244 C 108.350 95.025, 108.128 94.860, 108.079 93.809 C 108.036 92.879, 108.450 91.840, 109 91.500 C 109.550 91.160, 109.968 89.896, 109.930 88.691 C 109.863 86.626, 109.815 86.613, 109.092 88.463 C 108.372 90.305, 108.216 90.260, 106.547 87.713 C 105.570 86.221, 104.302 85, 103.730 85 C 103.158 85, 103.435 85.823, 104.345 86.829 C 106.731 89.465, 106.389 90.822, 103.250 91.184 C 99.694 91.593, 98.203 108.924, 101.711 109.079 C 102.759 109.125, 102.982 109.367, 102.250 109.662 C 101.541 109.948, 101 111.907, 101 114.190 C 101 117.495, 101.291 118.102, 102.627 117.590 C 105.161 116.617, 107.176 118.803, 105.916 121.158 C 104.902 123.051, 104.985 123.048, 108.897 121.053 C 113.557 118.675, 115.357 118.415, 112.573 120.521 C 109.845 122.586, 111.052 123.204, 114.410 121.462 C 117.683 119.764, 119.382 119.572, 118.500 121 C 117.609 122.441, 120.190 122.171, 122.250 120.608 C 124.594 118.828, 124.467 117.645, 122.001 118.289 C 120.902 118.577, 119.771 118.439, 119.489 117.982 C 119.206 117.525, 119.769 116.940, 120.738 116.682 C 122.251 116.278, 122.187 116.111, 120.286 115.499 C 118.342 114.872, 118.250 114.607, 119.536 113.321 C 120.341 112.516, 121 110.764, 121 109.429 C 121 108.093, 121.486 107, 122.079 107 C 122.759 107, 122.915 108.113, 122.500 110 C 121.575 114.210, 122.584 113.732, 125.138 108.750 C 126.336 106.412, 127.499 105.038, 127.723 105.695 C 127.947 106.352, 127.630 107.823, 127.019 108.965 C 125.290 112.196, 126.402 112.742, 134.224 112.502 C 141.210 112.289, 153 116.380, 153 119.019 C 153 119.411, 155.363 122.183, 158.250 125.180 L 163.500 130.628 179.500 130.367 C 188.300 130.223, 197.300 129.865, 199.500 129.570 C 201.700 129.275, 208.900 128.315, 215.500 127.437 C 222.100 126.558, 228.400 125.460, 229.500 124.995 C 230.600 124.530, 233.939 123.865, 236.920 123.518 C 239.901 123.170, 244.833 122.237, 247.880 121.443 C 250.927 120.649, 256.138 119.968, 259.460 119.930 C 263.597 119.882, 264.870 119.603, 263.500 119.044 C 261.673 118.300, 261.745 118.165, 264.330 117.486 C 266.434 116.934, 267.856 117.257, 269.867 118.743 L 272.573 120.744 273.693 118.371 C 274.309 117.066, 274.436 116.230, 273.976 116.515 C 273.515 116.800, 272.856 116.575, 272.510 116.016 C 272.162 115.454, 272.801 115, 273.941 115 C 275.105 115, 276 114.348, 276 113.500 C 276 111.692, 277.167 111.567, 278.800 113.200 C 279.605 114.005, 280 114.040, 280 113.305 C 280 112.560, 281.176 112.476, 283.685 113.042 C 285.823 113.524, 288.104 113.480, 289.119 112.936 C 290.081 112.421, 293.036 111.974, 295.684 111.942 C 298.333 111.911, 302.300 111.512, 304.500 111.057 L 308.500 110.230 303.191 110.115 C 293.656 109.908, 298.689 108.264, 308.871 108.259 C 323.844 108.252, 336.128 107.015, 337.795 105.348 C 339.743 103.400, 339.162 103.041, 332.886 102.316 C 329.924 101.974, 327.201 101.237, 326.836 100.677 C 326.470 100.117, 324.445 99.582, 322.336 99.486 C 311.679 99.006, 298.112 97.733, 295 96.923 C 293.075 96.421, 290.314 96.009, 288.865 96.006 C 285.666 95.999, 275.258 92.747, 276.795 92.235 C 277.397 92.034, 278.792 92.353, 279.895 92.944 C 282.175 94.164, 309.500 97.380, 311.313 96.641 C 311.966 96.375, 311.563 96.122, 310.417 96.079 C 309.271 96.036, 307.996 95.662, 307.583 95.250 C 307.171 94.838, 305.633 94.435, 304.167 94.356 C 302.700 94.277, 298.575 93.701, 295 93.077 C 291.425 92.453, 286.519 91.693, 284.099 91.389 C 281.678 91.084, 278.611 90.422, 277.283 89.918 C 273.072 88.316, 269.910 88.737, 273 90.487 C 275.822 92.085, 273.046 91.931, 262.604 89.907 C 259.911 89.385, 257.549 89.118, 257.354 89.312 C 256.889 89.778, 264.645 96, 265.691 96.001 C 266.136 96.001, 266.566 97.148, 266.647 98.550 C 266.736 100.093, 266.342 100.931, 265.647 100.674 C 265.016 100.441, 264.614 99.739, 264.754 99.114 C 264.930 98.325, 264.389 98.363, 262.981 99.239 C 261.284 100.295, 260.429 100.191, 257.727 98.601 C 241.022 88.769, 238.590 87.673, 232.771 87.359 C 228.762 87.142, 227.119 87.383, 227.575 88.121 C 227.964 88.751, 227.256 88.665, 225.871 87.914 C 224.567 87.207, 219.450 86.517, 214.500 86.380 C 209.550 86.243, 205.275 86.031, 205 85.909 C 203.981 85.457, 199.270 84.975, 191 84.477 C 186.325 84.196, 180.475 83.781, 178 83.555 C 165.759 82.439, 156 82.184, 156 82.981 M 92.039 89.739 C 90.075 89.977, 87.971 91.024, 87.176 92.159 C 86.152 93.622, 85.109 93.993, 83.303 93.540 C 81.714 93.141, 81.062 93.291, 81.475 93.960 C 81.829 94.532, 81.641 95, 81.059 95 C 80.477 95, 80 94.495, 80 93.878 C 80 93.095, 79.552 93.127, 78.521 93.983 C 77.447 94.874, 77.310 95.710, 78.021 97.039 C 80.007 100.750, 79.244 101.878, 74.790 101.817 C 72.475 101.785, 70.412 102.263, 70.207 102.879 C 69.672 104.483, 67.875 104.275, 62.771 102.017 C 57.205 99.555, 45.394 97.800, 41.464 98.851 L 38.522 99.638 41.923 100.823 C 43.794 101.476, 45.050 102.284, 44.714 102.619 C 44.379 102.954, 42.166 102.291, 39.797 101.144 C 37.273 99.922, 34.566 99.301, 33.256 99.643 C 30.250 100.429, 31.412 102, 35 102 C 36.585 102, 38.160 102.451, 38.501 103.001 C 38.886 103.624, 42.247 103.762, 47.396 103.366 C 56.189 102.690, 64.823 104.531, 68 107.760 C 69.338 109.119, 69.284 109.193, 67.500 108.438 C 62.950 106.514, 50.793 106.685, 51.172 108.668 C 51.778 111.836, 64.835 115.087, 74.140 114.387 C 79.360 113.994, 82.522 114.209, 84.124 115.067 C 85.414 115.757, 89.292 116.479, 92.742 116.672 L 99.015 117.023 98.824 102.780 C 98.664 90.856, 98.443 89.001, 97.469 91.386 C 96.512 93.725, 96.187 93.929, 95.649 92.527 C 95.288 91.588, 95.247 90.410, 95.556 89.910 C 95.865 89.409, 95.979 89.072, 95.809 89.160 C 95.639 89.248, 93.942 89.509, 92.039 89.739" stroke="none" fill="#1a1a2e" fill-rule="evenodd"/>
</svg>