<svg xmlns="http://www.w3.org/2000/svg" width="400" height="266" viewBox="0 0 400 266" version="1.1">
	<path d="M 0.068 132.752 L 0 266.005 200.250 265.752 L 400.500 265.500 400.551 132.500 C 400.578 59.350, 400.448 2.923, 400.261 7.107 C 399.948 14.111, 399.721 14.806, 397.404 15.862 C 396.020 16.492, 395.143 17.423, 395.456 17.929 C 395.769 18.435, 395.231 19.055, 394.262 19.308 C 392.650 19.729, 392.646 19.778, 394.215 19.884 C 395.158 19.948, 396.411 19.100, 397 18 C 398.625 14.964, 400 15.603, 400 19.393 C 400 21.548, 399.429 23.005, 398.437 23.386 C 397.577 23.716, 397.145 24.426, 397.477 24.964 C 397.810 25.501, 397.352 27.417, 396.459 29.221 L 394.837 32.500 397.382 29.500 L 399.928 26.500 399.964 29.691 C 400.002 33.100, 398.755 34.413, 395.428 34.466 C 393.115 34.504, 389.724 37.390, 390.767 38.434 C 391.137 38.803, 390.706 38.824, 389.810 38.480 C 387.013 37.407, 371.826 48.493, 373.627 50.293 C 373.921 50.588, 373.584 51.880, 372.877 53.164 C 372.171 54.449, 371.569 55.950, 371.540 56.500 C 371.511 57.050, 368.453 60.510, 364.744 64.189 C 358.722 70.162, 355.558 74.272, 359.500 71 C 361.231 69.564, 361.429 70.329, 360.013 72.976 C 358.752 75.332, 355 74.515, 355 71.883 C 355 70.848, 355.477 70, 356.059 70 C 356.641 70, 356.828 69.530, 356.473 68.957 C 355.497 67.377, 362.239 61.822, 363.324 63.312 C 363.891 64.092, 363.999 63.908, 363.637 62.779 C 363.048 60.942, 365.613 57.643, 366.976 58.485 C 367.424 58.762, 368.018 58.395, 368.297 57.669 C 368.603 56.870, 368.151 56.423, 367.152 56.536 C 364.203 56.869, 362 58.182, 362 59.607 C 362 60.373, 361.325 61, 360.500 61 C 359.675 61, 359 61.623, 359 62.383 C 359 63.144, 358.129 63.994, 357.065 64.273 C 354.926 64.832, 354 63.314, 354 59.250 C 354 54.561, 351.770 43.754, 351.045 44.927 C 350.621 45.613, 349.679 44.410, 348.713 41.951 C 346.178 35.499, 343.270 39.213, 342.410 50 C 341.628 59.814, 340.978 64.383, 339.423 71 C 336.761 82.328, 329.663 106.318, 327.292 112 C 323.450 121.207, 320.556 127, 319.797 127 C 319.337 127, 319.157 128.081, 319.396 129.402 C 319.664 130.877, 319.089 132.601, 317.906 133.871 C 316.846 135.008, 316.037 136.290, 316.108 136.719 C 316.480 138.976, 315.717 139.903, 313 140.500 C 311.350 140.862, 310 141.573, 310 142.079 C 310 142.586, 309.662 142.908, 309.250 142.795 C 307.862 142.416, 301 145.146, 301 146.078 C 301 146.585, 299.644 147, 297.986 147 C 295.167 147, 291.181 148.595, 289.966 150.210 C 289.672 150.600, 287.530 151.050, 285.206 151.210 C 281.970 151.432, 281.113 151.844, 281.544 152.970 C 281.853 153.778, 281.823 154.156, 281.478 153.811 C 281.132 153.465, 279.421 153.619, 277.675 154.153 C 275.929 154.687, 273.375 155.284, 272 155.481 C 268.230 156.022, 266.713 156.479, 264.316 157.798 C 261.285 159.466, 260.216 159.304, 262.559 157.532 C 264.257 156.247, 264.288 156.060, 262.809 156.032 C 261.879 156.014, 260.878 156.388, 260.585 156.863 C 260.291 157.337, 257.902 158.279, 255.276 158.956 C 252.649 159.632, 249.375 160.685, 248 161.296 C 246.625 161.906, 245.050 162.573, 244.500 162.777 C 243.552 163.129, 246.237 160.830, 250.398 157.726 C 252.242 156.351, 252.235 156.295, 250.148 155.749 C 248.967 155.440, 248.001 155.483, 248.001 155.844 C 248.002 156.205, 245.527 156.346, 242.501 156.157 C 239.375 155.963, 237 156.234, 237 156.786 C 237 157.320, 235.200 158.214, 233 158.772 C 230.800 159.330, 229 159.589, 229 159.346 C 229 158.516, 234.496 154.054, 236.250 153.459 C 237.212 153.132, 238 152.513, 238 152.082 C 238 151.245, 228.696 152.452, 226.983 153.510 C 225.563 154.388, 218.852 152.049, 219.550 150.919 C 220.318 149.677, 219.314 149.763, 216.684 151.164 C 214.648 152.249, 214.601 152.205, 216 150.509 C 216.825 149.509, 219.075 148.028, 221 147.218 L 224.500 145.746 222.017 144.819 C 220.417 144.222, 218.710 144.267, 217.219 144.946 C 215.947 145.526, 214.140 145.964, 213.203 145.921 C 212.224 145.876, 212.714 145.400, 214.355 144.803 L 217.209 143.764 211.881 141.960 C 208.950 140.967, 206.390 139.671, 206.193 139.078 C 205.995 138.485, 205.141 138, 204.294 138 C 203.106 138, 203.014 137.688, 203.890 136.633 C 206.556 133.421, 195.109 129.801, 190.134 132.283 C 175.844 139.412, 149.135 164.812, 151.764 168.772 C 153.189 170.918, 153.128 171, 150.091 171 C 148.256 171, 143.988 172.672, 139.880 175 C 130.762 180.167, 125.556 180.571, 127.154 175.987 C 127.732 174.331, 127.939 172.282, 127.614 171.436 C 127.276 170.555, 127.446 170.158, 128.011 170.507 C 129.431 171.384, 129.229 169.775, 127.630 167.473 C 125.497 164.400, 124.986 157.764, 126.947 158.597 C 130.277 160.012, 133.307 160.307, 132.590 159.145 C 132.200 158.515, 131.035 158, 130 158 C 128.965 158, 127.793 157.474, 127.395 156.830 C 126.915 156.054, 127.208 155.866, 128.263 156.271 C 130.959 157.305, 132.220 154.633, 129.952 152.691 C 127.492 150.584, 126.608 150.537, 127.382 152.552 C 127.756 153.527, 127.568 153.851, 126.878 153.425 C 121.693 150.220, 143.666 118.280, 154.002 113.999 C 155.572 113.349, 157.100 112.183, 157.397 111.408 C 157.694 110.634, 158.596 110, 159.401 110 C 161.089 110, 165.257 104.591, 164.304 103.637 C 163.953 103.287, 164.587 103, 165.711 103 C 169.895 103, 170.376 100.293, 166.327 99.534 C 164.278 99.149, 161.679 98.187, 160.551 97.395 C 158.648 96.058, 158.752 96.006, 162 96.664 C 169.317 98.146, 170.050 97.816, 168.467 93.750 C 167.985 92.511, 168.273 92, 169.452 92 C 170.368 92, 170.840 92.450, 170.500 93 C 170.160 93.550, 170.396 94, 171.024 94 C 173.642 94, 171.086 91.495, 168.416 91.444 C 166.812 91.413, 164.487 90.835, 163.250 90.159 C 161.728 89.328, 161 89.280, 161 90.011 C 161 91.798, 152.711 90.856, 150.573 88.826 C 148.437 86.798, 149.532 86.578, 159.750 86.983 C 162.088 87.075, 164 86.767, 164 86.298 C 164 85.828, 161.863 85.484, 159.250 85.532 C 156.637 85.581, 153.740 85.255, 152.811 84.807 C 151.839 84.340, 150.858 84.420, 150.502 84.997 C 149.720 86.262, 146 86.320, 146 85.067 C 146 84.554, 144.987 83.820, 143.750 83.436 C 140.359 82.383, 135.900 78.971, 136.547 77.924 C 136.861 77.416, 136.304 76.970, 135.309 76.933 C 134.314 76.895, 131.958 76.665, 130.072 76.421 C 125.732 75.860, 126.476 76.605, 132.637 78.989 C 135.312 80.025, 137.393 81.334, 137.262 81.900 C 137.131 82.465, 137.659 82.684, 138.435 82.386 C 139.246 82.076, 140.340 82.766, 141.004 84.008 C 142.338 86.500, 141.533 87.933, 139.783 86.183 C 139.133 85.533, 137.828 85, 136.883 85 C 135.939 85, 135.017 84.662, 134.833 84.250 C 134.435 83.354, 128.338 79, 127.481 79 C 127.152 79, 127.173 79.471, 127.528 80.046 C 128.539 81.681, 123.872 80.675, 120.719 78.578 C 117.280 76.292, 117.650 75.752, 121.836 76.953 C 123.819 77.522, 124.818 77.515, 124.460 76.936 C 124.142 76.421, 123.227 76, 122.426 76 C 121.626 76, 120.190 74.763, 119.235 73.250 C 118.237 71.668, 116.439 70.381, 115 70.221 C 113.625 70.067, 112.350 69.504, 112.167 68.971 C 111.983 68.437, 110.971 68, 109.917 68 C 107.770 68, 107.325 66.439, 109.250 65.662 C 109.938 65.385, 109.461 65.122, 108.191 65.079 C 106.891 65.035, 106.152 65.437, 106.500 66 C 106.840 66.550, 106.679 67, 106.142 67 C 105.606 67, 104.940 66.438, 104.662 65.750 C 104.259 64.750, 104.142 64.750, 104.079 65.750 C 104.036 66.438, 103.523 67, 102.941 67 C 102.359 67, 102.131 66.597, 102.435 66.105 C 102.740 65.612, 102.288 64.941, 101.431 64.612 C 100.574 64.283, 100.158 63.554, 100.506 62.991 C 100.854 62.428, 101.510 62.197, 101.964 62.478 C 102.419 62.759, 103.031 62.360, 103.326 61.593 C 103.942 59.986, 100.857 58.852, 98.998 60.002 C 98.058 60.582, 98.090 60.884, 99.137 61.300 C 100.105 61.685, 100.138 61.865, 99.250 61.921 C 98.563 61.964, 98 62.730, 98 63.622 C 98 65.021, 97.766 65.055, 96.308 63.872 C 94.964 62.782, 94.781 62.774, 95.417 63.831 C 96.007 64.812, 95.620 65.075, 93.951 64.831 C 92.205 64.576, 91.643 65.018, 91.509 66.750 C 91.152 71.351, 88.068 70.070, 87.723 65.177 C 87.601 63.432, 87.028 62.003, 86.450 62.002 C 85.873 62.001, 84.865 61.465, 84.210 60.810 C 82.792 59.392, 80 58.843, 80 59.981 C 80 60.424, 80.675 61.045, 81.500 61.362 C 83.680 62.198, 83.338 64, 81 64 C 79.900 64, 78.994 63.438, 78.988 62.750 C 78.981 62.063, 77.406 60.483, 75.488 59.241 C 73.569 57.998, 72 56.541, 72 56.003 C 72 55.464, 70.248 54.743, 68.106 54.401 C 65.371 53.964, 63.554 52.888, 62.002 50.789 C 59.798 47.808, 59.798 47.801, 61.896 48.467 C 63.185 48.876, 64 48.698, 64 48.008 C 64 47.389, 64.498 47.190, 65.107 47.566 C 65.907 48.061, 65.894 48.447, 65.059 48.963 C 64.228 49.477, 64.326 50.026, 65.409 50.924 C 66.236 51.611, 67.354 51.899, 67.895 51.565 C 68.435 51.231, 69.242 51.577, 69.689 52.333 C 70.135 53.089, 71.567 54.269, 72.871 54.954 C 74.725 55.928, 75.076 55.932, 74.481 54.970 C 73.975 54.150, 74.184 53.950, 75.111 54.370 C 75.875 54.716, 77.287 55.276, 78.250 55.616 C 79.212 55.955, 80 56.631, 80 57.117 C 80 57.602, 80.454 58, 81.008 58 C 81.618 58, 81.539 57.235, 80.809 56.066 C 80.145 55.003, 79.354 54.176, 79.051 54.228 C 74.675 54.983, 65.617 44.091, 68.923 42.048 C 69.710 41.561, 69.416 40.527, 67.965 38.682 C 66.789 37.187, 66.188 35.467, 66.595 34.760 C 66.994 34.067, 66.952 33.834, 66.502 34.241 C 66.052 34.649, 65.006 34.424, 64.177 33.741 C 63.347 33.059, 63.891 34.694, 65.385 37.376 C 67.542 41.247, 67.753 42.119, 66.409 41.604 C 65.141 41.117, 64.967 41.273, 65.714 42.227 C 68.204 45.406, 67.967 48.024, 65.344 46.306 C 64 45.425, 63.117 44.138, 63.382 43.446 C 63.648 42.754, 63.013 41.417, 61.972 40.475 C 60.931 39.533, 60.174 38.309, 60.290 37.756 C 60.405 37.203, 59.962 36.552, 59.304 36.310 C 58.501 36.014, 58.265 36.729, 58.583 38.486 L 59.058 41.103 56.029 38.863 C 52.497 36.252, 52.221 35.563, 55 36.290 C 57.854 37.036, 57.478 35.175, 54.500 33.818 C 51.517 32.459, 51.163 30.968, 54 31.710 C 56.593 32.388, 56.524 31.790, 53.441 26.907 C 51.343 23.584, 50.622 23.069, 49.441 24.049 C 48.248 25.039, 48 24.786, 48 22.575 C 48 20.972, 46.942 18.924, 45.354 17.452 C 43.899 16.104, 43.111 14.986, 43.604 14.970 C 44.097 14.953, 43.712 14.481, 42.750 13.920 C 41.788 13.359, 41 12.050, 41 11.009 C 41 9.039, 39.290 7.377, 38.291 8.376 C 37.974 8.692, 38.293 9.648, 39 10.500 C 41.126 13.062, 39.332 13.368, 35.623 11.076 C 33.708 9.893, 31.997 8.604, 31.821 8.212 C 31.644 7.820, 29.700 6.555, 27.500 5.400 C 25.300 4.245, 23.598 2.825, 23.718 2.245 C 23.838 1.665, 23.299 0.945, 22.519 0.646 C 21.610 0.297, 21.290 0.593, 21.627 1.471 C 22 2.442, 21.427 2.761, 19.660 2.567 C 17.456 2.325, 17.301 2.510, 18.331 4.158 C 18.972 5.184, 20.026 5.820, 20.675 5.571 C 22.901 4.717, 24.297 7.710, 23.174 10.931 C 22.313 13.400, 22.477 14.337, 24.141 16.452 C 25.244 17.854, 25.632 19, 25.005 19 C 24.320 19, 24.119 19.798, 24.500 21 C 24.849 22.100, 24.710 23, 24.190 23 C 22.536 23, 20.943 20.313, 21.593 18.619 C 22.014 17.522, 20.872 15.637, 18.118 12.883 C 15.863 10.627, 14.215 8.461, 14.457 8.069 C 14.699 7.677, 14.267 6.140, 13.496 4.654 C 12.724 3.168, 12.073 1.625, 12.048 1.226 C 11.994 0.350, 3 0.112, 3 0.987 C 3 1.324, 3.540 2.140, 4.200 2.800 C 5.133 3.733, 5.056 4, 3.853 4 C 3.002 4, 1.817 2.988, 1.220 1.750 C 0.434 0.119, 0.117 36.188, 0.068 132.752" stroke="none" fill="#1a1a2e" fill-rule="evenodd"/>
</svg>