<svg xmlns="http://www.w3.org/2000/svg" width="400" height="300" viewBox="0 0 400 300" version="1.1">
	<path d="M 362.030 2.250 C 362.014 3.763, 362.009 5.338, 362.019 5.750 C 362.030 6.162, 362.818 6.546, 363.769 6.602 C 364.721 6.658, 365.950 6.824, 366.500 6.970 C 367.050 7.117, 367.837 7.184, 368.250 7.118 C 368.663 7.053, 369 7.402, 369 7.893 C 369 9.244, 366.371 9.971, 365.312 8.912 C 364.737 8.337, 363.854 9.323, 363.004 11.490 C 361.764 14.650, 360.888 15.421, 358.845 15.150 C 357.751 15.005, 357.022 17.896, 358 18.500 C 358.502 18.810, 358.666 19.708, 358.364 20.494 C 357.895 21.715, 357.462 21.693, 355.407 20.347 C 353.207 18.905, 353 18.909, 353 20.385 C 353 21.273, 353.675 22, 354.500 22 C 355.325 22, 356 22.450, 356 23 C 356 23.550, 355.325 24, 354.500 24 C 353.675 24, 353 24.480, 353 25.067 C 353 25.664, 353.845 25.867, 354.916 25.527 C 355.970 25.192, 357.140 25.417, 357.516 26.027 C 357.911 26.664, 357.310 27.368, 356.101 27.684 C 354.945 27.986, 354 28.582, 354 29.008 C 354 29.766, 358.648 31.297, 359.342 30.768 C 359.535 30.621, 360.437 31.118, 361.346 31.872 C 362.421 32.764, 363 32.852, 363 32.122 C 363 29.836, 364.505 31.092, 364.644 33.494 C 364.723 34.865, 364.400 35.747, 363.927 35.455 C 363.453 35.162, 362.492 35.840, 361.792 36.961 C 361.092 38.083, 360.167 39, 359.736 39 C 359.306 39, 359.691 37.875, 360.592 36.500 C 362.229 34.002, 362.228 34, 358.815 34 C 356.937 34, 354.804 33.437, 354.075 32.750 C 353.069 31.801, 352.645 31.786, 352.313 32.688 C 352.020 33.482, 351.221 33.221, 349.901 31.901 C 348.815 30.815, 347.493 30.195, 346.964 30.523 C 345.172 31.630, 345.986 34.413, 348.750 36.633 C 351.093 38.515, 351.207 38.816, 349.524 38.671 C 348.437 38.577, 347.537 39.040, 347.524 39.700 C 347.511 40.360, 346.906 41.485, 346.179 42.200 C 345.088 43.274, 344.977 43.022, 345.538 40.750 C 346.483 36.921, 344.459 37.212, 342.396 41.201 C 340.210 45.429, 338.303 47.300, 337.502 46.004 C 337.159 45.448, 335.732 45.280, 334.331 45.632 C 332.670 46.049, 331.490 45.792, 330.934 44.894 C 330.257 43.797, 329.830 43.770, 328.842 44.758 C 327.066 46.534, 324 46.293, 324 44.378 C 324 43.201, 324.343 43.036, 325.250 43.778 C 326.847 45.084, 335 41.401, 335 39.373 C 335 38.600, 336.575 37.217, 338.500 36.299 C 340.425 35.381, 342.033 33.925, 342.074 33.065 C 342.115 32.204, 342.337 30.488, 342.568 29.250 C 342.799 28.012, 342.540 27, 341.994 27 C 341.447 27, 341 26.325, 341 25.500 C 341 23.684, 342.635 23.509, 343.338 25.250 C 343.840 26.494, 343.908 26.301, 344.027 23.313 C 344.080 22.012, 340.719 22.138, 339.369 23.488 C 338.319 24.539, 338.294 24.951, 339.259 25.341 C 340.083 25.674, 339.986 25.869, 338.971 25.921 C 338.130 25.964, 336.788 26.907, 335.989 28.015 C 334.638 29.890, 334.488 29.907, 333.839 28.265 C 333.179 26.597, 333.137 26.596, 333.070 28.250 C 332.991 30.221, 331.015 30.693, 330.973 28.750 C 330.959 28.063, 330.176 28.744, 329.233 30.265 C 328.290 31.785, 326.975 32.821, 326.310 32.566 C 325.583 32.286, 325.323 32.678, 325.658 33.551 C 325.964 34.348, 325.716 35, 325.107 35 C 324.498 35, 324 34.495, 324 33.878 C 324 33.146, 323.412 33.234, 322.313 34.128 C 320.814 35.347, 320.709 35.277, 321.372 33.500 C 321.942 31.974, 321.841 31.776, 320.946 32.663 C 319.478 34.120, 320.719 36.322, 322.601 35.600 C 323.371 35.304, 324 35.554, 324 36.154 C 324 36.874, 324.511 36.821, 325.500 36 C 326.729 34.980, 327 35.049, 327 36.378 C 327 37.431, 326.144 38, 324.557 38 C 323.205 38, 321.454 38.942, 320.637 40.108 C 319.824 41.268, 318.765 41.973, 318.282 41.674 C 317.799 41.376, 316.803 41.504, 316.067 41.958 C 315.033 42.598, 315.214 43.044, 316.865 43.928 C 319.294 45.228, 319.856 48.266, 317.500 47.362 C 316.675 47.045, 316 47.314, 316 47.960 C 316 48.681, 315.225 48.889, 313.993 48.498 C 312.490 48.021, 311.767 48.442, 311.110 50.181 C 310.034 53.026, 310.037 53.028, 314.156 53.648 C 318.558 54.309, 322.736 58, 319.082 58 C 317.783 58, 316.145 57.213, 315.442 56.251 C 314.282 54.665, 314.102 54.781, 313.509 57.501 C 313.149 59.151, 312.187 62.092, 311.371 64.037 C 309.794 67.799, 310.942 73.772, 312.998 72.501 C 313.549 72.161, 314 72.389, 314 73.008 C 314 73.668, 313.196 73.880, 312.061 73.519 C 310.719 73.093, 309.784 73.534, 309.026 74.952 C 308.423 76.078, 308.333 77, 308.826 77 C 309.319 77, 309.508 78.125, 309.245 79.500 C 308.677 82.467, 310.583 82.890, 311.500 80 C 312.138 77.990, 316 77.131, 316 79 C 316 79.550, 315.212 80.007, 314.250 80.015 C 312.782 80.028, 312.737 80.181, 313.971 80.961 C 315.917 82.192, 314.636 83.341, 311.039 83.590 C 309.322 83.709, 307.915 83.221, 307.598 82.396 C 307.304 81.628, 306.304 81, 305.376 81 C 303.806 81, 303.809 81.131, 305.410 82.901 C 306.540 84.150, 306.764 85.028, 306.062 85.462 C 305.474 85.825, 305.224 87.432, 305.506 89.033 C 305.912 91.338, 305.704 91.824, 304.509 91.365 C 303.679 91.047, 303 91.284, 303 91.893 C 303 92.502, 301.988 92.970, 300.750 92.932 L 298.500 92.865 300.692 91.806 C 303.671 90.366, 304.308 88.235, 302.110 87.059 C 300.545 86.221, 300.359 86.426, 300.764 88.543 C 301.227 90.967, 300.652 91.365, 297 91.148 C 296.080 91.093, 295.962 91.265, 296.694 91.594 C 297.350 91.888, 297.640 92.775, 297.337 93.565 C 296.997 94.449, 297.410 95, 298.412 95 C 299.617 95, 299.886 95.605, 299.452 97.337 C 298.910 99.496, 299.116 99.637, 302.179 99.187 C 305.030 98.769, 305.320 98.909, 304.255 100.192 C 303.574 101.013, 303.227 101.894, 303.484 102.150 C 303.740 102.407, 302.294 103.215, 300.271 103.947 C 297.587 104.917, 296.490 104.969, 296.213 104.138 C 296.004 103.512, 295.026 103, 294.039 103 C 291.166 103, 289.334 100.191, 291.637 99.318 C 294.322 98.300, 296.227 96.177, 295.505 95.008 C 294.738 93.766, 292 93.669, 292 94.883 C 292 95.369, 290.871 95.983, 289.491 96.246 C 287.543 96.619, 287.219 96.441, 288.040 95.452 C 289.527 93.660, 287.348 92.466, 285.456 94.036 C 284.655 94.701, 284 94.910, 284 94.500 C 284 94.090, 283.331 94.311, 282.513 94.989 C 281.695 95.668, 280.400 95.984, 279.635 95.690 C 278.870 95.396, 277.739 95.661, 277.122 96.278 C 275.270 98.130, 275.855 99.148, 278.086 97.954 C 280.750 96.528, 281.685 97.436, 279.910 99.726 C 278.597 101.420, 278.628 101.421, 280.596 99.750 C 283.333 97.426, 285.539 97.534, 285.725 100 C 285.837 101.482, 285.259 102, 283.497 102 C 282.189 102, 280.840 102.450, 280.500 103 C 279.949 103.891, 281.233 104.426, 283.214 104.130 C 283.607 104.072, 283.671 104.694, 283.357 105.512 C 283.039 106.340, 281.542 107, 279.983 107 C 277.334 107, 277.184 107.237, 277.246 111.333 C 277.308 115.397, 277.486 115.667, 280.112 115.667 C 281.652 115.667, 282.699 115.322, 282.439 114.902 C 282.179 114.481, 282.987 113.406, 284.233 112.513 L 286.500 110.888 283.917 111.511 C 281.998 111.973, 281.333 111.742, 281.333 110.611 C 281.333 109.773, 281.628 109.270, 281.988 109.493 C 282.349 109.715, 283.394 109.021, 284.312 107.949 C 286.813 105.027, 290.448 105.265, 288.913 108.250 C 287.957 110.107, 287.986 110.282, 289.078 109.250 C 290.977 107.455, 292 107.707, 292 109.969 C 292 111.411, 292.467 111.773, 293.750 111.321 C 294.972 110.891, 295.198 111.032, 294.500 111.787 C 293.950 112.381, 291.546 113.089, 289.159 113.359 C 286.771 113.629, 284.521 114.180, 284.159 114.584 C 283.796 114.988, 284.250 115.050, 285.167 114.722 C 287.219 113.989, 288.630 116.983, 286.784 118.155 C 285.335 119.074, 285.708 119.173, 292 119.536 C 297.793 119.870, 297.765 119.859, 296 121 C 294.829 121.757, 295.095 121.973, 297.215 121.985 C 300.386 122.003, 302.306 119.298, 300.903 116.791 C 300.350 115.803, 300.342 114.907, 300.883 114.572 C 301.382 114.264, 302.032 114.641, 302.327 115.409 C 302.713 116.415, 304.216 115.560, 307.682 112.364 C 312.341 108.067, 320.217 103, 322.237 103 C 322.836 103, 322.943 104.471, 322.509 106.750 C 322.117 108.813, 321.590 111.611, 321.339 112.969 C 321.087 114.327, 320.517 115.902, 320.071 116.469 C 317.734 119.443, 317.682 126.596, 320 126.324 C 321.135 126.191, 321.063 126.469, 319.704 127.468 C 314.650 131.183, 320.211 135.494, 326.117 132.439 C 329.087 130.904, 329.117 130.913, 327.987 133.025 C 326.458 135.881, 327.261 136.453, 330.977 135.158 C 334.340 133.985, 337 134.535, 337 136.402 C 337 137.900, 325.835 137.351, 324.881 135.807 C 324.524 135.229, 323.679 134.940, 323.003 135.166 C 321.735 135.588, 330.635 143.464, 332.473 143.545 C 333.038 143.570, 333.400 144.097, 333.277 144.715 C 333.032 145.947, 339.480 152, 341.036 152 C 341.568 152, 343.598 148.738, 345.548 144.750 C 352.889 129.738, 354.926 129.420, 352.481 143.667 C 351.553 149.075, 350.561 156.351, 350.275 159.835 C 349.794 165.703, 349.599 166.127, 347.628 165.598 C 346.458 165.284, 345.163 165.021, 344.750 165.014 C 344.337 165.006, 344 164.325, 344 163.500 C 344 162.567, 343.056 162, 341.500 162 C 340.125 162, 339 161.550, 339 161 C 339 160.450, 339.550 160, 340.223 160 C 340.895 160, 339.975 158.657, 338.178 157.015 C 336.380 155.373, 334.367 154.136, 333.705 154.265 C 333.042 154.394, 332.498 153.647, 332.495 152.604 C 332.489 150.349, 327.721 146.509, 325.828 147.236 C 323.204 148.243, 322.556 147.949, 322.528 145.742 C 322.509 144.210, 321.970 143.588, 320.825 143.777 C 319.904 143.929, 318.877 143.611, 318.543 143.070 C 318.209 142.530, 317.303 142.330, 316.529 142.627 C 315.750 142.926, 314.540 142.237, 313.820 141.084 C 313.104 139.938, 311.882 139, 311.104 139 C 309.973 139, 310.021 139.366, 311.345 140.829 C 313.397 143.096, 313.441 144, 311.500 144 C 310.675 144, 310 143.352, 310 142.559 C 310 141.766, 309.474 140.793, 308.830 140.395 C 308.043 139.909, 307.869 140.217, 308.299 141.336 C 309.195 143.671, 307.277 143.416, 305.768 141 C 305.081 139.900, 304.102 139, 303.593 139 C 303.083 139, 302.958 139.292, 303.315 139.648 C 303.672 140.005, 303.142 141.018, 302.138 141.898 C 301.134 142.779, 300.053 144.175, 299.735 145 C 299.254 146.251, 299.145 146.227, 299.079 144.857 C 298.990 143.004, 296.279 141.449, 292.571 141.125 C 291.786 141.056, 290.436 140.293, 289.571 139.429 C 288.707 138.564, 288 138.307, 288 138.857 C 288 139.407, 288.704 140.561, 289.564 141.421 C 290.424 142.281, 290.847 143.438, 290.505 143.992 C 290.162 144.547, 290.322 145, 290.859 145 C 291.397 145, 292.553 145.275, 293.430 145.611 C 294.624 146.070, 294.858 145.794, 294.365 144.510 C 293.867 143.211, 294.163 142.885, 295.593 143.160 C 296.629 143.360, 297.647 144.418, 297.854 145.511 C 298.062 146.605, 298.742 147.831, 299.366 148.235 C 300.116 148.720, 299.975 148.975, 298.950 148.985 C 298.097 148.993, 296.899 148.499, 296.287 147.887 C 294.763 146.363, 293.003 147.653, 292.985 150.309 C 292.973 151.919, 292.742 152.140, 292.110 151.143 C 291.510 150.197, 291.043 150.122, 290.566 150.893 C 289.579 152.491, 287 152.255, 287 150.567 C 287 149.779, 286.123 148.856, 285.051 148.516 C 283.878 148.144, 283.322 147.324, 283.655 146.457 C 284.370 144.593, 281.066 143.275, 280 145 C 279.561 145.710, 278.481 146.015, 277.601 145.677 C 276.581 145.286, 276 145.596, 276 146.531 C 276 147.339, 275.100 148, 274 148 C 272.900 148, 272 148.450, 272 149 C 272 149.550, 270.650 150, 269 150 C 266.723 150, 266 149.544, 266 148.107 C 266 146.180, 263.505 144.570, 261.979 145.513 C 261.516 145.799, 260.851 145.568, 260.500 145 C 260.149 144.432, 259.395 144.256, 258.824 144.609 C 258.154 145.023, 258.266 145.575, 259.143 146.168 C 260.117 146.828, 259.826 147.004, 258.109 146.793 C 256.685 146.619, 255.374 145.564, 254.867 144.185 C 254.145 142.220, 254.292 141.958, 255.840 142.449 C 256.955 142.803, 258.350 142.271, 259.426 141.082 C 260.395 140.011, 261.821 139.378, 262.594 139.674 C 263.367 139.971, 264 139.641, 264 138.940 C 264 138.240, 263.704 137.963, 263.342 138.325 C 262.980 138.687, 262.007 138.424, 261.179 137.741 C 259.981 136.752, 259.589 136.754, 259.254 137.750 C 258.586 139.735, 255.198 139.200, 254.500 137 C 254.151 135.900, 253.283 135, 252.571 135 C 251.732 135, 251.444 134.126, 251.753 132.510 C 252.150 130.433, 252.667 130.103, 254.865 130.525 C 257.102 130.954, 257.198 130.888, 255.500 130.086 C 252.293 128.570, 249.701 128.779, 250.362 130.500 C 250.678 131.325, 250.453 132, 249.862 132 C 249.270 132, 249.045 132.675, 249.362 133.500 C 249.678 134.325, 249.501 135, 248.969 135 C 248.436 135, 248 135.498, 248 136.107 C 248 136.716, 248.642 136.968, 249.427 136.666 C 251.104 136.023, 252.740 137.789, 252.697 140.196 C 252.674 141.504, 252.263 141.676, 250.903 140.948 C 249.632 140.268, 248.670 140.472, 247.463 141.680 C 246.129 143.013, 245.452 143.115, 244.144 142.175 C 243.240 141.526, 241.375 140.493, 240 139.878 C 238.625 139.264, 238.032 138.563, 238.682 138.320 C 239.332 138.077, 241.216 138.578, 242.869 139.432 C 246.487 141.303, 249.385 140.591, 248.083 138.150 C 247.600 137.243, 247.047 135.150, 246.855 133.500 C 246.445 129.960, 245.481 129.062, 242.835 129.753 C 241.010 130.231, 241.031 130.331, 243.187 131.406 C 246.074 132.845, 247.171 136.704, 244.351 135.504 C 241.421 134.256, 233 133.273, 233 134.179 C 233 134.631, 232.325 135, 231.500 135 C 230.675 135, 230 134.568, 230 134.039 C 230 132.354, 225.624 128.930, 224.179 129.485 C 223.383 129.790, 221.335 128.434, 219.394 126.314 C 216.993 123.694, 216 123.105, 216 124.305 C 216 125.237, 216.540 126, 217.200 126 C 218.109 126, 218.119 126.281, 217.242 127.158 C 215.785 128.615, 212.841 126.478, 213.237 124.250 C 213.382 123.435, 212.452 122.371, 211.171 121.887 C 208.985 121.060, 208.883 121.189, 209.501 124.003 C 210.332 127.790, 207.439 128.286, 206.037 124.597 C 204.877 121.547, 203.141 120.459, 201.713 121.887 C 199.972 123.628, 199.252 123.264, 196.536 119.268 C 195.141 117.215, 194 116.116, 194 116.824 C 194 117.850, 193.439 117.829, 191.250 116.719 C 184.344 113.218, 179.047 110.782, 178.308 110.767 C 177.863 110.759, 176.435 109.914, 175.132 108.890 C 173.830 107.865, 172.348 107.285, 171.839 107.600 C 171.329 107.915, 170.246 107.619, 169.432 106.944 C 167.499 105.339, 166.440 106.462, 167.593 108.896 C 169.003 111.872, 178.755 119.158, 179.399 117.716 C 179.697 117.047, 179.842 117.246, 179.721 118.157 C 179.425 120.379, 185.186 130.992, 186.691 130.997 C 188.533 131.002, 189.360 133.042, 188.046 134.337 C 187.147 135.223, 186.557 135.083, 185.572 133.750 C 184.861 132.787, 183.747 132, 183.096 132 C 182.445 132, 181.996 131.438, 182.099 130.750 C 182.201 130.063, 181.727 128.038, 181.045 126.251 C 179.725 122.792, 178 122.754, 178 126.184 C 178 128.001, 177.609 128.160, 174.750 127.504 C 172.963 127.093, 170.787 126.715, 169.917 126.664 C 169.046 126.613, 168.285 126.105, 168.225 125.536 C 167.930 122.707, 167.280 121.137, 165.783 119.641 C 163.968 117.825, 160 117.410, 160 119.035 C 160 119.734, 159.342 119.718, 157.979 118.989 C 156.868 118.394, 155.518 118.180, 154.979 118.513 C 154.441 118.846, 153.438 118.766, 152.750 118.335 C 152.063 117.905, 150.825 117.541, 150 117.526 C 149.138 117.511, 148.500 116.582, 148.500 115.340 C 148.500 111.720, 145.533 110.590, 136.310 110.696 C 132.795 110.737, 130.951 110.314, 130.595 109.386 C 130.306 108.633, 129.041 108.072, 127.785 108.141 C 126.528 108.209, 123.346 107.657, 120.713 106.915 C 116.922 105.846, 115.520 105.819, 113.976 106.783 C 112.904 107.452, 111.158 108, 110.095 108 C 106.895 108, 105 109.112, 105 110.990 C 105 111.987, 104.013 113.031, 102.750 113.370 C 99.232 114.313, 98.821 114.140, 99.500 112 C 100.230 109.699, 99.872 109.630, 94.682 111.071 C 91.606 111.925, 91.086 112.399, 92.005 113.506 C 92.633 114.262, 93.788 114.635, 94.573 114.334 C 95.358 114.032, 96 114.232, 96 114.776 C 96 115.905, 92.686 116.959, 89 117.002 C 87.017 117.025, 86.810 117.231, 88 118 C 90.140 119.383, 93.260 119.230, 100.990 117.364 L 107.767 115.729 111.337 118.577 C 113.301 120.144, 114.714 121.619, 114.478 121.856 C 114.242 122.092, 113.330 121.688, 112.451 120.959 C 111.512 120.180, 108.926 119.732, 106.177 119.873 C 101.104 120.132, 98.632 121.536, 100.842 122.902 C 101.895 123.553, 101.831 123.851, 100.532 124.349 C 99.632 124.695, 99.142 124.579, 99.442 124.093 C 102.127 119.749, 78.039 119.810, 73.355 124.159 C 72.056 125.366, 70.963 125.749, 70.582 125.133 C 70.236 124.573, 67.826 123.808, 65.227 123.432 C 62.627 123.055, 59.986 122.339, 59.357 121.840 C 57.863 120.654, 45.685 121.002, 44.873 122.255 C 43.675 124.100, 45.175 126.720, 48.329 128.292 L 51.500 129.872 47.450 129.936 C 39.408 130.063, 38.674 135.114, 45.716 141.861 C 48.309 144.346, 49.635 146.074, 48.662 145.701 C 47.541 145.270, 46.111 145.750, 44.758 147.011 C 42.240 149.357, 39 149.632, 39 147.500 C 39 146.675, 38.550 146, 38 146 C 37.450 146, 37 146.509, 37 147.131 C 37 147.861, 35.781 148.064, 33.559 147.703 C 30.851 147.264, 30.235 147.448, 30.664 148.567 C 30.964 149.349, 31.683 149.696, 32.262 149.338 C 32.931 148.924, 33.108 149.478, 32.748 150.857 C 32.061 153.482, 34.658 155.160, 39.626 155.301 C 43.062 155.398, 44.886 159, 41.500 159 C 39.333 159, 39.658 160.746, 42.065 162.035 C 44.540 163.360, 43.419 165.215, 38.651 167.680 C 36.233 168.931, 35.950 169.393, 37.180 170.081 C 38.017 170.549, 40.232 173.414, 42.101 176.446 C 44.579 180.465, 46.110 181.965, 47.750 181.980 C 49.225 181.993, 49.994 182.603, 49.983 183.750 C 49.964 185.645, 45.893 190, 44.140 190 C 43.548 190, 43.322 190.675, 43.638 191.500 C 43.955 192.325, 44.841 193, 45.607 193 C 46.373 193, 47 193.480, 47 194.067 C 47 194.665, 46.155 194.867, 45.081 194.526 C 42.813 193.806, 41.827 196.542, 43.400 199.188 C 44.103 200.369, 44.008 201.617, 43.084 203.343 C 42.358 204.699, 42.066 206.297, 42.434 206.893 C 42.840 207.550, 42.533 207.758, 41.653 207.420 C 40.855 207.114, 39.905 207.344, 39.542 207.932 C 39.179 208.519, 39.323 209, 39.863 209 C 40.912 209, 40.775 212.610, 39.540 217.500 C 38.416 221.955, 35.742 227.958, 35.067 227.542 C 32.817 226.151, 30.586 230.200, 32.663 231.905 C 35.366 234.123, 36.504 243.586, 34.367 246.070 C 33.230 247.391, 33.244 247.945, 34.458 249.570 C 35.866 251.454, 35.888 251.450, 35.381 249.430 C 35.072 248.203, 35.527 246.808, 36.497 246.003 C 38.397 244.426, 38.186 253.148, 36.205 258.098 C 35.124 260.798, 38.135 265.208, 39.524 262.961 C 40.452 261.460, 43.999 261.834, 44.638 263.500 C 44.955 264.325, 46.291 265, 47.607 265 C 50.477 265, 50.852 267.595, 48.108 268.466 C 47.067 268.796, 45.919 270.064, 45.557 271.283 L 44.898 273.500 43.776 271 L 42.653 268.500 42.256 271 C 42.037 272.375, 41.328 273.950, 40.679 274.500 C 40.031 275.050, 39.452 276.175, 39.394 277 C 39.335 277.825, 38.947 280.029, 38.532 281.897 C 37.780 285.277, 37.793 285.291, 40.888 284.672 C 43.530 284.144, 44 284.348, 44 286.025 C 44 287.111, 44.500 288, 45.111 288 C 48.234 288, 43.904 298.949, 40.715 299.116 C 38.890 299.212, 38.824 299.316, 40.339 299.707 C 41.382 299.976, 43.176 299.243, 44.484 298.015 C 46.697 295.936, 48.944 296.664, 47.504 298.994 C 47.099 299.649, 74.194 299.986, 127.056 299.982 L 207.223 299.975 206.785 296.988 C 206.356 294.066, 207.269 293.008, 208.500 295 C 208.840 295.550, 209.545 296, 210.067 296 C 210.590 296, 210.468 295.120, 209.796 294.045 C 207.980 291.137, 209.678 290.323, 211.994 292.993 C 214.529 295.915, 214.506 296.406, 211.750 298.311 C 209.708 299.723, 218.339 299.850, 305 299.683 L 400.500 299.500 400.445 202.500 C 400.414 149.150, 400.288 81.763, 400.164 52.750 L 399.939 0 385.469 0 C 374.882 0, 371 0.322, 371 1.200 C 371 2.133, 370.733 2.133, 369.800 1.200 C 369.140 0.540, 367.700 0, 366.600 0 C 365.044 0, 364.867 0.267, 365.800 1.200 C 367.501 2.901, 367.296 3.689, 364.999 4.290 C 363.898 4.578, 363.247 4.409, 363.553 3.915 C 363.858 3.420, 363.648 2.225, 363.085 1.258 C 362.206 -0.250, 362.056 -0.109, 362.030 2.250 M 164 173.008 C 164 173.424, 169.857 179.781, 177.016 187.133 C 184.176 194.485, 191.249 201.752, 192.735 203.283 L 195.437 206.065 191.093 204.533 C 185.919 202.707, 185 202.643, 185 204.107 C 185 204.716, 185.692 204.948, 186.538 204.624 C 188.482 203.878, 189.484 206.313, 188.186 208.631 C 187.496 209.866, 187.628 211.029, 188.635 212.565 C 190.666 215.665, 189.417 222.168, 186.116 225.679 C 182.351 229.685, 180.587 233.526, 181.522 235.683 C 182.279 237.430, 182.326 237.430, 182.739 235.695 C 182.975 234.702, 183.693 234.083, 184.334 234.320 C 184.975 234.556, 185.342 235.369, 185.149 236.125 C 184.956 236.881, 184.549 240.200, 184.246 243.500 C 183.666 249.809, 182.858 251.524, 176.804 259.296 C 171.721 265.824, 175.954 279, 183.134 279 C 186.527 279, 191.974 283.271, 191.988 285.941 C 191.999 288.223, 192.087 288.263, 193.335 286.556 C 194.070 285.551, 194.468 283.665, 194.219 282.365 C 193.910 280.751, 194.231 280, 195.228 280 C 196.032 280, 197.495 279.111, 198.479 278.024 C 199.462 276.937, 200.725 276.330, 201.285 276.676 C 201.911 277.063, 201.704 277.743, 200.750 278.441 C 198.029 280.431, 198.028 286.536, 200.750 285.081 C 201.713 284.567, 203.253 283.916, 204.172 283.634 C 208.111 282.429, 201.278 273, 196.466 273 C 194.894 273, 194 272.432, 194 271.433 C 194 270.399, 193.404 270.051, 192.250 270.410 C 189.538 271.254, 188.057 269.727, 188.426 266.469 C 188.611 264.836, 188.344 262.978, 187.833 262.339 C 187.250 261.611, 187.294 260.937, 187.951 260.530 C 188.528 260.174, 189 260.584, 189 261.441 C 189 263.283, 192.086 263.514, 193.800 261.800 C 195.393 260.207, 195.315 259.218, 193.566 258.823 C 191.989 258.468, 196.053 253.450, 199.590 251.386 C 200.641 250.773, 201.517 249.422, 201.537 248.384 C 201.558 247.347, 201.965 245.866, 202.442 245.094 C 203.036 244.133, 202.943 243.917, 202.147 244.409 C 201.474 244.825, 200.707 244.364, 200.323 243.313 C 199.958 242.316, 198.842 240.435, 197.843 239.132 C 196.845 237.830, 196.289 236.341, 196.610 235.823 C 196.930 235.304, 197.831 235.695, 198.612 236.690 C 199.877 238.302, 199.906 238.203, 198.870 235.781 C 198.224 234.271, 197.217 233.343, 196.604 233.693 C 195.997 234.039, 196.595 233.120, 197.934 231.651 C 199.756 229.651, 200.584 229.296, 201.226 230.239 C 201.874 231.191, 202.035 231.133, 201.884 230 C 201.774 229.175, 202.031 227.707, 202.454 226.738 C 202.877 225.768, 203.026 223.631, 202.785 221.988 C 202.544 220.344, 202.606 218.996, 202.923 218.992 C 204.295 218.974, 205.727 214.127, 204.672 213.072 C 202.958 211.358, 204.608 211.802, 211.404 214.884 C 217.702 217.740, 222.878 218.071, 223.106 215.633 C 223.421 212.267, 222.650 208.312, 221.409 206.921 C 220.634 206.053, 220 204.594, 220 203.680 C 220 202.765, 219.100 201.455, 218 200.768 C 216.900 200.081, 216 198.918, 216 198.183 C 216 193.832, 211.244 191.566, 184.934 183.382 C 182.423 182.601, 177.784 179.776, 174.625 177.106 C 169.514 172.784, 164 170.658, 164 173.008 M 123.213 178.726 C 122.077 181.367, 120.611 185.658, 119.955 188.263 C 119.299 190.869, 118.357 193, 117.862 193 C 117.367 193, 117.212 194.012, 117.518 195.250 C 117.823 196.488, 117.387 199.750, 116.547 202.500 C 114.398 209.545, 114.571 210.771, 118.367 215.397 C 124.299 222.627, 132.959 225.898, 136.581 222.277 C 137.528 221.329, 139.473 220.660, 140.902 220.790 C 146.851 221.331, 151.074 211.370, 151.200 196.500 C 151.246 191.174, 147.767 183.565, 145.626 184.305 C 144.037 184.855, 144.855 194.143, 146.805 197.694 C 149.435 202.482, 146.065 218.394, 142.842 216.402 C 142.379 216.116, 142 216.359, 142 216.941 C 142 219.076, 139.997 217.928, 139.921 215.750 C 139.878 214.512, 139.615 214.063, 139.338 214.750 C 138.394 217.089, 137 216.010, 137 212.941 C 137 211.156, 136.583 210.139, 136 210.500 C 135.450 210.840, 135 210.416, 135 209.559 C 135 207.693, 133.408 207.491, 132.574 209.250 C 132.247 209.938, 132.245 208.925, 132.568 207 C 134.215 197.179, 134.297 195.698, 133.152 196.406 C 132.397 196.873, 132 196.236, 132 194.559 C 132 191.401, 130.326 191.183, 129.623 194.250 C 129.339 195.488, 129.280 193.800, 129.492 190.500 L 129.876 184.500 128.388 187.866 C 127.569 189.718, 126.661 190.994, 126.369 190.702 C 126.077 190.410, 126.324 189.262, 126.919 188.151 C 128.265 185.636, 128.298 184.698, 127.011 185.493 C 126.445 185.843, 126.277 185.442, 126.618 184.552 C 126.946 183.698, 128.178 182.986, 129.357 182.968 C 131.486 182.937, 131.487 182.927, 129.500 181.388 C 127.543 179.874, 127.554 179.844, 130 180.031 C 136.392 180.518, 136.665 179.239, 130.750 176.513 C 128.412 175.435, 126.225 174.413, 125.889 174.240 C 125.553 174.067, 124.349 176.086, 123.213 178.726 M 1.607 194.582 C 0.723 196.885, 0.861 261.022, 1.750 260.882 C 5.211 260.335, 6.232 262.474, 3 263.500 C 1.098 264.104, 1 265.013, 1 282.064 L 1 299.993 8.031 299.886 C 13.447 299.804, 14.829 299.499, 14.048 298.558 C 12.883 297.154, 14.316 294.905, 17.500 293.140 C 19.460 292.054, 19.456 292.019, 17.250 291.399 C 14.541 290.638, 14.458 290.136, 16.750 288.379 C 18.163 287.296, 18.242 286.868, 17.161 286.155 C 16.424 285.669, 15.911 284.198, 16.021 282.886 C 16.449 277.790, 15.976 276.257, 14.823 279 C 14.131 280.645, 13.600 281.039, 13.270 280.152 C 12.994 279.411, 13.720 277.517, 14.884 275.943 C 16.048 274.369, 17.014 272.275, 17.032 271.290 C 17.049 270.306, 17.710 268.646, 18.500 267.603 C 19.290 266.559, 19.661 265.260, 19.325 264.717 C 18.989 264.173, 18.611 262.777, 18.485 261.614 C 18.358 260.451, 18.198 259.132, 18.128 258.683 C 18.057 258.233, 17.100 258.151, 16 258.500 C 13.576 259.269, 13.235 256.880, 15.500 255 C 16.325 254.315, 17 252.262, 17 250.437 C 17 248.611, 17.477 246.823, 18.060 246.463 C 18.734 246.047, 18.492 245.349, 17.397 244.549 C 15.249 242.978, 16.208 240, 18.862 240 C 22.677 240, 23.235 233.527, 19.500 232.589 C 16.699 231.886, 16.232 230.509, 18.500 229.638 C 19.325 229.322, 20 228.304, 20 227.376 C 20 225.809, 19.865 225.812, 18.091 227.418 C 16.267 229.068, 16.149 229.041, 15.472 226.823 C 15.082 225.545, 14.090 223.732, 13.266 222.794 C 11.934 221.275, 11.947 220.910, 13.385 219.472 C 15.676 217.181, 12.451 212.506, 9.390 213.680 C 8.626 213.974, 8 213.733, 8 213.146 C 8 212.559, 7.061 211.203, 5.914 210.135 C 3.989 208.341, 3.947 208.010, 5.359 205.846 C 7.290 202.886, 7.168 197.219, 5.121 194.828 C 3.201 192.586, 2.395 192.529, 1.607 194.582" stroke="none" fill="#1a1a2e" fill-rule="evenodd"/>
</svg>