<svg xmlns="http://www.w3.org/2000/svg" width="400" height="263" viewBox="0 0 400 263" version="1.1">
	<path d="M 0 56 L 0 112 2.500 112 C 3.875 112, 5 112.450, 5 113 C 5 113.550, 4.647 114, 4.216 114 C 2.988 114, 0 119.581, 0 121.873 C 0 123.297, 0.465 123.759, 1.500 123.362 C 2.325 123.045, 3 123.298, 3 123.924 C 3 124.551, 2.353 125.311, 1.563 125.614 C -0.287 126.324, -0.693 196, 1.153 196 C 1.886 196, 1.921 196.411, 1.259 197.250 C -0.835 199.905, 0.100 208.100, 2.417 207.392 C 6.727 206.074, 7.623 203.684, 5.591 198.922 C 4.787 197.037, 6.522 192, 7.975 192 C 8.539 192, 9 192.675, 9 193.500 C 9 194.325, 9.675 195, 10.500 195 C 12.274 195, 12.347 194.518, 10.965 191.934 C 10.150 190.412, 10.257 190, 11.465 190 C 12.309 190, 13 190.648, 13 191.441 C 13 192.234, 13.468 193.171, 14.040 193.525 C 14.715 193.942, 14.852 193.259, 14.432 191.584 C 13.682 188.596, 15.845 187.988, 18.342 190.485 C 19.654 191.797, 20.159 191.798, 22.664 190.492 C 24.224 189.678, 25.984 189.010, 26.576 189.006 C 28.821 188.993, 32.235 184.243, 31.257 182.494 C 30.436 181.028, 30.141 181.002, 28.862 182.281 C 27.363 183.780, 21.617 187, 20.441 187 C 20.079 187, 20.083 185.806, 20.449 184.347 L 21.115 181.695 18.391 183.480 C 15.735 185.220, 13 183.952, 13 180.982 C 13 180.632, 11.703 180.537, 10.118 180.769 C 6.449 181.308, 5.478 179.783, 8.024 177.479 C 9.124 176.483, 10 176.196, 10 176.830 C 10 178.168, 29.878 177.522, 31.261 176.139 C 31.724 175.676, 30.955 174.545, 29.551 173.626 C 28.148 172.706, 27 171.590, 27 171.145 C 27 169.673, 34.258 167.969, 35.641 169.117 C 40.012 172.745, 51.122 169.759, 49.173 165.480 C 47.747 162.351, 47.702 161.698, 48.967 162.480 C 49.499 162.809, 50.508 162.160, 51.208 161.039 C 52.708 158.637, 54 158.388, 54 160.500 C 54 163.162, 56.772 162.093, 57.844 159.017 C 58.703 156.554, 58.589 155.863, 57.192 155.048 C 55.666 154.157, 55.660 154.058, 57.133 154.030 C 58.032 154.014, 59.021 153.026, 59.333 151.836 C 59.763 150.190, 60.211 149.931, 61.202 150.753 C 62.152 151.541, 63.032 151.450, 64.444 150.417 C 67.614 148.100, 69.801 148.593, 69.245 151.500 C 68.966 152.959, 69.232 154, 69.883 154 C 70.498 154, 71 153.630, 71 153.178 C 71 152.052, 78.842 147, 80.590 147 C 81.365 147, 82 146.475, 82 145.833 C 82 145.192, 82.256 144.923, 82.569 145.236 C 83.134 145.801, 82.864 146.482, 79.586 152.750 C 78.605 154.627, 78.333 156, 78.943 156 C 79.525 156, 80 156.590, 80 157.311 C 80 158.033, 80.900 159.589, 82 160.770 C 83.100 161.950, 84 163.433, 84 164.065 C 84 164.697, 84.675 164.955, 85.500 164.638 C 86.325 164.322, 87 164.499, 87 165.031 C 87 165.564, 86.367 166, 85.594 166 C 84.708 166, 84.370 166.698, 84.681 167.887 C 84.952 168.925, 84.652 170.097, 84.014 170.492 C 83.218 170.983, 83.506 171.666, 84.928 172.662 C 87.279 174.309, 88.993 173.692, 89.015 171.191 C 89.029 169.732, 89.166 169.706, 90.015 171 C 90.891 172.333, 91.109 172.333, 91.985 171 C 93.385 168.866, 93.240 168.209, 91.250 167.689 C 89.447 167.218, 94.269 166.591, 96.886 166.957 C 97.731 167.074, 98.050 166.574, 97.705 165.674 C 97.341 164.725, 97.919 163.983, 99.319 163.599 C 100.994 163.139, 101.186 162.798, 100.148 162.128 C 99.069 161.432, 99.200 160.974, 100.794 159.857 C 102.244 158.841, 102.691 157.600, 102.426 155.326 C 102.216 153.515, 102.628 151.724, 103.404 151.080 C 104.829 149.897, 108 150.606, 108 152.107 C 108 153.433, 106.230 153.189, 105.766 151.799 C 105.456 150.868, 105.198 150.870, 104.619 151.808 C 104.154 152.559, 104.681 153.316, 106.010 153.808 C 107.186 154.243, 108.115 154.914, 108.074 155.300 C 107.838 157.528, 108.220 158, 110.259 158 C 111.502 158, 113.081 157.100, 113.768 156 C 114.508 154.814, 114.606 154, 114.008 154 C 112.183 154, 112.957 152.148, 115.061 151.481 C 116.194 151.121, 117.617 149.741, 118.221 148.413 C 119.400 145.826, 121.600 144.995, 120.638 147.500 C 120.286 148.419, 120.639 149, 121.550 149 C 122.537 149, 122.912 148.242, 122.665 146.750 C 122.460 145.513, 122.484 145.063, 122.719 145.750 C 122.954 146.438, 123.612 147, 124.180 147 C 124.749 147, 124.976 146.380, 124.685 145.622 C 124.394 144.864, 124.661 143.739, 125.278 143.122 C 126.107 142.293, 125.826 142, 124.200 142 C 121.637 142, 121.270 140.494, 123.613 139.595 C 124.896 139.103, 124.980 138.681, 124.027 137.532 C 121.868 134.931, 127.481 131, 133.354 131 C 135.723 131, 136.133 130.733, 135.200 129.800 C 133.864 128.464, 133.589 126.884, 134.750 127.212 C 135.162 127.329, 136.625 126.824, 138 126.090 C 139.804 125.127, 140.174 125.101, 139.328 125.999 C 138.684 126.684, 138.423 127.938, 138.748 128.786 C 139.168 129.881, 138.956 130.091, 138.015 129.510 C 137.115 128.953, 136.929 129.076, 137.435 129.894 C 138.367 131.403, 141 129.500, 141 127.319 C 141 126.435, 141.482 126.171, 142.250 126.633 C 143.234 127.224, 143.231 127.052, 142.238 125.825 C 141.211 124.556, 141.248 124.039, 142.440 123.050 C 144.288 121.516, 147.500 122.075, 147.500 123.930 C 147.500 124.702, 148.027 125.509, 148.671 125.724 C 149.433 125.978, 149.642 125.349, 149.270 123.924 C 148.955 122.719, 147.840 121.509, 146.792 121.235 C 145.629 120.931, 145.104 120.172, 145.443 119.287 C 145.750 118.489, 146 117.648, 146 117.418 C 146 117.188, 146.927 117, 148.059 117 C 149.191 117, 149.840 116.550, 149.500 116 C 149.160 115.450, 149.407 115, 150.048 115 C 150.689 115, 150.955 114.325, 150.638 113.500 C 149.921 111.631, 150.961 111.586, 153.527 113.375 C 156.951 115.762, 165.702 112.452, 163.268 109.692 C 161.371 107.540, 162.382 107.490, 167.250 109.494 C 168.481 110, 169 109.747, 169 108.638 C 169 107.649, 169.558 107.277, 170.500 107.638 C 171.325 107.955, 172 107.744, 172 107.169 C 172 106.594, 172.900 106.192, 174 106.275 C 176.263 106.445, 176.547 108.473, 174.897 112.685 C 173.805 115.471, 173.785 115.477, 172.929 113.250 C 171.909 110.596, 171.425 110.450, 170.618 112.552 C 170.277 113.442, 170.445 113.843, 171.011 113.493 C 171.555 113.157, 172 113.359, 172 113.941 C 172 114.523, 171.401 115, 170.669 115 C 169.937 115, 168.714 116.238, 167.952 117.750 C 167.190 119.263, 166.434 120.692, 166.273 120.927 C 166.111 121.162, 165.364 120.512, 164.612 119.484 C 163.288 117.673, 163.186 117.671, 161.419 119.439 C 159.651 121.206, 159.668 121.240, 161.948 120.517 C 163.913 119.893, 164.193 120.055, 163.640 121.496 C 163.092 122.925, 163.399 123.117, 165.427 122.608 C 166.775 122.269, 168.157 122.444, 168.498 122.996 C 168.839 123.548, 168.656 124, 168.090 124 C 167.525 124, 167.323 124.678, 167.641 125.506 C 168.103 126.711, 168.756 126.460, 170.898 124.256 C 172.372 122.740, 173.450 121.210, 173.295 120.855 C 172.776 119.672, 175.740 119.140, 176.822 120.222 C 177.577 120.977, 177.726 120.669, 177.334 119.168 C 176.889 117.468, 176.417 117.242, 174.950 118.027 C 173.890 118.594, 172.889 118.629, 172.568 118.109 C 172.263 117.617, 173.214 116.912, 174.682 116.544 C 176.580 116.067, 177.602 116.325, 178.225 117.437 C 178.990 118.805, 184.017 122, 185.403 122 C 186.044 122, 187.987 115.063, 187.994 112.750 C 187.997 111.787, 187.373 111, 186.607 111 C 184.750 111, 183.939 108.665, 185.187 106.909 C 186.013 105.747, 186.102 105.776, 185.694 107.072 C 185.014 109.234, 188.695 111.498, 190.481 110.016 C 191.459 109.204, 191.941 109.255, 192.324 110.208 C 192.653 111.030, 192.871 110.863, 192.921 109.750 C 193.028 107.387, 195.163 107.541, 197.326 110.067 C 199.376 112.462, 201.365 112.173, 201.809 109.417 C 202.493 105.164, 202.831 104.839, 205.235 106.121 C 207.230 107.184, 207.349 107.144, 206.229 105.786 C 205.161 104.491, 205.302 104.154, 207.109 103.682 C 208.568 103.300, 209.057 102.618, 208.630 101.560 C 208.283 100.702, 207.727 99.325, 207.393 98.500 C 206.980 97.479, 207.395 97, 208.693 97 C 211.020 97, 213.004 98.825, 212.397 100.407 C 212.152 101.047, 212.811 101.636, 213.863 101.715 C 215.288 101.822, 215.647 101.366, 215.271 99.929 C 214.537 97.120, 215.884 97.565, 217 100.500 C 218.088 103.362, 219.846 103.862, 219.639 101.250 C 219.562 100.287, 220.063 99.613, 220.750 99.750 C 221.438 99.888, 222 99.583, 222 99.073 C 222 98.564, 221.213 97.987, 220.250 97.792 C 218.930 97.525, 219.299 97.034, 221.750 95.796 C 223.976 94.671, 225.005 94.523, 225.015 95.327 C 225.024 96.007, 225.427 95.873, 225.974 95.008 C 227.333 92.859, 225.765 91.766, 221.058 91.582 C 218.812 91.494, 216.118 90.689, 215.072 89.793 C 214.025 88.897, 213.018 88.289, 212.835 88.441 C 212.651 88.593, 210.822 88.976, 208.771 89.292 L 205.043 89.867 207.763 87.528 C 209.793 85.782, 210.929 85.427, 212.241 86.129 C 213.347 86.721, 214 86.717, 214 86.119 C 214 85.595, 213.438 84.979, 212.750 84.749 C 211.909 84.468, 212.702 82.520, 215.174 78.796 C 217.194 75.751, 221.622 67.689, 225.014 60.880 C 233.348 44.146, 242 33.559, 242 40.092 C 242 41.771, 238.355 46.021, 237.580 45.247 C 237.203 44.869, 237.165 45.266, 237.495 46.127 C 237.826 46.988, 237.381 49.674, 236.508 52.096 C 234.075 58.843, 233.989 59.894, 235.783 60.898 C 237.257 61.723, 237.133 62.140, 234.683 64.590 C 233.164 66.109, 232.144 67.933, 232.417 68.644 C 232.690 69.355, 232.520 70.179, 232.040 70.475 C 231.560 70.772, 231.293 72.598, 231.446 74.533 C 231.600 76.468, 231.268 78.335, 230.708 78.680 C 230.084 79.066, 230.004 78.803, 230.500 78 C 231.024 77.152, 230.918 76.933, 230.198 77.378 C 229.587 77.755, 229.319 78.667, 229.601 79.403 C 229.884 80.140, 229.369 81.488, 228.458 82.399 C 227.147 83.710, 227.051 84.357, 228 85.500 C 228.947 86.641, 228.863 87.280, 227.599 88.544 C 225.627 90.516, 225.566 91.104, 227.410 90.396 C 228.257 90.071, 229.082 90.682, 229.477 91.928 C 229.999 93.572, 230.966 94, 234.161 94 C 237.303 94, 238.299 94.426, 238.694 95.937 C 239.088 97.445, 239.676 97.699, 241.350 97.081 C 242.533 96.644, 244.063 96.485, 244.750 96.727 C 246.072 97.192, 246.530 94.463, 245.250 93.747 C 244.838 93.517, 245.008 93.444, 245.628 93.586 C 246.249 93.728, 247.149 93.487, 247.628 93.051 C 249.315 91.517, 254.241 90.798, 253.392 92.210 C 252.901 93.026, 253.294 92.949, 254.462 92 C 255.477 91.175, 256.463 90.612, 256.654 90.750 C 257.703 91.508, 258.829 90.760, 259.290 89 C 259.902 86.660, 262.804 86.326, 263.638 88.500 C 263.955 89.325, 265.066 90, 266.107 90 C 267.148 90, 268 90.436, 268 90.969 C 268 91.501, 268.563 91.721, 269.251 91.457 C 269.951 91.189, 271.089 92.304, 271.835 93.989 C 273.019 96.665, 276 98.257, 276 96.214 C 276 95.782, 277.572 95.480, 279.494 95.544 C 281.630 95.615, 283.752 94.948, 284.952 93.830 C 286.033 92.823, 287.348 92, 287.875 92 C 288.402 92, 288.997 91.509, 289.197 90.908 C 289.398 90.307, 290.785 89.745, 292.280 89.658 C 293.918 89.563, 295.030 88.904, 295.078 88 C 295.127 87.074, 295.342 86.953, 295.640 87.684 C 296.005 88.580, 297.242 88.530, 300.732 87.480 C 303.267 86.717, 305.634 86.274, 305.991 86.495 C 306.349 86.716, 308.083 86.020, 309.845 84.948 C 311.607 83.877, 313.550 83, 314.164 83 C 314.778 83, 315.877 82.213, 316.608 81.250 C 317.339 80.288, 317.951 80.002, 317.968 80.615 C 317.986 81.228, 317.051 82.937, 315.891 84.412 L 313.782 87.093 316.366 86.444 L 318.950 85.796 316.622 90.174 C 314.382 94.387, 314.903 97.544, 317.719 96.820 C 319.298 96.414, 325.002 98.187, 324.537 98.940 C 324.273 99.367, 321.339 99.964, 318.017 100.265 C 312.924 100.727, 311.525 101.297, 309.088 103.906 C 307.498 105.608, 305.613 107, 304.899 107 C 303.864 107, 303.853 107.253, 304.842 108.242 C 305.830 109.230, 306.278 109.180, 307.042 107.992 C 307.837 106.754, 308.149 106.731, 308.875 107.857 C 309.863 109.388, 311.527 107.662, 310.565 106.105 C 309.867 104.976, 317.670 104.171, 319.296 105.204 C 320.117 105.726, 319.944 105.974, 318.750 105.985 C 317.788 105.993, 317 106.670, 317 107.488 C 317 108.435, 316.182 108.890, 314.750 108.738 C 313.126 108.566, 312.540 108.997, 312.645 110.284 C 312.749 111.576, 312.290 111.909, 310.979 111.493 C 309.983 111.177, 308.879 111.387, 308.525 111.959 C 308.145 112.575, 308.908 113, 310.391 113 C 311.771 113, 313.359 112.213, 313.920 111.250 C 314.486 110.279, 314.953 110.056, 314.970 110.750 C 315.009 112.373, 317.708 112.377, 318.249 110.754 C 318.504 109.988, 319.884 110.845, 321.832 112.977 C 324.155 115.520, 325 115.986, 325 114.723 C 325 113.775, 324.523 113, 323.941 113 C 323.359 113, 323.138 112.586, 323.450 112.081 C 324.115 111.005, 330 113.693, 330 115.073 C 330 115.966, 328.590 116.382, 326.500 116.104 C 325.950 116.031, 326.367 116.648, 327.427 117.475 C 328.487 118.302, 329.025 119.308, 328.623 119.711 C 328.220 120.113, 327.578 119.972, 327.196 119.398 C 325.321 116.584, 317.566 115.291, 315.422 117.435 C 313.295 119.562, 318.011 122.066, 320.403 120.080 C 321.581 119.103, 322.269 119.269, 323.933 120.933 C 326.198 123.198, 328 123.623, 328 121.893 C 328 121.284, 328.646 121.034, 329.435 121.337 C 330.225 121.640, 331.012 121.469, 331.185 120.956 C 331.358 120.444, 332.784 120.692, 334.354 121.507 C 335.924 122.322, 337.499 122.814, 337.854 122.600 C 338.209 122.385, 339.127 122.888, 339.893 123.716 C 341.120 125.042, 340.896 125.136, 338.024 124.505 C 335.497 123.950, 334.874 124.094, 335.257 125.145 C 335.528 125.890, 336.369 126.355, 337.125 126.179 C 338.263 125.913, 338.273 126.085, 337.183 127.179 C 336.091 128.273, 335.620 128.167, 334.433 126.559 C 333.276 124.991, 333 124.922, 333 126.202 C 333 127.073, 333.675 128.045, 334.500 128.362 C 335.325 128.678, 336 129.626, 336 130.469 C 336 131.527, 337.004 132.004, 339.250 132.014 C 343.892 132.033, 347.150 133.071, 346.666 134.377 C 346.437 134.995, 345.770 135.396, 345.183 135.269 C 344.595 135.142, 344.877 136.388, 345.808 138.038 C 347.463 140.972, 346.187 143.852, 343.867 142.418 C 342.315 141.459, 341.956 144.098, 343.436 145.579 C 344.296 146.439, 345 148.041, 345 149.139 C 345 150.680, 345.456 150.990, 347 150.500 C 349.427 149.730, 349.562 150.722, 347.362 153.153 C 346.027 154.628, 345.957 155.243, 346.984 156.481 C 347.848 157.522, 347.892 158, 347.122 158 C 344.799 158, 346.128 159.677, 349.500 161 C 352.980 162.365, 354.180 164, 351.704 164 C 350.329 164, 349.978 168.313, 351.250 169.584 C 352.538 170.871, 352.071 173, 350.500 173 C 349.675 173, 349 172.475, 349 171.833 C 349 170.266, 347.665 171.674, 347.393 173.529 C 347.274 174.338, 347.812 175, 348.588 175 C 349.569 175, 350 176.223, 350 179 C 350 181.200, 350.366 183, 350.813 183 C 351.261 183, 352.245 184.575, 353 186.500 C 353.755 188.425, 355.033 190, 355.840 190 C 356.848 190, 356.586 190.624, 355 192 C 353.732 193.100, 351.750 194.010, 350.597 194.022 C 348.570 194.044, 348.580 194.106, 350.886 195.879 C 353.682 198.029, 352.308 199.545, 348.443 198.575 C 345.766 197.903, 345.080 199.680, 347.199 201.799 C 347.859 202.459, 348.871 204.461, 349.449 206.249 C 350.027 208.037, 351.063 209.556, 351.750 209.625 C 352.438 209.694, 353.337 209.860, 353.750 209.993 C 354.163 210.127, 354.880 210.169, 355.344 210.087 C 355.808 210.005, 355.986 210.514, 355.740 211.219 C 355.494 211.923, 354.491 212.354, 353.510 212.175 C 352.206 211.937, 351.899 212.294, 352.365 213.509 C 352.782 214.595, 352.570 215.009, 351.751 214.709 C 351.063 214.456, 350.631 213.687, 350.792 213 C 350.952 212.312, 350.376 210.968, 349.511 210.012 C 348.646 209.056, 347.752 207.311, 347.526 206.133 C 346.832 202.529, 346.061 201.897, 343.824 203.094 C 342.695 203.699, 340.359 203.983, 338.635 203.725 C 335.013 203.184, 330.605 204.551, 331.468 205.948 C 332.415 207.481, 328.514 209.114, 327.153 207.753 C 326.519 207.119, 326.001 207.028, 326.003 207.550 C 326.007 208.823, 331.773 212.633, 332.738 212 C 333.157 211.725, 333.364 211.091, 333.197 210.592 C 332.883 209.650, 334.856 208.042, 336.357 208.015 C 336.828 208.007, 336.964 208.652, 336.658 209.449 C 336.312 210.349, 336.911 211.154, 338.238 211.576 C 340.196 212.197, 340.234 212.356, 338.687 213.487 C 336.626 214.994, 336.481 217, 338.433 217 C 340.465 217, 342.424 222.888, 340.782 224.060 C 340.350 224.368, 340.785 225.493, 341.749 226.560 C 344.646 229.769, 344.042 233.373, 340.500 234.013 C 338.143 234.439, 337.875 234.703, 339.250 235.246 C 340.212 235.626, 341 236.716, 341 237.669 C 341 239.015, 340.733 239.133, 339.800 238.200 C 339.140 237.540, 338.240 237, 337.800 237 C 336.198 237, 337.060 239.326, 339.500 241.588 C 342.845 244.688, 340.425 250, 335.668 250 C 333.781 250, 332.607 248.361, 333.915 247.553 C 334.436 247.231, 335.144 247.425, 335.490 247.984 C 335.835 248.543, 336.642 249, 337.282 249 C 337.921 249, 337.399 248.267, 336.121 247.372 C 334.299 246.096, 334.089 245.558, 335.148 244.887 C 336.191 244.226, 336.207 244.027, 335.219 244.015 C 334.514 244.007, 333.663 244.715, 333.328 245.588 C 332.822 246.906, 332.284 246.708, 330.165 244.422 C 327.294 241.325, 325.964 242.682, 328.425 246.197 C 329.291 247.433, 330 249.448, 330 250.673 C 330 251.898, 330.788 253.359, 331.750 253.920 C 332.712 254.481, 332.941 254.953, 332.258 254.970 C 330.351 255.016, 326 250.847, 326 248.973 C 326 246.167, 322.946 241, 321.287 241 C 320.425 241, 319.134 240.213, 318.417 239.250 C 317.273 237.714, 317.140 237.952, 317.334 241.199 C 317.468 243.445, 318.456 245.857, 319.850 247.340 C 321.112 248.684, 322.238 250.395, 322.351 251.142 C 322.464 251.889, 322.932 253.102, 323.391 253.837 C 324.742 256.001, 322.700 257.076, 319.949 255.649 C 316.089 253.646, 312.703 252.921, 313.788 254.329 C 315.910 257.085, 316.034 259.038, 314.007 257.772 C 312.465 256.809, 311.091 256.932, 307.025 258.394 C 302.975 259.850, 301.667 259.968, 300.481 258.985 C 299.276 257.984, 299 258.058, 299 259.378 C 299 261.520, 297.360 261.448, 296.080 259.250 C 295.359 258.012, 295.052 257.911, 295.030 258.905 C 295.006 260.016, 294.611 259.958, 293.140 258.627 C 291.656 257.284, 290.729 257.153, 288.556 257.979 C 287.058 258.548, 285.416 258.757, 284.908 258.443 C 283.848 257.788, 281 260.328, 281 261.929 C 281 262.668, 291.056 263, 313.500 263 C 335.707 263, 346 262.665, 346 261.941 C 346 261.359, 345.559 261.154, 345.021 261.487 C 343.217 262.602, 340.146 260.157, 340.698 258.046 C 341.383 255.426, 344.590 254.703, 350 255.948 C 350.275 256.012, 349.672 256.691, 348.659 257.458 C 342.454 262.161, 346.289 263, 373.981 263 L 399.828 263 400.164 241.250 C 400.349 229.288, 400.636 170.113, 400.802 109.750 L 401.104 -0 297.052 -0 C 228.351 -0, 193 0.340, 193 1 C 193 1.550, 192.325 2, 191.500 2 C 190.675 2, 190 1.550, 190 1 C 190 0.340, 157.667 0, 95 0 L 0 0 0 56 M 65.500 167 C 63.790 167.735, 63.754 167.870, 65.250 167.930 C 66.213 167.968, 67 168.675, 67 169.500 C 67 170.333, 67.889 171, 69 171 C 71.033 171, 71.772 173.405, 70.063 174.461 C 67.391 176.112, 66.260 180.681, 68.220 181.905 C 71.178 183.752, 73.032 188.923, 71.640 191.440 C 71.013 192.573, 70.426 193.649, 70.336 193.831 C 70.245 194.013, 69.345 193.748, 68.336 193.241 C 66.314 192.227, 61.053 194.297, 62.842 195.403 C 63.403 195.749, 64.134 195.592, 64.467 195.054 C 64.852 194.430, 65.996 194.496, 67.621 195.237 C 70.118 196.375, 70.506 201.252, 68.235 202.950 C 67.831 203.253, 67.463 204.287, 67.417 205.250 C 67.076 212.404, 67.151 212.253, 64.250 211.553 L 61.500 210.888 63.798 212.534 C 66.544 214.501, 65.222 217, 61.437 217 C 58.920 217, 56.908 219.136, 58.823 219.774 C 59.470 219.990, 60.014 220.692, 60.032 221.333 C 60.151 225.733, 66.756 229.222, 68.792 225.961 C 70.190 223.722, 72.251 224.182, 71.349 226.532 C 71.040 227.339, 71.311 228, 71.952 228 C 72.593 228, 72.896 227.641, 72.625 227.202 C 72.354 226.763, 72.561 225.751, 73.084 224.952 C 73.896 223.714, 74.189 223.759, 75.071 225.256 C 75.804 226.499, 76.820 226.832, 78.551 226.398 C 79.895 226.060, 81.784 226.108, 82.748 226.504 C 83.711 226.900, 86.075 227.357, 88 227.520 C 92.287 227.884, 100.409 228.863, 102.190 229.230 C 102.910 229.378, 103.387 228.938, 103.250 228.250 C 103.106 227.530, 104.009 227, 105.377 227 C 109.396 227, 122.274 223.898, 126.566 221.896 C 132.085 219.322, 133.339 219.444, 132.755 222.500 C 132.270 225.038, 133.335 225.885, 134.546 223.925 C 134.972 223.237, 136.073 223.660, 137.605 225.099 C 138.922 226.336, 139.993 226.933, 139.985 226.424 C 139.960 224.912, 138.620 223.399, 136.667 222.677 C 133.436 221.482, 142.611 212.020, 147.015 212.005 C 147.848 212.002, 150.210 211.099, 152.265 209.998 C 154.319 208.897, 156 208.292, 156 208.653 C 156 209.014, 156.787 208.620, 157.750 207.777 C 160.668 205.221, 173.184 198.857, 174.386 199.318 C 175.541 199.761, 178.062 197.644, 178.016 196.270 C 178.002 195.846, 179.343 195.150, 180.995 194.721 C 182.648 194.293, 184 193.517, 184 192.997 C 184 186.004, 208.817 187.508, 233.490 195.996 C 236.693 197.098, 240.157 198, 241.188 198 C 242.219 198, 243.322 198.675, 243.638 199.500 C 244.297 201.216, 248 201.561, 248 199.906 C 248 199.177, 249.749 199.013, 253.250 199.415 C 258.035 199.964, 257.703 199.767, 249.500 197.185 C 244.550 195.626, 234.650 191.832, 227.500 188.752 C 204.156 178.698, 197.399 179.184, 176.717 192.401 C 167.204 198.480, 138.618 212.474, 131 214.781 C 126.875 216.030, 121.415 217.715, 118.866 218.526 C 116.317 219.337, 111.860 220, 108.961 220 C 103.748 220, 103.710 220.022, 105.506 222.006 C 108.387 225.190, 106.787 225.228, 100.414 222.127 C 97.161 220.544, 91.575 218.675, 88 217.974 C 70.637 214.567, 69.153 211.905, 74.969 194.593 C 80.078 179.385, 80.159 171.781, 75.151 177.541 C 73.936 178.939, 72.466 179.788, 71.884 179.428 C 71.144 178.971, 71.153 178.447, 71.913 177.687 C 72.511 177.089, 73 175.817, 73 174.859 C 73 172.518, 74.769 171.563, 76.479 172.982 C 77.616 173.926, 77.855 173.593, 77.785 171.156 C 77.707 168.383, 77.480 168.210, 74.554 168.685 C 72.403 169.034, 70.988 168.690, 70.081 167.598 C 68.601 165.815, 68.338 165.780, 65.500 167 M 380.250 183.706 C 379.012 183.944, 378 184.783, 378 185.570 C 378 186.356, 377.365 187, 376.589 187 C 373.221 187, 368.514 195.234, 371.250 196.338 C 371.938 196.615, 371.583 196.878, 370.463 196.921 C 366.074 197.091, 370.167 205.848, 374.691 205.968 C 375.346 205.986, 376.201 206.516, 376.590 207.146 C 377.089 207.952, 376.514 208.095, 374.649 207.627 C 373.082 207.233, 372 207.378, 372 207.981 C 372 208.541, 372.563 209.016, 373.250 209.035 C 373.938 209.055, 373.483 209.636, 372.240 210.326 C 370.584 211.246, 370.277 211.877, 371.091 212.691 C 371.905 213.505, 371.625 213.984, 370.044 214.486 C 367.646 215.247, 367.618 218.058, 370 218.804 C 370.825 219.062, 371.155 218.905, 370.733 218.454 C 369.863 217.522, 375.254 215, 378.115 215 C 379.152 215, 380 215.473, 380 216.052 C 380 216.631, 381.350 217.575, 383 218.150 C 384.650 218.725, 386 219.602, 386 220.098 C 386 220.594, 386.788 220.964, 387.750 220.921 C 388.795 220.874, 388.997 220.639, 388.250 220.338 C 387.563 220.060, 387 219.373, 387 218.810 C 387 218.247, 387.708 218.058, 388.573 218.390 C 389.689 218.818, 390.048 218.486, 389.809 217.246 C 389.624 216.286, 389.029 215.461, 388.486 215.414 C 383.861 215.009, 382.303 211.020, 386.750 210.968 C 389.250 210.939, 389.341 210.816, 387.750 209.608 C 386.788 208.877, 386 207.815, 386 207.247 C 386 206.192, 383.106 204.554, 381.750 204.841 C 381.337 204.929, 381 204.550, 381 204 C 381 203.450, 381.410 203, 381.912 203 C 382.962 203, 382.818 201.099, 381.622 199.183 C 380.264 197.008, 381.844 196.549, 383.994 198.494 C 385.714 200.051, 386 200.086, 386 198.738 C 386 197.874, 385.438 196.940, 384.750 196.662 C 384.027 196.371, 384.266 196.125, 385.316 196.079 C 386.314 196.036, 388.114 196.515, 389.316 197.146 C 391.431 198.255, 391.445 198.229, 389.750 196.317 C 387.485 193.762, 387.276 190.155, 389.500 192 C 390.325 192.685, 391 193.955, 391 194.822 C 391 196.005, 391.286 196.114, 392.142 195.258 C 392.997 194.403, 392.849 193.203, 391.552 190.469 C 388.372 183.768, 386.316 182.537, 380.250 183.706" stroke="none" fill="#1a1a2e" fill-rule="evenodd"/>
</svg>