<svg xmlns="http://www.w3.org/2000/svg" width="400" height="313" viewBox="0 0 400 313" version="1.1">
	<path d="M 0 156.502 L 0 313.005 200.250 312.752 L 400.500 312.500 400.753 156.250 L 401.006 0 200.503 0 L 0 0 0 156.502 M 219 42.246 C 218.725 42.520, 215.350 43, 211.500 43.313 C 195.530 44.612, 169.779 51.745, 160.701 57.386 C 157.992 59.068, 146.452 59.502, 142.668 58.064 C 138.860 56.616, 140.166 58.376, 144.385 60.378 C 148.175 62.177, 153.609 62.479, 157.253 61.094 C 159.168 60.366, 159.888 60.591, 160.918 62.241 C 161.970 63.925, 162.374 64.043, 163.165 62.897 C 163.843 61.914, 164.027 62.566, 163.783 65.099 C 163.402 69.064, 166.742 69.703, 167.747 65.858 C 168.087 64.560, 168.857 64.173, 170.364 64.541 C 171.854 64.905, 173.304 64.203, 175.159 62.218 C 178.038 59.138, 182.654 58.638, 185.606 61.088 C 187.380 62.560, 189.372 60.571, 188.501 58.198 C 188.238 57.482, 188.468 57.171, 189.011 57.507 C 189.555 57.843, 190 57.611, 190 56.992 C 190 56.320, 190.808 56.122, 192 56.500 C 193.235 56.892, 194 56.680, 194 55.945 C 194 55.034, 194.331 55.030, 195.411 55.926 C 196.220 56.598, 197.064 56.706, 197.389 56.180 C 197.903 55.349, 202.893 54.127, 208.750 53.399 C 211.431 53.066, 211.870 55.626, 209.250 56.311 C 208.287 56.562, 210.200 56.785, 213.500 56.805 C 216.800 56.825, 218.938 56.615, 218.250 56.338 C 215.946 55.408, 216.970 54.116, 219.750 54.446 C 221.262 54.625, 223.111 54.823, 223.857 54.886 C 224.603 54.949, 224.972 55.631, 224.676 56.403 C 224.380 57.174, 224.767 58.637, 225.537 59.653 C 226.356 60.734, 226.950 60.982, 226.968 60.250 C 226.986 59.563, 227.761 59, 228.691 59 C 230.163 59, 230.130 58.816, 228.443 57.582 C 225.996 55.793, 227.419 54.156, 230.012 55.776 C 231.386 56.633, 232.694 56.687, 234.599 55.962 C 236.065 55.405, 238.102 55.215, 239.126 55.540 C 240.407 55.946, 240.830 55.720, 240.483 54.815 C 240.026 53.622, 244.752 53.146, 248.500 54.007 C 249.050 54.133, 249.950 54.130, 250.500 53.999 C 251.050 53.868, 252.963 53.801, 254.750 53.850 C 256.538 53.899, 258 53.452, 258 52.856 C 258 52.226, 259.232 51.954, 260.947 52.206 C 262.568 52.443, 263.709 52.339, 263.483 51.973 C 263.257 51.607, 264.856 51.308, 267.036 51.308 C 269.216 51.308, 271 51.688, 271 52.154 C 271 53.427, 273.327 52.704, 274.715 51 C 275.735 49.747, 275.942 49.734, 275.968 50.921 C 275.986 51.703, 275.212 53.270, 274.250 54.404 C 272.583 56.367, 272.583 56.401, 274.250 55.110 C 275.230 54.352, 276 54.206, 276 54.780 C 276 55.343, 277.350 56.275, 279 56.850 C 280.650 57.425, 282 58.294, 282 58.781 C 282 60.766, 280.624 60.782, 277.982 58.829 C 276.204 57.514, 274.702 57.070, 273.845 57.607 C 273.105 58.071, 271.716 58.321, 270.758 58.163 C 269.598 57.973, 269.199 58.355, 269.564 59.307 C 269.899 60.180, 269.341 60.939, 268.131 61.255 C 266.667 61.638, 266.300 61.381, 266.726 60.270 C 267.207 59.017, 266.945 58.959, 265.152 59.919 C 262.672 61.246, 262.301 63, 264.500 63 C 265.846 63, 266.532 64.932, 266.066 67.408 C 265.971 67.908, 266.457 68.665, 267.145 69.090 C 268.016 69.628, 267.555 70.246, 265.626 71.124 C 263.369 72.153, 262.706 72.142, 262.040 71.065 C 261.591 70.338, 260.723 70.053, 260.112 70.431 C 258.865 71.202, 258.590 73.065, 259.750 72.882 C 261.642 72.583, 263 73.095, 263 74.107 C 263 74.716, 262.325 74.955, 261.500 74.638 C 260.675 74.322, 260 74.551, 260 75.148 C 260 75.812, 260.874 75.965, 262.250 75.541 C 269.932 73.178, 281 71.849, 281 73.289 C 281 73.798, 281.603 73.982, 282.341 73.700 C 286.394 72.144, 285.882 75.004, 281.773 76.876 C 274.406 80.232, 273.462 86.239, 280.023 88.006 C 284.819 89.298, 285.640 88.915, 286.503 84.989 C 287.011 82.674, 287.705 82, 289.579 82 C 292.671 82, 292.622 82.527, 289.250 85.608 C 287.033 87.634, 286.922 87.916, 288.678 87.064 C 291.602 85.645, 293.976 86.713, 295.394 90.087 L 296.566 92.874 300.533 91.174 C 305.072 89.229, 310 89.433, 310 91.566 C 310 92.355, 310.800 93, 311.777 93 C 312.755 93, 314.496 93.659, 315.646 94.465 C 316.796 95.270, 318.094 95.608, 318.529 95.215 C 318.964 94.822, 319.028 95.012, 318.671 95.637 C 318.314 96.262, 318.692 97.329, 319.511 98.009 C 321.423 99.596, 321.418 101, 319.500 101 C 318.675 101, 318 100.612, 318 100.139 C 318 99.665, 316.805 99.506, 315.344 99.785 C 313.504 100.137, 312.278 99.733, 311.354 98.469 C 310.621 97.467, 309.770 96.897, 309.463 97.204 C 309.156 97.511, 309.655 98.512, 310.571 99.429 C 312.644 101.501, 312.897 101.338, 304.500 103.357 C 300.650 104.282, 297.349 105.484, 297.165 106.026 C 296.980 106.569, 296.434 106.768, 295.951 106.470 C 293.988 105.256, 290.945 109.802, 292.607 111.464 C 294.009 112.866, 293.717 113.429, 291.750 113.118 C 291.337 113.053, 291 113.450, 291 114 C 291 114.550, 291.450 115, 292 115 C 293.808 115, 293.050 119.952, 291.051 121.200 C 289.603 122.104, 289.378 122.750, 290.173 123.709 C 290.941 124.633, 290.926 125, 290.122 125 C 288.243 125, 288.870 126.824, 290.980 127.494 C 292.069 127.839, 292.856 128.623, 292.730 129.236 C 292.590 129.917, 294.254 130.380, 297 130.426 C 299.475 130.466, 301.950 130.754, 302.500 131.065 C 303.882 131.845, 304.903 131.639, 309.447 129.658 C 311.618 128.712, 314.015 128.175, 314.773 128.466 C 315.531 128.757, 319.380 128.322, 323.326 127.498 C 327.271 126.675, 330.837 126.001, 331.250 126.001 C 333.084 125.999, 331.733 130.393, 329.005 133.304 C 327.357 135.062, 326.007 137.251, 326.005 138.168 C 326.002 139.086, 325.727 140.548, 325.393 141.418 C 324.985 142.482, 325.348 143, 326.501 143 C 327.898 143, 328.070 143.511, 327.426 145.750 C 326.990 147.262, 326.604 149.742, 326.567 151.261 C 326.523 153.072, 326.061 153.854, 325.223 153.532 C 323.262 152.780, 314.498 162.066, 316.169 163.126 C 318.016 164.296, 320.249 164.212, 319.500 163 C 319.160 162.450, 319.298 162, 319.806 162 C 321.143 162, 335 148.597, 335 147.303 C 335 146.704, 335.667 145.958, 336.483 145.645 C 337.327 145.321, 337.712 144.413, 337.376 143.538 C 337.008 142.578, 337.346 142, 338.276 142 C 339.096 142, 339.982 140.875, 340.245 139.500 C 340.614 137.570, 340.305 137, 338.893 137 C 337.602 137, 337.229 137.516, 337.626 138.750 C 338.072 140.137, 337.981 140.207, 337.186 139.089 C 336.086 137.541, 337.783 133.748, 339.188 134.616 C 339.621 134.883, 340.543 134.614, 341.237 134.017 C 341.932 133.420, 343.285 132.385, 344.246 131.716 C 349.819 127.833, 350.594 94.140, 345.280 86.740 C 343.100 83.705, 342.284 81.630, 342.677 80.126 C 343.010 78.852, 342.618 77.215, 341.739 76.217 C 340.908 75.273, 339.095 72.250, 337.711 69.500 C 334.678 63.475, 332.412 62.097, 319.686 58.538 C 310.192 55.884, 309.825 55.855, 308.448 57.647 C 307.074 59.436, 306.964 59.424, 305.263 57.311 C 304.293 56.106, 302.150 54.824, 300.500 54.461 C 298.850 54.098, 292.775 52.222, 287 50.292 C 270.452 44.762, 222.210 39.054, 219 42.246 M 270.500 172.051 C 268.850 172.443, 268.175 172.830, 269 172.912 C 271.102 173.121, 267.701 175.062, 264.667 175.385 C 263.429 175.517, 261.840 175.981, 261.137 176.416 C 260.433 176.850, 257.865 176.907, 255.429 176.542 C 252.627 176.121, 251 176.256, 251 176.907 C 251 177.474, 251.787 177.660, 252.750 177.321 C 254.088 176.851, 254.236 176.993, 253.377 177.926 C 252.760 178.596, 250.060 179.276, 247.377 179.435 C 244.695 179.595, 239.800 180.033, 236.500 180.409 C 230.753 181.063, 230.606 181.025, 233 179.504 C 234.996 178.237, 235.097 178.009, 233.500 178.374 C 232.400 178.626, 229.256 179.138, 226.513 179.513 C 223.770 179.887, 220.281 180.837, 218.759 181.624 C 216.728 182.675, 215.129 182.806, 212.746 182.118 L 209.500 181.180 213.550 181.090 C 215.778 181.041, 218.028 180.588, 218.550 180.085 C 219.073 179.581, 220.400 178.969, 221.500 178.725 C 222.600 178.481, 221.250 178.466, 218.500 178.693 C 207.070 179.634, 205.582 179.714, 207.250 179.298 C 211.213 178.308, 208.582 177.247, 202.750 177.482 C 199.313 177.621, 198.317 177.548, 200.538 177.321 C 203.014 177.068, 205.014 176.207, 205.707 175.098 C 206.762 173.408, 206.529 173.348, 202.168 174.183 C 199.601 174.675, 194.863 174.980, 191.640 174.860 C 187.197 174.695, 185.567 175.022, 184.903 176.210 C 183.558 178.612, 186.377 180.363, 190.508 179.692 C 192.542 179.362, 194 179.542, 194 180.123 C 194 180.684, 195.422 180.902, 197.250 180.621 C 200.269 180.157, 200.362 180.224, 198.559 181.561 C 197.491 182.352, 195.830 183, 194.868 183 C 193.905 183, 192.840 183.450, 192.500 184 C 192.160 184.550, 190.671 185.007, 189.191 185.015 C 187.711 185.024, 185.825 185.473, 185 186.014 C 183.935 186.712, 184.514 186.829, 187 186.416 L 190.500 185.835 188 187.895 C 185.889 189.635, 185.781 189.959, 187.309 189.978 C 188.304 189.990, 188.840 190.450, 188.500 191 C 188.160 191.550, 188.531 192, 189.324 192 C 191.095 192, 192.099 196.501, 190.651 197.949 C 189.916 198.684, 190.079 199, 191.193 199 C 192.069 199, 193.056 199.704, 193.386 200.563 C 193.716 201.423, 194.459 201.835, 195.037 201.477 C 195.615 201.120, 196.723 201.355, 197.500 202 C 198.277 202.645, 199.459 202.835, 200.126 202.422 C 200.954 201.911, 201.144 202.183, 200.724 203.277 C 200.214 204.607, 200.769 204.833, 203.960 204.591 C 206.756 204.379, 208.255 204.817, 209.432 206.192 C 210.324 207.233, 211.486 207.818, 212.014 207.491 C 212.944 206.917, 220.824 206.019, 228 205.670 C 229.925 205.577, 231.758 205.151, 232.074 204.725 C 232.390 204.299, 236.199 203.719, 240.539 203.437 C 244.878 203.155, 248.670 202.594, 248.964 202.191 C 249.526 201.421, 253.595 200.853, 258.250 200.895 C 259.762 200.908, 261 200.461, 261 199.901 C 261 199.340, 261.403 199.131, 261.895 199.435 C 262.388 199.740, 263.050 199.312, 263.367 198.485 C 263.685 197.658, 264.294 197.039, 264.722 197.109 C 265.150 197.179, 265.725 197.143, 266 197.028 C 266.275 196.914, 268.975 196.638, 272 196.415 C 280.132 195.816, 280.018 195.854, 279.031 194.091 C 278.546 193.224, 277.553 192.468, 276.825 192.410 C 276.096 192.352, 274.457 192.236, 273.183 192.152 C 271.460 192.039, 271.008 191.551, 271.420 190.250 C 271.840 188.924, 271.372 188.465, 269.487 188.356 C 268.119 188.276, 267 188.509, 267 188.873 C 267 189.995, 259.584 189.253, 259.197 188.092 C 258.997 187.492, 258.196 187, 257.417 187 C 256.637 187, 256 186.550, 256 186 C 256 185.450, 256.423 185, 256.941 185 C 257.459 185, 258.160 185.450, 258.500 186 C 258.840 186.550, 259.568 187, 260.118 187 C 260.668 187, 260.810 186.502, 260.434 185.893 C 259.973 185.148, 260.527 184.981, 262.125 185.384 C 263.431 185.712, 263.985 185.739, 263.356 185.443 C 262.727 185.147, 262.445 184.016, 262.728 182.931 C 263.131 181.392, 263.545 181.207, 264.609 182.091 C 266.196 183.407, 269.428 182.501, 268.500 181 C 267.811 179.885, 268.969 179.317, 273.493 178.551 C 275.139 178.272, 276.623 177.632, 276.791 177.128 C 276.958 176.625, 277.974 176.442, 279.048 176.723 C 280.219 177.029, 281 176.731, 281 175.977 C 281 175.286, 281.788 174.101, 282.750 173.345 C 284.315 172.114, 284.194 172.039, 281.601 172.631 C 279.692 173.066, 278.923 172.934, 279.348 172.246 C 280.088 171.049, 275.172 170.941, 270.500 172.051 M 199.178 217.377 C 201.865 219.360, 199.746 221.453, 195.312 221.196 C 192.491 221.032, 191.890 221.234, 193 221.972 C 193.825 222.521, 195.179 222.976, 196.009 222.985 C 196.840 222.993, 198.110 223.947, 198.833 225.105 C 199.556 226.262, 199.777 226.994, 199.324 226.730 C 198.871 226.466, 197.600 226.612, 196.500 227.055 C 194.670 227.791, 194.708 227.865, 196.950 227.930 C 200.766 228.039, 198.138 229.547, 191.750 230.913 C 188.210 231.671, 186 232.660, 186 233.488 C 186 234.228, 185.460 235.013, 184.801 235.233 C 183.372 235.709, 182.896 244.728, 184.168 247.227 C 184.845 248.559, 184.697 248.821, 183.523 248.371 C 182.685 248.049, 182 247.384, 182 246.893 C 182 246.402, 181.550 246, 181 246 C 180.450 246, 180 246.930, 180 248.066 C 180 249.202, 179.515 251.037, 178.923 252.144 C 177.135 255.485, 178.627 257.682, 180.834 254.957 L 182.653 252.711 184.804 255.020 C 186.139 256.453, 186.764 258.121, 186.451 259.415 C 186.174 260.562, 186.587 265.749, 187.369 270.941 C 188.151 276.134, 188.564 280.972, 188.288 281.691 C 188.012 282.411, 188.284 283, 188.893 283 C 189.502 283, 190.029 281.313, 190.063 279.250 C 190.116 276.120, 190.270 275.855, 190.993 277.648 C 193.143 282.976, 195.217 280.194, 197.067 269.500 C 197.638 266.200, 198.783 259.675, 199.613 255 C 200.443 250.325, 201.382 244.700, 201.701 242.500 C 202.256 238.669, 205.878 230.354, 208.334 227.273 C 211.880 222.824, 214.144 221, 216.121 221 C 219.460 221, 217.915 220.124, 211.901 218.607 C 203.392 216.461, 197.115 215.854, 199.178 217.377" stroke="none" fill="#1a1a2e" fill-rule="evenodd"/>
</svg>