<svg xmlns="http://www.w3.org/2000/svg" width="248" height="150" viewBox="0 0 248 150" version="1.1">
	<path d="M 136.015 16.201 C 136.007 16.587, 136.714 19.512, 137.587 22.701 C 140.337 32.755, 140.904 35.430, 140.390 35.943 C 139.460 36.873, 138.105 33.567, 136.527 26.521 C 134.888 19.206, 133.550 16.117, 132.481 17.186 C 132.135 17.531, 132.570 19.201, 133.447 20.897 C 134.323 22.592, 135.001 24.215, 134.952 24.504 C 134.904 24.792, 135.384 27.533, 136.019 30.593 C 137.681 38.598, 136.546 38.338, 133.895 30.105 C 131.498 22.665, 130.195 21.111, 131.834 27.649 C 133.809 35.527, 134.059 37.154, 133.213 36.632 C 132.736 36.337, 131.519 33.262, 130.509 29.798 C 129.499 26.334, 128.007 22.825, 127.194 22 C 125.884 20.671, 125.802 20.728, 126.473 22.500 C 129.511 30.532, 131 35.194, 131 36.675 C 131 39.424, 129.168 36.938, 127.512 31.942 L 126.039 27.500 126.578 31.321 C 126.875 33.423, 127.333 35.898, 127.597 36.821 C 128.028 38.328, 125.370 33.148, 122.687 27.252 C 121.225 24.038, 120.723 25.160, 122.079 28.611 C 125.715 37.867, 124.815 40.491, 121.088 31.500 C 119.835 28.475, 118.445 25.775, 118.001 25.500 C 117.196 25.003, 120.275 33.778, 122.107 37.200 C 122.691 38.292, 122.703 39, 122.138 39 C 121.625 39, 119.581 35.625, 117.597 31.500 C 115.612 27.375, 113.750 24, 113.459 24 C 113.168 24, 113.373 24.829, 113.915 25.841 C 115.213 28.267, 117.868 36, 117.402 36 C 117.202 36, 115.906 33.862, 114.523 31.250 C 112.512 27.453, 112.135 27.102, 112.642 29.500 C 112.990 31.150, 113.612 32.950, 114.022 33.500 C 115.212 35.094, 116.242 41, 115.329 40.996 C 114.873 40.994, 113.679 38.997, 112.676 36.558 C 110.622 31.562, 107.744 28.305, 108.736 32.099 C 109.135 33.624, 108.955 34.090, 108.158 33.597 C 106.603 32.637, 106.677 33.082, 108.964 38.417 C 111.709 44.820, 110.719 44.128, 106.910 36.982 C 102.987 29.622, 101.875 29.750, 105.450 37.151 C 106.871 40.093, 107.239 41.399, 106.267 40.054 C 102.125 34.322, 100.823 33.212, 101.510 36 L 102.125 38.500 99.940 36 L 97.754 33.500 99.249 36 C 100.071 37.375, 101.232 38.500, 101.829 38.500 C 103.061 38.500, 105.931 41.986, 105.946 43.500 C 105.951 44.050, 105.024 43.375, 103.885 42 C 102.148 39.903, 101.909 39.823, 102.401 41.500 C 102.800 42.859, 102.012 42.378, 99.943 40 C 98.087 37.867, 97.186 37.281, 97.636 38.500 C 98.295 40.286, 98.192 40.351, 96.664 39.109 C 95.153 37.879, 95.035 37.927, 95.647 39.523 C 96.121 40.757, 95.973 41.102, 95.181 40.612 C 94.412 40.136, 94.234 40.445, 94.651 41.532 C 95.115 42.742, 95.476 42.848, 96.038 41.938 C 96.549 41.112, 97.343 41.823, 98.459 44.104 L 100.120 47.500 97.967 45 C 96.157 42.899, 95.914 42.819, 96.439 44.500 C 96.889 45.938, 96.364 45.657, 94.569 43.500 C 93.195 41.850, 92.056 40.163, 92.036 39.750 C 92.016 39.337, 91.480 39, 90.845 39 C 90.091 39, 90.199 39.607, 91.158 40.750 C 95.022 45.358, 96.005 48.281, 92.272 44.065 C 89.469 40.898, 88.122 39.994, 87.560 40.902 C 87.128 41.602, 87.275 42.675, 87.887 43.287 C 89.572 44.972, 89.220 46.427, 87.477 44.981 C 86.185 43.908, 86.059 44.003, 86.647 45.609 C 87.305 47.406, 87.242 47.415, 85.384 45.789 C 83.529 44.165, 83.429 44.176, 83.429 45.991 C 83.429 47.044, 83.633 47.700, 83.883 47.450 C 84.643 46.690, 88 50.210, 88 51.766 C 88 52.747, 87.329 52.452, 85.944 50.861 L 83.887 48.500 84.996 51 C 86.015 53.295, 85.900 53.258, 83.597 50.539 C 80.425 46.794, 79.215 47.702, 82.186 51.597 L 84.400 54.500 81.950 52.500 C 80.602 51.400, 79.169 50.050, 78.765 49.500 C 78.317 48.889, 78.025 49.010, 78.015 49.809 C 78.007 50.529, 77.555 50.843, 77.011 50.507 C 76.424 50.144, 76.290 50.593, 76.681 51.612 C 77.179 52.910, 76.994 53.119, 75.920 52.472 C 74.702 51.738, 74.698 51.860, 75.893 53.332 C 76.658 54.276, 76.934 55.375, 76.506 55.774 C 76.077 56.173, 75.525 55.938, 75.280 55.250 C 75.034 54.563, 74.394 54, 73.858 54 C 73.321 54, 73.234 54.563, 73.665 55.250 C 78.362 62.753, 46.178 73.980, 33.911 69.117 C 32.585 68.592, 28.168 64.949, 24.097 61.023 C 14.895 52.150, 10 49.462, 3.818 49.885 C 1.868 50.018, 5.322 61.748, 7.771 63.311 C 8.470 63.758, 8.751 64.593, 8.396 65.168 C 7.976 65.849, 7.450 65.740, 6.890 64.857 C 6.315 63.949, 6.026 63.894, 6.015 64.691 C 6.007 65.346, 6.457 66.165, 7.016 66.510 C 7.575 66.856, 7.797 67.520, 7.509 67.986 C 6.956 68.881, 16.570 72.591, 18.808 72.346 C 19.527 72.267, 21.289 73.290, 22.722 74.619 L 25.329 77.034 18.914 74.636 C 9.408 71.082, 5.850 70.447, 6.615 72.438 C 6.952 73.317, 7.822 73.915, 8.548 73.768 C 9.275 73.620, 9.916 73.950, 9.974 74.500 C 10.032 75.050, 9.161 75.644, 8.040 75.820 C 4.825 76.323, 5.535 79, 8.883 79 C 10.926 79, 11.919 78.417, 12.290 77 C 12.579 75.895, 13.637 75.014, 14.656 75.030 C 16.387 75.059, 16.393 75.123, 14.750 76.080 C 11.358 78.056, 12.896 79.192, 18.491 78.843 C 22.336 78.603, 24.130 78.890, 24.479 79.802 C 24.753 80.518, 24.532 80.829, 23.989 80.493 C 23.445 80.157, 23 80.584, 23 81.441 C 23 82.680, 21.768 83, 17 83 C 13.667 83, 11 82.556, 11 82 C 11 81.450, 9.988 81.052, 8.750 81.116 C 7.057 81.203, 6.933 81.345, 8.250 81.689 C 10.646 82.315, 10.463 84, 8 84 C 5.377 84, 5.428 85.684, 8.075 86.524 C 9.217 86.886, 9.899 87.435, 9.591 87.742 C 9.283 88.050, 9.812 88.876, 10.766 89.576 C 12.353 90.743, 12.267 90.940, 9.750 91.901 C 8.238 92.478, 7 93.398, 7 93.944 C 7 94.490, 7.600 94.707, 8.333 94.426 C 9.089 94.135, 9.667 94.582, 9.667 95.457 C 9.667 96.306, 9.160 97, 8.540 97 C 7.920 97, 6.932 98.804, 6.343 101.009 C 5.448 104.363, 5.496 104.833, 6.636 103.887 C 7.386 103.264, 8 103.105, 8 103.533 C 8 103.960, 8.966 103.453, 10.146 102.405 C 11.725 101.004, 12.167 100.897, 11.818 102 C 11.558 102.825, 9.613 104.477, 7.496 105.671 C 5.265 106.929, 3.510 108.737, 3.322 109.973 C 3.014 111.991, 3.194 111.955, 6.698 109.302 C 8.734 107.761, 10.015 107.132, 9.545 107.905 C 7.847 110.697, 17.359 103.659, 24.643 96.733 C 31.017 90.673, 47.231 87.223, 54.349 90.412 C 56.082 91.189, 59.903 92.588, 62.840 93.522 C 66.693 94.748, 67.876 95.524, 67.090 96.310 C 66.490 96.910, 66.015 97.873, 66.033 98.450 C 66.052 99.028, 66.952 98.438, 68.033 97.139 C 69.594 95.265, 70 95.123, 70 96.448 C 70 97.456, 70.458 97.835, 71.155 97.405 C 71.876 96.959, 72.037 97.131, 71.585 97.862 C 71.187 98.506, 70.474 98.793, 70 98.500 C 69.526 98.207, 68.813 98.494, 68.415 99.138 C 67.930 99.923, 68.128 100.039, 69.015 99.490 C 69.985 98.891, 70.164 99.132, 69.681 100.388 C 69.238 101.544, 69.401 101.870, 70.181 101.388 C 70.977 100.896, 71.129 101.272, 70.667 102.586 C 70.008 104.462, 70.024 104.463, 71.466 102.603 C 72.274 101.559, 72.730 100.373, 72.479 99.966 C 72.228 99.559, 72.652 98.704, 73.422 98.065 C 75.544 96.303, 76.554 98.730, 74.598 100.892 C 72.868 102.803, 72.549 104, 73.768 104 C 74.191 104, 75.288 102.763, 76.205 101.250 L 77.874 98.501 77.588 102.101 C 77.431 104.082, 76.960 106.332, 76.541 107.101 C 76.123 107.870, 76.939 107.150, 78.354 105.500 C 81.181 102.205, 81.886 100.020, 79.477 102.019 C 78.210 103.070, 78.056 103.018, 78.558 101.710 C 78.890 100.844, 79.991 100.199, 81.005 100.275 C 82.430 100.383, 82.639 100.807, 81.924 102.141 C 80.330 105.121, 80.959 105.607, 83.035 103 C 84.625 101.004, 84.885 100.903, 84.326 102.500 C 83.684 104.334, 83.787 104.379, 85.563 103.048 C 87.089 101.905, 87.235 101.894, 86.250 102.998 C 84.396 105.077, 84.735 106.457, 86.710 104.872 C 87.824 103.979, 87.428 105.246, 85.577 108.500 C 82.656 113.637, 83.024 113.671, 86.829 108.615 C 88.023 107.028, 89 106.327, 89 107.056 C 89 107.887, 89.566 107.657, 90.516 106.441 C 91.920 104.644, 91.944 104.706, 90.843 107.278 C 90.126 108.953, 89.380 109.615, 88.966 108.945 C 88.512 108.210, 88.065 108.387, 87.651 109.468 C 87.284 110.424, 87.434 110.850, 88.011 110.493 C 89.284 109.706, 89.268 110.632, 87.965 113.066 C 85.694 117.309, 88.029 114.667, 90.895 109.750 C 94.396 103.745, 94.991 104.051, 91.943 110.290 C 90.044 114.179, 90.034 114.317, 91.810 112.101 C 93.235 110.324, 93.855 110.064, 94.202 111.101 C 94.513 112.030, 95.216 111.492, 96.295 109.500 C 97.505 107.266, 97.930 106.978, 97.960 108.372 C 97.989 109.732, 98.342 109.973, 99.250 109.251 C 100.462 108.287, 103.675 108.342, 104.677 109.344 C 104.949 109.615, 104.399 111.465, 103.455 113.455 C 102.511 115.444, 101.539 116.872, 101.295 116.629 C 101.052 116.385, 101.606 114.728, 102.527 112.947 C 104.036 110.030, 104.043 109.770, 102.601 110.323 C 101.680 110.676, 100.981 110.420, 100.955 109.719 C 100.904 108.353, 96.113 116.932, 96.050 118.500 C 96.028 119.050, 97.162 117.700, 98.569 115.500 C 100.650 112.247, 101.046 111.967, 100.688 114 C 99.602 120.183, 101.567 121.837, 103.858 116.667 C 105.036 114.009, 106 111.421, 106 110.917 C 106 110.413, 106.486 110, 107.079 110 C 108.214 110, 107.421 115.626, 106.022 117.500 C 105.081 118.761, 103.801 124, 104.434 124 C 104.694 124, 105.802 121.975, 106.897 119.500 C 109.606 113.376, 110.262 113.810, 107.932 120.185 C 106.890 123.037, 106.241 125.574, 106.491 125.824 C 106.740 126.073, 107.424 124.977, 108.010 123.389 C 110.773 115.899, 112.564 112.007, 113.250 112.004 C 114.206 111.999, 114.347 111.396, 111.520 119.409 C 108.639 127.573, 109.876 126.986, 113.498 118.471 C 116.156 112.221, 116.711 115.711, 114.109 122.315 C 112.619 126.097, 112.712 126.859, 114.372 124.473 C 115.127 123.388, 116.079 120.925, 116.488 119 C 117.409 114.661, 118.717 112.954, 120.573 113.666 C 122.505 114.408, 122.371 116.515, 119.950 123.401 C 118.823 126.609, 118.131 129.464, 118.413 129.746 C 119.066 130.399, 120.431 127.087, 122.637 119.500 C 123.983 114.868, 124.474 114.063, 124.789 115.968 L 125.196 118.436 126.563 115.968 L 127.929 113.500 127.929 116 C 127.929 118.563, 125.781 128.119, 124.501 131.250 C 124.084 132.271, 124.231 133, 124.854 133 C 125.899 133, 126.580 130.908, 129.005 120.250 C 129.662 117.363, 130.653 115, 131.207 115 C 131.761 115, 131.940 115.714, 131.605 116.587 C 131.270 117.461, 130.749 120.048, 130.448 122.337 L 129.900 126.500 131.855 123 C 132.930 121.076, 133.603 119.167, 133.351 118.758 C 133.098 118.350, 133.395 117.225, 134.011 116.258 C 134.889 114.878, 135.009 115.552, 134.565 119.390 C 134.254 122.079, 133.993 125.004, 133.985 125.890 C 133.971 127.295, 133.846 127.309, 133 126 C 132.418 125.099, 132.025 124.975, 132.015 125.691 C 131.993 127.433, 133.948 128.353, 134.401 126.813 C 134.614 126.091, 135.251 123.925, 135.817 122 C 136.844 118.508, 136.845 118.510, 136.450 123 L 136.054 127.500 137.436 122.174 C 138.936 116.397, 139.981 114.547, 140.032 117.583 C 140.063 119.468, 140.088 119.468, 141.521 117.573 C 143.755 114.620, 143.980 115.922, 142.461 123.010 C 140.882 130.379, 140.689 134.209, 142.154 129.115 C 143.593 124.110, 146.589 121.304, 145.689 125.804 C 145.327 127.617, 145.421 128.858, 145.898 128.563 C 146.376 128.268, 147.075 125.553, 147.453 122.529 C 148.339 115.440, 149.556 114.664, 149.311 121.344 L 149.122 126.500 149.992 121.652 C 151.134 115.293, 152.459 114.149, 151.666 120.206 C 151.314 122.896, 151.468 125.171, 152.025 125.516 C 152.563 125.848, 153.045 124.859, 153.100 123.309 C 153.155 121.764, 153.596 119.375, 154.080 118 C 154.694 116.256, 154.834 117.465, 154.544 122 C 154.168 127.882, 154.223 128.120, 155.121 124.500 C 157.445 115.132, 157.382 115.208, 158.045 121 L 158.674 126.500 158.837 121.367 C 158.971 117.153, 159.358 116.140, 160.997 115.711 C 162.824 115.233, 162.940 115.541, 162.358 119.344 C 161.577 124.448, 162.612 123.832, 163.876 118.441 L 164.799 114.500 164.900 118.250 C 164.955 120.313, 165.173 122, 165.385 122 C 166.506 122, 172.305 119.072, 171.250 119.039 C 167.302 118.916, 170.273 115.089, 174.750 114.531 C 184.840 113.275, 196.902 109.798, 206 105.525 C 210.356 103.479, 212.596 102.185, 220 97.434 C 221.925 96.199, 224.916 94.895, 226.646 94.537 C 228.377 94.179, 230.610 92.983, 231.609 91.880 C 232.608 90.776, 235.547 88.960, 238.141 87.844 C 244.022 85.314, 246.103 83.110, 245.345 80.213 C 244.656 77.576, 243.009 77.433, 238.700 79.637 C 235.540 81.253, 235.522 81.249, 237.252 79.306 C 238.216 78.223, 238.680 77.013, 238.283 76.616 C 237.886 76.219, 238.289 76.174, 239.179 76.515 C 240.069 76.857, 241.119 76.617, 241.511 75.982 C 242.405 74.535, 236.319 68.118, 233.344 67.371 C 232.141 67.070, 229.525 65.059, 227.530 62.903 C 225.536 60.747, 222.827 58.278, 221.512 57.416 C 219.924 56.375, 219.331 55.287, 219.748 54.175 C 220.294 52.716, 220.157 52.677, 218.687 53.872 C 217.497 54.840, 217 54.897, 217 54.063 C 217 53.414, 216.550 53.160, 216 53.500 C 215.445 53.843, 214.993 53.091, 214.985 51.809 C 214.973 50.105, 214.741 49.861, 214.096 50.878 C 212.899 52.769, 210.978 51.367, 211.100 48.691 C 211.191 46.676, 211.256 46.701, 211.906 49 C 212.586 51.404, 212.635 51.418, 213.184 49.361 C 213.498 48.184, 213.367 46.609, 212.893 45.861 C 212.419 45.112, 212.024 44.855, 212.015 45.289 C 212.007 45.723, 211.015 45.160, 209.811 44.039 C 206.797 41.231, 206.019 41.471, 205.884 45.250 C 205.814 47.225, 205.578 47.756, 205.283 46.605 C 204.955 45.327, 204.560 45.093, 204.069 45.889 C 202.912 47.760, 200.149 46.145, 200.727 43.935 C 201.280 41.822, 199.480 41.225, 198.662 43.250 C 198.385 43.938, 198.091 43.601, 198.009 42.500 L 197.859 40.500 197 42.500 C 196.103 44.587, 195.492 42.034, 195.923 38 C 196.054 36.772, 195.917 36.747, 195.163 37.863 C 194.385 39.014, 194.158 39.014, 193.700 37.863 C 193.402 37.113, 193.055 38.075, 192.929 40 C 192.708 43.373, 192.674 43.337, 192 39 L 191.300 34.500 191.080 38.500 C 190.903 41.716, 190.691 42.108, 190 40.500 C 189.527 39.400, 189.109 39.063, 189.070 39.750 C 188.856 43.556, 186.975 40.179, 186.843 35.750 L 186.686 30.500 186 35.500 L 185.314 40.500 185.025 35.500 C 184.744 30.627, 184.718 30.589, 184 34 L 183.263 37.500 183.032 33 C 182.835 29.175, 182.680 28.875, 182 31 C 181.245 33.356, 181.194 33.373, 181.100 31.285 C 180.919 27.271, 177.029 26.291, 176.850 30.215 L 176.700 33.500 176.273 30.500 C 175.508 25.127, 174.495 25.952, 174.682 31.797 L 174.864 37.500 173.491 31 L 172.118 24.500 172.524 31 C 172.803 35.473, 172.659 36.720, 172.064 35 L 171.199 32.500 171.029 35 C 170.760 38.961, 169.162 34.510, 169.055 29.500 C 169.008 27.300, 168.543 24.826, 168.022 24.001 C 167.396 23.011, 167.220 25.046, 167.503 30.001 L 167.931 37.500 166.561 32.500 C 165.808 29.750, 165.149 26.262, 165.096 24.750 C 165.043 23.238, 164.541 22, 163.981 22 C 163.420 22, 163.171 23.012, 163.426 24.250 C 164.355 28.747, 165.111 36, 164.652 36 C 164.393 36, 163.650 32.852, 163.001 29.004 C 162.352 25.155, 161.416 21.757, 160.922 21.452 C 160.427 21.146, 160.210 21.482, 160.438 22.198 C 161.447 25.368, 161.872 36.039, 160.966 35.479 C 160.435 35.151, 159.955 33.446, 159.900 31.691 C 159.845 29.936, 159.425 27.375, 158.966 26 C 158.419 24.361, 158.326 25.307, 158.695 28.750 C 159.458 35.865, 158.375 35.394, 156.915 27.976 C 155.584 21.210, 154.424 19.771, 153.055 23.186 C 152.192 25.336, 152.122 25.355, 152.063 23.441 C 152.029 22.309, 151.353 20.509, 150.562 19.441 C 149.276 17.705, 150.949 25.908, 153.582 34.250 C 153.886 35.212, 153.663 36, 153.086 36 C 152.510 36, 151.756 34.875, 151.411 33.500 C 150.546 30.054, 148.625 30.293, 149.400 33.750 L 150.016 36.500 148.570 34 C 147.774 32.625, 146.848 29.916, 146.512 27.980 C 145.665 23.092, 143.839 20.371, 144.512 25 L 145.021 28.500 143.540 24.500 L 142.058 20.500 142.525 24 C 142.782 25.925, 143.222 29.300, 143.503 31.500 L 144.012 35.500 142.619 32.537 C 141.853 30.908, 141.426 29.053, 141.670 28.416 C 141.915 27.779, 141.459 27.006, 140.657 26.699 C 139.855 26.391, 138.907 24.411, 138.551 22.299 C 137.982 18.935, 136.057 14.304, 136.015 16.201" stroke="none" fill="#1a1a2e" fill-rule="evenodd"/>
</svg>