<svg xmlns="http://www.w3.org/2000/svg" width="400" height="300" viewBox="0 0 400 300" version="1.1">
	<path d="M 362 27.586 C 346.325 28.299, 323.211 29.302, 310.636 29.816 C 285.594 30.839, 286.042 30.706, 286.015 37.137 C 285.998 41.298, 289.701 42.697, 295.439 40.697 C 297.592 39.947, 298.495 39.984, 298.778 40.834 C 298.992 41.475, 300.142 42.032, 301.333 42.070 C 302.963 42.123, 303.119 42.309, 301.962 42.820 C 300.609 43.418, 300.635 43.707, 302.175 45.214 C 303.175 46.192, 304.183 46.514, 304.523 45.964 C 304.850 45.434, 305.654 45.015, 306.309 45.033 C 306.964 45.052, 306.478 45.919, 305.229 46.961 C 303.867 48.096, 303.373 49.112, 303.995 49.497 C 306.922 51.306, 303.139 52.057, 294.351 51.412 C 285.357 50.752, 284.860 50.819, 284.351 52.766 C 284.056 53.893, 282.956 55.040, 281.906 55.314 C 280.856 55.589, 280.193 55.496, 280.433 55.109 C 281.569 53.270, 278.744 51.665, 273.720 51.293 L 268.244 50.887 267.571 54.472 C 267.202 56.443, 266.536 57.831, 266.092 57.557 C 265.648 57.282, 263.781 57.489, 261.943 58.016 C 257.922 59.169, 256.785 58.010, 257.268 53.250 C 257.511 50.864, 257.186 49.978, 256.049 49.919 C 248.401 49.517, 230.262 50.368, 229.291 51.173 C 228.458 51.865, 224.835 51.840, 217.993 51.096 C 205.540 49.741, 198.942 49.678, 200.924 50.932 C 202.146 51.705, 206.123 52.088, 213.250 52.117 C 214.213 52.121, 215 52.546, 215 53.062 C 215 54.255, 202.305 54.303, 201.570 53.113 C 201.269 52.626, 199.492 51.940, 197.621 51.589 C 195.405 51.173, 194.041 50.263, 193.704 48.975 C 193.233 47.175, 192.305 47, 183.216 47 C 173.536 47, 169.659 48.185, 171.759 50.502 C 172.166 50.952, 171.825 50.937, 171 50.468 C 169.688 49.723, 169.679 49.837, 170.930 51.378 C 171.724 52.355, 173.170 52.927, 174.179 52.663 C 175.180 52.402, 176.250 52.596, 176.558 53.094 C 176.866 53.592, 177.941 54, 178.947 54 C 185.301 54, 204.433 61.175, 218.500 68.833 C 228.010 74.010, 244.636 80, 249.496 80 C 254.303 80, 260.574 82.701, 262.464 85.585 C 264.116 88.106, 263.553 88.650, 261 87 C 260.175 86.467, 259.950 86.021, 260.500 86.009 C 261.050 85.997, 260.150 85.274, 258.500 84.401 C 256.195 83.182, 253.416 82.912, 246.500 83.235 C 239.171 83.577, 237.253 83.362, 236.168 82.078 C 234.975 80.664, 234.895 80.686, 235.401 82.287 C 236.533 85.871, 244.485 94.888, 246.500 94.874 L 248.500 94.859 246.500 93.925 C 245.152 93.295, 246.782 93.169, 251.500 93.537 C 260.578 94.246, 264 94.942, 264 96.079 C 264 96.586, 264.689 97, 265.531 97 C 266.374 97, 267.322 97.675, 267.638 98.500 C 267.955 99.325, 268.855 100, 269.638 100 C 270.422 100, 271.322 100.675, 271.638 101.500 C 271.955 102.325, 272.799 103, 273.513 103 C 274.351 103, 274.613 103.765, 274.250 105.153 C 273.160 109.322, 289.941 103.283, 301.473 95.356 C 304.594 93.210, 306.565 93.714, 303.861 95.967 C 300.460 98.800, 303.442 98.553, 309 95.541 C 317.272 91.058, 318.431 90.813, 333.500 90.366 C 341.750 90.121, 349.625 89.648, 351 89.316 C 355.094 88.325, 357.388 88.234, 359.442 88.981 C 361.166 89.607, 361.077 89.764, 358.652 90.373 C 357.148 90.750, 356.141 91.420, 356.414 91.861 C 356.913 92.668, 347.986 97, 345.824 97 C 343.518 97, 346.067 98.329, 349.739 99.041 L 353.500 99.770 349.493 99.885 C 347.290 99.948, 344.019 100.421, 342.224 100.936 C 340.011 101.571, 339.166 101.540, 339.599 100.840 C 339.973 100.234, 339.464 99.957, 338.368 100.168 C 337.341 100.365, 336.500 101.151, 336.500 101.913 C 336.500 102.675, 335.600 103.688, 334.500 104.165 C 332.814 104.895, 332.893 104.956, 335.008 104.557 C 336.388 104.296, 338.070 104.425, 338.747 104.844 C 339.461 105.285, 338.455 105.647, 336.351 105.707 C 333.089 105.800, 331.089 106.437, 325.878 109.045 C 324.958 109.506, 323.816 109.416, 323.239 108.839 C 322.548 108.148, 321.301 108.350, 319.360 109.466 L 316.500 111.111 319.800 110.571 C 321.838 110.237, 322.867 110.407, 322.491 111.015 C 322.156 111.557, 319.996 112.036, 317.691 112.079 C 315.386 112.122, 314.126 112.406, 314.892 112.710 C 316.246 113.246, 313.585 114.727, 308.192 116.439 C 306.407 117.006, 306.133 116.818, 306.676 115.401 C 307.103 114.288, 306.953 113.911, 306.255 114.342 C 305.659 114.711, 305.020 114.596, 304.835 114.088 C 304.651 113.579, 303.213 114.195, 301.641 115.456 L 298.782 117.749 301.447 117.456 C 303.128 117.272, 303.969 117.593, 303.724 118.328 C 303.511 118.968, 302.698 119.519, 301.918 119.553 C 299.222 119.670, 296.887 121.263, 297.411 122.629 C 297.750 123.513, 297.216 124, 295.910 124 C 294.794 124, 294.162 123.546, 294.505 122.992 C 295.441 121.477, 290.851 120.123, 288.185 121.128 C 285.136 122.277, 284.131 122.212, 286 120.986 C 287.053 120.296, 286.457 120.198, 284 120.659 C 282.075 121.019, 280.162 121.806, 279.750 122.407 C 279.284 123.086, 278.766 122.647, 278.383 121.250 C 277.681 118.687, 276.962 118.470, 275.075 120.250 C 274.063 121.205, 273.646 121.218, 273.310 120.306 C 273.069 119.650, 272.283 119.338, 271.564 119.614 C 270.264 120.113, 268.479 117.187, 269.476 116.190 C 269.764 115.902, 270 116.192, 270 116.833 C 270 117.475, 270.450 118, 271 118 C 272.221 118, 271.878 115.777, 270.500 114.765 C 268.913 113.600, 266.806 113.877, 267.592 115.149 C 268.778 117.068, 257.719 115.199, 256.223 113.227 C 255.153 111.817, 255.234 111.431, 256.723 110.843 C 258.067 110.312, 257.768 110.095, 255.500 109.952 L 252.500 109.763 255.500 109 C 257.795 108.416, 257.991 108.209, 256.332 108.118 C 252.226 107.894, 250.331 106.774, 252.573 105.895 C 254.076 105.307, 253.785 105.125, 251.250 105.070 C 249.463 105.032, 248 104.523, 248 103.941 C 248 103.359, 248.419 103.141, 248.931 103.457 C 249.443 103.774, 250.188 103.504, 250.587 102.859 C 251.086 102.052, 250.661 101.855, 249.231 102.229 C 247.630 102.648, 246.876 102.115, 245.967 99.920 C 245.317 98.350, 244.166 96.553, 243.410 95.925 C 242.654 95.298, 244.458 99.220, 247.420 104.642 C 252.521 113.981, 258.916 120.788, 261.239 119.352 C 261.658 119.093, 262 119.475, 262 120.200 C 262 120.926, 262.930 122.100, 264.067 122.810 C 265.203 123.519, 265.937 124.640, 265.697 125.300 C 265.457 125.960, 265.947 127.287, 266.785 128.250 C 268.158 129.826, 268.145 130, 266.655 130 C 262.920 130, 266.464 134.220, 271.744 136.061 C 273.970 136.836, 275.432 136.839, 276.868 136.070 C 278.198 135.359, 279.088 135.334, 279.498 135.997 C 279.839 136.549, 280.568 137, 281.118 137 C 281.668 137, 281.780 136.437, 281.367 135.750 C 280.931 135.024, 281.384 135.124, 282.451 135.991 C 284.685 137.806, 277.893 139.476, 272.289 138.489 C 268.216 137.772, 268.835 140.071, 275.840 151.677 C 282.588 162.856, 289.681 164.307, 285.621 153.679 C 283.617 148.431, 283.551 145.109, 285.437 144.386 C 286.227 144.083, 286.629 143.197, 286.330 142.417 C 285.309 139.758, 286.944 140.992, 288.547 144.090 C 289.426 145.790, 289.901 147.815, 289.604 148.590 C 288.897 150.432, 289.955 153.146, 291.104 152.436 C 291.596 152.132, 292.908 153.424, 294.020 155.309 L 296.041 158.734 302.770 156.754 C 311.299 154.244, 318.333 153.512, 320.675 154.891 C 322.157 155.764, 321.910 155.856, 319.366 155.381 C 317.481 155.029, 314.889 155.409, 312.866 156.334 C 309.281 157.971, 296.099 164.104, 294.611 164.827 C 294.122 165.065, 294.036 164.751, 294.420 164.130 C 294.911 163.334, 293.188 163, 288.594 163 C 283.064 163, 281.905 162.691, 280.985 160.972 C 280.388 159.857, 279.505 159.188, 279.022 159.487 C 278.539 159.785, 277.856 159.123, 277.505 158.015 C 277.153 156.907, 276.236 156, 275.468 156 C 274.699 156, 273.589 155.100, 273 154 C 272.411 152.900, 271.045 152, 269.965 152 C 268.884 152, 268 151.375, 268 150.611 C 268 148.859, 264.078 144.054, 264.033 145.750 C 264.015 146.438, 263.541 147, 262.980 147 C 262.420 147, 262.167 145.866, 262.418 144.480 C 262.669 143.093, 262.462 142.214, 261.958 142.526 C 261.454 142.838, 260.020 142.527, 258.771 141.836 C 257.522 141.146, 255.825 140.694, 255 140.832 C 253.735 141.044, 253.721 140.934, 254.912 140.132 C 256.117 139.321, 256.098 138.955, 254.781 137.638 C 253.933 136.790, 252.936 136.398, 252.566 136.767 C 252.197 137.137, 252.191 136.665, 252.554 135.720 C 252.933 134.732, 252.743 134, 252.107 134 C 251.498 134, 251 134.450, 251 135 C 251 135.550, 250.276 136, 249.392 136 C 248.166 136, 247.918 135.345, 248.351 133.250 L 248.918 130.500 247.603 133.387 C 245.395 138.235, 244.447 133.356, 246.411 127.250 C 246.855 125.870, 246.722 125, 246.067 125 C 245.480 125, 245 125.540, 245 126.200 C 245 127.133, 244.733 127.133, 243.800 126.200 C 243.140 125.540, 242.150 125, 241.600 125 C 241.044 125, 241.133 125.533, 241.800 126.200 C 243.392 127.792, 243.349 129.534, 241.750 128.208 C 240.790 127.411, 240.500 128.001, 240.500 130.751 C 240.500 132.725, 241.061 134.518, 241.750 134.749 C 243.448 135.316, 243.321 137.260, 241.311 141.474 C 240.045 144.128, 239.169 144.871, 237.811 144.440 C 236.627 144.064, 236 144.371, 236 145.326 C 236 147.794, 232.906 148.138, 229.623 146.034 C 227.905 144.934, 227.015 144.026, 227.645 144.017 C 229.008 143.997, 231.169 131.750, 230.249 129.256 C 229.294 126.663, 227.967 129.305, 228.581 132.578 C 229.310 136.465, 227.409 137.476, 226.462 133.705 C 226.145 132.443, 224.899 130.795, 223.693 130.044 C 221.731 128.822, 221.636 128.844, 222.799 130.250 C 223.671 131.306, 223.753 132.035, 223.049 132.470 C 222.472 132.826, 222.007 133.654, 222.015 134.309 C 222.025 135.024, 222.417 134.901, 222.997 134 C 223.690 132.926, 223.898 133.703, 223.732 136.733 C 223.482 141.286, 221.510 143.182, 220.461 139.877 C 220.058 138.609, 219.263 138.069, 218.328 138.428 C 217.508 138.742, 216.437 139, 215.950 139 C 215.462 139, 215.322 139.675, 215.638 140.500 C 215.955 141.325, 215.758 142, 215.201 142 C 214.643 142, 214.423 142.900, 214.710 144 C 214.998 145.100, 214.751 146, 214.162 146 C 213.573 146, 212.806 147.518, 212.458 149.374 C 212.025 151.680, 211.298 152.709, 210.162 152.624 C 209.248 152.556, 208.488 153.175, 208.474 154 C 208.433 156.305, 206.985 158.109, 205.776 157.362 C 205.153 156.977, 204.977 157.153, 205.362 157.777 C 205.731 158.374, 205.116 159.506, 203.994 160.291 C 202.716 161.187, 202.189 162.328, 202.581 163.351 C 202.968 164.359, 202.594 165.219, 201.604 165.599 C 200.722 165.937, 200.007 166.953, 200.015 167.857 C 200.029 169.283, 200.159 169.302, 201 168 C 201.533 167.175, 201.976 166.972, 201.985 167.550 C 201.993 168.127, 201.460 169.140, 200.800 169.800 C 200.140 170.460, 200.028 171.007, 200.550 171.015 C 201.073 171.024, 200.854 171.439, 200.064 171.939 C 198.889 172.683, 198.860 173.127, 199.909 174.390 C 200.613 175.239, 200.957 176.510, 200.673 177.216 C 200.349 178.023, 200.129 177.850, 200.079 176.750 C 200.028 175.620, 199.202 175.005, 197.750 175.015 C 196.238 175.026, 195.913 175.293, 196.761 175.831 C 197.692 176.422, 197.323 177.268, 195.349 179.066 C 193.880 180.405, 193.049 180.861, 193.503 180.080 C 194.106 179.042, 193.908 178.821, 192.764 179.260 C 191.885 179.598, 189.756 178.796, 187.906 177.430 C 186.094 176.094, 184.124 175, 183.528 175 C 182.251 175, 179 171.410, 179 170 C 179 168.470, 175.737 165.045, 174.819 165.612 C 174.366 165.892, 174.482 167.033, 175.078 168.146 C 175.674 169.260, 175.901 170.433, 175.581 170.752 C 175.261 171.072, 175 170.760, 175 170.060 C 175 169.290, 174.351 169.035, 173.359 169.416 C 171.986 169.943, 171.924 169.796, 172.981 168.523 C 174.025 167.265, 173.962 167, 172.622 167 C 171.730 167, 171 166.274, 171 165.387 C 171 164.153, 171.726 163.880, 174.086 164.226 C 176.585 164.593, 177.333 164.254, 178.021 162.444 C 178.488 161.215, 179.237 160.011, 179.685 159.769 C 180.707 159.216, 178.507 159.795, 176.500 160.607 C 175.545 160.994, 175 160.642, 175 159.638 C 175 158.597, 175.594 158.247, 176.750 158.607 C 178.328 159.097, 178.322 159.037, 176.689 157.992 C 175.693 157.354, 174.207 157.090, 173.387 157.405 C 172.567 157.720, 172.131 157.598, 172.417 157.134 C 172.940 156.289, 156.762 151, 153.654 151 C 151.325 151, 151.590 153.080, 154 153.710 C 156.196 154.284, 156.597 155.513, 154.927 156.545 C 154.260 156.957, 154.681 157.788, 156.035 158.737 C 157.535 159.788, 158.428 159.926, 158.890 159.179 C 159.643 157.959, 164 157.988, 164 159.213 C 164 159.646, 164.338 159.888, 164.750 159.750 C 165.515 159.495, 166 160.315, 166 161.861 C 166 162.335, 164.762 162.558, 163.250 162.357 C 161.737 162.155, 161.062 162.255, 161.748 162.578 C 162.491 162.928, 162.762 164.099, 162.418 165.469 C 162.046 166.955, 162.426 168.256, 163.492 169.136 C 164.400 169.886, 165.983 171.259, 167.009 172.188 C 168.140 173.210, 169.016 173.453, 169.232 172.804 C 169.448 172.156, 170.236 172.379, 171.223 173.366 C 172.122 174.265, 173.550 175, 174.397 175 C 175.325 175, 175.718 175.571, 175.386 176.437 C 175.056 177.297, 174.165 177.620, 173.167 177.243 C 171.681 176.680, 171.690 176.803, 173.251 178.378 C 174.429 179.567, 174.817 181.020, 174.438 182.822 C 173.964 185.070, 174.053 185.219, 174.987 183.750 C 176.217 181.815, 178 181.406, 178 183.059 C 178 183.641, 177.438 183.850, 176.750 183.522 C 176.063 183.194, 176.224 183.462, 177.108 184.118 C 179.604 185.969, 173.195 191.338, 169.575 190.429 C 168.071 190.052, 167 190.207, 167 190.801 C 167 193.462, 143.400 179.152, 136.500 172.308 C 134.300 170.125, 129.205 164.665, 125.177 160.174 C 117.137 151.208, 114.555 150.549, 113.723 157.251 C 113.356 160.210, 113.306 160.139, 113.160 156.450 C 113.072 154.223, 113.539 151.861, 114.197 151.203 C 115.127 150.273, 114.908 149.390, 113.216 147.253 C 89.124 116.818, 76.356 87.626, 85.090 82.952 C 90.427 80.095, 87.232 79.170, 74.250 79.814 C 67.237 80.162, 59.587 80.458, 57.250 80.473 C 54.913 80.488, 53 80.912, 53 81.417 C 53 81.921, 52.698 82.032, 52.330 81.663 C 51.961 81.295, 50.522 81.739, 49.131 82.650 C 47.380 83.797, 46.484 83.952, 46.218 83.153 C 45.683 81.548, 44 81.706, 44 83.361 C 44 84.459, 43.136 84.525, 39.540 83.702 C 37.086 83.140, 35.343 82.255, 35.665 81.733 C 36.019 81.161, 35.311 81.089, 33.875 81.553 C 32.569 81.975, 29.813 82.398, 27.752 82.492 C 25.690 82.586, 23.764 82.903, 23.471 83.196 C 23.178 83.489, 19.808 83.505, 15.982 83.231 C 11.217 82.890, 8.550 83.129, 7.513 83.989 C 6.474 84.852, 6 84.894, 6 84.122 C 6 83.505, 5.523 83, 4.941 83 C 4.359 83, 4.160 83.449, 4.499 83.999 C 4.855 84.575, 4.140 84.892, 2.808 84.749 L 0.500 84.500 0.246 192.247 L -0.009 299.994 93.406 299.989 C 181.657 299.985, 186.805 299.889, 186.539 298.242 C 186.384 297.284, 186.648 296.005, 187.127 295.400 C 187.641 294.749, 187.405 293.114, 186.548 291.396 C 185.477 289.251, 185.331 287.450, 185.988 284.496 C 186.801 280.838, 186.751 280.669, 185.399 282.495 C 183.259 285.385, 182.009 282.913, 182.115 276 C 182.190 271.113, 183.646 263.566, 183.900 266.750 C 184.188 270.356, 185.896 267.207, 186.506 261.944 C 187.074 257.052, 186.896 255.542, 185.578 254.086 C 184.680 253.094, 183.751 250.307, 183.512 247.891 C 183.187 244.598, 183.332 243.938, 184.089 245.250 C 184.645 246.212, 185.415 247, 185.800 247.001 C 186.681 247.002, 186.384 232.430, 185.472 230.955 C 185.092 230.340, 185.713 229.626, 186.899 229.316 C 189.516 228.632, 189.534 228.812, 186.351 223.730 C 183.528 219.224, 182.054 217.848, 180.848 218.594 C 179.445 219.461, 178.361 215.508, 178.628 210.500 C 179.190 199.964, 179.640 196.027, 180.366 195.301 C 180.779 194.888, 179.655 194.057, 177.869 193.456 C 176.082 192.854, 174.447 191.718, 174.234 190.931 C 173.916 189.752, 174.015 189.738, 174.799 190.857 C 175.464 191.805, 175.956 191.880, 176.434 191.107 C 177.350 189.625, 180 189.691, 180 191.196 C 180 195.242, 205.294 214.925, 213.245 217.066 C 219.497 218.750, 220.013 217.429, 216.495 208.750 C 215.500 206.295, 218.205 206.464, 220.500 209 C 221.495 210.100, 221.903 211.007, 221.405 211.015 C 220.907 211.024, 221.068 211.391, 221.763 211.832 C 222.551 212.332, 223.408 216.939, 224.040 224.067 C 225.814 244.084, 228.508 252, 233.546 252 C 236.328 252, 238.398 248.829, 237.488 245.962 C 236.782 243.739, 237.298 243.554, 240.066 245.035 C 241.453 245.778, 242 245.748, 242 244.928 C 242 244.300, 242.619 244.024, 243.376 244.314 C 244.227 244.641, 244.703 244.205, 244.626 243.171 C 244.557 242.252, 245.063 241.613, 245.750 241.750 C 246.438 241.888, 246.888 241.612, 246.750 241.139 C 246.292 239.562, 255.314 229.907, 256.736 230.452 C 257.526 230.755, 257.829 230.533, 257.453 229.924 C 257.095 229.345, 258.469 226.362, 260.505 223.295 C 263.150 219.311, 264.441 218.096, 265.025 219.040 C 265.569 219.920, 266.060 219.049, 266.496 216.431 C 267.600 209.805, 269.215 206.308, 270.114 208.599 C 270.590 209.813, 270.926 208.332, 271.045 204.500 C 271.367 194.060, 272.724 204.239, 273.444 222.500 C 274.112 239.438, 274.729 243.110, 277.975 249.461 C 279.089 251.640, 280 254.128, 280 254.989 C 280 255.850, 280.675 257.519, 281.500 258.696 C 284.376 262.802, 281.808 265.333, 278.189 261.961 C 276.985 260.840, 276 260.390, 276 260.961 C 276 261.532, 276 262.225, 276 262.500 C 276 262.775, 276.337 263.032, 276.750 263.071 C 277.163 263.110, 278.287 263.855, 279.250 264.726 C 281.151 266.446, 281.694 269.547, 279.900 268.438 C 279.127 267.961, 279.138 268.389, 279.935 269.879 C 281.305 272.439, 280.242 272.697, 278.410 270.250 C 277.192 268.623, 277.132 268.641, 277.554 270.500 C 278.387 274.169, 273.593 276.553, 271.574 273.473 C 270.683 272.113, 269.567 271, 269.094 271 C 267.680 271, 266.998 275.292, 268.184 276.722 C 268.790 277.452, 268.996 278.337, 268.643 278.691 C 268.289 279.044, 268 278.808, 268 278.167 C 268 277.525, 267.100 277, 266 277 C 264.889 277, 264 277.667, 264 278.500 C 264 279.325, 264.354 280, 264.787 280 C 265.220 280, 265.636 280.788, 265.711 281.750 C 266.106 286.795, 268.950 290.508, 270.500 288 C 270.840 287.450, 270.641 287, 270.059 287 C 268.482 287, 268.779 284.428, 270.524 282.980 C 272.539 281.307, 273.158 282.094, 273.731 287.061 C 274.175 290.901, 274.058 291.153, 272.111 290.535 C 269.887 289.829, 270.005 291.823, 272.367 294.858 C 273.585 296.422, 270.436 299.387, 268.698 298.313 C 268.137 297.967, 267.998 298.188, 268.384 298.813 C 268.888 299.627, 287.091 299.875, 334.789 299.717 L 400.500 299.500 400.786 182 C 400.944 117.375, 400.782 55.838, 400.427 45.250 L 399.781 26 395.141 26.146 C 392.588 26.226, 377.675 26.874, 362 27.586 M 101 40.071 C 88.625 40.472, 73.100 41.328, 66.500 41.974 C 43.710 44.204, 21.973 45.632, 6.750 45.899 L 1 46 1 63.500 C 1 75.150, 1.354 81, 2.059 81 C 2.641 81, 2.875 80.607, 2.578 80.127 C 2.282 79.647, 6.073 79.385, 11.011 79.545 C 15.946 79.705, 20.243 79.416, 20.561 78.902 C 20.878 78.388, 21.577 78.239, 22.114 78.570 C 23.572 79.472, 35.041 79.875, 34.504 79.007 C 34.249 78.594, 36.282 77.814, 39.020 77.272 C 41.759 76.731, 44 76.626, 44 77.039 C 44 77.452, 51.763 77.623, 61.250 77.418 C 70.737 77.213, 80.695 77.060, 83.377 77.078 C 87.004 77.102, 88.833 76.566, 90.516 74.985 C 96.146 69.696, 135.712 58.025, 163.334 53.505 C 166.182 53.039, 167.020 52.495, 166.595 51.387 C 166.252 50.494, 166.446 50.158, 167.078 50.548 C 167.658 50.907, 168.764 50.368, 169.535 49.350 C 171.206 47.144, 171.365 46, 170 46 C 169.450 46, 169 46.702, 169 47.559 C 169 48.416, 168.543 48.835, 167.984 48.490 C 167.425 48.144, 167.197 47.490, 167.478 47.036 C 168.042 46.124, 165.013 44.654, 164.214 45.452 C 163.940 45.727, 164.321 46.681, 165.061 47.573 C 166.227 48.978, 166.146 49.166, 164.453 48.982 C 161.236 48.632, 160.696 48.929, 161.903 50.383 C 163.235 51.988, 161.017 53.328, 158.577 52.391 C 156.742 51.687, 155.564 48.645, 156.949 48.184 C 157.534 47.989, 157.730 47.373, 157.386 46.815 C 157.004 46.197, 157.564 46.232, 158.817 46.902 C 160.578 47.844, 160.855 47.723, 160.730 46.061 C 160.270 39.963, 146.623 38.595, 101 40.071 M 157 103.417 C 157 104.196, 157.540 105.013, 158.199 105.233 C 158.927 105.476, 158.694 105.903, 157.607 106.321 C 156.316 106.816, 155.668 106.448, 155.291 105.004 C 155.003 103.902, 154.369 103, 153.883 103 C 152.757 103, 152.781 104.105, 153.946 105.947 C 154.537 106.881, 154.344 108.633, 153.405 110.882 C 151.640 115.107, 156.017 126.060, 158.611 123.908 C 160.138 122.640, 164.586 125.426, 165.542 128.248 C 166.401 130.785, 170.692 131.588, 172.869 129.619 C 176.334 126.483, 176.534 129.365, 173.126 133.324 C 170.179 136.748, 173.999 134.665, 178.724 130.271 C 182.584 126.683, 183.273 125.467, 183.273 122.239 C 183.273 116.948, 182.115 113.742, 180.437 114.386 C 179.503 114.744, 178.714 113.712, 178.006 111.208 C 176.083 104.405, 174.543 102.584, 170.600 102.447 C 168.620 102.378, 167 102.710, 167 103.185 C 167 103.660, 165.244 103.925, 163.097 103.774 C 160.950 103.623, 159.402 103.162, 159.656 102.750 C 159.910 102.338, 159.416 102, 158.559 102 C 157.702 102, 157 102.638, 157 103.417 M 134.634 199.283 C 133.150 200.833, 132.865 202.284, 133.240 206.366 C 133.500 209.190, 133.515 210.938, 133.273 210.250 C 132.258 207.365, 130.321 209.170, 130.165 213.146 C 130.076 215.426, 129.582 217.798, 129.068 218.418 C 128.554 219.037, 128.357 222.122, 128.629 225.272 C 128.949 228.960, 128.747 231, 128.063 231 C 127.478 231, 127 231.750, 127 232.667 C 127 233.583, 126.748 234.081, 126.440 233.773 C 125.662 232.995, 117.728 241.759, 115.409 245.959 C 114.359 247.861, 112.287 250.467, 110.805 251.751 C 108.919 253.385, 107.900 255.485, 107.410 258.749 C 106.674 263.657, 103.197 267.937, 101.792 265.664 C 100.815 264.083, 98.073 267.798, 98.032 270.760 C 98.014 272.003, 97.123 273.770, 96.052 274.688 C 94.233 276.245, 94.217 276.442, 95.802 277.665 C 97.334 278.846, 97.266 278.951, 95.110 278.737 C 93.690 278.596, 92.543 279.109, 92.284 280 C 91.896 281.333, 91.967 281.333, 92.924 280 C 93.870 278.682, 94.115 278.679, 94.947 279.974 C 95.578 280.955, 95.494 281.729, 94.697 282.289 C 92.978 283.498, 97.957 282.023, 101.250 280.348 C 104.128 278.883, 104.884 276.523, 102.750 275.662 C 102.063 275.385, 102.722 275.122, 104.215 275.079 C 107.381 274.987, 109.950 278.450, 108.093 280.307 C 106.993 281.407, 106.540 280.220, 106.925 277.250 C 107.015 276.563, 106.590 276, 105.981 276 C 105.372 276, 105.015 276.879, 105.187 277.952 C 105.359 279.026, 104.600 280.631, 103.500 281.518 C 101.554 283.088, 101.574 283.120, 104.250 282.704 C 106.112 282.415, 107 282.717, 107 283.639 C 107 285.601, 111.940 285.342, 114.404 283.250 C 116.407 281.549, 116.424 281.556, 114.983 283.500 C 114.167 284.600, 113.050 285.831, 112.500 286.235 C 110.944 287.378, 112.892 287.128, 115.212 285.886 C 116.883 284.992, 117.474 285.095, 118.208 286.407 C 118.711 287.306, 119.545 287.781, 120.061 287.462 C 121.403 286.633, 121.222 281.622, 119.800 280.200 C 118.867 279.267, 118.991 279, 120.359 279 C 121.326 279, 121.840 278.550, 121.500 278 C 120.559 276.477, 123.280 276.807, 125.712 278.511 C 127.104 279.486, 128.094 279.657, 128.503 278.994 C 129.382 277.572, 131.003 278.758, 130.985 280.809 C 130.976 281.772, 130.653 282.069, 130.235 281.500 C 129.831 280.950, 128.600 280.516, 127.500 280.535 C 126.400 280.554, 125.187 280.117, 124.804 279.563 C 123.719 277.995, 123.033 279.303, 122.433 284.090 C 122.128 286.516, 121.671 289.126, 121.417 289.891 C 121.060 290.964, 121.267 291.023, 122.319 290.150 C 123.070 289.527, 123.980 289.313, 124.342 289.675 C 124.704 290.037, 125.029 289.246, 125.063 287.917 L 125.127 285.500 126.055 287.814 C 126.590 289.150, 127.457 289.836, 128.103 289.436 C 128.719 289.055, 129.597 289.349, 130.054 290.088 C 130.511 290.827, 131.967 291.447, 133.289 291.466 C 134.611 291.485, 136.351 292.046, 137.155 292.714 C 138.575 293.892, 142.648 290.981, 141.369 289.703 C 140.290 288.623, 142.277 284.353, 144.272 283.464 C 145.719 282.819, 146.941 280.743, 147.967 277.189 C 148.810 274.268, 150.472 271.118, 151.659 270.189 C 153.652 268.630, 155.370 262.971, 156.506 254.226 C 157.479 246.728, 158.732 246.911, 158.297 254.488 L 157.838 262.476 160.090 259.488 C 163.472 255.002, 164.199 254.287, 163.491 256.149 C 163.146 257.056, 163.287 258.059, 163.804 258.379 C 164.322 258.699, 165.013 257.305, 165.342 255.283 C 166.005 251.193, 165.395 249.787, 163.930 252.029 C 163.297 252.998, 163.192 251.110, 163.621 246.500 C 164.391 238.234, 163.977 238.994, 167.861 238.721 C 170.179 238.557, 170.997 238.012, 170.998 236.628 C 171 235.172, 170.701 235.004, 169.654 235.872 C 168.556 236.783, 168.274 235.941, 168.122 231.296 C 167.933 225.502, 168.807 224.442, 169.488 229.640 C 170.018 233.686, 170.046 233.721, 171 231.500 C 172.469 228.081, 172.084 223.926, 170.030 221.041 C 168.946 219.520, 168.346 217.988, 168.696 217.637 C 169.047 217.287, 168.889 217, 168.347 217 C 166.019 217, 162.668 222.235, 164.381 223.194 C 166.453 224.353, 166.548 229, 164.500 229 C 163.675 229, 163 228.550, 163 228 C 163 227.450, 162.550 227, 162 227 C 161.450 227, 161 228.602, 161 230.559 C 161 232.516, 160.637 233.894, 160.194 233.620 C 159.165 232.984, 159.929 226.162, 161.110 225.432 C 161.600 225.129, 162 224.207, 162 223.382 C 162 222.557, 161.616 222.119, 161.147 222.409 C 158.228 224.213, 156.232 219.150, 155.466 208 C 155.258 204.975, 155.032 201.825, 154.965 201 C 154.897 200.175, 154.390 200.738, 153.838 202.250 C 153.285 203.762, 152.196 205, 151.417 205 C 150.637 205, 150 205.675, 150 206.500 C 150 207.325, 150.623 208, 151.383 208 C 152.927 208, 154.146 211.455, 153.342 213.552 C 152.933 214.617, 152.538 214.650, 151.515 213.705 C 150.797 213.042, 150.414 212.162, 150.664 211.750 C 150.914 211.338, 150.472 211, 149.681 211 C 146.815 211, 145.590 214.035, 145.830 220.543 C 146.033 226.041, 145.791 227.041, 144.032 227.983 C 142.308 228.906, 142 228.771, 142 227.094 C 142 226.007, 141.570 224.852, 141.044 224.527 C 140.518 224.202, 140.341 223.275, 140.651 222.468 C 141.049 221.431, 140.522 221.004, 138.857 221.015 C 137.561 221.024, 136.950 221.361, 137.500 221.765 C 139.039 222.896, 139.246 225.982, 137.794 226.148 C 137.082 226.229, 135.825 226.388, 135 226.500 C 134.175 226.612, 132.911 226.771, 132.191 226.852 C 131.471 226.933, 131.158 227.446, 131.495 227.992 C 131.832 228.538, 131.709 229.698, 131.221 230.569 C 130.578 231.718, 130.290 231.042, 130.176 228.112 C 130.056 225.061, 130.353 224.198, 131.385 224.594 C 132.257 224.929, 132.997 224.148, 133.425 222.442 C 133.795 220.969, 134.348 220.015, 134.655 220.322 C 136.810 222.477, 139.017 217.003, 138.452 210.904 C 138.126 207.382, 137.762 203.059, 137.645 201.299 C 137.371 197.199, 136.918 196.896, 134.634 199.283" stroke="none" fill="#1a1a2e" fill-rule="evenodd"/>
</svg>