<svg xmlns="http://www.w3.org/2000/svg" width="400" height="268" viewBox="0 0 400 268" version="1.1">
	<path d="M 105.650 1.530 C 106.046 2.562, 105.757 2.844, 104.712 2.443 C 103.882 2.124, 102.862 2.414, 102.447 3.086 C 101.993 3.821, 102.107 4.052, 102.732 3.666 C 103.305 3.312, 104.296 3.652, 104.935 4.422 C 106.449 6.246, 104.470 7.635, 102.586 6.071 C 101.331 5.030, 94.660 5.485, 92.595 6.753 C 92.098 7.059, 91.993 6.821, 92.362 6.224 C 92.731 5.627, 92.575 4.856, 92.016 4.510 C 91.417 4.140, 91 5.074, 91 6.788 C 91 10.390, 87.824 12.190, 84.327 10.570 C 83.056 9.982, 82.012 9.136, 82.008 8.691 C 82.004 8.246, 81.482 8.202, 80.848 8.594 C 80.215 8.985, 79.029 8.449, 78.214 7.403 C 76.771 5.551, 76.752 5.554, 77.529 7.500 C 78.509 9.955, 78.480 12.709, 77.442 16 C 76.783 18.089, 76.887 18.309, 78.077 17.337 C 81.538 14.510, 91 18.604, 91 22.929 C 91 24.068, 91.498 25, 92.107 25 C 92.716 25, 92.955 24.325, 92.638 23.500 C 91.999 21.834, 93.526 21.424, 94.500 23 C 94.840 23.550, 96.393 24, 97.952 24 C 99.600 24, 101.037 24.654, 101.386 25.563 C 101.716 26.423, 102.401 26.870, 102.908 26.557 C 103.414 26.244, 103.980 26.381, 104.165 26.862 C 105.004 29.050, 109.308 29.287, 108.740 27.114 C 107.938 24.049, 109.596 24.512, 113.703 28.500 C 115.685 30.425, 117.715 32, 118.215 32 C 118.725 32, 118.824 33.990, 118.440 36.551 C 117.873 40.329, 118.075 41.343, 119.629 42.519 C 121.903 44.242, 120.693 44.439, 117.684 42.836 C 115.730 41.795, 115.640 41.843, 116.836 43.292 C 118.547 45.367, 117.403 47.263, 114.916 46.473 C 113.826 46.127, 113 46.336, 113 46.957 C 113 47.558, 111.865 48.481, 110.477 49.009 C 108.490 49.764, 108.077 50.457, 108.531 52.268 C 109.401 55.735, 105.655 59.779, 103.328 57.885 C 101.855 56.686, 101.703 56.708, 102.203 58.045 C 102.588 59.077, 102.151 59.638, 100.890 59.733 C 99.851 59.812, 99 59.406, 99 58.831 C 99 58.256, 98.397 58.018, 97.659 58.300 C 95.965 58.950, 93.295 57.371, 94.333 56.333 C 94.760 55.907, 95.527 56.220, 96.039 57.029 C 96.856 58.320, 97.396 57.757, 97.156 55.864 C 97.112 55.514, 98.746 55.616, 100.788 56.090 C 106.015 57.304, 106.176 57.261, 105.820 54.750 C 105.512 52.586, 105.185 52.497, 100.657 53.343 C 100.193 53.429, 99.293 52.600, 98.657 51.500 C 98.021 50.400, 97.387 49.312, 97.250 49.083 C 97.112 48.853, 96.204 48.607, 95.232 48.536 C 92.213 48.313, 90.918 47.029, 91.856 45.189 C 93.735 41.506, 94.136 36.642, 92.445 38.046 C 89.707 40.318, 88.627 43.151, 90.142 44.088 C 91.213 44.750, 91.080 45.231, 89.495 46.429 C 87.713 47.775, 87.687 47.940, 89.250 47.968 C 90.213 47.986, 90.888 48.563, 90.750 49.250 C 90.583 50.084, 91.664 50.443, 94 50.327 C 97.255 50.167, 97.364 50.254, 95.559 51.577 C 93.083 53.392, 92.508 53.365, 90.481 51.338 C 89.097 49.954, 88.675 49.907, 87.963 51.060 C 87.263 52.192, 86.989 52.135, 86.457 50.748 C 85.850 49.166, 85.694 49.163, 84.153 50.715 C 82.613 52.266, 82.479 52.161, 82.187 49.190 C 82.014 47.435, 81.410 46, 80.843 46 C 80.179 46, 80.060 47.804, 80.509 51.065 C 81.184 55.972, 79.223 59.874, 76.827 58.393 C 76.445 58.157, 74.302 58.696, 72.066 59.590 C 68.171 61.149, 66.736 63.412, 69.136 64.212 C 71.092 64.864, 67.811 69.013, 64.096 70.585 C 60.130 72.265, 60.424 73.550, 64.426 72.028 C 67.947 70.689, 73 70.708, 73 72.059 C 73 72.641, 72.550 72.840, 72 72.500 C 71.450 72.160, 71 72.584, 71 73.441 C 71 74.333, 70.145 75, 69 75 C 67.690 75, 67 75.667, 67 76.933 C 67 77.996, 66.142 79.137, 65.094 79.470 C 62.550 80.278, 63 82.343, 66.406 85.500 C 68.988 87.893, 69.306 87.964, 70.452 86.396 C 71.159 85.430, 72.215 85.015, 72.897 85.436 C 73.821 86.008, 73.801 86.534, 72.811 87.728 C 72.103 88.581, 71.670 90.391, 71.848 91.751 C 72.056 93.337, 71.783 93.984, 71.086 93.553 C 70.482 93.180, 70 93.574, 70 94.441 C 70 96.280, 68.015 96.582, 67.968 94.750 C 67.949 93.987, 67.419 94.181, 66.608 95.250 C 65.877 96.213, 64.429 97.014, 63.390 97.030 C 61.600 97.059, 61.605 97.120, 63.500 98.178 C 66.450 99.827, 68.899 102.604, 70.033 105.586 C 70.843 107.717, 71.465 108.092, 73.268 107.536 C 74.496 107.158, 77.406 106.903, 79.736 106.969 C 83.189 107.068, 83.861 106.803, 83.374 105.533 C 82.661 103.675, 84.642 101, 86.729 101 C 87.684 101, 87.993 101.575, 87.596 102.611 C 87.153 103.765, 87.407 104.058, 88.492 103.641 C 89.745 103.160, 89.707 103.529, 88.271 105.780 C 86.627 108.356, 86.627 108.427, 88.267 107.128 C 89.761 105.944, 90 105.976, 90 107.359 C 90 108.240, 88.875 109.244, 87.500 109.589 C 86.125 109.934, 85 110.645, 85 111.167 C 85 111.690, 84.519 111.821, 83.932 111.458 C 83.344 111.095, 83.105 110.168, 83.400 109.399 C 83.696 108.629, 83.549 108, 83.076 108 C 82.097 108, 80.610 110.987, 80.831 112.510 C 81.013 113.764, 69.400 118.365, 68.092 117.557 C 67.567 117.233, 66.856 117.425, 66.510 117.984 C 66.165 118.543, 66.385 119, 67 119 C 67.615 119, 67.797 119.520, 67.405 120.155 C 67.007 120.798, 67.126 121.040, 67.674 120.701 C 68.215 120.367, 70.042 121.359, 71.736 122.906 C 75.614 126.448, 84.736 128.081, 86.577 125.563 C 87.903 123.750, 89.673 123.518, 90.196 125.089 C 90.761 126.784, 100.594 129.029, 110.407 129.704 C 117.030 130.159, 119.130 130.019, 118.598 129.158 C 118.204 128.521, 117.203 128, 116.374 128 C 115.291 128, 115.055 127.401, 115.540 125.875 C 115.991 124.452, 115.851 123.974, 115.115 124.429 C 114.510 124.803, 113.225 124.603, 112.258 123.985 C 110.704 122.993, 110.761 122.918, 112.750 123.338 C 114.014 123.605, 115 123.328, 115 122.706 C 115 121.950, 115.379 121.979, 116.200 122.800 C 116.860 123.460, 118.097 124.014, 118.950 124.032 C 119.802 124.049, 121.348 124.706, 122.385 125.491 C 124.101 126.790, 123.921 126.875, 120.385 126.441 C 117.574 126.095, 117.053 126.210, 118.500 126.857 C 119.600 127.348, 120.838 127.554, 121.250 127.316 C 121.662 127.077, 122 127.322, 122 127.860 C 122 128.497, 123.242 128.496, 125.560 127.856 C 127.517 127.315, 129.655 127.091, 130.310 127.358 C 130.964 127.624, 130.563 127.878, 129.417 127.921 C 125.817 128.057, 125.946 129.187, 129.789 131.174 C 133.399 133.041, 135.474 133.103, 139.414 131.459 C 140.758 130.898, 141.115 131.005, 140.612 131.818 C 140.215 132.461, 141.031 134.199, 142.448 135.728 C 144.275 137.698, 145 139.585, 145 142.371 L 145 146.263 149.078 145.716 C 154.167 145.034, 156.436 142.465, 154.098 140.034 C 152.681 138.561, 152.241 138.537, 150.219 139.822 C 148.964 140.619, 147.693 141.026, 147.393 140.727 C 147.094 140.427, 147.816 139.876, 148.997 139.501 C 150.302 139.087, 150.932 138.266, 150.604 137.410 C 150.245 136.474, 150.808 135.961, 152.281 135.884 C 154.316 135.778, 154.334 135.727, 152.500 135.276 C 146.142 133.712, 147.488 129.008, 154.297 128.996 C 156.702 128.992, 163.550 125.217, 162.698 124.365 C 162.409 124.075, 161.120 124.364, 159.836 125.008 C 158.021 125.917, 158.169 125.608, 160.500 123.625 C 162.150 122.221, 164.063 121.056, 164.750 121.036 C 165.438 121.016, 166 120.502, 166 119.893 C 166 119.284, 166.646 119.034, 167.435 119.337 C 168.225 119.640, 169.089 119.350, 169.356 118.694 C 169.717 117.807, 169.862 117.821, 169.921 118.750 C 169.964 119.438, 170.787 120.045, 171.750 120.100 C 172.861 120.163, 172.588 120.457, 171 120.906 C 168.635 121.575, 168.613 121.643, 170.593 122.172 C 172.012 122.551, 173.084 122.095, 173.917 120.761 C 174.640 119.604, 174.703 119.065, 174.071 119.456 C 172.624 120.350, 173.262 116.338, 174.814 114.786 C 175.729 113.871, 176 113.901, 176 114.917 C 176 115.752, 176.842 116.072, 178.303 115.793 C 180.516 115.370, 183.454 117.213, 182.341 118.326 C 182.045 118.622, 182.859 118.631, 184.151 118.346 C 186.021 117.932, 186.194 118.045, 185 118.898 C 184.030 119.591, 183.930 119.975, 184.719 119.985 C 185.389 119.993, 185.696 120.629, 185.400 121.399 C 185.105 122.168, 185.294 123.063, 185.819 123.388 C 186.344 123.713, 186.754 123.421, 186.730 122.739 C 186.564 118.147, 187.196 114.641, 187.876 116.373 C 188.555 118.100, 188.738 118.119, 190.235 116.623 C 192.648 114.209, 193.610 114.659, 191.405 117.170 C 189.695 119.117, 189.679 119.274, 191.250 118.701 C 193.396 117.918, 193.491 118.652, 191.500 120.643 C 189.753 122.390, 189.542 124, 191.059 124 C 191.641 124, 191.859 123.581, 191.542 123.068 C 191.226 122.556, 191.807 121.544, 192.834 120.818 C 193.861 120.093, 194.583 118.713, 194.439 117.750 C 194.054 115.178, 194.905 115.619, 196.028 118.573 C 196.658 120.231, 197.623 121.027, 198.741 120.811 C 200.695 120.435, 201.799 117, 199.966 117 C 199.317 117, 199.036 117.652, 199.342 118.449 C 199.690 119.355, 199.417 119.714, 198.616 119.406 C 197.239 118.878, 196.816 116, 198.115 116 C 198.544 116, 198.425 114.650, 197.850 113 C 197.275 111.350, 196.412 110, 195.934 110 C 195.455 110, 195.322 109.325, 195.638 108.500 C 195.955 107.675, 195.730 107, 195.138 107 C 194.546 107, 194.350 106.252, 194.701 105.336 C 195.178 104.093, 194.980 103.884, 193.920 104.508 C 193.139 104.968, 193.357 104.366, 194.405 103.172 C 196.630 100.635, 197.448 100.389, 196.638 102.500 C 196.322 103.325, 196.574 104, 197.198 104 C 197.822 104, 198.070 104.263, 197.749 104.585 C 196.748 105.585, 200.217 108.854, 201.683 108.292 C 203.009 107.783, 202.828 112.851, 201.440 115.097 C 200.497 116.622, 202.752 116.900, 204.603 115.487 C 206.248 114.230, 206.301 113.905, 205 113.034 C 203.790 112.225, 203.983 112.008, 206 111.916 L 208.500 111.801 206 111 C 204.625 110.560, 204.175 110.140, 205 110.066 C 206.093 109.970, 205.859 109.400, 204.139 107.967 C 202.841 106.885, 202.305 106, 202.948 106 C 203.592 106, 203.840 105.550, 203.500 105 C 203.140 104.418, 204.137 104, 205.882 104 C 207.532 104, 209.167 103.539, 209.515 102.976 C 209.926 102.311, 208.634 102.131, 205.824 102.461 C 203.286 102.759, 202.454 102.665, 203.809 102.234 C 205.079 101.830, 206.053 101.100, 205.974 100.612 C 205.894 100.123, 206.430 99.343, 207.165 98.877 C 208.188 98.228, 208.092 98.027, 206.750 98.015 C 205.787 98.007, 205 97.625, 205 97.167 C 205 96.708, 203.632 96.333, 201.961 96.333 C 200.097 96.333, 199.409 96.635, 200.182 97.112 C 201.859 98.149, 201.019 98.846, 197.159 99.618 C 194.469 100.156, 194.064 99.998, 194.594 98.616 C 194.940 97.713, 194.668 96.305, 193.989 95.487 C 193.065 94.373, 193.052 94, 193.937 94 C 194.586 94, 194.828 93.531, 194.474 92.958 C 194.120 92.385, 191.956 91.989, 189.665 92.077 C 187.374 92.165, 183.499 91.762, 181.054 91.181 C 178.608 90.600, 176.304 90.312, 175.933 90.541 C 175.303 90.930, 161.234 92.008, 151 92.451 C 148.525 92.558, 144.546 92.997, 142.157 93.426 C 138.279 94.124, 137.851 94.013, 138.163 92.393 C 138.516 90.560, 141.029 89.643, 150 88.073 C 152.475 87.639, 155.333 86.930, 156.351 86.497 C 157.514 86.001, 158.488 86.171, 158.972 86.954 C 159.569 87.921, 160.385 87.830, 162.621 86.544 L 165.500 84.889 162.200 85.429 C 159.880 85.809, 159.110 85.632, 159.605 84.830 C 160.035 84.134, 159.865 83.966, 159.166 84.397 C 158.424 84.856, 158.234 84.554, 158.623 83.539 C 158.954 82.679, 158.698 81.342, 158.056 80.568 C 157.140 79.464, 157.278 78.914, 158.695 78.012 C 160.257 77.017, 160.164 76.950, 158 77.510 C 147.654 80.189, 141.857 80.389, 147.371 77.877 C 148.817 77.218, 150 76.240, 150 75.704 C 150 74.371, 145.261 70.073, 144.562 70.772 C 144.253 71.081, 144 70.583, 144 69.667 C 144 68.750, 143.438 67.986, 142.750 67.970 C 142.063 67.953, 142.315 67.465, 143.311 66.886 C 145.941 65.356, 148.343 66.582, 147.680 69.116 C 147.215 70.892, 147.500 71.138, 149.566 70.743 C 151.440 70.384, 152 70.706, 152 72.139 C 152 73.162, 152.536 74, 153.191 74 C 153.846 74, 153.509 74.661, 152.441 75.468 C 150.531 76.913, 150.533 76.937, 152.550 76.968 C 153.678 76.986, 155.057 76.543, 155.615 75.985 C 157.900 73.700, 180.833 74.606, 191.644 77.408 C 195.024 78.283, 199.213 79, 200.953 79 C 206.644 79, 233.283 89.051, 231.724 90.610 C 231.462 90.871, 228.830 90.017, 225.874 88.711 C 219.148 85.740, 214.595 84.535, 215.475 85.960 C 216.387 87.436, 213.948 87.185, 211 85.500 C 208.755 84.217, 208.704 84.061, 210.500 83.972 C 212.236 83.886, 212.170 83.731, 210 82.797 C 206.711 81.380, 197.971 80.144, 198.615 81.186 C 198.892 81.634, 199.781 82, 200.590 82 C 201.400 82, 202.322 82.675, 202.638 83.500 C 202.955 84.325, 203.671 85, 204.229 85 C 204.788 85, 204.649 84.282, 203.920 83.404 C 202.764 82.010, 202.897 81.852, 204.970 82.154 C 208.054 82.604, 208.817 84.974, 206.105 85.683 C 204.947 85.986, 204 86.599, 204 87.045 C 204 87.492, 203.215 88.643, 202.254 89.603 C 200.594 91.263, 200.678 91.314, 203.991 90.652 C 207.007 90.049, 207.274 90.144, 205.987 91.361 C 203.854 93.378, 197.004 94.469, 196.985 92.795 C 196.974 91.872, 196.691 91.930, 196 93 C 194.517 95.294, 194.813 96.288, 196.750 95.518 C 197.713 95.135, 201.425 94.402, 205 93.889 C 208.575 93.376, 212.287 92.711, 213.250 92.411 C 214.590 91.993, 215 92.441, 215 94.324 C 215 96.113, 215.681 96.954, 217.500 97.411 C 218.875 97.756, 220 98.480, 220 99.019 C 220 99.559, 220.830 100, 221.845 100 C 222.860 100, 224.547 100.976, 225.595 102.170 C 227.425 104.254, 227.427 104.312, 225.639 103.658 C 224.254 103.152, 223.923 103.356, 224.345 104.457 C 225.100 106.423, 223.017 107.636, 221.904 105.878 C 221.271 104.880, 221.026 104.845, 221.015 105.750 C 221.007 106.438, 220.502 107, 219.893 107 C 219.284 107, 219.018 106.395, 219.302 105.656 C 219.675 104.683, 219.085 104.429, 217.159 104.734 C 215.027 105.073, 214.797 104.937, 216 104.048 C 217.171 103.183, 216.841 103.074, 214.500 103.553 C 209.036 104.671, 208.952 104.743, 209.968 107.416 C 210.766 109.514, 210.659 109.806, 209.283 109.279 C 208.070 108.813, 207.814 109.072, 208.283 110.294 C 208.629 111.197, 208.434 112.232, 207.850 112.593 C 207.143 113.030, 207.241 113.538, 208.143 114.110 C 209.229 114.798, 209.181 114.972, 207.905 114.985 C 204.113 115.021, 201.963 119.821, 204.571 122.429 C 206.976 124.833, 209.246 124.449, 208.577 121.750 C 208.270 120.512, 208.283 120.081, 208.606 120.792 C 209.064 121.798, 209.512 121.820, 210.629 120.893 C 211.844 119.885, 211.917 120.088, 211.105 122.224 C 210.448 123.951, 210.501 125.101, 211.273 125.873 C 212.109 126.709, 212.105 127, 211.259 127 C 210.631 127, 209.840 126.550, 209.500 126 C 209.160 125.450, 207.982 125, 206.882 125 C 205.782 125, 205.141 125.419, 205.457 125.931 C 205.774 126.443, 205.575 127.144, 205.016 127.490 C 204.457 127.835, 204 127.609, 204 126.987 C 204 126.366, 202.956 125.994, 201.679 126.161 C 198.446 126.585, 193.234 123.132, 195.118 121.814 C 196.256 121.018, 196.235 120.923, 195 121.275 C 194.175 121.510, 193.526 122.579, 193.558 123.650 C 193.603 125.187, 193.069 125.517, 191.021 125.216 C 189.040 124.926, 188.099 125.447, 187.044 127.418 C 186.129 129.127, 184.789 130.024, 183.081 130.070 C 180.777 130.133, 180.714 130.225, 182.500 130.932 C 183.600 131.367, 184.950 131.634, 185.500 131.526 C 186.050 131.417, 186.139 131.524, 185.697 131.765 C 185.255 132.005, 185.705 132.853, 186.697 133.649 C 188.122 134.794, 187.830 134.773, 185.300 133.548 C 181.360 131.642, 179.878 131.592, 182.326 133.448 C 183.331 134.209, 184.243 135.432, 184.354 136.166 C 184.465 136.900, 184.951 138.132, 185.433 138.905 C 186.029 139.861, 185.945 140.084, 185.167 139.603 C 182.016 137.656, 181.443 141.407, 184.446 144.326 L 187.500 147.295 184.089 146.640 C 182.212 146.280, 179.331 145.314, 177.685 144.493 C 176.039 143.672, 174.199 143.037, 173.596 143.083 C 172.993 143.129, 174.750 144.271, 177.500 145.621 C 180.250 146.970, 181.702 147.843, 180.727 147.560 C 179.701 147.262, 178.055 147.945, 176.819 149.181 L 174.684 151.316 176.986 150.714 C 178.252 150.383, 178.886 150.482, 178.394 150.935 C 177.902 151.387, 175.700 152.005, 173.500 152.307 C 171.300 152.609, 170.287 152.631, 171.250 152.355 C 173.601 151.681, 173.479 148.938, 171.069 148.308 C 170.007 148.030, 169.353 147.243, 169.616 146.559 C 169.957 145.670, 168.866 145.366, 165.797 145.495 C 158.611 145.797, 158.268 145.884, 159.971 146.961 C 162.106 148.311, 160.984 148.918, 155.778 149.227 C 153.247 149.377, 151.249 149.921, 151.338 150.437 C 151.527 151.530, 142.975 151.187, 141.500 150.042 C 138.174 147.462, 130.194 147.940, 128.930 150.796 C 127.741 153.482, 121.012 155.140, 121.003 152.750 C 121.001 152.338, 120.550 152, 120 152 C 119.450 152, 119 152.723, 119 153.607 C 119 154.625, 118.450 155.003, 117.500 154.638 C 116.675 154.322, 116 154.499, 116 155.031 C 116 155.564, 115.352 156, 114.559 156 C 113.766 156, 112.793 156.526, 112.395 157.170 C 111.909 157.957, 112.217 158.131, 113.336 157.701 C 115.375 156.919, 115.522 158.322, 113.571 159.941 C 112.459 160.864, 111.109 160.777, 107.486 159.547 C 104.925 158.677, 101.217 157.759, 99.245 157.507 C 92.988 156.706, 86.530 154.082, 79.575 149.513 C 75.862 147.074, 71.986 144.813, 70.963 144.488 C 69.940 144.163, 68.831 143.044, 68.500 142 C 68.169 140.956, 67.021 139.824, 65.949 139.484 C 63.273 138.635, 63.504 137.163, 66.426 136.429 C 71.575 135.137, 72.631 132.402, 69.121 129.448 C 66.896 127.576, 66 125.956, 66 123.804 C 66 121.463, 65.645 120.922, 64.418 121.393 C 63.548 121.727, 61.987 122, 60.950 122 C 59.581 122, 59.234 122.481, 59.687 123.750 C 60.209 125.212, 59.999 125.168, 58.406 123.482 C 57.296 122.307, 55.561 121.605, 54.250 121.802 C 51.191 122.260, 51.389 124, 54.500 124 C 56.241 124, 57 124.547, 57 125.800 C 57 126.790, 57.540 128.140, 58.200 128.800 C 58.982 129.582, 59.024 130, 58.322 130 C 57.730 130, 56.723 129.371, 56.086 128.603 C 55.448 127.835, 54.036 127.439, 52.948 127.724 C 51.474 128.109, 51.120 127.851, 51.558 126.708 C 52.070 125.374, 51.586 125.321, 47.823 126.301 C 43.535 127.417, 43.525 127.431, 46.500 128.018 C 49.329 128.576, 49.372 128.653, 47.259 129.370 C 46.026 129.787, 44.602 129.872, 44.094 129.558 C 43.586 129.244, 42.925 129.553, 42.625 130.244 C 42.325 130.935, 42.362 130.158, 42.706 128.518 C 43.051 126.878, 43.333 124.965, 43.333 124.268 C 43.333 123.571, 43.933 123, 44.667 123 C 45.400 123, 46 123.450, 46 124 C 46 124.550, 46.675 125, 47.500 125 C 48.325 125, 49 124.550, 49 124 C 49 123.450, 48.518 123, 47.929 123 C 46.811 123, 44 120.555, 44 119.583 C 44 119.275, 45.013 119.131, 46.250 119.262 C 47.609 119.406, 48.401 119.005, 48.250 118.250 C 48.113 117.563, 48.384 117, 48.854 117 C 50.174 117, 54.951 112.284, 54.295 111.628 C 53.975 111.309, 54.451 110.764, 55.351 110.419 C 56.252 110.073, 56.726 109.366, 56.405 108.847 C 56.050 108.272, 55.314 108.325, 54.524 108.980 C 52.983 110.259, 51.653 103.165, 53.131 101.550 C 53.655 100.977, 54 101.275, 54 102.300 C 54 103.447, 54.814 104, 56.500 104 C 57.875 104, 59 104.450, 59 105 C 59 105.550, 59.436 106, 59.969 106 C 62.014 106, 59.626 102.916, 56.391 101.381 C 53.232 99.882, 51.412 97.177, 54.312 98.289 C 55.925 98.908, 55.318 92.882, 53.660 91.816 C 51.846 90.650, 51.040 91.948, 51.658 95.039 C 52.399 98.745, 50.432 99.043, 48.805 95.472 C 48.036 93.783, 47.409 93.339, 46.917 94.134 C 46.513 94.789, 46.809 95.952, 47.577 96.719 C 48.688 97.831, 48.720 98.388, 47.736 99.459 C 46.715 100.568, 46.283 100.396, 45.254 98.470 C 43.928 95.988, 40.691 94.455, 38.993 95.505 C 38.429 95.853, 38.226 96.557, 38.543 97.069 C 38.859 97.581, 38.641 98, 38.059 98 C 37.477 98, 37 97.502, 37 96.893 C 37 96.277, 36.271 96.066, 35.355 96.417 C 34.443 96.767, 32.920 96.332, 31.935 95.441 C 30.298 93.960, 30.085 93.977, 29.215 95.667 C 27.503 98.989, 29.930 102.443, 33.250 101.410 C 34.550 101.005, 35 101.429, 35 103.055 C 35 104.816, 34.727 105.018, 33.604 104.086 C 32.467 103.143, 32.234 103.399, 32.354 105.463 C 32.434 106.857, 32.837 107.999, 33.250 107.999 C 34.505 108, 34.086 110.799, 32.750 111.338 C 32.063 111.615, 32.513 111.878, 33.750 111.921 C 35.117 111.969, 36 112.631, 36 113.607 C 36 114.625, 36.550 115.003, 37.500 114.638 C 40.194 113.605, 42.035 115.011, 41.384 117.604 C 40.980 119.218, 41.210 120, 42.092 120 C 43.052 120, 43.104 120.296, 42.287 121.113 C 40.916 122.484, 38.682 121.272, 39.354 119.521 C 39.834 118.268, 38.264 116, 36.917 116 C 36.541 116, 35.982 116.959, 35.676 118.132 C 35.264 119.706, 34.574 120.122, 33.041 119.721 C 29.298 118.742, 27.223 122.071, 30.659 123.543 C 33.134 124.604, 33.267 124.857, 31.693 125.509 C 30.698 125.921, 30.116 126.861, 30.399 127.597 C 30.681 128.333, 30.521 129.178, 30.042 129.474 C 29.563 129.770, 28.998 129.495, 28.788 128.863 C 28.501 128.002, 27.852 128.009, 26.202 128.892 C 24.630 129.733, 23.439 129.770, 22.041 129.022 C 20.963 128.445, 19.725 128.032, 19.291 128.105 C 16.866 128.509, 15.093 127.794, 14.689 126.250 C 14.279 124.678, 14.220 124.690, 14.116 126.367 C 14.032 127.721, 13.451 128.090, 12 127.710 C 10.409 127.294, 10 127.680, 10 129.594 C 10 131.189, 10.590 132.027, 11.750 132.079 C 13.144 132.142, 13.195 132.274, 12 132.729 C 11.175 133.043, 10.169 133.795, 9.764 134.400 C 9.285 135.116, 8.237 134.579, 6.764 132.862 C 3.403 128.946, -0.007 128.431, 0.024 131.844 C 0.051 134.792, 10.212 140.623, 13.275 139.448 C 14.112 139.127, 15.069 139.302, 15.400 139.838 C 15.731 140.374, 16.902 140.577, 18.001 140.289 C 19.391 139.926, 20 140.259, 20 141.383 C 20 143.684, 22.085 143.389, 22.710 141 C 22.998 139.900, 23.856 139, 24.617 139 C 26.687 139, 26.287 140.925, 23.750 143.173 C 21.715 144.977, 21.691 145.099, 23.500 144.450 C 24.600 144.056, 26.297 143.766, 27.272 143.806 C 28.246 143.846, 28.782 143.456, 28.463 142.939 C 27.512 141.402, 29.651 141.874, 31 143.500 C 31.685 144.325, 32.865 145, 33.622 145 C 35.319 145, 35.396 146.204, 33.800 147.800 C 32.936 148.664, 32.919 149, 33.741 149 C 34.369 149, 35.160 148.550, 35.500 148 C 36.544 146.311, 38.738 146.890, 39.290 149 C 39.577 150.100, 39.447 151, 39 151 C 38.553 151, 38.438 151.957, 38.743 153.127 C 39.249 155.059, 38.966 155.215, 35.650 154.828 C 33.032 154.522, 32 154.786, 32 155.760 C 32 156.507, 32.450 156.840, 33 156.500 C 34.539 155.549, 34.188 156.757, 32.278 158.989 C 31.331 160.095, 29.418 161.061, 28.028 161.136 C 25.601 161.267, 25.592 161.290, 27.805 161.713 C 29.073 161.955, 30.739 161.631, 31.508 160.993 C 33.477 159.360, 35.781 161.693, 35.201 164.731 C 34.776 166.950, 34.633 166.989, 32.377 165.511 C 31.070 164.655, 30 164.362, 30 164.860 C 30 165.359, 29.100 166.002, 28 166.290 C 25.189 167.025, 25.508 169.660, 28.500 170.411 C 30.015 170.791, 31.069 171.819, 31.175 173.019 C 31.738 179.395, 31.605 181.580, 30.612 182.250 C 29.830 182.778, 29.914 183.267, 30.897 183.900 C 31.808 184.486, 30.118 184.800, 26.047 184.800 C 21.151 184.800, 19.371 184.371, 17.817 182.817 C 15.600 180.600, 14.023 181.118, 15.944 183.432 C 16.619 184.246, 16.950 185.272, 16.679 185.711 C 16.407 186.150, 18.281 186.606, 20.843 186.723 C 23.404 186.841, 28.085 187.089, 31.243 187.274 C 34.402 187.459, 36.579 187.358, 36.080 187.050 C 35.582 186.741, 36.485 185.022, 38.087 183.229 C 41.231 179.710, 41.781 180.010, 39.500 184 C 37.952 186.709, 37.355 190.565, 38.848 188.211 C 40.086 186.261, 44.261 188.238, 46.021 191.608 C 48.107 195.602, 50.877 198.194, 52.191 197.382 C 52.944 196.916, 53.022 197.149, 52.429 198.095 C 51.946 198.868, 51.679 200.287, 51.838 201.250 C 51.996 202.213, 51.647 203, 51.063 203 C 50.478 203, 50 202.581, 50 202.070 C 50 201.497, 48.760 201.495, 46.773 202.065 C 44.998 202.574, 42.692 202.720, 41.648 202.388 C 40.437 202.004, 39.989 202.174, 40.411 202.856 C 41.666 204.886, 37.058 208.262, 33.896 207.629 C 30.080 206.866, 30.224 207.632, 34.250 209.512 C 36.037 210.346, 36.767 210.833, 35.872 210.593 C 34.976 210.353, 33.746 210.654, 33.139 211.261 C 31.665 212.735, 30.987 211.895, 30.721 208.266 C 30.589 206.478, 30.034 205.436, 29.351 205.697 C 28.719 205.939, 27.905 205.656, 27.542 205.068 C 27.179 204.481, 27.484 204, 28.219 204 C 30.131 204, 33.171 200.224, 31.894 199.435 C 30.740 198.722, 30.722 198.736, 29.178 201.500 C 28.093 203.443, 28.060 203.436, 28.030 201.250 C 28.014 200.012, 27.523 199, 26.941 199 C 26.359 199, 26.167 198.539, 26.515 197.975 C 26.863 197.412, 25.526 197.862, 23.544 198.975 C 19.897 201.024, 15 201.703, 15 200.161 C 15 197.995, 10.206 197.103, 9.666 199.169 C 9.217 200.888, 8.911 200.996, 7.700 199.865 C 6.457 198.703, 6.465 198.380, 7.766 197.429 C 9.081 196.467, 9.035 195.980, 7.382 193.443 L 5.500 190.552 5.187 193.776 C 4.884 196.887, 4.141 197.472, 1.054 197.030 C -0.564 196.798, 0.994 199.277, 4 201.718 C 5.076 202.592, 5.140 202.945, 4.227 202.968 C 3.250 202.993, 3.294 203.523, 4.415 205.250 C 5.914 207.557, 2.399 216.066, 0.664 214.331 C 0.299 213.966, 0 215.376, 0 217.466 C 0 221.492, 3.004 225.319, 5.433 224.387 C 6.132 224.119, 7.446 225.031, 8.352 226.415 C 10.243 229.300, 10.461 230.403, 8.956 229.473 C 8.382 229.118, 7.179 229.429, 6.283 230.164 C 4.848 231.340, 4.722 231.232, 5.233 229.251 C 5.946 226.481, 4.663 225.496, 2.981 227.523 C 1.952 228.763, 2.203 229.459, 4.424 231.517 C 5.903 232.887, 6.836 234.457, 6.497 235.004 C 5.324 236.903, 7.189 235.989, 9.056 233.750 C 10.089 232.513, 10.948 230.728, 10.967 229.785 C 10.985 228.841, 12.252 226.591, 13.782 224.785 C 15.312 222.978, 17.810 219.813, 19.333 217.750 C 21.876 214.306, 29.520 211.732, 27.500 215 C 26.695 216.302, 27.632 216.268, 30.186 214.900 C 31.504 214.195, 32.012 214.172, 31.601 214.836 C 31.214 215.462, 32.766 216.142, 35.527 216.556 C 39.625 217.171, 39.949 217.408, 38.698 218.870 C 36.256 221.725, 35.872 224, 37.831 224 C 41.322 224, 41.924 225.953, 39.712 230.098 C 38.566 232.244, 37.262 234, 36.814 234 C 36.367 234, 36 234.466, 36 235.035 C 36 235.732, 36.604 235.747, 37.845 235.083 C 39.995 233.932, 44 236.192, 44 238.557 C 44 239.351, 44.900 240, 46 240 C 47.100 240, 48 240.473, 48 241.052 C 48 241.671, 46.249 241.980, 43.750 241.802 C 39.754 241.518, 39.481 241.667, 39.179 244.296 C 38.867 247.013, 38.972 247.079, 42.874 246.609 C 46.321 246.193, 46.805 246.363, 46.290 247.812 C 45.900 248.912, 46.722 248.542, 48.650 246.750 C 50.278 245.237, 52.420 244, 53.412 244 C 54.474 244, 55.010 243.469, 54.718 242.708 C 54.077 241.037, 56.567 237.614, 57.848 238.406 C 58.388 238.740, 59.036 238.447, 59.290 237.756 C 59.640 236.799, 60.045 236.777, 60.988 237.663 C 62.396 238.985, 59.330 244.219, 57.500 243.617 C 56.178 243.183, 53.348 246.161, 53.573 247.750 C 53.670 248.438, 53.806 249.502, 53.875 250.117 C 53.946 250.750, 54.923 250.992, 56.131 250.676 C 59.946 249.678, 61.206 252.298, 58.379 255.348 C 56.057 257.851, 55 258.547, 55 257.571 C 55 257.336, 55.729 256.414, 56.619 255.524 C 57.510 254.633, 57.921 253.589, 57.533 253.202 C 57.145 252.816, 55.967 253.562, 54.914 254.861 C 53.465 256.649, 53 256.831, 53 255.611 C 53 254.725, 53.450 254, 54 254 C 54.550 254, 55 253.523, 55 252.941 C 55 252.359, 54.550 252.160, 54 252.500 C 53.450 252.840, 53 252.416, 53 251.559 C 53 250.216, 52.745 250.243, 51.159 251.750 C 50.146 252.713, 49.497 253.837, 49.718 254.250 C 49.938 254.662, 49.670 255, 49.122 255 C 48.540 255, 48.364 256.471, 48.700 258.539 C 49.130 261.190, 48.847 262.392, 47.570 263.325 C 46.014 264.463, 46.051 264.571, 48.001 264.571 C 49.536 264.571, 50.292 263.790, 50.693 261.786 C 50.999 260.254, 51.612 259, 52.055 259 C 52.498 259, 52.483 260.316, 52.022 261.925 C 51.560 263.533, 51.479 265.175, 51.841 265.572 C 52.204 265.970, 51.488 266.046, 50.251 265.742 C 49.014 265.437, 47.750 265.596, 47.442 266.094 C 46.035 268.370, 43.788 266.979, 44.462 264.250 C 45.257 261.031, 43.595 262.272, 42.574 265.660 C 41.926 267.807, 42.019 267.821, 57.961 267.949 C 69.023 268.039, 74 267.738, 74 266.980 C 74 266.376, 73.550 266.160, 73 266.500 C 72.450 266.840, 72 266.641, 72 266.059 C 72 264.568, 73.058 264.742, 75.072 266.565 C 76.386 267.755, 76.982 267.838, 77.555 266.911 C 78.068 266.080, 77.891 265.949, 77 266.500 C 76.134 267.035, 75.932 266.918, 76.405 266.155 C 76.797 265.520, 77.936 265, 78.937 265 C 79.937 265, 81.307 264.334, 81.983 263.521 C 82.928 262.381, 83.674 262.290, 85.232 263.124 C 86.735 263.929, 87.450 263.890, 88.015 262.975 C 89.089 261.239, 91.044 262.721, 90.286 264.696 C 89.868 265.787, 90.048 266.088, 90.830 265.605 C 91.474 265.207, 92 265.359, 92 265.941 C 92 266.523, 92.927 267, 94.059 267 C 95.191 267, 95.859 266.581, 95.543 266.069 C 95.226 265.557, 95.458 264.835, 96.057 264.465 C 96.751 264.036, 96.388 263.259, 95.057 262.327 C 93.907 261.522, 93.228 260.440, 93.548 259.923 C 94.559 258.287, 92.919 254.817, 91.410 255.396 C 90.634 255.694, 90 255.576, 90 255.135 C 90 254.694, 89.368 254.333, 88.596 254.333 C 87.497 254.333, 87.434 254.723, 88.308 256.121 C 89.632 258.241, 88.910 259.286, 86.706 258.441 C 85.557 258, 85.344 257.244, 85.926 255.672 C 86.365 254.483, 86.285 252.248, 85.747 250.704 C 85.209 249.161, 85.046 247.621, 85.384 247.282 C 86.345 246.322, 87.189 247.633, 87.352 250.336 C 87.477 252.414, 87.792 252.646, 89.357 251.808 C 90.716 251.082, 90.917 250.517, 90.107 249.707 C 88.159 247.759, 88.893 246, 91.655 246 C 94.218 246, 94.249 245.933, 92.556 244.062 C 91.186 242.548, 90.277 242.324, 88.401 243.038 C 85.361 244.193, 85.387 243.765, 88.561 240.339 C 89.970 238.820, 90.925 236.821, 90.684 235.899 C 89.559 231.596, 95.900 231.291, 97.843 235.554 C 98.872 237.814, 98.803 237.876, 96.293 236.921 C 94.347 236.182, 93.450 236.257, 92.834 237.211 C 91.513 239.259, 92.359 241.487, 94.518 241.644 C 95.608 241.723, 97.063 241.835, 97.750 241.894 C 99.598 242.051, 99.267 244.741, 97.250 245.950 C 95.594 246.944, 95.598 247.059, 97.334 248.097 C 98.638 248.877, 98.994 249.888, 98.565 251.597 C 98.224 252.957, 98.404 254, 98.981 254 C 99.541 254, 100 253.550, 100 253 C 100 251.539, 102.973 251.775, 103.152 253.250 C 103.581 256.769, 103.487 257.557, 102.563 258.196 C 102.010 258.578, 101.872 259.205, 102.255 259.588 C 102.638 259.971, 103.681 259.680, 104.572 258.940 C 105.999 257.756, 106.151 257.888, 105.846 260.048 C 105.614 261.694, 104.761 262.605, 103.250 262.820 C 101.621 263.051, 101 263.810, 101 265.570 C 101 268.368, 102.632 268.849, 103.311 266.250 C 103.746 264.583, 103.774 264.583, 103.884 266.250 C 103.948 267.212, 104.402 268, 104.893 268 C 105.384 268, 106.107 267.212, 106.500 266.250 C 107.156 264.644, 107.282 264.664, 108.037 266.500 C 108.489 267.600, 108.891 267.938, 108.930 267.250 C 108.968 266.563, 109.477 266, 110.059 266 C 110.641 266, 110.840 266.450, 110.500 267 C 110.097 267.652, 115.781 268, 126.816 268 L 143.750 268 144.387 264.813 C 144.860 262.449, 145.316 261.916, 146.152 262.752 C 146.987 263.587, 147.750 263.312, 149.106 261.689 C 150.585 259.917, 150.940 259.812, 150.967 261.139 C 150.986 262.075, 151.750 262.718, 152.750 262.639 C 153.713 262.563, 154.379 263.087, 154.232 263.804 C 154.085 264.521, 154.647 265.790, 155.482 266.625 C 156.839 267.982, 157 267.877, 157 265.630 C 157 264.249, 157.450 262.840, 158 262.500 C 159.162 261.782, 159.355 259.944, 158.250 260.118 C 157.838 260.184, 157.275 260.155, 157 260.055 C 156.725 259.954, 155.013 259.726, 153.195 259.548 C 148.796 259.117, 148.570 258.732, 150.511 254.978 C 151.767 252.550, 152.451 252.051, 153.327 252.927 C 154.202 253.802, 154.121 254.313, 152.992 255.026 C 151.726 255.827, 151.765 255.972, 153.250 255.985 C 154.213 255.993, 155 256.477, 155 257.059 C 155 257.641, 155.457 257.835, 156.016 257.490 C 156.575 257.144, 156.791 256.470, 156.495 255.992 C 156.199 255.513, 158.104 255.220, 160.729 255.340 C 163.472 255.465, 166.048 255.028, 166.790 254.311 C 169.289 251.894, 178 253.692, 178 256.624 C 178 263.878, 186.281 271.922, 186.624 265 C 186.885 259.709, 186.949 259.635, 189.109 262.097 C 190.269 263.419, 191.573 264.403, 192.006 264.284 C 192.440 264.165, 192.564 264.953, 192.281 266.034 C 191.465 269.153, 209.876 269.029, 211.829 265.903 C 212.549 264.749, 213.397 264.063, 213.712 264.378 C 214.027 264.694, 213.716 265.638, 213.020 266.476 C 211.907 267.817, 212.621 268, 218.985 268 C 225.107 268, 226.123 267.762, 225.618 266.448 C 225.275 265.552, 225.444 265.156, 226.019 265.511 C 226.566 265.850, 227.292 265.404, 227.631 264.520 C 228.190 263.063, 228.424 263.073, 230.147 264.633 C 231.608 265.955, 231.753 266.540, 230.774 267.161 C 229.845 267.750, 229.974 267.974, 231.250 267.985 C 232.447 267.995, 233 267.222, 233 265.535 C 233 262.880, 235.571 260.951, 238 261.785 C 240.308 262.577, 241.010 264.281, 239.693 265.891 C 238.822 266.955, 239.194 266.898, 241.067 265.680 C 243.504 264.094, 243.745 264.114, 245.841 266.067 C 249.616 269.583, 283.698 268.775, 280.799 265.238 C 279.671 263.862, 279.791 263.728, 281.713 264.223 C 284.213 264.867, 286.579 262.746, 285.432 260.889 C 284.984 260.165, 285.114 259.953, 285.760 260.352 C 286.348 260.715, 287.092 260.447, 287.413 259.756 C 287.734 259.065, 287.849 259.971, 287.669 261.769 C 287.481 263.640, 287.909 265.510, 288.670 266.141 C 289.402 266.748, 290.031 266.852, 290.069 266.372 C 290.107 265.893, 290.219 263.420, 290.319 260.879 C 290.523 255.680, 297.286 248.405, 300.697 249.714 C 302.067 250.240, 302.224 249.770, 301.721 246.668 C 301.001 242.231, 301.748 242.063, 304.951 245.941 C 306.288 247.559, 307.804 248.621, 308.320 248.302 C 308.837 247.983, 309.040 248.347, 308.772 249.111 C 308.504 249.875, 307.530 250.435, 306.608 250.355 C 304.976 250.215, 304.992 251.082, 306.705 255.649 C 306.942 256.281, 306.678 257.081, 306.118 257.427 C 304.910 258.174, 302.472 254.148, 302.832 252 C 303.048 250.713, 302.946 250.704, 302.115 251.940 C 300.250 254.715, 302.759 268.574, 304.764 266.569 C 305.096 266.238, 304.834 265.434, 304.183 264.783 C 302.290 262.890, 302.809 261.403, 305.347 261.454 C 308.285 261.512, 310.785 263.528, 311.190 266.166 C 311.484 268.082, 311.624 268.054, 313.902 265.617 L 316.304 263.048 313.902 262.087 C 312.581 261.559, 312.063 261.098, 312.750 261.063 C 314.474 260.976, 314.319 258.461, 312.476 256.619 C 311.638 255.780, 310.729 253.161, 310.457 250.797 C 310.185 248.434, 309.858 245.637, 309.731 244.583 C 309.604 243.528, 308.937 242.478, 308.249 242.249 C 307.430 241.976, 307.199 242.465, 307.581 243.666 C 308.130 245.394, 308.074 245.391, 306.620 243.612 C 304.758 241.333, 306.240 237.495, 308.629 238.411 C 309.440 238.722, 309.847 238.561, 309.532 238.052 C 309.218 237.543, 308.101 237.192, 307.050 237.271 C 305.999 237.350, 305.341 237.742, 305.587 238.141 C 305.834 238.541, 304.790 238.703, 303.268 238.503 C 301.746 238.302, 300.163 238.107, 299.750 238.069 C 299.337 238.031, 299 237.305, 299 236.456 C 299 235.607, 299.563 234.985, 300.250 235.075 C 302.947 235.425, 303.913 234.936, 303.362 233.500 C 303.045 232.675, 302.159 232, 301.393 232 C 300.627 232, 300 231.339, 300 230.531 C 300 229.715, 300.595 229.291, 301.340 229.577 C 302.077 229.860, 303.257 229.396, 303.962 228.546 C 305.294 226.941, 304.508 226.490, 301.170 226.944 C 300.438 227.043, 298.688 226.370, 297.281 225.449 C 294.723 223.773, 294.723 223.773, 295.267 226.617 C 295.773 229.264, 295.713 229.328, 294.405 227.540 C 293.632 226.483, 293 225.080, 293 224.423 C 293 223.766, 292.328 221.940, 291.506 220.364 L 290.012 217.500 290.006 220.809 C 290.003 222.736, 290.413 223.863, 290.989 223.507 C 291.555 223.157, 291.723 223.558, 291.382 224.448 C 291.054 225.302, 291.284 226, 291.893 226 C 293.804 226, 293.099 228.686, 290.750 230.351 C 288.633 231.851, 288.604 232.028, 290.250 233.333 C 292.130 234.824, 292.605 237, 291.050 237 C 290.527 237, 289.606 236.213, 289.002 235.250 C 288.077 233.775, 288.009 233.878, 288.568 235.901 C 289.108 237.859, 288.926 238.185, 287.578 237.668 C 286.576 237.284, 285.700 237.619, 285.355 238.517 C 284.490 240.771, 283.001 240.288, 282.993 237.750 C 282.990 236.512, 282.093 234.150, 281 232.500 C 279.907 230.850, 279.010 230.036, 279.007 230.691 C 279.003 231.346, 279.450 232.160, 280 232.500 C 281.524 233.442, 281.210 234.388, 278.895 235.833 C 277.738 236.556, 277.089 236.664, 277.454 236.074 C 277.819 235.483, 277.668 235, 277.118 235 C 276.568 235, 275.835 235.457, 275.490 236.016 C 275.144 236.575, 274.398 236.746, 273.831 236.396 C 273.178 235.992, 273.203 236.511, 273.900 237.814 C 275.821 241.403, 272.968 243.186, 269.837 240.352 C 268.054 238.739, 267.976 238.769, 268.231 240.968 C 268.379 242.239, 267.890 243.495, 267.145 243.758 C 266.165 244.104, 265.974 243.657, 266.455 242.140 C 266.977 240.497, 266.438 239.629, 263.959 238.122 C 260.985 236.313, 260.937 236.194, 263.149 236.115 C 271.159 235.828, 274.257 234.288, 271.472 231.977 C 270.662 231.305, 270 230.109, 270 229.319 C 270 228.528, 269.588 228.136, 269.085 228.447 C 267.296 229.553, 267.407 226.593, 269.223 224.777 C 271.128 222.872, 273.943 222.742, 275.235 224.500 C 275.639 225.050, 275.976 224.556, 275.985 223.403 C 276 221.240, 272.390 216.277, 271.469 217.197 C 271.185 217.482, 271.638 218.284, 272.476 218.980 C 274.793 220.903, 274.306 221.904, 271.250 221.501 C 269.738 221.301, 268.211 221.107, 267.857 221.069 C 267.503 221.031, 266.934 220.271, 266.592 219.379 C 266.100 218.097, 266.442 217.877, 268.235 218.328 L 270.500 218.896 268.146 216.954 C 266.851 215.885, 265.360 215.277, 264.833 215.603 C 264.305 215.929, 263.034 215.435, 262.007 214.506 C 260.236 212.903, 260.167 212.924, 260.686 214.908 C 261 216.108, 260.757 217, 260.117 217 C 259.502 217, 259 217.675, 259 218.500 C 259 219.325, 258.550 220, 258 220 C 257.450 220, 257 219.523, 257 218.941 C 257 218.359, 256.550 218.160, 256 218.500 C 255.450 218.840, 255 220.468, 255 222.118 C 255 223.863, 254.582 224.860, 254 224.500 C 253.450 224.160, 253 224.710, 253 225.722 C 253 226.848, 254.164 228.001, 256 228.694 C 259.184 229.896, 259.801 229.298, 257.750 226.998 C 256.687 225.806, 256.761 225.794, 258.250 226.921 C 260.273 228.452, 260.584 230.993, 258.750 231.015 C 257.976 231.025, 257.881 231.310, 258.500 231.765 C 259.712 232.656, 259.992 237, 258.837 237 C 257.375 237, 252.630 231.010, 252.480 228.976 C 252.278 226.240, 251.066 225.275, 250 227 C 249.510 227.793, 248.795 228.128, 248.412 227.745 C 248.029 227.362, 248.251 226.403, 248.906 225.613 C 249.653 224.713, 249.732 223.952, 249.118 223.573 C 248.579 223.240, 247.856 223.425, 247.510 223.984 C 246.568 225.509, 245 225.207, 245 223.500 C 245 222.675, 244.523 222, 243.941 222 C 243.359 222, 243.131 221.597, 243.435 221.105 C 243.740 220.612, 243.370 219.972, 242.613 219.682 C 240.360 218.817, 240.698 211.312, 243.018 210.706 C 244.647 210.280, 244.825 210.624, 244.309 213.205 C 243.737 216.064, 243.807 216.137, 245.867 214.851 C 247.053 214.110, 247.807 212.941, 247.543 212.252 C 247.279 211.563, 247.761 211, 248.615 211 C 250.935 211, 249.681 208.550, 247.172 208.180 C 244.877 207.843, 244.119 206.023, 246.250 205.967 C 248.134 205.917, 243.039 202, 241.089 202 C 237.273 202, 235.606 197.577, 239.015 196.495 C 240.123 196.144, 240.766 195.431, 240.445 194.912 C 240.124 194.392, 239.518 194.180, 239.098 194.440 C 238.677 194.699, 238.333 194.287, 238.333 193.523 C 238.333 192.594, 239.353 192.203, 241.417 192.341 C 245.389 192.607, 247 193.659, 247 195.986 C 247 197.014, 248.194 198.794, 249.653 199.941 C 252.427 202.123, 254.070 201.994, 252.200 199.741 C 251.534 198.939, 251.458 197.876, 252.003 196.994 C 252.927 195.500, 252.934 195.510, 254.418 200.369 C 255.839 205.019, 265.865 207.440, 265.210 202.976 C 264.757 199.890, 265.461 199.374, 267.966 200.958 C 268.899 201.548, 269.907 201.492, 270.734 200.805 C 271.450 200.211, 273.040 199.619, 274.268 199.490 C 277.922 199.106, 278 199.063, 278 197.441 C 278 196.584, 277.581 196.141, 277.069 196.457 C 276.557 196.774, 275.885 196.622, 275.575 196.121 C 275.265 195.620, 275.647 194.966, 276.423 194.668 C 277.746 194.160, 279.528 196.534, 279.144 198.293 C 279.049 198.729, 279.805 198.639, 280.824 198.094 C 282.886 196.991, 287 197.711, 287 199.176 C 287 199.694, 286.550 199.840, 286 199.500 C 284.869 198.801, 284.628 200.294, 285.698 201.365 C 286.082 201.749, 286.914 201.095, 287.547 199.912 C 288.563 198.013, 288.862 197.937, 290.099 199.261 C 291.059 200.288, 292.173 200.504, 293.639 199.947 C 295.417 199.271, 295.696 199.448, 295.291 200.997 C 294.988 202.156, 295.559 203.332, 296.802 204.108 C 297.960 204.832, 298.561 205.981, 298.230 206.842 C 297.869 207.784, 298.076 208.071, 298.794 207.628 C 300.087 206.828, 304 210.339, 304 212.300 C 304 213.015, 304.533 214.133, 305.183 214.783 C 306.852 216.452, 305.372 217.554, 303.524 216.020 C 302.684 215.323, 302 215.204, 302 215.756 C 302 216.306, 303.012 217.462, 304.250 218.326 C 306.103 219.618, 306.197 219.904, 304.781 219.948 C 303.674 219.981, 303.267 220.533, 303.638 221.500 C 303.955 222.325, 303.716 223, 303.107 223 C 302.498 223, 302 222.325, 302 221.500 C 302 218.949, 300.509 219.851, 300.356 222.494 C 300.276 223.876, 300.644 224.720, 301.180 224.389 C 302.700 223.450, 307 228.094, 307 230.674 C 307 233.778, 308.808 233.635, 310.025 230.435 C 311.384 226.860, 311.252 226, 309.345 226 C 307.857 226, 307.872 225.799, 309.500 224 C 310.495 222.900, 310.946 222, 310.502 222 C 310.058 222, 310.689 221.137, 311.906 220.081 C 314.351 217.961, 313.289 214.544, 309.845 213.451 C 308.932 213.161, 307.923 212.243, 307.604 211.410 C 307.274 210.550, 307.450 210.160, 308.011 210.507 C 308.555 210.843, 309 210.416, 309 209.559 C 309 208.702, 308.374 208, 307.608 208 C 306.843 208, 305.934 206.875, 305.589 205.500 C 304.916 202.819, 302 202.006, 302 204.500 C 302 205.325, 302.342 206, 302.759 206 C 303.177 206, 304.095 206.922, 304.798 208.048 C 306.040 210.037, 306.006 210.050, 303.623 208.488 C 300.021 206.128, 298.950 196.885, 302.056 194.966 C 302.764 194.528, 303.378 192.616, 303.421 190.715 C 303.479 188.163, 303.892 187.362, 305 187.647 C 305.825 187.859, 304.925 187.238, 303 186.266 C 296.993 183.235, 289.652 177.924, 280.657 170.102 C 277.824 167.638, 275.431 166.208, 275.216 166.852 C 275.006 167.483, 274.244 168, 273.524 168 C 271.867 168, 270.742 165.253, 272.200 164.767 C 275.927 163.524, 265.198 156, 259.699 156 C 257.716 156, 257.726 156.079, 260 158.500 C 262.384 161.037, 265 161.822, 265 160 C 265 158.376, 266.851 158.851, 269.036 161.036 C 272.208 164.208, 270.707 164.753, 262.802 163.300 C 258.786 162.562, 252.800 161.753, 249.500 161.501 C 246.200 161.250, 241.627 160.788, 239.339 160.474 C 236.891 160.139, 234.911 160.336, 234.530 160.952 C 234.173 161.528, 232.896 162.008, 231.691 162.017 C 229.769 162.032, 229.899 162.289, 232.750 164.115 C 236.444 166.481, 236.933 168, 234 168 C 232.900 168, 232.112 168.563, 232.250 169.250 C 232.403 170.013, 231.434 170.485, 229.761 170.461 C 227.957 170.436, 227.360 170.760, 228.011 171.411 C 229.520 172.920, 229.190 175, 227.441 175 C 226.584 175, 226.152 175.437, 226.483 175.972 C 226.813 176.506, 226.363 178.042, 225.483 179.385 L 223.884 181.826 232.903 181.663 C 241.544 181.507, 241.767 181.557, 238.212 182.845 C 236.170 183.585, 230.891 184.238, 226.480 184.295 C 210.245 184.508, 190.104 170.761, 201.257 167.080 C 205.344 165.732, 210.748 155.265, 209.022 152.042 C 208.206 150.516, 208.536 149.749, 210.757 148.016 C 212.563 146.606, 213.073 145.697, 212.250 145.354 C 211.563 145.068, 211 144.196, 211 143.417 C 211 142.637, 209.988 141.948, 208.750 141.884 C 207.057 141.797, 206.933 141.655, 208.250 141.311 C 209.241 141.052, 209.999 139.910, 209.999 138.677 C 209.998 136.635, 209.843 136.679, 207.502 139.402 C 205.771 141.415, 205.309 142.668, 205.995 143.494 C 206.538 144.148, 206.687 144.980, 206.325 145.342 C 204.909 146.758, 204.197 145.874, 204.641 143.250 C 204.897 141.738, 205.179 139.764, 205.267 138.864 C 205.362 137.904, 206.006 137.449, 206.827 137.764 C 207.929 138.187, 208.083 137.582, 207.552 134.900 C 207.072 132.476, 207.167 131.922, 207.885 132.971 C 208.438 133.780, 209.223 134.110, 209.629 133.704 C 210.035 133.299, 209.834 132.434, 209.183 131.783 C 208.532 131.133, 208.003 129.903, 208.006 129.050 C 208.010 128.197, 208.682 128.784, 209.501 130.354 C 210.320 131.924, 210.720 133.645, 210.390 134.178 C 210.060 134.712, 210.671 136.127, 211.746 137.324 C 212.822 138.521, 213.995 140.400, 214.353 141.500 C 214.920 143.242, 214.745 143.195, 213.002 141.139 C 210.772 138.509, 210.238 139.576, 212.344 142.455 C 213.271 143.724, 214.501 144.137, 216.313 143.791 C 217.758 143.515, 218.699 143.678, 218.405 144.153 C 218.112 144.628, 218.913 145.435, 220.186 145.945 L 222.500 146.873 220 147.037 C 218.079 147.163, 218.403 147.413, 221.401 148.116 C 225.559 149.092, 227.399 148.497, 224.971 146.961 C 223.818 146.232, 223.794 146.027, 224.857 146.015 C 225.603 146.007, 225.985 145.402, 225.704 144.671 C 225.424 143.940, 225.600 141.173, 226.095 138.521 C 226.691 135.331, 226.642 133.273, 225.949 132.439 C 225.263 131.612, 225.245 130.967, 225.897 130.563 C 226.444 130.225, 226.867 128.273, 226.837 126.224 C 226.807 124.176, 227.015 119.462, 227.300 115.750 C 227.590 111.985, 227.417 109, 226.909 109 C 226.409 109, 226 108.550, 226 108 C 226 107.450, 226.661 107, 227.469 107 C 228.426 107, 228.716 106.422, 228.301 105.341 C 227.760 103.932, 228.159 103.782, 230.957 104.341 C 232.768 104.704, 235.080 105, 236.094 105 C 237.214 105, 237.738 105.520, 237.428 106.327 C 237.097 107.189, 238.335 108.121, 240.965 108.988 C 245.516 110.490, 246.961 109.881, 244.893 107.332 C 243.700 105.862, 243.702 105.738, 244.908 106.464 C 246 107.123, 246.185 106.817, 245.735 105.095 C 245.141 102.825, 248.353 100.553, 250.420 101.781 C 250.936 102.088, 251.044 101.487, 250.667 100.414 C 250.018 98.564, 250.043 98.562, 251.431 100.350 C 252.221 101.368, 253.347 101.904, 253.933 101.541 C 255.779 100.401, 257.104 101.937, 256.021 103.961 C 255.264 105.375, 255.437 105.954, 256.768 106.467 C 258.397 107.095, 258.399 107.191, 256.792 108.094 C 255.836 108.630, 255.334 109.708, 255.653 110.539 C 255.967 111.357, 255.611 112.769, 254.862 113.679 C 253.640 115.162, 253.776 115.263, 256.182 114.664 C 258.884 113.991, 260.984 116.599, 259.576 118.878 C 256.835 123.312, 289.753 121.726, 292.908 117.271 C 293.234 116.811, 294.850 116.333, 296.500 116.208 C 312.728 114.979, 316.454 114.932, 320.969 115.900 C 325.391 116.848, 341.061 125.008, 338.437 124.996 C 337.922 124.993, 334.350 123.878, 330.500 122.517 C 321.334 119.276, 314.305 119.266, 306.500 122.481 C 303.200 123.840, 301.048 124.963, 301.719 124.976 C 302.389 124.989, 302.683 125.663, 302.372 126.473 C 301.797 127.972, 312.100 127.946, 319.226 126.431 C 323.280 125.569, 324.465 126.847, 321.659 129.054 C 319.199 130.989, 317 137.472, 317 142.790 C 317 144.387, 316.093 146.740, 314.984 148.018 C 313.876 149.296, 312.693 152.065, 312.357 154.171 C 312.020 156.277, 311.322 158, 310.805 158 C 310.288 158, 310.110 158.787, 310.410 159.750 C 310.709 160.713, 310.546 162.151, 310.047 162.946 C 309.501 163.816, 309.510 165.085, 310.070 166.131 C 311.738 169.247, 309.470 173.322, 306.850 171.919 C 304.911 170.882, 304.857 170.660, 306.340 169.830 C 308.684 168.518, 308.429 167.502, 304.939 164.240 C 300.337 159.940, 300.606 154.410, 305.500 152.679 C 307.255 152.058, 303.876 149, 301.437 149 C 300.161 149, 298.798 148.481, 298.406 147.848 C 297.887 147.008, 298.863 146.882, 301.999 147.384 C 305.565 147.954, 306.111 147.839, 305.176 146.712 C 304.382 145.755, 304.361 145.039, 305.107 144.293 C 305.853 143.547, 305.476 142.585, 303.833 141.043 C 302.527 139.817, 302.131 138.995, 302.933 139.176 C 306.446 139.970, 307.699 130.866, 304.258 129.546 C 301.978 128.670, 301.532 129.675, 303.381 131.524 C 305.695 133.838, 303.211 138.017, 300 137.213 C 295.740 136.145, 290.239 143.413, 294.198 144.878 L 296.467 145.717 294.234 146.426 C 293.005 146.816, 291.951 147.442, 291.890 147.817 C 291.830 148.193, 291.655 150.975, 291.501 154 C 291.129 161.290, 291.212 161, 289.500 161 C 279.742 161, 305.405 183.255, 321.315 188.589 C 328.352 190.949, 326.422 191.352, 316.381 189.619 C 306.312 187.881, 306.298 187.884, 308.994 190.993 C 311.364 193.725, 311.515 194.411, 309.583 193.670 C 308.803 193.371, 307.898 193.823, 307.571 194.674 C 307.158 195.753, 307.426 196.050, 308.457 195.655 C 309.270 195.343, 310.206 195.525, 310.537 196.060 C 311.401 197.458, 313.235 196.055, 312.624 194.463 C 311.686 192.019, 314.446 192.306, 315.733 194.787 C 317.361 197.925, 317.334 198.522, 315.625 197.104 C 314.520 196.187, 314.250 196.458, 314.250 198.481 C 314.250 199.867, 314.670 201, 315.184 201 C 315.698 201, 315.840 200.550, 315.500 200 C 315.160 199.450, 315.368 199, 315.962 199 C 316.557 199, 317.555 200.125, 318.182 201.500 C 318.808 202.875, 319.975 204, 320.775 204 C 321.575 204, 324.315 205.062, 326.865 206.359 C 336.829 211.431, 336.996 211.484, 339.048 210.202 C 341.545 208.643, 342.058 208.686, 341.400 210.399 C 341.105 211.168, 341.414 212.138, 342.086 212.553 C 342.840 213.019, 343.052 212.893, 342.638 212.224 C 342.269 211.627, 342.425 210.856, 342.984 210.510 C 343.543 210.165, 344 210.535, 344 211.334 C 344 212.133, 344.788 213.086, 345.750 213.452 C 347.153 213.986, 347.252 213.869, 346.250 212.859 C 344.185 210.779, 344.767 210.385, 350.031 210.306 C 354.520 210.238, 354.997 210.433, 354.463 212.115 C 354.015 213.530, 354.361 214, 355.851 214 C 356.943 214, 358.548 214.273, 359.418 214.607 C 360.288 214.941, 361 214.716, 361 214.107 C 361 213.498, 360.100 213, 359 213 C 357.900 213, 357 212.555, 357 212.011 C 357 210.012, 362.544 211.362, 364.783 213.906 C 366.510 215.870, 366.892 216.029, 366.354 214.563 C 365.762 212.950, 366.264 213.099, 369.348 215.452 C 371.387 217.007, 373.243 218.091, 373.473 217.861 C 373.702 217.631, 372.566 216.556, 370.948 215.471 C 367.644 213.258, 367.337 212.468, 369.463 211.652 C 370.815 211.134, 374.138 214.318, 375.357 217.300 C 375.710 218.164, 376.154 218.080, 376.943 217 C 377.897 215.693, 378.228 215.748, 379.509 217.427 C 380.318 218.487, 381.172 219.161, 381.408 218.925 C 382.132 218.202, 379.637 215.530, 377 214.206 C 374.553 212.977, 374.569 212.961, 377.750 213.450 C 381.357 214.005, 382.076 212.646, 379.037 211.020 C 377.945 210.435, 377.314 209.345, 377.615 208.561 C 377.925 207.754, 377.228 206.657, 375.982 205.990 L 373.808 204.827 375.904 202.875 C 378.331 200.614, 378.614 199.550, 376.583 200.330 C 375.803 200.629, 374.928 200.255, 374.638 199.499 C 374.310 198.643, 374.909 198.007, 376.227 197.812 C 377.391 197.641, 378.529 196.937, 378.755 196.249 C 378.988 195.544, 378.586 195.205, 377.834 195.471 C 376.121 196.078, 372.015 192.953, 373.694 192.321 C 374.943 191.850, 374.356 189, 373.010 189 C 372.583 189, 371.986 189.945, 371.684 191.101 C 371.365 192.319, 370.666 192.912, 370.019 192.512 C 369.272 192.050, 369.231 191.427, 369.894 190.627 C 371.249 188.995, 370.035 187.345, 366.480 185.988 C 363.677 184.918, 363.610 184.770, 365.350 183.492 C 367.710 181.759, 366.528 179.709, 363.666 180.572 C 361.901 181.104, 361.731 180.982, 362.750 179.912 C 363.438 179.191, 364 177.792, 364 176.805 C 364 175.302, 364.591 175.105, 367.639 175.589 C 370.749 176.083, 371.185 175.925, 370.639 174.502 C 370.288 173.586, 370 172.437, 370 171.950 C 370 171.462, 369.212 171.308, 368.250 171.607 C 366.593 172.122, 366.594 172.091, 368.257 171.022 C 369.607 170.154, 369.781 169.458, 369.007 168.012 C 366.451 163.237, 368.453 159.924, 372.024 163.021 C 374.697 165.339, 374.546 165.313, 377.186 163.900 C 378.681 163.101, 379.056 163.101, 378.562 163.900 C 378.188 164.505, 378.359 165, 378.941 165 C 379.523 165, 380 164.325, 380 163.500 C 380 162.675, 379.325 162, 378.500 162 C 377.675 162, 377 161.535, 377 160.966 C 377 159.860, 381.454 160.120, 382.629 161.296 C 384.229 162.896, 385.705 161.907, 385.252 159.538 C 384.965 158.037, 385.438 156.419, 386.465 155.393 C 387.821 154.036, 387.891 153.546, 386.824 152.870 C 385.814 152.229, 385.908 152.027, 387.224 152.015 C 388.173 152.007, 389.647 150.650, 390.500 149 L 392.051 146 389.085 146 C 387.453 146, 385.865 146.410, 385.555 146.911 C 385.077 147.685, 384.071 147.714, 381 147.044 C 380.725 146.984, 382.871 146.116, 385.770 145.114 C 392.435 142.812, 392.480 142.747, 392.083 136 C 391.947 133.682, 391.838 133.630, 390.585 135.281 C 389.354 136.905, 389.176 136.750, 388.572 133.531 C 387.936 130.141, 385.841 128.831, 384.507 130.989 C 384.148 131.570, 384.583 131.714, 385.563 131.337 C 386.906 130.822, 387.098 131.117, 386.548 132.849 C 386.096 134.273, 386.291 135, 387.124 135 C 387.825 135, 387.523 135.650, 386.441 136.468 C 383.794 138.470, 383.328 138.364, 383.421 135.779 C 383.482 134.062, 382.932 133.551, 381 133.529 C 379.618 133.513, 378.190 132.747, 377.806 131.815 C 377.425 130.889, 376.075 129.578, 374.806 128.902 C 372.710 127.784, 372.625 127.824, 373.872 129.336 C 375.079 130.799, 374.981 131, 373.063 131 C 371.864 131, 371.160 130.550, 371.500 130 C 371.840 129.450, 371.304 128.993, 370.309 128.985 C 368.991 128.974, 368.849 128.748, 369.784 128.155 C 370.552 127.667, 370.785 126.603, 370.364 125.506 C 369.823 124.095, 369.988 123.870, 371.080 124.528 C 372.267 125.244, 372.287 125.121, 371.201 123.781 C 369.833 122.092, 370.499 121.260, 373 121.532 C 373.825 121.622, 375.438 121.764, 376.583 121.848 C 377.729 121.931, 378.667 122.675, 378.667 123.500 C 378.667 125.429, 378.089 125.390, 375.786 123.306 C 374.026 121.714, 373.953 121.714, 374.567 123.315 C 375.280 125.173, 379.666 126.700, 380.797 125.483 C 381.183 125.067, 380.963 124.534, 380.306 124.298 C 379.650 124.063, 379.360 123.225, 379.663 122.435 C 379.966 121.646, 379.730 121, 379.138 121 C 378.547 121, 378.293 120.400, 378.574 119.667 C 378.951 118.684, 378.220 118.425, 375.793 118.682 C 372.977 118.980, 372.817 118.891, 374.685 118.071 C 377.044 117.036, 379.314 113.647, 378.316 112.650 C 377.628 111.961, 372.913 112.888, 371.735 113.944 C 370.116 115.396, 362.493 113.538, 362.639 111.728 C 362.726 110.642, 362.064 110, 360.858 110 C 359.801 110, 358.678 109.325, 358.362 108.500 C 357.722 106.833, 355 106.428, 355 108 C 355 108.550, 355.482 109, 356.071 109 C 357.735 109, 360.200 111.867, 359.505 112.992 C 359.162 113.547, 359.376 114, 359.980 114 C 360.687 114, 360.619 114.499, 359.789 115.400 C 358.888 116.379, 358.124 116.492, 357.250 115.777 C 356.361 115.050, 355.996 115.151, 355.985 116.128 C 355.973 117.206, 355.761 117.178, 355 116 C 353.405 113.532, 353.791 111.706, 355.750 112.455 C 357.045 112.950, 356.916 112.578, 355.250 111.023 C 351.913 107.907, 355.037 104.051, 358.943 106.465 C 359.524 106.824, 360 106.641, 360 106.059 C 360 105.477, 359.298 105, 358.441 105 C 357.573 105, 357.180 104.518, 357.554 103.913 C 357.923 103.315, 359.101 103.055, 360.170 103.334 C 361.389 103.653, 361.957 103.406, 361.692 102.671 C 361.460 102.027, 361.679 100.706, 362.178 99.735 C 362.834 98.462, 362.657 97.805, 361.543 97.378 C 358.980 96.395, 359.789 94.730, 362.500 95.411 C 363.942 95.772, 365 95.607, 365 95.019 C 365 93.990, 363.343 93.528, 361.500 94.042 C 358.925 94.761, 351 94.768, 351 94.051 C 351 93.608, 351.681 92.680, 352.512 91.990 C 353.558 91.122, 353.715 90.362, 353.021 89.525 C 352.469 88.860, 352.338 87.995, 352.730 87.604 C 353.730 86.603, 350.970 85.074, 349.311 85.711 C 348.156 86.154, 348.159 86.414, 349.331 87.368 C 351.166 88.863, 352.140 91.796, 351.028 92.482 C 350.542 92.783, 349.856 92.123, 349.505 91.015 C 349.153 89.907, 348.221 89, 347.433 89 C 346.119 89, 345.487 86.510, 345.948 83.150 C 346.050 82.407, 345.654 82.096, 345.067 82.459 C 344.480 82.821, 343.968 83.879, 343.930 84.809 C 343.873 86.176, 343.704 86.117, 343.049 84.500 C 342.532 83.224, 342.713 81.957, 343.548 81 C 344.268 80.175, 344.914 79.050, 344.983 78.500 C 345.052 77.950, 346.304 77.598, 347.766 77.717 C 349.227 77.837, 350.812 77.387, 351.287 76.717 C 352.131 75.530, 352.707 76.087, 353.325 78.687 C 353.752 80.483, 357.633 83.564, 358.924 83.130 C 359.874 82.812, 360.153 83.158, 359.765 84.171 C 359.355 85.239, 360.461 86.311, 363.492 87.784 C 366.707 89.346, 368.766 91.440, 371.597 96.025 C 375.253 101.949, 375.521 102.157, 378.946 101.729 C 381.233 101.444, 383.885 101.980, 386.386 103.232 C 390.396 105.241, 392.488 104.436, 391.300 101.341 C 390.993 100.538, 391.480 100, 392.515 100 C 394.001 100, 394.054 99.770, 392.892 98.370 C 391.671 96.898, 391.877 96.812, 395.020 97.487 C 399.414 98.430, 399.254 98.244, 399.991 103.269 C 400.332 105.596, 400.501 94.675, 400.366 79 C 400.231 63.325, 400.093 39.131, 400.060 25.236 L 400 -0.028 368.750 0.236 L 337.500 0.500 336.543 3.750 C 336.017 5.538, 335.177 7, 334.677 7 C 333.785 7, 334.059 5.233, 335.494 1.750 C 336.069 0.353, 335.701 -0, 333.669 -0 C 331.741 -0, 331.161 0.484, 331.275 2 C 331.358 3.100, 331.780 4, 332.213 4 C 332.646 4, 333 4.900, 333 6 C 333 8, 331.111 8.889, 330.875 7 C 330.806 6.450, 330.637 5.550, 330.500 5 C 330.363 4.450, 330.194 3.100, 330.125 2 C 330.056 0.900, 329.351 0, 328.557 0 C 327.624 0, 327.260 0.751, 327.524 2.127 C 327.750 3.296, 328.039 6.034, 328.167 8.211 C 328.387 11.939, 328.564 12.144, 331.213 11.755 C 333.958 11.352, 334.514 14.817, 331.868 15.833 C 331.391 16.017, 331 16.804, 331 17.583 C 331 18.363, 330.369 19, 329.598 19 C 328.827 19, 327.629 20.462, 326.937 22.250 C 325.810 25.161, 325.636 25.269, 325.274 23.282 C 324.929 21.390, 324.595 21.236, 323 22.232 C 321.704 23.042, 321.276 24.182, 321.606 25.950 C 321.935 27.716, 321.297 29.422, 319.529 31.500 L 316.976 34.500 317.596 31.750 C 318.342 28.444, 316.874 28.092, 315.487 31.244 C 314.251 34.054, 310.675 35.064, 311.666 32.323 C 312.029 31.320, 313.114 29.359, 314.078 27.964 C 315.693 25.629, 315.700 25.418, 314.166 25.289 C 313.249 25.212, 311.600 25.003, 310.500 24.824 C 308.797 24.548, 308.523 25.020, 308.652 28 C 308.735 29.925, 308.587 30.941, 308.321 30.258 C 307.784 28.876, 305.275 29.867, 302.642 32.501 C 301.704 33.439, 300.891 33.632, 300.505 33.008 C 300.162 32.453, 300.359 32, 300.941 32 C 301.523 32, 301.984 30.313, 301.965 28.250 C 301.932 24.776, 301.840 24.660, 300.715 26.673 C 299.638 28.600, 299.285 28.689, 297.603 27.455 C 296.559 26.690, 295.251 26.345, 294.695 26.688 C 294.083 27.067, 293.899 26.494, 294.228 25.236 C 294.650 23.621, 294.363 23.237, 292.939 23.512 C 291.708 23.749, 290.702 22.947, 289.869 21.066 C 288.639 18.286, 288.616 18.280, 286.565 20.198 C 284.795 21.854, 284.454 21.906, 284.177 20.565 C 283.999 19.704, 283.099 19.036, 282.177 19.079 C 281.255 19.122, 281.015 19.369, 281.644 19.627 C 283.194 20.263, 282.117 24, 280.383 24 C 279.623 24, 278.993 24.563, 278.985 25.250 C 278.974 26.155, 278.729 26.120, 278.096 25.122 C 277.616 24.364, 276.723 24.053, 276.112 24.431 C 275.500 24.809, 275 24.641, 275 24.059 C 275 23.477, 274.612 23, 274.139 23 C 273.665 23, 273.486 24.093, 273.742 25.429 C 274.068 27.134, 274.672 27.680, 275.767 27.259 C 276.796 26.864, 277.082 27.059, 276.605 27.830 C 276.207 28.474, 275.276 29, 274.535 29 C 273.630 29, 273.380 29.739, 273.774 31.250 C 274.341 33.420, 274.298 33.436, 272.552 31.692 C 271.557 30.698, 270.102 30.131, 269.319 30.431 C 268.536 30.731, 268.150 30.566, 268.460 30.064 C 268.771 29.562, 268.231 28.987, 267.262 28.787 C 264.278 28.170, 261 29.159, 261 30.676 C 261 31.504, 261.487 31.817, 262.145 31.410 C 262.935 30.922, 263.133 31.523, 262.784 33.351 C 262.505 34.808, 262.691 36, 263.198 36 C 263.704 36, 263.819 36.484, 263.454 37.075 C 263.026 37.766, 261.968 37.379, 260.491 35.992 C 258.295 33.928, 258.146 33.914, 257.127 35.666 C 256.316 37.061, 256.050 37.141, 256.015 36 C 255.975 34.687, 255.853 34.683, 255.039 35.971 C 254.527 36.780, 253.810 37.144, 253.445 36.779 C 253.080 36.414, 253.780 34.713, 255 33 C 257.276 29.804, 257.292 27.738, 255.020 30.476 C 254.324 31.314, 253.023 31.968, 252.128 31.930 C 250.875 31.876, 250.961 31.661, 252.500 31 C 253.600 30.527, 253.952 30.109, 253.281 30.070 C 252.546 30.028, 252.325 29.316, 252.725 28.275 C 253.263 26.871, 252.864 26.962, 250.576 28.762 C 247.519 31.167, 245.804 30.934, 246.575 28.218 C 246.843 27.273, 246.529 27.512, 245.878 28.750 C 245.227 29.987, 243.751 31.006, 242.597 31.014 C 241.444 31.021, 239.375 31.285, 238 31.600 C 236.025 32.053, 235.815 31.945, 237 31.087 C 238.259 30.175, 238.279 29.857, 237.122 29.112 C 236.364 28.623, 236.033 27.756, 236.386 27.184 C 236.740 26.612, 236.123 25.856, 235.015 25.505 C 231.977 24.540, 232.366 21.624, 235.430 22.393 C 237.415 22.891, 237.919 22.590, 238.180 20.752 C 238.404 19.177, 239.102 18.566, 240.500 18.721 C 241.600 18.842, 241.938 18.692, 241.250 18.388 C 239.513 17.618, 239.683 16, 241.500 16 C 242.325 16, 242.993 15.213, 242.985 14.250 C 242.974 13.065, 242.724 12.887, 242.208 13.697 C 241.790 14.356, 240.902 14.557, 240.236 14.146 C 238.915 13.329, 240.672 7, 242.219 7 C 242.649 7, 243 6.523, 243 5.941 C 243 5.359, 242.582 5.140, 242.072 5.456 C 241.562 5.771, 240.856 5.123, 240.505 4.015 C 240.098 2.732, 238.993 2, 237.464 2 C 235.737 2, 235.225 2.422, 235.640 3.505 C 236.041 4.549, 235.121 5.469, 232.641 6.505 C 227.804 8.526, 227.712 8.442, 231.077 5.077 C 232.685 3.469, 234 1.669, 234 1.077 C 234 -0.508, 221.292 -0.343, 220.708 1.250 C 220.342 2.250, 219.985 2.250, 218.925 1.250 C 217.931 0.313, 210.834 0.004, 190.550 0.015 C 172.716 0.025, 164.011 0.361, 165 1 C 165.901 1.582, 166.025 1.975, 165.309 1.985 C 164.654 1.993, 163.840 1.550, 163.500 1 C 162.689 -0.313, 151.302 -0.298, 150.490 1.016 C 150.144 1.575, 149.341 1.711, 148.704 1.317 C 147.021 0.277, 139.723 -0.266, 140.279 0.690 C 141.485 2.765, 139.198 5.454, 136.095 5.610 C 133.863 5.723, 133.022 5.384, 133.359 4.508 C 133.625 3.813, 133.355 2.755, 132.758 2.158 C 131.308 0.708, 126.961 5.678, 127.736 7.900 C 128.172 9.151, 128.017 9.244, 127.025 8.328 C 126.327 7.684, 125.136 7.394, 124.378 7.685 C 122.545 8.388, 122.620 6.523, 124.500 4.643 C 126.510 2.633, 126.390 2, 124 2 C 122.900 2, 122 1.586, 122 1.080 C 122 0.575, 118.192 0.133, 113.538 0.099 C 106.430 0.047, 105.168 0.275, 105.650 1.530 M 372.500 8 C 372.160 8.550, 372.835 9, 374 9 C 375.165 9, 375.840 9.450, 375.500 10 C 375.160 10.550, 373.532 11, 371.882 11 C 370.160 11, 369.142 11.421, 369.493 11.989 C 369.829 12.532, 369.478 12.737, 368.712 12.443 C 367.947 12.149, 366.743 12.604, 366.038 13.454 C 364.544 15.254, 361.868 15.468, 360.313 13.913 C 359.530 13.130, 359.038 13.130, 358.554 13.913 C 357.342 15.874, 353.826 15.054, 350.347 12 C 345.995 8.179, 345.825 8.202, 342.447 13.076 C 340.894 15.318, 337.908 18.027, 335.811 19.096 C 333.715 20.166, 332.014 21.369, 332.032 21.770 C 332.108 23.528, 334.896 26, 336.801 26 C 337.946 26, 339.153 26.438, 339.483 26.973 C 339.814 27.509, 341.612 28.671, 343.479 29.557 C 345.664 30.594, 346.679 31.672, 346.329 32.584 C 345.968 33.525, 346.482 34, 347.862 34 C 349.090 34, 349.758 34.510, 349.497 35.250 C 348.850 37.085, 351.638 40.342, 353.088 39.446 C 353.848 38.976, 354.052 39.108, 353.627 39.795 C 353.251 40.403, 353.827 41.372, 354.906 41.950 C 357.777 43.486, 358.011 43.304, 357.359 40.045 C 356.956 38.028, 357.281 36.576, 358.384 35.473 C 359.872 33.985, 360 34.061, 360 36.429 C 360 38.001, 360.560 39, 361.441 39 C 363.551 39, 364.354 37.131, 362.964 35.456 C 361.990 34.283, 362.070 34, 363.378 34 C 364.441 34, 365 34.861, 365 36.500 C 365 39.974, 368.233 42.854, 372.986 43.614 C 376.655 44.200, 378.702 45.979, 375.750 46.015 C 374.976 46.025, 374.881 46.310, 375.500 46.765 C 376.050 47.169, 376.647 48.847, 376.826 50.493 C 377.005 52.138, 377.287 53.621, 377.453 53.787 C 378.364 54.698, 382.965 54.866, 383.495 54.008 C 383.838 53.454, 385.006 53, 386.090 53 C 387.175 53, 388.315 52.342, 388.624 51.538 C 388.932 50.734, 390.043 49.804, 391.092 49.471 C 393.620 48.669, 393.498 47.197, 390.546 42.853 C 389.196 40.867, 388.371 38.962, 388.713 38.621 C 389.054 38.279, 388.760 38, 388.060 38 C 387.338 38, 387.036 37.349, 387.362 36.500 C 387.678 35.675, 387.532 35, 387.036 35 C 386.540 35, 385.849 34.100, 385.500 33 C 385.059 31.611, 383.987 31, 381.992 31 C 378.737 31, 377.070 29.294, 379.437 28.386 C 381.051 27.767, 381.452 25.341, 380.395 22.588 C 380.063 21.721, 379.388 21.260, 378.895 21.565 C 378.403 21.869, 378 21.641, 378 21.059 C 378 20.111, 380.213 19.600, 383.750 19.731 C 384.438 19.757, 385 19.032, 385 18.121 C 385 17.209, 386.106 15.792, 387.458 14.972 C 390.864 12.905, 389.332 10.945, 384.014 10.567 C 381.335 10.376, 379.383 9.649, 378.813 8.631 C 377.812 6.841, 373.483 6.409, 372.500 8 M 328.382 39.191 C 327.977 39.846, 328.176 40.559, 328.823 40.774 C 330.377 41.292, 330.264 43.067, 328.531 45.355 C 327.239 47.060, 327.140 46.940, 327.313 43.872 C 327.457 41.305, 327.062 40.447, 325.607 40.165 C 324.112 39.875, 323.829 40.240, 324.263 41.898 C 324.963 44.576, 323.618 45.449, 321.928 43.413 C 320.855 42.121, 320.879 41.689, 322.064 40.939 C 322.854 40.439, 323.103 40.024, 322.618 40.015 C 321.324 39.993, 315 44.040, 315 44.890 C 315 45.290, 315.681 46.491, 316.514 47.559 C 317.958 49.410, 318.016 49.366, 317.764 46.605 C 317.400 42.615, 319.158 42.370, 321.867 46.034 C 324.079 49.026, 324.083 49.069, 322.012 47.800 C 320.189 46.684, 319.748 46.748, 318.895 48.250 C 317.847 50.095, 313 50.711, 313 49 C 313 48.450, 312.010 48, 310.800 48 C 309.089 48, 308.867 48.267, 309.800 49.200 C 311.283 50.683, 311.381 54, 309.941 54 C 309.359 54, 309.141 53.581, 309.457 53.069 C 309.774 52.557, 309.628 51.888, 309.134 51.583 C 308.030 50.900, 302.801 54.869, 303.441 55.904 C 303.694 56.313, 302.970 56.615, 301.833 56.574 C 300.586 56.529, 299.439 57.362, 298.943 58.672 C 298.164 60.734, 298.343 60.821, 302.483 60.365 C 306.934 59.876, 311 61.911, 311 64.629 C 311 65.320, 311.832 65.595, 313 65.290 C 314.368 64.932, 315 65.259, 315 66.324 C 315 67.181, 315.445 68.157, 315.989 68.493 C 316.555 68.843, 316.723 68.442, 316.382 67.552 C 316.006 66.574, 316.341 66, 317.286 66 C 318.111 66, 319.049 66.685, 319.370 67.523 C 319.857 68.791, 320.293 68.834, 321.977 67.782 C 324.712 66.074, 324.523 64.483, 321.202 61.236 C 319.663 59.731, 319.354 59.288, 320.516 60.250 C 323.108 62.396, 324.406 62.500, 323.638 60.500 C 322.905 58.589, 324.419 58.562, 326.310 60.452 C 327.108 61.251, 328.113 61.589, 328.541 61.202 C 328.970 60.816, 328.966 61.113, 328.532 61.862 C 328.081 62.641, 328.241 63.531, 328.906 63.942 C 330.777 65.098, 329.008 68.119, 326.652 67.792 C 325.250 67.597, 324.425 68.127, 324.176 69.383 C 323.871 70.918, 324.237 71.157, 326.151 70.678 C 328.117 70.185, 328.524 70.489, 328.644 72.544 C 328.735 74.098, 328.251 75, 327.327 75 C 326.276 75, 326.056 75.633, 326.545 77.250 C 327.520 80.478, 328.352 81.115, 331.715 81.211 C 334.418 81.288, 338.624 85, 336.008 85 C 335.454 85, 335 85.705, 335 86.567 C 335 88.198, 338.432 87.773, 340.445 85.893 C 341.911 84.523, 339.794 79.706, 337.145 78.385 C 335.730 77.679, 335.248 76.965, 335.912 76.555 C 337.755 75.415, 337.187 72, 335.155 72 C 334.140 72, 332.478 71.081, 331.461 69.957 C 329.841 68.166, 329.821 67.994, 331.306 68.564 C 332.602 69.061, 333.002 68.660, 333.009 66.857 C 333.014 65.561, 334.125 62.250, 335.478 59.500 C 338.639 53.073, 338.603 51.346, 335.193 45.946 C 333.649 43.501, 332.088 40.712, 331.724 39.750 C 330.959 37.727, 329.444 37.473, 328.382 39.191 M 18.490 53.016 C 18.144 53.575, 17.443 53.774, 16.931 53.457 C 16.419 53.141, 15.986 53.921, 15.968 55.191 C 15.939 57.324, 15.835 57.366, 14.608 55.750 C 12.275 52.676, 9.918 53.742, 11.949 56.952 C 12.597 57.975, 12.296 58.805, 10.932 59.760 C 8.765 61.278, 7 60.654, 7 58.370 C 7 57.025, 6.833 57.024, 5.500 58.357 C 3.593 60.264, 3.593 61.630, 5.500 62.362 C 6.325 62.678, 7 64.058, 7 65.428 C 7 72.691, 13.888 77.563, 18.750 73.738 C 20.378 72.458, 20.503 77.097, 18.884 78.716 C 18.270 79.330, 17.247 80.878, 16.609 82.157 C 15.312 84.758, 12 85.913, 12 83.764 C 12 83.004, 11.438 81.728, 10.750 80.929 C 10.063 80.130, 9.609 79.665, 9.741 79.896 C 9.874 80.127, 9.424 80.993, 8.741 81.821 C 7.752 83.019, 7.754 83.411, 8.750 83.746 C 10.632 84.380, 10.251 86.978, 8.250 87.152 C 7.287 87.236, 6.050 87.409, 5.500 87.537 C 4.950 87.665, 3.712 87.821, 2.750 87.885 C 0.639 88.024, 0.188 97.788, 2.200 99.800 C 3.133 100.733, 3.133 101, 2.200 101 C 1.495 101, 1 102.444, 1 104.500 C 1 107.518, 1.327 108, 3.375 108 C 4.681 108, 7.269 108.257, 9.125 108.572 C 12.320 109.113, 12.396 109.059, 10.559 107.572 C 8.747 106.105, 8.738 106, 10.426 106 C 11.759 106, 12.092 105.459, 11.694 103.939 C 11.339 102.579, 11.724 101.662, 12.828 101.245 C 15.054 100.402, 17.455 98, 16.071 98 C 15.482 98, 15 97.325, 15 96.500 C 15 95.675, 15.429 95, 15.953 95 C 18.037 95, 22 97.399, 22 98.661 C 22 99.397, 22.727 100, 23.617 100 C 24.747 100, 25.074 99.392, 24.704 97.976 C 24.314 96.486, 24.613 96.025, 25.837 96.226 C 26.830 96.390, 27.378 95.933, 27.197 95.092 C 27.031 94.317, 27.481 93.311, 28.197 92.857 C 29.102 92.283, 28.797 92.026, 27.196 92.015 C 25.928 92.007, 23.453 90.652, 21.696 89.005 C 19.938 87.357, 17.825 85.987, 17 85.960 C 16.175 85.932, 16.850 85.326, 18.500 84.613 C 20.150 83.899, 21.642 83.669, 21.815 84.101 C 21.988 84.534, 22.775 84.640, 23.565 84.337 C 24.354 84.034, 25 84.284, 25 84.893 C 25 85.502, 25.927 86, 27.059 86 C 28.191 86, 28.861 85.584, 28.547 85.076 C 28.233 84.567, 28.769 83.987, 29.738 83.785 C 31.182 83.485, 31.094 83.308, 29.249 82.803 C 28 82.461, 27.247 82.590, 27.558 83.093 C 28.577 84.743, 25.858 84.035, 22.793 81.852 C 19.047 79.185, 21.834 76.819, 28.750 76.796 C 29.988 76.792, 31 76.386, 31 75.894 C 31 74.434, 36.654 74.878, 37.951 76.441 C 39.303 78.070, 42 77.448, 42 75.507 C 42 74.300, 37.726 72.971, 33.664 72.914 C 32.480 72.898, 32.025 72.376, 32.383 71.444 C 32.688 70.650, 32.501 70, 31.969 70 C 31.436 70, 31 69.523, 31 68.941 C 31 68.359, 31.563 68.220, 32.250 68.633 C 33.141 69.168, 33.117 68.911, 32.164 67.736 C 31.429 66.829, 31.080 65.680, 31.388 65.181 C 31.696 64.682, 31.451 61.451, 30.843 57.999 C 29.741 51.742, 29.733 51.732, 28.178 54.296 C 26.271 57.438, 22.430 58.934, 24.053 55.902 C 24.891 54.335, 24.727 54, 23.119 54 C 22.045 54, 20.966 54.563, 20.720 55.250 C 20.475 55.938, 19.923 56.173, 19.494 55.774 C 19.066 55.375, 19.284 54.362, 19.980 53.524 C 20.769 52.574, 20.845 52, 20.181 52 C 19.597 52, 18.835 52.457, 18.490 53.016 M 111.500 53.783 C 109.388 55.596, 108.169 65, 110.047 65 C 111.820 65, 111.015 68.763, 109.136 69.254 C 107.499 69.682, 107.308 69.212, 107.565 65.371 C 107.726 62.967, 107.439 61, 106.929 61 C 106.418 61, 106 61.649, 106 62.443 C 106 64.079, 101.732 63.697, 101.170 62.010 C 100.649 60.446, 99 60.819, 99 62.500 C 99 63.325, 99.675 64, 100.500 64 C 101.325 64, 102.048 64.787, 102.106 65.750 C 102.165 66.713, 102.277 68.346, 102.356 69.381 C 102.570 72.174, 106.533 73.321, 108.665 71.207 C 110.290 69.597, 110.350 69.600, 109.725 71.250 C 109.361 72.213, 109.499 73, 110.031 73 C 110.564 73, 111 73.675, 111 74.500 C 111 75.325, 111.450 76, 112 76 C 112.550 76, 113 75.481, 113 74.847 C 113 74.213, 113.900 74.732, 115 76 C 116.308 77.508, 117.011 77.820, 117.032 76.903 C 117.055 75.864, 117.408 75.954, 118.392 77.250 C 119.123 78.213, 120.142 79, 120.657 79 C 121.172 79, 122.698 80.331, 124.047 81.958 C 126.789 85.264, 128.583 85.630, 131.441 83.468 C 132.509 82.661, 134.196 82, 135.191 82 C 137.301 82, 137.546 80.698, 135.720 79.183 C 134.852 78.462, 134.485 75.547, 134.580 70.114 C 134.683 64.186, 134.366 61.971, 133.360 61.584 C 132.612 61.298, 132 61.499, 132 62.031 C 132 62.564, 131.325 63, 130.500 63 C 129.675 63, 129 62.550, 129 62 C 129 61.450, 129.477 61, 130.059 61 C 130.641 61, 130.843 60.554, 130.506 60.010 C 130.121 59.387, 129.396 59.479, 128.548 60.260 C 127.808 60.942, 127.354 61.660, 127.541 61.857 C 127.727 62.053, 127.347 62.784, 126.695 63.481 C 125.404 64.863, 122.665 64.350, 123.565 62.895 C 123.869 62.403, 123.714 62, 123.220 62 C 122.725 62, 121.797 60.850, 121.156 59.444 C 120.516 58.038, 119.585 57.138, 119.089 57.445 C 118.593 57.752, 118.411 57.144, 118.686 56.095 C 119.102 54.503, 118.690 54.221, 116.200 54.393 C 114.107 54.538, 113.365 54.212, 113.715 53.300 C 114.366 51.604, 113.928 51.699, 111.500 53.783 M 228.205 211.694 C 226.136 214.265, 226.586 218, 228.964 218 C 230.123 218, 233 220.880, 233 222.040 C 233 222.533, 232.285 222.663, 231.412 222.328 C 230.188 221.858, 229.902 222.267, 230.162 224.109 C 230.389 225.714, 231.153 226.501, 232.487 226.502 C 233.582 226.503, 234.624 227.288, 234.810 228.252 C 235.283 230.707, 231.820 230.526, 230 228 C 227.948 225.152, 226.256 225.527, 226.353 228.808 C 226.400 230.418, 225.489 232.632, 224.218 233.997 C 222.492 235.849, 222 236.019, 222 234.762 C 222 233.874, 221.213 232.941, 220.250 232.689 C 219.287 232.438, 219.963 232.180, 221.750 232.116 C 225.716 231.974, 226.432 229, 222.500 229 C 221.125 229, 220 229.450, 220 230 C 220 230.550, 219.550 231, 219 231 C 218.450 231, 218 230.352, 218 229.559 C 218 228.766, 217.555 227.843, 217.011 227.507 C 216.430 227.148, 216.286 227.583, 216.663 228.563 C 217.190 229.937, 216.888 230.099, 214.948 229.483 C 212.730 228.780, 212.692 228.835, 214.297 230.439 C 216.469 232.612, 216.455 233.895, 214.250 234.708 C 213.287 235.064, 212.120 235.837, 211.656 236.427 C 211.147 237.073, 211.035 236.804, 211.374 235.751 C 211.683 234.789, 211.545 232.989, 211.066 231.751 L 210.196 229.500 209.093 232 C 208.062 234.338, 208.028 234.289, 208.575 231.250 C 209.088 228.396, 208.893 228, 206.971 228 C 205.162 228, 204.887 227.585, 205.384 225.604 C 205.788 223.998, 205.504 223.024, 204.525 222.648 C 202.896 222.023, 201.567 223.490, 202.457 224.931 C 202.774 225.443, 202.575 226.144, 202.016 226.490 C 200.535 227.405, 200.754 228.411, 203 231 C 204.100 232.268, 205 233.687, 205 234.153 C 205 235.619, 203.140 235.073, 202.159 233.319 C 201.289 231.765, 201.079 231.779, 199.359 233.513 C 197.680 235.207, 197.669 235.324, 199.250 234.725 C 200.580 234.222, 201.019 234.596, 201.079 236.281 C 201.122 237.502, 201.385 237.938, 201.662 237.250 C 202.629 234.855, 204.033 236.019, 203.369 238.664 C 202.833 240.803, 203.003 241.213, 204.236 240.740 C 205.686 240.183, 209.237 243.253, 210.119 245.825 C 210.363 246.536, 211.025 246.610, 211.960 246.029 C 213.217 245.248, 213.179 244.856, 211.686 243.206 C 209.539 240.833, 210.452 238.023, 213.350 238.085 C 214.532 238.110, 216.400 237.989, 217.500 237.815 C 218.930 237.590, 219.590 238.137, 219.818 239.738 C 220.096 241.698, 219.755 241.932, 217.082 241.621 C 213.986 241.261, 213.444 244.518, 216.115 247.436 C 216.605 247.971, 216.269 249.150, 215.331 250.186 C 213.809 251.868, 213.810 252, 215.345 252 C 216.349 252, 217 252.810, 217 254.059 C 217 255.191, 217.419 255.859, 217.931 255.543 C 218.443 255.226, 219.125 255.394, 219.447 255.915 C 219.769 256.435, 221.143 256.660, 222.500 256.414 C 224.043 256.134, 225.658 256.658, 226.813 257.813 C 227.876 258.876, 230.321 259.742, 232.579 259.855 C 234.736 259.963, 237.400 260.152, 238.500 260.276 C 239.912 260.434, 240.414 259.985, 240.206 258.750 C 240.045 257.788, 240.409 257, 241.015 257 C 241.622 257, 241.840 256.550, 241.500 256 C 241.160 255.450, 241.359 255, 241.941 255 C 242.523 255, 243 254.325, 243 253.500 C 243 252.675, 243.450 252, 244 252 C 244.550 252, 245 251.523, 245 250.941 C 245 250.359, 244.592 250.134, 244.093 250.442 C 243.595 250.751, 243.375 249.990, 243.604 248.751 C 243.834 247.513, 243.755 247.063, 243.428 247.750 C 243.101 248.438, 242.394 249, 241.858 249 C 241.321 249, 241.129 248.601, 241.430 248.113 C 241.731 247.626, 241.308 246.671, 240.489 245.991 C 238.676 244.486, 238.539 242.908, 240.250 243.250 C 240.945 243.389, 241.371 242.729, 241.210 241.765 C 240.977 240.375, 241.524 240.100, 243.960 240.384 C 245.785 240.596, 247 240.279, 247 239.591 C 247 238.012, 243.655 235.282, 242.281 235.740 C 241.577 235.974, 241.367 235.313, 241.718 233.971 C 242.190 232.166, 241.901 231.880, 239.889 232.164 C 237.660 232.477, 237.466 232.122, 236.996 226.851 C 236.667 223.156, 235.802 220.438, 234.496 218.993 C 233.398 217.778, 232.641 215.933, 232.813 214.892 C 233.008 213.710, 232.540 213, 231.563 213 C 229.727 213, 229.459 211.347, 231.201 210.766 C 231.995 210.502, 232.048 210.148, 231.357 209.721 C 230.782 209.365, 229.364 210.254, 228.205 211.694 M 61.750 213.689 C 60.788 213.941, 59.987 214.901, 59.972 215.823 C 59.930 218.353, 54.326 225.374, 53.608 223.796 C 53.284 223.083, 53.270 223.512, 53.577 224.750 C 54.043 226.631, 53.726 227, 51.639 227 C 50.266 227, 48.509 227.634, 47.734 228.409 C 46.819 229.324, 45.828 229.505, 44.912 228.925 C 42.812 227.595, 42.442 227.778, 42.257 230.237 C 42.120 232.054, 42.284 232.195, 43.125 230.987 C 43.908 229.865, 44.015 230.174, 43.562 232.250 C 42.876 235.395, 43.687 235.798, 45.579 233.250 C 46.721 231.712, 47.152 231.668, 49.144 232.886 C 50.754 233.872, 51.519 233.944, 51.788 233.136 C 51.996 232.511, 52.694 232, 53.339 232 C 53.984 232, 55.119 230.628, 55.861 228.952 C 57.181 225.970, 58.982 225.445, 59.771 227.813 C 59.989 228.466, 59.454 229, 58.583 229 C 57.638 229, 57 229.852, 57 231.117 C 57 232.768, 57.457 233.114, 59.079 232.690 C 60.627 232.285, 61.013 232.525, 60.589 233.628 C 60.268 234.465, 61.105 236.196, 62.510 237.601 C 65.339 240.430, 65.692 242, 63.500 242 C 62.675 242, 62 242.450, 62 243 C 62 243.550, 62.996 244, 64.214 244 C 66.268 244, 66.310 244.119, 64.786 245.643 C 63.262 247.167, 63.021 247.164, 61.465 245.608 C 59.175 243.318, 56.536 245.264, 58.063 248.118 C 58.896 249.674, 59.458 249.825, 61.118 248.937 C 62.904 247.981, 63.039 248.071, 62.233 249.674 C 61.182 251.763, 62.018 256.110, 63.475 256.134 C 64.011 256.143, 64.632 255.604, 64.855 254.936 C 65.077 254.268, 64.793 254.010, 64.223 254.362 C 63.586 254.756, 63.388 254.232, 63.710 253.001 C 64.347 250.564, 66.560 250.391, 67.840 252.679 C 68.538 253.925, 68.229 254.827, 66.640 256.178 C 63.947 258.469, 66.381 261.032, 70.501 260.245 C 71.987 259.961, 73 260.230, 73 260.909 C 73 261.675, 73.990 261.540, 76 260.500 C 77.757 259.592, 79 258.151, 79 257.024 C 79 255.965, 79.787 254.641, 80.750 254.080 C 81.713 253.519, 81.964 253.047, 81.309 253.030 C 80.654 253.014, 79.840 253.450, 79.500 254 C 78.785 255.157, 76.877 255.369, 77.250 254.250 C 77.466 253.603, 76.499 252.847, 75.750 253.077 C 72.438 254.090, 71.384 253.208, 71.858 249.820 C 71.911 249.445, 71.325 247.927, 70.556 246.445 C 69.787 244.963, 69.424 243.058, 69.749 242.212 C 70.108 241.277, 69.924 240.929, 69.283 241.325 C 67.580 242.377, 65.533 239.268, 66.869 237.658 C 67.481 236.920, 67.725 236.058, 67.410 235.744 C 67.096 235.429, 67.335 234.243, 67.942 233.108 C 68.855 231.403, 68.782 231.146, 67.523 231.629 C 65.835 232.277, 65.409 230.483, 67.016 229.490 C 67.575 229.144, 67.774 228.443, 67.457 227.931 C 67.141 227.419, 67.359 227, 67.941 227 C 68.523 227, 69 227.477, 69 228.059 C 69 228.641, 69.450 228.840, 70 228.500 C 72.161 227.164, 71.073 224.765, 68.589 225.388 C 66.677 225.868, 66.235 225.632, 66.453 224.247 C 66.609 223.251, 67.430 222.626, 68.364 222.794 C 69.266 222.956, 70 222.433, 70 221.627 C 70 220.824, 70.563 219.934, 71.250 219.651 C 72.007 219.338, 71.613 218.865, 70.250 218.451 C 69.013 218.075, 68 217.401, 68 216.955 C 68 215.910, 65.067 212.964, 64.179 213.116 C 63.805 213.180, 62.712 213.438, 61.750 213.689" stroke="none" fill="#1a1a2e" fill-rule="evenodd"/>
</svg>