<svg xmlns="http://www.w3.org/2000/svg" width="400" height="268" viewBox="0 0 400 268" version="1.1">
	<path d="M 0.022 111.250 L 0.044 222.500 2.039 220 C 4.746 216.607, 18.117 196.309, 22.632 188.738 C 23.254 187.695, 25.016 185.864, 26.547 184.670 C 32.943 179.683, 35.285 176.633, 33.313 175.856 C 32.221 175.425, 33.653 175.113, 36.912 175.070 C 41.407 175.012, 43.611 174.259, 49.912 170.629 C 83.512 151.274, 98.071 144.673, 114 141.574 C 116.284 141.129, 117.117 138.365, 116.125 134.515 C 116.056 134.248, 114.411 135.710, 112.469 137.765 L 108.937 141.500 109.219 138.500 C 109.424 136.314, 110.314 135.093, 112.500 134 C 114.731 132.884, 115.417 131.919, 115.178 130.232 C 114.884 128.157, 115.174 128.003, 118.570 128.424 C 123.500 129.035, 124.239 129.986, 122.454 133.425 C 120.861 136.497, 121.417 140.437, 123.340 139.701 C 123.978 139.457, 128.912 138.238, 134.305 136.993 C 141.521 135.326, 143.973 134.372, 143.592 133.379 C 142.702 131.059, 147.098 129.413, 148.621 131.496 C 149.834 133.155, 150.333 133.132, 158.200 131.068 C 170.033 127.963, 169.830 128.051, 167.810 126.917 C 166.681 126.283, 164.771 126.433, 162.049 127.371 C 159.555 128.230, 157.749 128.403, 157.387 127.817 C 156.298 126.055, 152.574 125.249, 150.759 126.383 C 147.336 128.520, 143.539 123.465, 146.179 120.284 C 147.487 118.709, 147.800 118.806, 140.319 118.461 C 130.125 117.992, 128.231 112, 138.277 112 C 140.080 112, 142.519 111.325, 143.696 110.500 C 146.412 108.598, 148.669 109.459, 150.563 113.121 C 152.403 116.680, 153.342 116.740, 154.866 113.394 C 155.922 111.078, 156.447 110.861, 159.583 111.450 L 163.112 112.112 162.451 108.306 C 162.087 106.213, 161.402 102.700, 160.927 100.500 C 160.152 96.908, 160.313 96.315, 162.502 94.688 C 164.578 93.146, 164.761 92.590, 163.737 90.950 C 162.063 88.269, 165.825 84.243, 168.569 85.779 C 169.885 86.515, 171.332 86.274, 174.033 84.866 C 179.758 81.882, 187.843 89.660, 185.153 95.563 C 184.255 97.535, 184.319 98, 185.490 98 C 186.319 98, 186.708 98.598, 186.400 99.399 C 185.671 101.300, 187.395 102.190, 190.363 101.445 C 192.784 100.837, 193.360 98.880, 194.026 89 C 194.716 78.774, 197.342 81.948, 197.667 93.403 C 197.891 101.273, 198.356 103.840, 200.054 106.588 C 202.716 110.894, 201.556 110.971, 193.250 107.042 C 189.812 105.415, 187 104.302, 187 104.568 C 187 104.834, 185.650 104.353, 184 103.500 C 181.446 102.179, 181 101.370, 181 98.056 C 181 92.468, 180.178 91, 177.048 91 C 170.991 91, 169.460 98.791, 173.560 108.750 C 175.219 112.779, 176.601 112.857, 178.790 109.043 C 182.438 102.686, 189.675 106.335, 186.408 112.884 C 183.926 117.860, 187.686 123.309, 192.007 120.996 C 194.724 119.542, 195.704 119.761, 196.277 121.950 C 196.719 123.641, 196.173 123.948, 192.143 124.269 C 189.589 124.473, 193.034 124.721, 199.798 124.820 C 221.202 125.133, 244.451 121.617, 249.163 117.352 C 251.599 115.148, 254.319 116.329, 253.521 119.245 C 252.989 121.190, 253.055 121.259, 254.002 119.750 C 255.655 117.113, 256.756 117.602, 258.980 121.960 C 261.717 127.326, 261.587 128.105, 257.140 132.970 L 253.281 137.192 242.890 138.067 C 237.176 138.548, 228.450 139.217, 223.500 139.555 C 218.550 139.892, 213.941 140.340, 213.259 140.549 C 211.979 140.942, 212.089 141.149, 222.312 157.554 C 228.813 167.985, 227.025 169.119, 219.169 159.547 C 215.776 155.413, 213 151.768, 213 151.446 C 213 150.995, 207.985 143.172, 206.392 141.137 C 206.236 140.938, 203.721 141.357, 200.804 142.070 C 194.461 143.619, 175.736 145.878, 168.367 145.984 C 167.743 145.993, 166.998 146.900, 166.710 148 C 166.080 150.411, 161.241 150.792, 160.362 148.500 C 159.466 146.166, 155.064 146.530, 155.681 148.887 C 156.365 151.505, 154.237 152.525, 152.108 150.598 C 149.727 148.443, 146.381 148.591, 133.984 151.404 C 124.359 153.587, 118.782 155.122, 98.500 161.167 C 90.886 163.436, 71.776 172.617, 60.752 179.302 C 56.944 181.611, 51.618 184.684, 48.915 186.130 C 40.239 190.776, 35.758 194.725, 23.709 208.345 C 13.874 219.463, 13.399 220.476, 18.934 218.523 C 22.269 217.346, 23.041 217.344, 24.008 218.510 C 25.253 220.010, 22.029 222.014, 12.812 225.468 C 9.661 226.648, 6.792 228.804, 4.062 232.042 L 0 236.859 0 247.998 L 0 259.136 2.750 257.199 C 4.263 256.134, 6.625 254.918, 8 254.496 C 9.375 254.075, 10.725 253.454, 11 253.115 C 12.414 251.375, 23.091 245.089, 27.142 243.611 C 33.590 241.258, 39.042 236.961, 38.385 234.750 C 37.764 232.659, 38.827 232.554, 41.341 234.458 C 44.615 236.940, 37.714 243.331, 21.758 252.595 C 8.808 260.114, 2.570 265.577, 9.250 263.551 C 17.356 261.091, 25.320 262.292, 26.322 266.124 C 27.115 269.156, 119.872 269.035, 121.768 266 C 123.060 263.932, 126 263.237, 126 265 C 126 265.550, 125.550 266, 125 266 C 124.450 266, 124 266.450, 124 267 C 124 267.633, 131.266 268, 143.799 268 L 163.598 268 163.201 264.598 C 162.876 261.810, 163.191 261.074, 164.950 260.516 C 167.251 259.786, 170 261.414, 170 263.507 C 170 266.150, 174.889 268.108, 180.717 267.799 L 186.356 267.500 193.428 259.475 C 197.318 255.061, 201.487 250.111, 202.693 248.475 C 212.611 235.019, 222.588 222.917, 234.500 209.892 C 256.358 185.993, 258.811 183.478, 259.551 184.218 C 260.205 184.872, 256.609 189.802, 244.311 205.111 C 237.948 213.032, 238.037 211.970, 243.409 215.828 C 247.121 218.493, 252 225.585, 252 228.316 C 252 230.718, 247.733 228.042, 242.330 222.250 L 236.032 215.500 230.693 221.106 C 227.757 224.190, 220.470 233.415, 214.501 241.606 C 208.531 249.798, 201.445 259.087, 198.755 262.250 L 193.863 268 229.081 268 L 264.300 268 259.900 264.851 C 250.147 257.870, 242.230 248.521, 242.031 243.750 C 241.958 241.986, 244.867 243.273, 249.377 247 C 252.040 249.200, 254.506 251.010, 254.859 251.022 C 256.875 251.091, 267.092 262.208, 267.635 264.923 L 268.250 268 333.987 268 L 399.725 268 400.328 259.750 C 400.660 255.213, 400.966 194.912, 401.007 125.750 L 401.083 0 311.292 0.033 C 226.296 0.065, 221.611 0.158, 223.577 1.783 C 226.192 3.946, 230.090 6.834, 231.848 7.912 C 232.590 8.367, 233.040 9.458, 232.848 10.336 C 232.557 11.672, 231.842 11.489, 228.475 9.216 C 222.606 5.256, 219.695 2.302, 220.453 1.077 C 220.919 0.323, 215.557 0, 202.559 0 C 182.321 0, 181.604 0.255, 188.500 5 C 190.975 6.703, 193 8.348, 193 8.656 C 193 9.935, 187.202 7.685, 183.209 4.856 C 180.849 3.185, 178.306 2.052, 177.556 2.340 C 176.807 2.627, 175.363 2.233, 174.347 1.463 C 172.798 0.289, 158.582 0.058, 86.250 0.032 L 0 0 0.022 111.250 M 118.493 167.768 C 116.289 169.271, 112.914 171.683, 110.993 173.129 C 109.072 174.576, 105.362 176.688, 102.750 177.823 C 100.138 178.959, 98 180.396, 98 181.017 C 98 181.638, 97.213 181.976, 96.250 181.767 C 94.044 181.288, 88.741 186.883, 89.507 188.880 C 89.816 189.683, 89.640 190.604, 89.117 190.928 C 88.594 191.251, 87.971 194.212, 87.733 197.508 C 87.323 203.171, 87.128 203.557, 84.198 204.535 C 82.492 205.104, 80.782 205.885, 80.397 206.269 C 80.013 206.654, 79.156 206.228, 78.493 205.322 C 76.625 202.766, 73.556 204.317, 75.218 206.977 C 75.913 208.090, 77.048 209, 77.741 209 C 79.915 209, 79.112 212.767, 76.500 214.821 C 73.460 217.213, 73.452 217.354, 76.180 220.492 C 79.093 223.843, 79.474 223.717, 81.955 218.593 C 83.365 215.679, 85.226 213.646, 87.445 212.593 C 91.687 210.580, 91.918 210.597, 91.324 212.871 C 90.715 215.199, 95.060 216.573, 98.021 214.989 C 100.661 213.576, 100.570 213.364, 96.500 211.433 C 92.636 209.599, 91.421 205.774, 95 206.710 C 96.100 206.998, 97 207.579, 97 208.002 C 97 210.339, 101.826 211.867, 105.629 210.734 C 109.993 209.433, 110.963 208.453, 110.985 205.317 C 110.994 204.057, 111.806 202.879, 112.908 202.529 C 113.957 202.196, 115.077 201.243, 115.396 200.410 C 115.716 199.577, 115.559 199.154, 115.049 199.470 C 114.539 199.785, 112.991 198.824, 111.609 197.334 C 109.178 194.712, 99.796 191.390, 97.984 192.510 C 96.784 193.251, 92 190.889, 92 189.555 C 92 188.029, 97.300 185, 99.970 185 C 101.159 185, 103.031 184.519, 104.130 183.931 C 106.477 182.674, 109.199 184.319, 108.365 186.491 C 107.525 188.680, 114.079 194.799, 117.500 195.019 C 122.462 195.338, 122.704 195.162, 123.351 190.750 C 123.693 188.412, 124.237 185.561, 124.560 184.414 C 124.956 183.007, 124.279 181.297, 122.478 179.156 L 119.808 175.983 122.969 172.382 C 124.768 170.333, 125.887 168.147, 125.565 167.309 C 125.254 166.499, 125 165.648, 125 165.418 C 125 164.269, 122.079 165.324, 118.493 167.768" stroke="none" fill="#1a1a2e" fill-rule="evenodd"/>
</svg>