<svg xmlns="http://www.w3.org/2000/svg" width="400" height="300" viewBox="0 0 400 300" version="1.1">
	<path d="M 20.973 2.051 C 20.369 3.179, 18.553 5.365, 16.938 6.909 C 15.322 8.453, 14 10.364, 14 11.155 C 14 12.555, 13.039 14.023, 8.112 20.148 C 6.799 21.781, 5.567 24.469, 5.374 26.122 C 5.182 27.775, 4.376 30.053, 3.583 31.185 C 2.504 32.725, 2.393 33.904, 3.141 35.871 C 3.691 37.317, 4.109 38.612, 4.070 38.750 C 3.230 41.737, 4.262 49.837, 5.426 49.390 C 7.710 48.514, 10.399 53.387, 9.036 55.933 C 7.340 59.101, 4 57.686, 4 53.800 C 4 52.810, 3.605 52, 3.122 52 C 0.383 52, -0.030 55.437, 0.040 77.622 L 0.112 100.500 4.571 100.500 C 8.400 100.500, 9.320 100.077, 11.091 97.500 C 12.537 95.395, 12.976 95.121, 12.562 96.582 C 12.173 97.955, 12.658 99.286, 13.986 100.487 C 15.094 101.490, 16 102.890, 16 103.599 C 16 105.568, 20.929 110.865, 20.968 108.938 C 21.007 107.021, 26.259 102.997, 28.710 103.007 C 30.768 103.015, 34.409 107.943, 36.109 113.022 C 36.749 114.935, 37.662 116.928, 38.136 117.450 C 39.706 119.176, 39.039 122.909, 36.962 124.020 C 34.083 125.561, 31.415 124.416, 30.016 121.040 C 28.955 118.478, 22.588 113, 20.671 113 C 20.275 113, 19.523 114.125, 19 115.500 C 17.820 118.604, 15.626 118.703, 13.475 115.750 C 11.886 113.569, 11.800 113.558, 10.668 115.412 C 6.282 122.594, 3.921 121.626, 1.479 111.644 L 0.221 106.500 0.111 115.750 C 0.010 124.155, 0.774 126.793, 2.500 124 C 3.408 122.530, 4.367 122.762, 6.811 125.039 C 8.015 126.160, 9 126.784, 9 126.424 C 9 126.064, 10.109 126.497, 11.465 127.385 C 12.820 128.273, 14.970 129, 16.242 129 C 22.245 129, 24.760 134.110, 21.780 140.250 C 19.723 144.486, 17.281 145.073, 14.500 142 C 11.983 139.218, 11.118 139.474, 9.436 143.500 C 7.682 147.696, 6.781 147.843, 4.235 144.348 C 1.571 140.691, 0 142.115, -0 148.184 L -0 153.250 2.993 152.651 C 5.702 152.110, 6.177 152.426, 7.993 155.987 C 11.683 163.220, 9.519 168.354, 3.986 165.493 C 2.398 164.672, 0.852 164, 0.550 164 C 0.247 164, -0 175.832, -0 190.293 L -0 216.586 3.239 217.543 C 5.539 218.222, 6.768 219.370, 7.476 221.500 C 8.025 223.150, 8.856 224.775, 9.322 225.112 C 9.789 225.448, 10.020 226.043, 9.835 226.433 C 9.651 226.824, 11.975 227.259, 15 227.400 C 19.946 227.631, 20.515 227.447, 20.647 225.578 C 20.881 222.259, 21.427 220.552, 22.500 219.786 C 23.050 219.394, 23.500 218.500, 23.500 217.800 C 23.500 217.100, 24.850 215.885, 26.500 215.101 C 28.150 214.316, 30.166 212.735, 30.980 211.587 C 31.794 210.439, 33.908 207.897, 35.678 205.937 C 38.490 202.822, 38.933 201.564, 39.197 195.937 L 39.500 189.500 40.568 195 C 41.197 198.238, 41.271 200.988, 40.749 201.686 C 40.215 202.400, 40.330 203.748, 41.037 205.070 C 41.684 206.279, 42.278 209.009, 42.357 211.137 C 42.436 213.265, 42.854 214.989, 43.286 214.968 C 45.405 214.862, 48.944 222.282, 48.190 225.250 C 48.086 225.662, 49.575 226, 51.500 226 C 56.098 226, 59 228.902, 59 233.500 C 59 236.204, 58.590 237, 57.200 237 C 56.210 237, 54.973 237.402, 54.450 237.893 C 51.316 240.840, 41.007 241.101, 38.179 238.306 C 36.500 236.647, 34.005 236.614, 33.985 238.250 C 33.974 239.083, 33.646 239, 33 238 C 32.467 237.175, 32.024 236.893, 32.015 237.372 C 31.990 238.842, 29.125 235.958, 27.627 232.954 C 25.644 228.979, 28.102 226.595, 32.796 227.942 C 36.479 228.998, 39.600 225.829, 40.182 220.441 C 40.357 218.823, 40.950 217.169, 41.500 216.765 C 42.096 216.327, 41.926 216.024, 41.079 216.015 C 40.297 216.007, 38.852 216.729, 37.868 217.619 C 35.900 219.400, 27 218.795, 27 216.880 C 27 216.331, 26.502 216.190, 25.893 216.566 C 25.106 217.052, 25.144 217.471, 26.025 218.016 C 27.706 219.054, 25.099 225.076, 23.115 224.739 C 22.341 224.608, 21.487 225.134, 21.217 225.909 C 20.864 226.926, 21.253 227.134, 22.614 226.657 C 24.449 226.013, 24.448 226.035, 22.602 227.466 C 21.185 228.564, 20.979 229.269, 21.788 230.245 C 22.992 231.696, 20.411 238.372, 18.987 237.492 C 18.559 237.228, 17.969 237.639, 17.675 238.405 C 17.310 239.355, 16.058 239.653, 13.741 239.341 C 8.673 238.658, 7.336 240.800, 9.816 245.633 C 11.739 249.382, 11.739 249.434, 9.768 252.100 C 8.324 254.053, 8.043 255.254, 8.738 256.496 C 9.324 257.544, 9.350 259.809, 8.806 262.352 C 8.317 264.634, 7.861 267.063, 7.792 267.750 C 7.723 268.438, 7.265 269, 6.774 269 C 6.284 269, 6.162 269.453, 6.504 270.007 C 6.847 270.561, 6.345 271.314, 5.390 271.681 C 0.618 273.512, 0 275.383, 0 288 L 0 300 128.980 300 L 257.961 300 257.617 297.042 C 257.327 294.559, 257.893 293.653, 261.136 291.406 C 263.261 289.933, 265 288.392, 265 287.981 C 265 286.710, 269.407 286.005, 270.483 287.104 C 271.143 287.778, 271.149 288.062, 270.500 287.913 C 268.715 287.502, 265.993 289.180, 266.670 290.275 C 267.091 290.956, 266.688 291.094, 265.553 290.659 C 264.233 290.152, 263.926 290.365, 264.357 291.489 C 264.676 292.320, 264.449 293, 263.852 293 C 263.255 293, 263.002 293.900, 263.289 294.999 C 263.577 296.098, 263.404 297.250, 262.906 297.558 C 262.408 297.866, 262 298.541, 262 299.059 C 262 300.165, 275.947 300.354, 276.111 299.250 C 276.173 298.837, 276.291 295.575, 276.374 292 C 276.494 286.870, 277.027 284.829, 278.901 282.317 C 280.812 279.756, 281.157 278.384, 280.663 275.296 C 280.283 272.918, 280.551 270.492, 281.367 268.919 C 283.365 265.067, 281.794 261.522, 278.843 263.227 C 275.737 265.021, 266.449 274.207, 266.750 275.186 C 266.887 275.634, 265.875 276, 264.500 276 C 263.125 276, 262 275.597, 262 275.105 C 262 274.613, 260.212 274.040, 258.028 273.831 C 254.228 273.469, 250.739 277.018, 251.751 280.215 C 251.875 280.609, 251.459 282.184, 250.827 283.715 C 250.195 285.247, 249.750 286.837, 249.839 287.250 C 249.927 287.663, 249.580 288, 249.067 288 C 248.554 288, 247.830 288.959, 247.458 290.132 C 246.991 291.603, 246.548 291.887, 246.029 291.047 C 245.615 290.377, 244.989 289.868, 244.638 289.915 C 242.467 290.205, 241.927 289.801, 242.410 288.250 C 243.242 285.576, 241.493 283.656, 238.080 283.496 C 236.386 283.417, 235 283.673, 235 284.067 C 235 285.242, 228.389 285.645, 227.388 284.531 C 226.878 283.964, 226.470 282.038, 226.481 280.250 C 226.491 278.462, 226.162 277, 225.750 277 C 225.338 277, 225 277.505, 225 278.122 C 225 278.890, 224.517 278.844, 223.475 277.979 C 222.129 276.863, 222.123 276.521, 223.424 275.084 C 224.334 274.078, 224.577 272.934, 224.059 272.095 C 223.412 271.049, 223.062 271.229, 222.538 272.879 C 221.810 275.173, 216.703 278.370, 215.572 277.239 C 215.198 276.864, 214.473 277.220, 213.961 278.029 C 212.566 280.234, 212.807 281.011, 214.664 280.299 C 215.783 279.869, 216.091 280.043, 215.605 280.830 C 215.199 281.487, 215.434 282, 216.141 282 C 217.071 282, 217.107 282.293, 216.278 283.122 C 215.661 283.739, 215.394 284.864, 215.685 285.622 C 215.976 286.380, 215.768 287, 215.224 287 C 214.679 287, 214.001 287.889, 213.717 288.976 C 212.967 291.843, 208.538 293.681, 206.731 291.874 C 205.965 291.108, 205.525 289.924, 205.753 289.241 C 205.981 288.558, 205.609 288, 204.928 288 C 204.096 288, 204.232 287.401, 205.345 286.171 C 207.780 283.481, 207.366 282.770, 204.250 284.289 C 202.738 285.026, 200.825 285.572, 200 285.503 C 199.175 285.434, 197.903 285.826, 197.174 286.374 C 196.247 287.071, 195.574 286.939, 194.939 285.936 C 194.333 284.978, 194.026 284.908, 194.015 285.725 C 194.005 286.538, 193.038 286.758, 191.144 286.379 C 189.055 285.961, 188.119 286.248, 187.659 287.447 C 187.158 288.751, 186.619 288.867, 185.020 288.011 C 181.660 286.212, 167.724 286.190, 166.248 287.981 C 165.146 289.317, 165.065 289.299, 165.575 287.827 C 165.942 286.768, 165.425 285.762, 164.167 285.089 C 162.406 284.147, 162.211 284.314, 162.456 286.549 C 162.785 289.544, 160.246 291.265, 156.501 290.586 C 155.103 290.332, 154.207 290.527, 154.511 291.017 C 154.824 291.525, 152.569 291.668, 149.281 291.349 C 146.101 291.041, 142.246 290.819, 140.714 290.857 C 139.182 290.894, 138.172 290.530, 138.470 290.048 C 138.769 289.566, 138.457 288.986, 137.777 288.759 C 136.863 288.454, 136.984 287.673, 138.245 285.748 C 139.500 283.834, 139.626 283.034, 138.724 282.709 C 135.644 281.602, 142.436 277.802, 146.657 278.271 C 148.943 278.525, 151.418 278.350, 152.157 277.882 C 153.086 277.293, 152.652 277.026, 150.750 277.015 C 149.238 277.007, 148 276.564, 148 276.031 C 148 275.499, 148.749 275.350, 149.664 275.701 C 150.579 276.053, 151.113 275.926, 150.850 275.420 C 150.183 274.139, 154.810 269.884, 155.556 271.091 C 156.992 273.414, 166.395 265.647, 165.353 263 C 165.028 262.175, 164.740 260.938, 164.714 260.250 C 164.688 259.563, 164.265 259, 163.774 259 C 163.284 259, 163.201 258.484, 163.590 257.854 C 164.085 257.053, 163.533 256.901, 161.753 257.347 C 159.952 257.799, 159.035 257.534, 158.616 256.441 C 158.290 255.591, 158.441 255.154, 158.951 255.470 C 159.461 255.785, 159.812 255.151, 159.730 254.060 C 159.595 252.279, 157.919 251.919, 155 253.044 C 154.725 253.150, 154.115 253.168, 153.645 253.083 C 153.174 252.999, 152.155 253.456, 151.379 254.100 C 150.269 255.022, 149.594 254.838, 148.204 253.235 C 146.249 250.981, 143.164 250.133, 141.261 251.327 C 140.436 251.844, 140.205 251.630, 140.568 250.683 C 140.907 249.800, 140.298 249.050, 138.956 248.699 C 137.769 248.388, 137.087 247.668, 137.440 247.097 C 137.800 246.515, 136.855 245.765, 135.291 245.391 C 131.863 244.572, 129.839 243.069, 130.570 241.887 C 130.871 241.399, 130.694 241, 130.176 241 C 128.944 241, 127.950 237.186, 129.081 236.798 C 129.558 236.634, 129.693 235.527, 129.381 234.337 C 128.714 231.802, 123.997 231.916, 118.820 234.593 C 117.170 235.446, 115.200 235.907, 114.442 235.616 C 113.684 235.325, 112.779 235.548, 112.431 236.112 C 112.083 236.675, 111.118 236.876, 110.288 236.557 C 109.237 236.154, 108.954 236.437, 109.357 237.489 C 109.757 238.531, 109.308 239, 107.910 239 C 106.578 239, 106.124 238.571, 106.588 237.750 C 107.117 236.812, 106.988 236.781, 106.073 237.624 C 102.908 240.538, 90 230.466, 90 225.084 C 90 222.383, 92.355 219.755, 93.631 221.031 C 95.860 223.260, 101.165 222.493, 103.242 219.642 C 105.873 216.031, 108.326 215.160, 116.619 214.891 C 122.459 214.702, 123.729 214.316, 125.776 212.108 L 128.152 209.544 124.576 206.675 C 121.285 204.035, 119.825 201, 121.845 201 C 123.097 201, 126 204.459, 126 205.951 C 126 207.005, 126.287 207.007, 127.546 205.962 C 128.396 205.257, 128.847 204.044, 128.549 203.268 C 128.251 202.492, 129.131 200.384, 130.504 198.584 C 131.877 196.784, 133 194.861, 133 194.311 C 133 193.760, 133.900 192.495, 135 191.500 C 138.484 188.347, 137.592 186.664, 132.750 187.256 C 130.412 187.542, 129.063 187.564, 129.750 187.305 C 132.319 186.336, 130.875 185.162, 127.500 185.476 C 124.787 185.728, 123.997 185.430, 123.985 184.150 C 123.974 183.044, 123.724 182.886, 123.225 183.671 C 122.815 184.315, 121.134 185.135, 119.490 185.494 L 116.500 186.147 119.250 183.621 C 123.507 179.712, 117.057 175.999, 112.551 179.765 C 111.423 180.707, 110.852 181.057, 111.281 180.541 C 113.666 177.681, 107.711 177.443, 104.869 180.285 C 102.123 183.031, 101.794 183.123, 100.130 181.618 C 99.147 180.728, 97.838 180, 97.221 180 C 96.604 180, 95.655 179.212, 95.112 178.250 C 94.368 176.931, 93.839 176.783, 92.965 177.648 C 91.815 178.785, 86.022 176.451, 86.006 174.844 C 86.003 174.483, 85.167 174.405, 84.149 174.671 C 83.131 174.937, 81.590 174.447, 80.723 173.581 C 79.857 172.714, 78.440 172.278, 77.574 172.610 C 76.675 172.955, 76 172.694, 76 172 C 76 171.332, 75.435 171.003, 74.745 171.268 C 74.054 171.533, 72.906 171.125, 72.193 170.362 C 71.117 169.210, 71.288 168.817, 73.198 168.050 C 74.464 167.542, 74.986 167.098, 74.357 167.063 C 72.102 166.938, 72.054 164.042, 74.287 162.852 C 76.300 161.779, 76.374 161.825, 75.109 163.359 C 73.894 164.831, 73.926 164.966, 75.359 164.416 C 76.261 164.069, 77 163.159, 77 162.393 C 77 160.661, 78.673 160.556, 79.286 162.250 C 79.648 163.250, 80.162 163.250, 81.856 162.250 C 84.769 160.530, 85.318 160.675, 84.710 163.001 C 84.422 164.102, 84.595 164.751, 85.093 164.442 C 85.592 164.134, 86 164.569, 86 165.410 C 86 166.448, 86.561 166.727, 87.750 166.281 C 89.282 165.707, 89.329 165.835, 88.128 167.313 C 86.447 169.379, 86.771 169.403, 84 167 C 82.732 165.900, 80.975 165.010, 80.097 165.022 C 78.914 165.039, 79.120 165.521, 80.894 166.885 C 82.210 167.897, 83.003 169.186, 82.655 169.749 C 82.032 170.757, 85.976 172.357, 86.873 171.460 C 87.126 171.207, 86.808 171, 86.167 171 C 85.525 171, 85 170.592, 85 170.094 C 85 169.595, 85.913 169.426, 87.028 169.718 C 88.472 170.095, 88.885 170.788, 88.461 172.124 C 87.724 174.445, 89.542 174.636, 90.427 172.330 C 90.779 171.411, 90.545 170.337, 89.906 169.942 C 88.324 168.964, 89.653 167.083, 92.760 165.901 C 94.654 165.181, 95.032 164.632, 94.205 163.805 C 93.378 162.978, 92.675 163.025, 91.519 163.984 C 90.204 165.075, 90.049 165.037, 90.545 163.743 C 91.363 161.611, 89.249 160.548, 87.341 162.132 C 85.996 163.248, 85.823 163.158, 86.140 161.512 C 86.344 160.454, 87.585 159.334, 88.898 159.024 C 91.338 158.448, 94.087 153.797, 91.713 154.262 C 91.046 154.393, 90.154 155.350, 89.731 156.388 C 88.994 158.199, 88.883 158.204, 87 156.500 C 85.306 154.967, 84.804 154.914, 83.332 156.112 C 81.835 157.329, 81.704 157.290, 82.264 155.794 C 82.833 154.275, 82.518 154.305, 79.387 156.063 C 77.453 157.150, 75.450 157.778, 74.935 157.460 C 74.421 157.142, 74 157.809, 74 158.941 C 74 160.105, 73.348 161, 72.500 161 C 71.675 161, 71 161.424, 71 161.943 C 71 162.461, 70.109 162.714, 69.021 162.504 C 67.933 162.294, 66.781 162.545, 66.462 163.061 C 66.143 163.578, 65.346 163.993, 64.691 163.985 C 63.894 163.974, 63.949 163.685, 64.857 163.110 C 65.794 162.516, 66.002 161.284, 65.527 159.125 C 64.985 156.654, 65.172 156, 66.421 156 C 67.289 156, 67.887 155.438, 67.750 154.750 C 67.610 154.052, 68.272 153.630, 69.250 153.794 C 70.213 153.955, 71 153.618, 71 153.044 C 71 152.470, 71.900 152, 73 152 C 74.100 152, 75 151.550, 75 151 C 75 150.450, 76.013 149.964, 77.250 149.921 C 78.487 149.878, 78.938 149.615, 78.250 149.338 C 77.563 149.060, 77 148.148, 77 147.310 C 77 146.345, 76.432 146.004, 75.453 146.380 C 74.076 146.908, 74.068 146.741, 75.377 144.872 C 76.885 142.720, 76.518 139.562, 74.879 140.575 C 74.378 140.885, 74.286 141.670, 74.676 142.319 C 75.065 142.969, 74.538 142.825, 73.505 142 C 71.804 140.642, 71.687 140.663, 72.269 142.218 C 72.623 143.163, 72.452 144.221, 71.888 144.569 C 71.325 144.917, 71.105 145.832, 71.400 146.601 C 71.696 147.371, 71.501 148, 70.969 148 C 70.436 148, 69.986 147.438, 69.968 146.750 C 69.949 145.987, 69.419 146.181, 68.608 147.250 C 67.877 148.213, 66.815 149, 66.247 149 C 65.679 149, 64.946 149.698, 64.618 150.552 C 64.277 151.442, 64.445 151.843, 65.011 151.493 C 65.555 151.157, 66 151.590, 66 152.456 C 66 153.321, 64.652 154.849, 63.004 155.852 C 61.356 156.854, 60.306 157.972, 60.670 158.337 C 61.035 158.702, 60.597 159, 59.698 159 C 58.655 159, 58.271 158.456, 58.638 157.500 C 58.955 156.675, 58.716 156, 58.107 156 C 57.498 156, 56.993 156.563, 56.985 157.250 C 56.974 158.152, 56.725 158.115, 56.093 157.117 C 55.451 156.102, 55.030 156.587, 54.514 158.937 C 54.043 161.080, 53.355 161.967, 52.437 161.614 C 51.682 161.324, 50.755 161.587, 50.378 162.198 C 49.980 162.841, 50.143 163.029, 50.765 162.645 C 51.356 162.280, 52.778 163.174, 53.925 164.632 L 56.010 167.282 53.466 168.602 C 51.658 169.540, 50.186 169.641, 48.373 168.952 C 45.218 167.752, 40.041 168.064, 39.882 169.463 C 39.816 170.033, 39.836 171.063, 39.925 171.750 C 40.015 172.438, 39.280 172.964, 38.294 172.921 C 37.176 172.872, 36.987 172.647, 37.792 172.324 C 38.731 171.947, 38.790 171.452, 38.007 170.509 C 37.218 169.558, 37.360 168.783, 38.537 167.606 C 39.741 166.402, 39.812 165.980, 38.821 165.921 C 38.095 165.878, 38.733 165.391, 40.241 164.841 C 44.024 163.458, 41.491 160.633, 37.292 161.551 C 35.030 162.046, 34.785 161.939, 36 160.987 C 37.309 159.961, 37.293 159.877, 35.872 160.328 C 34.976 160.611, 33.648 160.316, 32.920 159.672 C 31.835 158.712, 31.818 158.795, 32.824 160.133 C 33.802 161.435, 33.784 161.869, 32.734 162.272 C 31.885 162.598, 31.343 161.876, 31.208 160.240 C 31.092 158.844, 30.436 156.999, 29.749 156.140 C 29.062 155.281, 29.988 155.622, 31.808 156.898 C 33.627 158.174, 35.385 158.948, 35.716 158.618 C 36.046 158.288, 36.920 158.519, 37.658 159.131 C 38.682 159.981, 39 159.880, 39 158.706 C 39 157.859, 38.438 156.940, 37.750 156.662 C 36.789 156.274, 36.802 156.140, 37.809 156.079 C 38.536 156.035, 38.801 155.487, 38.405 154.845 C 38 154.190, 38.127 153.960, 38.698 154.313 C 39.252 154.656, 40.559 154.242, 41.603 153.394 C 42.646 152.546, 42.969 152.117, 42.319 152.442 C 41.670 152.767, 40.894 152.637, 40.595 152.154 C 40.297 151.671, 41.010 151.326, 42.181 151.388 C 45.174 151.546, 45.554 155, 42.578 155 C 39.705 155, 39.096 155.652, 39.725 158.058 C 40.274 160.156, 43.163 160.817, 42.750 158.750 C 42.612 158.063, 43.252 157.557, 44.171 157.626 C 45.279 157.709, 45.672 157.203, 45.339 156.126 C 44.913 154.745, 45.054 154.764, 46.279 156.250 C 47.072 157.213, 48.346 157.986, 49.110 157.970 C 50.095 157.948, 50.003 157.649, 48.792 156.943 C 47.852 156.395, 47.315 155.342, 47.599 154.602 C 47.883 153.863, 47.310 152.452, 46.325 151.468 C 44.605 149.748, 44.644 149.699, 47.326 150.211 C 49.463 150.620, 49.988 150.411, 49.569 149.320 C 49.269 148.537, 49.437 148.152, 49.942 148.464 C 50.448 148.777, 51.115 148.622, 51.425 148.121 C 52.393 146.555, 49.211 146.041, 47.951 147.559 C 46.330 149.512, 42.552 149.378, 40.872 147.308 C 39.983 146.212, 39.933 145.876, 40.729 146.354 C 41.405 146.760, 42.868 146.606, 43.979 146.011 C 45.614 145.136, 46 145.234, 46 146.524 C 46 147.401, 46.457 147.835, 47.016 147.490 C 47.575 147.144, 47.788 146.466, 47.490 145.983 C 47.191 145.500, 47.807 145.270, 48.859 145.473 C 50.326 145.755, 50.654 145.394, 50.269 143.921 C 49.605 141.381, 50.820 141.494, 53.821 144.250 L 56.271 146.500 55.101 144.250 C 54.457 143.012, 53.510 142, 52.996 142 C 52.483 142, 52.350 141.251, 52.701 140.336 C 53.180 139.088, 52.985 138.886, 51.920 139.528 C 50.725 140.248, 50.709 140.126, 51.819 138.756 C 52.819 137.523, 52.871 136.627, 52.034 135.064 C 51.001 133.134, 51.344 132.562, 53.324 132.906 C 53.778 132.985, 53.864 132.588, 53.515 132.025 C 52.638 130.605, 54.336 130.736, 55.800 132.200 C 57.477 133.877, 57.298 135.328, 55.500 134.638 C 54.615 134.299, 54 134.626, 54 135.438 C 54 136.320, 54.716 136.625, 56 136.290 C 59.142 135.468, 58.756 130.228, 55.493 129.409 C 47.347 127.364, 37.209 137.564, 44.577 140.391 C 46.642 141.184, 46.321 142.571, 44.073 142.571 C 43.014 142.571, 42.365 142.218, 42.632 141.786 C 42.900 141.354, 42.079 140.948, 40.809 140.884 C 39.121 140.799, 38.969 140.645, 40.246 140.311 C 41.578 139.963, 41.767 139.433, 41.041 138.078 C 39.649 135.475, 42.966 129.841, 46.590 128.653 C 48.191 128.129, 49.725 127.378, 50 126.984 C 50.275 126.591, 52.497 125.256, 54.937 124.018 C 59.829 121.538, 62.556 119.222, 61.651 118.318 C 60.967 117.634, 66.007 113.488, 72.899 109.065 L 77.732 105.964 81.959 108.365 C 86.527 110.959, 86.170 112.839, 81.564 110.449 C 78.249 108.729, 78 108.698, 78 110 C 78 110.550, 78.675 111, 79.500 111 C 81.153 111, 81.526 112.557, 80.085 113.447 C 79.582 113.758, 78.943 113.447, 78.664 112.756 C 78.302 111.857, 78.135 111.839, 78.079 112.691 C 77.965 114.416, 80.097 115.461, 80.942 114.094 C 81.337 113.455, 82.409 113.220, 83.324 113.571 C 84.240 113.922, 84.740 114.612, 84.435 115.105 C 84.131 115.597, 84.332 116, 84.882 116 C 85.432 116, 86.160 115.550, 86.500 115 C 86.840 114.450, 86.641 114, 86.059 114 C 84.172 114, 84.936 112.372, 87.457 111.023 C 89.399 109.984, 89.714 109.333, 88.957 107.920 C 87.535 105.263, 87.790 104.001, 89.750 103.991 C 90.713 103.986, 93.750 102.875, 96.500 101.522 C 99.250 100.169, 102.052 99.048, 102.727 99.031 C 103.402 99.014, 104.688 97.879, 105.586 96.509 C 107.326 93.854, 109.236 94.044, 108.777 96.825 C 108.606 97.859, 109.170 98.500, 110.250 98.500 C 111.213 98.500, 111.962 98.100, 111.915 97.612 C 111.868 97.123, 112.430 96.343, 113.165 95.877 C 114.125 95.268, 113.871 95.026, 112.261 95.015 C 110.469 95.003, 110.039 94.451, 110.105 92.250 C 110.283 86.272, 112.337 71.397, 113.222 69.666 C 113.738 68.658, 114.383 65.733, 114.655 63.166 C 114.927 60.600, 115.791 57.503, 116.575 56.285 C 117.359 55.067, 118 53.280, 118 52.313 C 118 50.110, 121.849 37.017, 123.090 35 C 123.598 34.175, 124.277 32.825, 124.599 32 C 124.922 31.175, 126.002 28.700, 127 26.500 C 127.998 24.300, 129.067 21.712, 129.376 20.750 C 129.685 19.787, 130.683 19, 131.594 19 C 133.525 19, 133.024 23.240, 130.493 28.315 C 128.601 32.106, 128.579 32, 131.277 32 C 134.320 32, 137.907 29.376, 139.080 26.290 C 139.799 24.397, 140.348 24.044, 141.319 24.849 C 142.026 25.436, 143.593 25.658, 144.802 25.342 C 146.097 25.003, 147 25.226, 147 25.883 C 147 26.498, 146.602 27, 146.117 27 C 145.631 27, 144.963 28.012, 144.632 29.250 C 143.479 33.565, 149.742 34.985, 152.688 31.076 C 153.756 29.660, 154.019 29.693, 155.286 31.401 C 156.258 32.714, 156.915 32.946, 157.406 32.151 C 158.824 29.858, 160.873 30.996, 161.187 34.250 C 161.445 36.927, 162.061 37.665, 164.682 38.438 C 166.502 38.974, 168.137 40.259, 168.500 41.438 C 168.849 42.572, 169.344 43.005, 169.600 42.401 C 170.076 41.278, 182.119 41.272, 185.678 42.393 C 186.680 42.709, 195.150 44.597, 204.500 46.589 C 222.599 50.445, 230.742 52.271, 235.361 53.507 C 237.933 54.195, 238.156 54.066, 237.570 52.221 C 235.943 47.093, 238.765 43.573, 242.092 46.583 C 243.699 48.037, 243.932 47.996, 244.956 46.083 C 246.119 43.910, 250.389 43.203, 251.500 45 C 252.639 46.842, 254 46.025, 254 43.500 C 254 42.125, 254.849 40.151, 255.886 39.114 C 258.738 36.262, 256.450 25.506, 253.253 26.733 C 252.207 27.135, 251.916 26.944, 252.395 26.170 C 252.793 25.526, 252.641 25, 252.059 25 C 251.477 25, 251 23.650, 251 22 C 251 20, 250.500 19, 249.500 19 C 247.371 19, 247.641 15.635, 249.937 13.557 C 252.260 11.455, 253.330 11.968, 254.991 15.979 C 256.606 19.877, 257.688 19.806, 258.459 15.750 C 258.799 13.962, 259.575 10.563, 260.184 8.195 C 261.582 2.756, 261.191 2.425, 251.942 1.221 C 242.366 -0.024, 234.158 1.137, 231.752 4.079 C 229.749 6.528, 227.079 6.020, 226.300 3.041 C 225.831 1.245, 217.771 -1.105, 216.487 0.180 C 213.088 3.578, 210.293 9.640, 211.121 11.817 C 211.635 13.170, 211.818 14.515, 211.528 14.805 C 211.238 15.096, 210.993 14.696, 210.985 13.917 C 210.972 12.751, 210.801 12.766, 210.021 14 C 209.189 15.316, 208.863 15.291, 207.372 13.800 C 206.095 12.524, 205.948 11.768, 206.779 10.766 C 207.862 9.461, 207.135 3.646, 205.573 1.118 C 204.301 -0.939, 192.640 -0.325, 193.570 1.750 C 195.258 5.516, 195.227 12.630, 193.514 14.343 C 189.603 18.255, 185.368 13.853, 183.082 3.500 L 182.419 0.500 153.187 0.227 C 121.966 -0.065, 120.241 0.207, 124.260 4.787 C 127.338 8.294, 127.270 10.636, 124.018 13.146 C 122.340 14.441, 119.706 16.484, 118.165 17.687 C 116.623 18.889, 114.758 21.702, 114.021 23.937 C 113.283 26.171, 112.275 28, 111.781 28 C 111.286 28, 111.136 27.588, 111.447 27.085 C 111.758 26.582, 111.559 26.020, 111.005 25.835 C 110.339 25.613, 110.374 24.310, 111.107 21.999 C 111.718 20.075, 112.305 15.917, 112.412 12.760 C 112.573 8.032, 113.085 6.521, 115.318 4.190 C 119.171 0.169, 118.547 0, 99.809 0 L 82.950 0 82 2.500 C 80.821 5.602, 80.224 5.694, 80.380 2.750 C 80.498 0.538, 80.288 0.497, 68 0.341 C 47.553 0.082, 42.709 0.697, 43.241 3.483 C 43.650 5.619, 43.477 5.714, 40.841 4.795 C 37.964 3.792, 36.957 2.013, 39.250 1.985 C 40.083 1.974, 40 1.646, 39 1 C 35.880 -1.016, 22.187 -0.218, 20.973 2.051 M 269.333 1.575 C 269 2.441, 269.240 4.856, 269.864 6.941 C 270.489 9.026, 271 12.762, 271 15.244 C 271 17.725, 271.685 21.396, 272.523 23.400 C 273.360 25.404, 274 28.721, 273.944 30.772 C 273.784 36.671, 275.170 48.386, 276.179 49.661 C 276.748 50.381, 276.699 51.068, 276.049 51.470 C 273.868 52.817, 275.030 57.064, 278.500 60.434 C 280.425 62.304, 282 63.417, 282 62.908 C 282 62.399, 282.886 62.537, 283.969 63.213 C 288.738 66.191, 291.183 56.763, 287.914 48 C 287.402 46.625, 286.088 38.075, 284.995 29 C 282.839 11.096, 281.471 2.572, 280.502 1.003 C 279.440 -0.715, 270.026 -0.232, 269.333 1.575 M 232.523 6.974 C 229.634 10.167, 232.672 14, 238.090 14 C 241.654 14, 242.061 14.233, 241.512 15.962 C 241.169 17.041, 241.403 18.884, 242.030 20.057 C 243.816 23.394, 239.244 21.613, 235.500 17.513 C 233.850 15.706, 231.684 13.955, 230.687 13.621 C 229.689 13.287, 229.124 12.608, 229.431 12.112 C 230.288 10.725, 227.080 9.887, 225.058 10.969 C 222.728 12.216, 220 18.004, 220 21.701 C 220 23.296, 219.511 25.089, 218.913 25.687 C 217.509 27.091, 219.453 28.461, 221.250 27.334 C 222.624 26.473, 227 25.701, 227 26.320 C 227 26.533, 225.930 27.862, 224.623 29.273 C 219.685 34.601, 223.393 38.702, 230.654 35.941 C 233.113 35.007, 233.657 35.182, 235.303 37.441 C 237.602 40.597, 242.141 40.859, 245 38 C 247.569 35.431, 247.520 34.772, 244.500 31.182 C 241.653 27.798, 241.351 25.241, 243.468 22.441 C 245.259 20.074, 245.430 15.830, 243.800 14.200 C 242.867 13.267, 243.303 13, 245.765 13 C 247.767 13, 249.277 12.351, 249.875 11.234 C 252.011 7.242, 245.908 3.181, 242.278 6.177 C 241.016 7.219, 240.585 7.234, 240.254 6.250 C 239.599 4.303, 234.509 4.780, 232.523 6.974 M 334.638 122.500 C 335.238 124.062, 334.905 124.172, 329 124.378 C 326.810 124.454, 325.591 124.961, 325.744 125.732 C 325.878 126.410, 324.753 127.211, 323.244 127.511 C 321.735 127.811, 319.150 128.546, 317.500 129.143 C 315.850 129.740, 313.150 130.468, 311.500 130.761 C 309.850 131.053, 307.488 131.953, 306.250 132.761 C 304.986 133.586, 304 133.778, 304 133.198 C 304 132.631, 304.563 131.938, 305.250 131.659 C 306.191 131.278, 306.129 130.890, 305 130.091 C 302.255 128.150, 301.311 129.350, 301.970 133.946 C 302.144 135.156, 301.918 135.177, 300.589 134.074 C 299.715 133.349, 298.986 133.148, 298.968 133.628 C 298.951 134.107, 298.354 133.734, 297.643 132.798 C 296.216 130.920, 291.522 131.417, 292.699 133.321 C 293.993 135.416, 293.838 138.848, 292.424 139.391 C 291.641 139.691, 291 140.658, 291 141.540 C 291 142.422, 290.325 143.818, 289.500 144.643 C 288.675 145.468, 288 147.011, 288 148.071 C 288 149.132, 288.675 150, 289.500 150 C 290.353 150, 291 149.102, 291 147.917 C 291 146.686, 291.512 146.010, 292.250 146.266 C 293.008 146.528, 293.369 147.992, 293.168 149.987 C 292.865 152.979, 293.041 153.223, 295.115 152.680 C 296.370 152.352, 297.982 152.570, 298.698 153.164 C 299.636 153.943, 300 153.931, 300 153.122 C 300 152.505, 300.675 152, 301.500 152 C 302.325 152, 303 152.257, 303 152.571 C 303 153.674, 299.898 156.232, 299.294 155.628 C 298.959 155.292, 298.080 155.519, 297.342 156.131 C 296.330 156.971, 295.996 156.907, 295.985 155.872 C 295.973 154.787, 295.747 154.814, 294.909 156 C 294.106 157.134, 293.724 157.194, 293.339 156.244 C 292.966 155.325, 292.146 155.526, 290.280 156.994 C 286.683 159.823, 285.815 159.503, 286.544 155.615 C 286.907 153.681, 286.743 151.959, 286.162 151.600 C 284.821 150.771, 283.764 154.222, 284.651 156.533 C 285.203 157.972, 284.984 158.208, 283.592 157.674 C 282.626 157.303, 281.648 157, 281.418 157 C 281.188 157, 281 156.100, 281 155 C 281 153.900, 281.436 153, 281.969 153 C 282.501 153, 282.707 152.400, 282.426 151.667 C 282.144 150.933, 281.278 150.333, 280.501 150.333 C 279.724 150.333, 279.301 150.677, 279.560 151.098 C 279.820 151.518, 279.575 152.144, 279.016 152.490 C 278.457 152.835, 278 153.991, 278 155.059 C 278 156.127, 277.325 157, 276.500 157 C 274.819 157, 274.455 154.455, 276 153.500 C 277.499 152.573, 277.204 150, 275.598 150 C 274.827 150, 273.725 151.350, 273.150 153 C 271.826 156.799, 271.330 156.763, 269.626 152.750 L 268.246 149.500 267.120 152.323 C 265.957 155.238, 262.173 155.807, 262.824 152.969 C 263.073 151.884, 262.725 151.938, 261.324 153.202 C 259.351 154.982, 256.916 154.022, 255.741 151 C 255.264 149.772, 255.144 149.807, 255.079 151.191 C 254.909 154.830, 249.073 153.902, 248.937 150.215 C 248.890 148.943, 248.640 149.081, 247.969 150.750 C 247.471 151.988, 246.637 153, 246.114 153 C 243.934 153, 241.995 151.679, 241.921 150.143 C 241.871 149.105, 241.656 148.961, 241.338 149.750 C 241.060 150.438, 239.269 151, 237.358 151 C 235.446 151, 234.135 150.591, 234.444 150.090 C 235.292 148.718, 233.968 146, 232.452 146 C 230.185 146, 229.599 148.234, 231.501 149.624 C 233.239 150.895, 233.238 150.972, 231.463 151.652 C 230.360 152.076, 229.461 151.884, 229.225 151.174 C 229.007 150.521, 228.418 150.242, 227.915 150.553 C 227.412 150.864, 226.986 150.079, 226.970 148.809 C 226.943 146.759, 226.825 146.696, 225.920 148.250 C 224.309 151.016, 219.205 150.544, 217.818 147.500 C 217.192 146.125, 216.301 145, 215.839 145 C 214.515 145, 214.862 147.783, 216.250 148.292 C 217.223 148.648, 217.234 149.033, 216.301 150.024 C 215.333 151.052, 214.649 151, 212.742 149.751 C 211.374 148.854, 209.249 148.421, 207.685 148.720 C 206.202 149.003, 204.316 148.677, 203.494 147.995 C 202.459 147.136, 202 147.100, 202 147.878 C 202 149.673, 197.208 149.172, 195.992 147.250 C 195.198 145.997, 194.735 145.855, 194.359 146.750 C 193.526 148.732, 192.269 148.209, 191.617 145.610 C 190.895 142.733, 188.163 141.411, 187.345 143.542 C 186.880 144.755, 186.476 144.810, 185.286 143.823 C 184.090 142.830, 183.624 142.921, 182.854 144.297 C 182.329 145.234, 181.158 146, 180.250 146 C 178.967 146, 178.867 146.267, 179.800 147.200 C 181.847 149.247, 181.303 152.312, 179 151.710 C 177.700 151.370, 177 151.680, 177 152.594 C 177 153.367, 177.436 154, 177.969 154 C 178.501 154, 178.696 154.628, 178.401 155.396 C 177.315 158.227, 166.790 159.025, 163.988 156.489 C 162.400 155.052, 162.209 155.091, 161.721 156.960 C 160.795 160.501, 159.445 159.193, 157.893 153.250 C 156.460 147.765, 156.244 147.500, 153.200 147.500 C 149.195 147.500, 143.863 139.050, 145.856 135.860 C 147.200 133.707, 145.842 132.598, 142.975 133.508 C 140.987 134.139, 140.986 134.167, 142.905 136.606 C 144.456 138.578, 144.661 139.694, 143.938 142.216 C 142.842 146.039, 141 148.203, 141 145.669 C 141 144.716, 140.325 143.678, 139.500 143.362 C 138.675 143.045, 138 142.127, 138 141.322 C 138 139.551, 135.482 136.851, 134.628 137.706 C 134.292 138.041, 134.529 138.933, 135.155 139.687 C 136.035 140.747, 135.805 141.579, 134.147 143.344 C 132.966 144.601, 132 146.153, 132 146.793 C 132 147.672, 131.387 147.678, 129.500 146.818 C 126.495 145.449, 126.238 144, 129 144 C 131.838 144, 131.643 140.179, 128.750 139.085 C 126.106 138.086, 125 138.542, 125 140.630 C 125 141.462, 124.325 142.818, 123.500 143.643 C 122.675 144.468, 122 146.638, 122 148.464 C 122 150.623, 121.425 152.007, 120.357 152.417 C 117.876 153.369, 117.242 152.027, 119.421 150.434 C 121.224 149.115, 121.238 148.921, 119.654 147.170 C 118.727 146.146, 118.088 144.226, 118.234 142.904 C 118.410 141.316, 117.991 140.500, 117 140.500 C 116.175 140.500, 115.613 141.063, 115.750 141.750 C 115.888 142.437, 115.100 143.900, 114 145 C 111.785 147.215, 111.467 146.864, 113.035 143.934 C 113.666 142.756, 113.696 142, 113.113 142 C 112.586 142, 111.635 143.575, 111 145.500 C 109.597 149.752, 106.437 150.279, 105 146.500 C 103.900 143.608, 104.002 143.637, 100.315 145.174 C 96.634 146.709, 92.817 146.931, 91.227 145.701 C 90.281 144.970, 90.116 145.138, 90.584 146.359 C 91.056 147.588, 90.635 148, 88.907 148 C 87.160 148, 86.881 148.281, 87.758 149.158 C 88.634 150.034, 89.289 150.005, 90.458 149.035 C 92.297 147.508, 92.540 149.045, 90.750 150.884 C 89.747 151.914, 89.796 152.127, 91 151.965 C 93.915 151.572, 95 152.018, 95 153.607 C 95 154.609, 95.553 155.002, 96.468 154.651 C 97.275 154.341, 98.202 154.518, 98.527 155.044 C 98.852 155.570, 98.641 156, 98.059 156 C 97.477 156, 97 156.705, 97 157.567 C 97 158.586, 97.612 158.958, 98.750 158.629 C 99.713 158.350, 103.650 157.814, 107.500 157.438 C 111.350 157.061, 115.329 156.320, 116.343 155.791 C 118.693 154.565, 123 155.613, 123 157.411 C 123 158.166, 124.125 159.066, 125.500 159.411 C 128.006 160.040, 129.020 162, 126.839 162 C 126.200 162, 127.213 163.130, 129.089 164.512 C 142.164 174.141, 142.183 174.153, 141.556 172.178 C 141.159 170.927, 141.484 170.028, 142.470 169.650 C 143.312 169.327, 144 169.499, 144 170.031 C 144 170.564, 144.436 171, 144.969 171 C 145.501 171, 145.678 170.325, 145.362 169.500 C 145.035 168.649, 145.339 168, 146.064 168 C 146.767 168, 148.140 167.278, 149.115 166.396 C 150.111 165.494, 153.209 164.626, 156.193 164.413 C 167.535 163.600, 178.886 161.624, 178.297 160.564 C 177.972 159.979, 178.313 160.063, 179.053 160.750 C 179.794 161.438, 180.873 161.993, 181.450 161.985 C 182.028 161.976, 181.899 161.589, 181.165 161.123 C 180.154 160.482, 180.346 160.143, 181.957 159.722 C 183.699 159.266, 183.973 159.511, 183.474 161.083 C 183.027 162.491, 183.348 163.003, 184.683 163.011 C 185.682 163.017, 189.392 165.042, 192.928 167.511 C 196.463 169.980, 198.834 172, 198.197 172 C 195.420 172, 198.150 179.667, 202.750 184.788 C 206.668 189.148, 204.305 195.058, 199 194.168 C 197.812 193.969, 197.775 194.103, 198.824 194.813 C 199.902 195.543, 199.856 196.002, 198.574 197.283 C 196.582 199.275, 196.577 200.664, 198.559 201.773 C 201.339 203.329, 198.444 207.701, 194.130 208.465 C 188.786 209.410, 186.921 210.061, 187.381 210.822 C 187.959 211.780, 185.788 213.500, 184 213.500 C 181.935 213.500, 179.134 210.674, 180.367 209.835 C 180.904 209.469, 179.354 208.655, 176.922 208.025 C 174.490 207.396, 171.604 206.618, 170.508 206.296 C 168.800 205.795, 168.700 205.933, 169.806 207.266 C 170.887 208.568, 170.752 209.060, 168.974 210.305 C 167.799 211.129, 167.294 212.063, 167.841 212.402 C 168.385 212.738, 169.031 212.447, 169.278 211.756 C 169.524 211.065, 170.008 210.758, 170.353 211.073 C 170.697 211.388, 170.066 212.625, 168.950 213.823 C 167.835 215.020, 167.220 216, 167.583 216 C 167.947 216, 167.685 216.675, 167 217.500 C 166.315 218.325, 166.031 219, 166.368 219 C 167.890 219, 163.133 223.330, 159.841 224.940 C 155.854 226.891, 152.446 226.154, 154.758 223.842 C 156.331 222.269, 156.383 220.645, 154.830 221.605 C 154.054 222.085, 153.866 221.792, 154.271 220.737 C 154.815 219.318, 154.538 219.294, 151.690 220.511 C 149.908 221.274, 148.561 222.561, 148.637 223.427 C 148.719 224.354, 148.316 224.692, 147.637 224.267 C 145.815 223.128, 143.657 223.040, 142.433 224.056 C 141.809 224.574, 140.056 225.101, 138.538 225.226 C 135.210 225.502, 133.109 229.543, 135.209 231.629 C 136.678 233.089, 142.972 233.754, 144.775 232.639 C 145.453 232.220, 146.927 232.786, 148.167 233.941 C 150.125 235.765, 150.537 235.824, 152.011 234.490 C 152.919 233.668, 154.035 233.334, 154.490 233.748 C 154.946 234.162, 155.050 233.750, 154.722 232.833 C 154.352 231.797, 154.758 230.923, 155.794 230.526 C 156.711 230.174, 157.620 230.361, 157.814 230.943 C 158.008 231.524, 158.831 232, 159.642 232 C 160.454 232, 160.880 231.615, 160.589 231.144 C 160.298 230.674, 161.172 230.501, 162.530 230.761 C 163.889 231.021, 165 230.820, 165 230.315 C 165 228.967, 172.132 228.887, 174.750 230.205 C 176.116 230.893, 177 232.254, 177 233.669 C 177 234.951, 177.477 236, 178.059 236 C 178.641 236, 178.843 235.555, 178.507 235.011 C 178.150 234.434, 178.576 234.284, 179.532 234.651 C 180.637 235.075, 180.800 235.505, 180.035 235.978 C 179.412 236.363, 179.121 237.885, 179.389 239.360 C 179.656 240.834, 179.518 241.820, 179.083 241.551 C 177.819 240.770, 173.691 245.751, 174.295 247.327 C 174.597 248.113, 174.340 249.260, 173.724 249.876 C 171.965 251.635, 172.045 259.131, 173.853 261.969 C 175.349 264.316, 175.346 264.405, 173.811 263.193 C 172.377 262.059, 172.225 262.143, 172.665 263.827 C 173.178 265.790, 176.085 265.809, 178.592 263.864 C 179.193 263.398, 179.932 263.266, 180.235 263.569 C 180.539 263.872, 182.343 262.518, 184.244 260.560 C 186.146 258.602, 188.219 257, 188.851 257 C 189.483 257, 190 256.677, 190 256.282 C 190 255.036, 184.779 251.019, 183.881 251.574 C 183.409 251.865, 183.319 251.332, 183.681 250.388 C 184.128 249.224, 183.964 248.904, 183.170 249.395 C 182.072 250.074, 181.368 247.107, 182.009 244.500 C 182.144 243.950, 182.272 242.938, 182.294 242.250 C 182.316 241.563, 182.708 241, 183.167 241 C 183.625 241, 183.888 240.475, 183.750 239.834 C 183.613 239.193, 185.004 238.341, 186.843 237.942 C 191.864 236.850, 196.569 234, 198.361 230.966 C 199.240 229.477, 201.307 227.701, 202.954 227.019 L 205.948 225.779 203.849 224.079 C 199.007 220.158, 201.249 215.549, 208.083 215.375 C 214.876 215.202, 215.200 215.133, 214.500 214 C 214.160 213.450, 214.610 213, 215.500 213 C 216.390 213, 216.859 212.581, 216.543 212.069 C 215.529 210.429, 228.858 207.001, 236.250 207 C 237.762 207, 239.876 206.124, 240.947 205.053 C 243.250 202.750, 248.330 200, 250.281 200 C 251.041 200, 252.256 198.890, 252.982 197.534 C 253.708 196.178, 254.578 195.239, 254.915 195.448 C 256.675 196.535, 269.209 197.147, 268.571 196.114 C 268.192 195.501, 268.286 195, 268.780 195 C 270.610 195, 271.840 190.502, 270.509 188.682 C 268.996 186.612, 266.371 187.459, 261.055 191.731 C 259.161 193.254, 257.950 193.938, 258.364 193.250 C 258.814 192.504, 258.590 191.993, 257.809 191.983 C 257.089 191.973, 255.440 190.848, 254.145 189.483 C 251.768 186.976, 248 186.103, 248 188.059 C 248 188.641, 247.616 188.881, 247.147 188.591 C 246.678 188.301, 245.441 188.710, 244.397 189.500 C 243.354 190.290, 242.062 190.951, 241.527 190.968 C 240.993 190.986, 241.640 190.240, 242.967 189.311 C 248.514 185.425, 250.923 179, 246.833 179 C 246.310 179, 246.152 178.563, 246.482 178.029 C 247.490 176.399, 241.377 175.405, 233.191 175.869 C 231.921 175.941, 231.118 176.382, 231.406 176.849 C 231.695 177.315, 231.108 178.580, 230.103 179.659 C 227.755 182.179, 230.479 186.250, 234.512 186.250 C 235.880 186.250, 237 186.696, 237 187.242 C 237 187.787, 238.129 188.017, 239.509 187.754 C 241.670 187.340, 241.843 187.488, 240.759 188.819 C 236.879 193.579, 234.734 195, 231.423 195 C 228.983 195, 227.769 195.525, 227.378 196.750 C 224.457 205.888, 219.368 206.255, 219.438 197.323 C 219.485 191.402, 219.303 191.085, 215.669 190.785 C 214.201 190.663, 213 190.185, 213 189.723 C 213 189.260, 212.480 189.203, 211.845 189.595 C 211.108 190.051, 210.963 189.868, 211.446 189.088 C 211.861 188.416, 212.430 188.097, 212.711 188.378 C 212.992 188.659, 214.358 187.539, 215.746 185.889 C 217.135 184.240, 218.885 183.125, 219.635 183.414 C 220.386 183.702, 221 183.501, 221 182.969 C 221 182.436, 220.550 182, 220 182 C 218.079 182, 218.966 177.822, 221 177.290 C 225.508 176.111, 221.333 173.989, 214.100 173.784 C 210.159 173.672, 211.125 172.269, 216.879 169.750 C 219.421 168.638, 222.625 166.946, 224 165.991 C 225.375 165.036, 228.075 164.019, 230 163.731 C 231.925 163.444, 234.583 162.866, 235.906 162.447 C 237.771 161.856, 238.128 161.984, 237.492 163.012 C 236.899 163.972, 237.124 164.166, 238.304 163.714 C 240.491 162.874, 241.487 164.708, 239.890 166.633 C 238.832 167.908, 238.860 168.135, 240.054 167.931 C 240.849 167.796, 242.279 168.025, 243.230 168.442 C 244.438 168.970, 246.250 168.193, 249.230 165.869 C 251.579 164.037, 252.882 163.317, 252.128 164.269 C 251.373 165.221, 251.148 166.015, 251.628 166.033 C 252.107 166.052, 251.438 166.952, 250.139 168.033 C 248.423 169.463, 248.202 170, 249.330 170 C 250.184 170, 251.160 169.550, 251.500 169 C 251.840 168.450, 253.294 168, 254.730 168 C 256.167 168, 258.168 167.253, 259.177 166.339 C 261.355 164.368, 262.839 165.284, 261.020 167.476 C 259.979 168.730, 260.030 169, 261.305 169 C 262.157 169, 263.740 167.875, 264.821 166.500 C 267.178 163.504, 268.498 163.202, 267 166 C 265.699 168.431, 266.798 168.658, 268.513 166.313 C 272.926 160.278, 293.863 172.928, 312.433 192.848 C 329.546 211.206, 370 235.972, 370 228.091 C 370 227.541, 368.420 226.794, 366.489 226.432 C 364.558 226.070, 362.731 225.374, 362.430 224.887 C 362.129 224.399, 361.215 224, 360.399 224 C 357.838 224, 347 211.890, 347 209.029 C 347 204.791, 343.494 198.889, 341.225 199.310 C 338.919 199.738, 338.868 199.250, 340.705 194.351 C 341.327 192.695, 339.029 191.571, 337.713 192.887 C 336.056 194.544, 335 194.238, 335 192.099 C 335 190.289, 331.606 187.680, 324.500 184.028 C 322.850 183.180, 319.573 181.237, 317.218 179.710 C 314.863 178.184, 311.151 176.004, 308.968 174.866 C 306.786 173.729, 305 172.394, 305 171.899 C 305 170.282, 305.811 170.663, 321.500 179.646 C 334.683 187.194, 336.782 188.161, 337.490 187.016 C 337.836 186.457, 337.754 185.993, 337.309 185.985 C 336.864 185.976, 337.162 185.550, 337.972 185.038 C 339.222 184.248, 339.168 184.002, 337.621 183.408 C 336.538 182.992, 335.479 183.225, 335.011 183.982 C 334.053 185.532, 331.901 184.427, 332.549 182.718 C 332.814 182.018, 330.777 180.367, 327.755 178.833 C 317.996 173.881, 309.473 170, 308.356 170 C 306.946 170, 304.525 167.142, 305.288 166.378 C 305.604 166.063, 307.130 166.502, 308.681 167.355 C 310.231 168.207, 314.326 169.891, 317.781 171.097 C 321.235 172.304, 324.299 173.675, 324.590 174.145 C 324.880 174.615, 325.936 175, 326.937 175 C 327.937 175, 329.315 175.675, 330 176.500 C 330.685 177.325, 332.090 178, 333.122 178 C 334.155 178, 335 177.325, 335 176.500 C 335 175.578, 334.063 175, 332.571 175 C 331.236 175, 329.548 174.419, 328.821 173.709 C 327.653 172.569, 311.410 166, 309.757 166 C 308.679 166, 301.888 161.779, 302.301 161.365 C 302.514 161.153, 304.446 161.594, 306.594 162.347 C 308.742 163.100, 312.689 164.040, 315.365 164.436 C 320.327 165.171, 332.230 169.790, 332.833 171.214 C 333.017 171.646, 334.579 172, 336.306 172 L 339.444 172 337.413 169.968 C 336.295 168.851, 334.058 167.701, 332.441 167.413 C 328.896 166.782, 317.188 163.120, 314.764 161.885 C 313.809 161.398, 312.148 161, 311.073 161 C 309.998 161, 308.840 160.550, 308.500 160 C 307.713 158.727, 307.430 158.711, 319.381 160.595 C 324.946 161.473, 330.175 162.772, 331 163.482 C 331.872 164.233, 333.841 164.567, 335.704 164.280 C 339.654 163.672, 352.713 169.976, 359.802 175.914 C 369.270 183.845, 380.736 193.112, 390.250 200.522 L 400 208.116 400 203.104 C 400 198.317, 396.898 193, 394.105 193 C 392.953 193, 376.816 183.160, 368.072 177.126 C 363.987 174.307, 359.832 172, 358.839 172 C 354.965 172, 347.594 163.336, 347.404 158.560 C 347.308 156.151, 346.956 153.737, 346.621 153.195 C 346.286 152.653, 346.684 151.952, 347.506 151.636 C 348.328 151.321, 349 150.149, 349 149.031 C 349 147.892, 349.659 147, 350.500 147 C 351.325 147, 352 146.614, 352 146.142 C 352 145.670, 353.901 144.883, 356.224 144.392 L 360.447 143.500 356.607 139.250 C 351.353 133.435, 354.842 133.321, 364.258 139 C 367.906 141.200, 371.606 143, 372.480 143 C 374.186 143, 379.027 145.795, 380.235 147.477 C 380.658 148.066, 380.976 147.754, 380.985 146.740 C 380.993 145.772, 381.900 144.210, 383 143.268 C 387.444 139.463, 376.920 126.344, 368.515 125.211 C 366.324 124.915, 363.929 124.072, 363.194 123.337 C 361.607 121.750, 357.387 121.564, 356.475 123.041 C 355.799 124.135, 353.063 123.645, 349.188 121.735 C 347.439 120.873, 346.408 120.888, 344.952 121.798 C 342.617 123.256, 339 123.379, 339 122 C 339 121.450, 337.889 121, 336.531 121 C 334.748 121, 334.223 121.416, 334.638 122.500 M 70.127 182.250 C 67.099 191.542, 66.634 199.749, 69.091 200.529 C 75.638 202.607, 73.960 214.992, 67.280 213.892 C 64.850 213.492, 63 214.187, 63 215.500 C 63 216.325, 62.438 217.032, 61.750 217.070 C 61.063 217.109, 61.400 217.527, 62.500 218 C 63.865 218.586, 64.024 218.893, 63 218.965 C 62.061 219.031, 62.430 219.586, 63.987 220.448 C 65.356 221.205, 66.829 221.606, 67.262 221.338 C 67.695 221.070, 67.926 221.262, 67.775 221.765 C 67.624 222.267, 68.963 223.915, 70.750 225.428 C 73.590 227.831, 74 228.788, 74 233.017 C 74 235.980, 74.580 238.437, 75.496 239.353 C 77.884 241.742, 79.022 245.578, 77.727 246.873 C 77.003 247.597, 76.972 248, 77.639 248 C 78.211 248, 79.205 249.154, 79.848 250.565 C 80.727 252.495, 81.509 252.973, 83.008 252.497 C 84.255 252.102, 85 252.322, 85 253.086 C 85 255.128, 88.990 249.845, 89.145 247.597 C 89.825 237.775, 89.108 234.658, 85.384 231.235 C 82.585 228.662, 80.201 225.436, 81.817 226.409 C 82.689 226.933, 83.304 226.555, 83.634 225.292 C 83.908 224.242, 85.665 222.558, 87.538 221.550 C 89.410 220.541, 90.704 219.330, 90.412 218.858 C 90.121 218.386, 90.359 218, 90.941 218 C 91.523 218, 92 217.311, 92 216.469 C 92 215.626, 92.672 214.679, 93.494 214.364 C 94.316 214.048, 94.769 213.435, 94.501 213.001 C 94.232 212.567, 95.923 211.453, 98.256 210.526 C 103.400 208.483, 106.428 205.796, 108.078 201.811 C 109.359 198.718, 110.509 198.541, 116.627 200.491 C 118.432 201.066, 118.704 200.815, 118.419 198.835 C 118.235 197.551, 117.809 194.342, 117.474 191.704 C 116.925 187.386, 116.653 186.975, 114.750 187.579 C 113.588 187.948, 109.681 188.265, 106.069 188.284 C 102.456 188.303, 101.153 188.497, 103.174 188.715 C 108.301 189.268, 109.544 191.047, 107.528 194.945 C 106.134 197.642, 105.668 197.893, 103.855 196.922 C 102.073 195.969, 101.255 196.322, 98.097 199.405 C 93.477 203.917, 90.669 204.047, 88.573 199.846 C 86.388 195.465, 86.546 194.623, 90.311 190.632 L 93.621 187.122 91.071 186.482 C 89.668 186.130, 88.185 185.315, 87.775 184.671 C 87.220 183.797, 87.027 183.814, 87.015 184.739 C 86.988 186.932, 83.624 190, 81.246 190 C 78.327 190, 77.387 187.640, 78.944 184.222 C 80.055 181.784, 79.886 181.352, 76.826 178.813 C 72.388 175.131, 72.458 175.095, 70.127 182.250" stroke="none" fill="#1a1a2e" fill-rule="evenodd"/>
</svg>