<svg xmlns="http://www.w3.org/2000/svg" width="400" height="266" viewBox="0 0 400 266" version="1.1">
	<path d="M 297.945 77.338 C 295.500 77.799, 293.105 78.554, 292.623 79.015 C 292.141 79.477, 290.623 79.427, 289.251 78.905 C 287.639 78.293, 286.330 78.311, 285.551 78.958 C 284.783 79.595, 283.190 79.628, 281.172 79.049 C 279.427 78.549, 278 78.446, 278 78.820 C 278.001 79.194, 274.963 79.582, 271.250 79.682 C 259.085 80.010, 250.481 81.201, 243.500 83.523 C 241.884 84.061, 241.788 83.982, 243 83.110 C 243.906 82.458, 244.034 82.025, 243.321 82.015 C 242.673 82.007, 241.515 82.628, 240.748 83.395 C 239.893 84.250, 238.258 84.581, 236.528 84.250 C 234.655 83.892, 233.927 84.073, 234.368 84.786 C 234.733 85.378, 234.506 86.187, 233.862 86.585 C 233.131 87.037, 232.959 86.876, 233.405 86.155 C 234.407 84.533, 229.178 84.272, 228 85.884 C 227.725 86.261, 226.600 86.554, 225.500 86.535 C 224.400 86.516, 222.706 87.400, 221.736 88.500 C 220.701 89.673, 220.081 89.932, 220.236 89.125 C 220.381 88.369, 219.938 87.544, 219.250 87.292 C 218.563 87.040, 218 87.321, 218 87.917 C 218 89.036, 214.438 93, 213.433 93 C 213.121 93, 213.161 92.067, 213.523 90.928 C 214.163 88.911, 214.096 88.899, 211.061 90.468 C 209.345 91.356, 207.573 91.854, 207.122 91.575 C 206.672 91.297, 205.313 91.991, 204.104 93.118 C 202.343 94.758, 201.616 94.926, 200.453 93.961 C 199.428 93.110, 199 93.086, 199 93.878 C 199 94.495, 198.438 94.887, 197.750 94.750 C 197.063 94.612, 196.638 95.139, 196.806 95.919 C 197.046 97.027, 196.806 97.084, 195.714 96.178 C 194.945 95.540, 194.043 95.290, 193.710 95.623 C 193.377 95.956, 191.619 96.323, 189.802 96.438 C 187.880 96.559, 186.604 97.138, 186.750 97.823 C 186.978 98.896, 184.903 99.507, 182.564 99.057 C 180.872 98.730, 176.909 100.043, 177.364 100.779 C 177.609 101.176, 176.839 101.522, 175.655 101.549 C 174.470 101.576, 172.431 101.962, 171.125 102.406 C 169.256 103.042, 168.928 102.925, 169.586 101.857 C 170.120 100.991, 169.441 101.142, 167.711 102.273 C 166.039 103.366, 165 103.607, 165 102.901 C 165 102.069, 164.601 102.086, 163.544 102.964 C 162.743 103.628, 161.656 103.906, 161.129 103.580 C 160.602 103.254, 160.008 103.477, 159.808 104.075 C 159.609 104.673, 157.104 105.288, 154.242 105.442 C 151.381 105.597, 148.468 106.176, 147.769 106.731 C 147.071 107.286, 144.813 108.283, 142.750 108.947 C 140.688 109.612, 139 110.502, 139 110.925 C 139 111.349, 137.681 111.733, 136.069 111.779 C 134.456 111.825, 129.619 113.417, 125.319 115.317 C 112.175 121.126, 97.582 128.194, 96 129.519 C 94.354 130.897, 87.215 132.583, 79.472 133.423 C 75.234 133.882, 74.906 133.805, 77.250 132.898 C 81.660 131.191, 80.507 129.723, 71.865 126.043 C 63.176 122.343, 52.621 115.422, 53.499 114.002 C 53.792 113.527, 53.506 112.813, 52.862 112.415 C 52.088 111.937, 51.960 112.127, 52.485 112.975 C 53.414 114.479, 53.388 114.469, 45.191 110.199 C 40.431 107.719, 39.151 107.352, 39.975 108.706 C 40.576 109.693, 41.920 111.850, 42.961 113.500 C 44.002 115.150, 44.887 117.135, 44.927 117.911 C 44.967 118.687, 46.428 120.596, 48.173 122.154 C 49.918 123.713, 51.033 125.301, 50.650 125.683 C 50.267 126.066, 49.264 125.394, 48.420 124.190 C 44.939 119.220, 42.413 123.434, 45.419 129.196 C 46.379 131.036, 46.479 132.007, 45.733 132.256 C 45.042 132.486, 44.951 133.334, 45.484 134.560 C 46.537 136.983, 46.665 138.137, 47.891 156.296 C 48.441 164.435, 49.654 174.233, 50.587 178.072 C 51.519 181.910, 52.023 185.310, 51.706 185.627 C 51.389 185.945, 50.840 184.471, 50.487 182.352 C 49.540 176.677, 49.138 175.797, 47.853 176.591 C 47.132 177.036, 46.961 176.872, 47.402 176.159 C 48.759 173.963, 42.961 169.725, 41.013 171.488 C 38.877 173.421, 37.622 173.427, 38.362 171.500 C 38.678 170.675, 38.492 170, 37.947 170 C 37.403 170, 36.430 168.843, 35.785 167.428 C 34.178 163.900, 36.171 162.756, 40.659 164.631 C 47.267 167.392, 47.131 154.839, 40.520 151.827 C 39.134 151.196, 37.967 150.414, 37.926 150.089 C 37.334 145.398, 35 140.441, 35 143.877 C 35 144.718, 33.846 145.054, 31.612 144.861 C 29.705 144.697, 27.448 145.210, 26.449 146.035 C 25.089 147.158, 24.576 147.208, 24.254 146.250 C 24.023 145.563, 22.834 145, 21.613 145 C 20.392 145, 17.891 143.451, 16.057 141.559 L 12.722 138.117 10.525 141.309 C 8.231 144.640, 8.252 147, 10.576 147 C 11.375 147, 11.700 147.619, 11.362 148.500 C 11.045 149.325, 9.989 150, 9.015 150 C 8.042 150, 6.685 149.325, 6 148.500 C 5.315 147.675, 3.685 147, 2.378 147 C -1.639 147, -1.216 159.320, 2.873 161.434 C 4.453 162.251, 5.986 163.838, 6.279 164.960 C 6.665 166.436, 7.634 167, 9.784 167 C 11.418 167, 13.255 167.602, 13.866 168.338 C 14.476 169.074, 16.738 170.204, 18.892 170.849 C 22.074 171.803, 22.710 172.395, 22.287 174.011 C 21.745 176.083, 18.574 176.738, 17.500 175 C 17.160 174.450, 15.640 174, 14.121 174 C 12.448 174, 9.811 172.690, 7.430 170.676 C -0.615 163.873, 0 160.667, -0 209.418 L -0 252.773 3.044 253.220 C 6.533 253.732, 7.728 252.583, 5.944 250.432 C 4.486 248.676, 4.534 248.623, 8.899 247.148 C 14.984 245.093, 21.898 245.685, 25.705 248.588 C 29.404 251.410, 28.893 253.985, 24.628 254.015 C 23.166 254.026, 22.897 254.283, 23.768 254.836 C 26.829 256.779, 27.141 264.544, 24.189 265.323 C 23.260 265.568, 27.787 265.820, 34.250 265.884 C 40.713 265.948, 46 265.647, 46 265.216 C 46 263.862, 52.033 260.799, 53.552 261.381 C 55.329 262.063, 55.458 264.648, 53.750 265.338 C 53.063 265.615, 79.436 265.878, 112.359 265.921 L 172.217 266 166.609 260.391 C 163.524 257.307, 161 254.363, 161 253.851 C 161 253.339, 159.200 251.208, 157 249.115 C 154.473 246.711, 153 244.414, 153 242.877 C 153 238.790, 150.327 236, 146.412 236 C 140.661 236, 141.193 230.769, 147.146 228.785 C 148.510 228.330, 147.327 224, 145.839 224 C 145.275 224, 144.591 224.848, 144.320 225.884 C 143.205 230.146, 133.625 220.960, 130.833 212.952 C 130.267 211.328, 129.210 210, 128.483 210 C 126.662 210, 121.014 213.303, 121.006 214.372 C 121.003 214.852, 120.251 214.627, 119.336 213.872 C 117.828 212.628, 117.784 212.710, 118.871 214.750 C 119.824 216.538, 119.806 217.006, 118.785 217.029 C 117.159 217.066, 122.066 221.369, 129.369 226.310 C 135.492 230.453, 136.098 231.517, 132.913 232.528 C 130.198 233.389, 123.771 232.179, 124.531 230.949 C 124.854 230.427, 124.641 230, 124.059 230 C 123.477 230, 123 230.675, 123 231.500 C 123 233.661, 119.349 233.349, 116.986 230.986 C 115.077 229.077, 115.059 228.840, 116.640 226.426 C 118.156 224.113, 118.165 223.737, 116.739 222.310 C 114.209 219.780, 110.670 224.131, 109.050 231.763 C 107.586 238.665, 104.906 241, 98.453 241 C 93.975 241, 93.555 238.998, 96.542 231.901 C 97.928 228.606, 98.790 225.368, 98.457 224.705 C 98.124 224.042, 98.497 224.287, 99.286 225.250 C 101.059 227.413, 102 227.482, 102 225.448 C 102 224.594, 103.322 223.435, 104.937 222.872 C 107.017 222.147, 108.066 220.975, 108.532 218.856 C 108.893 217.211, 109.794 215.633, 110.533 215.349 C 111.273 215.065, 112.167 213.517, 112.520 211.908 C 112.874 210.299, 113.510 209.197, 113.934 209.459 C 116.224 210.874, 118.403 207.264, 116.767 204.767 C 114.702 201.616, 114.025 196.221, 115.290 193 C 116.652 189.531, 116.224 184.705, 114.467 183.721 C 113.660 183.270, 113 182.011, 113 180.925 C 113 179.051, 112.845 179.029, 110 180.500 C 107.276 181.909, 107 181.906, 107 180.467 C 107 179.544, 106.528 179.173, 105.870 179.580 C 105.182 180.006, 104.928 179.736, 105.221 178.889 C 105.486 178.125, 106.669 177.536, 107.851 177.579 C 109.033 177.623, 110 177.109, 110 176.436 C 110 174.884, 107.254 173.780, 106.486 175.023 C 105.429 176.732, 98 171.218, 98 168.725 C 98 168.170, 97.425 168.232, 96.658 168.869 C 95.920 169.481, 95.030 169.697, 94.682 169.348 C 93.108 167.775, 92.910 172.475, 94.410 175.804 C 95.325 177.837, 96.170 181.443, 96.287 183.817 L 96.500 188.135 90.304 190.189 C 83.072 192.588, 78.894 192.121, 79.709 189.004 C 80 187.894, 81.073 187, 82.117 187 C 83.152 187, 84 186.550, 84 186 C 84 185.450, 82.030 185, 79.622 185 C 76.951 185, 74.760 184.415, 74 183.500 C 72.312 181.466, 70.305 181.615, 67.273 184 C 64.468 186.207, 62 186.617, 62 184.877 C 62 181.332, 76.946 163.432, 85.879 156.278 C 89.521 153.362, 93.044 150.532, 93.708 149.988 C 95.630 148.416, 96.260 148.827, 95.651 151.254 C 95.107 153.424, 95.348 153.513, 102.043 153.631 C 109.812 153.768, 111.251 152.584, 104.750 151.405 C 102.412 150.981, 101.287 150.458, 102.250 150.244 C 103.213 150.029, 104 149.211, 104 148.427 C 104 146.425, 106.692 146.646, 107.932 148.750 C 108.733 150.109, 109.153 150.213, 109.812 149.216 C 110.290 148.492, 111.498 148.198, 112.580 148.542 C 114.355 149.105, 114.367 149.065, 112.729 148.014 C 111.755 147.389, 111.219 146.455, 111.538 145.939 C 112.385 144.569, 115.760 144.791, 116.271 146.250 C 116.598 147.185, 117.186 147.092, 118.604 145.880 C 119.647 144.990, 121.063 144.465, 121.750 144.714 C 123.481 145.341, 123.320 143.510, 121.512 142.010 C 120.307 141.010, 119.906 141.081, 119.405 142.387 C 118.620 144.432, 115.636 144.471, 113.965 142.458 C 113.075 141.385, 113.003 140.597, 113.730 139.870 C 114.456 139.144, 114.980 139.159, 115.451 139.921 C 115.914 140.671, 116.602 140.541, 117.634 139.509 C 121.510 135.633, 127.251 136.794, 125 141 C 123.720 143.391, 125.333 146.534, 126.792 144.492 C 127.181 143.946, 129.525 143.526, 132 143.558 C 134.475 143.591, 137.493 142.989, 138.706 142.222 C 139.919 141.455, 141.350 141.098, 141.885 141.429 C 142.419 141.759, 143.002 141.046, 143.179 139.843 C 143.621 136.834, 145.480 136.480, 147.938 138.938 C 150.397 141.397, 154.538 141.646, 155.405 139.386 C 155.827 138.288, 156.829 137.925, 158.536 138.252 C 159.918 138.516, 161.289 138.342, 161.583 137.866 C 162.449 136.464, 166 136.876, 166 138.378 C 166 141.490, 168.693 142.102, 168.781 139.010 C 168.911 134.428, 174 131.006, 174 135.500 C 174 137.162, 175.559 137.523, 176.457 136.070 C 176.773 135.558, 179.387 135.110, 182.266 135.075 C 190.847 134.971, 192 134.831, 192 133.894 C 192 132.533, 194.764 132.828, 195.338 134.250 C 195.615 134.938, 195.878 134.338, 195.921 132.917 C 195.977 131.091, 196.518 130.372, 197.768 130.464 C 200.997 130.702, 202.101 131.943, 200.968 134.061 C 199.380 137.027, 201.928 136.527, 205.509 133.170 C 208.771 130.111, 216.890 129.171, 217.751 131.752 C 218.294 133.383, 216.320 133.381, 215.662 131.750 C 215.259 130.750, 215.142 130.750, 215.079 131.750 C 215.032 132.497, 213.591 133, 211.500 133 C 208.997 133, 208 133.444, 208 134.559 C 208 135.481, 208.471 135.827, 209.152 135.406 C 209.786 135.014, 212.540 134.773, 215.273 134.869 C 218.005 134.966, 220.849 134.540, 221.593 133.923 C 222.475 133.191, 225.545 133.002, 230.426 133.381 C 234.892 133.727, 238.150 133.566, 238.512 132.980 C 239.311 131.688, 243.708 131.718, 244.513 133.021 C 244.884 133.621, 245.933 133.104, 247.052 131.771 C 248.508 130.038, 249.161 129.804, 249.810 130.784 C 250.781 132.250, 254.008 131.368, 253.985 129.643 C 253.963 127.995, 252.035 125.163, 252.015 126.750 C 251.994 128.479, 249.062 128.326, 248.385 126.561 C 248.081 125.769, 248.351 124.307, 248.985 123.311 C 250.027 121.673, 250.092 121.715, 249.664 123.745 C 249.184 126.017, 253.940 126.109, 254.833 123.845 C 255.514 122.119, 257.001 123.076, 257.015 125.250 C 257.042 129.191, 258.201 129.889, 264.166 129.557 C 267.262 129.385, 270.291 128.938, 270.898 128.563 C 271.504 128.189, 272.014 128.471, 272.032 129.191 C 272.053 130.054, 272.520 129.898, 273.405 128.733 C 274.203 127.681, 275.405 127.218, 276.373 127.590 C 277.333 127.958, 278 127.709, 278 126.982 C 278 126.151, 278.961 125.942, 280.956 126.341 C 283.144 126.779, 283.781 126.593, 283.410 125.626 C 282.054 122.092, 293.504 119.317, 301.638 121.208 C 304.587 121.894, 307 122.802, 307 123.227 C 307 123.652, 307.886 124, 308.969 124 C 310.339 124, 310.756 124.473, 310.340 125.556 C 308.181 131.182, 317.180 131.346, 325.166 125.826 C 328.288 123.668, 334 122.306, 334 123.720 C 334 125.197, 330.549 128, 328.730 128 C 327.844 128, 326.840 128.450, 326.500 129 C 326.160 129.550, 326.322 130, 326.859 130 C 327.397 130, 328.489 130.250, 329.287 130.557 C 330.217 130.914, 330.949 130.302, 331.329 128.850 C 331.654 127.606, 332.239 126.906, 332.629 127.295 C 333.580 128.247, 330.941 133.052, 329.579 132.847 C 327.641 132.555, 325 134.181, 325 135.666 C 325 136.465, 324.581 136.859, 324.069 136.543 C 323.557 136.226, 323.350 134.800, 323.609 133.373 C 324.038 131.009, 323.939 130.918, 322.501 132.356 C 320.585 134.272, 321.051 139.604, 323.106 139.281 C 330.745 138.084, 335 136.313, 335 134.331 C 335 133.599, 335.675 133, 336.500 133 C 337.325 133, 338 133.355, 338 133.789 C 338 134.223, 339.462 134.656, 341.250 134.752 C 345.536 134.981, 347.788 135.454, 348.638 136.304 C 349.020 136.687, 350.383 137, 351.667 137 C 353.247 137, 354 137.581, 354 138.800 C 354 141.142, 355.907 143, 358.311 143 C 359.980 143, 360.132 142.524, 359.511 139.250 C 359.120 137.188, 358.464 131.857, 358.054 127.404 C 357.218 118.337, 356.699 117, 354.008 117 C 352.068 117, 350.414 113.758, 351.476 112.038 C 351.810 111.499, 356.361 107.828, 361.591 103.880 C 371.964 96.049, 378.568 89.168, 377.110 87.710 C 375.838 86.438, 372 87.834, 372 89.567 C 372 90.355, 371.646 91, 371.212 91 C 370.779 91, 368.866 92.373, 366.962 94.051 C 364.130 96.547, 364.006 96.796, 366.281 95.416 C 369.746 93.314, 370.961 94.140, 367.622 96.328 C 366.280 97.207, 363.903 99.121, 362.341 100.580 C 356.709 105.839, 343.355 114.074, 341.570 113.389 C 340.275 112.891, 339.930 113.186, 340.175 114.582 C 340.976 119.152, 324.183 124.335, 321 120.500 C 320.315 119.675, 318.935 119, 317.933 119 C 315.193 119, 311.037 114.956, 308.637 109.955 C 306.865 106.261, 305.497 105.022, 300.630 102.704 C 294.359 99.716, 292.596 99.791, 295.432 102.924 C 297.115 104.784, 297.102 104.839, 295.103 104.317 C 293.959 104.017, 293.240 103.421, 293.506 102.991 C 293.771 102.561, 293.400 101.984, 292.681 101.708 C 290.759 100.970, 285.932 102.082, 286.571 103.114 C 286.872 103.601, 286.191 104, 285.059 104 C 281.556 104, 282.228 108.969, 285.750 109.111 C 287.804 109.193, 287.235 109.555, 283.500 110.542 C 271.947 113.595, 266.500 115.814, 266.639 117.410 C 266.825 119.535, 265.418 119.418, 263.116 117.116 C 261.909 115.909, 261.403 114.344, 261.706 112.757 C 262.282 109.743, 259.337 108.549, 256.480 110.638 C 254.056 112.411, 253.333 112.356, 253.333 110.403 C 253.333 109.524, 254.383 108.327, 255.667 107.742 C 258.186 106.594, 258.531 105.355, 256.985 103 C 256.109 101.667, 255.892 101.667, 255.032 103 C 254.408 103.967, 254.408 104.618, 255.032 104.833 C 255.564 105.017, 256 105.579, 256 106.083 C 256 107.466, 253.231 107.184, 252.729 105.750 C 252.414 104.849, 251.698 105.027, 250.165 106.388 C 248.510 107.856, 247.727 108.018, 246.641 107.117 C 245.531 106.196, 245.130 106.394, 244.689 108.083 C 244.199 109.956, 244.483 110.156, 247.085 109.774 C 248.919 109.505, 250.502 109.899, 251.261 110.815 C 252.288 112.053, 252.152 112.183, 250.411 111.630 C 249.051 111.199, 247.563 111.644, 246.088 112.924 C 243.894 114.826, 241.884 114.762, 239.226 112.702 C 238.525 112.159, 237.638 112.029, 237.255 112.412 C 236.872 112.795, 237.058 113.422, 237.668 113.804 C 238.460 114.301, 238.410 114.842, 237.493 115.693 C 235.694 117.362, 232.582 113.892, 233.444 111.178 C 234.204 108.783, 240.113 108.647, 241.180 111 C 241.684 112.112, 241.878 111.950, 241.930 110.372 C 242.020 107.640, 239.900 105.826, 237.993 107.004 C 237.077 107.571, 236.286 107.462, 235.818 106.706 C 235.255 105.794, 234.794 105.806, 233.842 106.758 C 232.292 108.308, 228.616 108.430, 229.562 106.900 C 230.039 106.127, 229.686 106.088, 228.371 106.767 C 225.569 108.215, 219.943 110.606, 216 112.024 C 214.075 112.717, 210.025 114.309, 207 115.562 C 203.975 116.816, 200.223 118.121, 198.662 118.462 C 196.387 118.959, 196.051 119.357, 196.969 120.463 C 197.834 121.505, 197.807 122.336, 196.857 123.857 C 195.339 126.288, 191.852 127.379, 190.840 125.741 C 189.785 124.034, 188.500 125.734, 188.500 128.836 C 188.500 131.051, 187.996 131.557, 185.514 131.839 C 182.564 132.174, 182.550 132.154, 184.383 130.129 C 185.637 128.744, 186.037 127.284, 185.619 125.618 C 185.080 123.471, 185.459 123.004, 188.567 121.978 C 194.763 119.933, 191.625 119.894, 183.403 121.914 C 175.569 123.838, 175.257 124.056, 179.900 124.349 C 183.342 124.566, 183.692 128, 180.272 128 C 178.869 128, 177.075 128.787, 176.286 129.750 C 175.497 130.713, 175.180 130.868, 175.580 130.095 C 176.076 129.140, 175.918 128.933, 175.086 129.447 C 174.414 129.862, 174.105 130.832, 174.400 131.601 C 175.011 133.193, 173.441 133.522, 172.500 132 C 171.404 130.227, 167.208 130.820, 167.361 132.726 C 167.493 134.370, 167.071 134.489, 162.393 134.125 C 161.397 134.048, 161.005 133.430, 161.362 132.500 C 161.712 131.586, 161.363 131, 160.469 131 C 159.661 131, 159 131.702, 159 132.559 C 159 133.433, 158.519 133.821, 157.906 133.442 C 157.304 133.070, 157.017 131.693, 157.267 130.383 C 157.611 128.585, 157.280 128, 155.920 128 C 153.782 128, 152.540 129.597, 153.984 130.490 C 155.472 131.410, 155.224 136.569, 153.627 137.895 C 151.837 139.380, 148.716 138.182, 149.443 136.289 C 149.749 135.490, 150 134.622, 150 134.359 C 150 134.097, 150.419 134.141, 150.931 134.457 C 151.443 134.774, 152.144 134.575, 152.490 134.016 C 152.835 133.457, 152.694 133, 152.176 133 C 151.657 133, 151 132.108, 150.715 131.018 C 150.134 128.796, 144.016 130.005, 143.985 132.348 C 143.974 133.161, 143.741 133.140, 143.194 132.279 C 142.415 131.054, 141.334 131.208, 132 133.872 L 128.500 134.871 132.500 134.459 C 134.700 134.232, 137.400 133.923, 138.500 133.773 C 140.116 133.552, 140.500 134.076, 140.500 136.500 C 140.500 139.716, 137.253 140.517, 132.500 138.472 C 130.594 137.652, 130.582 137.695, 132.250 139.377 C 134.930 142.081, 132.592 143.292, 129.036 141.043 C 128.230 140.534, 127.479 138.853, 127.367 137.308 C 127.254 135.764, 127.126 134.435, 127.081 134.355 C 127.037 134.276, 125.392 134.573, 123.427 135.016 C 120.577 135.659, 119.961 135.543, 120.383 134.443 C 121.080 132.629, 119.479 131.713, 116.991 132.503 C 114.632 133.252, 114.329 135, 116.559 135 C 117.416 135, 117.840 135.450, 117.500 136 C 116.150 138.184, 112.234 137.069, 111.540 134.302 C 111.035 132.292, 110.646 131.955, 110.011 132.982 C 108.847 134.865, 105.212 134.996, 104.515 133.179 C 103.221 129.807, 111.985 125.828, 119.750 126.262 C 123.336 126.463, 124.658 125.973, 123.831 124.750 C 123.407 124.123, 126.227 119.894, 126.732 120.399 C 127.046 120.712, 127.910 120.188, 128.654 119.234 C 129.649 117.956, 129.867 117.902, 129.481 119.028 C 129.061 120.251, 129.807 120.534, 133.228 120.448 C 138.682 120.311, 140.663 119.398, 141.369 116.696 C 141.917 114.600, 141.980 114.591, 143.315 116.416 C 144.268 117.719, 144.915 117.947, 145.406 117.151 C 145.798 116.518, 145.656 116, 145.091 116 C 142.275 116, 145.898 111.519, 148.913 111.275 C 150.673 111.132, 151.852 111.430, 151.538 111.939 C 151.224 112.446, 151.425 113.144, 151.984 113.490 C 152.543 113.835, 153.007 113.754, 153.015 113.309 C 153.066 110.651, 154.783 109.811, 157.124 111.297 C 159.883 113.049, 164 111.992, 164 109.532 C 164 107.561, 165.435 107.578, 167.429 109.571 C 168.293 110.436, 169 110.661, 169 110.071 C 169 109.482, 169.900 109, 171 109 C 172.100 109, 173 108.550, 173 108 C 173 107.450, 173.436 107, 173.969 107 C 174.501 107, 174.707 107.600, 174.425 108.334 C 173.765 110.054, 177.984 109.988, 179.821 108.250 C 181.026 107.110, 184.589 106.515, 187.750 106.925 C 188.438 107.015, 189 106.618, 189 106.044 C 189 105.470, 190.848 105, 193.107 105 C 196.267 105, 197.087 104.669, 196.662 103.563 C 195.984 101.796, 204.530 102.143, 208.047 104.025 C 209.565 104.838, 210.030 104.857, 209.554 104.088 C 209.129 103.400, 210.036 102.743, 211.934 102.363 C 213.620 102.026, 215 101.131, 215 100.375 C 215 99.154, 218.816 98.511, 224.750 98.731 C 225.438 98.757, 226 98.153, 226 97.389 C 226 95.393, 227.744 95.679, 229.732 98 C 232.126 100.796, 233.137 100.492, 231.938 97.337 C 231.232 95.480, 231.257 94.346, 232.022 93.587 C 232.814 92.802, 232.956 92.926, 232.534 94.036 C 231.961 95.543, 241.269 95.839, 247.500 94.513 C 250.086 93.963, 251.571 94.286, 251.225 95.324 C 251.074 95.778, 251.419 95.859, 251.992 95.505 C 252.564 95.151, 252.811 94.503, 252.540 94.065 C 251.656 92.634, 255.419 90.396, 259 90.222 C 262.485 90.053, 262.488 90.057, 259.750 91.110 C 258.238 91.691, 257 92.504, 257 92.917 C 257 94.654, 258.433 94.827, 261.156 93.419 C 262.753 92.594, 264.458 92.165, 264.945 92.466 C 265.433 92.768, 267.107 92.514, 268.666 91.903 C 271.630 90.741, 273.150 90.551, 286.932 89.624 C 295.090 89.076, 298.768 89.948, 297.430 92.113 C 296.419 93.750, 298.672 93.020, 300.347 91.169 C 301.948 89.400, 301.673 88, 299.726 88 C 299.209 88, 299.045 88.675, 299.362 89.500 C 299.678 90.325, 299.554 91, 299.085 91 C 298.617 91, 298 90.110, 297.716 89.022 C 297.271 87.320, 296.555 87.109, 292.599 87.509 C 288.193 87.955, 286.355 86.845, 289.500 85.638 C 290.325 85.322, 291 85.499, 291 86.031 C 291 86.564, 291.477 87, 292.059 87 C 292.641 87, 292.859 86.581, 292.543 86.069 C 291.521 84.416, 293.648 84.021, 295.603 85.500 C 299.226 88.243, 309.539 86.206, 306.651 83.318 C 305.657 82.324, 308.048 80, 310.063 80 C 311.064 80, 312.120 79.615, 312.411 79.144 C 312.702 78.674, 311.716 78.478, 310.220 78.710 C 307.586 79.118, 307.562 79.081, 309.477 77.540 C 311.730 75.725, 306.939 75.642, 297.945 77.338 M 336.575 82.434 C 332.904 85.576, 332.759 85.902, 334.325 87.468 C 336.728 89.871, 336.398 92.093, 333.250 94.715 L 330.500 97.005 333.452 95.950 C 336.240 94.954, 336.318 94.996, 334.854 96.698 C 334.002 97.689, 333.025 99.287, 332.683 100.250 C 332.342 101.213, 331.149 102.056, 330.031 102.125 C 328.914 102.194, 327.438 102.316, 326.750 102.397 C 326.003 102.485, 325.559 103.843, 325.647 105.772 C 325.797 109.036, 325.479 109.250, 320.500 109.250 C 316.884 109.250, 316 108.910, 316 107.519 C 316 106.705, 317.238 105.767, 318.750 105.436 C 324.206 104.240, 324.669 103.867, 322.150 102.697 C 320.235 101.807, 319.625 101.919, 318.851 103.303 C 318.306 104.275, 316.693 105, 315.073 105 C 310.226 105, 308.785 111.950, 313.446 112.847 C 314.468 113.044, 316.248 114.090, 317.402 115.170 C 319.498 117.134, 319.503 117.132, 322.250 113.856 C 323.871 111.922, 325.012 111.176, 325.030 112.038 C 325.053 113.115, 325.338 113.024, 326.111 111.695 C 326.887 110.362, 327.498 110.169, 328.448 110.957 C 329.391 111.739, 330.104 111.569, 331.117 110.320 C 331.878 109.383, 332.003 108.913, 331.396 109.277 C 330.783 109.644, 329.802 108.862, 329.190 107.517 C 328.312 105.591, 328.357 105.200, 329.410 105.604 C 330.138 105.883, 332.109 104.737, 333.790 103.056 C 336.697 100.149, 340 98.991, 340 100.878 C 340 102.071, 337.446 104.113, 336.783 103.449 C 336.489 103.156, 336.031 104.060, 335.763 105.458 C 335.477 106.956, 335.734 107.987, 336.389 107.968 C 337.876 107.926, 343 103.362, 343 102.079 C 343 101.520, 343.675 101.322, 344.500 101.638 C 345.326 101.955, 346 101.668, 346 101 C 346 100.332, 346.674 100.045, 347.500 100.362 C 348.325 100.678, 349 100.501, 349 99.969 C 349 99.436, 349.563 98.998, 350.250 98.995 C 353.494 98.983, 359.024 92.194, 357.995 89.487 C 357.118 87.180, 357.219 86.935, 358.831 87.446 C 359.952 87.802, 361.341 87.281, 362.405 86.105 C 364.852 83.401, 361.244 82.233, 356.995 84.353 C 354.106 85.794, 353.863 85.727, 349.907 82.422 C 344.719 78.088, 341.651 78.090, 336.575 82.434 M 397.250 105.662 C 396.563 105.940, 396 106.945, 396 107.896 C 396 114.643, 390.916 119.359, 388.341 115 C 386.537 111.947, 383.583 110.750, 384.638 113.500 C 384.955 114.325, 384.716 115, 384.107 115 C 383.498 115, 383 115.569, 383 116.265 C 383 120.083, 375.346 130.129, 374.016 128.057 C 372.251 125.304, 369 129.125, 369 133.953 C 369 136.713, 368.461 140.988, 367.801 143.454 C 367.142 145.919, 366.929 148.263, 367.329 148.662 C 368.668 150.001, 389.097 149.760, 390.468 148.389 C 391.409 147.448, 392.017 147.417, 392.864 148.264 C 393.531 148.931, 394 148.987, 394 148.400 C 394 147.850, 393.508 146.908, 392.907 146.307 C 392.117 145.517, 392.117 144.650, 392.907 143.173 C 394.147 140.857, 394.387 132.721, 393.250 131.583 C 392.837 131.171, 392.480 130.308, 392.455 129.667 C 392.430 129.025, 391.867 128.612, 391.205 128.750 C 390.542 128.887, 390 128.127, 390 127.059 C 390 124.363, 388.332 123.600, 387.092 125.729 C 386.185 127.287, 386.057 127.302, 386.030 125.857 C 385.994 123.874, 388.943 122.543, 390.320 123.920 C 390.874 124.474, 392.007 124.549, 392.903 124.092 C 396.783 122.112, 399.845 121.971, 400.342 123.749 C 400.996 126.095, 400.937 113.495, 400.271 108.750 C 399.740 104.969, 399.522 104.746, 397.250 105.662 M 338.781 157.742 C 337.932 158.709, 336.928 160.512, 336.551 161.750 C 336.174 162.988, 335.276 164, 334.555 164 C 333.834 164, 332.627 164.761, 331.872 165.692 C 330.689 167.151, 330.706 167.262, 332 166.500 C 333.255 165.760, 333.293 165.871, 332.233 167.181 C 331.536 168.042, 331.229 169.433, 331.551 170.272 C 331.873 171.111, 331.656 172.095, 331.068 172.458 C 329.720 173.291, 329.674 175, 331 175 C 331.550 175, 332 174.325, 332 173.500 C 332 172.675, 332.450 172, 333 172 C 334.334 172, 334.282 174.708, 332.932 175.542 C 332.344 175.905, 332.121 176.872, 332.435 177.691 C 333.292 179.925, 332.063 181.297, 330.424 179.937 C 329.655 179.298, 328.327 179.044, 327.474 179.371 C 326.459 179.761, 325.625 179.195, 325.062 177.733 C 324.295 175.745, 324.123 175.692, 323.493 177.250 C 323.104 178.213, 322.159 179, 321.393 179 C 320.627 179, 320 179.633, 320 180.406 C 320 182.481, 315.844 181.118, 315.250 178.849 C 314.736 176.882, 314.075 176.650, 311.642 177.584 C 310.416 178.054, 310.334 178.638, 311.220 180.584 C 312.018 182.335, 312.020 183.661, 311.228 185.399 C 310.627 186.719, 310.382 188.744, 310.684 189.899 C 311 191.107, 310.759 192, 310.117 192 C 308.507 192, 308.740 198.597, 310.409 200.266 C 312.419 202.276, 310.974 203.925, 305.904 205.409 C 302.473 206.414, 301.020 207.545, 299.327 210.529 C 297.248 214.196, 295.650 215.160, 291.703 215.131 C 289.351 215.113, 287.867 219.165, 288.220 224.644 C 288.525 229.379, 289.345 230.092, 290.979 227.040 C 291.830 225.450, 292.954 225.119, 296.930 225.290 C 301.637 225.492, 304.912 224.229, 302.194 223.261 C 300.590 222.690, 297 218.923, 297 217.811 C 297 216.560, 298.861 216.840, 302.723 218.673 L 306.249 220.346 305.640 226.173 C 305.161 230.751, 305.326 232, 306.408 232 C 311.480 232, 307.259 236.858, 301.817 237.284 C 300.562 237.382, 300.264 238.069, 300.645 239.977 C 301 241.752, 300.443 243.355, 298.829 245.199 C 297.548 246.662, 295.691 249.016, 294.703 250.430 C 292.626 253.401, 289.554 253.980, 290.425 251.236 C 290.776 250.131, 290.256 249.016, 289.032 248.252 C 286.526 246.687, 283.677 247.710, 284.502 249.879 C 284.996 251.178, 284.868 251.252, 283.859 250.250 C 282.036 248.440, 281 248.712, 281 251 C 281 252.625, 281.667 253, 284.559 253 C 286.516 253, 287.864 253.412, 287.553 253.915 C 287.242 254.418, 287.553 255.057, 288.244 255.336 C 289.242 255.738, 289.243 255.858, 288.250 255.921 C 286.387 256.039, 286.734 257.734, 289.107 260.107 C 291.100 262.100, 291.120 262.304, 289.487 263.857 C 288.083 265.193, 287.666 265.243, 287.255 264.125 C 285.373 259.002, 281.309 258.310, 280.779 263.021 L 280.500 265.500 340.463 265.500 L 400.425 265.500 400.118 222 C 399.924 194.706, 399.441 178.272, 398.819 177.888 C 398.275 177.552, 397.865 176.877, 397.910 176.388 C 398.170 173.512, 395.705 168.777, 394.794 170.404 C 394.178 171.504, 394.219 173.189, 394.909 175.168 C 396.101 178.587, 395.639 180, 393.327 180 C 392.169 180, 391.885 180.764, 392.213 183 C 392.469 184.745, 392.203 186.005, 391.577 186.011 C 390.985 186.018, 389.627 187.844, 388.561 190.069 C 385.540 196.374, 383.051 196.208, 383.015 189.699 C 383.003 187.454, 382.311 186.610, 379.532 185.449 C 374.930 183.526, 375.441 183.271, 371.487 189.454 C 369.172 193.072, 366.737 195.493, 364.249 196.650 C 362.187 197.608, 360.140 198.979, 359.700 199.696 C 357.763 202.855, 350.287 197.834, 351.279 194.039 C 351.761 192.198, 349.579 192.486, 347.131 194.588 C 346.928 194.762, 348.391 196.807, 350.381 199.132 C 352.372 201.457, 354.050 204.066, 354.111 204.930 C 354.331 208.054, 353.810 211.518, 352.992 212.372 C 352.532 212.851, 352.403 213.887, 352.705 214.673 C 353.516 216.787, 349.075 221.005, 346.076 220.970 C 343.844 220.943, 343.733 220.803, 345.250 219.920 C 346.212 219.359, 347 217.798, 347 216.450 C 347 214.667, 347.544 214, 349 214 C 350.883 214, 351.719 212.052, 350.402 210.736 C 349.412 209.745, 346.878 211.156, 346.159 213.098 C 345.650 214.476, 345.123 214.667, 343.993 213.883 C 342.869 213.103, 342.809 212.722, 343.750 212.341 C 345.239 211.736, 345.432 206.385, 343.996 205.498 C 343.444 205.157, 343.269 203.775, 343.608 202.427 C 344.084 200.529, 343.889 200.105, 342.740 200.546 C 341.909 200.865, 340.996 200.431, 340.660 199.557 C 340.332 198.701, 340.513 198, 341.064 198 C 342.635 198, 343.935 193.625, 342.624 192.750 C 341.810 192.207, 341.803 191.793, 342.600 191.250 C 345.985 188.943, 346.218 185, 342.970 185 C 341.950 185, 341.347 184.301, 341.457 183.250 C 341.809 179.903, 343.106 178.215, 344.952 178.698 C 345.954 178.960, 347.077 178.685, 347.446 178.087 C 347.816 177.489, 347.626 177, 347.024 177 C 346.240 177, 346.233 176.434, 347 175 C 347.589 173.900, 347.819 173, 347.512 173 C 347.205 173, 347.619 171.985, 348.431 170.745 C 351.413 166.194, 350.930 159.549, 347.590 159.168 C 345.989 158.986, 343.700 158.194, 342.502 157.410 C 340.575 156.147, 340.148 156.185, 338.781 157.742 M 258.106 208.901 C 254.839 211.953, 254.299 213.449, 256.068 214.542 C 256.656 214.905, 256.900 215.817, 256.612 216.569 C 256.323 217.321, 256.444 218.156, 256.880 218.426 C 258.859 219.649, 255.311 228.792, 252.102 230.740 C 250.351 231.803, 249.905 231.691, 248.980 229.962 C 247.664 227.503, 246.404 228.108, 245.753 231.510 C 245.339 233.680, 245.558 233.958, 247.259 233.418 C 249.377 232.745, 250.958 234.322, 250.985 237.133 C 251.008 239.631, 247.212 240.144, 245.142 237.923 C 242.975 235.596, 238.508 239.348, 237.630 244.234 C 237.359 245.737, 236.092 247.987, 234.813 249.234 C 233.535 250.480, 232.491 252.126, 232.494 252.891 C 232.500 254.299, 231.023 255.378, 227.644 256.437 C 226.232 256.879, 225.939 257.620, 226.418 259.530 C 226.765 260.911, 226.572 262.932, 225.989 264.021 C 224.947 265.967, 225.321 266, 248.596 266 L 272.262 266 271.664 262.315 C 271.059 258.587, 272.813 254.411, 277.048 249.500 C 279.694 246.432, 281.139 236.142, 279.315 233.358 C 276.349 228.832, 271 226.876, 271 230.318 C 271 231.933, 267.405 234.093, 265.765 233.463 C 264.892 233.128, 264.577 231.639, 264.826 229.025 C 265.097 226.186, 264.615 224.268, 263.093 222.131 C 261.507 219.904, 261.200 218.591, 261.854 216.835 C 262.332 215.551, 262.593 213.658, 262.433 212.629 C 262.272 211.600, 262.548 209.688, 263.046 208.379 C 264.328 205.006, 262.014 205.250, 258.106 208.901" stroke="none" fill="#1a1a2e" fill-rule="evenodd"/>
</svg>