<svg xmlns="http://www.w3.org/2000/svg" width="400" height="256" viewBox="0 0 400 256" version="1.1">
	<path d="M 249.953 51.344 C 245.428 52.978, 238.115 58.010, 231.313 64.170 C 224.885 69.990, 228.501 70.010, 200.402 64 C 174.793 58.522, 160.756 57.632, 138 60.040 C 130.993 60.782, 127.268 60.731, 123.805 59.848 C 118.234 58.427, 111.704 59.901, 109.756 63.019 C 109.046 64.156, 104.031 66.615, 97.526 69.017 C 91.462 71.256, 85.808 73.631, 84.963 74.294 C 83.100 75.756, 78.639 81.990, 79.141 82.430 C 79.338 82.604, 80.991 83.504, 82.814 84.431 C 86.833 86.476, 86.459 88.595, 82.141 88.246 C 80.414 88.107, 79 88.463, 79 89.039 C 79 89.615, 76.863 92.379, 74.250 95.181 C 69.384 100.401, 69.459 100.530, 76 98.189 C 76.825 97.893, 75.639 99.479, 73.365 101.713 C 69.254 105.751, 66.350 111.864, 67.330 114.418 C 68.430 117.284, 74.309 114.725, 84.796 106.816 C 88.515 104.011, 89.359 103.743, 91.087 104.822 C 92.184 105.507, 93.482 105.820, 93.972 105.517 C 95.454 104.601, 102 108.254, 102 109.997 C 102 112.259, 105.697 116, 107.933 116 C 108.954 116, 111.267 117.381, 113.074 119.070 C 115.248 121.100, 117.028 121.964, 118.333 121.623 C 119.419 121.339, 121.672 121.813, 123.341 122.677 C 125.766 123.930, 126.762 124.005, 128.293 123.049 C 129.902 122.044, 130.447 122.194, 131.701 123.983 C 132.610 125.281, 134.031 125.994, 135.336 125.807 C 138.056 125.417, 138.786 122.188, 136.324 121.438 C 135.321 121.133, 131.800 119.587, 128.500 118.003 C 118.805 113.351, 112.956 111, 111.072 111 C 109.055 111, 106 107.991, 106 106.005 C 106 105.269, 106.301 104.968, 106.669 105.336 C 107.037 105.703, 108.114 105.302, 109.062 104.444 C 111.052 102.643, 116.276 104.214, 118.927 107.411 C 120.654 109.493, 125.316 112, 127.461 112 C 128.874 112, 135.887 114.786, 140.206 117.063 C 141.145 117.558, 143.845 118.262, 146.206 118.629 C 151.639 119.473, 149.634 116.343, 143.290 114.076 C 136.098 111.506, 129.592 105.988, 132 104.500 C 132.550 104.160, 133.007 104.471, 133.015 105.191 C 133.026 106.142, 133.296 106.090, 134 105 C 134.828 103.718, 134.972 103.754, 134.985 105.250 C 134.993 106.213, 135.668 107, 136.485 107 C 137.302 107, 140.156 108.345, 142.827 109.989 C 149.909 114.346, 155.496 116.122, 164.420 116.852 C 169.875 117.298, 172.484 117.936, 172.803 118.900 C 173.186 120.057, 171.897 120.186, 165.383 119.643 C 158.239 119.048, 157.682 119.127, 159.441 120.493 C 161.095 121.777, 169.906 122.589, 178.739 122.270 C 179.421 122.246, 179.732 122.625, 179.430 123.113 C 179.129 123.601, 174.210 124, 168.500 124 C 162.790 124, 157.854 124.427, 157.531 124.950 C 156.328 126.897, 161.577 128.353, 169 128.131 C 194.852 127.356, 193.465 127.254, 193.848 129.966 C 194.093 131.706, 193.402 133.065, 191.499 134.583 L 188.802 136.733 191.421 137.391 C 192.862 137.753, 194.888 137.595, 195.922 137.042 C 197.514 136.190, 197.724 136.338, 197.288 138.005 C 196.965 139.243, 197.368 140.204, 198.372 140.589 C 199.757 141.121, 199.691 141.430, 197.883 142.894 C 194.994 145.233, 197.606 147.817, 201.014 145.992 C 206.079 143.282, 207.669 147.418, 203.055 151.300 C 199.905 153.951, 199.997 155.607, 203.199 153.893 C 204.265 153.323, 206.793 152.933, 208.818 153.025 C 214.305 153.276, 214.516 153.212, 217.316 150.411 C 222.331 145.396, 222.334 154.579, 217.319 160.245 C 214.007 163.988, 222.641 161.736, 226.745 157.786 L 230.160 154.500 229.469 158.250 C 228.606 162.928, 230.360 163.251, 235.074 159.284 C 237.986 156.834, 238.185 156.785, 237.115 158.784 C 235.756 161.324, 237.112 161.775, 239.058 159.430 C 239.774 158.567, 241.080 158.049, 241.960 158.279 C 246.011 159.339, 249.149 150.266, 249.058 137.750 C 248.983 127.263, 249.741 126.866, 258.959 132.556 C 265.567 136.634, 272.616 139, 278.159 139 L 282 139 282 134.469 C 282 131.452, 281.520 129.753, 280.563 129.386 C 279.773 129.083, 279.371 128.197, 279.670 127.417 C 279.989 126.586, 279.600 126, 278.729 126 C 277.913 126, 276.627 125.251, 275.872 124.336 C 274.623 122.822, 274.710 122.784, 276.836 123.917 C 278.120 124.602, 279.470 124.839, 279.836 124.444 C 280.201 124.049, 279.963 123.534, 279.306 123.298 C 278.650 123.063, 278.353 122.244, 278.647 121.477 C 280.318 117.122, 264.259 118.350, 260.458 122.868 C 257.566 126.305, 256.142 126.472, 257.911 123.166 C 258.710 121.673, 258.667 121.044, 257.742 120.701 C 252.353 118.705, 276.895 113.392, 285.500 114.692 C 288.250 115.107, 291.027 115.402, 291.671 115.348 C 292.315 115.293, 292.604 115.868, 292.314 116.624 C 291.972 117.516, 292.507 118, 293.834 118 C 294.960 118, 296.121 118.387, 296.414 118.861 C 298.053 121.512, 314.832 127.845, 327.353 130.537 C 335.252 132.235, 338.974 128.127, 338.994 117.684 C 338.997 116.136, 339.478 113.976, 340.062 112.885 C 341.481 110.233, 341.494 85.094, 340.076 83.676 C 339.484 83.084, 339 81.642, 339 80.471 C 339 79.301, 337.572 76.187, 335.827 73.553 L 332.654 68.762 327.577 69.347 C 324.063 69.752, 318.313 72.065, 308.902 76.860 C 287.860 87.581, 286.634 87.657, 260.750 79.843 C 253.182 77.558, 252.964 77.262, 256.554 74.140 C 258.097 72.799, 258.912 71.241, 258.611 70.209 C 257.803 67.432, 256.694 58.807, 256.593 54.518 C 256.486 49.947, 255.340 49.399, 249.953 51.344" stroke="none" fill="#1a1a2e" fill-rule="evenodd"/>
</svg>