<svg xmlns="http://www.w3.org/2000/svg" width="400" height="257" viewBox="0 0 400 257" version="1.1">
	<path d="M -0 128.502 L -0 257.005 200.250 256.752 L 400.500 256.500 400.754 128.250 L 401.008 0 200.504 0 L 0 0 -0 128.502 M 213.500 69.224 C 211.129 70.534, 210.036 71.992, 210.015 73.872 C 210.003 74.979, 210.290 75.004, 211.500 74 C 212.325 73.315, 213 72.135, 213 71.378 C 213 70.620, 213.436 70, 213.969 70 C 214.501 70, 214.700 70.617, 214.411 71.371 C 214.122 72.125, 214.657 73.038, 215.600 73.400 C 217.160 73.999, 217.123 74.237, 215.192 76.036 C 213.974 77.170, 213.320 78.670, 213.658 79.550 C 214.187 80.930, 214.421 80.929, 215.955 79.541 C 216.894 78.691, 217.963 78.297, 218.331 78.664 C 218.699 79.032, 219 78.733, 219 78 C 219 77.267, 219.236 76.902, 219.524 77.190 C 220.375 78.042, 218.872 81.039, 217.895 80.435 C 217.403 80.131, 217 80.359, 217 80.941 C 217 81.523, 217.675 82, 218.500 82 C 219.325 82, 220 82.450, 220 83 C 220 83.550, 220.505 84, 221.122 84 C 221.908 84, 221.933 83.624, 221.205 82.747 C 220.477 81.870, 220.533 80.992, 221.389 79.822 C 222.510 78.288, 222.725 78.330, 223.967 80.324 C 225.178 82.269, 225.155 82.362, 223.750 81.201 C 222.801 80.417, 221.942 80.284, 221.583 80.866 C 221.255 81.396, 221.449 81.983, 222.013 82.171 C 222.688 82.396, 222.554 84.729, 221.620 89.006 C 220.839 92.578, 220.156 94.905, 220.100 94.179 C 219.736 89.387, 215.053 89.629, 215.015 94.441 C 215 96.363, 214.985 96.363, 213.532 94.441 C 212.396 92.940, 212.042 92.840, 211.968 94 C 211.914 94.860, 211.477 94.513, 210.945 93.186 C 210.435 91.913, 209.583 91.140, 209.052 91.468 C 208.522 91.796, 208.369 92.798, 208.714 93.696 C 209.132 94.787, 208.952 95.088, 208.170 94.605 C 207.393 94.125, 207 94.742, 207 96.441 C 207 97.848, 206.590 99, 206.088 99 C 205.586 99, 204.872 100.800, 204.500 103 C 204.128 105.200, 203.414 107, 202.912 107 C 202.410 107, 202 108.125, 202 109.500 C 202 110.875, 201.550 112, 201 112 C 200.450 112, 200 113.125, 200 114.500 C 200 115.875, 199.550 117, 199 117 C 198.450 117, 198 117.873, 198 118.941 C 198 120.009, 197.550 121.160, 197 121.500 C 196.450 121.840, 196 123.216, 196 124.559 C 196 125.902, 195.550 127, 195 127 C 194.450 127, 194 128.125, 194 129.500 C 194 130.875, 194.506 132, 195.125 132 C 195.846 132, 196.031 133.096, 195.640 135.050 C 195.262 136.941, 195.404 137.868, 196.015 137.491 C 196.566 137.150, 197 138.036, 197 139.500 C 197 140.991, 197.431 141.852, 198 141.500 C 199.325 140.681, 199.289 137, 197.956 137 C 197.382 137, 197.005 136.438, 197.119 135.750 C 197.233 135.063, 196.962 133.195, 196.517 131.599 C 196.007 129.771, 196.131 128.019, 196.854 126.863 C 197.484 125.853, 198 124.566, 198 124.003 C 198 122.926, 200.894 116.101, 204.049 109.735 C 205.075 107.665, 206.209 104.402, 206.569 102.485 C 206.928 100.568, 207.623 99, 208.111 99 C 208.600 99, 209 98.325, 209 97.500 C 209 96.675, 209.397 96, 209.882 96 C 210.367 96, 210.162 97.688, 209.426 99.750 C 207.724 104.519, 207.672 106.723, 209.250 107.254 C 210.200 107.574, 210.020 109.095, 208.501 113.588 C 207.402 116.839, 206.615 119.838, 206.751 120.250 C 206.888 120.662, 206.492 121, 205.871 121 C 205.095 121, 204.949 122.561, 205.406 126 C 205.831 129.205, 205.698 131, 205.034 131 C 204.465 131, 204 129.875, 204 128.500 C 204 127.125, 203.602 126, 203.117 126 C 202.631 126, 202.018 127.125, 201.755 128.500 C 201.492 129.875, 201.665 131, 202.139 131 C 202.612 131, 203 132.125, 203 133.500 C 203 134.875, 203.450 136, 204 136 C 204.550 136, 205 135.148, 205 134.107 C 205 133.066, 205.714 131.940, 206.588 131.605 C 207.839 131.125, 208.032 130.152, 207.501 127.007 C 206.778 122.725, 208.144 117.825, 213.398 105.849 C 214.279 103.841, 215 101.703, 215 101.099 C 215 100.494, 215.499 100, 216.108 100 C 217.328 100, 216.419 105.111, 215.043 105.990 C 214.604 106.270, 213.925 108.412, 213.535 110.750 C 213.144 113.088, 212.414 115, 211.912 115 C 211.410 115, 211 115.873, 211 116.941 C 211 118.009, 210.550 119.160, 210 119.500 C 209.450 119.840, 209 120.991, 209 122.059 C 209 123.127, 209.450 124, 210 124 C 210.550 124, 211 125.125, 211 126.500 C 211 127.875, 210.550 129, 210 129 C 209.450 129, 209 130.125, 209 131.500 C 209 132.875, 209.392 134, 209.872 134 C 211.101 134, 212.055 127.136, 211.403 122.982 C 211.027 120.584, 211.368 118.878, 212.497 117.500 C 214.092 115.554, 214.120 115.574, 213.549 118.250 C 213.226 119.763, 213.395 121, 213.924 121 C 214.453 121, 214.869 118.851, 214.848 116.225 C 214.810 111.255, 218.541 101, 220.387 101 C 221.006 101, 220.963 101.437, 220.278 102.122 C 219.661 102.739, 219.394 103.864, 219.685 104.622 C 219.976 105.380, 219.716 106, 219.107 106 C 218.498 106, 218 106.900, 218 108 C 218 110.912, 219.888 110.447, 221.045 107.250 C 223.884 99.411, 225.494 98.252, 223.683 105.350 C 223.012 107.979, 222.194 109.861, 221.865 109.532 C 221.536 109.202, 220.994 110.638, 220.660 112.722 C 220.327 114.806, 219.142 118.400, 218.027 120.708 C 216.912 123.015, 216 125.627, 216 126.511 C 216 127.395, 215.550 127.840, 215 127.500 C 214.450 127.160, 214 127.719, 214 128.741 C 214 129.763, 213.512 131.088, 212.915 131.685 C 212.319 132.281, 212.015 133.834, 212.239 135.135 C 212.584 137.130, 212.754 137.226, 213.324 135.750 C 213.696 134.787, 214.304 133.213, 214.676 132.250 C 215.246 130.774, 215.416 130.870, 215.761 132.865 C 215.985 134.166, 215.681 135.719, 215.085 136.315 C 213.722 137.678, 213.662 141, 215 141 C 215.550 141, 216 140.319, 216 139.486 C 216 138.654, 216.558 137.079, 217.241 135.986 C 218.234 134.395, 218.221 133.583, 217.172 131.904 C 215.812 129.726, 215.890 129.448, 220.609 119.596 C 221.374 117.999, 222 116.287, 222 115.791 C 222 115.296, 222.842 113.002, 223.871 110.695 C 224.899 108.388, 225.989 105.825, 226.292 105 C 226.594 104.175, 226.878 104.963, 226.921 106.750 C 226.964 108.537, 226.600 110, 226.111 110 C 225.623 110, 224.917 111.630, 224.543 113.623 C 224.169 115.616, 223.496 117.978, 223.048 118.873 C 222.600 119.768, 221.787 121.625, 221.241 123 C 220.695 124.375, 219.743 126.759, 219.125 128.297 C 217.749 131.718, 217.740 132, 219 132 C 219.550 132, 220 131.319, 220 130.486 C 220 129.654, 220.397 128.191, 220.883 127.236 C 221.369 126.281, 222.223 124.375, 222.780 123 C 223.337 121.625, 224.965 117.900, 226.397 114.723 C 227.828 111.545, 229 108.433, 229 107.806 C 229 107.179, 229.233 106.899, 229.517 107.184 C 230.287 107.954, 227.790 118, 226.828 118 C 226.373 118, 226 118.900, 226 120 C 226 121.100, 225.550 122, 225 122 C 224.450 122, 224 123.125, 224 124.500 C 224 125.875, 223.550 127, 223 127 C 222.450 127, 222 127.873, 222 128.941 C 222 130.009, 221.550 131.160, 221 131.500 C 220.450 131.840, 220 133.243, 220 134.618 C 220 136.030, 219.565 136.849, 219 136.500 C 218.450 136.160, 218 136.782, 218 137.882 C 218 138.982, 217.550 140.160, 217 140.500 C 216.450 140.840, 216 142.179, 216 143.476 C 216 144.772, 215.610 145.983, 215.134 146.167 C 214.658 146.350, 214.626 147.400, 215.064 148.500 C 215.746 150.215, 215.869 150.248, 215.930 148.736 C 215.968 147.766, 216.417 146.191, 216.927 145.236 C 217.437 144.281, 218.109 142.684, 218.420 141.687 C 218.731 140.689, 219.446 140.158, 220.009 140.506 C 220.572 140.854, 220.793 141.526, 220.500 142 C 220.207 142.474, 220.425 143.144, 220.984 143.490 C 221.543 143.835, 222 143.229, 222 142.142 C 222 141.056, 221.438 139.978, 220.750 139.747 C 219.768 139.417, 219.796 138.704, 220.884 136.414 C 221.645 134.811, 222.602 132.600, 223.011 131.500 C 223.420 130.400, 225.142 126.575, 226.837 123 C 228.533 119.425, 230.348 114.925, 230.871 113 L 231.822 109.500 231.747 113.750 C 231.706 116.088, 231.296 118, 230.836 118 C 230.376 118, 230 118.900, 230 120 C 230 121.100, 229.550 122, 229 122 C 228.450 122, 228 122.930, 228 124.066 C 228 126.173, 226.287 130.097, 224.973 131 C 223.772 131.825, 222.625 140.350, 223.814 139.615 C 224.382 139.264, 225.156 137.520, 225.534 135.739 C 225.913 133.957, 226.794 131.825, 227.493 131 C 228.192 130.175, 229.071 128.375, 229.447 127 C 230.497 123.157, 234.213 116, 235.157 116 C 235.621 116, 236 115.270, 236 114.378 C 236 113.266, 235.591 113.030, 234.703 113.628 C 233.989 114.107, 234.290 113.692, 235.370 112.704 C 237.887 110.403, 240.152 106.054, 239.436 104.896 C 238.458 103.313, 237.040 103.941, 237.701 105.664 C 238.141 106.809, 237.962 107.095, 237.129 106.580 C 236.390 106.123, 236.194 104.988, 236.626 103.666 C 237.016 102.475, 237.408 100.600, 237.499 99.500 C 237.590 98.400, 238.469 97.344, 239.451 97.154 C 240.737 96.905, 241.001 97.184, 240.394 98.154 C 238.130 101.768, 238.861 103.667, 242.516 103.667 C 244.615 103.667, 245.907 103.226, 245.691 102.583 C 245.490 101.987, 244.077 101.651, 242.550 101.836 C 239.147 102.249, 239.938 100.436, 243.455 99.764 C 244.821 99.503, 245.700 99.677, 245.406 100.152 C 245.113 100.626, 245.485 101.249, 246.233 101.536 C 248.258 102.313, 247.046 112, 244.923 112 C 244.450 112, 244.322 112.675, 244.638 113.500 C 244.955 114.325, 244.730 115, 244.138 115 C 243.547 115, 243.322 115.675, 243.638 116.500 C 243.955 117.325, 243.746 118, 243.174 118 C 242.603 118, 241.849 118.900, 241.500 120 C 241.151 121.100, 240.420 122, 239.876 122 C 239.332 122, 239.563 120.763, 240.389 119.250 C 243.791 113.022, 246.644 104.484, 244.980 105.513 C 244.521 105.796, 243.594 107.709, 242.919 109.764 C 242.245 111.819, 240.716 115.075, 239.521 117 C 238.327 118.925, 236.281 123.200, 234.975 126.500 C 233.669 129.800, 232.240 132.927, 231.800 133.450 C 230.697 134.760, 230.790 140, 231.917 140 C 232.421 140, 233.324 138.762, 233.923 137.250 L 235.012 134.500 234.429 137.481 C 234.108 139.121, 233.768 140.865, 233.673 141.356 C 233.578 141.848, 234.063 142.456, 234.750 142.708 C 235.449 142.965, 236.035 142.358, 236.079 141.333 C 236.126 140.246, 236.366 140.017, 236.669 140.771 C 236.951 141.470, 236.714 143.383, 236.142 145.021 C 234.704 149.147, 236.673 148.928, 238.579 144.750 L 240.062 141.500 239.405 145 C 239.044 146.925, 238.329 148.768, 237.816 149.095 C 237.304 149.422, 237.183 150.881, 237.549 152.338 C 238.384 155.667, 239.902 154.941, 239.249 151.524 C 238.966 150.044, 239.229 149, 239.883 149 C 240.498 149, 241 148.293, 241 147.429 C 241 146.564, 241.675 145.182, 242.500 144.357 C 244.542 142.315, 244.448 144.434, 242.338 148.005 C 240.818 150.577, 240.812 150.955, 242.267 152.409 C 244.482 154.625, 245.262 154.395, 243.758 151.969 C 242.858 150.516, 242.813 149.734, 243.600 149.219 C 244.205 148.824, 245.135 147.173, 245.667 145.551 C 246.437 143.200, 246.765 142.946, 247.285 144.301 C 247.650 145.251, 247.463 146, 246.862 146 C 246.270 146, 246.045 146.675, 246.362 147.500 C 246.678 148.325, 246.501 149, 245.969 149 C 245.436 149, 245 149.675, 245 150.500 C 245 153.247, 246.675 152.048, 248.505 147.990 C 249.499 145.784, 250.523 144.190, 250.780 144.447 C 251.037 144.704, 250.889 145.721, 250.452 146.707 C 248.923 150.158, 248.860 154.209, 250.358 152.810 C 251.095 152.122, 251.499 150.646, 251.256 149.530 C 250.965 148.189, 251.356 148.472, 252.408 150.364 C 254.257 153.692, 254.383 154.355, 253 153.500 C 251.898 152.819, 251.615 154.282, 252.648 155.315 C 253.005 155.672, 254.185 154.959, 255.271 153.732 L 257.245 151.500 256.507 153.901 C 255.898 155.883, 256.060 156.191, 257.437 155.663 C 258.377 155.302, 258.849 155.436, 258.519 155.969 C 258.198 156.489, 259.412 157.674, 261.217 158.602 C 263.023 159.530, 270.350 165.331, 277.500 171.495 C 292.423 184.358, 299.672 190, 301.277 190 C 302.065 190, 302.042 189.642, 301.200 188.800 C 300.540 188.140, 300.015 187.127, 300.033 186.550 C 300.052 185.972, 300.925 186.529, 301.973 187.787 L 303.880 190.073 307.838 184.787 C 310.015 181.879, 313.922 175.450, 316.520 170.500 C 319.118 165.550, 321.864 160.790, 322.622 159.921 C 323.380 159.053, 324 157.680, 324 156.871 C 324 156.062, 324.372 154.972, 324.826 154.450 C 327.804 151.025, 329.530 136.111, 327.151 134.362 C 325.623 133.238, 325.626 133.161, 327.191 133.324 C 328.122 133.421, 328.909 133.162, 328.941 132.750 C 329.183 129.662, 328.853 128, 328 128 C 327.450 128, 327.113 128.552, 327.250 129.226 C 327.573 130.812, 323.102 131.502, 321.685 130.085 C 320.905 129.305, 321.289 128.978, 323.050 128.921 C 325.470 128.843, 325.466 128.830, 322.744 127.836 C 319.246 126.559, 320.132 125, 324.355 125 C 327.342 125, 327.609 124.731, 327.827 121.500 C 328.116 117.202, 323.419 116.029, 322.820 120.250 C 322.522 122.347, 321.958 122.515, 314.500 122.719 C 310.100 122.839, 298.835 123.684, 289.467 124.596 C 277.396 125.771, 271.128 125.976, 267.952 125.299 C 263.136 124.271, 261 124.550, 261 126.206 C 261 126.872, 261.496 126.833, 262.383 126.097 C 263.447 125.214, 263.897 125.289, 264.332 126.424 C 264.703 127.390, 264.425 127.717, 263.526 127.372 C 262.772 127.082, 261.220 127.780, 260.077 128.923 C 258.935 130.065, 258 130.577, 258 130.059 C 258 129.541, 258.450 128.840, 259 128.500 C 259.550 128.160, 260 127.403, 260 126.819 C 260 126.189, 259.328 126.312, 258.356 127.120 C 256.884 128.341, 256.792 128.223, 257.480 125.992 L 258.248 123.500 255.800 125.759 C 254.453 127.002, 253.055 127.721, 252.691 127.358 C 252.328 126.995, 252.724 126.191, 253.570 125.572 C 255.182 124.394, 254.600 121, 252.786 121 C 252.236 121, 252.008 121.577, 252.278 122.283 C 252.549 122.988, 251.922 124.613, 250.885 125.893 C 249.848 127.174, 249 127.797, 249 127.277 C 249 126.758, 249.338 125.996, 249.750 125.583 C 250.763 124.569, 250.809 118, 249.799 118.624 C 249.360 118.896, 249 120.468, 249 122.118 C 249 123.768, 248.601 124.872, 248.114 124.570 C 247.626 124.269, 246.982 124.963, 246.681 126.112 C 246.380 127.261, 245.681 127.921, 245.127 127.578 C 244.478 127.177, 244.632 125.894, 245.559 123.978 C 246.352 122.340, 247.586 119.763, 248.302 118.250 C 249.027 116.717, 249.312 114.394, 248.945 113 L 248.287 110.500 247.644 113.250 C 247.290 114.763, 246.745 117.211, 246.433 118.691 C 246.121 120.171, 245.067 122.083, 244.090 122.941 C 243.112 123.798, 242.053 125.175, 241.735 126 C 241.347 127.008, 241.132 126.762, 241.079 125.250 C 241.036 124.013, 241.378 123, 241.839 123 C 242.688 123, 245.326 118.347, 245.525 116.500 C 245.997 112.118, 247.298 109.255, 248.765 109.370 C 249.734 109.446, 250.519 108.669, 250.654 107.500 C 250.831 105.970, 250.764 105.911, 250.369 107.250 C 250.086 108.213, 249.447 109, 248.951 109 C 248.436 109, 248.406 108.035, 248.881 106.750 C 249.799 104.267, 249.291 101.895, 247.600 100.765 C 246.852 100.266, 246.919 100.026, 247.809 100.015 C 248.529 100.007, 248.871 99.601, 248.570 99.113 C 248.268 98.625, 248.804 98.288, 249.761 98.363 C 250.848 98.449, 251.448 97.844, 251.361 96.750 C 251.285 95.787, 251.902 95, 252.734 95 C 254.017 95, 254.042 94.736, 252.905 93.250 C 252.169 92.287, 251.948 91.822, 252.414 92.215 C 253.496 93.126, 257.229 91.179, 256.539 90.064 C 256.255 89.604, 257.030 88.883, 258.261 88.462 C 260.284 87.770, 260.185 87.657, 257.231 87.284 C 255.433 87.056, 254.222 86.450, 254.540 85.935 C 254.858 85.421, 254.390 85, 253.500 85 C 252.610 85, 252.160 85.450, 252.500 86 C 252.840 86.550, 252.679 87, 252.142 87 C 251.606 87, 250.940 86.438, 250.662 85.750 C 250.274 84.789, 250.140 84.802, 250.079 85.809 C 249.950 87.954, 248.008 86.067, 247.900 83.691 C 247.808 81.651, 247.745 81.673, 247 84 C 246.252 86.336, 246.193 86.280, 246.100 83.143 C 246.024 80.592, 245.640 79.924, 244.500 80.362 C 243.675 80.678, 243 80.501, 243 79.969 C 243 78.329, 240.158 78.898, 239.093 80.750 C 238.335 82.067, 238.204 81.511, 238.562 78.500 C 238.906 75.597, 238.789 75.048, 238.133 76.500 C 237.292 78.361, 237.179 78.308, 236.506 75.750 C 235.487 71.872, 233.717 72.294, 234.412 76.250 L 234.982 79.500 233.671 76.055 C 232.354 72.599, 230.501 73.122, 231.528 76.660 C 231.854 77.783, 231.600 77.623, 230.878 76.250 C 229.264 73.182, 228.200 73.420, 228.643 76.750 C 228.845 78.263, 228.749 78.825, 228.431 78 C 228.114 77.175, 227.470 75.600, 227 74.500 C 226.530 73.400, 225.889 71.825, 225.575 71 C 225.260 70.175, 225.147 70.945, 225.323 72.712 C 225.529 74.782, 225.144 76.115, 224.239 76.462 C 222.367 77.180, 221.978 77.141, 222.118 76.250 C 222.417 74.358, 221.905 73, 220.893 73 C 220.284 73, 220.016 73.600, 220.298 74.333 C 220.579 75.067, 220.274 75.667, 219.619 75.667 C 218.964 75.667, 218.429 74.842, 218.429 73.833 C 218.429 72.825, 219.007 72, 219.714 72 C 220.421 72, 221 71.534, 221 70.965 C 221 70.251, 220.399 70.251, 219.066 70.965 C 216.443 72.369, 216.188 72.297, 215.820 70.059 C 215.552 68.436, 215.173 68.299, 213.500 69.224 M 69 81.149 C 61.575 86.100, 53.906 91.692, 51.958 93.576 C 50.010 95.459, 48.073 97, 47.655 97 C 47.236 97, 45.230 98.134, 43.197 99.520 L 39.500 102.040 43.250 101.566 C 45.313 101.305, 47 101.314, 47 101.586 C 47 102.902, 42.574 107.855, 41.816 107.386 C 41.340 107.092, 41.074 107.303, 41.225 107.855 C 41.376 108.407, 40.616 109.518, 39.535 110.323 C 37.694 111.696, 37.781 111.763, 40.929 111.397 C 42.777 111.181, 44.819 110.565, 45.467 110.027 C 46.310 109.328, 47.035 110.041, 48.010 112.524 C 49.591 116.556, 50.051 116.707, 52.500 114 C 53.495 112.900, 54.878 112, 55.572 112 C 56.266 112, 56.984 111.547, 57.169 110.993 C 57.390 110.329, 58.524 110.315, 60.502 110.951 C 62.151 111.482, 65.525 112.272, 68 112.708 C 72.152 113.439, 72.524 113.751, 72.813 116.750 C 73.187 120.629, 74.612 120.946, 76.182 117.500 C 77.514 114.576, 78.700 114.284, 79.229 116.750 C 79.485 117.942, 80.051 117.303, 81.003 114.750 C 82.422 110.947, 83.382 110.191, 84.500 112 C 85.918 114.295, 87.018 112.718, 86.768 108.750 C 86.504 104.564, 86.552 104.495, 89.996 104.168 C 94.634 103.728, 96.260 102.223, 95.762 98.831 C 95.537 97.301, 95.837 95.847, 96.427 95.601 C 97.183 95.285, 97.175 94.908, 96.400 94.326 C 94.667 93.025, 94.185 90.666, 95.235 88.629 C 95.913 87.315, 95.872 86.961, 95.100 87.438 C 94.495 87.812, 94 87.641, 94 87.059 C 94 86.477, 94.338 86, 94.750 86 C 95.162 86, 95.500 84.389, 95.500 82.421 C 95.500 78.479, 93.093 75.901, 90.134 76.675 C 89.158 76.930, 87.774 76.433, 87.058 75.570 C 86.341 74.706, 85.173 74, 84.461 74 C 83.749 74, 83.017 73.583, 82.833 73.073 C 82.650 72.564, 76.425 76.198, 69 81.149 M 293.461 77.936 C 293.822 78.521, 294.955 79, 295.977 79 C 298.515 79, 301 80.030, 301 81.082 C 301 81.560, 299.846 81.512, 298.435 80.975 C 294.666 79.542, 293.343 79.787, 295.559 81.506 C 297.379 82.918, 297.330 82.951, 294.784 82.043 C 291.744 80.960, 286.005 81.095, 286.002 82.250 C 286.001 82.662, 285.073 83, 283.941 83 C 282.809 83, 282.160 83.450, 282.500 84 C 282.870 84.598, 281.621 85, 279.392 85 C 270.819 85, 277.921 86.398, 287.845 86.664 C 300.180 86.995, 309.561 88.731, 319.552 92.533 C 323.373 93.988, 330.337 96.622, 335.027 98.388 C 339.717 100.153, 345.687 103.064, 348.292 104.857 C 350.898 106.650, 355.830 109.506, 359.253 111.204 C 362.675 112.902, 366.606 115.093, 367.988 116.074 C 370.499 117.855, 381.719 120.614, 382.653 119.680 C 382.926 119.408, 380.600 118.444, 377.486 117.539 C 373.331 116.331, 368.643 113.489, 359.874 106.864 C 348.529 98.292, 337.701 92.309, 325.704 87.985 C 322.842 86.953, 315.961 84.348, 310.412 82.196 C 299.454 77.946, 292.366 76.164, 293.461 77.936" stroke="none" fill="#1a1a2e" fill-rule="evenodd"/>
</svg>