<svg xmlns="http://www.w3.org/2000/svg" width="400" height="286" viewBox="0 0 400 286" version="1.1">
	<path d="M -0 30.423 C -0 53.774, 0.290 60.969, 1.250 61.417 C 2.250 61.883, 2.250 62.117, 1.250 62.583 C 0.368 62.995, -0 66.214, -0 73.514 L 0 83.860 2.750 83.120 C 7.932 81.725, 9.186 82.646, 6.999 86.242 C 5.956 87.956, 5.369 89.788, 5.694 90.314 C 6.041 90.876, 4.997 91.080, 3.154 90.809 L 0.024 90.350 0.076 121.675 C 0.128 153.486, 0.134 153.534, 3.698 153.087 C 4.357 153.004, 5.368 153.819, 5.946 154.899 C 7.260 157.353, 4.644 160.402, 1.851 159.671 C 0.314 159.269, 0 159.772, 0 162.629 C 0 165.886, 0.120 166.006, 2.250 164.871 C 4.290 163.784, 4.372 163.828, 3.128 165.336 C 2.195 166.467, 2.125 167, 2.909 167 C 3.544 167, 4.303 166.375, 4.596 165.611 C 5.138 164.198, 9 164.548, 9 166.010 C 9 166.437, 9.698 167.054, 10.552 167.382 C 11.442 167.723, 11.843 167.555, 11.493 166.989 C 11.132 166.404, 12.439 165.994, 14.691 165.985 C 19.018 165.967, 21.573 164.737, 20.589 163.145 C 20.223 162.551, 20.840 161.492, 21.961 160.792 C 23.083 160.092, 24 159.167, 24 158.736 C 24 158.306, 22.875 158.691, 21.500 159.592 C 20.125 160.493, 19.007 160.841, 19.015 160.365 C 19.036 159.198, 20.965 156.267, 20.985 157.372 C 20.993 157.852, 21.627 157.724, 22.394 157.088 C 23.467 156.198, 24.136 156.279, 25.297 157.440 C 26.561 158.704, 26.892 158.723, 27.340 157.557 C 27.633 156.792, 27.235 155.920, 26.454 155.621 C 25.647 155.311, 25.293 154.399, 25.635 153.508 C 26.165 152.128, 26.398 152.154, 27.586 153.721 C 29.295 155.973, 29.385 159.656, 27.750 160.407 C 27.063 160.723, 27.537 160.722, 28.805 160.406 C 30.981 159.863, 31.084 160.060, 30.641 163.915 C 30.383 166.162, 30.583 168, 31.086 168 C 31.589 168, 31.888 168.506, 31.750 169.125 C 31.409 170.661, 37.270 172.689, 37.765 171.206 C 38.337 169.490, 41 171.006, 41 173.048 C 41 175.395, 42.846 176.554, 44.287 175.113 C 45.068 174.332, 45.077 174, 44.317 174 C 42.924 174, 41.900 170.180, 43.094 169.442 C 43.592 169.134, 44 169.359, 44 169.941 C 44 170.523, 45.017 171, 46.259 171 C 48.638 171, 51.486 167.595, 50.475 165.959 C 50.149 165.432, 50.610 165, 51.500 165 C 52.390 165, 52.857 164.578, 52.538 164.061 C 52.219 163.545, 52.576 162.758, 53.332 162.311 C 55.472 161.048, 55.836 158.623, 54.088 157.282 C 52.733 156.242, 52.948 156.059, 55.550 156.032 C 57.228 156.014, 59.140 155.460, 59.800 154.800 C 60.659 153.941, 61.307 153.907, 62.079 154.679 C 62.673 155.273, 64.670 155.555, 66.516 155.306 C 69.463 154.909, 70.069 155.233, 71.477 157.956 C 73.679 162.214, 72.654 163.334, 67.126 162.711 C 64.588 162.425, 61.722 162.614, 60.756 163.131 C 58.651 164.257, 58.402 168, 60.433 168 C 61.221 168, 62.157 168.919, 62.513 170.042 C 62.993 171.554, 63.692 171.915, 65.206 171.435 C 66.500 171.024, 67.015 171.167, 66.609 171.824 C 66.256 172.395, 66.494 173.187, 67.138 173.585 C 67.869 174.037, 68.041 173.876, 67.595 173.155 C 66.679 171.672, 69.681 171.644, 73.851 173.098 C 77 174.196, 77.799 175.388, 76.094 176.442 C 74.452 177.457, 76.047 180.801, 77.937 180.306 C 78.908 180.052, 80.331 180.442, 81.101 181.172 C 84.082 184.001, 92.027 183.117, 92.673 179.883 C 93.464 175.929, 96.027 176.034, 95.525 180 C 95.094 183.408, 95.632 183.647, 98.779 181.442 C 100.003 180.585, 101.372 180.112, 101.822 180.390 C 102.273 180.669, 104.044 180.043, 105.759 179 C 108.134 177.556, 109.588 177.308, 111.863 177.961 C 113.506 178.432, 115.108 178.558, 115.425 178.242 C 115.741 177.926, 116 178.218, 116 178.892 C 116 179.566, 116.457 179.835, 117.016 179.490 C 117.575 179.144, 117.791 178.470, 117.495 177.991 C 117.199 177.513, 117.754 177.157, 118.728 177.202 C 119.703 177.246, 120.950 177.166, 121.500 177.023 C 124.064 176.357, 128 177.128, 128 178.298 C 128 180.792, 137.728 179.876, 139.134 177.250 C 140.687 174.347, 142 174.374, 142 177.309 C 142 179.854, 144.913 184.540, 144.968 182.083 C 144.986 181.304, 145.247 180.913, 145.548 181.215 C 146.471 182.138, 142.614 190, 141.239 190 C 140.530 190, 139.531 191.103, 139.018 192.452 C 137.897 195.402, 132.964 198.214, 131.020 197.012 C 129.895 196.317, 129.957 195.715, 131.373 193.553 C 132.316 192.114, 133.518 191.202, 134.044 191.527 C 134.570 191.852, 135 191.585, 135 190.934 C 135 190.141, 133.967 189.957, 131.875 190.375 C 130.156 190.719, 128.405 191, 127.983 191 C 127.560 191, 125.522 193.220, 123.452 195.934 C 119.638 200.935, 114.076 202.358, 111.927 198.882 C 111.111 197.561, 107.876 197.532, 102.197 198.794 C 98.788 199.552, 97.587 199.444, 96.419 198.276 C 94.568 196.425, 92.888 197.648, 89.847 203.059 C 88.146 206.085, 87.146 206.842, 84.933 206.779 C 81.680 206.687, 80.621 204.239, 82.638 201.480 C 84.228 199.306, 84.446 196, 83 196 C 82.450 196, 82 196.377, 82 196.838 C 82 197.299, 80.425 197.735, 78.500 197.808 C 76.575 197.880, 75 197.534, 75 197.039 C 75 196.544, 73.987 195.995, 72.750 195.820 C 71.274 195.610, 70.500 194.812, 70.499 193.500 C 70.497 191.408, 65.553 190.428, 65.451 192.500 C 65.319 195.180, 63.700 197.960, 61.949 198.516 C 60.877 198.856, 59.996 199.667, 59.992 200.317 C 59.981 202.012, 55.206 204.119, 54.715 202.646 C 54.017 200.552, 48.708 203.775, 49.276 205.948 C 49.853 208.155, 45.159 212.876, 44.097 211.156 C 43.380 209.996, 40.778 211.187, 40.915 212.612 C 40.962 213.100, 40.438 213.500, 39.750 213.500 C 39.063 213.500, 38.444 214.063, 38.375 214.750 C 38.306 215.438, 38.194 216.398, 38.125 216.883 C 37.893 218.520, 33.978 218.835, 32.480 217.337 C 31.166 216.023, 30.923 216.038, 30.374 217.469 C 29.806 218.948, 29.594 218.943, 27.895 217.405 C 26.379 216.033, 25.758 215.956, 24.519 216.984 C 23.025 218.224, 22.436 217.382, 22.906 214.676 C 22.985 214.222, 22.567 214.150, 21.977 214.514 C 21.387 214.879, 20.978 215.925, 21.067 216.839 C 21.383 220.057, 20.980 220.283, 19 218 C 17.900 216.732, 16.993 216.100, 16.985 216.597 C 16.976 217.094, 16.568 216.865, 16.076 216.089 C 15.526 215.220, 15.621 213.979, 16.322 212.856 C 17.223 211.413, 17.111 210.682, 15.781 209.353 C 14.209 207.780, 14.136 207.827, 14.638 210.087 C 15.026 211.835, 14.905 212.120, 14.199 211.122 C 13.662 210.364, 12.728 210.050, 12.123 210.424 C 11.419 210.859, 11.249 210.515, 11.651 209.468 C 11.996 208.569, 13.228 207.410, 14.389 206.893 C 16.167 206.102, 16.058 206.042, 13.698 206.509 C 11.081 207.028, 10.972 206.921, 12.055 204.897 C 12.978 203.173, 13.392 203.013, 14.079 204.115 C 14.599 204.949, 14.704 203.908, 14.341 201.500 C 14.010 199.300, 13.282 197.050, 12.723 196.500 C 12.040 195.828, 11.938 195.911, 12.412 196.750 C 13.204 198.153, 12.133 198.371, 10.268 197.187 C 9.591 196.757, 9.227 195.416, 9.460 194.206 C 9.972 191.551, 7.373 189.900, 4.500 191.055 C 1.545 192.244, 1.191 192.169, 0.689 190.250 C 0.438 189.287, 0.180 193.512, 0.116 199.639 C 0.029 207.967, 0.315 210.766, 1.250 210.731 C 4.909 210.595, 7.049 211.112, 6.500 212 C 6.160 212.550, 6.445 213, 7.132 213 C 7.826 213, 7.518 213.669, 6.441 214.502 C 4.529 215.983, 4.530 215.996, 6.500 215.415 C 8.105 214.941, 7.945 215.336, 5.694 217.412 C 2.487 220.371, 0.768 220.768, 1.701 218.336 C 2.131 217.217, 1.957 216.909, 1.170 217.395 C 0.314 217.924, -0 227.219, -0 252.037 L 0 285.956 76 285.987 C 159.610 286.022, 153.958 286.464, 150.578 280.154 C 149.797 278.694, 148.911 276.712, 148.610 275.750 C 148.105 274.135, 145.164 273.399, 141 273.846 C 135.420 274.444, 133.585 274.153, 132.359 272.476 C 130.902 270.484, 132.921 267, 135.533 267 C 136.205 267, 137.315 266.325, 138 265.500 C 138.685 264.675, 140 264, 140.922 264 C 141.845 264, 143.150 263.450, 143.821 262.779 C 144.493 262.107, 145.820 261.509, 146.771 261.450 C 147.722 261.391, 149.738 261.265, 151.250 261.171 C 153.143 261.053, 154 260.452, 154 259.241 C 154 256.701, 157.841 254.421, 158.635 256.490 C 158.959 257.335, 158.702 258.654, 158.064 259.423 C 157.125 260.554, 157.484 260.947, 159.952 261.490 C 161.628 261.858, 163 262.798, 163 263.579 C 163 264.361, 163.450 265, 164 265 C 164.550 265, 165 265.620, 165 266.378 C 165 269.516, 168.078 270.549, 169.966 268.045 C 171.065 266.588, 172.341 265.917, 173.307 266.288 C 174.167 266.618, 175.012 266.533, 175.185 266.099 C 175.358 265.666, 178.282 265.979, 181.682 266.795 C 187.340 268.153, 188.006 268.137, 189.538 266.605 C 190.529 265.614, 191.982 265.177, 193.105 265.533 C 194.157 265.867, 195 265.660, 195 265.067 C 195 264.480, 196.077 264, 197.393 264 C 199.816 264, 201.521 266.295, 201.069 268.946 C 200.881 270.045, 201.144 270.126, 202.161 269.285 C 204.318 267.500, 209.360 267.334, 210.764 269 C 211.460 269.825, 211.933 270.050, 211.816 269.500 C 210.856 264.985, 214.385 262.798, 215.850 267 C 217.075 270.512, 217.518 270.749, 217.725 268 C 217.808 266.900, 217.468 266, 216.969 266 C 216.471 266, 216.321 265.328, 216.636 264.506 C 217.410 262.489, 213.035 260.800, 211.089 262.365 C 209.875 263.342, 209.875 263.170, 211.089 261.134 C 213.017 257.900, 218.104 252.802, 217.915 254.293 C 217.554 257.158, 218.154 258, 220.559 258 C 221.966 258, 222.854 258.427, 222.531 258.950 C 221.063 261.325, 225.919 262.053, 227.467 259.690 C 228.659 257.871, 229.674 257.445, 232.001 257.787 C 233.801 258.051, 235 257.782, 235 257.113 C 235 255.375, 238.712 255.807, 239.410 257.627 C 240.294 259.929, 238.031 262.239, 235.387 261.734 C 233.886 261.447, 233.008 261.863, 232.710 263.001 C 232.369 264.305, 232.842 264.633, 234.759 264.422 C 236.606 264.219, 236.960 264.440, 236.126 265.274 C 233.642 267.758, 234.918 269.914, 239.750 271.400 C 242.363 272.203, 244.050 272.892, 243.500 272.930 C 242.950 272.969, 242.425 274.462, 242.334 276.250 C 242.243 278.038, 241.854 280.965, 241.470 282.756 L 240.771 286.012 320.636 285.756 L 400.500 285.500 400.628 173.729 C 400.723 90.938, 400.464 62.162, 399.628 62.745 C 399.008 63.177, 397.825 63.464, 397 63.381 C 396.175 63.298, 394.959 63.179, 394.297 63.115 C 393.635 63.052, 392.348 61.429, 391.437 59.509 C 390.526 57.589, 389.385 56.262, 388.902 56.561 C 388.418 56.859, 388.311 56.353, 388.663 55.436 C 389.199 54.039, 389.832 54.329, 392.563 57.223 C 394.676 59.463, 396.646 60.618, 398.161 60.507 L 400.500 60.335 400.765 30.167 L 401.029 0 398.765 0.116 C 397.071 0.203, 396.941 0.347, 398.250 0.689 C 399.213 0.941, 400 1.739, 400 2.464 C 400 4.054, 393.562 4.994, 390 3.923 C 388.625 3.510, 387.950 3.130, 388.500 3.080 C 393.086 2.657, 382.321 0, 376.024 0 L 368.277 0 368.786 2.659 C 369.237 5.019, 369.431 5.132, 370.507 3.659 C 372.532 0.891, 373.291 1.781, 372.598 6.112 C 371.489 13.047, 374.708 14.720, 382 11 C 384.156 9.900, 386.951 9.010, 388.210 9.022 L 390.500 9.044 388 11 C 386.625 12.076, 385.893 12.966, 386.372 12.978 C 386.852 12.990, 386.661 13.704, 385.947 14.564 C 385.123 15.557, 383.799 15.916, 382.324 15.545 C 380.364 15.053, 380 15.347, 380 17.422 C 380 20.276, 378.058 22.006, 377.882 19.309 C 377.816 18.314, 377.791 17.237, 377.826 16.917 C 377.861 16.596, 377.239 16.333, 376.444 16.333 C 375.650 16.333, 375 16.756, 375 17.274 C 375 17.791, 374.292 17.942, 373.428 17.611 C 372.563 17.279, 371.020 17.454, 370 18 C 367.783 19.186, 366.881 16.862, 368.156 13.250 C 369.055 10.703, 366.401 9.999, 364.200 12.200 C 363.267 13.133, 363 13.015, 363 11.667 C 363 10.342, 362.233 9.974, 359.750 10.105 C 354.651 10.375, 354 10.135, 354 7.981 C 354 6.327, 354.452 6.075, 356.500 6.589 C 358.324 7.047, 359 6.816, 359 5.736 C 359 4.774, 357.550 4.024, 354.856 3.593 C 351.009 2.978, 350.848 2.829, 352.606 1.512 C 354.248 0.282, 346.362 0.088, 293.284 0.053 C 239.786 0.018, 232.139 0.199, 232.633 1.485 C 232.957 2.330, 234.115 2.807, 235.349 2.604 C 236.532 2.410, 237.950 2.601, 238.500 3.028 C 239.050 3.455, 241.412 4.316, 243.750 4.941 C 246.087 5.566, 248 6.510, 248 7.039 C 248 8.495, 243.267 8.189, 240.048 6.525 C 237.533 5.224, 237.128 5.224, 236.629 6.525 C 236.318 7.336, 235.572 8, 234.972 8 C 234.373 8, 234.160 7.550, 234.500 7 C 234.840 6.450, 234.641 6, 234.059 6 C 233.477 6, 233 7.125, 233 8.500 C 233 10.299, 233.539 11, 234.921 11 C 236.278 11, 237.045 11.953, 237.536 14.250 C 237.918 16.038, 238.641 18.011, 239.142 18.635 C 240.017 19.724, 235.789 21.631, 233.627 21.123 C 233.147 21.010, 232.982 21.512, 233.261 22.237 C 233.790 23.617, 229.649 23.983, 228.338 22.672 C 227.967 22.300, 226.838 22.741, 225.831 23.653 C 224.128 25.194, 224 25.194, 224 23.655 C 224 22.745, 224.675 22, 225.500 22 C 226.325 22, 227 21.550, 227 21 C 227 20.450, 227.675 20, 228.500 20 C 230.537 20, 230.395 18.320, 228.256 17.124 C 226.649 16.224, 226.703 15.945, 228.943 13.561 C 230.585 11.813, 231.702 11.302, 232.387 11.987 C 232.944 12.544, 233.760 13, 234.200 13 C 234.640 13, 234.213 12.186, 233.250 11.192 C 231.834 9.729, 231.343 9.642, 230.676 10.736 C 229.709 12.321, 225.918 11.454, 224.700 9.369 C 223.616 7.512, 221.641 7.623, 222.362 9.500 C 222.678 10.325, 222.532 11, 222.036 11 C 221.540 11, 220.849 11.900, 220.500 13 C 220.151 14.100, 219.390 15, 218.810 15 C 218.154 15, 218.226 14.432, 219 13.500 C 219.993 12.303, 219.993 12, 219 12 C 218.096 12, 218.049 11.646, 218.827 10.709 C 219.621 9.752, 219.416 9.116, 218.038 8.256 C 216.534 7.316, 216.059 7.404, 215.556 8.714 C 215.104 9.893, 214.634 10.034, 213.834 9.234 C 212.130 7.530, 213.551 5.292, 216.157 5.577 C 217.446 5.718, 218.950 5.878, 219.500 5.932 C 220.050 5.986, 219.825 6.467, 219 7 C 217.718 7.828, 217.754 7.972, 219.250 7.985 C 220.351 7.994, 221 7.242, 221 5.956 C 221 4.832, 220.437 3.985, 219.750 4.075 C 217.135 4.414, 215.907 3.960, 216.564 2.896 C 216.939 2.289, 216.066 2.566, 214.623 3.511 C 211.665 5.450, 211.165 4.581, 213.655 1.829 C 215.200 0.122, 215.191 0, 213.515 0 C 212.528 0, 211.123 0.788, 210.392 1.750 C 209.220 3.294, 209.060 3.309, 209.032 1.882 C 209.001 0.317, 199.145 0.037, 190 1.341 C 188.625 1.537, 187.153 1.203, 186.730 0.598 C 186.218 -0.131, 185.296 0.291, 183.987 1.851 C 182.249 3.924, 181.938 4.003, 181.368 2.518 C 180.854 1.176, 180.549 1.104, 179.876 2.166 C 179.223 3.196, 179.027 3.113, 179.015 1.801 C 179.001 0.257, 178.689 0.232, 175.599 1.523 C 172.694 2.737, 172.030 2.741, 171.042 1.551 C 169.425 -0.398, 150.960 -0.267, 151.711 1.688 C 151.987 2.410, 151.603 3.045, 150.857 3.099 C 150.111 3.154, 148.150 3.340, 146.500 3.512 C 143.022 3.876, 136.871 2.018, 137.608 0.826 C 137.883 0.380, 107.034 0.015, 69.054 0.014 L -0 0.013 -0 30.423 M 308 2.830 C 308 3.287, 306.313 3.593, 304.250 3.512 C 302.188 3.430, 300.226 3.769, 299.890 4.264 C 298.639 6.111, 286.882 6.472, 287.584 4.641 C 288.238 2.937, 287.252 2.582, 284.645 3.583 C 283.810 3.903, 283.328 4.691, 283.574 5.333 C 283.881 6.133, 282.052 6.568, 277.761 6.715 C 270.648 6.959, 268.357 7.309, 267.362 8.304 C 266.294 9.373, 264.802 9.129, 265.500 8 C 265.840 7.450, 265.664 7, 265.109 7 C 264.554 7, 263.740 7.611, 263.300 8.358 C 262.860 9.106, 261.155 10.412, 259.511 11.261 L 256.523 12.806 261.511 13.423 C 266.838 14.083, 276.798 16.847, 278.574 18.159 C 279.164 18.595, 280.177 18.423, 280.824 17.776 C 281.725 16.875, 282 16.894, 282 17.859 C 282 18.551, 282.450 18.840, 283 18.500 C 283.550 18.160, 284 18.321, 284 18.858 C 284 20.356, 281.757 20.808, 279.136 19.838 C 277.185 19.116, 276.879 19.243, 277.386 20.563 C 277.724 21.443, 278 22.603, 278 23.141 C 278 23.678, 278.393 23.875, 278.874 23.578 C 279.355 23.281, 280.953 24.154, 282.426 25.519 C 283.898 26.883, 286.092 28.052, 287.302 28.116 C 289.012 28.206, 289.109 28.334, 287.738 28.692 C 286.769 28.945, 286.213 29.535, 286.502 30.004 C 286.792 30.472, 286.116 31.146, 285 31.500 C 283.884 31.854, 283.234 32.569, 283.555 33.088 C 283.876 33.608, 284.557 33.774, 285.069 33.457 C 286.388 32.642, 286.223 35.128, 284.750 38.256 C 283.524 40.860, 279.117 41.255, 278.167 38.845 C 277.699 37.660, 272.250 37.787, 271.500 39 C 270.944 39.899, 272.257 40.433, 274.250 40.118 C 275.636 39.900, 275.016 43.057, 273.563 43.614 C 271.672 44.340, 272.622 46.668, 275.069 47.308 C 277.137 47.849, 277.808 46.436, 275.801 45.767 C 275.063 45.521, 275.276 45.108, 276.352 44.695 C 277.400 44.293, 277.858 44.420, 277.493 45.011 C 277.157 45.555, 277.359 46, 277.941 46 C 278.523 46, 279 46.675, 279 47.500 C 279 48.994, 277.855 49.430, 275 49.023 C 274.175 48.906, 273.834 49.149, 274.241 49.563 C 274.649 49.977, 274.492 50.907, 273.892 51.630 C 273.085 52.603, 273.217 53.360, 274.401 54.544 C 275.592 55.735, 276.008 55.806, 276.030 54.821 C 276.050 53.970, 276.415 54.107, 277.057 55.208 C 277.606 56.151, 278.714 56.663, 279.526 56.351 C 280.337 56.040, 281 56.284, 281 56.893 C 281 57.502, 281.927 58, 283.059 58 C 284.440 58, 284.871 57.588, 284.367 56.750 C 283.868 55.920, 284.192 55.967, 285.329 56.890 C 286.271 57.654, 288.045 58.414, 289.271 58.579 C 290.497 58.744, 293.057 59.352, 294.960 59.930 C 298.967 61.147, 300.176 60.388, 299.337 57.182 C 298.946 55.687, 297.748 54.700, 295.870 54.324 C 294.292 54.008, 293 53.330, 293 52.816 C 293 52.302, 292.586 52.138, 292.081 52.450 C 291.575 52.763, 290.450 52.307, 289.581 51.438 C 288.711 50.568, 288 50.339, 288 50.929 C 288 52.352, 283.704 52.304, 282.264 50.864 C 281.417 50.017, 281.451 49.406, 282.401 48.456 C 283.751 47.106, 291 44.785, 291 45.703 C 291 46.001, 291.632 45.720, 292.404 45.079 C 294.286 43.518, 305.768 44.314, 309.567 46.269 C 313.445 48.266, 320 50.036, 320 49.086 C 320 48.672, 320.632 48.333, 321.405 48.333 C 322.177 48.333, 322.622 48.822, 322.393 49.419 C 321.720 51.173, 340.243 56.399, 348.809 56.872 C 350.079 56.943, 350.859 57.419, 350.543 57.931 C 350.226 58.443, 350.425 59.144, 350.984 59.490 C 351.543 59.835, 352 59.656, 352 59.090 C 352 58.525, 352.788 58.350, 353.750 58.701 C 355.297 59.265, 355.271 59.059, 353.527 56.920 C 352.441 55.589, 352.194 55.063, 352.977 55.750 C 354.996 57.524, 358 57.301, 358 55.378 C 358 54.049, 358.271 53.980, 359.500 55 C 360.741 56.030, 361.011 55.922, 361.063 54.372 C 361.113 52.905, 361.341 53.036, 362.115 54.976 C 362.859 56.841, 363.308 57.120, 363.935 56.106 C 364.594 55.038, 364.985 55.147, 365.825 56.630 C 366.852 58.443, 366.931 58.439, 368.410 56.500 C 369.254 55.394, 369.951 55.059, 369.968 55.750 C 370.022 57.862, 372 57.132, 372 55 C 372 52.708, 373.012 52.450, 374.936 54.250 C 376.031 55.275, 376.174 55.094, 375.730 53.250 C 375.362 51.726, 375.641 51, 376.594 51 C 377.367 51, 378 51.436, 378 51.969 C 378 52.501, 378.694 52.671, 379.542 52.346 C 380.390 52.020, 380.953 50.978, 380.792 50.031 C 380.631 49.083, 381.020 47.676, 381.655 46.904 C 382.811 45.499, 383.341 43.494, 383.118 41.367 C 382.956 39.816, 378.729 38.820, 377.913 40.141 C 377.451 40.888, 376.620 40.867, 375.127 40.068 C 373.896 39.409, 373 39.333, 373 39.888 C 373 40.415, 371.762 40.241, 370.250 39.500 C 367.417 38.113, 357.722 37.945, 356.407 39.260 C 354.507 41.159, 351.767 40.001, 352.245 37.500 C 352.640 35.431, 352.334 35, 350.468 35 C 349.228 35, 347.992 34.422, 347.721 33.715 C 347.235 32.448, 339.384 31.534, 330.250 31.680 C 326.454 31.741, 326 31.501, 326 29.433 C 326 26.882, 327.594 25.283, 328.232 27.195 C 328.513 28.038, 328.837 28.073, 329.308 27.311 C 329.701 26.674, 328.441 25.488, 326.281 24.463 C 321.645 22.263, 314.504 21.376, 313.571 22.885 C 312.609 24.442, 311 24.278, 311 22.622 C 311 21.864, 309.988 20.497, 308.750 19.584 C 307.512 18.670, 307.175 18.093, 308 18.299 C 308.825 18.506, 310.048 17.961, 310.718 17.088 C 311.817 15.656, 311.940 15.672, 311.968 17.250 C 312.001 19.052, 314 19.790, 314 18 C 314 17.450, 314.337 17.053, 314.750 17.118 C 315.163 17.184, 315.950 17.132, 316.500 17.003 C 319.264 16.357, 320.668 16.652, 322.439 18.250 C 324.682 20.275, 326.466 20.580, 325.367 18.750 C 324.796 17.799, 324.961 17.765, 326.058 18.606 C 328.917 20.798, 332.081 20.928, 333.796 18.926 C 334.703 17.867, 336.046 17, 336.781 17 C 337.516 17, 337.864 16.588, 337.553 16.085 C 337.242 15.582, 337.549 14.984, 338.235 14.755 C 342.507 13.331, 326.790 6.365, 316.995 5.342 C 312.638 4.886, 311.298 4.387, 311.690 3.366 C 312.031 2.478, 311.477 2, 310.107 2 C 308.948 2, 308 2.374, 308 2.830 M 131.790 25.027 C 129.222 27.952, 126.708 28.312, 121.147 26.547 C 119.894 26.149, 119.020 26.506, 118.606 27.584 C 118.176 28.706, 117.185 29.077, 115.488 28.753 C 113.805 28.431, 113 28.726, 113 29.664 C 113 30.696, 114.372 31.006, 118.354 30.876 C 121.298 30.780, 124.309 31.073, 125.044 31.527 C 125.780 31.982, 128.321 32.254, 130.691 32.131 C 133.166 32.003, 135 32.353, 135 32.954 C 135 33.529, 135.338 33.926, 135.750 33.836 C 137.216 33.515, 142 35.231, 142 36.077 C 142 36.550, 142.720 36.661, 143.601 36.323 C 144.481 35.985, 145.555 36.281, 145.988 36.980 C 146.420 37.679, 148.394 38.308, 150.374 38.376 C 152.354 38.444, 154.200 39.086, 154.476 39.802 C 154.752 40.518, 154.536 40.831, 153.996 40.498 C 153.457 40.164, 152.297 40.294, 151.419 40.785 C 149.286 41.979, 152.066 44.992, 155.321 45.015 C 159.261 45.043, 162.393 49.782, 161.281 54.033 C 160.853 55.672, 161.070 56.137, 162.098 55.776 C 162.869 55.506, 163.438 54.546, 163.361 53.642 C 163.285 52.739, 163.622 52, 164.111 52 C 164.600 52, 165 52.388, 165 52.861 C 165 54.154, 169.793 52.982, 170.340 51.556 C 170.974 49.905, 170.017 48.683, 167 47.290 C 165.012 46.372, 164.880 46.121, 166.356 46.068 C 167.376 46.030, 169.577 47.149, 171.246 48.553 C 172.915 49.958, 174.925 50.859, 175.712 50.557 C 177.102 50.024, 180.987 51.551, 182 53.029 C 182.275 53.430, 186.438 55.643, 191.250 57.946 C 196.063 60.249, 200 62.516, 200 62.985 C 200 63.453, 200.273 64.548, 200.607 65.418 C 201.005 66.456, 200.662 67, 199.607 67 C 198.723 67, 198 66.501, 198 65.892 C 198 65.194, 197.025 65.028, 195.367 65.444 C 193.548 65.901, 191.153 65.334, 187.617 63.612 C 178.389 59.118, 173 57.405, 173 58.966 C 173 59.314, 171.430 59.415, 169.510 59.191 C 166.944 58.891, 165.854 59.216, 165.393 60.417 C 164.934 61.615, 164.425 61.768, 163.489 60.991 C 162.568 60.226, 161.797 60.346, 160.725 61.418 C 159.907 62.236, 158.999 62.666, 158.707 62.374 C 157.035 60.702, 149.507 61.393, 150.575 63.121 C 150.885 63.622, 151.464 63.831, 151.862 63.586 C 152.259 63.340, 152.646 63.948, 152.720 64.938 C 152.877 67.011, 148.290 66.868, 137.500 64.465 C 127.426 62.222, 123.181 67.527, 130.898 72.716 C 132.767 73.972, 133.892 75.069, 133.398 75.152 C 132.904 75.236, 131.825 75.370, 131 75.449 C 130.175 75.528, 129.613 76.135, 129.750 76.797 C 129.970 77.857, 128.036 78.387, 124.329 78.282 C 123.685 78.264, 123.393 78.859, 123.679 79.606 C 124.065 80.612, 124.692 80.700, 126.100 79.947 C 127.953 78.955, 128.734 79.933, 127.263 81.404 C 126.857 81.809, 126.520 82.897, 126.513 83.821 C 126.505 84.799, 125.555 85.634, 124.235 85.821 C 122.990 85.998, 122.182 86.486, 122.441 86.905 C 122.700 87.324, 122.257 87.667, 121.456 87.667 C 120.655 87.667, 120 86.794, 120 85.726 C 120 84.556, 120.510 83.982, 121.286 84.279 C 122.053 84.574, 122.571 84.013, 122.571 82.886 C 122.571 81.849, 122.191 81, 121.727 81 C 121.262 81, 121.157 80.555, 121.493 80.011 C 121.856 79.424, 121.407 79.290, 120.388 79.681 C 119.224 80.128, 118.904 79.964, 119.395 79.170 C 119.833 78.461, 119.481 78, 118.500 78 C 117.610 78, 117.160 77.550, 117.500 77 C 117.840 76.450, 117.690 76, 117.166 76 C 116.642 76, 115.955 76.675, 115.638 77.500 C 115.322 78.325, 114.572 79, 113.972 79 C 113.373 79, 113.141 78.581, 113.457 78.069 C 113.774 77.557, 113.575 76.856, 113.016 76.510 C 112.457 76.165, 112 76.353, 112 76.930 C 112 77.506, 110.875 77.884, 109.500 77.771 C 108.125 77.657, 107 77.407, 107 77.216 C 107 76.016, 109.230 73.024, 109.843 73.403 C 110.251 73.655, 110.658 72.886, 110.748 71.693 C 110.869 70.093, 110.685 69.892, 110.046 70.925 C 109.321 72.099, 108.914 72.057, 107.519 70.662 C 104.968 68.111, 102.630 68.439, 104.078 71.146 C 105.106 73.067, 105.006 73.235, 103.131 72.744 C 101.359 72.281, 101.185 72.476, 102.004 74.008 C 102.780 75.458, 102.627 75.762, 101.237 75.534 C 100.282 75.378, 98.713 75.938, 97.750 76.780 C 96.167 78.164, 96 78.143, 96 76.561 C 96 75.600, 95.100 74.577, 94 74.290 C 92.900 74.002, 92 73.343, 92 72.824 C 92 72.306, 91.550 72.160, 91 72.500 C 90.450 72.840, 90 72.447, 90 71.626 C 90 70.042, 88.223 69.335, 83.754 69.142 C 82.058 69.069, 81.102 69.497, 81.254 70.262 C 81.389 70.943, 80.730 71.440, 79.789 71.368 C 78.848 71.295, 78.173 71.745, 78.289 72.368 C 78.425 73.098, 76.460 73.522, 72.750 73.562 C 69.588 73.596, 67 73.273, 67 72.844 C 67 72.029, 52.990 72.677, 52.135 73.531 C 50.983 74.684, 55.730 76.761, 59.700 76.841 C 62.074 76.888, 65.780 77.402, 67.935 77.982 C 71.093 78.833, 72.518 78.721, 75.280 77.403 C 78.504 75.866, 78.835 75.878, 80.854 77.607 C 83.884 80.202, 83.557 80.681, 79 80.320 C 74.542 79.968, 73.391 82.069, 76.988 83.994 C 78.082 84.579, 79.255 86.170, 79.597 87.529 C 79.938 88.888, 80.666 90, 81.215 90 C 81.765 90, 81.964 90.651, 81.659 91.447 C 81.239 92.540, 82.251 93.033, 85.802 93.467 C 88.386 93.783, 92.868 94.782, 95.762 95.687 C 101.536 97.493, 102.652 97.590, 105.250 96.512 C 106.331 96.063, 107 96.232, 107 96.952 C 107 97.593, 106.597 97.869, 106.105 97.565 C 105.612 97.260, 104.930 97.741, 104.588 98.632 C 103.235 102.157, 108.791 105.247, 118.500 106.371 C 121.800 106.753, 126.606 108.164, 129.181 109.506 C 131.756 110.849, 135.305 112.201, 137.069 112.512 C 138.832 112.823, 141.001 113.441, 141.888 113.886 C 142.774 114.331, 147.202 114.565, 151.728 114.407 C 156.253 114.248, 160.217 114.542, 160.537 115.059 C 161.545 116.691, 166.023 116.106, 166.725 114.250 C 168.299 110.093, 175.745 108.570, 176.115 112.329 C 176.179 112.973, 176.335 113.950, 176.463 114.500 C 176.591 115.050, 176.764 115.922, 176.848 116.437 C 176.931 116.952, 178.238 116.216, 179.750 114.799 C 181.262 113.383, 183.502 111.922, 184.728 111.552 C 188.032 110.554, 190.590 98.034, 187.500 97.986 C 186.950 97.977, 187.625 97.378, 189 96.654 C 190.375 95.929, 191.388 94.811, 191.250 94.168 C 190.827 92.192, 194.806 92.876, 196.918 95.143 C 198.749 97.107, 199.106 97.161, 201.207 95.790 C 202.468 94.967, 205.637 93.975, 208.250 93.585 C 212.445 92.960, 215.049 91.025, 211.750 90.985 C 210.905 90.974, 210.977 90.667, 211.974 90.037 C 212.911 89.445, 213.679 89.481, 214.084 90.137 C 214.467 90.756, 214.964 90.535, 215.329 89.584 C 216.039 87.735, 221.038 87.438, 222.744 89.144 C 223.604 90.004, 224.668 89.966, 227.014 88.994 C 228.733 88.282, 231.571 87.751, 233.320 87.813 C 238.132 87.984, 239.668 87.217, 241.014 83.967 C 242.141 81.246, 247 79.454, 247 81.759 C 247 83.706, 250.991 85.023, 253.061 83.758 C 254.778 82.710, 255.320 82.765, 256.311 84.089 C 257.941 86.268, 263.003 87.156, 263.684 85.382 C 263.973 84.628, 264.542 84.217, 264.949 84.468 C 265.355 84.719, 267.445 84.420, 269.594 83.803 C 274.471 82.402, 276.742 82.414, 280.315 83.860 C 281.863 84.487, 283.808 85, 284.637 85 C 285.465 85, 286.822 85.679, 287.652 86.509 C 288.482 87.339, 289.595 87.751, 290.124 87.423 C 290.654 87.096, 291.630 87.250, 292.294 87.767 C 294.283 89.315, 300 87.271, 300 85.010 C 300 80.243, 307.169 77.805, 308.534 82.108 C 308.865 83.149, 309.806 84, 310.626 84 C 311.537 84, 311.838 84.487, 311.399 85.250 C 311.003 85.938, 311.013 86.201, 311.421 85.835 C 311.829 85.469, 313.721 85.821, 315.626 86.617 C 317.530 87.413, 319.491 87.815, 319.983 87.511 C 320.475 87.207, 321.242 87.577, 321.689 88.333 C 322.135 89.089, 323.625 89.968, 325 90.285 C 326.375 90.602, 329.399 91.342, 331.720 91.929 C 338.976 93.764, 340.482 93.038, 340.613 87.640 C 340.694 84.331, 340.404 83.245, 339.613 83.890 C 338.219 85.028, 331.822 84.270, 329.250 82.663 C 328.563 82.233, 327.438 82.233, 326.750 82.662 C 325.143 83.665, 317 83.738, 317 82.750 C 317 82.338, 317.563 81.986, 318.250 81.970 C 318.938 81.953, 318.703 81.475, 317.729 80.908 C 316.755 80.341, 316.265 79.342, 316.639 78.689 C 317.014 78.035, 316.989 77.797, 316.584 78.160 C 316.178 78.523, 313.816 77.922, 311.335 76.824 C 308.612 75.619, 305.858 75.070, 304.391 75.438 C 301.659 76.124, 297.893 74.524, 298.260 72.834 C 298.602 71.257, 293.094 69.850, 289.228 70.526 C 286.910 70.932, 285.465 70.608, 284.273 69.416 C 283.179 68.322, 282.457 68.130, 282.211 68.866 C 282.003 69.490, 281.366 70, 280.794 70 C 280.147 70, 280.206 69.456, 280.950 68.560 C 281.607 67.769, 281.972 65.856, 281.760 64.310 C 281.393 61.625, 281.334 61.597, 280.438 63.666 L 279.500 65.833 277.055 63.849 L 274.611 61.864 277.305 62.541 C 279.018 62.970, 280 62.813, 280 62.108 C 280 61.499, 279.550 60.944, 279 60.875 C 278.450 60.806, 277.663 60.668, 277.250 60.569 C 276.837 60.469, 275.038 60.039, 273.250 59.614 C 271.462 59.189, 270 58.216, 270 57.452 C 270 56.586, 270.659 56.270, 271.750 56.613 C 273.239 57.081, 273.209 56.927, 271.552 55.577 C 270.481 54.704, 268.794 54.248, 267.802 54.563 C 266.794 54.883, 266 54.639, 266 54.008 C 266 53.389, 265.543 53.165, 264.984 53.510 C 264.425 53.856, 264.197 54.509, 264.477 54.963 C 264.757 55.416, 263.870 55.723, 262.506 55.644 C 260.627 55.535, 260.160 55.075, 260.580 53.750 C 260.885 52.787, 260.663 52, 260.086 52 C 259.510 52, 258.775 53.048, 258.454 54.328 C 257.972 56.250, 257.251 56.635, 254.323 56.538 C 251.965 56.460, 250.583 56.937, 250.200 57.960 C 249.883 58.807, 248.960 59.997, 248.149 60.605 C 247.245 61.284, 246.932 62.443, 247.340 63.605 C 247.957 65.364, 247.895 65.358, 246.468 63.512 C 245.075 61.710, 245.093 61.405, 246.657 60.262 C 247.606 59.568, 248.039 59, 247.620 59 C 247.200 59, 247.619 58.238, 248.551 57.306 C 250.143 55.714, 250.132 55.568, 248.373 54.876 C 247.343 54.472, 246.950 54.095, 247.500 54.040 C 248.050 53.984, 247.624 53.431, 246.553 52.810 C 245.094 51.963, 244.509 51.972, 244.218 52.846 C 244.004 53.488, 243.305 53.751, 242.665 53.432 C 242.024 53.113, 242.203 53.448, 243.062 54.176 C 243.921 54.904, 244.884 56.195, 245.202 57.045 C 246.072 59.371, 242.192 59.280, 240.730 56.940 C 240.064 55.873, 238.936 55, 238.224 55 C 237.265 55, 237.191 54.511, 237.941 53.110 C 238.768 51.564, 238.547 51.099, 236.726 50.552 C 234.558 49.901, 234.552 49.861, 236.500 49.012 C 238.180 48.280, 238.224 48.129, 236.775 48.070 C 235.341 48.012, 235.214 47.567, 236.025 45.435 C 237.354 41.938, 237.313 41.831, 234.750 42.187 C 232.893 42.445, 232.558 42.088, 232.831 40.141 C 233.042 38.643, 232.768 38.025, 232.081 38.450 C 231.487 38.817, 231 38.690, 231 38.166 C 231 36.628, 227.861 35.870, 226.426 37.062 C 225.487 37.841, 224.583 37.850, 223.302 37.095 C 221.628 36.108, 221.660 35.987, 223.750 35.399 C 224.988 35.051, 226 34.314, 226 33.761 C 226 33.208, 224.988 33.492, 223.750 34.392 C 220.259 36.931, 218.654 37.462, 218.239 36.216 C 217.955 35.364, 217.377 35.372, 215.974 36.248 C 214.938 36.895, 213.733 37.042, 213.295 36.575 C 212.858 36.108, 213.059 35.526, 213.742 35.282 C 215.675 34.592, 213.319 31, 210.933 31 C 209.796 31, 208.546 31.970, 208.031 33.250 C 207.201 35.315, 207.121 35.335, 207.061 33.500 C 206.993 31.406, 201.754 30.227, 199.404 31.777 C 197.456 33.062, 196.887 37.661, 198.510 39.008 C 199.497 39.827, 200 39.877, 200 39.154 C 200 38.554, 200.694 38.329, 201.543 38.655 C 202.913 39.181, 202.899 39.454, 201.417 41.091 C 200.200 42.436, 199.276 42.683, 198.006 42.003 C 197.047 41.490, 195.979 41.355, 195.631 41.702 C 195.284 42.049, 195 41.808, 195 41.167 C 195 40.525, 194.073 40, 192.941 40 C 191.560 40, 191.129 40.412, 191.633 41.250 C 192.156 42.120, 191.877 42.089, 190.714 41.146 C 188.763 39.564, 189.092 35.452, 191.157 35.603 C 191.935 35.660, 192.571 34.897, 192.571 33.909 C 192.571 32.485, 192.281 32.351, 191.178 33.268 C 190.098 34.164, 189.517 34.059, 188.600 32.806 C 187.717 31.598, 186.963 31.441, 185.630 32.187 C 184.180 32.999, 183.886 32.839, 184.075 31.344 C 184.393 28.822, 183.003 25.880, 181.835 26.602 C 181.310 26.926, 181.695 27.857, 182.690 28.670 C 184.397 30.064, 184.372 30.121, 182.249 29.667 C 181.010 29.403, 180.249 29.595, 180.558 30.093 C 180.866 30.592, 180.529 31.015, 179.809 31.033 C 178.117 31.076, 182.784 35, 184.527 35 C 185.246 35, 186.010 34.470, 186.226 33.823 C 186.445 33.165, 187.164 32.983, 187.858 33.412 C 188.837 34.017, 188.825 34.506, 187.799 35.743 C 187.084 36.603, 186.650 37.501, 186.833 37.737 C 187.017 37.973, 186.904 38.429, 186.583 38.750 C 186.262 39.071, 186 38.808, 186 38.167 C 186 37.525, 185.262 37, 184.360 37 C 183.458 37, 182.080 36.212, 181.297 35.250 C 180.270 33.986, 179.731 33.845, 179.357 34.741 C 178.969 35.670, 178.442 35.584, 177.257 34.400 C 175.913 33.056, 175.888 32.684, 177.088 31.925 C 178.118 31.273, 177.755 31.026, 175.750 31.015 C 174.217 31.007, 172.993 31.553, 172.985 32.250 C 172.974 33.108, 172.681 33.044, 172.051 32.048 C 171.545 31.249, 171.354 30.237, 171.625 29.798 C 171.896 29.359, 171.593 29, 170.952 29 C 170.311 29, 170.045 29.675, 170.362 30.500 C 171.095 32.411, 170.523 32.389, 167.465 30.385 C 166.109 29.497, 162.863 28.626, 160.250 28.451 C 157.638 28.275, 153.917 27.722, 151.981 27.223 C 150.046 26.724, 147.571 26.467, 146.481 26.652 C 140.073 27.742, 135.051 27.891, 134.504 27.007 C 134.139 26.417, 135.123 26, 136.882 26 C 139.452 26, 141.941 24.480, 140.850 23.577 C 138.557 21.679, 134.102 22.392, 131.790 25.027 M 264.584 108.750 C 263.420 109.913, 264.074 110.783, 268.129 113.467 C 271.433 115.653, 272.436 115.930, 273.148 114.850 C 273.866 113.758, 274.234 113.835, 275.068 115.250 C 275.635 116.213, 277.154 117, 278.443 117 C 280.568 117, 282 118.648, 282 121.094 C 282 121.625, 280.213 121.738, 277.834 121.357 C 274.376 120.804, 273.765 120.946, 274.242 122.189 C 274.689 123.353, 274.229 123.575, 272.187 123.185 C 269.801 122.729, 269.740 122.610, 271.528 121.911 C 272.613 121.487, 273.275 121.093, 273 121.035 C 266.328 119.619, 250.808 117.389, 248.756 117.551 C 247.240 117.670, 246 117.370, 246 116.884 C 246 116.398, 245.325 116, 244.500 116 C 243.675 116, 243 116.675, 243 117.500 C 243 118.325, 242.325 119, 241.500 119 C 240.675 119, 240 118.601, 240 118.113 C 240 117.626, 238.650 117.029, 237 116.787 C 235.350 116.545, 234 116.718, 234 117.173 C 234 117.628, 235.200 118, 236.667 118 C 238.133 118, 239.034 118.299, 238.668 118.665 C 238.303 119.031, 232.040 119.511, 224.752 119.732 C 201.352 120.442, 202.001 120.377, 201.985 122 C 201.975 122.948, 201.699 123.105, 201.235 122.427 C 200.831 121.837, 199.662 121.044, 198.637 120.665 C 197.115 120.102, 197 119.704, 198.010 118.488 C 199.058 117.225, 198.774 117, 196.122 117 C 194.299 117, 192.994 117.520, 192.985 118.250 C 192.972 119.249, 192.810 119.250, 192.176 118.251 C 191.326 116.913, 174.377 117.031, 172.178 118.390 C 171.553 118.776, 170.078 118.577, 168.900 117.946 C 167.247 117.062, 166.929 117.076, 167.505 118.007 C 168.038 118.871, 167.645 119.022, 166.125 118.540 C 164.695 118.086, 163.995 118.296, 163.985 119.183 C 163.972 120.250, 163.807 120.244, 163.116 119.153 C 162.575 118.300, 160.381 117.821, 157.131 117.846 C 154.309 117.868, 152 117.527, 152 117.089 C 152 115.741, 144.688 116.402, 144.409 117.775 C 144.267 118.476, 144.379 118.589, 144.658 118.025 C 145.304 116.724, 148 116.678, 148 117.969 C 148 118.501, 148.736 118.655, 149.636 118.309 C 150.762 117.877, 151.126 118.122, 150.803 119.091 C 150.545 119.866, 149.696 120.500, 148.917 120.500 C 148.137 120.500, 147.169 120.950, 146.765 121.500 C 146.310 122.119, 146.025 122.024, 146.015 121.250 C 146.007 120.563, 145.502 120, 144.893 120 C 144.284 120, 144.045 120.675, 144.362 121.500 C 144.706 122.396, 144.370 123, 143.528 123 C 141.615 123, 140.684 121.296, 142.244 120.650 C 142.935 120.364, 141.137 120.172, 138.250 120.223 C 134.703 120.287, 133 120.732, 133 121.596 C 133 122.509, 131.930 122.709, 129.250 122.296 C 124.270 121.527, 123.481 120.646, 128.250 121.179 C 130.313 121.410, 132 121.288, 132 120.909 C 132 119.886, 124.556 119.170, 124.167 120.156 C 123.617 121.548, 122 121.108, 122 119.567 C 122 118.686, 120.940 118.109, 119.250 118.068 C 117.737 118.032, 115.421 117.890, 114.101 117.751 C 112.782 117.613, 111.578 118.074, 111.426 118.775 C 111.274 119.476, 111.379 119.589, 111.658 119.025 C 112.558 117.212, 114.748 117.932, 115.383 120.250 C 115.868 122.017, 116.193 122.200, 116.899 121.104 C 117.394 120.337, 118.519 119.985, 119.399 120.323 C 121.651 121.187, 121.403 122.918, 119.113 122.319 C 118.075 122.048, 116.923 122.315, 116.554 122.913 C 115.575 124.497, 114 124.242, 114 122.500 C 114 121.675, 113.298 121, 112.441 121 C 111.584 121, 111.160 121.450, 111.500 122 C 111.840 122.550, 111.641 123, 111.059 123 C 110.477 123, 110 123.675, 110 124.500 C 110 125.325, 109.502 126, 108.893 126 C 108.284 126, 108.045 125.325, 108.362 124.500 C 108.678 123.675, 108.501 123, 107.969 123 C 107.436 123, 107 122.068, 107 120.929 C 107 119.040, 106.860 118.997, 105.419 120.438 C 104.550 121.307, 103.313 121.756, 102.669 121.435 C 102.026 121.114, 102.374 121.560, 103.441 122.426 C 104.509 123.292, 105.746 124, 106.191 124 C 107.905 124, 106.893 126.104, 104.808 126.876 C 102.653 127.673, 102.660 127.698, 105.197 128.335 C 106.897 128.761, 108.010 129.903, 108.456 131.680 C 108.828 133.163, 109.873 134.918, 110.779 135.580 C 112.134 136.571, 112.199 137.055, 111.148 138.322 C 110.030 139.669, 110.376 139.824, 113.936 139.570 C 116.171 139.411, 118 139.694, 118 140.199 C 118 140.705, 118.450 140.840, 119 140.500 C 119.550 140.160, 120 139.432, 120 138.882 C 120 138.332, 119.581 138.141, 119.069 138.457 C 118.557 138.774, 117.826 138.527, 117.444 137.910 C 116.942 137.097, 116.539 137.128, 115.987 138.021 C 115.085 139.480, 113 138.458, 113 136.557 C 113 135.603, 114.296 135.320, 117.628 135.545 C 121.065 135.776, 121.966 135.566, 121.128 134.728 C 119.521 133.121, 119.733 131, 121.500 131 C 122.443 131, 123 131.951, 123 133.559 C 123 135.054, 123.427 135.854, 124.027 135.484 C 124.591 135.135, 124.929 134.238, 124.777 133.490 C 124.624 132.743, 124.950 132.131, 125.500 132.131 C 126.050 132.131, 126.377 132.737, 126.226 133.478 C 126.036 134.416, 126.643 134.652, 128.226 134.256 C 130.482 133.691, 130.485 133.704, 128.595 135.843 C 127.484 137.100, 125.504 138, 123.845 138 C 122.280 138, 121 138.413, 121 138.918 C 121 141.148, 129.492 139.529, 129.820 137.236 C 129.995 136.006, 130.670 134.982, 131.320 134.960 C 131.969 134.938, 131.263 134.249, 129.750 133.428 C 128.238 132.607, 127 131.249, 127 130.409 C 127 129.569, 126.530 129.172, 125.956 129.527 C 125.382 129.882, 124.297 129.662, 123.545 129.038 C 122.605 128.258, 121.975 128.231, 121.530 128.951 C 120.555 130.530, 119 130.211, 119 128.433 C 119 127.320, 118.419 127.050, 117 127.500 C 115.853 127.864, 115 127.680, 115 127.067 C 115 126.480, 115.638 126, 116.417 126 C 117.196 126, 117.992 125.525, 118.185 124.945 C 118.777 123.170, 131.047 123.539, 132.235 125.369 C 133.612 127.489, 133.003 127.848, 130.250 126.539 C 125.430 124.248, 122.326 123.903, 120.992 125.510 C 119.714 127.050, 120.288 127.287, 125.250 127.267 C 126.213 127.264, 127 127.601, 127 128.017 C 127 128.975, 133.179 129.952, 134.455 129.195 C 137.669 127.288, 143.073 128.601, 139.951 130.530 C 139.229 130.976, 139.252 131.599, 140.025 132.530 C 140.917 133.605, 140.220 134.305, 136.634 135.939 C 132.209 137.955, 129.845 140, 131.941 140 C 132.523 140, 133 140.436, 133 140.969 C 133 141.501, 132.213 141.684, 131.250 141.374 C 129.823 140.915, 129.768 141.001, 130.952 141.840 C 132.673 143.058, 134 142.449, 134 140.441 C 134 139.648, 134.450 139, 135 139 C 135.550 139, 136 139.623, 136 140.383 C 136 142.336, 139.695 143.072, 141.086 141.397 C 142.586 139.589, 144.372 139.589, 143.678 141.397 C 143.333 142.296, 143.994 142.957, 145.536 143.252 C 146.853 143.503, 148.115 143.212, 148.340 142.605 C 148.627 141.833, 149.149 141.876, 150.075 142.750 C 152.552 145.086, 154.227 144.276, 152.469 141.593 C 150.928 139.241, 151.847 137.169, 153.875 138.423 C 154.356 138.720, 154.750 137.840, 154.750 136.467 C 154.750 135.093, 154.244 134.048, 153.625 134.143 C 151.683 134.441, 149 132.846, 149 131.393 C 149 129.696, 149.214 129.685, 152.562 131.210 C 154.866 132.260, 155.422 132.161, 156.744 130.460 C 158.003 128.842, 158.164 128.805, 157.666 130.250 C 157.278 131.375, 157.567 132, 158.474 132 C 159.419 132, 159.987 133.403, 160.193 136.250 L 160.500 140.500 164.750 140.639 C 167.088 140.715, 169 140.346, 169 139.817 C 169 139.289, 167.988 138.939, 166.750 139.039 C 162.533 139.381, 161 139.001, 161 137.617 C 161 135.775, 164.975 134.772, 165.619 136.450 C 165.960 137.338, 167.671 137.637, 171.058 137.399 C 173.776 137.209, 176 137.416, 176 137.859 C 176 138.795, 179.647 138.686, 180.611 137.722 C 180.970 137.364, 182.104 137.520, 183.131 138.070 C 184.159 138.620, 185.007 138.717, 185.015 138.285 C 185.024 137.853, 185.467 138.175, 186 139 C 186.828 140.282, 186.972 140.246, 186.985 138.750 C 187.003 136.600, 188.848 136.439, 189.645 138.518 C 190.264 140.130, 193.038 140.144, 194.189 138.540 C 194.592 137.978, 195.758 138.376, 197 139.500 C 198.813 141.141, 199.259 141.208, 200.061 139.960 C 200.881 138.685, 201.123 138.690, 201.969 140 C 202.785 141.262, 203.274 141.292, 205.048 140.193 C 206.603 139.229, 207.507 139.176, 208.489 139.991 C 209.410 140.755, 210.022 140.773, 210.470 140.049 C 211.454 138.457, 212.714 138.777, 214.961 141.189 C 216.981 143.356, 217 143.357, 217 141.314 C 217 138.513, 222.022 138.366, 222.748 141.146 C 223.119 142.564, 223.569 142.773, 224.533 141.973 C 225.455 141.207, 226.025 141.232, 226.536 142.058 C 227.065 142.914, 227.454 142.884, 228.034 141.945 C 228.645 140.957, 229.186 141.044, 230.481 142.338 C 232.544 144.401, 233.109 144.447, 232.357 142.489 C 231.943 141.409, 232.236 141.153, 233.383 141.593 C 234.266 141.932, 234.759 142.581, 234.478 143.036 C 234.197 143.490, 234.425 144.144, 234.984 144.490 C 235.543 144.835, 236 144.442, 236 143.615 C 236 142.455, 236.886 142.218, 239.877 142.579 C 243.243 142.984, 243.832 142.752, 244.338 140.817 C 244.658 139.591, 245.276 138.946, 245.710 139.384 C 246.827 140.511, 246.691 144.343, 245.500 145.319 C 244.950 145.769, 247.088 145.850, 250.250 145.497 C 254.073 145.071, 256 145.215, 256 145.928 C 256 146.518, 257.350 147, 259 147 C 262.422 147, 262.759 146.297, 260.250 144.392 C 258.768 143.267, 258.739 143.059, 260.059 143.032 C 262.918 142.973, 265.747 145.797, 264 146.966 C 262.713 147.827, 262.749 147.972, 264.250 147.985 C 265.212 147.993, 266 147.550, 266 147 C 266 145.464, 267.954 145.811, 269.821 147.679 C 271.393 149.250, 271.521 149.250, 271.823 147.679 C 272.001 146.755, 272.564 146, 273.073 146 C 273.583 146, 273.887 146.548, 273.750 147.217 C 273.577 148.060, 275.131 148.406, 278.808 148.345 C 282.778 148.278, 283.990 148.583, 283.617 149.555 C 283.222 150.584, 283.753 150.634, 286.167 149.792 C 288.556 148.959, 289.404 149.029, 290.092 150.115 C 290.724 151.113, 290.974 151.150, 290.985 150.250 C 290.993 149.563, 291.702 149, 292.559 149 C 293.416 149, 293.840 149.450, 293.500 150 C 292.622 151.421, 294.359 151.241, 295.842 149.758 C 296.830 148.770, 297.275 148.820, 298.026 150.008 C 298.656 151.004, 298.974 151.084, 298.985 150.250 C 298.993 149.563, 299.863 149, 300.917 149 C 301.971 149, 303.023 149.563, 303.254 150.250 C 303.587 151.238, 304.006 151.226, 305.257 150.195 C 306.578 149.104, 306.990 149.160, 307.757 150.530 C 308.566 151.976, 309.038 151.833, 311.726 149.335 C 317.398 144.064, 318.009 143.707, 317.927 145.711 C 317.769 149.582, 314.469 153.517, 311.664 153.178 C 310.199 153.002, 309 153.339, 309 153.928 C 309 154.518, 309.675 155, 310.500 155 C 311.325 155, 312 155.528, 312 156.174 C 312 156.821, 313.011 156.439, 314.250 155.323 C 317.422 152.467, 319.102 151.624, 318.775 153.051 C 318.624 153.710, 319.125 154.477, 319.889 154.755 C 320.740 155.064, 321.008 154.822, 320.580 154.130 C 320.175 153.475, 320.537 153, 321.441 153 C 322.298 153, 323 153.498, 323 154.107 C 323 154.716, 323.711 154.941, 324.579 154.608 C 325.888 154.106, 326.051 154.558, 325.532 157.251 C 324.971 160.162, 325.052 160.318, 326.313 158.750 C 327.087 157.788, 329.020 156.942, 330.610 156.870 C 335.194 156.662, 337 155.974, 337 154.433 C 337 153.645, 337.450 153, 338 153 C 338.550 153, 339 153.702, 339 154.559 C 339 155.416, 339.387 155.879, 339.861 155.586 C 340.337 155.292, 340.369 156.941, 339.931 159.277 C 338.910 164.734, 340.804 167.348, 343.679 164.449 C 345.312 162.801, 345.323 162.679, 343.782 163.262 C 341.289 164.206, 340.362 161.940, 342.578 160.319 C 343.716 159.487, 345.556 159.183, 347.231 159.551 C 350.340 160.234, 350.717 159.575, 348.491 157.348 C 347.661 156.518, 347.206 155.476, 347.480 155.033 C 347.753 154.590, 346.970 153.904, 345.739 153.508 C 343.896 152.915, 343.800 152.707, 345.198 152.331 C 346.131 152.079, 347.910 152.417, 349.150 153.080 C 350.781 153.953, 351.507 153.978, 351.777 153.169 C 352.025 152.424, 353.040 152.613, 354.825 153.737 L 357.500 155.422 355.582 153.197 C 354.353 151.771, 353.006 151.181, 351.832 151.553 C 350.462 151.988, 350 151.617, 350 150.081 C 350 147.086, 330.474 137.755, 326.057 138.639 C 323.971 139.056, 323 138.859, 323 138.018 C 323 137.315, 323.667 137.042, 324.552 137.382 C 325.475 137.736, 325.846 137.560, 325.468 136.948 C 325.118 136.382, 323.913 136.210, 322.791 136.566 C 321.563 136.956, 320.991 136.823, 321.356 136.233 C 322.137 134.969, 310.663 129.845, 298.226 125.905 C 292.877 124.210, 287.825 122.567, 287 122.254 C 286.175 121.941, 284.938 121.775, 284.250 121.886 C 283.563 121.997, 283 121.393, 283 120.544 C 283 118.604, 284.694 118.592, 288.364 120.506 C 292.330 122.574, 300.011 123.135, 300.675 121.405 C 301.392 119.536, 295.926 114.903, 293.635 115.438 C 292.609 115.677, 291.034 115.479, 290.135 114.997 C 289.236 114.515, 287.340 113.879, 285.922 113.585 C 284.504 113.290, 282.095 111.891, 280.569 110.477 C 277.985 108.081, 277.635 108.009, 275.472 109.427 C 274.008 110.385, 273.020 110.559, 272.798 109.895 C 272.418 108.754, 265.539 107.795, 264.584 108.750 M 254.168 238.197 C 250.990 239.058, 250.904 239.204, 252.303 241.340 C 254.751 245.076, 246.622 249.765, 243.357 246.500 C 242.532 245.675, 242.227 244.971, 242.679 244.937 C 243.130 244.902, 242.411 244.438, 241.080 243.906 C 239.392 243.231, 238.335 243.295, 237.580 244.116 C 236.791 244.976, 236.837 245.103, 237.750 244.588 C 238.438 244.200, 239 244.275, 239 244.756 C 239 245.624, 232.411 249.258, 230.500 249.444 C 229.950 249.497, 228.474 249.904, 227.219 250.348 L 224.939 251.154 227.203 253.507 C 228.835 255.202, 229.704 255.530, 230.310 254.680 C 230.950 253.784, 231.275 253.802, 231.662 254.756 C 232.314 256.366, 234.069 255.343, 233.445 253.717 C 232.886 252.260, 238.228 249.693, 240.733 250.214 C 241.841 250.445, 242.418 251.365, 242.281 252.682 C 242.036 255.035, 245.595 256.581, 247.540 254.967 C 248.169 254.445, 248.980 254.313, 249.342 254.675 C 249.704 255.037, 250 254.583, 250 253.667 C 250 252.750, 250.156 252, 250.346 252 C 251.309 252, 257.010 255.239, 257.077 255.823 C 257.119 256.195, 257.319 257.389, 257.521 258.475 C 258.008 261.086, 256.539 261.863, 252.671 261.041 C 250.773 260.638, 248.187 260.905, 246.227 261.707 C 243.747 262.722, 242.447 262.775, 240.861 261.926 C 239.198 261.036, 238.860 261.082, 239.213 262.153 C 239.457 262.894, 240.641 263.645, 241.843 263.821 C 243.046 263.998, 243.794 264.525, 243.506 264.991 C 242.604 266.450, 246.124 269.276, 247.336 268.064 C 248.790 266.610, 251.305 266.697, 250.395 268.170 C 249.919 268.939, 250.203 269.136, 251.223 268.745 C 252.403 268.292, 252.644 268.647, 252.229 270.233 C 251.760 272.027, 252.018 272.227, 254.092 271.672 C 255.416 271.317, 256.868 271.021, 257.317 271.014 C 257.767 271.006, 257.866 270.153, 257.538 269.118 C 256.976 267.349, 258.674 265.803, 261.500 265.511 C 263.971 265.255, 267.114 262.740, 266.609 261.423 C 266.309 260.640, 266.499 260, 267.031 260 C 267.564 260, 268 259.365, 268 258.589 C 268 257.813, 269.350 256.042, 271 254.653 C 274.335 251.847, 274.697 251, 272.559 251 C 271.766 251, 270.797 250.480, 270.405 249.845 C 269.988 249.171, 270.128 248.961, 270.741 249.340 C 271.318 249.697, 272.048 249.316, 272.364 248.494 C 272.803 247.349, 272.142 247, 269.528 247 C 267.652 247, 265.850 246.567, 265.523 246.038 C 265.149 245.431, 264.049 245.476, 262.551 246.159 C 260.516 247.086, 259.765 246.846, 257.337 244.494 C 255.777 242.983, 254.950 241.971, 255.500 242.246 C 256.050 242.520, 257.299 241.966, 258.275 241.015 C 260.823 238.531, 258.590 236.999, 254.168 238.197" stroke="none" fill="#1a1a2e" fill-rule="evenodd"/>
</svg>