<svg xmlns="http://www.w3.org/2000/svg" width="400" height="242" viewBox="0 0 400 242" version="1.1">
	<path d="M 1 121 L 1 241 200 241 L 399 241 399 121 L 399 1 200 1 L 1 1 1 121 M 2 121.002 L 2 240.005 199.750 239.752 L 397.500 239.500 397.754 120.750 L 398.008 2 200.004 2 L 2 2 2 121.002 M 140.862 58.809 C 136.169 66.204, 131.065 77.613, 134.003 74.139 C 136.277 71.451, 136.584 72.341, 134.750 76.301 C 134.063 77.786, 133.002 78.815, 132.394 78.587 C 131.786 78.359, 130.548 79.725, 129.644 81.621 C 127.610 85.887, 127.579 86.594, 129.500 85 C 130.446 84.215, 131 84.148, 131 84.819 C 131 86.414, 129.425 87.095, 124.477 87.639 C 121.945 87.917, 120 87.715, 120 87.173 C 120 86.645, 119.307 85.948, 118.460 85.623 C 117.395 85.214, 117.009 85.558, 117.210 86.738 C 117.432 88.043, 116.441 88.643, 113 89.288 C 86.896 94.181, 25.301 122.100, 14.110 134.112 C 9.310 139.264, 10.013 145.830, 15.299 145.213 C 17.147 144.998, 21.067 145.536, 24.011 146.411 C 26.954 147.285, 31.531 148, 34.182 148 C 37.810 148, 39 148.373, 39 149.508 C 39 150.760, 39.336 150.807, 40.975 149.784 C 43.772 148.037, 42.137 146.935, 35.353 145.996 C 20.634 143.958, 16.175 142.779, 15.655 140.787 C 15.198 139.043, 15.550 138.899, 19.073 139.392 C 22.698 139.899, 24.626 138.714, 21.750 137.746 C 21.063 137.515, 22.044 137.280, 23.931 137.225 C 25.818 137.169, 28.211 137.578, 29.249 138.133 C 31.023 139.083, 39.901 139.528, 42.965 138.821 C 45.519 138.232, 47.977 135.601, 49.072 132.283 C 49.668 130.477, 50.577 129, 51.093 129 C 51.610 129, 51.933 127.699, 51.812 126.110 C 51.667 124.210, 51.147 123.390, 50.296 123.717 C 49.583 123.990, 49.003 123.603, 49.007 122.857 C 49.013 121.555, 55.013 116.836, 56.690 116.814 C 57.135 116.808, 58.277 116.387, 59.227 115.878 C 60.617 115.135, 60.828 115.286, 60.304 116.650 C 59.788 117.994, 60.053 118.207, 61.576 117.672 C 63.409 117.028, 63.405 117.079, 61.500 118.748 C 60.306 119.794, 59.434 121.910, 59.337 124 L 59.174 127.500 60.354 124.216 C 61.289 121.613, 61.788 121.188, 62.766 122.166 C 64.243 123.643, 64.417 125.376, 63 124.500 C 61.418 123.522, 61.838 125.620, 63.500 127 C 65.190 128.403, 65.173 128.420, 65.488 125 C 65.615 123.625, 66.083 121.639, 66.529 120.586 C 67.068 119.314, 66.982 118.893, 66.275 119.330 C 65.075 120.072, 63.689 117.313, 64.556 115.910 C 64.865 115.409, 65.879 114.971, 66.809 114.937 C 67.936 114.894, 67.666 114.529, 66 113.841 C 63.601 112.850, 63.701 112.745, 68.500 111.211 C 71.250 110.332, 73.840 109.061, 74.256 108.385 C 74.672 107.709, 76.359 106.860, 78.006 106.499 C 79.653 106.137, 81 105.379, 81 104.814 C 81 104.248, 81.675 104.045, 82.500 104.362 C 83.325 104.678, 84 104.453, 84 103.862 C 84 103.270, 84.661 103.040, 85.468 103.349 C 86.275 103.659, 87.190 103.502, 87.500 103 C 87.810 102.498, 88.679 102.323, 89.431 102.612 C 90.183 102.900, 91.083 102.675, 91.431 102.112 C 91.779 101.548, 92.725 101.341, 93.532 101.651 C 94.339 101.960, 95 101.812, 95 101.321 C 95 100.830, 96.618 100.481, 98.595 100.547 C 100.663 100.616, 102.396 100.131, 102.674 99.406 C 102.941 98.713, 104.013 98.310, 105.058 98.511 C 106.103 98.712, 107.182 98.515, 107.456 98.072 C 107.729 97.629, 110.160 97.267, 112.856 97.267 C 115.553 97.267, 118.173 97.011, 118.677 96.699 C 120.238 95.735, 121.775 97.351, 122.703 100.934 C 123.818 105.236, 126.383 106.550, 125.465 102.348 L 124.842 99.500 126.899 102 C 128.030 103.375, 128.966 105.464, 128.978 106.643 C 128.990 107.822, 129.698 109.054, 130.552 109.382 C 131.616 109.790, 131.860 109.588, 131.327 108.739 C 130.900 108.057, 130.673 106.752, 130.823 105.839 C 130.973 104.925, 130.624 103.886, 130.048 103.530 C 129.472 103.173, 129.008 102.121, 129.017 101.191 C 129.028 100.090, 129.759 100.633, 131.114 102.749 C 132.259 104.536, 133.640 105.722, 134.185 105.386 C 134.823 104.991, 134.789 104.389, 134.087 103.687 C 133.489 103.089, 133.036 101.903, 133.079 101.050 C 133.131 100.020, 133.327 99.919, 133.662 100.750 C 133.940 101.437, 134.804 102, 135.583 102 C 136.436 102, 137 103.018, 137 104.559 C 137 106.094, 136.579 106.858, 135.949 106.468 C 135.370 106.111, 135.595 107.489, 136.449 109.531 C 137.302 111.573, 138 113.366, 138 113.515 C 138 113.664, 138.698 114.054, 139.552 114.382 C 141.176 115.005, 140.826 113.899, 138.484 111 C 137.149 109.349, 137.660 102, 139.109 102 C 139.599 102, 140.008 103.912, 140.018 106.250 C 140.034 109.975, 140.528 110.908, 144.018 113.806 C 148.937 117.891, 149.305 115.789, 144.489 111.110 C 141.070 107.787, 139.399 101, 142 101 C 142.550 101, 143 102.350, 143 104 C 143 105.650, 143.477 107, 144.059 107 C 144.641 107, 144.865 106.591, 144.556 106.090 C 143.729 104.753, 145.048 101.912, 146.173 102.607 C 146.703 102.934, 146.873 103.889, 146.551 104.728 C 146.229 105.567, 146.487 106.882, 147.124 107.650 C 148.051 108.767, 147.955 108.920, 146.641 108.416 C 144.224 107.488, 144.544 110.685, 147 112 C 148.100 112.589, 149 113.703, 149 114.476 C 149 115.954, 150.805 117.528, 151.595 116.739 C 151.848 116.485, 151.524 114.977, 150.874 113.389 C 150.224 111.800, 149.585 109.993, 149.453 109.374 C 149.321 108.754, 148.922 107.330, 148.566 106.208 C 148.210 105.086, 148.387 103.879, 148.959 103.525 C 149.532 103.171, 150 103.584, 150 104.441 C 150 105.298, 150.450 106, 151 106 C 151.550 106, 152 105.250, 152 104.333 C 152 101.284, 153.265 103.880, 153.601 107.618 C 153.783 109.647, 154.956 112.451, 156.216 113.869 C 157.598 115.425, 157.779 115.884, 156.673 115.033 C 154.977 113.728, 154.869 113.869, 155.173 116.986 C 155.552 120.884, 157.692 122.195, 158.173 118.825 C 158.528 116.339, 158.637 116.412, 162.914 122 C 165.378 125.218, 166.645 123.972, 164.985 119.965 C 164.054 117.715, 163.472 117.226, 162.866 118.183 C 162.405 118.909, 162.024 119.014, 162.015 118.417 C 161.989 116.577, 163.251 115.963, 164.658 117.131 C 166.518 118.675, 166.466 116.110, 164.583 113.421 C 162.346 110.229, 161.239 102.742, 163.446 105.736 C 164.352 106.966, 164.981 108.541, 164.844 109.236 C 164.706 109.931, 165.388 111.995, 166.360 113.822 C 167.735 116.409, 167.866 117.457, 166.950 118.560 C 166.032 119.667, 166.100 120.101, 167.262 120.547 C 168.079 120.861, 169.592 122.778, 170.624 124.809 C 171.656 126.839, 172.772 128.725, 173.105 129 C 173.437 129.275, 174.473 130.850, 175.406 132.500 L 177.103 135.500 176.664 131.377 C 176.422 129.110, 176.593 126.659, 177.042 125.931 C 178.144 124.149, 176.154 120.446, 174.815 121.785 C 174.148 122.452, 174.180 123.468, 174.910 124.832 C 175.633 126.182, 175.664 127.089, 175.003 127.498 C 174.451 127.839, 174 127.150, 174 125.965 C 174 124.654, 173.219 123.608, 172 123.290 C 170.863 122.992, 170 121.926, 170 120.818 C 170 119.746, 169.534 117.998, 168.965 116.934 C 168.387 115.855, 168.333 115, 168.843 115 C 169.346 115, 170.349 116.427, 171.071 118.172 C 171.794 119.917, 172.566 120.802, 172.787 120.139 C 173.008 119.475, 172.632 118.262, 171.952 117.442 C 171.272 116.622, 170.968 115.698, 171.278 115.389 C 171.587 115.080, 172.603 115.991, 173.535 117.413 C 174.467 118.836, 175.628 120, 176.115 120 C 177.729 120, 177.033 117.942, 174.592 115.501 C 172.419 113.328, 172.340 112.966, 173.784 111.796 C 174.664 111.083, 175.108 110.962, 174.771 111.526 C 174.209 112.468, 178.349 118.184, 185.979 127 C 187.645 128.925, 189.645 131.399, 190.423 132.498 C 191.200 133.598, 192.139 134.194, 192.510 133.824 C 193.466 132.868, 192.080 128.994, 190.881 129.270 C 190.067 129.458, 186.983 122.802, 187.048 121 C 187.092 119.809, 191 125.358, 191 126.611 C 191 127.375, 191.450 128, 192 128 C 193.288 128, 193.274 126.380, 191.965 123.934 C 191.323 122.734, 191.297 122, 191.897 122 C 192.430 122, 193.151 122.900, 193.500 124 C 194.335 126.631, 196 126.569, 196 123.906 C 196 122.654, 195.197 121.603, 194 121.290 C 192.900 121.002, 192 119.967, 192 118.990 C 192 118.013, 191.275 116.936, 190.389 116.596 C 189.330 116.189, 188.954 116.410, 189.293 117.239 C 189.576 117.932, 190.124 119.287, 190.511 120.250 C 190.898 121.213, 190.814 122, 190.326 122 C 189.838 122, 188.929 120.650, 188.306 119 C 187.683 117.350, 187.585 116, 188.087 116 C 188.589 116, 189 115.100, 189 114 C 189 112.900, 189.450 112, 190 112 C 190.550 112, 191 112.691, 191 113.535 C 191 115.513, 193.931 120, 195.223 120 C 195.770 120, 195.986 118.988, 195.703 117.750 C 195.059 114.926, 196.344 111.130, 197.378 112.803 C 197.776 113.447, 197.684 115.484, 197.174 117.331 C 196.664 119.179, 196.612 121.343, 197.059 122.141 C 197.505 122.938, 197.496 124.198, 197.037 124.939 C 196.117 126.429, 197.699 132, 199.044 132 C 200.030 132, 199.700 122.077, 198.642 119.944 C 198.248 119.150, 198.505 119.348, 199.213 120.384 C 199.921 121.420, 201.485 123.477, 202.688 124.955 C 204.006 126.573, 204.840 128.924, 204.785 130.867 C 204.734 132.641, 205.264 134.635, 205.963 135.296 C 206.979 136.260, 207.144 135.851, 206.790 133.250 C 206.546 131.463, 206.678 130, 207.083 130 C 208.182 130, 207.888 120.696, 206.744 119.250 C 206.162 118.514, 206.139 118, 206.689 118 C 207.616 118, 211.378 122.529, 213.715 126.458 C 214.873 128.406, 214.931 128.375, 214.965 125.800 C 214.984 124.315, 214.396 122.740, 213.657 122.300 C 210.576 120.464, 208.806 116.337, 210.411 114.732 C 211.233 113.910, 211.589 112.887, 211.202 112.459 C 210.816 112.030, 210.987 111.957, 211.583 112.296 C 212.179 112.635, 212.488 114.169, 212.270 115.706 C 212.050 117.254, 212.556 119.392, 213.405 120.500 C 215.204 122.850, 215.561 120.917, 213.900 117.814 C 213.101 116.319, 213.101 115.944, 213.900 116.438 C 214.527 116.826, 215 116.422, 215 115.500 C 215 114.610, 215.450 114.160, 216 114.500 C 216.550 114.840, 217 114.566, 217 113.892 C 217 113.218, 217.242 112.909, 217.537 113.204 C 217.833 113.500, 217.558 114.875, 216.927 116.261 C 215.950 118.406, 216.093 119.093, 217.890 120.890 C 219.333 122.333, 220 124.264, 220 127 C 220 129.200, 220.436 131, 220.968 131 C 221.500 131, 222.607 132.238, 223.428 133.750 C 224.807 136.292, 224.923 136.333, 224.960 134.300 C 224.982 133.090, 224.323 131.720, 223.495 131.257 C 222.531 130.718, 221.876 128.536, 221.672 125.184 C 221.496 122.306, 220.858 119.458, 220.254 118.854 C 219.001 117.601, 219.744 114.724, 221.105 115.565 C 221.597 115.869, 222 116.996, 222 118.069 C 222 119.142, 222.921 120.803, 224.047 121.760 C 225.173 122.717, 227.053 125.412, 228.224 127.750 C 230.295 131.881, 233.890 133.934, 232.602 130.250 C 232.230 129.185, 232.952 129.576, 234.448 131.250 C 235.799 132.762, 237.151 134, 237.452 134 C 238.697 134, 237.884 130.893, 236.500 130.362 C 235.675 130.045, 235 128.934, 235 127.893 C 235 125.872, 233.523 125.345, 232.500 127 C 231.307 128.931, 229.228 127.972, 228.705 125.250 C 227.977 121.463, 228.707 121.127, 230.091 124.611 C 230.753 126.277, 231.440 126.957, 231.714 126.217 C 231.975 125.511, 231.855 124.161, 231.448 123.217 C 231.041 122.273, 230.658 119.512, 230.598 117.081 C 230.535 114.532, 229.962 112.487, 229.244 112.248 C 228.560 112.020, 228 110.836, 228 109.617 C 228 108.397, 227.460 106.860, 226.800 106.200 C 225.867 105.267, 225.874 105, 226.831 105 C 227.509 105, 228.302 105.787, 228.595 106.750 C 228.888 107.713, 229.754 109.850, 230.519 111.500 C 231.284 113.150, 232.202 116.607, 232.558 119.183 C 232.916 121.764, 233.834 124.106, 234.603 124.401 C 235.372 124.696, 236 125.478, 236 126.140 C 236 126.801, 236.758 128.180, 237.685 129.204 C 238.611 130.228, 239.493 132.640, 239.645 134.564 C 239.797 136.488, 240.190 138.498, 240.519 139.031 C 241.543 140.688, 242.966 140.093, 242.387 138.250 C 241.917 136.756, 242.068 136.784, 243.418 138.441 C 244.697 140.010, 245 140.082, 245 138.814 C 245 136.969, 242.609 134.724, 241.658 135.675 C 241.296 136.037, 241 134.908, 241 133.167 C 241 131.425, 240.597 130, 240.105 130 C 239.612 130, 238.033 127.750, 236.595 125 C 235.157 122.250, 234.398 120, 234.909 120 C 237 120, 239 121.303, 239 122.666 C 239 123.551, 238.512 123.832, 237.750 123.387 C 237.063 122.985, 237.287 123.556, 238.250 124.657 C 239.213 125.757, 240 126.992, 240 127.400 C 240 127.809, 240.675 128.818, 241.500 129.643 C 242.325 130.468, 243 132.011, 243 133.071 C 243 134.132, 243.450 135, 244 135 C 245.699 135, 245.103 131.403, 243.105 129.595 C 239.535 126.364, 239.865 118.983, 243.447 121.956 C 244.814 123.090, 244.954 123.045, 244.416 121.641 C 243.586 119.480, 244.911 119.543, 246.692 121.750 C 247.979 123.345, 248.045 123.279, 247.439 121 C 246.516 117.524, 245.113 116.198, 244.098 117.842 C 243.449 118.891, 243.145 118.820, 242.639 117.502 C 241.684 115.013, 241.894 114.306, 243.086 116 C 243.896 117.150, 244.049 116.742, 243.744 114.250 C 243.525 112.463, 243.449 111, 243.574 111 C 244.123 111, 248.003 118.230, 248.032 119.307 C 248.086 121.350, 251.168 124.664, 251.698 123.250 C 252.569 120.927, 254.229 121.951, 253.608 124.428 C 253.213 126.001, 253.569 127.426, 254.618 128.475 C 256.774 130.631, 257.154 130.024, 256.053 126.184 C 255.182 123.149, 255.416 122.567, 257.364 122.920 C 257.839 123.006, 258.045 121.515, 257.823 119.608 C 257.600 117.701, 257.774 116.360, 258.209 116.629 C 258.644 116.898, 259 118.427, 259 120.028 C 259 122.251, 259.367 122.796, 260.557 122.340 C 261.414 122.011, 261.884 121.139, 261.601 120.402 C 261.318 119.665, 261.739 117.810, 262.537 116.281 C 263.474 114.485, 263.990 114.099, 263.994 115.191 C 263.997 116.121, 263.610 117.123, 263.134 117.417 C 262.658 117.711, 262.469 119.201, 262.715 120.726 C 263.599 126.212, 264.199 126.582, 265.591 122.500 C 266.411 120.092, 266.834 119.518, 266.652 121.059 C 266.343 123.680, 270.488 127.036, 271.242 124.775 C 271.424 124.228, 272.232 124.589, 273.037 125.578 C 274.344 127.183, 274.321 127.307, 272.823 126.747 C 270.924 126.036, 268.491 128.367, 269.473 129.956 C 270.483 131.590, 271.992 131.181, 272.079 129.250 C 272.126 128.205, 272.361 128.003, 272.662 128.750 C 273.554 130.960, 275 130.083, 275 127.333 C 275 125.867, 275.332 124.998, 275.737 125.404 C 276.143 125.809, 276.480 126.681, 276.487 127.340 C 276.506 129.132, 280.921 134.413, 281.726 133.607 C 282.110 133.223, 281.857 131.917, 281.163 130.705 L 279.902 128.500 281.726 130.583 C 283.693 132.829, 287 133.404, 287 131.500 C 287 130.858, 286.687 130.020, 286.304 129.638 C 285.254 128.588, 285.059 126, 286.029 126 C 286.498 126, 287.160 126.450, 287.500 127 C 287.840 127.550, 287.586 128, 286.937 128 C 286.052 128, 286.065 128.373, 286.989 129.487 C 287.668 130.305, 287.995 131.571, 287.716 132.299 C 287.436 133.027, 288.068 134.721, 289.120 136.062 L 291.033 138.500 289.985 135.601 C 289.074 133.083, 289.132 132.864, 290.424 133.937 C 292.017 135.259, 294.411 134.475, 293.464 132.942 C 293.152 132.437, 293.537 132.269, 294.321 132.570 C 295.105 132.871, 296.199 134.103, 296.752 135.308 C 297.750 137.482, 297.769 137.477, 299.053 134.722 C 299.765 133.194, 300.607 132.365, 300.926 132.880 C 302.264 135.045, 307.180 132.853, 306.556 130.369 C 306.195 128.928, 306.403 128, 307.088 128 C 307.748 128, 307.938 127.277, 307.545 126.250 C 307.051 124.957, 307.426 125.089, 308.981 126.754 C 310.139 127.994, 311.013 129.569, 310.924 130.254 C 310.607 132.703, 311.017 134, 312.108 134 C 312.822 134, 312.966 133.020, 312.512 131.250 C 311.043 125.525, 310.904 123.170, 312.187 125.750 C 313.522 128.436, 314.960 128.682, 315.102 126.250 C 315.158 125.287, 315.676 125.970, 316.252 127.767 C 317.385 131.303, 316.513 133.357, 314.892 130.971 C 314.076 129.769, 313.948 129.848, 314.196 131.401 C 314.977 136.290, 318.719 134.128, 318.233 129.069 C 317.690 123.421, 319.885 121.327, 325.228 122.396 C 327.772 122.904, 328.113 122.735, 327.546 121.246 C 327.107 120.092, 327.216 119.839, 327.869 120.500 C 328.413 121.050, 329.002 123.040, 329.179 124.923 C 329.355 126.806, 330.074 128.459, 330.775 128.598 C 331.476 128.737, 331.589 128.621, 331.025 128.342 C 330.461 128.062, 330.012 126.858, 330.027 125.667 C 330.051 123.665, 330.183 123.710, 331.758 126.250 C 332.696 127.763, 333.809 129, 334.232 129 C 335.665 129, 335.008 127.301, 332.548 124.646 C 330.277 122.196, 330.224 121.541, 332.325 121.907 C 332.779 121.986, 332.890 121.229, 332.571 120.225 C 331.450 116.690, 337.020 117.920, 339.251 121.700 C 340.321 123.515, 341.607 125, 342.107 125 C 342.608 125, 342.451 125.919, 341.758 127.043 C 341.013 128.252, 339.786 128.903, 338.751 128.637 C 336.249 127.994, 335.654 129.597, 337.144 132.964 C 338.521 136.074, 342 137.824, 342 135.406 C 342 134.633, 342.515 134.112, 343.144 134.250 C 343.774 134.387, 344.692 133.016, 345.185 131.203 C 345.709 129.277, 347.001 127.535, 348.291 127.016 C 350.490 126.131, 350.489 126.126, 348.083 126.063 C 344.829 125.978, 345.687 125.413, 350.348 124.569 C 352.969 124.095, 353.987 124.212, 353.539 124.936 C 353.178 125.521, 353.471 126.007, 354.191 126.015 C 355.142 126.026, 355.090 126.296, 354 127 C 352.090 128.234, 354.146 128.234, 358 127 L 360.500 126.199 358 126.002 C 356.037 125.846, 356.466 125.505, 360 124.414 L 364.500 123.025 359.500 123.403 C 356.750 123.611, 355.288 123.572, 356.250 123.317 C 357.212 123.062, 358 122.447, 358 121.951 C 358 121.435, 356.905 121.466, 355.435 122.025 C 350.443 123.923, 349.575 122.876, 354.500 120.897 C 374.070 113.030, 377.770 112.474, 375.442 117.750 C 375.017 118.712, 374.711 120.711, 374.761 122.190 C 374.828 124.140, 374.457 124.729, 373.415 124.329 C 372.411 123.944, 372.163 124.262, 372.593 125.383 C 372.932 126.266, 373.607 126.743, 374.093 126.442 C 374.579 126.142, 374.709 126.594, 374.382 127.448 C 374.054 128.302, 374.284 129, 374.893 129 C 376.042 129, 376.112 128.545, 376.526 118.320 C 376.889 109.354, 377.887 102.079, 379.053 99.901 C 380.175 97.804, 376.758 96.965, 375.485 99.025 C 375.136 99.589, 371.622 101.673, 367.676 103.657 C 363.729 105.640, 358.556 108.598, 356.180 110.228 C 353.804 111.859, 351.631 112.965, 351.353 112.686 C 350.724 112.058, 359.675 105.981, 371.250 99.179 C 378.288 95.042, 380.009 94.375, 380.044 95.768 C 380.069 96.733, 381.006 95.728, 382.160 93.500 C 383.299 91.300, 385.191 88.451, 386.365 87.169 L 388.500 84.837 385.500 85.544 C 380.262 86.778, 368.188 92.068, 366.819 93.728 C 365.641 95.157, 365.740 95.199, 367.750 94.129 C 371.918 91.908, 370.045 93.885, 363.008 99.134 C 359.162 102.002, 356.217 104.550, 356.462 104.795 C 356.707 105.040, 358.616 103.894, 360.704 102.247 C 365.570 98.408, 374.118 93, 375.318 93 C 377.252 93, 373.421 96.252, 367.083 99.989 C 363.463 102.124, 358.093 105.700, 355.152 107.934 C 352.210 110.169, 349.387 111.739, 348.877 111.424 C 348.367 111.109, 348.074 111.447, 348.225 112.176 C 348.395 112.996, 347.738 113.386, 346.500 113.200 C 343.161 112.699, 342.572 112.732, 340.634 113.533 C 338.993 114.210, 338.902 114.051, 339.883 112.219 C 340.496 111.073, 341.898 109.850, 342.999 109.500 C 344.100 109.151, 345 108.494, 345 108.040 C 345 107.586, 345.732 106.933, 346.626 106.590 C 348.064 106.038, 348.047 106.286, 346.482 108.733 L 344.712 111.500 347.180 109.241 C 348.538 107.998, 349.888 107.222, 350.182 107.515 C 350.475 107.808, 351.342 107.250, 352.107 106.274 C 353.400 104.627, 353.357 104.605, 351.500 105.970 C 350.023 107.055, 350.134 106.728, 351.924 104.720 C 354.446 101.891, 356.182 100.871, 354 103.500 C 353.007 104.697, 353.007 105, 354 105 C 354.945 105, 354.914 105.422, 353.872 106.750 C 352.630 108.334, 352.665 108.370, 354.239 107.137 C 355.195 106.387, 355.757 105.417, 355.488 104.980 C 355.218 104.544, 357.297 102.120, 360.107 99.594 C 362.917 97.067, 364.925 95, 364.568 95 C 363.069 95, 354.813 99.753, 344.514 106.545 C 330.187 115.995, 325.839 117.404, 312.935 116.783 C 302.779 116.294, 300.408 115.618, 303.029 113.961 C 303.838 113.449, 304.107 113.024, 303.628 113.015 C 303.148 113.007, 303.359 112.213, 304.097 111.250 C 304.835 110.287, 304.299 110.513, 302.905 111.750 C 298.645 115.532, 298.349 114.251, 302.500 110 C 307.341 105.043, 306.121 104.891, 299.153 109.583 C 293.060 113.686, 291.057 113.583, 296.482 109.446 C 298.470 107.930, 300.569 105.805, 301.148 104.724 C 302.401 102.382, 301.774 102.678, 294.750 107.744 C 288.862 111.991, 288.666 111.332, 294.250 106.061 C 299.413 101.188, 297.192 100.422, 290.680 104.830 C 283.677 109.571, 283.271 109.420, 288.750 104.113 C 291.637 101.316, 293.986 98.684, 293.968 98.264 C 293.951 97.844, 293.344 98.281, 292.619 99.234 C 291.895 100.188, 291.009 100.676, 290.651 100.317 C 290.292 99.959, 288.312 101.007, 286.250 102.647 C 278.766 108.596, 279.162 106.790, 287 99.225 C 289.085 97.212, 288.360 97.416, 282.630 100.453 C 274.543 104.739, 272.877 104.455, 279.348 99.894 C 281.861 98.123, 283.628 96.207, 283.275 95.636 C 282.855 94.956, 282.496 95.012, 282.234 95.799 C 282.013 96.460, 281.389 97, 280.847 97 C 280.304 97, 277.979 98.273, 275.680 99.830 C 267.304 105.500, 267.786 104.430, 277.293 96.250 C 282.747 91.557, 279.658 92.249, 273.317 97.141 C 266.230 102.609, 265.522 101.527, 272.211 95.451 C 276.777 91.304, 277.345 89.936, 273 93.553 C 270.517 95.619, 261.861 100.194, 261.368 99.701 C 261.115 99.448, 263.854 97.139, 267.454 94.570 C 273.711 90.105, 276.353 87.505, 271.878 90.215 C 270.711 90.922, 269.017 91.950, 268.112 92.500 C 267.208 93.050, 264.901 94.671, 262.984 96.102 C 256.475 100.964, 256.481 100.146, 263 93.926 C 269.283 87.930, 265.710 89.569, 258.760 95.870 C 253.252 100.864, 255.042 97.020, 260.981 91.099 C 268.824 83.280, 268.040 83.388, 258.074 91.500 C 247.704 99.941, 246.850 99.737, 255.527 90.892 C 259.362 86.982, 261.488 84.390, 260.250 85.132 C 259.012 85.874, 258 86.849, 258 87.300 C 258 87.750, 257.663 87.914, 257.250 87.664 C 256.519 87.221, 253.937 89.444, 253.979 90.480 C 253.991 90.766, 253.662 91.049, 253.250 91.110 C 252.838 91.170, 251.237 92.119, 249.692 93.219 C 244.273 97.078, 245.977 94.180, 252.690 88.121 C 260.806 80.797, 260.233 79.867, 252 87 C 248.826 89.750, 245.936 92, 245.579 92 C 244.339 92, 247.182 87.809, 250.331 84.995 C 252.073 83.439, 253.232 81.899, 252.907 81.574 C 252.582 81.248, 250.993 82.224, 249.377 83.741 C 247.761 85.258, 244.202 88.299, 241.469 90.497 L 236.500 94.495 239.978 89.997 C 241.891 87.524, 245.266 83.761, 247.478 81.636 C 251.808 77.475, 249.748 78.542, 243.929 83.474 C 235.917 90.264, 235 90.954, 235 90.193 C 235 89.756, 237.286 86.834, 240.080 83.700 C 242.874 80.565, 244.701 78, 244.139 78 C 243.577 78, 242.863 78.412, 242.552 78.916 C 242.240 79.420, 238.276 82.862, 233.743 86.565 C 226.834 92.207, 226.207 92.559, 229.867 88.742 C 232.268 86.236, 233.929 83.695, 233.558 83.093 C 233.166 82.459, 233.641 81.987, 234.691 81.969 C 235.686 81.951, 237.309 80.826, 238.297 79.469 C 241.277 75.374, 238.714 76.669, 231.920 82.691 C 228.389 85.821, 224.619 89.083, 223.543 89.941 C 220.903 92.044, 227.020 84.254, 230.907 80.563 C 232.608 78.948, 233.986 77.148, 233.968 76.563 C 233.951 75.978, 233.388 76.175, 232.718 77 C 232.048 77.825, 229.588 79.799, 227.250 81.386 C 224.912 82.973, 223 84.961, 223 85.803 C 223 86.645, 222.699 87.032, 222.331 86.664 C 221.963 86.297, 220.838 86.741, 219.831 87.653 C 218.824 88.564, 218 89.063, 218 88.761 C 218 88.237, 219.542 86.479, 227.833 77.552 C 231.762 73.322, 230.759 73.577, 224.780 78.330 C 222.734 79.956, 221.284 81.650, 221.558 82.093 C 221.832 82.537, 221.031 83.426, 219.778 84.070 C 218.525 84.713, 215.926 86.648, 214.002 88.370 L 210.504 91.500 213.481 88 C 215.119 86.075, 219.393 81.376, 222.979 77.558 C 229.631 70.477, 229.194 70.437, 220.710 77.350 C 218.075 79.497, 215.613 80.947, 215.239 80.572 C 214.864 80.198, 214.995 79.578, 215.529 79.196 C 216.063 78.813, 217.167 77.600, 217.983 76.500 L 219.466 74.500 217.014 76.500 C 215.665 77.600, 213.954 79.063, 213.210 79.750 C 211.890 80.970, 210 81.444, 210 80.555 C 210 80.310, 212.137 78.054, 214.750 75.540 C 220.536 69.973, 217.740 70.640, 209.750 76.732 C 202.565 82.211, 202.296 81.212, 209.250 74.875 C 212.137 72.244, 214.001 70.070, 213.391 70.045 C 212.781 70.020, 210.193 71.838, 207.641 74.085 C 202.657 78.472, 201.989 78.502, 204.745 74.215 C 205.889 72.434, 204.267 73.463, 200.032 77.204 C 193.190 83.249, 190.272 84.288, 196.070 78.616 C 205.404 69.484, 202.334 69.468, 191.981 78.595 C 183.602 85.982, 180.499 87.864, 175.800 88.412 C 172.862 88.754, 172.739 88.664, 174.433 87.425 C 176.268 86.084, 175.975 84.975, 173 82 C 172.495 81.495, 172.421 81.018, 172.150 76.500 C 172.063 75.057, 171.390 74, 170.557 74 C 169.763 74, 168.407 72.992, 167.545 71.760 L 165.976 69.520 163.460 72.448 C 162.077 74.058, 160.103 75.437, 159.074 75.513 C 156.459 75.706, 147 83.327, 147 85.242 C 147 85.733, 147.900 85.849, 149 85.500 C 150.147 85.136, 151 85.320, 151 85.933 C 151 86.520, 149.382 87, 147.405 87 L 143.809 87 146.970 81.399 C 148.709 78.318, 149.896 75.563, 149.608 75.275 C 149.321 74.988, 148.308 76.383, 147.358 78.376 C 145.703 81.847, 143.445 83.610, 144.638 80.500 C 146.014 76.915, 142.975 79.421, 141 83.500 C 139.025 87.579, 135.986 90.085, 137.362 86.500 C 137.678 85.675, 137.501 85, 136.969 85 C 136.436 85, 136 85.525, 136 86.167 C 136 86.808, 135.711 87.044, 135.357 86.691 C 134.483 85.816, 137.012 82.889, 138.075 83.546 C 138.542 83.835, 139.823 82.367, 140.923 80.285 C 143.954 74.547, 145.282 72.939, 144.460 76 C 143.891 78.120, 144.511 77.778, 148.546 73.750 C 151.162 71.138, 153.633 69, 154.036 69 C 154.440 69, 155.488 67.905, 156.365 66.566 C 158.243 63.700, 156.403 56.997, 154.313 59.087 C 153.548 59.852, 152.854 59.292, 151.901 57.139 C 150.878 54.827, 150.258 54.371, 149.263 55.197 C 148.310 55.988, 147.497 55.855, 146.218 54.697 C 144.596 53.229, 144.219 53.519, 140.862 58.809 M 99.750 106.944 C 100.987 107.976, 102 109.536, 102 110.410 C 102 112.383, 105.249 115.750, 106.689 115.270 C 107.275 115.075, 108.044 115.673, 108.400 116.599 C 108.920 117.956, 108.773 118.056, 107.640 117.116 C 106.544 116.206, 106.104 116.286, 105.648 117.474 C 104.812 119.653, 102.249 119.360, 101.500 117 C 101.151 115.900, 100.430 115, 99.897 115 C 98.743 115, 100.525 118.574, 103.010 121.241 C 105.170 123.560, 105.499 128.659, 103.375 126.896 C 101.664 125.477, 99 127.365, 99 129.997 C 99 130.960, 98.345 133.605, 97.544 135.874 C 96.744 138.143, 96.317 140, 96.596 140 C 96.876 140, 97.575 138.650, 98.150 137 C 99.089 134.307, 99.621 134.003, 103.348 134.033 C 108.751 134.077, 112.604 137.004, 111.058 139.892 C 109.234 143.300, 109.811 143.723, 117.250 144.436 C 121.237 144.818, 125.625 145.316, 127 145.543 C 128.375 145.770, 127.849 145.403, 125.832 144.728 C 122.454 143.597, 119.192 141.569, 121.500 142.035 C 125.137 142.769, 127.127 141.984, 125.571 140.429 C 123.706 138.563, 123.626 137.567, 125.116 134.783 C 126.076 132.989, 125.990 132.790, 124.505 133.360 C 123.206 133.858, 122.929 133.628, 123.389 132.430 C 123.725 131.553, 124 130.455, 124 129.990 C 124 129.524, 124.787 128.348, 125.750 127.377 C 127.417 125.696, 127.413 125.645, 125.668 126.306 C 124.661 126.688, 123.311 127.007, 122.668 127.015 C 121.979 127.024, 122.115 127.466, 123 128.091 C 124.220 128.954, 124.232 129.080, 123.063 128.764 C 116.961 127.114, 131.060 121.879, 142.902 121.397 C 149.743 121.119, 151.359 122.004, 146.500 123.367 C 145.306 123.702, 145.609 123.797, 147.250 123.603 C 148.762 123.424, 149.993 123.552, 149.985 123.889 C 149.957 124.990, 148.525 126.692, 147.283 127.100 C 146.611 127.321, 147.171 128.018, 148.533 128.656 C 150.739 129.689, 151 129.590, 151 127.715 C 151 125.658, 151.028 125.655, 152.429 127.559 C 153.777 129.392, 153.896 129.400, 154.550 127.713 C 154.981 126.600, 154.572 125.185, 153.466 123.963 C 152.488 122.881, 152.198 122, 152.822 122 C 154.915 122, 157.277 126.866, 156.666 129.921 C 156.268 131.908, 156.528 132.989, 157.493 133.359 C 159.505 134.131, 158.909 125.141, 156.847 123.621 C 156.011 123.005, 154.755 121.427, 154.056 120.115 C 153.289 118.675, 152.521 118.158, 152.118 118.809 C 151.562 119.709, 149.108 119.780, 147 118.958 C 146.725 118.851, 146.208 118.801, 145.850 118.848 C 145.493 118.895, 144.921 117.823, 144.581 116.467 C 144.240 115.110, 143.520 114, 142.981 114 C 141.545 114, 141.781 117.755, 143.250 118.280 C 143.954 118.531, 144.125 119.114, 143.641 119.613 C 143.148 120.121, 142.136 119.539, 141.269 118.250 C 140.437 117.013, 139.331 116, 138.811 116 C 138.291 116, 138.177 117.013, 138.557 118.250 C 139.032 119.792, 137.817 118.931, 134.697 115.511 C 130.113 110.488, 127.325 109.795, 130.365 114.434 C 131.264 115.806, 132 117.463, 132 118.115 C 132 118.767, 130.694 117.356, 129.097 114.979 C 127.501 112.602, 126.406 110.105, 126.665 109.430 C 126.924 108.755, 126.656 107.905, 126.068 107.542 C 124.934 106.841, 124.730 107.694, 124.884 112.500 C 124.970 115.187, 124.884 115.276, 124.060 113.352 C 122.988 110.850, 120.706 109.070, 121.618 111.448 C 121.966 112.353, 121.680 113, 120.933 113 C 120.183 113, 120.647 114.060, 122.052 115.556 C 124.054 117.686, 124.137 117.990, 122.553 117.382 C 120.967 116.773, 120.784 116.971, 121.444 118.576 C 122.720 121.676, 122.906 125, 121.805 125 C 121.245 125, 121.058 124.292, 121.389 123.428 C 122.042 121.726, 120.216 117.451, 119.249 118.417 C 118.926 118.741, 117.587 117.205, 116.274 115.003 C 113.422 110.221, 111.244 109.609, 113.596 114.250 L 115.242 117.500 112.121 114.563 C 110.405 112.948, 109 112.160, 109 112.813 C 109 114.662, 106.500 114.210, 104.500 112 C 103.505 110.900, 102.995 110, 103.368 110 C 103.741 110, 103.309 108.875, 102.408 107.500 C 101.507 106.125, 100.034 105.015, 99.135 105.033 C 97.831 105.060, 97.955 105.446, 99.750 106.944" stroke="none" fill="#1a1a2e" fill-rule="evenodd"/>
</svg>