<svg xmlns="http://www.w3.org/2000/svg" width="248" height="150" viewBox="0 0 248 150" version="1.1">
	<path d="M 77.094 17.250 C 76.623 18.488, 75.444 21.300, 74.473 23.500 C 73.502 25.700, 72.556 28.400, 72.370 29.500 C 72.184 30.600, 71.779 32.962, 71.471 34.750 C 71.162 36.538, 70.453 38, 69.896 38 C 69.338 38, 69.167 38.461, 69.515 39.025 C 69.864 39.588, 69.553 39.926, 68.824 39.775 C 67.986 39.601, 67.587 40.326, 67.738 41.750 C 67.869 42.987, 67.505 44, 66.929 44 C 66.353 44, 66.141 43.581, 66.457 43.069 C 66.774 42.557, 66.551 41.840, 65.962 41.476 C 65.240 41.030, 65.410 40.023, 66.485 38.383 C 67.877 36.258, 67.898 35.693, 66.650 33.911 C 65.181 31.813, 64.028 35.642, 63.990 42.750 C 63.983 43.987, 63.484 45, 62.882 45 C 62.279 45, 62.014 44.405, 62.293 43.678 C 62.572 42.951, 62 41.857, 61.023 41.246 C 59.695 40.417, 59.254 40.435, 59.280 41.318 C 59.396 45.225, 58.798 45.973, 54.750 46.987 C 43.835 49.722, 29.925 55.913, 20.761 62.116 C 17.605 64.252, 14.601 66, 14.087 66 C 12.401 66, 0.853 77.954, 1.511 79.018 C 1.864 79.589, 3.773 80.831, 5.754 81.778 C 11.367 84.462, 11.245 86.309, 5.511 85.449 C 1.254 84.811, 0.837 84.923, 1.152 86.622 C 1.541 88.722, 10.211 93.472, 12.222 92.686 C 12.925 92.412, 12.028 91.862, 10.229 91.464 C 6.059 90.543, 4.608 88.541, 8.608 89.227 C 10.199 89.500, 13.656 90.334, 16.292 91.080 C 21.686 92.608, 24.286 91.730, 24.812 88.203 C 25.135 86.044, 27.712 86.171, 29.208 88.419 C 29.702 89.160, 30.270 89.130, 31.080 88.320 C 31.720 87.680, 32.864 87.394, 33.622 87.685 C 34.380 87.976, 35.007 87.603, 35.015 86.857 C 35.027 85.794, 35.204 85.773, 35.831 86.761 C 37.881 89.990, 41.315 83.378, 41.410 76.017 C 41.468 71.511, 41.905 69.002, 42.633 69.001 C 44.306 68.999, 44.905 72.381, 44.555 79.853 C 44.384 83.509, 44.501 84.925, 44.817 83 C 45.373 79.606, 45.407 79.651, 45.945 84.491 C 46.774 91.950, 48.590 91.492, 56.623 81.799 C 60.405 77.234, 63.837 73.350, 64.250 73.167 C 66.195 72.302, 61.030 65.885, 56.036 62.960 C 54.804 62.239, 54.950 62.055, 56.771 62.030 C 58.251 62.011, 59.446 62.886, 60.200 64.539 C 60.887 66.047, 61.914 66.863, 62.730 66.550 C 63.486 66.260, 63.860 66.417, 63.563 66.898 C 62.770 68.181, 65.734 70.316, 67.414 69.671 C 71.490 68.107, 71.491 73.793, 67.416 76.463 C 66.087 77.334, 65 78.711, 65 79.523 C 65 81.679, 66.522 81.329, 68.357 78.750 C 69.626 76.967, 69.824 76.896, 69.312 78.407 C 68.638 80.396, 69.106 80.401, 82.500 78.534 C 83.600 78.381, 86.236 78.198, 88.357 78.128 C 91.569 78.021, 92.112 77.708, 91.605 76.250 C 91.075 74.729, 91.159 74.697, 92.248 76.006 C 93.364 77.348, 94.878 77.729, 101.275 78.277 C 102.403 78.373, 102.858 78.988, 102.522 79.964 C 102.139 81.082, 102.368 81.020, 103.366 79.739 C 104.558 78.208, 104.895 78.169, 105.951 79.441 C 107.193 80.938, 106.460 85.402, 105.109 84.567 C 104.034 83.903, 105.056 90.255, 106.268 91.774 C 106.827 92.475, 106.996 93.337, 106.643 93.691 C 106.289 94.044, 106 93.808, 106 93.167 C 106 92.525, 105.523 92, 104.941 92 C 104.359 92, 104.207 92.526, 104.605 93.170 C 105.094 93.961, 104.779 94.129, 103.634 93.690 C 102.464 93.241, 101.622 93.736, 100.915 95.288 C 98.334 100.952, 92.990 102.568, 83.500 100.551 L 80.500 99.914 83.500 101.472 C 85.150 102.329, 85.600 102.767, 84.500 102.445 C 83.400 102.123, 81.270 101.612, 79.766 101.308 C 78.263 101.005, 77.254 100.398, 77.525 99.960 C 78.211 98.849, 73.114 97.984, 69.500 98.598 C 67.850 98.878, 65.938 99.158, 65.250 99.220 C 64.563 99.283, 64 99.728, 64 100.211 C 64 100.693, 63.438 100.977, 62.750 100.841 C 59.816 100.262, 53.427 103.244, 55.755 104.105 C 57.006 104.568, 58.202 106.108, 58.553 107.707 C 61.132 119.454, 63.423 125.167, 66.112 126.558 L 68.897 127.998 65.996 122.150 C 63.200 116.516, 60.045 108.362, 60.015 106.696 C 60.007 106.254, 62.362 106.153, 65.250 106.472 C 79.204 108.013, 98.658 108.156, 105.250 106.765 C 111.704 105.403, 112 105.424, 112 107.229 C 112 108.268, 112.430 108.852, 112.956 108.527 C 113.482 108.202, 113.671 107.307, 113.376 106.537 C 113.008 105.578, 114.042 104.805, 116.670 104.075 C 122.465 102.465, 122.644 102.556, 126.452 109.054 C 130.423 115.829, 130.620 116.452, 128.543 115.655 C 127.339 115.193, 127.279 115.517, 128.196 117.531 C 129.564 120.533, 134.497 121.540, 145.924 121.151 L 150.349 121 147.924 118.394 C 146.591 116.961, 144.504 115.403, 143.287 114.933 C 142.070 114.462, 139.955 112.373, 138.587 110.289 C 137.219 108.205, 135.187 105.375, 134.072 104 C 132.957 102.625, 132.034 100.938, 132.022 100.250 C 131.969 97.255, 134.918 99.651, 140.500 107.136 C 151.650 122.090, 152.194 122.421, 161.500 119.909 C 168.339 118.064, 171.417 111.869, 166.435 109.975 C 162.115 108.333, 160.126 108.822, 163.250 110.758 C 164.762 111.696, 166 112.835, 166 113.289 C 166 114.721, 156.136 108.720, 149.355 103.163 C 140.124 95.598, 140.531 97.286, 150.013 105.888 C 157.734 112.895, 159.307 115, 156.817 115 C 155.055 115, 138.774 97.819, 139.702 96.940 C 147.004 90.019, 181.864 86.056, 194 90.766 C 207.439 95.983, 223.824 100.142, 222.500 98 C 222.160 97.450, 222.610 97, 223.500 97 C 224.390 97, 224.840 96.550, 224.500 96 C 224.160 95.450, 223.035 95, 222 95 C 219.966 95, 218.391 93.275, 219.454 92.212 C 219.814 91.852, 220.444 92.101, 220.854 92.764 C 222.106 94.789, 227.444 95.375, 228.879 93.645 C 229.966 92.336, 229.636 92.022, 226.562 91.446 C 224.591 91.076, 222.731 90.374, 222.430 89.887 C 222.129 89.399, 220.221 88.968, 218.191 88.930 C 213.892 88.848, 208.893 87.195, 212.566 87.070 C 213.703 87.032, 217.303 87.455, 220.566 88.011 C 223.830 88.567, 227.737 89.231, 229.250 89.486 C 230.762 89.741, 232 89.532, 232 89.020 C 232 88.509, 230.313 87.788, 228.250 87.417 C 222.865 86.450, 220.510 84.827, 225.500 85.523 C 233.021 86.571, 233.416 86.534, 233.785 84.750 C 234.085 83.299, 233.408 82.997, 229.823 82.985 C 225.026 82.968, 222.026 81.720, 223.939 80.538 C 224.573 80.146, 227.321 80.132, 230.046 80.506 C 234.502 81.119, 235 80.994, 235 79.267 C 235 77.696, 234.446 77.428, 231.961 77.792 C 229.999 78.080, 228.261 77.641, 227.060 76.554 C 225.838 75.448, 224.972 75.236, 224.540 75.935 C 223.702 77.292, 214 77.341, 214 75.988 C 214 75.368, 215.547 75.224, 218 75.616 C 220.811 76.066, 222 75.897, 222 75.048 C 222 74.159, 223.694 74.022, 228.435 74.530 C 234.427 75.172, 234.836 75.089, 234.375 73.326 C 233.957 71.728, 232.763 71.388, 226.697 71.140 C 217.033 70.746, 216.795 70, 226.333 70 C 232.481 70, 234 69.703, 234 68.500 C 234 67.407, 232.870 67, 229.833 67 C 225.054 67, 225.033 66.182, 229.802 65.818 C 231.561 65.684, 233 65.045, 233 64.399 C 233 62.714, 226.733 61.771, 223.558 62.978 C 219.968 64.343, 215.288 64.274, 214.404 62.844 C 213.887 62.008, 214.754 61.861, 217.531 62.311 C 219.645 62.654, 221.869 62.523, 222.475 62.020 C 223.081 61.517, 225.436 60.996, 227.709 60.862 C 231.181 60.657, 231.913 60.237, 232.297 58.225 C 232.670 56.275, 232.407 55.922, 230.877 56.322 C 229.845 56.592, 229 56.402, 229 55.901 C 229 55.387, 232.821 55.184, 237.750 55.436 C 244.881 55.800, 246.037 55.670, 244 54.733 C 236.067 51.085, 207.819 53.851, 188.024 60.214 C 175.361 64.284, 155.738 64.430, 159.059 60.429 C 159.711 59.643, 161.375 59, 162.756 59 C 166.949 59, 173 56.781, 173 55.243 C 173 54.451, 174.398 52.497, 176.106 50.901 C 178.385 48.772, 178.769 48, 177.547 48 C 176.631 48, 176.123 47.610, 176.417 47.134 C 177.110 46.012, 174.164 43.439, 171.125 42.511 C 169.388 41.981, 168.951 42.112, 169.500 43 C 170.036 43.868, 169.657 44.026, 168.169 43.554 C 167.025 43.190, 163.788 42.737, 160.976 42.546 C 153.567 42.042, 152.717 40.762, 159 39.570 C 162.378 38.929, 162.430 38.964, 160.500 40.587 L 158.500 42.269 160.500 41.527 C 161.600 41.118, 165.113 39.883, 168.306 38.781 C 174.963 36.485, 175.374 35.240, 168.851 37.128 C 166.458 37.821, 162.833 38.441, 160.795 38.506 L 157.090 38.624 159.795 36.874 C 164.749 33.670, 167.780 30.882, 165.500 31.627 C 164.400 31.986, 162.985 32.912, 162.356 33.685 C 161.727 34.459, 159.477 35.327, 157.356 35.614 L 153.500 36.138 156.500 33.574 C 159.765 30.784, 158.982 30.224, 155 32.500 C 153.625 33.286, 151.127 33.945, 149.450 33.965 C 147.772 33.984, 145.759 34.563, 144.977 35.250 C 144.194 35.938, 144.398 35.487, 145.432 34.250 C 147.439 31.845, 146.535 31.269, 143.912 33.282 C 143.039 33.952, 142.514 35.063, 142.746 35.750 C 143.390 37.664, 141.611 37.236, 140.078 35.108 C 137.989 32.211, 127 38.110, 127 42.129 C 127 43.093, 126.550 44.160, 126 44.500 C 125.450 44.840, 125 44.656, 125 44.090 C 125 43.525, 124.325 43.322, 123.500 43.638 C 121.194 44.523, 121.719 42.613, 124.500 40 C 127.521 37.162, 127.667 36.074, 125 36.275 C 123.900 36.358, 123 37.005, 123 37.713 C 123 38.421, 122.433 39, 121.741 39 C 120.542 39, 117.612 42.659, 117.536 44.250 C 117.516 44.663, 117.061 45.034, 116.525 45.075 C 114.442 45.235, 115.109 43.266, 118.235 40.024 C 120.031 38.161, 120.861 37.017, 120.080 37.482 C 118.979 38.138, 118.825 37.899, 119.394 36.416 C 119.938 34.997, 119.357 35.242, 117.139 37.366 C 115.496 38.941, 114.355 40.761, 114.604 41.410 C 115.361 43.383, 110.755 46.650, 108.100 46.024 C 105.416 45.390, 106.531 43.910, 111.054 42.104 L 113.500 41.127 111.095 41.063 C 108.342 40.991, 110.857 37, 113.655 37 C 115.197 37, 115.342 36.089, 114.110 34.143 C 113.499 33.179, 113.048 33.113, 112.554 33.912 C 111.521 35.585, 102 40.198, 102 39.026 C 102 38.472, 103.539 37.009, 105.420 35.776 C 107.301 34.543, 108.782 32.762, 108.711 31.818 C 108.573 29.977, 106.870 30.769, 104.250 33.892 C 103.562 34.712, 102.437 35.478, 101.750 35.595 C 101.062 35.711, 99.660 36.143, 98.634 36.555 C 95.825 37.681, 98.221 33.636, 102.032 30.818 C 103.664 29.611, 105 28.034, 105 27.312 C 105 25.675, 103.774 25.626, 102.200 27.200 C 101.313 28.087, 100.707 28.107, 99.878 27.278 C 99.261 26.661, 98.136 26.394, 97.378 26.685 C 95.488 27.410, 95.650 26.070, 97.750 23.596 C 99.434 21.612, 99.430 21.589, 97.638 22.983 C 96.614 23.779, 95.489 25.131, 95.138 25.987 C 93.269 30.546, 84.434 44, 83.309 44 C 81.322 44, 81.742 42.294, 84.144 40.612 C 86.333 39.078, 89.982 34.143, 89.993 32.699 C 89.997 32.259, 88.425 33.100, 86.500 34.568 C 84.575 36.036, 83 36.900, 83 36.487 C 83 34.612, 87.428 28.861, 90.073 27.298 C 93.202 25.449, 93.995 23, 91.465 23 C 90.210 23, 90.137 22.612, 91.065 20.879 C 91.972 19.183, 91.938 18.920, 90.892 19.567 C 89.374 20.505, 85 21.099, 85 20.366 C 85 20.092, 85.486 18.960, 86.081 17.849 C 88.407 13.502, 86.014 15.125, 83.393 19.671 C 79.756 25.982, 75.986 31, 74.881 31 C 73.094 31, 74.083 27.976, 76.931 24.732 C 79.009 22.365, 79.597 20.973, 78.954 19.947 C 78.454 19.151, 78.291 17.712, 78.590 16.750 C 79.389 14.182, 78.098 14.613, 77.094 17.250" stroke="none" fill="#1a1a2e" fill-rule="evenodd"/>
</svg>