<svg xmlns="http://www.w3.org/2000/svg" width="400" height="308" viewBox="0 0 400 308" version="1.1">
	<path d="M 0.018 52.919 C 0.013 94.190, 0.286 105.948, 1.256 106.340 C 2.237 106.736, 2.234 106.859, 1.240 106.921 C 0.234 106.984, -0.013 127.347, 0.019 207.502 L 0.058 308.005 200.279 307.752 L 400.500 307.500 400.746 153.750 L 400.991 0 272.079 -0 C 169.927 -0, 143.046 0.259, 142.583 1.250 C 142.117 2.250, 141.883 2.250, 141.417 1.250 C 140.958 0.267, 125.775 0, 70.429 0 L 0.025 0 0.018 52.919 M 143.946 6.876 C 135.028 12.644, 127.956 21.783, 117.540 41 C 104.551 64.963, 96.415 75.652, 80.797 89.273 C 71.139 97.696, 70.277 98.560, 54.631 115.500 C 30.161 141.992, 27.957 144.729, 30.036 146.043 C 32.107 147.353, 36.381 147.219, 37.800 145.800 C 38.712 144.888, 39.279 144.879, 40.163 145.763 C 41.047 146.647, 40.672 147.174, 38.603 147.961 C 37.105 148.530, 36.158 149.447, 36.499 149.998 C 36.839 150.549, 36.416 151, 35.559 151 C 34.702 151, 34 151.450, 34 152 C 34 152.550, 33.014 153, 31.809 153 C 29.672 153, 29.666 153.035, 31.557 154.418 C 32.624 155.198, 33.160 156.173, 32.748 156.585 C 32.337 156.997, 32 156.808, 32 156.167 C 32 154.729, 24.378 154.579, 23.500 156 C 22.683 157.322, 21 157.282, 21 155.941 C 21 155.359, 21.520 155.203, 22.155 155.595 C 22.870 156.038, 23.038 155.870, 22.595 155.155 C 21.563 153.484, 20 153.738, 20 155.577 C 20 156.743, 19.154 157.085, 16.750 156.890 C 13.772 156.648, 9 158.624, 9 160.099 C 9 160.438, 11.362 161.939, 14.250 163.434 C 24.932 168.964, 30.005 172.183, 29.451 173.079 C 29.138 173.586, 29.442 174, 30.127 174 C 30.811 174, 32.423 174.988, 33.709 176.197 L 36.047 178.393 35.687 176.029 C 35.481 174.684, 34.544 173.550, 33.513 173.399 C 32.516 173.253, 31.430 172.720, 31.100 172.216 C 30.770 171.712, 29.475 170.759, 28.222 170.100 C 26.961 169.435, 26.249 168.407, 26.627 167.795 C 27.032 167.139, 26.852 166.973, 26.184 167.386 C 25.565 167.769, 23.583 167.316, 21.779 166.380 C 19.976 165.444, 19.063 164.488, 19.750 164.255 C 20.438 164.023, 21 163.196, 21 162.417 C 21 160.798, 32.459 160.315, 33.433 161.892 C 33.736 162.383, 31.445 162.720, 28.341 162.642 C 24.285 162.540, 22.561 162.896, 22.212 163.909 C 21.890 164.846, 22.235 165.124, 23.242 164.737 C 24.075 164.418, 25.327 164.684, 26.025 165.328 C 26.780 166.026, 27.048 166.059, 26.686 165.410 C 26.283 164.686, 27.660 164.355, 30.790 164.424 C 33.380 164.481, 36.010 164.172, 36.633 163.738 C 37.298 163.275, 38.009 163.580, 38.352 164.474 C 38.674 165.314, 38.501 166, 37.969 166 C 37.436 166, 37 166.501, 37 167.113 C 37 167.832, 38.152 168.004, 40.250 167.597 C 45.988 166.484, 48.982 166.882, 48.298 168.667 C 48.016 169.400, 48.397 170.014, 49.143 170.032 C 50.105 170.054, 49.995 170.447, 48.766 171.381 C 46.493 173.106, 47.502 173.977, 51.917 174.100 C 58.079 174.271, 60.940 175.391, 58.500 176.675 C 56.120 177.928, 48.030 179.082, 48.152 178.150 C 48.563 175.012, 47.607 175.039, 44.666 178.249 L 41.333 181.888 39.049 179.694 C 34.791 175.603, 37.470 179.690, 43.500 186.485 C 52.405 196.521, 54.859 198.873, 66.670 208.695 C 67.864 209.688, 71.351 212.439, 74.420 214.809 C 77.489 217.179, 80 219.696, 80 220.404 C 80 222.315, 83.693 225.420, 84.191 223.927 C 84.467 223.099, 85.111 223.254, 86.287 224.430 C 87.221 225.364, 88.326 225.921, 88.742 225.669 C 89.725 225.074, 92.069 227.597, 91.273 228.393 C 90.940 228.727, 91.607 229, 92.757 229 C 98.537 229, 113.898 245.403, 125 263.431 C 134.223 278.408, 139.008 285, 144.857 290.788 C 151.050 296.917, 161.141 303.080, 164.721 302.921 C 165.700 302.878, 164.700 302.186, 162.500 301.385 C 151.461 297.362, 141.720 287.665, 148.262 287.210 C 150.555 287.050, 152.763 286.384, 153.167 285.730 C 153.638 284.967, 154.410 285.747, 155.314 287.896 C 156.091 289.742, 157.020 290.777, 157.379 290.196 C 157.739 289.614, 157.575 288.856, 157.016 288.510 C 156.457 288.165, 156.029 286.671, 156.063 285.191 L 156.127 282.500 157.218 285 L 158.309 287.500 159.036 284.500 C 159.436 282.850, 159.817 282.063, 159.882 282.750 C 159.947 283.438, 160.502 284, 161.117 284 C 161.771 284, 162.034 282.956, 161.751 281.476 C 161.485 280.088, 161.658 278.711, 162.134 278.417 C 162.610 278.123, 163.029 278.696, 163.063 279.691 C 163.115 281.157, 163.297 281.076, 164.025 279.267 C 164.655 277.701, 165.435 277.230, 166.635 277.690 C 167.943 278.192, 168.196 277.952, 167.705 276.674 C 167.352 275.753, 167.451 275, 167.924 275 C 168.398 275, 169.070 275.739, 169.417 276.643 C 170.588 279.695, 170.954 277.417, 169.904 273.613 C 169.145 270.866, 168.449 269.998, 167.345 270.421 C 166.304 270.821, 165.469 270.054, 164.687 267.982 C 164.060 266.320, 163.048 265.151, 162.440 265.385 C 161.831 265.618, 161.333 265.197, 161.333 264.449 C 161.333 263.700, 161.708 263.320, 162.167 263.603 C 162.625 263.886, 163 263.291, 163 262.281 C 163 261.271, 163.905 259.669, 165.011 258.722 C 167.243 256.812, 168.451 256.461, 167.500 258 C 167.160 258.550, 167.310 259, 167.834 259 C 169.661 259, 169.874 256.200, 168.082 255.732 C 167.023 255.455, 166.028 253.899, 165.622 251.883 C 165.132 249.453, 164.698 248.888, 164.082 249.878 C 163.610 250.636, 162.716 250.942, 162.095 250.559 C 161.475 250.176, 161.274 249.366, 161.648 248.761 C 162.094 248.039, 161.717 247.894, 160.553 248.341 C 159.204 248.859, 158.924 248.640, 159.389 247.430 C 159.725 246.553, 160 245.662, 160 245.450 C 160 245.237, 160.688 245.327, 161.530 245.650 C 162.430 245.995, 163.877 245.294, 165.045 243.948 C 167.136 241.537, 169.880 243.138, 169.968 246.821 C 170.009 248.499, 172.895 251.439, 173.706 250.628 C 174.427 249.907, 177 251.855, 177 253.122 C 177 253.605, 176.298 254, 175.441 254 C 174.584 254, 174.141 254.419, 174.458 254.932 C 174.774 255.444, 174.026 256.569, 172.794 257.432 C 171.266 258.502, 171.023 259.021, 172.027 259.068 C 172.908 259.108, 172.596 259.572, 171.250 260.220 C 168.640 261.479, 168.230 263.225, 170.646 262.794 C 171.552 262.632, 172.499 263.093, 172.752 263.818 C 173.046 264.660, 172.542 265.021, 171.356 264.818 C 168.953 264.406, 169.226 268.117, 172.002 273.601 L 173.976 277.500 173.481 273 L 172.987 268.500 174.689 272 C 176.224 275.156, 176.428 275.279, 176.765 273.250 C 177.130 271.056, 179 270.010, 179 272 C 179 272.550, 179.439 273, 179.975 273 C 181.171 273, 180.177 267.563, 178.338 264.044 C 177.206 261.879, 177.231 261.335, 178.504 260.390 C 179.327 259.779, 180 258.767, 180 258.140 C 180 256.490, 181.078 256.739, 182.635 258.750 C 183.656 260.069, 183.622 259.583, 182.495 256.782 C 179.632 249.663, 183.615 246.993, 188.855 252.517 C 190.150 253.883, 191.824 255, 192.574 255 C 193.415 255, 193.727 255.670, 193.387 256.750 C 192.922 258.229, 193.084 258.197, 194.432 256.540 C 196.557 253.929, 195.897 252.456, 192.709 252.698 C 190.780 252.844, 190.250 252.512, 190.668 251.422 C 191.103 250.289, 191.553 250.214, 192.617 251.097 C 194.469 252.634, 194.448 251.007, 192.557 246.482 C 191.267 243.395, 190.801 243.090, 188.178 243.614 C 184.641 244.322, 183.589 242.996, 185.084 239.715 C 186.373 236.886, 190.047 237.841, 191.959 241.500 C 192.807 243.123, 192.898 242.840, 192.442 240 C 192.018 237.365, 192.141 236.871, 192.939 238 C 195.524 241.655, 196.899 234.952, 194.506 230.364 C 192.832 227.156, 194.677 225.657, 197.459 227.966 C 198.460 228.796, 199.005 228.801, 199.512 227.981 C 199.908 227.339, 199.348 226.642, 198.193 226.340 C 197.089 226.051, 195.918 224.844, 195.592 223.658 C 195.228 222.330, 194.712 221.913, 194.250 222.573 C 192.704 224.784, 190.189 224.825, 187.872 222.677 L 185.525 220.500 189.160 220.196 C 192.949 219.879, 195.212 216.679, 192.408 215.603 C 190.341 214.810, 194.168 207, 196.624 207 C 198.264 207, 199.120 202.849, 197.806 201.266 C 196.955 200.240, 197.360 199.234, 199.541 196.957 C 202.503 193.866, 202.252 192.753, 198.329 191.570 C 196.804 191.110, 195.558 191.558, 194.147 193.072 C 192.162 195.203, 192.067 195.209, 186.319 193.524 C 176.015 190.503, 170.494 188.225, 170.750 187.099 C 170.896 186.459, 169.433 185.974, 167.250 185.937 C 163.850 185.879, 163.722 185.784, 165.883 184.920 C 168.622 183.824, 175.279 185.739, 174.290 187.339 C 173.927 187.927, 174.621 188.071, 176.035 187.701 C 177.358 187.355, 179.837 187.778, 181.720 188.671 C 187.261 191.301, 197.374 188.974, 194.200 185.800 C 192.323 183.923, 192.790 181.013, 195.106 180.157 C 198.160 179.027, 203 179.962, 203 181.683 C 203 182.622, 203.799 183.024, 205.250 182.816 C 206.488 182.638, 208.372 183.282, 209.439 184.246 C 210.505 185.211, 211.994 186, 212.748 186 C 213.501 186, 213.835 186.457, 213.490 187.016 C 213.144 187.575, 212.443 187.774, 211.931 187.457 C 211.419 187.141, 211 187.263, 211 187.728 C 211 188.194, 210.141 188.639, 209.092 188.718 C 208.043 188.797, 206.242 189.669, 205.091 190.654 L 202.997 192.447 206.193 194.100 C 209.651 195.888, 212 194.865, 212 191.571 C 212 190.448, 212.979 190, 215.438 190 C 218.568 190, 218.860 189.753, 218.688 187.250 C 218.547 185.182, 218.934 184.534, 220.250 184.639 C 221.213 184.715, 222 184.449, 222 184.046 C 222 182.577, 229.315 184.553, 230.391 186.313 C 231.699 188.450, 228.197 192, 224.782 192 C 223.280 192, 222.960 192.433, 223.490 193.750 C 223.877 194.713, 224.313 196.175, 224.460 197 C 224.615 197.868, 225.522 198.355, 226.614 198.155 C 227.651 197.965, 228.187 198.128, 227.804 198.517 C 227.421 198.907, 229.221 200.748, 231.804 202.610 C 234.387 204.471, 237.490 206.708, 238.701 207.580 C 241.085 209.297, 244.018 208.840, 246.494 206.363 C 248.495 204.362, 248.399 203.730, 245.855 202.142 C 243.992 200.978, 243.788 201.005, 244.304 202.350 C 244.701 203.383, 244.446 203.725, 243.539 203.377 C 242.792 203.090, 241.906 201.763, 241.571 200.428 C 241.236 199.092, 240.494 198, 239.922 198 C 239.350 198, 239.202 197.482, 239.594 196.848 C 239.985 196.215, 239.466 195.083, 238.440 194.332 C 236.832 193.157, 236.733 192.547, 237.721 189.927 C 238.934 186.715, 238.528 186.194, 234.328 185.578 C 233.143 185.404, 232.500 184.470, 232.500 182.924 C 232.500 181.597, 231.215 179.312, 229.602 177.770 C 227.528 175.788, 227.155 175, 228.293 175 C 230.482 175, 231.304 173.347, 230.570 170.421 C 229.717 167.025, 226.571 168.738, 225.018 173.445 C 224.390 175.347, 223.013 177.178, 221.959 177.513 C 220.904 177.848, 220.144 178.588, 220.270 179.157 C 220.397 179.726, 219.488 180.584, 218.250 181.064 C 216.543 181.725, 216 181.582, 216 180.468 C 216 179.660, 215.598 179, 215.106 179 C 214.614 179, 214.276 177.875, 214.356 176.501 C 214.435 175.126, 214.788 174.001, 215.141 174.001 C 215.493 174, 216.015 172.537, 216.301 170.750 C 217.677 162.149, 220.614 157.474, 224 158.500 C 224.825 158.750, 226.175 158.515, 227 157.977 C 229.050 156.642, 226.800 155.187, 223.283 155.573 C 221.869 155.728, 220.070 155.213, 219.285 154.428 C 218.500 153.642, 217.327 153.007, 216.679 153.015 C 215.907 153.025, 215.969 153.328, 216.857 153.890 C 217.719 154.437, 217.839 154.981, 217.187 155.384 C 216.623 155.733, 215.450 155.307, 214.581 154.438 C 213.140 152.997, 213 153.030, 213 154.815 C 213 157.059, 207.386 158.478, 205.263 156.771 C 204.583 156.224, 202.895 156.060, 201.513 156.407 C 200.131 156.754, 199 156.622, 199 156.113 C 199 155.604, 198.105 155.421, 197.011 155.707 C 195.917 155.993, 195.249 156.594, 195.526 157.042 C 196.120 158.003, 192.121 159.455, 191.258 158.591 C 190.933 158.266, 191.218 158, 191.892 158 C 192.566 158, 192.835 157.543, 192.490 156.984 C 192.144 156.425, 191.471 156.209, 190.992 156.505 C 190.514 156.800, 189.682 156.254, 189.143 155.292 C 188.218 153.637, 188.050 153.645, 186.082 155.426 C 184.237 157.095, 184 157.122, 184 155.655 C 184 153.770, 182.888 153.512, 181.358 155.042 C 180.634 155.766, 179.923 155.612, 179.035 154.542 C 177.928 153.209, 178.177 153, 180.878 153 C 182.595 153, 184 152.604, 184 152.120 C 184 151.179, 201.364 151.482, 206.018 152.504 C 207.601 152.852, 209.097 152.652, 209.474 152.042 C 209.839 151.451, 210.528 151.208, 211.005 151.503 C 211.482 151.798, 213.798 151.606, 216.153 151.077 C 218.507 150.548, 220.899 150.477, 221.467 150.918 C 222.955 152.075, 229.812 152.113, 230.520 150.968 C 230.849 150.436, 231.597 150, 232.181 150 C 232.909 150, 232.894 150.423, 232.134 151.338 C 230.730 153.030, 237.640 153.544, 239.625 151.896 C 242.136 149.813, 253 151.876, 253 154.437 C 253 156.637, 250.011 158.636, 249.049 157.079 C 248.402 156.032, 248.089 156.044, 247.404 157.143 C 245.692 159.889, 245.954 162, 248.006 162 C 249.112 162, 250 161.332, 250 160.500 C 250 159.675, 250.450 159, 251 159 C 251.550 159, 252 159.623, 252 160.383 C 252 161.144, 253.012 162.038, 254.250 162.370 C 256.933 163.089, 261.042 163.061, 259.244 162.336 C 258.553 162.057, 258.242 161.418, 258.553 160.915 C 258.864 160.412, 258.641 160, 258.059 160 C 257.477 160, 257 158.875, 257 157.500 C 257 156.125, 256.550 155, 256 155 C 255.450 155, 255 154.460, 255 153.800 C 255 152.938, 255.305 152.905, 256.084 153.684 C 257.573 155.173, 260.339 154.288, 261.873 151.831 C 262.574 150.709, 262.696 150.070, 262.143 150.412 C 261.590 150.753, 260.875 150.606, 260.553 150.085 C 260.231 149.564, 260.432 148.851, 261 148.500 C 261.568 148.149, 261.803 147.490, 261.522 147.036 C 261.241 146.581, 261.759 145.923, 262.673 145.572 C 265.063 144.655, 263.146 143.224, 259 142.831 C 256.476 142.592, 255.578 142.874, 255.781 143.843 C 255.936 144.582, 255.529 146.660, 254.878 148.461 L 253.694 151.736 249.597 149.618 C 247.344 148.453, 245.215 147.109, 244.867 146.630 C 244.519 146.152, 243.837 146.469, 243.352 147.335 C 242.734 148.439, 242.028 148.629, 240.986 147.970 C 239.675 147.141, 239.677 147.024, 241 146.976 C 241.825 146.946, 240.986 146.264, 239.135 145.461 C 237.285 144.657, 233.910 144.061, 231.635 144.136 C 229.346 144.212, 228.505 144.466, 229.750 144.706 C 232.524 145.240, 232.673 146.591, 230.035 147.281 C 228.817 147.599, 227.106 146.901, 225.535 145.445 C 222.686 142.805, 222.442 142.202, 224.250 142.269 C 231.009 142.520, 233.470 141.914, 231.559 140.468 C 230.491 139.661, 228.756 139, 227.702 139 C 226.381 139, 225.971 138.518, 226.382 137.448 C 226.722 136.561, 226.555 136.157, 225.992 136.505 C 224.159 137.638, 221.045 137.882, 220.462 136.939 C 220.143 136.422, 220.359 136, 220.941 136 C 221.523 136, 222 135.502, 222 134.893 C 222 134.284, 221.325 134.045, 220.500 134.362 C 219.595 134.709, 219 134.367, 219 133.500 C 219 132.633, 219.595 132.291, 220.500 132.638 C 221.325 132.955, 222 132.716, 222 132.107 C 222 131.498, 221.148 131, 220.107 131 C 217.909 131, 217.364 129.795, 217.443 125.109 C 217.500 121.726, 220.113 118.780, 221.673 120.340 C 222.096 120.763, 221.844 121.478, 221.114 121.930 C 219.509 122.921, 220.539 127, 222.394 127 C 223.244 127, 223.500 125.953, 223.181 123.783 C 222.586 119.729, 224.699 121.456, 227.465 127.286 C 228.549 129.569, 230.164 131.254, 231.619 131.619 C 234.016 132.221, 234.568 133.098, 233.330 134.337 C 232.961 134.705, 231.635 134.335, 230.382 133.515 C 227.507 131.631, 225.779 133.634, 228.538 135.652 C 229.553 136.393, 229.959 137.003, 229.441 137.006 C 226.243 137.027, 234.549 139.764, 238.115 139.864 C 244.910 140.055, 251.319 142.350, 252.735 145.101 C 253.604 146.789, 253.975 147.005, 253.985 145.832 C 253.993 144.914, 254.273 143.452, 254.607 142.582 C 255.063 141.394, 254.579 141, 252.666 141 C 251.265 141, 249.898 140.644, 249.629 140.209 C 249.360 139.774, 247.460 139.305, 245.406 139.167 C 240.984 138.869, 240 138.373, 240 136.441 C 240 135.648, 239.212 134.132, 238.250 133.072 C 234.763 129.229, 234 128.057, 234 126.542 C 234 124.680, 235.157 124.557, 236.842 126.242 C 237.830 127.230, 238.275 127.180, 239.026 125.992 C 240.671 123.390, 240.103 122.897, 236 123.369 C 231.522 123.883, 230.629 122.173, 233.638 118.848 C 235.170 117.155, 235.122 116.978, 232.888 116.119 C 229.855 114.952, 231.991 113.974, 236.893 114.285 C 240.608 114.520, 241.862 113.005, 239.724 110.866 C 238.570 109.712, 238.870 109.160, 241.662 107.308 C 244.249 105.591, 245.132 105.399, 245.733 106.423 C 246.293 107.379, 247.712 107.532, 251 106.991 L 255.500 106.250 251.750 106.125 C 249.354 106.045, 248 105.518, 248 104.667 C 248 102.572, 249.188 101.911, 250.700 103.166 C 251.744 104.032, 252.370 104.030, 253.242 103.158 C 254.119 102.281, 253.927 101.981, 252.450 101.921 C 251.284 101.874, 251.027 101.631, 251.811 101.317 C 253.934 100.468, 250.142 97, 247.091 97 C 244.301 97, 231.110 101.490, 229.670 102.930 C 229.177 103.423, 227.941 102.941, 226.817 101.817 C 225.726 100.726, 225.080 99.587, 225.381 99.285 C 225.683 98.984, 225.492 97.920, 224.958 96.922 C 224.233 95.567, 224.401 94.875, 225.622 94.192 C 227.684 93.038, 226.026 91.919, 223.307 92.630 C 222.020 92.967, 220.850 94.558, 220.134 96.948 C 218.694 101.755, 218.707 102, 220.417 102 C 222.532 102, 222.900 104.107, 221.421 107.750 C 220.420 110.217, 220.391 111.024, 221.301 111.100 C 222.521 111.201, 218.400 112.718, 216.411 112.900 C 215.811 112.955, 214.797 111.850, 214.156 110.444 C 213.516 109.038, 212.651 108.098, 212.235 108.355 C 210.455 109.455, 207.893 106.334, 209.489 105.009 C 212.373 102.616, 211.402 99, 207.875 99 C 204.438 99, 204.281 97.271, 207.106 90.500 C 208.296 87.647, 208.377 87.613, 208.756 89.808 C 209.077 91.668, 209.428 91.889, 210.565 90.946 C 211.672 90.028, 212.110 90.123, 212.595 91.387 C 213.506 93.761, 214.695 93.353, 215.432 90.415 C 216.412 86.512, 215.237 84, 212.433 84 C 210.500 84, 210 83.483, 210 81.481 C 210 79.293, 210.329 79.044, 212.500 79.589 C 214.040 79.976, 215 79.791, 215 79.108 C 215 78.499, 214.991 77.662, 214.981 77.250 C 214.919 74.787, 205.034 75.778, 205.008 78.250 C 205.004 78.662, 204.550 79, 204 79 C 202.123 79, 202.995 76.073, 205.228 74.878 C 207.354 73.740, 207.367 73.655, 205.525 73.009 C 203.929 72.449, 204.150 72.220, 206.797 71.691 C 209.694 71.111, 211.423 69, 209 69 C 208.450 69, 208 68.325, 208 67.500 C 208 65.680, 205.681 65.558, 202.994 67.236 C 201.372 68.249, 200.521 68.173, 198.284 66.815 C 194.751 64.671, 194.498 63.704, 197.155 62.489 C 200.483 60.966, 203.191 56.487, 200.211 57.433 C 197.645 58.247, 197.287 56.837, 199.576 54.937 C 200.665 54.033, 201.361 53.961, 201.826 54.704 C 202.275 55.419, 202.991 55.251, 203.967 54.199 C 205.268 52.799, 205.239 52.694, 203.717 53.278 C 202.575 53.717, 202 53.446, 202 52.469 C 202 49.954, 200.286 50.850, 198.141 54.485 C 195.828 58.405, 193 58.372, 193 54.424 C 193 52.736, 192.572 52.227, 191.500 52.638 C 190.675 52.955, 190 52.689, 190 52.048 C 190 51.407, 189.550 51.160, 189 51.500 C 188.450 51.840, 188 51.191, 188 50.059 C 188 48.927, 188.450 48, 189 48 C 189.550 48, 190 47.373, 190 46.607 C 190 45.841, 190.675 44.955, 191.500 44.638 C 193.473 43.881, 193.431 42, 191.441 42 C 190.584 42, 190.091 42.338, 190.346 42.750 C 191.243 44.202, 186.431 49.103, 184.745 48.456 C 183.855 48.114, 183.371 47.197, 183.670 46.417 C 184.020 45.506, 183.547 45, 182.348 45 C 181.321 45, 179.929 44.117, 179.255 43.037 C 178.263 41.448, 178.282 41.171, 179.354 41.583 C 181.103 42.254, 183.381 39.435, 182.643 37.513 C 182.324 36.681, 182.547 36, 183.138 36 C 183.730 36, 183.936 35.275, 183.596 34.389 C 183.086 33.061, 183.463 32.896, 185.739 33.452 L 188.500 34.126 186.189 31.813 L 183.878 29.500 181.939 31.861 C 180.873 33.159, 180 33.870, 180 33.440 C 180 33.009, 180.679 31.908, 181.508 30.991 C 182.862 29.495, 182.802 29.131, 180.926 27.433 C 179.067 25.751, 178.739 25.715, 177.958 27.111 C 176.189 30.272, 172.939 33.662, 173.668 31.586 C 174.144 30.230, 173.986 29.891, 173.126 30.422 C 170.946 31.770, 169.087 29.182, 169.986 26.049 C 170.503 24.245, 170.399 22.799, 169.701 22.101 C 168.900 21.300, 169.085 21, 170.383 21 C 172.933 21, 172.219 19.915, 165.860 14.131 C 159.891 8.701, 158.299 7.822, 159.921 10.853 C 160.792 12.479, 160.582 12.653, 158.207 12.275 C 156.409 11.988, 155.929 12.147, 156.776 12.747 C 157.758 13.442, 157.469 14.281, 155.526 16.377 C 154.137 17.876, 152.993 19.642, 152.985 20.302 C 152.976 20.961, 152.506 22.175, 151.940 23 C 151.146 24.157, 150.976 23.813, 151.194 21.500 C 151.367 19.680, 151.033 18.584, 150.346 18.714 C 148.226 19.116, 147.954 14.825, 150.065 14.273 C 151.129 13.994, 152.067 13.032, 152.148 12.133 C 152.549 7.710, 152.420 6.441, 151.500 5.765 C 150.919 5.338, 151.152 5.024, 152.059 5.015 C 152.916 5.007, 154.491 5.661, 155.559 6.468 C 158.530 8.715, 159.622 8.277, 156.727 6 C 153.198 3.224, 149.164 3.501, 143.946 6.876 M 270.284 147.877 C 270.196 149.047, 270.995 150.088, 272.320 150.529 L 274.500 151.254 272.155 151.709 C 270.345 152.060, 269.935 152.642, 270.357 154.259 C 270.753 155.771, 269.953 157.251, 267.483 159.581 C 263.750 163.102, 264.295 164, 270.168 164 C 276.316 164, 314.431 170.321, 336.500 175.001 C 341.450 176.050, 350 177.640, 355.500 178.534 C 362.671 179.698, 366.135 180.750, 367.746 182.250 C 368.981 183.400, 370.248 184.085, 370.562 183.772 C 370.875 183.459, 369.904 182.064, 368.404 180.674 C 366.904 179.283, 365.615 177.317, 365.541 176.305 C 365.466 175.293, 365.092 173.958, 364.710 173.339 C 363.731 171.756, 368.665 170.685, 370.788 172.019 C 372.215 172.916, 372.084 173.006, 370 172.557 C 368.332 172.197, 368.748 172.624, 371.251 173.841 C 373.314 174.844, 374.732 175.935, 374.402 176.265 C 374.072 176.595, 374.740 176.619, 375.886 176.320 C 379.910 175.267, 381.316 176.684, 378.773 179.227 L 376.500 181.500 382.388 181.804 C 388.865 182.138, 391.462 181.557, 390.494 179.991 C 390.146 179.428, 389.474 179.207, 389 179.500 C 388.526 179.793, 387.813 179.506, 387.415 178.862 C 386.963 178.131, 387.124 177.959, 387.845 178.405 C 388.480 178.797, 389 178.691, 389 178.169 C 389 176.720, 380.925 173.240, 370.867 170.355 L 361.818 167.759 359.138 169.740 C 357.276 171.116, 355.397 171.589, 352.979 171.290 C 350.713 171.009, 349.952 171.175, 350.796 171.766 C 352.504 172.963, 336.104 172.068, 333.737 170.834 C 332.395 170.135, 332.207 169.481, 332.952 168.089 C 333.490 167.085, 333.608 165.907, 333.215 165.471 C 332.822 165.036, 333.093 165.022, 333.818 165.441 C 334.543 165.860, 334.895 166.832, 334.600 167.601 C 333.914 169.387, 335.491 169.368, 342.661 167.500 C 345.829 166.675, 350.688 165.929, 353.460 165.843 C 358.436 165.687, 358.417 165.677, 352 165.013 C 343.445 164.128, 322.041 160.211, 319.500 159.065 C 315.827 157.408, 303.980 154.687, 303.319 155.348 C 302.960 155.706, 303.347 156, 304.178 156 C 306.964 156, 309.313 159.495, 307.525 160.979 C 306.580 161.764, 306 161.842, 306 161.185 C 306 160.093, 303.236 159.866, 299.209 160.626 C 297.949 160.864, 297.166 161.459, 297.468 161.948 C 298.503 163.622, 292.123 164.265, 290.507 162.649 C 288.606 160.748, 288.604 159.574, 290.500 158 C 291.347 157.297, 292 157.193, 292 157.761 C 292 160.227, 297.431 159.809, 299.701 157.168 L 301.967 154.531 297.203 152.978 C 294.583 152.124, 289.753 150.848, 286.470 150.142 C 279.888 148.728, 273.436 147.105, 271.611 146.404 C 270.961 146.155, 270.364 146.818, 270.284 147.877 M 151.092 188.726 C 145.918 189.702, 135.927 199, 140.053 199 C 140.608 199, 141.311 198.352, 141.615 197.561 C 141.919 196.770, 143.479 195.834, 145.084 195.482 C 146.688 195.129, 148 194.427, 148 193.921 C 148 193.414, 148.675 193, 149.500 193 C 151.183 193, 151.251 193.183, 150.393 195.418 C 150.059 196.288, 149.214 197, 148.515 197 C 146.067 197, 144.754 199.672, 146.030 202.057 C 146.934 203.746, 146.927 204.073, 146 203.500 C 145.069 202.925, 145.067 203.256, 145.990 204.982 C 146.644 206.204, 146.959 208.047, 146.690 209.078 C 145.886 212.152, 148.066 219.189, 149.636 218.586 C 150.386 218.298, 151 218.525, 151 219.090 C 151 219.656, 151.415 219.861, 151.923 219.547 C 152.968 218.902, 160 222.771, 160 223.992 C 160 225.021, 157.414 226, 154.696 226 C 152.591 226, 152.588 226.023, 154.527 227.353 C 156.827 228.930, 160 229.112, 160 227.667 C 160 227.117, 160.266 226.932, 160.590 227.257 C 163.084 229.751, 171.916 223.193, 171.968 218.809 C 171.986 217.329, 172.450 215.840, 173 215.500 C 173.550 215.160, 174 213.982, 174 212.882 C 174 211.654, 173.565 211.151, 172.874 211.578 C 172.074 212.072, 172.028 211.773, 172.714 210.546 C 173.995 208.258, 172.129 200, 170.332 200 C 169.599 200, 169 199.406, 169 198.680 C 169 196.341, 156.775 187.633, 154.197 188.136 C 153.814 188.211, 152.416 188.477, 151.092 188.726" stroke="none" fill="#1a1a2e" fill-rule="evenodd"/>
</svg>