<svg xmlns="http://www.w3.org/2000/svg" width="400" height="225" viewBox="0 0 400 225" version="1.1">
	<path d="M 0.042 108.316 L 0.146 216.632 2.912 216.226 C 4.574 215.982, 6.312 216.455, 7.267 217.410 C 8.142 218.285, 9.339 219, 9.929 219 C 10.518 219, 11 219.489, 11 220.086 C 11 220.714, 9.420 221.077, 7.250 220.946 C 1.053 220.573, 0 220.871, 0 223 C 0 224.862, 0.640 224.995, 9.250 224.921 C 14.338 224.878, 17.938 224.615, 17.250 224.338 C 14.834 223.363, 15.837 220.921, 18.391 221.562 C 19.706 221.892, 21.082 221.676, 21.450 221.081 C 21.817 220.486, 23.184 220, 24.488 220 C 28.117 220, 35.026 213.154, 32.707 211.856 C 31.745 211.317, 31.159 210.551, 31.406 210.153 C 31.652 209.754, 30.986 209.429, 29.927 209.429 C 28.867 209.429, 28 209.782, 28 210.214 C 28 210.646, 28.675 211, 29.500 211 C 30.325 211, 31 211.450, 31 212 C 31 212.550, 29.560 213, 27.800 213 C 25.311 213, 24.867 212.733, 25.800 211.800 C 27.933 209.667, 27.094 209.056, 22.336 209.280 C 19.328 209.422, 17.524 209.056, 17.253 208.250 C 16.754 206.763, 19.606 206.554, 20.507 208.011 C 20.904 208.653, 21.892 208.488, 23.220 207.558 C 24.772 206.471, 25.811 206.363, 27.260 207.139 C 29.075 208.110, 34.012 207.700, 37.745 206.268 C 38.956 205.803, 39.184 206.078, 38.680 207.392 C 38.138 208.804, 38.434 209.026, 40.256 208.575 C 41.490 208.269, 41.938 208.277, 41.250 208.593 C 40.562 208.908, 40 209.579, 40 210.083 C 40 211.772, 43.347 211.023, 45.707 208.805 C 48.496 206.186, 51 205.622, 51 207.613 C 51 208.403, 52.155 209.489, 53.567 210.026 C 55.530 210.772, 55.985 211.472, 55.500 213.001 C 55.035 214.465, 55.321 215, 56.567 215 C 57.890 215, 57.703 215.446, 55.727 217 C 54.329 218.100, 52.607 219, 51.901 219 C 51.161 219, 51.439 218.390, 52.559 217.558 C 54.435 216.164, 54.422 216.122, 52.143 216.279 C 50.847 216.368, 48.044 218.132, 45.915 220.198 C 43.700 222.348, 41.437 223.721, 40.624 223.409 C 39.842 223.109, 38.905 223.344, 38.542 223.932 C 37.696 225.300, 43.299 225.348, 47.955 224.013 C 49.906 223.453, 51.637 223.406, 51.949 223.904 C 52.858 225.353, 76.315 225.269, 79.527 223.806 C 81.751 222.793, 82.428 222.783, 82.754 223.762 C 83.021 224.562, 85.281 225, 89.142 225 C 93.633 225, 94.943 224.689, 94.412 223.750 C 93.848 222.750, 93.976 222.750, 95.053 223.750 C 97.151 225.697, 101.994 225.350, 102.032 223.250 C 102.062 221.583, 102.127 221.583, 103.392 223.250 C 105.021 225.396, 107.340 225.500, 109 223.500 C 109.890 222.427, 109.941 221.634, 109.180 220.716 C 108.594 220.011, 108.471 218.856, 108.906 218.152 C 109.915 216.520, 109.084 212, 107.776 212 C 107.232 212, 107.045 212.675, 107.362 213.500 C 108.070 215.346, 107.077 215.374, 104.704 213.575 C 102.811 212.139, 103.160 207.637, 105.265 206.336 C 105.920 205.931, 106.004 206.184, 105.490 207.015 C 104.870 208.020, 105.134 208.148, 106.586 207.543 C 109.271 206.426, 122 206.062, 122 207.103 C 122 208.343, 127.131 207.560, 129.759 205.919 C 130.991 205.149, 132 203.685, 132 202.666 C 132 201.647, 132.907 200.576, 134.016 200.286 C 135.171 199.983, 135.919 199.063, 135.766 198.129 C 135.556 196.845, 136.369 196.500, 139.601 196.500 C 143.121 196.500, 143.559 196.728, 142.697 198.111 C 141.965 199.285, 142.173 200.372, 143.460 202.111 C 145.219 204.488, 145.225 204.489, 144.708 202.251 C 143.991 199.153, 146.266 197.871, 152.709 197.741 C 154.474 197.705, 155.655 197.251, 155.333 196.730 C 155.012 196.210, 153.053 196.056, 150.979 196.387 C 148.153 196.839, 147.067 196.616, 146.636 195.495 C 145.633 192.879, 151.534 193.806, 164.947 198.370 C 173.511 201.284, 176.796 212.735, 171.009 219.500 C 167.491 223.612, 167.707 225, 171.865 225 C 175.422 225, 175.667 224.807, 175.667 222 C 175.667 220.350, 175.869 218.798, 176.116 218.551 C 176.854 217.813, 185 220.170, 185 221.122 C 185 222.316, 182.340 222.228, 179.684 220.945 C 177.701 219.987, 177.661 220.020, 179.250 221.305 C 180.212 222.084, 181 223.176, 181 223.732 C 181 225.957, 197.692 225.285, 198.280 223.037 C 198.680 221.508, 199.634 221, 202.106 221 C 204.668 221, 205.133 221.267, 204.200 222.200 C 201.730 224.670, 203.329 224.979, 216.250 224.524 C 223.537 224.267, 231.300 224.099, 233.500 224.151 C 235.700 224.204, 274.175 224.303, 319 224.373 L 400.500 224.500 400.797 112.250 L 401.094 0 255.297 0.086 C 162.349 0.141, 110.587 0.514, 112.500 1.115 C 114.150 1.634, 117.525 1.808, 120 1.502 C 123.842 1.027, 124.258 1.139, 122.844 2.265 C 121.030 3.709, 121.886 6.363, 124.927 8.718 C 127.261 10.526, 124.252 10.359, 121 8.500 C 119.625 7.714, 117.375 7.048, 116 7.020 C 112.665 6.953, 106.487 4.751, 106.122 3.500 C 105.111 0.037, 104.543 0, 51.847 0 L -0.062 0 0.042 108.316 M 111 125.500 C 111 126.325, 110.190 127, 109.200 127 C 106.920 127, 105 128.890, 105 131.133 C 105 135.288, 99.178 134.676, 88.707 129.421 C 82.679 126.396, 76.930 124.557, 81.066 126.977 C 84.469 128.969, 90.182 134.896, 89.602 135.835 C 89.264 136.382, 89.521 137.007, 90.174 137.225 C 90.931 137.477, 91.072 138.321, 90.563 139.560 C 90.047 140.818, 89.603 141.061, 89.300 140.250 C 88.818 138.958, 84.817 138.516, 83.702 139.631 C 83.355 139.979, 83.551 141.161, 84.138 142.259 C 85.385 144.588, 83.880 146.043, 81.002 145.290 C 80.025 145.035, 78.923 145.315, 78.554 145.913 C 78.132 146.595, 78.906 147, 80.632 147 C 83.137 147, 83.223 147.116, 81.601 148.303 C 80.028 149.453, 79.995 149.751, 81.325 150.855 C 83.323 152.513, 81.909 157.735, 78.699 160.546 C 75.070 163.724, 76.425 165.334, 80.836 163.084 C 85.562 160.672, 97.410 150.156, 97.793 148.032 C 97.954 147.138, 99.376 145.919, 100.952 145.324 C 102.528 144.729, 103.788 143.625, 103.752 142.871 C 103.551 138.749, 104.056 138, 107.035 138 C 109.812 138, 109.974 138.179, 108.943 140.107 C 107.429 142.936, 109.229 144.989, 111.778 143.341 C 113.044 142.521, 113.457 141.006, 113.338 137.613 C 113.224 134.363, 113.569 133, 114.505 133 C 115.235 133, 116.040 132.438, 116.292 131.750 C 116.835 130.269, 119.395 132.236, 119.595 134.288 C 119.927 137.706, 121.503 139.960, 124.345 141.083 C 128.290 142.642, 131.121 144.996, 130.417 146.134 C 130.123 146.610, 130.535 147, 131.333 147 C 132.130 147, 133.058 145.905, 133.394 144.567 C 133.730 143.228, 134.904 141.848, 136.002 141.499 C 137.101 141.151, 138 140.554, 138 140.173 C 138 138.933, 134.115 137.019, 132.700 137.562 C 130.848 138.272, 128.809 135.663, 129.601 133.597 C 130.378 131.572, 133.014 132.196, 138.054 135.600 C 141.823 138.145, 143 138.518, 143 137.167 C 143 136.709, 138.387 134.057, 132.750 131.274 C 118.755 124.366, 111 122.307, 111 125.500" stroke="none" fill="#1a1a2e" fill-rule="evenodd"/>
</svg>