<svg xmlns="http://www.w3.org/2000/svg" width="400" height="304" viewBox="0 0 400 304" version="1.1">
	<path d="M 77.063 180.732 C 77.022 182.835, 78.414 186.275, 81.044 190.571 C 83.268 194.205, 85.792 198.938, 86.652 201.089 C 87.513 203.240, 88.519 205, 88.888 205 C 89.258 205, 90.433 207.250, 91.500 210 C 92.567 212.750, 93.742 215, 94.112 215 C 94.481 215, 95.075 216.162, 95.431 217.583 C 95.788 219.004, 97.187 221.920, 98.540 224.063 C 99.893 226.207, 101 228.644, 101 229.480 C 101 230.316, 101.485 231, 102.078 231 C 103.473 231, 111 238.589, 111 239.995 C 111 240.585, 112.499 241.952, 114.330 243.032 C 116.162 244.113, 118.209 246.010, 118.880 247.249 C 124.316 257.281, 139.442 260.894, 160.146 257.105 C 165.841 256.063, 175.675 254.446, 182 253.513 C 188.325 252.579, 195.750 250.975, 198.500 249.949 C 205.264 247.424, 212.885 245.615, 229.500 242.593 C 242.990 240.139, 254.578 237.244, 253.845 236.511 C 253.651 236.318, 249.189 237.199, 243.930 238.470 C 238.671 239.742, 228.773 241.545, 221.934 242.479 C 204.976 244.792, 182.841 248.646, 169 251.695 C 135.255 259.127, 125.037 253.574, 99.435 213.890 C 95.749 208.175, 89.663 198.775, 85.912 193 C 82.162 187.225, 78.650 181.375, 78.110 180 C 77.149 177.555, 77.125 177.572, 77.063 180.732" stroke="none" fill="#1a1a2e" fill-rule="evenodd"/>
</svg>