<svg xmlns="http://www.w3.org/2000/svg" width="400" height="235" viewBox="0 0 400 235" version="1.1">
	<path d="M 220.716 50.039 C 221.384 50.843, 225.486 55.189, 229.831 59.697 C 235.518 65.599, 238.009 68.994, 238.727 71.821 L 239.723 75.747 231.112 76.398 C 226.375 76.756, 220.588 77.314, 218.250 77.638 C 214.700 78.130, 214 77.950, 214 76.544 C 214 72.766, 205.228 62.689, 196.500 56.440 C 192.539 53.604, 192.522 53.601, 194.823 56.180 C 196.551 58.117, 196.807 58.920, 195.823 59.313 C 195.025 59.632, 195.293 59.884, 196.500 59.948 C 200.929 60.183, 211.727 73.134, 210.560 76.811 C 209.590 79.868, 195 83.336, 195 80.510 C 195 76.955, 182.036 61.724, 176.500 58.775 C 174.543 57.732, 174.540 57.754, 176.348 59.791 C 177.409 60.987, 177.871 62.399, 177.434 63.107 C 176.916 63.945, 177.165 64.151, 178.211 63.749 C 180.438 62.895, 186.475 69.482, 189.950 76.559 C 192.565 81.885, 192.693 82.570, 191.184 83.180 C 188.554 84.241, 188.473 84.192, 187.192 80.750 C 185.891 77.256, 179.484 70.097, 173.927 65.929 C 167.472 61.087, 167.505 61.685, 174.047 68.090 C 182.701 76.564, 184.219 78.491, 184.539 81.408 C 184.912 84.805, 182.139 85.682, 180.224 82.772 C 178.128 79.589, 165.040 67.069, 162.556 65.872 C 161.425 65.326, 163.245 67.495, 166.599 70.690 C 175.135 78.821, 178.518 83.671, 176.963 85.545 C 175.327 87.516, 173.263 87.379, 172.544 85.250 C 171.762 82.935, 167.531 78.374, 161.879 73.750 C 154.990 68.115, 155.415 69.208, 163.103 76.897 C 170.169 83.962, 171.620 87.351, 168.064 88.480 C 166.622 88.937, 165.044 87.918, 161.876 84.481 C 159.537 81.944, 156.246 78.899, 154.562 77.713 C 152.448 76.226, 153.281 77.538, 157.250 81.950 C 160.412 85.465, 163 88.839, 163 89.448 C 163 90.808, 159.369 94.036, 158.649 93.316 C 157.881 92.547, 148 96.011, 148 97.049 C 148 97.538, 147.369 97.695, 146.598 97.399 C 145.826 97.103, 143.239 97.737, 140.848 98.808 C 138.456 99.879, 132.986 101.989, 128.690 103.496 L 120.880 106.236 118.626 104.118 C 117.386 102.953, 115.999 102, 115.545 102 C 113.954 102, 106 97.637, 106 96.764 C 106 96.279, 105.550 96.160, 105 96.500 C 102.987 97.744, 104.145 98.766, 111 101.794 C 114.850 103.495, 118 105.309, 118 105.826 C 118 107.222, 114.526 107.874, 112.658 106.828 C 111.445 106.150, 111.169 106.276, 111.571 107.323 C 112.162 108.865, 108.266 110, 102.383 110 C 97.990 110, 94 113.418, 94 117.180 C 94 119.899, 95.301 120.939, 96.426 119.119 C 97.084 118.055, 101.734 117.067, 102.497 117.830 C 103.564 118.898, 106.925 118.638, 107.380 117.453 C 107.650 116.749, 108.917 116.453, 110.427 116.741 C 111.848 117.013, 113.684 116.677, 114.506 115.995 C 115.752 114.961, 116 115.108, 116 116.878 C 116 119.346, 118.763 119.782, 119.656 117.455 C 120.160 116.141, 120.454 116.203, 121.620 117.867 C 123.156 120.061, 125.697 120.090, 127.065 117.930 C 127.795 116.776, 127.972 116.762, 127.985 117.861 C 127.994 118.695, 128.803 118.308, 130.076 116.861 C 131.218 115.562, 131.896 115.014, 131.583 115.643 C 131.260 116.292, 132.111 117.062, 133.553 117.424 C 136.682 118.209, 138.801 117.164, 136.857 115.794 C 135.920 115.134, 136.350 115.024, 138.250 115.438 C 139.762 115.768, 141 115.692, 141 115.269 C 141 114.313, 146.233 114.408, 147.827 115.393 C 148.472 115.792, 149 115.690, 149 115.167 C 149 113.682, 154.040 112.788, 155.515 114.012 C 156.495 114.826, 157.054 114.753, 157.669 113.730 C 158.126 112.971, 159.344 112.038, 160.376 111.658 C 162.161 111, 162.172 111.088, 160.603 113.483 C 158.746 116.318, 159.097 116.760, 161.387 114.470 C 163.294 112.563, 168.138 113.477, 167.326 115.592 C 167.029 116.366, 167.284 117, 167.893 117 C 168.502 117, 169 116.127, 169 115.059 C 169 113.991, 169.450 112.840, 170 112.500 C 170.550 112.160, 171 112.414, 171 113.063 C 171 113.930, 171.352 113.952, 172.324 113.146 C 173.644 112.051, 177.718 112.336, 178.885 113.606 C 179.223 113.973, 178.938 114.475, 178.250 114.720 C 177.563 114.966, 177 115.649, 177 116.238 C 177 116.828, 177.813 116.574, 178.806 115.675 C 180.480 114.161, 180.747 114.168, 182.447 115.770 C 183.456 116.722, 184.041 117.050, 183.747 116.500 C 183.453 115.950, 184.695 114.745, 186.508 113.822 C 189.667 112.213, 189.825 112.223, 190.308 114.072 C 190.586 115.132, 190.405 116, 189.906 116 C 189.408 116, 189 115.495, 189 114.878 C 189 114.102, 188.536 114.140, 187.500 115 C 185.097 116.994, 185.736 117.736, 189.750 117.614 C 194.446 117.471, 195.036 120.183, 190.500 121.060 C 187.906 121.562, 188.177 121.707, 192.500 122.128 C 198.153 122.680, 201.239 122.196, 200.430 120.886 C 200.128 120.399, 200.331 120, 200.879 120 C 201.427 120, 201.804 120.954, 201.716 122.119 C 201.567 124.094, 201.130 124.204, 195.303 123.736 C 188.345 123.178, 186.884 124.038, 188.059 128 C 188.467 129.375, 188.845 129.938, 188.900 129.250 C 188.955 128.563, 189.661 128, 190.469 128 C 191.330 128, 191.711 128.590, 191.390 129.427 C 190.994 130.457, 191.399 130.708, 192.845 130.330 C 194.199 129.976, 194.723 129.160, 194.464 127.812 C 194.190 126.389, 194.499 125.977, 195.540 126.377 C 196.343 126.685, 197 126.501, 197 125.969 C 197 125.436, 198.350 125, 200 125 C 203.028 125, 203.669 123.542, 203.077 118 C 202.981 117.101, 203.234 116.901, 203.708 117.500 C 204.144 118.050, 205.400 118.653, 206.500 118.840 C 207.600 119.027, 209.287 119.885, 210.250 120.745 C 211.337 121.717, 212 121.872, 212 121.155 C 212 119.046, 213.730 119.957, 216.419 123.483 C 218.161 125.767, 218.532 126.758, 217.497 126.361 C 215.448 125.574, 215.923 128.239, 218 129.180 C 219.186 129.717, 219.107 129.874, 217.628 129.930 C 216.119 129.986, 215.986 130.278, 216.942 131.430 C 217.943 132.636, 217.492 132.814, 214.064 132.570 C 211.829 132.411, 210 132.667, 210 133.140 C 210 133.613, 211.238 134.007, 212.750 134.015 C 214.262 134.024, 216.175 134.483, 217 135.037 C 218.138 135.800, 217.842 135.934, 215.773 135.592 C 213.111 135.152, 213.083 135.197, 214.603 137.517 C 215.647 139.111, 217.368 140.030, 219.830 140.310 C 221.848 140.539, 220.939 140.649, 217.809 140.554 C 214.678 140.459, 212.343 140.745, 212.618 141.190 C 212.893 141.636, 214.891 142, 217.059 142 C 220.974 142, 222.789 144.776, 220 146.500 C 219.450 146.840, 219 147.568, 219 148.118 C 219 148.668, 219.450 148.840, 220 148.500 C 220.550 148.160, 221 148.359, 221 148.941 C 221 149.523, 221.477 150, 222.059 150 C 222.641 150, 222.840 149.550, 222.500 149 C 222.160 148.450, 222.359 148, 222.941 148 C 223.523 148, 224.007 148.563, 224.015 149.250 C 224.026 150.097, 224.372 150.017, 225.091 149 C 225.849 147.928, 226.292 147.841, 226.641 148.694 C 226.909 149.350, 227.775 149.640, 228.565 149.337 C 229.354 149.034, 230 149.251, 230 149.820 C 230 150.388, 229.213 151.059, 228.250 151.311 C 227.139 151.601, 227.475 151.810, 229.168 151.884 C 233.522 152.073, 235.225 153.024, 233.953 154.556 C 233.054 155.640, 233.516 155.696, 236.522 154.866 C 241.309 153.545, 242.178 154.587, 238.750 157.537 C 234.763 160.969, 235.378 161.418, 240.037 158.477 C 244.533 155.639, 246.636 155.943, 244.903 159.181 C 243.613 161.592, 244.926 161.074, 248.911 157.601 C 250.237 156.446, 251.001 156.059, 250.607 156.742 C 249.329 158.962, 251.410 161.447, 253.118 159.739 C 254.398 158.459, 257.465 159.670, 256.690 161.150 C 256.585 161.349, 257.253 160.620, 258.174 159.531 C 259.821 157.582, 259.860 157.595, 260.541 160.306 C 261.184 162.867, 261.330 162.937, 262.597 161.282 C 263.789 159.725, 264.092 159.690, 264.988 161 C 265.862 162.277, 266.320 162.129, 268.070 160 L 270.125 157.500 269.440 160 L 268.755 162.500 270.877 160.097 C 272.045 158.775, 273 157.125, 273 156.429 C 273 155.733, 273.255 154.498, 273.568 153.685 C 274.202 152.031, 267.871 149.559, 260 148.386 C 253.030 147.347, 247.259 144.172, 242.684 138.859 C 240.383 136.187, 237.938 134.001, 237.250 134 C 235.260 134, 235.803 132.197, 238.003 131.499 C 239.225 131.111, 240.624 131.481, 241.590 132.447 C 244.888 135.745, 250.308 139.424, 252.321 139.731 C 253.472 139.907, 254.763 140.602, 255.191 141.275 C 255.619 141.949, 255.976 142.107, 255.985 141.628 C 255.993 141.148, 256.604 141.256, 257.342 141.869 C 258.080 142.481, 258.980 142.687, 259.342 142.325 C 259.704 141.963, 260 142.240, 260 142.940 C 260 143.641, 260.631 143.972, 261.402 143.676 C 262.173 143.380, 263.085 143.418, 263.428 143.761 C 264.223 144.556, 266.605 144.940, 276.500 145.870 L 284.500 146.622 280.250 148.419 C 275.385 150.477, 274.253 153.461, 278.750 152.373 C 285.473 150.746, 291.089 148.987, 299 146.029 C 304.898 143.824, 308.611 142.993, 311.130 143.314 C 315.771 143.907, 319.624 140.617, 320.572 135.252 C 320.936 133.188, 322.077 128.941, 323.107 125.813 C 324.361 122.001, 325.280 114.910, 325.891 104.313 C 326.393 95.616, 327.149 87.639, 327.572 86.586 C 328.065 85.356, 327.971 84.900, 327.307 85.310 C 326.739 85.661, 325.715 88.098, 325.030 90.724 C 324.346 93.351, 323.579 96.287, 323.326 97.250 C 322.351 100.954, 320.832 98.953, 321.521 94.873 C 322.004 92.019, 321.886 90.953, 321.139 91.414 C 320.511 91.803, 319.781 90.974, 319.394 89.434 C 318.954 87.680, 319.188 86.502, 320.087 85.946 C 322.006 84.760, 318.801 83.614, 315.389 84.266 C 309.842 85.326, 300.676 82.184, 295.107 77.312 C 284.680 68.191, 271.094 71.554, 278.958 81.309 C 280.015 82.620, 280.133 83.566, 279.387 84.749 C 276.718 88.980, 272.500 85.985, 272.500 79.860 C 272.500 76.353, 272.069 75.344, 270.166 74.395 C 267.455 73.044, 264 73.663, 264 75.500 C 264 76.197, 263.100 77.002, 262 77.290 C 260.900 77.577, 260 77.456, 260 77.020 C 260 76.584, 257.975 75.923, 255.500 75.552 C 252.330 75.077, 251 74.406, 251 73.283 C 251 71.204, 247.081 66.025, 239.561 58.167 C 233.084 51.399, 229.597 48.787, 230.629 51.477 C 230.951 52.315, 231.566 53, 231.996 53 C 232.426 53, 235.365 55.674, 238.527 58.943 C 244.712 65.337, 249.696 72.990, 247.692 73.015 C 246.974 73.025, 247.097 73.416, 248 74 C 249.099 74.711, 248.374 74.973, 245.281 74.985 C 241.926 74.997, 241.181 74.691, 241.642 73.490 C 242.683 70.777, 230.906 56.778, 222.500 50.735 C 220.850 49.549, 220.047 49.236, 220.716 50.039 M 224 166.387 C 221.525 167.690, 218.011 169.077, 216.190 169.470 C 213.962 169.952, 212.573 170.993, 211.940 172.658 C 210.500 176.446, 210.724 176.520, 216.750 174.256 C 217.438 173.997, 218 174.500, 218 175.372 C 218 176.700, 218.406 176.772, 220.500 175.818 C 221.875 175.192, 223 174.301, 223 173.839 C 223 173.378, 223.787 173.001, 224.750 173.003 C 225.713 173.005, 223.800 174.778, 220.500 176.943 C 217.200 179.108, 213.946 181.366, 213.270 181.961 C 212.593 182.556, 211.805 183.033, 211.520 183.021 C 208.836 182.912, 208 183.145, 208 184 C 208 185.289, 211.301 185.299, 212.587 184.013 C 217.184 179.416, 229.727 174.397, 227.462 178.061 C 227.097 178.652, 226.212 178.912, 225.496 178.637 C 224.780 178.362, 223.363 178.783, 222.347 179.571 C 220.705 180.846, 220.694 180.937, 222.250 180.395 C 223.434 179.983, 224 180.296, 224 181.362 C 224 182.420, 223.454 182.728, 222.336 182.299 C 221.265 181.888, 220.914 182.053, 221.352 182.761 C 221.726 183.366, 221.506 184.187, 220.862 184.585 C 220.115 185.047, 219.959 184.875, 220.433 184.109 C 221.330 182.657, 217.473 183.015, 214.622 184.648 C 213.264 185.425, 213.080 185.931, 213.959 186.474 C 214.627 186.888, 215.675 186.725, 216.287 186.113 C 217.840 184.560, 219 184.726, 219 186.500 C 219 188.802, 220.895 188.299, 224.653 185 C 226.532 183.350, 228.488 182, 229 182 C 229.511 182, 230.469 180.988, 231.129 179.750 C 232.221 177.699, 232.178 177.623, 230.640 178.893 C 229.711 179.658, 228.626 179.959, 228.227 179.561 C 227.829 179.162, 228.338 178.226, 229.359 177.479 C 231.963 175.575, 234.443 177.700, 232.216 179.927 C 230.068 182.075, 232.607 182.666, 234.934 180.559 C 236.589 179.062, 236.808 179.057, 237.365 180.509 C 237.720 181.433, 237.561 181.847, 236.989 181.493 C 236.445 181.157, 236 181.282, 236 181.772 C 236 182.262, 234.875 183.264, 233.500 184 C 230.805 185.442, 230.188 187, 232.313 187 C 233.035 187, 234.919 185.650, 236.500 184 C 238.081 182.350, 239.938 181, 240.628 181 C 241.318 181, 242.134 180.592, 242.442 180.093 C 242.751 179.595, 241.990 179.375, 240.751 179.604 C 239.350 179.864, 239.626 179.580, 241.482 178.850 C 244.552 177.644, 247 175.684, 247 174.432 C 247 174.041, 247.787 173.139, 248.750 172.428 C 250.152 171.392, 250.252 170.883, 249.250 169.867 C 248.563 169.170, 248.007 168.128, 248.015 167.550 C 248.024 166.973, 248.467 167.175, 249 168 C 249.646 169, 249.974 169.083, 249.985 168.250 C 249.993 167.563, 250.707 167, 251.571 167 C 252.990 167, 252.992 166.849, 251.595 165.452 C 250.356 164.213, 249.617 164.135, 247.888 165.060 C 245.834 166.159, 236.970 165.905, 231 164.576 C 229.410 164.222, 226.862 164.881, 224 166.387" stroke="none" fill="#1a1a2e" fill-rule="evenodd"/>
</svg>