<svg xmlns="http://www.w3.org/2000/svg" width="400" height="267" viewBox="0 0 400 267" version="1.1">
	<path d="M -0 133.502 L -0 267.005 200.250 266.752 L 400.500 266.500 400.754 133.250 L 401.007 0 200.504 0 L 0 0 -0 133.502 M 232.250 99.129 C 232.387 99.750, 231.446 100.353, 230.158 100.469 C 228.870 100.585, 227.458 101.259, 227.020 101.968 C 226.563 102.707, 225.684 102.923, 224.957 102.474 C 224.165 101.984, 223.940 102.094, 224.357 102.769 C 227.083 107.180, 211.692 109.465, 205.700 105.539 C 203.504 104.100, 202.477 103.987, 199.868 104.896 C 198.126 105.503, 195.644 106, 194.351 106 C 192.858 106, 192 106.587, 192 107.607 C 192 108.625, 192.550 109.003, 193.500 108.638 C 194.325 108.322, 195 108.589, 195 109.231 C 195 110.105, 195.302 110.098, 196.200 109.200 C 197.708 107.692, 200.356 107.616, 199.434 109.107 C 198.968 109.861, 199.467 109.987, 201 109.500 C 202.396 109.057, 203.018 109.161, 202.639 109.775 C 202.303 110.319, 200.174 110.789, 197.909 110.821 C 195.643 110.852, 193.537 111.130, 193.228 111.439 C 192.919 111.747, 196.454 112.007, 201.083 112.015 C 205.712 112.024, 210.175 112.467, 211 113 C 212.842 114.190, 212.597 114.232, 202 114.542 C 185.689 115.020, 186.544 114.472, 195 119.028 C 199.125 121.251, 203.287 123.332, 204.250 123.652 C 205.213 123.971, 206 124.576, 206 124.995 C 206 127.010, 227.507 141.423, 229.071 140.456 C 230.588 139.518, 236.687 146.545, 237.992 150.736 C 239.284 154.886, 243 159.605, 243 157.096 C 243 156.428, 243.419 156.141, 243.931 156.457 C 244.443 156.774, 245.118 156.618, 245.432 156.110 C 246.079 155.064, 249.844 155.774, 251.806 157.314 C 252.525 157.877, 253.034 157.925, 252.938 157.419 C 252.489 155.061, 253.169 154.971, 255.070 157.139 L 257.139 159.500 256.502 156.500 C 255.750 152.961, 253.360 149, 251.977 149 C 251.440 149, 251 148.624, 251 148.164 C 251 147.704, 253.082 147.514, 255.626 147.741 L 260.252 148.155 259.581 144.578 C 259.158 142.328, 259.297 141, 259.955 141 C 260.530 141, 261 141.589, 261 142.309 C 261 144.482, 263.356 146.996, 265.839 147.471 C 267.761 147.840, 267.969 147.668, 267.006 146.507 C 266.362 145.731, 265.705 143.920, 265.548 142.483 C 265.390 141.047, 264.281 139.185, 263.083 138.345 C 260.885 136.806, 260.543 133.186, 262.465 131.808 C 263.920 130.765, 275.859 137.409, 281.685 142.506 C 284.513 144.980, 287.428 146.815, 288.163 146.585 C 288.899 146.355, 290.756 145.891, 292.291 145.554 C 293.826 145.217, 294.812 144.505, 294.482 143.971 C 293.990 143.175, 295.348 142.560, 296.250 143.169 C 296.387 143.262, 297.606 142.746, 298.958 142.022 C 300.310 141.299, 302.110 140.631, 302.958 140.537 C 303.806 140.444, 305.770 140.002, 307.323 139.557 C 309.126 139.039, 310.554 139.154, 311.273 139.873 C 312.798 141.398, 314.052 141.299, 313.439 139.702 C 313.165 138.988, 314.065 137.348, 315.440 136.057 C 316.814 134.766, 317.690 133.307, 317.385 132.815 C 317.078 132.317, 317.979 132.208, 319.416 132.568 C 321.089 132.988, 322 132.805, 322 132.049 C 322 131.407, 322.362 131.106, 322.805 131.380 C 323.248 131.653, 323.646 129.346, 323.690 126.251 C 323.774 120.335, 319.894 114.915, 315.248 114.456 C 314.287 114.361, 310.830 113.770, 307.566 113.142 C 299.543 111.598, 297 111.684, 297 113.500 C 297 115.181, 294.455 115.545, 293.500 114 C 292.711 112.723, 280.933 112.695, 277.599 113.962 C 275.708 114.681, 274.698 114.555, 273.605 113.462 C 271.724 111.582, 270.908 111.597, 271.638 113.500 C 272.003 114.450, 271.625 115, 270.607 115 C 269.723 115, 269 115.482, 269 116.071 C 269 116.661, 268.297 116.440, 267.439 115.582 C 266.580 114.723, 263.317 113.290, 260.189 112.397 C 257.060 111.504, 253.488 109.846, 252.250 108.712 C 249.628 106.310, 249.302 107.479, 251.605 111.027 C 252.532 112.455, 251.792 111.982, 249.855 109.908 C 246.028 105.811, 241.045 102.103, 236.096 99.672 C 232.061 97.690, 231.927 97.671, 232.250 99.129" stroke="none" fill="#1a1a2e" fill-rule="evenodd"/>
</svg>