<svg xmlns="http://www.w3.org/2000/svg" width="400" height="259" viewBox="0 0 400 259" version="1.1">
	<path d="M 206.500 1 C 206.840 1.550, 207.734 2, 208.486 2 C 211.561 2, 213.503 6.422, 213.433 13.264 C 213.395 16.909, 213.733 19.665, 214.182 19.387 C 214.632 19.109, 215 19.584, 215 20.441 C 215 21.298, 215.460 22, 216.023 22 C 216.586 22, 216.309 23.125, 215.408 24.500 C 214.499 25.888, 214.240 27, 214.826 27 C 215.407 27, 216.160 26.550, 216.500 26 C 216.840 25.450, 217.654 25.007, 218.309 25.015 C 219.025 25.025, 218.901 25.418, 218 26 C 216.754 26.805, 216.838 26.980, 218.500 27.030 C 220.058 27.077, 219.838 27.393, 217.500 28.464 C 215.850 29.219, 215.118 29.874, 215.872 29.919 C 218.630 30.082, 214.847 33, 211.878 33 C 210.295 33, 209 33.392, 209 33.870 C 209 34.349, 207.466 34.710, 205.592 34.672 C 203.717 34.634, 201.394 35.255, 200.429 36.052 C 199.203 37.064, 198.559 37.155, 198.289 36.355 C 197.856 35.069, 192 36.804, 192 38.219 C 192 38.649, 191.546 39, 190.991 39 C 190.436 39, 188.569 40.350, 186.843 42 C 185.116 43.650, 183.334 45, 182.883 45 C 182.432 45, 182.308 45.638, 182.607 46.419 C 183.020 47.493, 185.306 46.525, 192.046 42.419 C 201.388 36.727, 203.957 36.144, 210.167 38.308 L 213.834 39.585 210.917 40.876 C 207.835 42.241, 207.009 44, 209.450 44 C 210.248 44, 211.359 43.212, 211.920 42.250 C 212.557 41.155, 212.951 40.993, 212.970 41.817 C 212.990 42.681, 213.776 42.940, 215.250 42.570 C 216.488 42.259, 215.874 42.791, 213.887 43.752 C 211.863 44.732, 210.472 46.052, 210.723 46.756 C 210.969 47.447, 211.649 47.717, 212.234 47.355 C 212.819 46.994, 212.248 48.566, 210.965 50.849 C 209.682 53.132, 208.265 55, 207.816 55 C 207.367 55, 207 55.810, 207 56.800 C 207 57.790, 206.539 59.061, 205.976 59.624 C 205.278 60.322, 205.596 61.230, 206.976 62.479 C 208.945 64.260, 209.681 67.986, 208.331 69.336 C 207.963 69.703, 206.867 69.284, 205.894 68.404 C 203.581 66.311, 202.377 67.177, 201.563 71.517 C 201.116 73.896, 200.506 74.820, 199.699 74.336 C 199.040 73.940, 199.175 74.464, 200 75.500 C 200.874 76.598, 200.979 77.071, 200.250 76.633 C 198.475 75.566, 198.696 77.503, 200.523 79.019 C 201.418 79.762, 201.797 81.064, 201.443 82.180 C 200.930 83.797, 201.215 83.984, 203.367 83.444 C 205.851 82.821, 205.889 82.899, 205.696 88.218 C 205.550 92.246, 206.114 94.822, 207.907 98.313 C 210.723 103.795, 212 104.259, 212 99.800 C 212 93.902, 214.657 98.257, 215.172 105 C 215.277 106.375, 215.652 107.950, 216.004 108.500 C 216.357 109.050, 216.703 110.587, 216.773 111.915 C 216.843 113.243, 217.552 114.981, 218.348 115.777 C 219.421 116.850, 219.568 118.020, 218.914 120.301 C 218.237 122.659, 218.414 123.800, 219.671 125.189 C 220.618 126.235, 220.833 127, 220.180 127 C 219.387 127, 219.334 127.747, 220 129.500 C 220.886 131.831, 220.609 132.412, 218.750 132.118 C 218.338 132.053, 218 132.480, 218 133.067 C 218 133.680, 218.853 133.864, 220 133.500 C 221.147 133.136, 222 133.320, 222 133.933 C 222 134.520, 221.127 135, 220.059 135 C 217.455 135, 216.681 136.491, 218.501 138.001 C 219.451 138.789, 219.776 140.173, 219.409 141.864 C 218.966 143.911, 219.076 144.165, 219.904 143 C 221.591 140.625, 221.305 145.334, 219.500 149.654 C 218.675 151.629, 218 154.539, 218 156.122 C 218 157.938, 217.477 159, 216.583 159 C 215.804 159, 214.932 159.563, 214.646 160.250 C 214.260 161.178, 213.784 161.083, 212.799 159.881 C 210.604 157.204, 201.893 155.787, 199.721 157.753 C 196.957 160.254, 193.778 165.864, 194.338 167.252 C 194.638 167.995, 194.874 167.792, 194.921 166.750 C 195.020 164.556, 199.804 164.326, 200.629 166.475 C 201.128 167.776, 201.533 167.776, 204.048 166.475 C 207.847 164.511, 208.106 164.591, 207.038 167.400 C 206.284 169.382, 206.472 169.890, 208.120 170.321 C 209.642 170.719, 209.866 170.543, 209.066 169.579 C 207.727 167.966, 208.701 167, 211.667 167 C 214.148 167, 214.774 168.404, 212.829 169.606 C 212.062 170.080, 212.457 170.625, 213.974 171.186 C 216.567 172.145, 218.159 171.334, 216.137 170.084 C 215.187 169.497, 215.456 169.114, 217.122 168.678 C 219.990 167.928, 220.642 168.521, 219.054 170.435 C 217.731 172.029, 218.081 172.179, 226.115 173.462 C 229.606 174.020, 229.713 173.947, 229.214 171.339 C 228.761 168.972, 228.883 168.812, 230.201 170.043 C 231.027 170.815, 231.658 172.134, 231.602 172.973 C 231.540 173.899, 232.189 174.384, 233.250 174.206 C 235.462 173.835, 235.507 175.336, 233.337 177.128 C 232.041 178.198, 231.582 178.225, 231.254 177.250 C 230.285 174.371, 228.413 176.095, 228.810 179.500 C 229.045 181.514, 228.778 183, 228.181 183 C 226.497 183, 224 180.007, 224 177.988 C 224 176.959, 223.550 175.840, 223 175.500 C 221.756 174.731, 221.749 175.209, 222.955 178.382 C 223.980 181.076, 221.389 182.976, 218.839 181.401 C 218.042 180.908, 217.867 181.211, 218.299 182.336 C 218.650 183.251, 218.481 184, 217.923 184 C 217.331 184, 217.100 182.340, 217.368 180.006 C 217.621 177.809, 217.379 175.734, 216.832 175.396 C 216.285 175.058, 215.926 175.618, 216.034 176.641 C 216.369 179.815, 215.869 184.566, 215.338 183.250 C 215.060 182.562, 213.971 182, 212.917 182 C 211.145 182, 210.586 180.762, 210.742 177.183 C 210.774 176.459, 210.508 176.162, 210.150 176.522 C 209.793 176.883, 209.500 178.375, 209.500 179.839 C 209.500 182.240, 209.158 182.486, 206 182.360 C 204.075 182.283, 202.169 182.733, 201.765 183.360 C 201.270 184.128, 201.021 184.010, 201 183 C 200.973 181.667, 200.862 181.667, 200 183 C 199.185 184.262, 199.028 184.202, 199.015 182.628 C 199.004 181.250, 198.669 181.026, 197.750 181.780 C 194.957 184.070, 191.509 183.650, 191.349 181 C 191.080 176.570, 190.730 176.411, 190.108 180.438 C 189.528 184.191, 189.418 184.293, 187.750 182.616 C 186.787 181.649, 186 181.366, 186 181.988 C 186 182.609, 185.532 182.829, 184.959 182.475 C 184.387 182.121, 184.192 180.970, 184.527 179.916 C 184.956 178.564, 184.656 178, 183.508 178 C 182.614 178, 182.132 178.404, 182.437 178.897 C 182.742 179.391, 182.707 181.214, 182.360 182.949 C 181.597 186.767, 177.500 187.097, 177.500 183.340 C 177.500 180.295, 176.025 179.150, 175.882 182.083 C 175.816 183.412, 175.846 185.108, 175.948 185.850 C 176.050 186.593, 175.652 186.903, 175.063 186.539 C 174.474 186.175, 174.154 184.893, 174.351 183.689 C 174.547 182.485, 174.515 182.068, 174.279 182.762 C 174.042 183.456, 173.433 183.767, 172.924 183.453 C 171.516 182.583, 171.814 183.787, 173.733 186.715 C 175.415 189.282, 175.409 189.328, 173.530 188.277 C 172.466 187.681, 171.058 185.463, 170.402 183.347 C 169.591 180.729, 169.176 180.200, 169.105 181.691 C 169.047 182.896, 168.480 184.203, 167.845 184.595 C 167.130 185.038, 166.962 184.870, 167.405 184.155 C 167.797 183.520, 167.641 183, 167.059 183 C 165.856 183, 165.608 185.614, 166.750 186.253 C 167.162 186.483, 166.861 186.506, 166.080 186.302 C 165.299 186.099, 164.268 186.510, 163.788 187.216 C 163.115 188.207, 162.953 188.158, 163.077 187 C 163.410 183.879, 162.962 182, 161.883 182 C 161.268 182, 160.996 182.877, 161.278 183.954 C 161.559 185.028, 161.175 186.715, 160.426 187.704 C 159.466 188.969, 159.054 189.094, 159.032 188.128 C 159.006 187.003, 158.721 186.987, 157.454 188.038 C 156.604 188.743, 156.140 189.923, 156.423 190.660 C 156.764 191.550, 156.134 192, 154.546 192 C 152.713 192, 151.893 192.794, 151.031 195.407 C 150.121 198.162, 149.447 198.763, 147.505 198.550 C 146.185 198.405, 144.872 198.891, 144.588 199.631 C 143.809 201.662, 150.015 200.700, 151.590 198.546 C 152.352 197.504, 153.398 197.101, 154.183 197.547 C 155.242 198.147, 155.255 198.030, 154.250 196.947 C 152.426 194.982, 152.697 194.291, 155.500 193.755 C 157.744 193.326, 158 193.604, 158 196.465 C 158 199.432, 157.794 199.623, 155.028 199.217 C 152.583 198.859, 151.846 199.243, 150.868 201.391 C 150.214 202.826, 149.349 204, 148.946 204 C 148.544 204, 147.944 204.704, 147.613 205.565 C 147.165 206.734, 147.476 206.984, 148.840 206.551 C 150.903 205.896, 151.504 208.890, 149.599 210.331 C 148.982 210.797, 149.706 210.899, 151.250 210.562 C 153.306 210.113, 154 210.345, 154 211.481 C 154 212.316, 154.388 213, 154.861 213 C 155.335 213, 155.508 211.875, 155.245 210.500 C 154.966 209.041, 155.232 208, 155.883 208 C 158.413 208, 157.030 203.224, 154.302 202.540 C 152.391 202.060, 151.986 201.627, 152.913 201.054 C 154.453 200.102, 158.209 200.882, 159.178 202.355 C 159.634 203.048, 160.774 202.968, 162.652 202.113 C 164.584 201.232, 165.558 201.173, 165.807 201.920 C 166.005 202.514, 166.634 203, 167.206 203 C 167.903 203, 167.890 202.572, 167.164 201.698 C 166.044 200.349, 166.666 196, 167.979 196 C 168.389 196, 168.599 194.851, 168.445 193.446 C 168.222 191.420, 168.439 191.120, 169.493 191.994 C 170.466 192.802, 171.014 192.786, 171.539 191.937 C 171.934 191.299, 171.649 190.401, 170.907 189.943 C 170.165 189.484, 169.907 188.760, 170.333 188.333 C 171.929 186.738, 173.076 190.686, 172.561 196 C 172.061 201.171, 172.115 201.351, 173.479 199 C 174.277 197.625, 174.945 195.193, 174.965 193.595 C 175 190.700, 175.007 190.696, 177.146 192.595 C 179.275 194.486, 179.283 194.484, 178.146 192.316 C 176.700 189.559, 176.686 188, 178.107 188 C 178.716 188, 178.950 188.689, 178.627 189.530 C 178.243 190.530, 178.904 191.455, 180.534 192.197 C 182.394 193.045, 182.885 193.864, 182.463 195.417 C 181.907 197.460, 181.926 197.463, 183.448 195.559 C 184.302 194.491, 185 192.777, 185 191.750 C 185 190.723, 185.407 190.134, 185.905 190.441 C 186.402 190.749, 186.559 192.869, 186.253 195.153 C 185.839 198.235, 186.005 199.115, 186.896 198.564 C 187.556 198.157, 188.022 197.075, 187.933 196.161 C 187.462 191.365, 189.375 190.288, 190.439 194.750 C 190.800 196.262, 191.364 198.396, 191.692 199.492 C 192.217 201.245, 192.091 201.320, 190.644 200.120 C 188.815 198.602, 188.361 199.961, 190.113 201.713 C 190.902 202.502, 190.925 203.649, 190.191 205.662 C 189.623 207.223, 189.122 207.952, 189.079 207.281 C 189.036 206.611, 188.325 206.322, 187.500 206.638 C 186.537 207.008, 186 206.618, 186 205.548 C 186 204.531, 185.544 204.163, 184.830 204.605 C 184.043 205.091, 183.869 204.783, 184.299 203.664 C 184.650 202.749, 184.551 202, 184.080 202 C 183.608 202, 182.923 203.598, 182.557 205.550 C 181.987 208.589, 181.589 209.004, 179.794 208.435 C 178.161 207.916, 177.830 208.115, 178.298 209.334 C 178.720 210.433, 178.454 210.728, 177.406 210.326 C 176.129 209.835, 176.172 209.463, 177.707 207.744 C 179.441 205.800, 179.434 205.754, 177.500 206.344 C 174.707 207.196, 171.908 205.380, 173.971 204.054 C 174.780 203.534, 175.056 202.747, 174.584 202.304 C 174.112 201.862, 173.525 202.063, 173.280 202.750 C 173.034 203.438, 172.266 204, 171.572 204 C 170.878 204, 169.453 204.969, 168.405 206.153 L 166.500 208.305 169.800 207.668 C 171.882 207.265, 172.873 207.397, 172.485 208.024 C 171.256 210.013, 173.060 213.116, 175.074 212.476 C 176.524 212.016, 176.842 212.248, 176.387 213.435 C 176.056 214.296, 176.247 215, 176.810 215 C 177.373 215, 178.034 214.437, 178.280 213.750 C 178.525 213.063, 179.077 212.827, 179.506 213.226 C 179.934 213.625, 179.716 214.638, 179.020 215.476 C 178.195 216.471, 178.134 217, 178.846 217 C 179.468 217, 179.655 217.752, 179.281 218.750 C 178.709 220.278, 178.838 220.327, 180.302 219.137 C 181.224 218.387, 181.731 217.374, 181.430 216.887 C 180.450 215.302, 182.667 215.950, 185.295 218.018 C 186.866 219.253, 188.104 219.641, 188.489 219.018 C 189.669 217.108, 190.696 217.996, 190.781 221 C 190.828 222.650, 190.446 224, 189.933 224 C 189.420 224, 189 224.620, 189 225.379 C 189 226.974, 194.399 229.489, 195.871 228.580 C 196.416 228.243, 198.481 229.065, 200.458 230.407 L 204.054 232.847 198.777 233.950 C 195.875 234.557, 192.825 235.521, 192 236.092 C 190.780 236.937, 190.873 237.041, 192.500 236.650 C 193.600 236.385, 196.750 235.884, 199.500 235.536 C 202.250 235.189, 208.550 234.246, 213.500 233.442 C 226.679 231.299, 233.925 231.032, 233.280 232.712 C 232.958 233.551, 232.006 233.819, 230.756 233.423 C 229.359 232.979, 228.971 233.145, 229.479 233.967 C 229.984 234.783, 229.572 234.749, 228.146 233.859 C 225.826 232.410, 215.558 233.987, 213.564 236.099 C 212.787 236.921, 213.068 237.054, 214.609 236.590 C 217.737 235.648, 220.352 236.871, 218.914 238.604 C 218.288 239.358, 218.059 240.710, 218.403 241.609 C 219.490 244.441, 217.876 256, 216.393 256 C 215.621 256, 215.304 256.630, 215.638 257.500 C 216.144 258.818, 227.347 259, 308.107 259 L 400 259 399.968 251.250 C 399.951 246.988, 400.056 222.800, 400.201 197.500 C 400.347 172.200, 400.361 117.413, 400.233 75.750 L 400 0 302.941 0 C 238.490 0, 206.090 0.336, 206.500 1 M 42.500 150.099 C 25.519 150.842, 6.997 151.681, 3.226 151.880 L 0.953 152 1.226 169.209 L 1.500 186.419 5.500 187.915 C 7.700 188.737, 11.300 191.113, 13.500 193.194 C 15.700 195.276, 17.870 196.983, 18.321 196.989 C 18.773 196.995, 19.711 197.563, 20.406 198.250 C 21.101 198.938, 22.904 200.400, 24.412 201.500 C 28.353 204.375, 32.228 208, 31.360 208 C 30.952 208, 31.453 208.611, 32.474 209.358 C 34.279 210.677, 34.278 210.749, 32.416 211.905 C 30.558 213.060, 30.560 213.080, 32.500 212.571 C 33.600 212.282, 35.175 212.485, 36 213.023 C 37.250 213.837, 37.124 214.103, 35.250 214.617 C 32.606 215.341, 32.501 215.791, 34.467 217.963 C 39.158 223.147, 36.637 235.592, 29.149 244.213 C 26.313 247.478, 24 251.230, 24 252.566 C 24 256.139, 42.940 247.788, 53.510 239.553 C 57.354 236.558, 64.395 231.310, 69.156 227.889 C 76.658 222.499, 77.664 221.435, 76.706 219.900 C 76.097 218.926, 75.315 218.305, 74.967 218.520 C 74.619 218.736, 72.796 217.919, 70.917 216.706 C 69.038 215.493, 66.829 214.351, 66.009 214.170 C 65.190 213.988, 64.227 213.368, 63.871 212.792 C 63.515 212.215, 62.770 212.024, 62.217 212.366 C 61.663 212.708, 60.941 212.288, 60.612 211.431 C 60.283 210.574, 59.525 210.176, 58.927 210.545 C 58.329 210.915, 57.234 210.351, 56.492 209.292 C 55.751 208.234, 53.205 206.728, 50.836 205.946 C 48.466 205.164, 44.131 203.281, 41.204 201.762 C 38.276 200.243, 35.232 199, 34.440 199 C 33.648 199, 33 198.599, 33 198.108 C 33 197.618, 31.962 196.956, 30.693 196.638 C 29.424 196.319, 25.283 194.020, 21.489 191.529 L 14.593 186.999 20.877 187.490 C 24.333 187.760, 27.575 188.237, 28.080 188.550 C 28.586 188.862, 29.015 188.529, 29.033 187.809 C 29.052 187.067, 29.919 187.523, 31.033 188.861 C 32.115 190.159, 33.056 190.947, 33.125 190.611 C 33.194 190.275, 33.306 189.550, 33.375 189 C 33.639 186.891, 39 188.385, 39 190.567 C 39 191.355, 39.450 192, 40 192 C 40.550 192, 41 191.377, 41 190.617 C 41 188.360, 44.709 188.021, 46.595 190.105 C 47.773 191.407, 48.673 191.686, 49.494 191.005 C 50.148 190.462, 50.970 190.303, 51.318 190.652 C 51.667 191.001, 52.237 190.547, 52.583 189.643 C 53.513 187.221, 55 187.646, 55 190.333 C 55 193.760, 56.035 194.225, 58.027 191.693 C 59.032 190.415, 61.015 189.388, 62.644 189.301 C 64.215 189.217, 64.935 189.379, 64.244 189.660 C 62.645 190.310, 63.637 192, 65.618 192 C 66.443 192, 66.840 191.550, 66.500 191 C 66.160 190.450, 66.359 190, 66.941 190 C 67.523 190, 68 189.137, 68 188.083 C 68 187.029, 68.553 185.982, 69.228 185.757 C 69.904 185.532, 70.502 184.482, 70.557 183.424 C 70.961 175.698, 70.805 176, 74.406 176 C 78.178 176, 77.647 180.336, 73.750 181.355 C 72.786 181.607, 72 182.753, 72 183.906 C 72 185.058, 71.550 186, 71 186 C 70.450 186, 70 186.900, 70 188 C 70 189.111, 70.667 190, 71.500 190 C 72.325 190, 73 190.702, 73 191.559 C 73 192.416, 73.481 192.821, 74.068 192.458 C 74.656 192.095, 74.870 191.105, 74.545 190.258 C 74.221 189.411, 74.645 187.664, 75.489 186.376 C 76.334 185.087, 77.388 182.338, 77.832 180.267 C 78.600 176.681, 78.816 176.511, 82.319 176.720 C 84.991 176.880, 86 176.537, 86 175.470 C 86 174.662, 86.675 174, 87.500 174 C 88.325 174, 89 174.675, 89 175.500 C 89 176.325, 89.439 177, 89.975 177 C 90.607 177, 90.604 177.911, 89.967 179.586 C 89.220 181.553, 89.285 182.071, 90.242 181.750 C 90.934 181.518, 91.505 180.596, 91.512 179.702 C 91.518 178.808, 92.059 177.541, 92.715 176.885 C 93.525 176.075, 93.599 175.119, 92.947 173.900 C 92.268 172.632, 92.377 171.871, 93.319 171.303 C 94.954 170.317, 96.278 167, 95.036 167 C 94.540 167, 93.842 167.924, 93.483 169.053 C 92.993 170.597, 92.511 170.839, 91.538 170.032 C 90.564 169.223, 90.114 169.457, 89.716 170.979 C 89.425 172.091, 88.481 173, 87.618 173 C 86.347 173, 86.235 172.513, 87.025 170.435 C 88.369 166.898, 88.196 166.158, 86.535 168.350 C 85.764 169.368, 84.653 169.904, 84.067 169.541 C 83.480 169.179, 83 169.310, 83 169.834 C 83 170.358, 82.268 171.067, 81.374 171.410 C 79.884 171.982, 79.880 171.832, 81.322 169.632 C 82.988 167.089, 82.475 165.361, 80.532 166.973 C 79.207 168.073, 72 166.208, 72 164.765 C 72 164.270, 71.103 164.150, 70.006 164.498 C 68.508 164.974, 68.155 164.760, 68.586 163.637 C 69.079 162.352, 69.756 162.323, 73.440 163.432 L 77.721 164.720 76.717 162.062 C 76.163 160.593, 74.874 159.341, 73.835 159.263 C 72.802 159.185, 72.218 159.544, 72.537 160.061 C 72.857 160.577, 72.416 161, 71.559 161 C 70.702 161, 70 160.662, 70 160.250 C 70 159.838, 68.468 159.500, 66.595 159.500 C 64.723 159.500, 63.400 159.838, 63.655 160.250 C 63.909 160.662, 63.390 161, 62.500 161 C 61.610 161, 61.095 160.655, 61.356 160.234 C 61.616 159.812, 60.743 158.954, 59.415 158.328 C 57.104 157.237, 55.923 158.216, 58 159.500 C 59.360 160.340, 59.273 164, 57.893 164 C 57.284 164, 57.020 163.391, 57.305 162.647 C 57.918 161.051, 54.595 157.912, 52.767 158.361 C 52.070 158.532, 51.840 158.483, 52.256 158.251 C 52.672 158.019, 52.758 157.418, 52.447 156.915 C 51.803 155.872, 51.900 155.846, 58 155.448 C 61.039 155.249, 63.070 155.668, 64.256 156.737 C 65.222 157.608, 66.310 158.024, 66.673 157.661 C 67.036 157.297, 66.696 156.971, 65.917 156.937 C 65.138 156.902, 65.531 156.459, 66.791 155.954 C 68.329 155.336, 69.717 155.431, 71.016 156.242 C 72.531 157.188, 73.216 157.184, 74.175 156.225 C 75.988 154.412, 78 154.739, 78 156.845 C 78 159.589, 81.551 162.611, 82.345 160.543 C 82.671 159.694, 83.865 159, 85 159 C 86.135 159, 87.322 158.325, 87.638 157.500 C 88.489 155.283, 90.764 155.680, 91.558 158.184 C 92.245 160.349, 92.263 160.345, 93.596 157.802 C 95.318 154.516, 98 153.366, 98 155.915 C 98 158.155, 101.642 159.375, 102.404 157.389 C 103.194 155.331, 104.771 155.704, 105.542 158.132 C 105.914 159.305, 106.507 159.834, 106.859 159.309 C 108.541 156.803, 116 157.497, 116 160.161 C 116 160.622, 116.408 161, 116.906 161 C 117.405 161, 117.577 160.100, 117.290 159 C 116.753 156.948, 118.392 156.207, 119.500 158 C 119.840 158.550, 120.654 158.964, 121.309 158.921 C 122.168 158.864, 122.151 158.701, 121.250 158.338 C 120.562 158.060, 120 156.746, 120 155.417 C 120 153.644, 119.452 153, 117.941 153 C 116.809 153, 116.162 153.453, 116.504 154.007 C 117.309 155.309, 114.007 156.603, 113.149 155.323 C 112.001 153.609, 108.787 152.932, 107.373 154.105 C 106.457 154.866, 106 154.893, 106 154.185 C 106 153.533, 104.657 153.344, 102.508 153.692 C 100.424 154.031, 98.427 153.769, 97.552 153.043 C 96.747 152.375, 95.536 152.169, 94.861 152.586 C 93.117 153.663, 84.843 153.761, 82.686 152.729 C 81.551 152.186, 80.358 152.288, 79.500 153 C 78.474 153.852, 77.591 153.852, 76 153 C 74.376 152.131, 73.514 152.158, 72.360 153.116 C 71.335 153.967, 70.630 154.033, 70.174 153.323 C 69.190 151.791, 59 152.176, 59 153.745 C 59 155.236, 57.373 155.413, 56.510 154.016 C 56.175 153.475, 54.461 152.615, 52.701 152.106 C 49.588 151.206, 49.629 151.178, 54.191 151.090 C 56.771 151.041, 59.160 150.550, 59.500 150 C 59.840 149.450, 59.754 149.090, 59.309 149.200 C 58.864 149.310, 51.300 149.715, 42.500 150.099" stroke="none" fill="#1a1a2e" fill-rule="evenodd"/>
</svg>