<svg xmlns="http://www.w3.org/2000/svg" width="400" height="300" viewBox="0 0 400 300" version="1.1">
	<path d="M 55.240 99.457 C 59.703 102.865, 69.550 113.909, 85.777 133.708 C 90.329 139.262, 98.645 148.213, 104.255 153.598 C 109.866 158.983, 113.566 163.075, 112.478 162.692 C 110.529 162.005, 110.529 162.019, 112.500 163.616 C 114.436 165.185, 114.409 165.216, 111.666 164.579 C 109.603 164.099, 109.033 164.245, 109.571 165.114 C 110.039 165.872, 109.884 166.046, 109.146 165.590 C 108.067 164.923, 100.448 163.818, 97 163.828 C 96.175 163.830, 94.825 163.587, 94 163.288 C 90.913 162.166, 87.943 162.408, 88.453 163.739 C 88.862 164.803, 88.540 164.813, 86.727 163.792 C 85.502 163.102, 83.825 162.426, 83 162.289 C 82.175 162.152, 80.240 161.843, 78.701 161.602 C 77.161 161.362, 74.786 160.434, 73.422 159.541 C 72.059 158.648, 70.594 158.133, 70.167 158.397 C 69.739 158.661, 67.787 158.516, 65.828 158.074 C 63.838 157.625, 61.547 157.674, 60.634 158.185 C 59.579 158.775, 59 158.727, 59 158.050 C 59 157.472, 57.987 156.986, 56.750 156.968 C 55.513 156.951, 53.637 156.283, 52.582 155.485 C 51.215 154.451, 50.301 154.336, 49.399 155.084 C 48.479 155.848, 47.570 155.570, 46.067 154.067 C 44.180 152.180, 43.563 152.232, 43.882 154.250 C 44.103 155.651, 42.827 155.007, 40.908 152.750 C 39.282 150.836, 39.097 150.787, 39.672 152.424 C 40.213 153.966, 39.999 154.214, 38.592 153.674 C 37.626 153.303, 36.622 153, 36.359 153 C 36.097 153, 36.160 152.550, 36.500 152 C 36.840 151.450, 36.641 151, 36.059 151 C 35.477 151, 34.964 150.213, 34.921 149.250 C 34.873 148.194, 34.641 147.998, 34.336 148.756 C 34.057 149.447, 33.322 149.699, 32.702 149.316 C 32.083 148.933, 30.088 148.720, 28.269 148.842 C 26.083 148.990, 24.765 148.552, 24.381 147.551 C 23.939 146.399, 23.346 146.280, 21.900 147.053 C 20.637 147.729, 20 147.734, 20 147.067 C 20 146.514, 19.325 146.322, 18.500 146.638 C 17.675 146.955, 17 146.764, 17 146.214 C 17 145.664, 16.302 144.946, 15.448 144.618 C 14.568 144.281, 14.158 144.446, 14.500 145 C 14.842 145.553, 14.433 145.720, 13.558 145.384 C 12.707 145.057, 12.290 144.339, 12.631 143.788 C 13.020 143.159, 12.413 143.052, 11 143.500 C 9.326 144.031, 8.949 143.891, 9.529 142.953 C 10.061 142.093, 9.906 141.940, 9.043 142.474 C 8.312 142.925, 7.433 142.700, 6.964 141.942 C 6.298 140.864, 5.872 140.862, 4.588 141.927 C 3.286 143.008, 2.920 142.956, 2.407 141.618 C 0.358 136.280, 0 148.033, 0 220.561 L 0 300.005 200.250 299.752 L 400.500 299.500 400.611 211.500 C 400.721 124.518, 400.448 116.326, 397.565 120.250 C 396.858 121.213, 395.767 122, 395.140 122 C 394.513 122, 394 122.340, 394 122.757 C 394 123.894, 386.049 126.148, 384.787 125.369 C 384.107 124.948, 383.978 125.155, 384.446 125.912 C 384.914 126.670, 384.687 127.031, 383.850 126.864 C 383.108 126.715, 381.024 127.378, 379.221 128.338 C 377.417 129.297, 375.555 129.843, 375.084 129.552 C 374.612 129.260, 373.693 129.665, 373.040 130.452 C 372.388 131.238, 371.212 131.635, 370.427 131.334 C 369.642 131.032, 369 131.197, 369 131.700 C 369 132.203, 367.680 132.523, 366.067 132.412 C 364.341 132.292, 362.916 132.776, 362.605 133.587 C 362.313 134.347, 361.385 134.701, 360.538 134.376 C 359.692 134.052, 359 134.284, 359 134.893 C 359 135.502, 358.293 136, 357.429 136 C 356.564 136, 355.178 136.679, 354.348 137.509 C 353.518 138.339, 352.425 138.763, 351.919 138.450 C 351.414 138.138, 351 138.385, 351 139 C 351 139.615, 350.514 139.818, 349.920 139.451 C 349.326 139.084, 348.218 139.672, 347.457 140.758 C 346.573 142.019, 345.158 142.633, 343.541 142.455 C 342.148 142.302, 340.755 142.587, 340.445 143.089 C 340.135 143.590, 339.009 144, 337.941 144 C 336.873 144, 336 144.477, 336 145.059 C 336 145.641, 335.547 145.838, 334.993 145.496 C 334.439 145.153, 333.747 145.496, 333.455 146.258 C 333.109 147.157, 331.885 147.490, 329.962 147.208 C 328.333 146.969, 327 147.229, 327 147.787 C 327 148.345, 325.650 148.707, 324 148.593 C 322.091 148.461, 321 148.861, 321 149.693 C 321 151.257, 320.460 151.317, 318.039 150.021 C 316.669 149.288, 315.870 149.476, 314.855 150.771 C 313.631 152.333, 313.669 152.368, 315.250 151.128 C 316.395 150.229, 317 150.143, 317 150.878 C 317 151.495, 316.663 152.040, 316.250 152.090 C 313.563 152.412, 307.226 153.125, 305.823 153.264 C 304.901 153.354, 304.406 153.847, 304.722 154.359 C 305.048 154.886, 304.161 155.073, 302.679 154.789 C 301.239 154.514, 300.298 154.674, 300.589 155.144 C 300.880 155.615, 300.390 156, 299.500 156 C 298.578 156, 298.174 156.473, 298.562 157.100 C 299.024 157.848, 298.544 157.826, 297.057 157.030 C 295.403 156.146, 294.534 156.142, 293.480 157.017 C 292.714 157.652, 291.598 157.870, 291 157.500 C 290.402 157.130, 289.257 157.372, 288.456 158.036 C 287.655 158.701, 287 158.910, 287 158.500 C 287 158.090, 286.438 158.181, 285.750 158.703 C 283.184 160.647, 273.877 160.087, 267.595 157.610 C 258.375 153.974, 252.844 153.202, 259.500 156.480 C 270.267 161.783, 257.786 166.197, 239.500 163.553 C 232.190 162.496, 231.571 162.222, 232.894 160.628 C 235.635 157.325, 196.972 157.686, 176.559 161.154 C 167.886 162.628, 163.501 163.003, 163.264 162.292 C 162.868 161.104, 159.315 161.746, 151.586 164.400 C 148.043 165.617, 146.478 165.773, 145.975 164.960 C 145.592 164.339, 139.364 161.440, 132.136 158.518 C 111.294 150.091, 103.296 144.290, 78.500 119.615 C 62.590 103.782, 53.780 96, 51.766 96 C 51.187 96, 52.750 97.556, 55.240 99.457" stroke="none" fill="#1a1a2e" fill-rule="evenodd"/>
</svg>