<svg xmlns="http://www.w3.org/2000/svg" width="400" height="297" viewBox="0 0 400 297" version="1.1">
	<path d="M 305 0.921 C 305 1.427, 303.650 2.138, 302 2.500 C 299.295 3.094, 298.529 4.016, 298.882 6.250 C 298.947 6.662, 298.583 7, 298.072 7 C 297.562 7, 296.360 8.779, 295.401 10.953 C 294.441 13.127, 293.284 14.675, 292.828 14.394 C 292.373 14.112, 292 14.601, 292 15.480 C 292 16.793, 291.754 16.849, 290.625 15.795 C 289.869 15.088, 289.462 13.833, 289.720 13.005 C 290.129 11.692, 290.056 11.688, 289.149 12.971 C 288.577 13.780, 287.788 14.122, 287.396 13.730 C 287.005 13.338, 286.116 13.489, 285.421 14.066 C 284.454 14.868, 284.284 14.631, 284.695 13.057 C 285.001 11.888, 284.751 11, 284.117 11 C 283.502 11, 283 11.679, 283 12.508 C 283 13.767, 282.668 13.810, 281 12.768 C 279.900 12.081, 279 11.122, 279 10.637 C 279 10.152, 279.675 10.315, 280.500 11 C 281.365 11.718, 282 11.815, 282 11.229 C 282 10.058, 279.646 9, 277.041 9 C 276.053 9, 274.673 8.311, 273.975 7.470 C 272.848 6.112, 272.492 6.168, 270.813 7.970 C 268.930 9.991, 268.904 9.992, 265.107 8.054 C 262.311 6.628, 260.995 6.405, 260.181 7.219 C 259.571 7.829, 258.260 8.389, 257.268 8.462 C 256.276 8.535, 254.948 8.914, 254.316 9.304 C 253.685 9.695, 251.970 9.559, 250.505 9.002 C 247.743 7.952, 243.094 8.345, 242.081 9.714 C 241.761 10.146, 240.863 10.500, 240.083 10.500 C 239.304 10.500, 238.479 11.063, 238.250 11.751 C 237.977 12.570, 238.465 12.801, 239.666 12.419 C 241.402 11.868, 241.406 11.914, 239.750 13.279 C 237.414 15.203, 237.533 16.355, 240.001 15.710 C 241.275 15.377, 241.761 15.578, 241.337 16.263 C 240.916 16.944, 241.283 17.105, 242.336 16.701 C 243.251 16.350, 244 16.451, 244 16.924 C 244 17.398, 243.325 18.045, 242.500 18.362 C 240.783 19.020, 240.462 21, 242.071 21 C 242.661 21, 243.770 20.437, 244.537 19.750 C 248.625 16.083, 250.948 15.548, 253.162 17.762 C 254.146 18.746, 253.961 19, 252.259 19 C 251.081 19, 249.866 19.408, 249.558 19.906 C 249.250 20.404, 248.047 20.564, 246.885 20.260 C 245.165 19.810, 244.882 20.060, 245.363 21.604 C 246.079 23.901, 244.600 26.780, 243.564 25.104 C 243.063 24.293, 242.323 24.292, 240.815 25.099 C 237.625 26.806, 234 26.932, 234 25.337 C 234 24.196, 233.452 24.232, 230.928 25.537 C 228.893 26.590, 227.459 26.799, 226.678 26.159 C 226.030 25.627, 224.375 25.036, 223 24.845 C 220.963 24.562, 220.535 23.987, 220.690 21.738 C 220.859 19.275, 220.717 19.140, 219.368 20.489 C 218.537 21.320, 217.327 22.037, 216.679 22.083 C 212.230 22.398, 210.708 22.850, 209.923 24.090 C 209.389 24.933, 209.024 25.035, 209.015 24.344 C 209.007 23.708, 208.212 23.379, 207.250 23.614 C 205.730 23.985, 201.516 24.519, 197.191 24.888 C 196.471 24.950, 196.181 25.483, 196.546 26.074 C 197.009 26.824, 196.650 26.846, 195.355 26.147 C 194.335 25.596, 192.684 24.891, 191.687 24.580 C 190.640 24.254, 190.144 23.482, 190.513 22.757 C 190.865 22.066, 190.218 22.562, 189.076 23.861 C 187.755 25.364, 187 25.713, 187 24.822 C 187 23.907, 185.789 23.390, 183.500 23.329 C 181.575 23.278, 180 23.659, 180 24.177 C 180 24.694, 179.550 24.840, 179 24.500 C 178.450 24.160, 178 24.367, 178 24.960 C 178 25.627, 179.011 25.784, 180.649 25.373 C 182.514 24.905, 183.089 25.048, 182.590 25.854 C 181.821 27.099, 178.737 27.403, 177.672 26.339 C 176.668 25.335, 171.112 25.373, 171.734 26.380 C 172.034 26.864, 171.653 27.049, 170.889 26.791 C 170.125 26.533, 168.069 26.918, 166.320 27.645 C 163.483 28.826, 163.092 28.781, 162.686 27.234 C 162.259 25.602, 162.225 25.603, 162.116 27.250 C 162.052 28.212, 161.587 29, 161.082 29 C 160.577 29, 159.400 29.293, 158.466 29.651 C 157.106 30.173, 156.899 29.893, 157.426 28.234 C 158.093 26.131, 156.657 25.999, 152 27.738 C 150.567 28.272, 149.057 28.357, 145.300 28.111 C 144.044 28.029, 143.893 27.707, 144.722 26.878 C 146.641 24.959, 145.141 22.996, 142.518 23.993 C 141.246 24.477, 139.965 24.631, 139.670 24.336 C 138.666 23.333, 132 26.149, 132 27.578 C 132 28.360, 131.564 29, 131.031 29 C 130.499 29, 130.342 28.273, 130.683 27.385 C 131.183 26.081, 130.863 25.909, 129.026 26.492 C 127.544 26.962, 126.419 26.741, 125.799 25.857 C 125.059 24.802, 124.735 24.778, 124.341 25.750 C 124.062 26.438, 123.394 27, 122.858 27 C 122.321 27, 122.160 26.550, 122.500 26 C 122.840 25.450, 122.710 25, 122.212 25 C 121.714 25, 120.225 24.060, 118.903 22.910 C 116.795 21.077, 116.459 21.022, 116.166 22.466 C 115.982 23.370, 115.307 23.917, 114.666 23.680 C 114.025 23.444, 113.624 22.710, 113.775 22.051 C 113.926 21.391, 113.569 21.149, 112.981 21.512 C 112.393 21.875, 111.355 21.709, 110.673 21.143 C 109.908 20.509, 108.871 20.462, 107.966 21.021 C 106.245 22.085, 106.001 24.169, 107.467 25.292 C 108.104 25.780, 107.926 26.022, 107 25.923 C 104.064 25.610, 102 26.013, 102 26.901 C 102 27.397, 103.463 27.860, 105.250 27.931 C 111.782 28.189, 114 28.515, 114 29.219 C 114 29.614, 114.788 29.692, 115.750 29.393 C 117.280 28.917, 117.300 28.979, 115.911 29.884 C 115.037 30.453, 111.328 31.038, 107.669 31.184 C 103.110 31.366, 101.092 31.831, 101.258 32.659 C 101.391 33.325, 101.050 33.786, 100.500 33.684 C 99.950 33.583, 99.562 32.942, 99.637 32.261 C 99.712 31.579, 99.466 31.212, 99.089 31.445 C 98.713 31.678, 97.751 31.455, 96.952 30.949 C 96.154 30.444, 96 30.024, 96.611 30.015 C 97.262 30.006, 97.539 28.861, 97.280 27.250 C 96.482 22.291, 96.224 21.966, 93.786 22.863 C 92.272 23.420, 90.317 23.189, 88 22.181 C 83.688 20.306, 81.827 19.911, 82.512 21.019 C 82.798 21.482, 82.575 22.144, 82.016 22.490 C 81.457 22.835, 80.993 22.529, 80.985 21.809 C 80.972 20.766, 80.794 20.776, 80.110 21.857 C 79.533 22.768, 78.471 22.967, 76.883 22.463 C 74.698 21.769, 74.630 21.849, 76 23.500 C 77.364 25.144, 77.303 25.231, 75.242 24.577 C 73.875 24.143, 73 24.282, 73 24.933 C 73 25.520, 72.561 26, 72.025 26 C 71.392 26, 71.395 25.033, 72.031 23.250 C 72.949 20.676, 72.915 20.625, 71.506 22.441 C 70.678 23.509, 70 25.003, 70 25.763 C 70 26.855, 69.673 26.815, 68.429 25.571 C 66.663 23.806, 65.560 23.479, 66.500 25 C 66.840 25.550, 66.443 26, 65.618 26 C 64.793 26, 63.793 26.526, 63.395 27.170 C 62.909 27.957, 63.217 28.131, 64.336 27.701 C 65.251 27.350, 66 27.525, 66 28.090 C 66 28.656, 66.408 28.866, 66.907 28.558 C 67.405 28.249, 67.603 28.803, 67.345 29.788 C 67.084 30.789, 67.751 32.369, 68.857 33.371 C 71.478 35.743, 68.099 40.157, 65.386 37.905 C 64.194 36.916, 64.158 36.509, 65.203 35.819 C 66.221 35.146, 66.113 34.666, 64.697 33.582 C 63.705 32.823, 63.255 32.005, 63.697 31.765 C 64.139 31.524, 63.901 31.479, 63.168 31.664 C 62.436 31.849, 60.861 32.030, 59.668 32.068 L 57.500 32.135 59.750 33.220 C 61.998 34.305, 62.890 37, 61 37 C 60.450 37, 60.112 36.437, 60.250 35.750 C 60.401 34.995, 59.609 34.594, 58.250 34.738 C 57.006 34.870, 55.993 34.423, 55.985 33.738 C 55.975 32.931, 55.637 33.022, 55.015 34 C 54.226 35.240, 53.709 35.282, 52.031 34.242 C 50.831 33.498, 50 33.396, 50 33.992 C 50 34.546, 49.100 35, 48 35 C 46.900 35, 46 35.482, 46 36.072 C 46 36.661, 44.763 36.998, 43.250 36.822 C 41.093 36.569, 40.563 36.877, 40.794 38.250 C 40.975 39.329, 40.454 40, 39.437 40 C 38.423 40, 37.996 39.453, 38.330 38.583 C 38.629 37.803, 38.256 36.929, 37.501 36.639 C 36.747 36.349, 35.962 36.613, 35.758 37.226 C 34.958 39.625, 26.154 39.063, 23.537 36.446 C 20.777 33.686, 19.810 33.341, 20.599 35.398 C 20.981 36.392, 20.392 36.754, 18.569 36.648 C 17.157 36.567, 16.001 36.219, 16.001 35.875 C 15.999 34.571, 10.413 35.282, 8.500 36.829 C 7.400 37.719, 7.027 37.842, 7.672 37.102 C 8.934 35.653, 8.392 33, 6.834 33 C 6.310 33, 6.160 33.450, 6.500 34 C 6.869 34.596, 5.580 35.026, 3.309 35.063 C 0.019 35.118, -0.193 35.250, 1.750 36.031 C 2.987 36.529, 4 37.490, 4 38.168 C 4 39.126, 3.733 39.133, 2.800 38.200 C 2.140 37.540, 1.240 37, 0.800 37 C -0.351 37, -0.220 274.746, 0.931 275.457 C 1.443 275.774, 2.147 275.572, 2.495 275.009 C 2.900 274.352, 3.630 274.488, 4.528 275.385 C 6.429 277.286, 22.209 277.783, 22.835 275.962 C 23.020 275.426, 23.667 275.294, 24.273 275.669 C 25.374 276.349, 32.854 277.015, 42.743 277.313 C 47.261 277.450, 47.908 277.715, 47.425 279.236 C 46.966 280.681, 48.223 281.711, 49.273 280.750 C 49.424 280.613, 50.634 281.513, 51.962 282.750 C 53.290 283.988, 55.042 285, 55.855 285 C 56.668 285, 57.059 285.274, 56.724 285.609 C 56.389 285.944, 57.413 287.406, 59 288.859 C 61.058 290.743, 61.800 292.267, 61.588 294.173 L 61.292 296.847 102.552 296.956 C 133.774 297.038, 143.909 296.774, 144.211 295.868 C 144.852 293.944, 158.934 293.662, 164.250 295.467 C 169.881 297.378, 178.182 297.338, 175.548 295.411 C 173.988 294.271, 174.043 294.131, 176.169 293.830 C 179.490 293.360, 179.943 288.552, 176.913 285.924 C 174.235 283.602, 174.947 282.366, 178.017 284.009 C 179.220 284.653, 181.102 284.945, 182.199 284.658 C 184.435 284.074, 187 284.798, 187 286.013 C 187 286.453, 186.151 286.591, 185.113 286.319 C 184.075 286.048, 182.946 286.279, 182.604 286.832 C 181.973 287.853, 188.670 290.649, 190.491 290.125 C 191.036 289.968, 192.273 289.780, 193.241 289.707 C 196.014 289.498, 195.295 287.298, 191.976 285.834 C 189.138 284.582, 189.087 284.467, 191.151 283.972 C 195.954 282.821, 194.100 281.201, 188.017 281.235 C 184.672 281.253, 181.656 280.989, 181.316 280.649 C 180.976 280.309, 180.057 280.812, 179.275 281.766 C 178.492 282.719, 178.184 282.861, 178.590 282.080 C 179.123 281.055, 178.883 280.831, 177.730 281.273 C 176.558 281.723, 176.175 281.329, 176.291 279.791 C 176.378 278.638, 177.248 277.486, 178.224 277.231 C 180.330 276.680, 180.314 276.783, 178.822 273.508 C 178.174 272.086, 177.159 271.109, 176.567 271.336 C 174.957 271.954, 172.691 269.296, 174.279 268.653 C 174.953 268.380, 174.689 268.123, 173.691 268.079 C 172.696 268.036, 172.167 267.538, 172.516 266.973 C 172.865 266.409, 173.904 266.071, 174.825 266.223 C 175.940 266.408, 176.402 265.915, 176.206 264.750 C 176.045 263.788, 176.409 263, 177.015 263 C 177.622 263, 177.892 262.634, 177.615 262.187 C 177.131 261.404, 181.347 261.527, 185.500 262.418 C 186.600 262.654, 188.175 262.922, 189 263.014 C 189.825 263.105, 189.037 263.603, 187.250 264.119 C 183.372 265.239, 183.051 266.724, 186.500 267.589 C 189.606 268.369, 189.712 269.792, 186.750 270.925 C 184.523 271.776, 184.527 271.792, 187.196 272.487 C 188.965 272.948, 190.627 272.674, 192.033 271.690 L 194.174 270.190 192.087 269.528 C 189.561 268.726, 189.293 266.787, 191.750 267.091 C 193.842 267.350, 197.232 266.048, 198.184 264.621 C 198.993 263.408, 198.294 262, 196.882 262 C 196.332 262, 196.160 262.450, 196.500 263 C 197.256 264.224, 195.987 264.278, 194.130 263.102 C 191.772 261.608, 198.854 259.987, 207.013 260.155 C 215.574 260.330, 216.131 260.495, 215.320 262.609 C 214.510 264.718, 210.092 266.321, 208.569 265.057 C 207.872 264.478, 206.166 264.402, 204.440 264.873 L 201.500 265.675 204 266.528 C 205.375 266.998, 206.950 267.432, 207.500 267.494 C 211.293 267.921, 214 269.426, 214 271.108 C 214 272.149, 214.620 273, 215.378 273 C 217.476 273, 219.417 275.672, 217.792 276.324 C 217.081 276.609, 217.599 276.878, 218.941 276.921 C 221.244 276.996, 221.277 277.077, 219.528 278.356 C 217.103 280.129, 222.631 279.937, 228.351 278.049 C 231.040 277.162, 232.887 277.098, 234.809 277.827 C 236.289 278.388, 240.633 279.063, 244.461 279.326 C 253.585 279.952, 255.629 281.965, 253.442 288.165 C 252.649 290.412, 252 293.316, 252 294.617 L 252 296.983 273.411 296.914 L 294.822 296.846 295.575 294.173 C 295.989 292.703, 296.263 291.190, 296.184 290.811 C 296.105 290.432, 297.016 289.812, 298.207 289.434 C 300.301 288.770, 300.310 288.700, 298.496 287.373 C 297.463 286.618, 296.984 286, 297.431 286 C 297.879 286, 297.689 285.330, 297.010 284.512 C 296.010 283.307, 296.081 282.906, 297.382 282.407 C 298.265 282.068, 298.769 281.435, 298.500 281 C 298.231 280.565, 298.684 279.952, 299.506 279.636 C 301.565 278.846, 301.388 277.003, 299.250 276.985 C 297.872 276.973, 297.791 276.785, 298.872 276.100 C 299.706 275.572, 297.092 275.284, 292.204 275.366 C 287.782 275.439, 284.382 275.283, 284.647 275.018 C 285.059 274.607, 278.910 272.630, 274 271.595 C 273.175 271.421, 270.587 271.847, 268.250 272.542 C 265.913 273.236, 264 273.412, 264 272.932 C 264 272.452, 262.087 272.271, 259.750 272.531 C 256.398 272.903, 255.975 272.798, 257.750 272.033 C 260.712 270.758, 260.589 270.306, 257.250 270.200 C 252.712 270.057, 247 268.834, 247 268.005 C 247 267.578, 249.025 267.381, 251.500 267.566 C 254.086 267.759, 256 267.473, 256 266.892 C 256 266.337, 256.419 266.141, 256.931 266.457 C 258.165 267.220, 259.050 265.698, 258.184 264.302 C 257.274 262.835, 254.932 262.498, 252.618 263.500 C 251.549 263.963, 250.036 263.881, 249.118 263.310 C 248.228 262.756, 246.600 262.453, 245.500 262.637 C 244.400 262.820, 241.925 263.168, 240 263.409 C 235.174 264.015, 233.167 264.500, 232.426 265.241 C 232.079 265.588, 230.762 265.480, 229.500 265 C 228.238 264.520, 226.999 264.335, 226.745 264.588 C 226.492 264.841, 225.716 264.362, 225.020 263.524 C 224.324 262.686, 222.798 261.986, 221.628 261.970 C 219.625 261.941, 219.609 261.876, 221.354 260.862 C 223.375 259.687, 229.255 259.468, 235.418 260.338 C 237.573 260.642, 240.160 260.450, 241.168 259.910 C 242.501 259.196, 243.004 259.279, 243.015 260.215 C 243.025 261.034, 243.297 261.126, 243.765 260.467 C 244.169 259.898, 246.525 259.460, 249 259.492 C 251.852 259.530, 253.983 258.993, 254.818 258.026 C 255.944 256.723, 256.048 256.913, 255.528 259.334 C 255.133 261.174, 255.285 261.942, 255.960 261.525 C 256.532 261.171, 257 259.982, 257 258.882 C 257 257.782, 257.412 257.136, 257.915 257.447 C 258.418 257.758, 258.989 257.534, 259.184 256.949 C 259.379 256.364, 260.314 256.183, 261.263 256.548 C 262.212 256.912, 262.777 257.552, 262.518 257.971 C 261.986 258.832, 267.705 258.350, 270 257.341 C 270.825 256.978, 273.678 256.601, 276.340 256.503 C 279.002 256.406, 281.482 255.837, 281.851 255.240 C 282.221 254.643, 284.512 253.469, 286.944 252.631 C 291.315 251.126, 293.556 251.291, 292.476 253.039 C 292.170 253.534, 293.758 253.291, 296.005 252.498 C 300.900 250.771, 304.659 250.534, 312 251.489 C 315.756 251.978, 319.299 251.733, 323.175 250.717 C 327.934 249.469, 328.764 249.453, 328.318 250.615 C 328.025 251.377, 328.226 252, 328.763 252 C 329.300 252, 329.736 252.787, 329.733 253.750 C 329.716 257.988, 329.744 258, 339.717 258 C 353.645 258, 361.384 254.648, 357.767 250.181 C 356.916 249.130, 356.887 248.848, 357.681 249.324 C 358.330 249.714, 359.107 249.636, 359.407 249.150 C 359.707 248.665, 361.201 248.455, 362.726 248.684 L 365.500 249.100 362.840 247.565 C 360.818 246.398, 360.312 245.487, 360.731 243.765 C 361.894 238.985, 363.549 238.206, 371.965 238.476 C 380.450 238.747, 382.636 238.100, 381.677 235.601 C 381.339 234.720, 381.499 234, 382.031 234 C 382.564 234, 383 234.502, 383 235.117 C 383 235.802, 384.062 236.020, 385.750 235.680 C 389.385 234.949, 396.229 236.962, 395.608 238.579 C 395.340 239.278, 396.193 240.082, 397.567 240.427 C 399.885 241.009, 400 241.408, 400 248.855 L 400 256.672 395.918 260.336 C 393.674 262.351, 391.349 264, 390.752 264 C 389.158 264, 390.538 265.109, 392.488 265.395 C 393.408 265.530, 394.461 266.104, 394.830 266.671 C 395.198 267.237, 396.481 268.217, 397.680 268.848 C 398.879 269.479, 400.059 271.009, 400.302 272.248 C 400.804 274.812, 400.747 42.351, 400.239 16.750 L 399.907 0 352.453 0 C 324.215 0, 305 0.373, 305 0.921 M 168.127 104.069 C 160.823 106.181, 159.988 106.731, 162.029 108.083 C 163.166 108.836, 162.933 109.016, 161 108.873 C 156.310 108.528, 154 108.999, 154.250 110.250 C 154.387 110.938, 152.588 112.388, 150.250 113.474 C 147.912 114.560, 145.993 115.910, 145.985 116.474 C 145.977 117.038, 142.490 119.341, 138.235 121.592 C 133.876 123.897, 130.627 126.242, 130.791 126.964 C 130.977 127.785, 130.488 128.017, 129.428 127.611 C 127.967 127.050, 121 130.381, 121 131.641 C 121 131.903, 121.520 131.797, 122.155 131.405 C 122.876 130.959, 123.037 131.131, 122.585 131.862 C 122.187 132.506, 121.484 132.799, 121.022 132.513 C 120.053 131.915, 105.343 142.493, 99.668 147.869 C 95.334 151.975, 92.266 157, 94.093 157 C 94.722 157, 94.059 158.545, 92.619 160.433 C 87.629 166.975, 91.869 166.148, 100.978 158.804 C 102.891 157.262, 104.920 156, 105.487 156 C 106.055 156, 107.073 155.113, 107.750 154.028 C 108.428 152.943, 109.614 152.299, 110.387 152.595 C 111.167 152.894, 112.501 152.123, 113.385 150.861 C 114.893 148.708, 115.047 148.682, 116.289 150.380 C 117.514 152.056, 117.679 152, 118.804 149.530 C 120.011 146.882, 122 146.881, 122 149.528 C 122 150.362, 122.605 150.705, 123.482 150.369 C 124.559 149.955, 124.705 149.317, 124.017 148.032 C 123.496 147.059, 123.355 145.979, 123.702 145.631 C 124.845 144.489, 129 144.973, 129.005 146.250 C 129.008 146.938, 130.038 146.215, 131.295 144.644 C 134.289 140.903, 137.156 143.168, 135.110 147.659 C 134.458 149.089, 134.163 150.496, 134.454 150.787 C 135.212 151.545, 132.984 154, 131.538 154 C 130.803 154, 130.395 152.765, 130.507 150.878 L 130.693 147.756 129.007 149.991 C 128.063 151.243, 127.521 153.277, 127.777 154.613 C 128.037 155.976, 127.754 157, 127.117 157 C 126.502 157, 126 157.447, 126 157.994 C 126 159.630, 129.894 158.522, 131.470 156.438 C 132.277 155.372, 132.951 154.990, 132.968 155.589 C 133.010 157.008, 143.712 155.447, 148.818 153.276 C 150.843 152.415, 153.778 151.600, 155.341 151.465 C 156.903 151.329, 158.681 150.719, 159.291 150.109 C 159.901 149.499, 161.323 148.997, 162.450 148.994 C 163.578 148.990, 165.681 148.372, 167.123 147.619 C 168.566 146.866, 170.885 146.250, 172.276 146.250 C 173.668 146.250, 176.537 144.878, 178.653 143.201 C 180.769 141.524, 183.625 139.954, 185 139.712 C 186.936 139.372, 186.710 139.242, 184 139.137 C 182.075 139.062, 178.072 139.924, 175.105 141.052 C 169.453 143.200, 166.405 142.992, 167.353 140.524 C 167.661 139.721, 167.487 138.801, 166.967 138.480 C 166.427 138.146, 166.760 136.742, 167.747 135.198 C 170.207 131.351, 172.245 129.959, 173.677 131.147 C 174.494 131.825, 175.181 131.567, 175.897 130.315 C 178.087 126.480, 178.712 125.952, 180.330 126.573 C 181.248 126.926, 182 128.066, 182 129.107 C 182 131.720, 182.734 131.497, 186.144 127.846 C 188.386 125.446, 188.806 124.429, 187.899 123.596 C 187.020 122.788, 186.892 122.828, 187.412 123.750 C 187.845 124.517, 187.516 125, 186.559 125 C 184.476 125, 184.580 123.040, 186.750 121.392 C 188.730 119.889, 192 119.559, 192 120.861 C 192 121.335, 193.120 121.509, 194.488 121.247 C 195.857 120.985, 196.760 120.420, 196.494 119.990 C 196.229 119.561, 196.669 118.957, 197.474 118.648 C 198.278 118.340, 199.202 118.518, 199.527 119.044 C 199.852 119.570, 199.590 120, 198.944 120 C 198.154 120, 198.281 120.780, 199.333 122.385 C 201.081 125.053, 200.650 125.963, 197.583 126.079 C 196.438 126.122, 196.058 126.384, 196.741 126.659 C 197.676 127.037, 197.607 127.536, 196.457 128.686 C 195.588 129.555, 195.189 131.021, 195.531 132.096 C 195.860 133.134, 195.773 134.549, 195.338 135.241 C 194.904 135.933, 194.447 138.011, 194.324 139.859 C 194.200 141.706, 193.399 144.181, 192.543 145.359 C 188.268 151.239, 187.779 152.113, 188.413 152.746 C 189.961 154.294, 200.978 141.067, 200.996 137.639 C 201.003 136.252, 209.032 127.057, 211.365 125.763 C 214.539 124.003, 223.310 123.921, 221.863 125.665 C 220.622 127.161, 222.069 127.515, 223.550 126.078 C 224.073 125.571, 226.300 124.845, 228.500 124.466 C 232.001 123.862, 232.280 123.946, 230.734 125.138 C 229.100 126.398, 229.156 126.511, 231.477 126.644 C 232.857 126.723, 233.738 126.385, 233.434 125.894 C 232.572 124.499, 234.702 124.845, 236.200 126.343 C 236.993 127.136, 238.345 127.405, 239.500 127 C 240.691 126.582, 242.026 126.883, 242.911 127.768 C 243.961 128.818, 245.602 129.052, 248.822 128.611 C 251.273 128.275, 254.791 128, 256.640 128 C 259.016 128, 260 127.544, 260 126.441 C 260 125.584, 260.360 125.104, 260.800 125.376 C 261.240 125.648, 262.173 124.953, 262.874 123.831 C 263.845 122.276, 263.855 121.972, 262.916 122.552 C 262.035 123.096, 261.845 122.699, 262.249 121.156 C 262.658 119.592, 262.358 118.996, 261.156 118.985 C 259.822 118.972, 259.769 118.799, 260.882 118.094 C 262.643 116.979, 258.800 115.569, 254.750 115.845 C 253.238 115.948, 252 115.627, 252 115.133 C 252 113.550, 255.874 113.151, 261.769 114.126 C 264.921 114.647, 269.152 115.233, 271.170 115.429 C 273.189 115.624, 275.296 116.065, 275.851 116.408 C 276.407 116.752, 277.119 116.616, 277.434 116.106 C 278.037 115.131, 265.989 111.114, 255 108.628 C 233.664 103.800, 178.982 100.931, 168.127 104.069 M 182.519 161.233 C 176.760 164.153, 176.178 164.246, 166.769 163.727 C 156.300 163.150, 156.059 163.279, 158.563 168.121 C 160.471 171.812, 159.857 172.727, 152.669 176.905 C 149.826 178.558, 145.639 181.617, 143.364 183.705 C 141.089 185.792, 136.855 189.300, 133.955 191.500 C 131.055 193.700, 127.066 196.864, 125.091 198.531 C 123.116 200.199, 118.901 203.525, 115.725 205.923 C 108.728 211.205, 108.943 212.280, 116.183 208.210 C 119.107 206.566, 127.435 202.159, 134.689 198.416 C 141.943 194.674, 147.703 191.329, 147.490 190.984 C 147.012 190.210, 150.654 187, 152.011 187 C 152.555 187, 153 186.550, 153 186 C 153 185.450, 153.689 185, 154.531 185 C 155.374 185, 156.322 184.325, 156.638 183.500 C 156.955 182.675, 157.841 182, 158.607 182 C 159.373 182, 160 181.589, 160 181.086 C 160 180.583, 163.938 178.247, 168.750 175.895 C 173.563 173.542, 177.950 171.055, 178.500 170.368 C 179.419 169.219, 188.529 166.429, 200.250 163.708 C 204.883 162.632, 206.270 161.367, 203.750 160.515 C 201.191 159.650, 191.993 159.386, 190.769 160.143 C 190.014 160.610, 189.298 160.375, 189 159.563 C 188.614 158.511, 187.134 158.893, 182.519 161.233 M 338.500 164.995 C 333.274 166.943, 328.228 168.340, 325.500 168.594 C 323.850 168.748, 320.089 169.350, 317.142 169.932 C 314.195 170.513, 309.964 170.698, 307.739 170.342 C 304.810 169.874, 303.890 170.013, 304.406 170.848 C 304.827 171.529, 304.481 172, 303.559 172 C 302.702 172, 302 172.450, 302 173 C 302 173.550, 303.688 174.007, 305.750 174.015 C 308.127 174.025, 309.021 174.335, 308.192 174.860 C 307.472 175.317, 303.647 175.511, 299.692 175.292 L 292.500 174.894 295 177.010 L 297.500 179.125 295.087 178.444 C 290.901 177.261, 286.161 175.069, 285.509 174.015 C 284.373 172.177, 279.206 172.794, 279.361 174.750 C 279.438 175.713, 278.825 176.512, 278 176.526 C 277.175 176.541, 275.825 176.978, 275 177.498 C 272.264 179.222, 270.752 178.895, 266.804 175.722 C 263.789 173.299, 262.007 172.615, 259.022 172.734 C 256.703 172.826, 254.672 172.309, 253.954 171.444 C 252.596 169.808, 249 169.481, 249 170.994 C 249 172.398, 245.768 171.733, 242.646 169.688 C 241.191 168.734, 240 168.414, 240 168.977 C 240 169.540, 240.450 170, 241 170 C 241.550 170, 242 170.464, 242 171.031 C 242 172.480, 238.935 173.498, 238.149 172.310 C 236.695 170.112, 233.660 169.288, 230.116 170.131 C 228.127 170.604, 221.733 170.708, 215.907 170.363 C 207.214 169.848, 204.351 170.055, 199.947 171.518 C 193.720 173.586, 195.243 174.928, 204.193 175.259 C 208.268 175.410, 208.784 175.644, 207.615 176.814 C 206.306 178.123, 200.418 177.548, 192.750 175.364 C 191.545 175.021, 190.995 175.432, 190.985 176.683 C 190.974 177.895, 190.717 178.103, 190.210 177.305 C 189.662 176.444, 186.311 177.535, 178.214 181.211 C 172.035 184.017, 167.096 186.421, 167.239 186.554 C 167.383 186.687, 173.125 187.087, 180 187.443 C 207.765 188.881, 215.233 190.091, 219.353 193.820 C 220.374 194.744, 221.500 195.500, 221.855 195.500 C 222.210 195.500, 222.388 195.837, 222.250 196.250 C 221.995 197.015, 223.700 197.416, 225.500 197.013 C 226.050 196.890, 226.950 196.702, 227.500 196.595 C 228.050 196.487, 230.075 195.680, 232 194.801 C 236.532 192.731, 244.120 190.956, 245.304 191.688 C 246.926 192.690, 304.449 192.124, 315.529 190.997 C 337.902 188.721, 347.106 180.741, 330.936 177.639 C 327.339 176.949, 321.259 174.103, 323 173.924 C 327.202 173.492, 336.105 176.157, 339.192 178.772 C 341.237 180.504, 343.658 180.577, 351.415 179.144 C 364.371 176.750, 373.157 172.104, 368.198 170.269 C 367.055 169.846, 366.205 169.050, 366.310 168.500 C 366.684 166.532, 360.990 166.796, 359.217 168.829 C 356.265 172.214, 352.645 174.023, 350.990 172.940 C 349.742 172.122, 349.965 171.553, 352.365 169.431 C 355.922 166.286, 355.562 165.914, 348.863 165.804 C 345.913 165.755, 342.825 165.386, 342 164.982 C 341.175 164.579, 339.600 164.585, 338.500 164.995 M 136.517 178.947 C 135.758 181.338, 134.256 181.509, 131.612 179.507 C 130.291 178.507, 129.186 178.365, 127.934 179.035 C 126.950 179.562, 125.437 179.721, 124.572 179.389 C 123.708 179.058, 123 179.284, 123 179.893 C 123 180.502, 122.297 181, 121.438 181 C 119.980 181, 112.823 183.969, 105.212 187.731 C 103.404 188.624, 100.479 190.738, 98.712 192.427 C 96.946 194.117, 92.966 197.608, 89.870 200.186 C 86.548 202.952, 83.335 206.742, 82.033 209.431 C 80.820 211.938, 79.416 214.243, 78.913 214.553 C 77.813 215.233, 77.683 219, 78.759 219 C 79.177 219, 80.081 218.100, 80.768 217 C 81.455 215.900, 82.576 214.987, 83.258 214.972 C 83.941 214.957, 85.850 213.549, 87.500 211.843 C 91.163 208.057, 95.751 206, 100.534 206 C 102.512 206, 105.093 205.485, 106.268 204.857 C 107.796 204.039, 108.508 204.024, 108.769 204.806 C 109.094 205.781, 112.709 203.115, 130.406 188.850 C 140.041 181.083, 144.286 177, 142.724 177 C 141.868 177, 140.977 177.563, 140.746 178.250 C 140.413 179.238, 139.995 179.227, 138.747 178.197 C 137.409 177.093, 137.069 177.208, 136.517 178.947" stroke="none" fill="#1a1a2e" fill-rule="evenodd"/>
</svg>