<svg xmlns="http://www.w3.org/2000/svg" width="400" height="315" viewBox="0 0 400 315" version="1.1">
	<path d="M 0 81 C 0 125.550, 0.337 162.012, 0.750 162.027 C 3.780 162.136, 8.387 167.917, 6.836 169.664 C 5.940 170.674, 5.033 172.400, 4.822 173.500 C 4.569 174.817, 3.680 175.473, 2.219 175.421 C 0.017 175.342, 0 175.462, 0 191.230 C 0 201.567, 0.349 206.902, 1 206.500 C 1.550 206.160, 2 206.359, 2 206.941 C 2 207.523, 1.550 208, 1 208 C -1 208, -0.266 234.980, 1.750 235.604 C 5.237 236.681, 6.506 237.744, 6.820 239.852 C 7.231 242.621, 5.278 242.609, 2.314 239.826 L -0 237.651 -0 276.326 L 0 315 34.250 314.930 C 53.087 314.891, 67.698 314.543, 66.718 314.155 C 61.162 311.961, 59.424 304, 64.500 304 C 66.944 304, 68 303.548, 68 302.500 C 68 300.423, 70.552 300.623, 76.732 303.185 L 82.002 305.369 88.469 303.086 C 94.825 300.842, 102.015 301.548, 100.344 304.252 C 100.063 304.708, 101.024 304.781, 102.481 304.415 C 105.440 303.673, 109.961 307.168, 112.615 312.250 L 114.051 315 163.619 315 C 211.484 315, 213.204 314.935, 213.684 313.099 C 214.483 310.044, 219.312 309.586, 218.732 312.621 C 218.317 314.794, 218.611 315, 222.139 315 C 226.672 315, 227.105 313.664, 223.250 311.572 C 220.006 309.812, 220.349 309.666, 224.757 310.930 C 228.324 311.953, 228.921 311.394, 226.305 309.481 C 224.816 308.393, 224.761 307.740, 225.852 304.101 C 226.534 301.823, 226.823 299.523, 226.494 298.991 C 226.157 298.445, 226.579 298.285, 227.461 298.623 C 228.321 298.954, 229.698 298.666, 230.519 297.984 C 231.340 297.303, 233.438 296.453, 235.181 296.097 C 239.152 295.285, 239.623 293.960, 237.028 290.901 L 234.990 288.500 231.635 292.381 C 228.459 296.056, 226.230 296.171, 227.604 292.590 C 227.939 291.716, 227.774 291, 227.236 291 C 226.617 291, 226.571 289.324, 227.111 286.433 C 228.164 280.796, 228.671 279.937, 230.524 280.647 C 231.340 280.961, 232.254 280.500, 232.599 279.604 C 232.937 278.722, 233.642 278, 234.166 278 C 234.690 278, 234.840 278.450, 234.500 279 C 234.160 279.550, 234.322 280, 234.859 280 C 235.397 280, 236.458 280.238, 237.217 280.530 C 238.085 280.863, 239.433 279.574, 240.846 277.060 C 242.083 274.860, 243.636 272.735, 244.297 272.338 C 245.066 271.876, 245.018 272.210, 244.164 273.264 C 242.452 275.376, 243.463 277, 246.489 277 C 248.187 277, 248.952 277.639, 249.180 279.250 C 249.480 281.360, 249.651 281.289, 251.912 278.118 C 254.492 274.500, 253.867 271.359, 250.622 271.637 C 249.742 271.712, 249.285 271.349, 249.606 270.829 C 249.927 270.308, 251.434 270.156, 252.954 270.490 C 257.543 271.498, 261.130 260.573, 256.584 259.432 C 253.454 258.646, 251.446 260.088, 250.517 263.790 C 249.853 266.432, 249.802 266.450, 248.374 264.499 C 244.556 259.281, 251.685 251.449, 257.148 254.860 C 258.772 255.875, 259.171 255.679, 260.017 253.454 C 261.618 249.245, 261.179 247.039, 258.500 245.818 C 254.110 243.818, 255.765 238, 260.725 238 C 263.292 238, 265 234.839, 265 230.090 C 265 227.060, 262.322 224, 259.671 224 C 256.810 224, 257.628 219.401, 260.904 217.068 C 262.502 215.931, 264.302 215, 264.904 215 C 267.264 215, 265.834 213.122, 263 212.500 C 257.834 211.365, 260.200 206.275, 265.750 206.585 C 267.538 206.684, 269 206.312, 269 205.757 C 269 205.203, 270.566 206.458, 272.479 208.547 C 276.137 212.540, 275.908 215, 271.878 215 C 270.495 215, 270 215.727, 270 217.753 C 270 219.267, 269.166 223.430, 268.147 227.003 C 265.129 237.580, 264.626 242.643, 266.520 243.369 C 268.628 244.178, 274 238.349, 274 235.252 C 274 233.773, 274.819 232.639, 276.291 232.079 C 279.926 230.697, 281.504 228.312, 279.990 226.488 C 279.133 225.456, 278.356 225.289, 277.544 225.964 C 275.665 227.523, 274 225.083, 274 220.769 C 274 216.506, 276.538 214.424, 278.173 217.346 C 280.166 220.907, 282.892 219.234, 286.076 212.495 C 287.766 208.918, 289.988 205.541, 291.014 204.993 C 293.707 203.552, 294.490 205.510, 292.155 207.845 C 291.099 208.901, 290.553 210.278, 290.941 210.905 C 292.282 213.074, 290.896 218, 288.946 218 C 287.009 218, 285.394 219.727, 286.395 220.728 C 286.722 221.056, 288.680 220.816, 290.745 220.197 C 292.810 219.577, 295.472 218.812, 296.661 218.496 C 300.439 217.492, 302.228 213.665, 300.482 210.320 C 299.083 207.642, 299.122 207.483, 301.254 207.154 C 303.907 206.746, 306.170 205.084, 305.515 204.024 C 305.261 203.613, 306.053 203.381, 307.276 203.510 C 308.499 203.639, 310.561 203.802, 311.857 203.872 C 313.418 203.957, 314.036 204.465, 313.686 205.376 C 313.396 206.132, 313.719 207.832, 314.404 209.153 C 316.836 213.840, 316.969 216.234, 314.956 219.062 C 313.235 221.479, 313.194 221.860, 314.597 222.399 C 316.849 223.263, 318 222.262, 318 219.441 C 318 217.866, 318.570 217, 319.607 217 C 320.625 217, 321.003 217.550, 320.638 218.500 C 320.300 219.381, 320.625 220, 321.424 220 C 322.173 220, 323.042 220.668, 323.356 221.485 C 324.194 223.670, 320.629 225.159, 314.424 225.214 C 311.129 225.244, 308.584 225.796, 307.891 226.631 C 306.267 228.588, 305 228.321, 305 226.023 C 305 224.936, 306.148 223.294, 307.551 222.374 C 311.473 219.805, 309.264 219.056, 300.647 220.034 C 291.999 221.016, 290 222.066, 290 225.622 C 290 226.930, 289.550 228, 289 228 C 288.450 228, 288 227.472, 288 226.826 C 288 226.180, 286.870 226.713, 285.489 228.010 C 283.787 229.609, 283.350 230.598, 284.131 231.081 C 284.866 231.535, 285.092 233.487, 284.756 236.472 C 284.362 239.969, 284.589 241.289, 285.658 241.699 C 286.857 242.159, 286.819 242.542, 285.422 244.086 C 284.506 245.098, 284.028 246.631, 284.359 247.493 C 285.248 249.811, 281.180 251.399, 277.722 250.084 C 276.225 249.515, 275 248.658, 275 248.179 C 275 245.250, 264.189 247.020, 263.105 250.127 C 261.519 254.679, 261.720 255.820, 264.172 256.180 C 267.540 256.676, 267.366 258.476, 263.847 259.539 C 261.023 260.393, 260.483 261.182, 259.016 266.602 C 257.055 273.844, 253.816 279.576, 247.581 286.832 C 242.034 293.288, 241.636 294.713, 246.750 289.812 C 248.812 287.835, 251.471 285.926, 252.658 285.571 C 253.844 285.215, 255.065 284.274, 255.370 283.479 C 255.675 282.684, 256.582 282.286, 257.385 282.594 C 258.245 282.924, 259.305 282.300, 259.958 281.078 C 260.958 279.211, 260.788 278.992, 258.285 278.919 L 255.500 278.838 258.302 277.597 C 259.844 276.915, 261.959 274.952, 263.004 273.234 C 264.691 270.460, 265.291 270.173, 268.355 270.670 C 272.417 271.329, 273.369 270.089, 274.433 262.750 L 275.123 258 272.002 258 C 270.177 258, 269.138 257.585, 269.500 257 C 269.840 256.450, 273.215 256, 277 256 C 284.217 256, 288.050 257.898, 281.309 258.133 C 279.124 258.209, 280.698 258.609, 285 259.070 C 297.945 260.459, 304.950 264.797, 299.784 268.227 L 297.568 269.699 299.784 270.884 C 302.008 272.075, 302.872 275, 301 275 C 300.450 275, 300 274.656, 300 274.235 C 300 271.358, 284.858 269.034, 281.704 271.426 C 280.715 272.175, 279.140 272.621, 278.204 272.417 C 275.756 271.882, 269.587 275.193, 269.190 277.253 C 268.765 279.461, 270.893 279.529, 272.480 277.359 C 273.880 275.444, 281.011 276.229, 280.985 278.295 C 280.941 281.738, 279.341 282.344, 273.427 281.157 C 270.259 280.521, 267.442 280.225, 267.167 280.500 C 266.892 280.775, 267.192 281, 267.833 281 C 269.800 281, 269.130 284.533, 266.750 286.709 C 263.609 289.580, 258.548 292, 255.682 292 C 253.080 292, 240.012 304.785, 236.449 310.816 C 235.415 312.567, 234.242 314, 233.843 314 C 231.848 314, 232.113 311.474, 234.554 307.220 C 236.044 304.624, 238.142 300.925, 239.216 299 L 241.169 295.500 238.564 298.500 C 236.366 301.031, 230 312.927, 230 314.503 C 230 316.510, 236.873 314.638, 239.187 312 C 240.635 310.350, 242.491 309, 243.312 309 C 244.133 309, 245.275 310.350, 245.850 312 C 247.024 315.367, 251.298 316.271, 252.405 313.386 C 252.927 312.027, 253.928 311.898, 258.762 312.566 C 261.918 313.003, 265.738 313.297, 267.250 313.220 C 268.762 313.143, 270 313.567, 270 314.163 C 270 314.909, 270.388 314.926, 271.250 314.219 C 278.350 308.390, 286.009 307.286, 282.532 312.592 L 280.766 315.286 285.633 314.554 C 288.310 314.151, 292.199 313.682, 294.276 313.512 C 296.352 313.342, 298.730 312.639, 299.560 311.950 C 300.652 311.044, 301.680 310.982, 303.284 311.725 C 309.462 314.586, 311.455 315.136, 311.807 314.080 C 312.260 312.720, 316 312.649, 316 314 C 316 314.650, 329.856 315, 355.567 315 L 395.135 315 394.499 312.750 C 391.706 302.866, 389.800 299.889, 386.614 300.439 C 384.901 300.734, 384.063 300.719, 384.750 300.405 C 386.996 299.378, 386.062 297.946, 383.557 298.575 C 382.213 298.912, 380.526 298.808, 379.807 298.344 C 378.962 297.799, 380.231 297.323, 383.394 297 C 387.815 296.548, 388.315 296.242, 388.568 293.826 C 388.908 290.568, 391.913 287.360, 394.209 287.802 C 395.136 287.980, 396.819 287.632, 397.948 287.028 C 399.322 286.293, 400 286.272, 400 286.965 C 400 287.534, 399.465 288, 398.812 288 C 391.512 288, 390.047 293.620, 394.186 305.743 C 400.802 325.120, 400.473 332.597, 400.738 157.236 L 400.976 -0 200.488 -0 L 0 0 0 81 M 259.116 79.750 C 258.997 82.062, 257.012 82.994, 256.985 80.750 C 256.974 79.845, 256.729 79.880, 256.096 80.878 C 255.616 81.636, 254.693 81.928, 254.044 81.527 C 253.320 81.080, 252.655 81.604, 252.319 82.888 C 252.018 84.037, 251.393 84.743, 250.930 84.457 C 250.467 84.170, 250.327 83.163, 250.619 82.218 C 251.101 80.662, 251.044 80.667, 250.018 82.264 C 248.920 83.974, 250.314 86.770, 252.167 86.571 C 252.533 86.532, 253.208 86.950, 253.667 87.500 C 254.125 88.050, 254.109 88.184, 253.631 87.798 C 253.153 87.411, 252.150 87.708, 251.401 88.456 C 250.113 89.744, 245.015 89.802, 228 88.722 C 225.457 88.561, 224.500 88.910, 224.500 90 C 224.500 90.825, 224.251 91.725, 223.947 92 C 221.396 94.307, 218.078 99.930, 218.950 100.469 C 219.527 100.826, 220 100.566, 220 99.892 C 220 99.218, 220.271 98.938, 220.602 99.269 C 220.933 99.600, 220.531 100.831, 219.709 102.005 C 218.627 103.549, 218.067 103.775, 217.686 102.820 C 217.337 101.948, 217.131 102.093, 217.079 103.250 C 217.036 104.213, 217.450 105, 218 105 C 218.550 105, 219 105.450, 219 106 C 219 106.550, 218.325 107, 217.500 107 C 215.424 107, 215.621 108.442, 218.250 112.502 C 220.829 116.484, 222 116.916, 222 113.885 C 222 111.859, 222.105 111.839, 224.500 113.408 C 226.833 114.937, 227 114.931, 227 113.323 C 227 111.983, 227.267 111.867, 228.200 112.800 C 229.577 114.177, 233 114.422, 233 113.144 C 233 112.672, 234.238 112.285, 235.750 112.283 C 239.637 112.277, 243.231 111.245, 244.065 109.895 C 244.456 109.262, 245.239 109.030, 245.804 109.379 C 246.370 109.728, 248.107 109.507, 249.666 108.887 C 252.387 107.804, 255.852 107.019, 258.971 106.780 C 259.780 106.717, 261.291 105.875, 262.330 104.907 C 263.369 103.939, 264.845 103.387, 265.610 103.680 C 266.374 103.974, 267 103.721, 267 103.118 C 267 102.516, 268.012 102.052, 269.250 102.088 C 270.488 102.124, 273.188 101.717, 275.250 101.182 C 278.014 100.466, 279 100.521, 279 101.391 C 279 102.040, 279.911 102.571, 281.025 102.571 C 282.264 102.571, 282.858 102.072, 282.556 101.286 C 282.285 100.579, 282.499 100, 283.031 100 C 283.564 100, 284 100.450, 284 101 C 284 101.550, 285.323 102, 286.941 102 C 288.559 102, 290.134 102.408, 290.442 102.906 C 290.750 103.404, 291.948 103.565, 293.103 103.263 C 294.324 102.944, 295.558 103.285, 296.048 104.078 C 296.512 104.828, 297.177 105.157, 297.526 104.808 C 298.619 103.715, 294.964 99.152, 291.915 97.802 C 290.312 97.092, 289 95.961, 289 95.287 C 289 94.610, 288.330 94.320, 287.500 94.638 C 286.558 95, 286 94.628, 286 93.638 C 286 92.649, 285.442 92.277, 284.500 92.638 C 283.386 93.066, 282.992 92.479, 282.970 90.357 C 282.944 87.933, 282.785 87.765, 281.920 89.250 C 280.336 91.970, 279.013 91.321, 278.864 87.750 C 278.765 85.400, 278.608 85.123, 278.294 86.750 C 277.671 89.988, 275.025 89.600, 274.884 86.250 C 274.808 84.456, 274.605 84.128, 274.300 85.305 C 273.606 87.984, 271.559 86.778, 271.104 83.423 C 270.734 80.699, 270.666 80.657, 270.104 82.809 C 269.234 86.138, 267.623 85.983, 266.878 82.500 C 266.382 80.179, 266.210 80.009, 266.118 81.750 C 265.974 84.495, 264 84.783, 264 82.059 C 264 80.991, 263.550 79.840, 263 79.500 C 262.446 79.158, 262 79.890, 262 81.141 C 262 83.725, 260.464 82.623, 259.713 79.500 C 259.278 77.693, 259.221 77.717, 259.116 79.750 M 194.230 82.666 C 192.971 84.079, 189.828 85.754, 187.067 86.482 C 184.361 87.196, 180.756 88.474, 179.057 89.322 C 177.133 90.282, 176.226 90.418, 176.655 89.682 C 177.034 89.032, 176.289 89.400, 175 90.500 C 173.711 91.600, 173.015 91.889, 173.453 91.143 C 174.092 90.055, 173.581 89.940, 170.875 90.565 C 163.339 92.303, 151.091 90.800, 153.097 88.383 C 154.517 86.673, 154.333 86.673, 147.799 88.401 C 128.195 93.585, 118.215 98.426, 107 108.191 C 102.325 112.262, 91.750 120.712, 83.500 126.969 C 37.595 161.788, 30.906 171.722, 50.500 175.980 C 53.037 176.532, 53.468 177.065, 53.295 179.438 C 53.005 183.416, 52.376 183.654, 48.919 181.098 C 47.238 179.856, 45.219 179.086, 44.431 179.388 C 42.141 180.267, 42.695 184.540, 45.250 185.706 C 46.487 186.272, 49.418 188.338, 51.763 190.299 C 54.815 192.851, 57.656 194.172, 61.763 194.950 C 69.325 196.383, 71.108 196.940, 87.103 202.876 C 104.776 209.434, 115.242 212.434, 133 216.031 C 140.975 217.647, 152.823 220.098, 159.328 221.479 C 165.834 222.860, 172.359 224.239, 173.828 224.545 C 175.769 224.949, 197.133 227.777, 199.773 227.979 C 199.923 227.991, 199.323 229.103, 198.440 230.451 C 196.379 233.596, 197.321 236.761, 200.274 236.612 C 201.527 236.549, 202.508 235.844, 202.519 234.999 C 202.571 230.942, 205.615 229.052, 216.580 226.270 C 227.830 223.416, 229.946 221.779, 225.345 219.485 C 223.261 218.446, 223.613 215.696, 226.047 214 C 227.275 213.145, 230.060 203.907, 229.408 202.852 C 229.069 202.302, 229.814 200.762, 231.066 199.430 C 233.360 196.988, 233.304 196.042, 230.842 195.620 C 230.104 195.494, 227.475 194.479, 225 193.365 C 222.525 192.250, 219.244 191.024, 217.709 190.640 C 216.174 190.256, 215.169 189.536, 215.475 189.040 C 215.782 188.544, 215.525 187.824, 214.905 187.441 C 214.284 187.058, 213.474 187.233, 213.104 187.832 C 212.666 188.541, 211.400 188.090, 209.466 186.534 C 207.083 184.618, 206.746 183.899, 207.750 182.875 C 208.437 182.174, 208.986 180.902, 208.968 180.050 C 208.941 178.746, 208.726 178.777, 207.608 180.250 C 205.944 182.441, 205.806 182.434, 203 180 C 201.732 178.900, 200.227 178, 199.656 178 C 199.085 178, 199.491 178.661, 200.559 179.468 C 201.626 180.276, 202.007 180.951, 201.405 180.968 C 199.993 181.009, 197 177.710, 197 176.112 C 197 175.436, 196.547 175.162, 195.992 175.505 C 194.877 176.194, 192 173.741, 192 172.101 C 192 171.475, 190.502 171.257, 188.250 171.556 C 185.173 171.964, 183.513 171.420, 179 168.526 C 166.114 160.260, 162.705 159.822, 158.276 165.863 C 154.788 170.619, 154.860 179.004, 158.450 186.200 C 159.307 187.919, 159.801 189.532, 159.547 189.786 C 158.281 191.052, 155.738 188.539, 153.967 184.271 C 152.878 181.647, 151.375 178.375, 150.627 177 C 149.878 175.625, 148.266 171.356, 147.043 167.513 C 145.821 163.670, 143.512 157.888, 141.912 154.664 C 140.313 151.440, 139.298 148.328, 139.656 147.747 C 140.043 147.122, 139.830 146.987, 139.136 147.416 C 137.729 148.285, 134.973 142.375, 135.702 140.052 C 136.105 138.768, 136.016 138.743, 135.188 139.907 C 134.414 140.996, 133.505 139.963, 131.175 135.347 C 129.519 132.066, 127.365 128.732, 126.390 127.940 C 125.203 126.977, 124.871 126.924, 125.387 127.783 C 126.342 129.372, 127.991 135, 127.502 135 C 127.304 135, 126.355 134.213, 125.393 133.250 C 124.430 132.287, 123.194 131.500, 122.645 131.500 C 122.096 131.500, 121.026 129.980, 120.268 128.122 C 119.030 125.088, 119.054 124.807, 120.497 125.360 C 121.430 125.719, 121.848 125.563, 121.493 124.989 C 121.157 124.445, 120.234 124, 119.441 124 C 118.648 124, 118 123.619, 118 123.153 C 118 122.687, 117.047 121.225, 115.882 119.903 C 114.718 118.581, 113.314 116.235, 112.763 114.689 C 112.212 113.143, 111.225 112.083, 110.569 112.335 C 109.762 112.645, 109.514 111.860, 109.800 109.907 C 110.046 108.232, 110.662 107.291, 111.267 107.665 C 111.851 108.026, 112.013 107.829, 111.634 107.216 C 110.540 105.447, 119.540 99.323, 128.066 96.035 C 140.095 91.396, 140 91.351, 140 101.606 L 140 110.212 137.246 107.263 C 133.734 103.503, 128.382 102.396, 123.528 104.424 C 121.561 105.246, 119.287 105.664, 118.475 105.352 C 117.664 105.041, 117 105.311, 117 105.952 C 117 106.593, 117.465 106.830, 118.034 106.479 C 118.603 106.128, 118.154 107.338, 117.038 109.170 C 114.884 112.703, 114.333 115.530, 116 114.500 C 116.550 114.160, 117 114.809, 117 115.941 C 117 117.073, 117.439 118, 117.975 118 C 118.609 118, 118.609 117.102, 117.975 115.435 C 116.672 112.008, 116.733 111.684, 118.552 112.382 C 119.406 112.709, 119.858 112.579, 119.557 112.091 C 119.255 111.604, 122.830 110.637, 127.499 109.943 C 138.465 108.311, 139.521 109.060, 140.230 118.969 C 140.620 124.422, 141.590 127.617, 144.862 134.221 C 147.138 138.815, 149.007 143.458, 149.015 144.537 C 149.024 145.617, 149.467 147.175, 150 148 C 150.700 149.083, 150.974 148.165, 150.985 144.691 C 150.994 141.773, 151.390 140.123, 151.991 140.494 C 152.536 140.831, 153.744 139.508, 154.676 137.553 C 155.608 135.599, 156.895 134, 157.537 134 C 158.841 134, 163.754 129.538, 166.470 125.888 C 167.949 123.900, 168.140 123.835, 167.610 125.500 C 167.089 127.139, 167.323 127.054, 168.909 125.028 C 169.973 123.668, 170.588 122.093, 170.275 121.528 C 169.962 120.963, 170.313 121.063, 171.053 121.750 C 171.794 122.438, 172.873 122.993, 173.450 122.985 C 174.028 122.976, 173.825 122.533, 173 122 C 172 121.354, 171.917 121.026, 172.750 121.015 C 173.438 121.007, 174 120.325, 174 119.500 C 174 118.675, 174.873 118, 175.941 118 C 177.009 118, 178.165 117.543, 178.510 116.984 C 178.856 116.425, 179.557 116.226, 180.069 116.543 C 180.581 116.859, 181 116.667, 181 116.116 C 181 115.566, 181.900 115.288, 183 115.500 C 184.446 115.778, 185 115.347, 185 113.943 C 185 112.874, 185.338 112.053, 185.750 112.118 C 187.813 112.444, 189 111.853, 189 110.500 C 189 109.675, 189.675 109, 190.500 109 C 191.325 109, 192 108.277, 192 107.394 C 192 106.511, 193.098 104.924, 194.441 103.868 C 195.783 102.812, 197.181 101.004, 197.548 99.850 C 198.176 97.869, 203.963 92.087, 206.405 91 C 209.176 89.766, 214 85.499, 214 84.281 C 214 83.542, 214.675 82.678, 215.500 82.362 C 219.286 80.909, 216.208 80, 207.500 80 C 200.575 80, 197.996 80.339, 197.985 81.250 C 197.973 82.185, 197.781 82.203, 197.221 81.324 C 196.702 80.507, 195.788 80.917, 194.230 82.666 M 332.055 96.681 C 327.134 110.061, 326.492 111.245, 322.823 113.704 C 318.275 116.753, 306.210 115.503, 300.018 111.340 C 296.048 108.672, 290.439 108.096, 291.342 110.449 C 291.689 111.353, 291.417 111.714, 290.622 111.408 C 289.919 111.139, 288.030 111.455, 286.422 112.110 C 284.815 112.766, 282.445 113.197, 281.156 113.067 C 279.125 112.864, 278.911 113.143, 279.550 115.158 C 280.187 117.165, 280.079 117.310, 278.761 116.217 C 277.506 115.175, 277.124 115.234, 276.622 116.543 C 276.232 117.560, 275.335 117.924, 274.146 117.546 C 273.064 117.203, 271.748 117.599, 271.009 118.490 C 270.039 119.658, 269.408 119.754, 268.367 118.890 C 267.315 118.017, 267 118.097, 267 119.239 C 267 120.282, 266.258 120.581, 264.500 120.245 C 262.972 119.953, 262 120.227, 262 120.951 C 262 121.655, 261.237 121.893, 260.118 121.538 C 258.931 121.161, 258.020 121.505, 257.650 122.470 C 257.327 123.312, 256.342 124, 255.460 124 C 253.575 124, 251.675 125.742, 250.671 128.391 C 250.067 129.985, 250.190 130.087, 251.451 129.041 C 252.753 127.960, 252.744 128.396, 251.380 132.400 C 250.517 134.930, 249.418 137, 248.937 137 C 248.456 137, 248.322 137.675, 248.638 138.500 C 248.955 139.325, 248.801 140, 248.296 140 C 247.044 140, 243 136.152, 243 134.961 C 243 134.432, 242.276 134, 241.392 134 C 239.118 134, 240.464 138.924, 243.292 140.955 C 249.184 145.186, 256 148.751, 260.500 149.956 C 263.250 150.692, 265.928 151.679, 266.450 152.147 C 266.973 152.616, 268.633 153, 270.141 153 C 271.649 153, 273.136 153.411, 273.446 153.913 C 275.064 156.530, 292.376 156.887, 297.187 154.402 C 300.762 152.555, 302.048 150.493, 299.153 151.250 C 297.846 151.592, 296.115 151.104, 294.770 150.015 L 292.548 148.216 296.274 146.659 C 299.611 145.265, 300.495 144.135, 300.118 141.750 C 300.053 141.338, 300.450 141, 301 141 C 301.920 141, 302.408 142.417, 302.118 144.250 C 301.744 146.624, 304.154 144.482, 304.650 142 C 305.373 138.387, 306.563 138.124, 307.384 141.395 C 307.950 143.650, 308.235 143.736, 312.243 142.861 C 318.752 141.441, 323 139.931, 323 139.039 C 323 138.068, 317.831 138.368, 316.098 139.439 C 315.421 139.858, 314.601 139.934, 314.275 139.609 C 313.950 139.284, 313.100 139.502, 312.386 140.095 C 310.501 141.659, 308.572 140.221, 310.094 138.387 C 311.853 136.268, 310.702 135.745, 304.801 135.982 C 301.886 136.099, 298.060 136.231, 296.300 136.274 C 294.541 136.318, 293.330 136.724, 293.609 137.177 C 293.889 137.630, 293.443 138, 292.618 138 C 288.788 138, 289.493 134.955, 293.465 134.342 C 294.856 134.127, 297.120 133.726, 298.495 133.451 C 299.870 133.176, 302.161 132.772, 303.586 132.554 C 306.873 132.050, 307.659 131.259, 306.263 129.863 C 305.462 129.062, 303.477 129.055, 299.046 129.835 C 295.684 130.427, 292.274 130.658, 291.467 130.349 C 290.660 130.039, 290 130.284, 290 130.893 C 290 132.196, 286.362 132.394, 285.583 131.134 C 285.288 130.657, 285.892 129.503, 286.924 128.569 C 288.238 127.380, 289.011 127.209, 289.500 128 C 289.990 128.793, 290.747 128.634, 292.036 127.467 C 293.047 126.552, 294.352 126.100, 294.937 126.461 C 295.522 126.822, 296.563 126.756, 297.250 126.313 C 297.938 125.870, 300.525 125.393, 303 125.253 C 310.945 124.802, 318.386 123.341, 318.782 122.154 C 319.274 120.679, 322 120.639, 322 122.107 C 322 122.730, 322.730 122.934, 323.670 122.573 C 324.589 122.220, 325.713 122.510, 326.170 123.216 C 327.562 125.369, 329.135 121.970, 328.584 118 C 328.080 114.371, 330.204 109.902, 331.463 111.940 C 331.823 112.523, 331.817 113.487, 331.450 114.081 C 331.082 114.676, 332.040 116.476, 333.578 118.081 C 336.368 120.993, 338.536 121.785, 339.167 120.122 C 339.357 119.620, 340.493 119.616, 341.814 120.113 C 343.331 120.683, 343.858 121.417, 343.342 122.242 C 342.910 122.934, 342.465 124.104, 342.353 124.842 C 342.081 126.641, 341 127.653, 341 126.108 C 341 125.434, 340.554 125.157, 340.010 125.494 C 338.433 126.468, 341.191 128.763, 343.282 128.216 C 344.580 127.877, 345.042 126.963, 344.848 125.117 C 344.498 121.780, 345.525 120.153, 348.847 118.781 C 350.971 117.904, 351.151 117.602, 349.750 117.269 C 348.788 117.041, 348 116.185, 348 115.368 C 348 114.551, 347.550 114.160, 347 114.500 C 346.450 114.840, 346 114.845, 346 114.511 C 346 113.402, 351.477 109.064, 352.917 109.032 C 353.696 109.014, 354.029 108.696, 353.658 108.324 C 353.286 107.952, 353.998 106.523, 355.241 105.147 C 357.386 102.772, 357.213 102.805, 351.798 105.805 C 345.156 109.484, 343.658 108.598, 348.055 103.590 C 351.342 99.846, 351.314 97.227, 348.005 98.997 C 345.668 100.248, 343.697 100.299, 344.444 99.090 C 345.911 96.716, 343.822 94.852, 341.772 96.706 C 339.846 98.449, 339.797 98.429, 340.006 95.999 C 340.436 91.008, 340.569 90.959, 334.750 97.927 C 333.788 99.080, 333 100.543, 333 101.178 C 333 101.813, 332.724 102.058, 332.388 101.721 C 332.051 101.384, 332.499 98.983, 333.385 96.385 C 335.716 89.544, 334.588 89.795, 332.055 96.681 M 341.513 185.575 C 339.578 187.369, 338.051 187.979, 336.482 187.585 C 333.299 186.786, 331.794 189.105, 332.114 194.313 C 332.457 199.884, 327.133 207, 322.623 207 C 318.920 207, 318.043 209.770, 321.032 212.024 C 322.322 212.997, 324.041 213.538, 324.852 213.226 C 325.807 212.860, 326.073 213.073, 325.605 213.830 C 324.611 215.439, 326.212 215.299, 328.559 213.571 C 330.364 212.243, 330.378 212.096, 328.756 211.467 C 327.796 211.095, 327.261 210.386, 327.566 209.893 C 327.884 209.379, 328.986 209.457, 330.139 210.074 C 333.341 211.788, 334.673 210.639, 334.199 206.575 C 333.849 203.582, 333.526 203.148, 332.363 204.114 C 331.587 204.758, 330.723 205.057, 330.445 204.778 C 329.138 203.472, 335.751 200.665, 339.658 200.867 C 342.778 201.029, 344.106 200.633, 344.839 199.324 C 345.576 198.007, 346.841 197.636, 349.855 197.854 C 352.727 198.061, 354.708 197.536, 356.747 196.029 C 360.216 193.464, 362.255 194.073, 364.833 198.441 C 365.891 200.235, 367.616 201.928, 368.666 202.202 C 373.077 203.356, 377.954 198.986, 374.912 196.605 C 370.596 193.227, 372.634 192.441, 386.006 192.325 C 397.658 192.223, 401.400 192.865, 397.750 194.338 C 397.003 194.639, 397.205 194.874, 398.250 194.921 C 399.667 194.985, 400 194.151, 400 190.531 C 400 187.128, 399.669 186.190, 398.611 186.596 C 397.765 186.921, 397.434 187.944, 397.766 189.212 C 398.274 191.155, 397.995 191.260, 393.606 190.765 C 387.564 190.084, 387.141 189.556, 390.079 186.356 L 392.500 183.721 388.467 186.350 C 386.069 187.913, 382.420 189.189, 379.467 189.498 C 374.614 190.006, 374.568 189.986, 377.461 188.622 L 380.422 187.227 376.961 185.117 C 372.724 182.534, 371.766 182.496, 369.655 184.829 C 367.302 187.429, 367.574 188, 371.167 188 C 376.663 188, 373.770 188.830, 366.491 189.342 C 362.646 189.612, 358.667 190.161, 357.649 190.562 C 356.518 191.008, 355.490 190.793, 355.007 190.011 C 354.418 189.058, 353.922 189.277, 353.072 190.865 C 350.551 195.577, 343.996 192.449, 344.742 186.890 C 345.358 182.293, 345.148 182.207, 341.513 185.575" stroke="none" fill="#1a1a2e" fill-rule="evenodd"/>
</svg>