<svg xmlns="http://www.w3.org/2000/svg" width="400" height="267" viewBox="0 0 400 267" version="1.1">
	<path d="M 379.775 90.243 C 377.111 93.127, 371.643 100.439, 367.625 106.493 C 358.533 120.192, 358.065 121.017, 360.694 118.716 C 362.684 116.975, 362.726 116.995, 362.445 119.554 C 362.286 120.997, 361.825 122.474, 361.419 122.838 C 361.013 123.202, 360.988 122.649, 361.364 121.609 C 361.942 120.004, 361.815 119.909, 360.523 120.981 C 359.685 121.676, 359 121.857, 359 121.383 C 359 120.908, 357.862 121.748, 356.470 123.249 C 353.211 126.763, 351.382 127.134, 340.500 126.483 C 335.550 126.186, 328.800 125.819, 325.500 125.666 C 322.200 125.513, 318.551 124.869, 317.391 124.234 C 316.217 123.592, 313.684 123.339, 311.680 123.664 C 309.404 124.034, 306.559 123.641, 303.949 122.596 C 301.381 121.569, 298.588 121.174, 296.568 121.553 C 294.781 121.888, 291.334 121.588, 288.909 120.885 C 286.484 120.183, 282.913 119.725, 280.974 119.868 C 279.034 120.011, 275.261 119.386, 272.588 118.478 C 269.593 117.462, 266.442 117.070, 264.378 117.457 C 262.398 117.828, 260.102 117.576, 258.764 116.839 C 257.446 116.114, 253.783 115.697, 250 115.841 C 245.297 116.021, 243.915 115.805, 245 115.060 C 246.153 114.269, 246.188 114.027, 245.151 114.015 C 240.189 113.959, 233 108.582, 233 104.928 C 233 103.409, 232.662 101.978, 232.250 101.747 C 231.838 101.517, 232.058 101.463, 232.740 101.629 C 234.172 101.976, 235.491 97.722, 234.639 95.502 C 233.395 92.259, 226.265 97.195, 218.690 106.545 C 215.652 110.296, 213.243 112.385, 212.183 112.191 C 211.257 112.020, 208.792 111.856, 206.705 111.826 C 204.322 111.791, 203.060 111.348, 203.313 110.635 C 203.534 110.011, 204.470 109.565, 205.393 109.645 C 206.718 109.759, 206.827 109.497, 205.913 108.395 C 204.309 106.462, 203.246 106.651, 202.500 109 C 202.151 110.100, 201.435 111, 200.910 111 C 200.384 111, 200.661 109.921, 201.525 108.602 C 203.028 106.308, 202.966 106.112, 200.083 104.059 C 197.278 102.062, 190.452 100.305, 191.390 101.821 C 191.987 102.788, 187.220 108.554, 186.456 107.790 C 186.108 107.442, 186.844 105.777, 188.091 104.091 C 189.338 102.404, 190.088 100.755, 189.759 100.425 C 189.429 100.096, 188.111 101.662, 186.830 103.905 C 184.069 108.739, 181.024 109.788, 183.467 105.063 C 184.302 103.448, 185.439 101.847, 185.993 101.504 C 187.601 100.510, 187.159 99.323, 185.232 99.464 C 182.504 99.665, 181.386 100.667, 179.536 104.565 C 178.597 106.544, 177.626 107.959, 177.377 107.710 C 176.771 107.104, 179.026 101.932, 180.848 99.750 C 181.783 98.631, 181.899 98, 181.172 98 C 180.546 98, 178.916 100.206, 177.550 102.901 C 175.101 107.735, 175.004 107.800, 170.532 107.651 C 168.038 107.568, 165.809 107.950, 165.578 108.500 C 165.347 109.050, 165.122 108.882, 165.079 108.128 C 165.015 107.022, 164.709 106.997, 163.500 108 C 162.675 108.685, 162 108.836, 162 108.336 C 162 107.827, 159.355 107.679, 156 108 C 152.645 108.321, 150 108.173, 150 107.664 C 150 107.164, 149.369 107.279, 148.597 107.919 C 147.520 108.813, 147.074 108.784, 146.673 107.792 C 146.268 106.786, 145.918 106.832, 145.091 108 C 144.253 109.186, 144.027 109.213, 144.015 108.128 C 144.005 107.196, 143.598 107.057, 142.750 107.694 C 142.063 108.210, 134.864 108.603, 126.753 108.566 C 117.770 108.526, 111.862 108.891, 111.640 109.500 C 111.438 110.050, 110.961 110.211, 110.578 109.858 C 109.846 109.182, 112.487 102, 113.468 102 C 113.782 102, 113.770 103.237, 113.442 104.750 L 112.846 107.500 114.201 105.002 C 115.487 102.634, 118.851 101.628, 120.060 103.251 C 120.368 103.665, 121.605 103.085, 122.810 101.962 L 125 99.922 125.045 102.211 C 125.086 104.272, 125.227 104.201, 126.464 101.500 C 127.814 98.552, 127.840 98.543, 127.954 101 C 128.066 103.400, 128.119 103.420, 129.285 101.500 C 130.783 99.035, 133.994 98.601, 134.015 100.861 C 134.029 102.286, 134.159 102.304, 135.015 101 C 135.830 99.759, 136.151 99.733, 136.873 100.853 C 138.011 102.618, 142 100.659, 142 98.335 C 142 95.353, 105.932 99.034, 103.790 102.235 C 103.324 102.931, 103.168 105.525, 103.443 108 C 103.718 110.475, 103.695 111.942, 103.391 111.259 C 102.971 110.314, 102.484 110.373, 101.348 111.509 C 100.528 112.329, 98.441 113, 96.710 113 C 92.782 113, 58.949 119.832, 37 125.058 C 27.925 127.219, 19.488 129.223, 18.250 129.512 C 15.100 130.248, 15.439 131.984, 18.750 132.077 C 20.262 132.119, 23.300 132.730, 25.500 133.435 L 29.500 134.717 22.097 134.811 C 14.161 134.912, 11.418 136.083, 14.833 137.911 C 17.609 139.396, 35.008 144.012, 37.500 143.924 C 38.600 143.886, 34.486 142.586, 28.357 141.036 C 12.742 137.089, 11.041 135.736, 22.500 136.382 C 31.895 136.911, 45.600 139.557, 47.750 141.257 C 48.438 141.800, 49 141.958, 49 141.608 C 49 140.418, 42.746 137.160, 41.431 137.665 C 40.711 137.941, 37.355 136.925, 33.973 135.408 L 27.824 132.648 30.436 131.280 C 31.872 130.527, 33.506 130.195, 34.068 130.542 C 34.629 130.888, 35.743 130.628, 36.544 129.964 C 37.617 129.073, 38 129.059, 38 129.913 C 38 130.780, 38.528 130.788, 40.107 129.943 C 41.706 129.087, 42.490 129.114, 43.357 130.054 C 44.240 131.011, 44.158 131.102, 43 130.455 C 41.737 129.749, 41.704 129.868, 42.791 131.210 C 46.069 135.257, 54.892 133.387, 53.482 128.944 C 53.044 127.563, 53.336 127, 54.492 127 C 55.479 127, 55.834 127.460, 55.395 128.170 C 54.879 129.004, 55.221 129.096, 56.586 128.490 C 57.639 128.023, 61.425 127.343, 65 126.978 C 68.575 126.613, 71.050 126.237, 70.500 126.142 C 68.528 125.802, 72.559 124.030, 75.340 124.015 C 78.659 123.997, 81.852 127.295, 82.103 131 C 82.270 133.469, 82.278 133.471, 82.717 131.168 C 82.971 129.831, 82.438 128.036, 81.468 126.965 C 79.645 124.950, 79.423 125.081, 87.249 123.534 C 88.211 123.343, 89.231 123.564, 89.515 124.024 C 90.530 125.667, 95.490 124.341, 96.487 122.160 C 97.725 119.451, 98.680 119.417, 99.517 122.053 C 100.016 123.624, 100.479 123.847, 101.495 123.004 C 102.368 122.280, 103.035 122.247, 103.443 122.908 C 103.785 123.460, 104.770 123.642, 105.633 123.311 C 106.496 122.979, 107.557 123.283, 107.991 123.985 C 108.495 124.802, 109.022 123.832, 109.450 121.298 C 109.852 118.914, 110.671 117.333, 111.501 117.333 C 112.501 117.333, 112.719 118.157, 112.287 120.313 C 111.713 123.184, 111.797 123.266, 114.596 122.561 C 116.193 122.159, 118.962 121.868, 120.750 121.914 C 123.250 121.979, 124 121.581, 124 120.191 C 124 119.196, 124.590 117.575, 125.311 116.589 C 126.465 115.012, 126.572 115.229, 126.202 118.398 C 125.748 122.286, 126.072 122.567, 129.130 120.931 C 130.600 120.144, 131.527 120.193, 132.640 121.116 C 134.237 122.442, 135.951 120.990, 135.985 118.281 C 135.994 117.539, 136.684 117.319, 137.750 117.719 C 139.310 118.303, 139.344 118.183, 138.064 116.611 C 136.677 114.907, 138.433 112.100, 139.942 113.609 C 140.217 113.884, 139.780 114.527, 138.971 115.039 C 137.945 115.688, 137.884 115.974, 138.769 115.985 C 139.622 115.995, 139.832 116.820, 139.411 118.500 C 138.668 121.461, 140.403 121.851, 143.171 119.345 C 144.265 118.355, 145 118.154, 145 118.845 C 145 121.938, 149.004 119.900, 149.116 116.750 C 149.187 114.763, 149.404 114.277, 149.675 115.500 C 150.714 120.196, 150.962 120.466, 152.674 118.755 C 153.955 117.473, 154.652 117.388, 156.168 118.327 C 157.534 119.174, 158.261 119.194, 158.781 118.400 C 160.609 115.604, 163.849 114.915, 164.181 117.252 C 164.578 120.050, 169.655 121.063, 170.624 118.538 C 171.178 117.094, 171.355 117.103, 172.466 118.623 C 173.602 120.176, 173.861 120.139, 175.848 118.152 C 177.884 116.116, 178 116.103, 178 117.913 C 178 119.946, 183.346 119.949, 185.450 117.917 C 186.728 116.684, 188.275 116.746, 187.500 118 C 187.160 118.550, 187.696 119.033, 188.691 119.074 C 189.686 119.115, 191.468 119.331, 192.651 119.553 C 193.924 119.792, 195.034 119.354, 195.370 118.479 C 196.520 115.483, 199.687 118.961, 199.031 122.500 C 198.929 123.050, 200.142 122.263, 201.728 120.750 C 204.984 117.643, 206.227 117.246, 205.323 119.601 C 204.490 121.772, 206.813 123.022, 209.667 121.937 C 211.200 121.354, 212 121.412, 212 122.108 C 212 122.690, 212.563 122.965, 213.250 122.718 C 213.938 122.472, 215.224 122.641, 216.108 123.094 C 217.309 123.710, 218.029 123.232, 218.953 121.209 L 220.190 118.500 221.345 121.084 C 222.133 122.847, 223.294 123.677, 225 123.699 C 226.375 123.717, 228.625 124.187, 230 124.744 C 232.086 125.589, 232.683 125.424, 233.607 123.744 C 234.353 122.388, 234.947 122.106, 235.427 122.881 C 235.818 123.514, 236.525 123.794, 236.997 123.502 C 237.469 123.210, 238.109 123.767, 238.417 124.739 C 238.878 126.192, 239.963 126.464, 244.489 126.260 C 247.763 126.112, 250 126.429, 250 127.041 C 250 127.698, 250.634 127.744, 251.750 127.170 C 252.713 126.675, 254.063 126.472, 254.750 126.718 C 255.438 126.965, 256 126.690, 256 126.108 C 256 125.390, 256.810 125.358, 258.518 126.007 C 260.498 126.760, 261.428 126.572, 262.870 125.130 C 264.619 123.381, 264.755 123.378, 265.809 125.066 C 266.515 126.196, 267.653 126.642, 268.957 126.301 C 270.271 125.957, 271.012 126.254, 271.033 127.133 C 271.054 127.991, 271.765 127.663, 272.944 126.250 C 273.976 125.013, 275.086 124, 275.410 124 C 275.735 124, 276.036 125.013, 276.079 126.250 C 276.122 127.487, 276.386 127.935, 276.664 127.244 C 276.943 126.553, 277.572 126.235, 278.062 126.538 C 280.869 128.273, 285.055 127.745, 286.880 125.425 C 289.343 122.295, 290.851 122.328, 290.245 125.500 C 289.798 127.839, 290.032 128, 293.883 128 C 297.129 128, 298.005 127.630, 298.022 126.250 C 298.041 124.738, 298.280 124.795, 299.772 126.663 C 301.658 129.025, 309.752 129.432, 309.250 127.141 C 309.112 126.513, 309.702 126, 310.559 126 C 311.416 126, 311.838 126.453, 311.496 127.007 C 310.826 128.090, 312.855 129.140, 316.338 129.513 C 317.527 129.641, 318.500 129.828, 318.500 129.930 C 318.500 130.135, 326.641 131.155, 329 131.245 C 329.825 131.277, 330.803 131.768, 331.174 132.337 C 331.635 133.045, 332.266 133.033, 333.174 132.298 C 338.686 127.836, 366.500 128.747, 366.500 133.389 L 366.500 136.251 360 136.170 C 341.378 135.940, 332.605 136.061, 332.109 136.558 C 331.045 137.622, 334.522 139.018, 336.500 138.320 C 339.559 137.241, 349.708 137.636, 352.901 138.959 C 355.011 139.833, 357.368 142.996, 362.025 151.202 C 382.573 187.408, 394.366 193.503, 378.077 159.497 C 374.734 152.520, 372 146.265, 372 145.597 C 372 144.929, 371.408 143.572, 370.684 142.582 C 368.918 140.168, 369.532 126.875, 371.629 122.103 C 372.500 120.121, 375.158 114.450, 377.536 109.500 C 388.657 86.351, 389.418 79.810, 379.775 90.243" stroke="none" fill="#1a1a2e" fill-rule="evenodd"/>
</svg>