<svg xmlns="http://www.w3.org/2000/svg" width="400" height="200" viewBox="0 0 400 200" version="1.1">
	<path d="M 198.418 23.132 C 198.088 23.667, 197.295 23.916, 196.658 23.683 C 196.021 23.451, 194.740 23.922, 193.811 24.730 C 192.882 25.539, 190.519 26.200, 188.561 26.200 C 186.602 26.200, 185 26.605, 185 27.100 C 185 27.595, 184.277 28, 183.393 28 C 182.375 28, 181.997 27.450, 182.362 26.500 C 182.678 25.675, 182.549 25, 182.076 25 C 181.602 25, 180.917 25.775, 180.553 26.722 C 180.168 27.726, 179.602 28.030, 179.196 27.452 C 178.202 26.035, 173.313 24.020, 172.600 24.734 C 171.494 25.839, 171.985 27, 173.559 27 C 174.416 27, 174.900 27.352, 174.634 27.782 C 174.369 28.213, 175.804 29.671, 177.825 31.023 C 184.230 35.309, 184.558 36.804, 179.024 36.492 C 176.837 36.369, 175.288 36.657, 175.583 37.134 C 176.236 38.190, 175.161 38.143, 172.500 37 C 170.611 36.188, 170.628 36.137, 172.809 36.070 C 174.079 36.032, 174.843 35.555, 174.507 35.011 C 174.162 34.453, 174.545 34.272, 175.387 34.595 C 176.207 34.910, 177.693 34.693, 178.689 34.114 C 180.285 33.186, 180.302 33.057, 178.833 33.030 C 177.917 33.014, 176.940 32.438, 176.662 31.750 C 176.259 30.750, 176.142 30.750, 176.079 31.750 C 176.036 32.438, 175.502 33, 174.893 33 C 174.284 33, 174.064 32.275, 174.404 31.389 C 175.182 29.363, 170.120 30.303, 168.431 32.499 C 167.367 33.881, 162.846 32.987, 159.250 30.683 C 158.420 30.151, 158 30.473, 158 31.641 C 158 32.941, 157.707 33.107, 156.878 32.278 C 156.261 31.661, 155.131 31.396, 154.367 31.689 C 153.411 32.056, 153.170 31.719, 153.596 30.611 C 154.477 28.315, 153.156 28.620, 150.834 31.250 C 149.742 32.487, 149.085 33.017, 149.374 32.426 C 149.719 31.722, 148.305 31.442, 145.268 31.613 C 142.720 31.757, 139.858 31.459, 138.908 30.951 C 137.564 30.232, 137.236 30.404, 137.430 31.726 C 137.697 33.546, 142.902 36.175, 144.405 35.249 C 144.902 34.942, 145.012 35.172, 144.648 35.760 C 144.285 36.348, 144.553 37.040, 145.244 37.299 C 145.935 37.557, 144.292 37.708, 141.594 37.634 C 138.003 37.536, 136.575 37.902, 136.267 39 C 135.954 40.121, 136.073 40.182, 136.740 39.238 C 137.672 37.920, 142.122 38.826, 146.500 41.225 C 148.292 42.207, 148.357 42.148, 147.128 40.661 C 145.950 39.236, 145.977 39, 147.319 39 C 148.178 39, 149.160 39.450, 149.500 40 C 149.840 40.550, 150.879 40.986, 151.809 40.968 C 153.288 40.940, 153.257 40.753, 151.559 39.468 C 149.806 38.143, 149.788 38, 151.368 38 C 152.330 38, 152.866 37.592, 152.558 37.093 C 152.249 36.595, 152.936 36.432, 154.083 36.732 C 155.673 37.148, 155.851 37.481, 154.835 38.132 C 154.057 38.630, 155.429 38.731, 158.118 38.375 C 161.069 37.985, 162.986 38.168, 163.427 38.882 C 163.881 39.616, 163.027 40, 160.937 40 C 158.341 40, 157.967 40.255, 158.903 41.383 C 160.132 42.863, 158.531 44, 155.218 44 C 153.960 44, 153.867 43.733, 154.800 42.800 C 157.165 40.435, 155.947 39.701, 153.489 42.010 C 151.623 43.764, 151.302 44.574, 152.239 45.169 C 153.048 45.682, 152.513 45.975, 150.750 45.985 C 147.955 46, 146.973 44.525, 149.250 43.731 C 149.938 43.491, 147.464 43.377, 143.754 43.477 C 137.777 43.638, 132.430 45, 137.774 45 C 138.934 45, 140.160 45.450, 140.500 46 C 140.840 46.550, 140.641 47, 140.059 47 C 139.477 47, 139 47.702, 139 48.559 C 139 49.416, 139.450 49.840, 140 49.500 C 140.550 49.160, 141 49.359, 141 49.941 C 141 51.267, 140.377 51.272, 137.934 49.965 C 136.754 49.333, 136 49.303, 136 49.888 C 136 50.415, 134.622 50.159, 132.938 49.319 C 131.253 48.479, 129.614 48.053, 129.295 48.372 C 128.975 48.692, 129.566 49.224, 130.607 49.555 C 131.648 49.886, 133.751 50.830, 135.280 51.653 C 136.813 52.478, 139.866 53.018, 142.087 52.858 C 144.622 52.675, 146.417 53.057, 146.932 53.890 C 147.505 54.817, 147.955 54.882, 148.434 54.107 C 148.810 53.498, 148.754 52.986, 148.309 52.970 C 147.864 52.953, 148.294 52.477, 149.264 51.912 C 150.564 51.155, 151.418 51.276, 152.514 52.371 C 154.475 54.332, 154.402 55.368, 152.359 54.584 C 150.925 54.034, 150.893 54.169, 152.109 55.651 C 153.355 57.170, 153.266 57.286, 151.251 56.767 C 148.915 56.165, 147.009 57.743, 148.721 58.862 C 150.172 59.810, 149.874 63, 148.333 63 C 147.600 63, 147 63.391, 147 63.868 C 147 65.407, 130.077 67.377, 129 65.964 C 128.195 64.907, 123 63.883, 123 64.781 C 123 65.231, 123.563 66.193, 124.250 66.918 C 125.247 67.969, 125.049 67.963, 123.269 66.889 C 120.725 65.354, 119.584 63.232, 121.329 63.282 C 124.159 63.362, 126 62.941, 126 62.214 C 126 61.782, 125.100 61.429, 124 61.429 C 122.900 61.429, 122 61.767, 122 62.182 C 122 62.997, 95.421 62.404, 90.500 61.479 C 81.870 59.856, 70.070 56.696, 70.435 56.105 C 71.238 54.805, 49.080 54.618, 45.750 55.895 C 44.237 56.476, 43 57.412, 43 57.975 C 43 58.539, 41.848 59, 40.441 59 C 38.990 59, 38.149 58.567, 38.500 58 C 38.840 57.450, 38.390 57, 37.500 57 C 36.610 57, 36.128 57.399, 36.429 57.886 C 36.730 58.373, 35.873 58.982, 34.523 59.240 C 33.174 59.498, 31.865 59.212, 31.614 58.605 C 31.363 57.997, 31.122 58.206, 31.079 59.069 C 31.017 60.292, 30.008 60.580, 26.500 60.373 C 21.963 60.106, 19.947 62.275, 23.474 63.629 C 24.739 64.114, 24.750 64.393, 23.546 65.597 C 21.637 67.505, 20.751 67.361, 21.421 65.250 C 21.848 63.903, 21.403 63.500, 19.488 63.500 C 18.120 63.500, 17 63.837, 17 64.250 C 17 64.662, 17.477 65, 18.059 65 C 18.641 65, 18.849 65.435, 18.521 65.966 C 18.154 66.560, 16.689 66.396, 14.712 65.539 C 12.945 64.773, 10.600 63.831, 9.500 63.445 C 7.801 62.850, 8.026 62.604, 11 61.809 C 16.423 60.360, 19.440 55, 14.833 55 C 13.642 55, 12.963 55.296, 13.325 55.658 C 13.687 56.020, 13.481 56.920, 12.869 57.658 C 11.533 59.268, 8.587 59.477, 9.566 57.893 C 10.027 57.148, 9.556 57.006, 8.127 57.460 C 6.959 57.830, 4.653 58.172, 3.002 58.219 L 0 58.304 0 129.152 L 0 200 133.750 199.884 C 207.313 199.820, 266.712 199.562, 265.750 199.311 C 264.788 199.059, 264 198.410, 264 197.868 C 264 197.326, 264.450 197.160, 265 197.500 C 265.550 197.840, 266 197.431, 266 196.590 C 266 195.550, 265.442 195.274, 264.250 195.725 C 262.719 196.305, 262.741 196.145, 264.429 194.444 C 265.489 193.375, 266.839 192.500, 267.429 192.500 C 268.018 192.500, 268.647 191.465, 268.826 190.200 C 269.030 188.763, 269.780 187.958, 270.826 188.055 C 274.606 188.406, 277.458 186.808, 275.548 185.411 C 273.288 183.759, 274.386 182.037, 277.809 181.864 L 280.500 181.728 278 181.268 C 276.625 181.015, 274.992 180.392, 274.372 179.883 C 273.611 179.258, 273.055 179.682, 272.662 181.185 C 272.341 182.410, 271.820 183.153, 271.502 182.836 C 271.185 182.518, 271.452 181.103, 272.095 179.690 C 273.117 177.449, 273.449 177.306, 274.713 178.570 C 275.510 179.367, 276.632 179.727, 277.208 179.372 C 277.811 178.999, 277.142 178.050, 275.627 177.131 C 272.003 174.932, 272.337 173.377, 276.750 171.901 C 282.357 170.025, 285 169.919, 285 171.568 C 285 172.356, 285.470 173, 286.044 173 C 287.305 173, 286.899 176.215, 285.513 177.206 C 284.970 177.594, 285.467 177.841, 286.618 177.754 C 287.826 177.663, 288.666 176.942, 288.605 176.048 C 288.546 175.179, 289.178 174.608, 290.047 174.747 C 291.112 174.917, 292.066 173.455, 293.110 170.054 C 293.944 167.336, 294.307 165.310, 293.918 165.551 C 293.528 165.792, 292.963 165.345, 292.661 164.559 C 292.359 163.773, 292.650 162.911, 293.306 162.644 C 294.193 162.283, 294.179 162.138, 293.250 162.079 C 292.563 162.036, 292 161.277, 292 160.393 C 292 159.381, 292.551 158.997, 293.488 159.357 C 294.306 159.671, 294.928 159.607, 294.870 159.214 C 294.380 155.928, 297.581 155.104, 298.582 158.258 C 298.992 159.550, 299.819 160.019, 301.096 159.685 C 302.461 159.328, 303 159.711, 303 161.035 C 303 162.051, 303.445 163.157, 303.989 163.493 C 304.532 163.829, 304.738 163.481, 304.446 162.719 C 304.143 161.931, 304.539 161.333, 305.362 161.333 C 306.158 161.333, 306.584 161.920, 306.309 162.637 C 306.034 163.354, 306.752 165.140, 307.904 166.605 C 309.057 168.071, 310 168.759, 310 168.135 C 310 167.511, 310.723 167, 311.607 167 C 312.561 167, 312.999 167.560, 312.685 168.378 C 312.394 169.136, 312.684 170.293, 313.328 170.949 C 314.233 171.870, 313.873 171.987, 311.750 171.462 C 309.996 171.029, 309 171.184, 309 171.892 C 309 172.501, 309.675 173, 310.500 173 C 311.325 173, 312 173.422, 312 173.938 C 312 174.454, 310.899 174.792, 309.554 174.688 C 306.457 174.450, 305.725 176.390, 308.750 176.820 C 309.988 176.995, 311 177.584, 311 178.129 C 311 178.673, 311.450 178.840, 312 178.500 C 313.364 177.657, 313.268 179.332, 311.873 180.727 C 311.113 181.487, 309.946 181.550, 308.287 180.919 C 306.443 180.218, 305.932 180.299, 306.242 181.242 C 306.470 181.934, 307.634 182.644, 308.828 182.820 C 310.023 182.995, 311 183.606, 311 184.177 C 311 184.747, 310.380 184.976, 309.622 184.685 C 308.864 184.394, 307.774 184.626, 307.200 185.200 C 305.911 186.489, 306.760 189, 308.485 189 C 309.183 189, 310.315 189.675, 311 190.500 C 311.685 191.325, 312.752 191.993, 313.372 191.985 C 313.993 191.976, 313.825 191.490, 313 190.904 C 311.838 190.078, 312.101 189.969, 314.167 190.417 C 319.199 191.510, 321.047 189.683, 321.166 183.500 C 321.187 182.400, 321.420 182.063, 321.685 182.750 C 321.950 183.438, 322.595 184, 323.119 184 C 323.648 184, 323.538 183.001, 322.871 181.750 C 321.784 179.710, 321.828 179.628, 323.336 180.872 C 324.945 182.199, 325.754 181.088, 324.264 179.598 C 322.847 178.180, 323.164 173, 324.669 173 C 325.458 173, 326.575 171.650, 327.150 170 C 327.725 168.350, 328.632 167, 329.165 167 C 329.702 167, 329.830 166.041, 329.452 164.849 C 328.902 163.117, 329.094 162.822, 330.437 163.337 C 331.354 163.689, 331.848 163.563, 331.536 163.058 C 331.223 162.552, 331.432 161.851, 332 161.500 C 332.568 161.149, 332.774 160.443, 332.457 159.931 C 331.668 158.653, 332.307 158.759, 335.549 160.441 C 337.968 161.696, 338.687 161.696, 341.114 160.441 C 344.155 158.868, 346.362 158.485, 344.088 159.925 C 342.888 160.684, 342.913 161.056, 344.257 162.400 C 345.263 163.406, 345.973 163.581, 346.206 162.881 C 346.433 162.201, 347.084 162.396, 347.909 163.390 C 349.042 164.755, 349.003 165, 347.654 165 C 345.415 165, 346.653 167.676, 349.200 168.342 C 351.111 168.842, 351.142 169.001, 349.622 170.521 C 348.720 171.423, 348.237 172.575, 348.550 173.081 C 348.862 173.586, 348.606 174, 347.981 174 C 347.275 174, 346.968 175.423, 347.172 177.750 C 347.458 181.018, 347.243 181.462, 345.500 181.208 C 343.846 180.967, 343.759 181.097, 345 181.958 C 346.760 183.180, 344.510 185.348, 342.315 184.546 C 341.663 184.307, 340.966 184.602, 340.767 185.200 C 340.515 185.955, 339.656 185.900, 337.952 185.021 C 335.922 183.973, 335.715 183.983, 336.750 185.078 C 338.241 186.655, 338.419 188.377, 337 187.500 C 335.336 186.471, 335.879 188.736, 337.750 190.623 C 339.204 192.089, 339.231 192.286, 337.909 191.787 C 335.229 190.773, 333.832 192.414, 336.145 193.858 C 337.280 194.567, 337.911 194.664, 337.546 194.074 C 337.181 193.483, 337.535 193, 338.334 193 C 339.133 193, 340.059 193.712, 340.393 194.582 C 341.297 196.937, 341.152 197.272, 339.500 196.638 C 338.675 196.322, 338 196.499, 338 197.031 C 338 197.564, 338.675 198, 339.500 198 C 340.325 198, 341 198.457, 341 199.015 C 341 199.685, 351.119 199.940, 370.750 199.765 L 400.500 199.500 400.757 128.077 C 400.898 88.794, 400.811 56.856, 400.563 57.104 C 400.315 57.351, 400.025 61.509, 399.919 66.343 C 399.802 71.648, 399.245 75.613, 398.513 76.344 C 397.563 77.294, 397.593 77.830, 398.650 78.818 C 399.393 79.511, 399.964 80.624, 399.921 81.289 C 399.862 82.195, 399.715 82.185, 399.338 81.250 C 399.060 80.563, 398.083 80.007, 397.167 80.015 C 395.723 80.029, 395.701 80.163, 397 81.015 C 398.248 81.835, 398.271 82.148, 397.137 82.879 C 395.986 83.621, 395.986 83.855, 397.137 84.379 C 398.198 84.862, 398.222 85.130, 397.244 85.585 C 396.553 85.907, 396.190 86.498, 396.437 86.899 C 396.685 87.299, 395.225 87.527, 393.194 87.404 C 391.162 87.282, 390.063 87.404, 390.750 87.674 C 391.438 87.945, 392 89.056, 392 90.142 C 392 91.229, 392.445 91.843, 392.989 91.507 C 393.555 91.157, 393.723 91.558, 393.382 92.448 C 392.721 94.170, 391 94.569, 391 93 C 391 92.450, 390.495 92, 389.878 92 C 389.087 92, 389.113 92.431, 389.964 93.456 C 391.463 95.263, 390.500 97, 388 97 C 386.965 97, 385.843 97.445, 385.507 97.989 C 385.144 98.576, 385.593 98.710, 386.612 98.319 C 387.776 97.872, 388.096 98.036, 387.605 98.830 C 387.142 99.579, 387.624 100, 388.941 100 C 391.147 100, 391.754 102.416, 389.845 103.595 C 389.171 104.012, 388.961 103.872, 389.340 103.259 C 389.697 102.682, 389.262 101.931, 388.375 101.590 C 387.086 101.096, 386.859 101.484, 387.249 103.521 C 387.714 105.955, 387.651 105.994, 385.868 104.381 C 384.183 102.856, 383.548 103.134, 383.882 105.250 C 383.947 105.662, 383.598 106, 383.107 106 C 382.616 106, 381.931 106.739, 381.584 107.641 C 381.054 109.024, 381.198 109.080, 382.501 107.999 C 383.352 107.293, 384.332 106.998, 384.678 107.344 C 385.024 107.691, 383.677 108.655, 381.686 109.487 C 377.163 111.376, 376.510 111.385, 378.179 109.535 C 381.905 105.402, 382.216 104.816, 381.210 103.810 C 380.511 103.111, 379.811 103.484, 379.007 104.987 C 378.022 106.827, 377.131 107.131, 373.573 106.844 C 369.934 106.550, 369.383 106.752, 369.772 108.239 C 370.023 109.195, 370.626 109.731, 371.114 109.430 C 371.601 109.128, 372 109.316, 372 109.847 C 372 110.378, 372.970 110.559, 374.156 110.249 C 375.649 109.859, 376.089 110.046, 375.587 110.859 C 375.188 111.504, 374.474 111.793, 374 111.500 C 373.526 111.207, 372.856 111.425, 372.510 111.984 C 372.165 112.543, 372.696 113.014, 373.691 113.030 C 375.403 113.059, 375.406 113.115, 373.742 114.085 C 372.775 114.648, 371.538 114.832, 370.992 114.495 C 370.446 114.158, 370 114.584, 370 115.441 C 370 116.298, 369.325 117, 368.500 117 C 367.675 117, 367 116.325, 367 115.500 C 367 114.675, 366.564 114, 366.031 114 C 365.499 114, 365.322 114.675, 365.638 115.500 C 365.955 116.325, 365.716 117, 365.107 117 C 364.498 117, 364 117.498, 364 118.107 C 364 118.716, 364.675 118.955, 365.500 118.638 C 368.152 117.621, 367.105 118.740, 363.250 121.044 C 361.159 122.294, 360.053 123.480, 360.750 123.726 C 361.438 123.968, 362 124.831, 362 125.642 C 362 126.454, 361.581 126.859, 361.069 126.543 C 360.557 126.226, 359.856 126.425, 359.510 126.984 C 359.165 127.543, 359.584 128, 360.441 128 C 362.415 128, 362.475 129.604, 360.529 130.351 C 359.720 130.661, 358.370 130.227, 357.529 129.386 C 356.688 128.545, 356 128.284, 356 128.806 C 356 130.423, 358.896 132.254, 360.487 131.643 C 361.319 131.324, 362 131.499, 362 132.031 C 362 132.564, 360.930 133, 359.622 133 C 358.314 133, 355.727 133.617, 353.872 134.370 C 352.017 135.124, 349.825 135.512, 349 135.233 C 348.175 134.954, 347.725 134.900, 348 135.113 C 348.275 135.326, 349.810 136.625, 351.411 138 C 353.012 139.375, 353.998 139.938, 353.602 139.250 C 353.125 138.422, 353.576 138, 354.941 138 C 357.551 138, 357.576 139.159, 355 140.768 C 353.900 141.455, 353 142.640, 353 143.401 C 353 145.120, 349.674 146.522, 349.172 145.015 C 348.920 144.259, 348.310 144.319, 347.216 145.208 C 345.846 146.321, 345.724 146.238, 346.335 144.609 C 346.756 143.489, 346.428 141.776, 345.530 140.406 C 344.697 139.134, 344.056 137.059, 344.106 135.796 C 344.157 134.533, 343.554 130.350, 342.768 126.500 C 340.785 116.793, 346.814 97.581, 354.549 88.959 C 356.037 87.301, 362.175 76.456, 364.477 71.420 C 366.058 67.961, 369.875 64.162, 368.750 67.167 C 368.372 68.178, 368.717 69.061, 369.627 69.410 C 370.452 69.727, 370.847 70.439, 370.504 70.993 C 370.162 71.547, 370.273 72, 370.750 72 C 371.227 72, 372.491 72.708, 373.559 73.574 C 374.626 74.440, 374.938 74.863, 374.250 74.515 C 373.563 74.167, 373 74.359, 373 74.941 C 373 75.523, 373.477 76, 374.059 76 C 374.641 76, 374.840 76.450, 374.500 77 C 374.160 77.550, 374.359 78, 374.941 78 C 375.993 78, 376.394 76.106, 376.052 72.750 C 375.948 71.729, 376.550 71, 377.496 71 C 378.431 71, 378.827 70.529, 378.431 69.888 C 378.053 69.277, 378.364 68.347, 379.122 67.823 C 380.099 67.146, 379.845 67.053, 378.250 67.502 C 376.927 67.874, 376 67.695, 376 67.067 C 376 66.480, 376.675 66, 377.500 66 C 378.325 66, 379 65.550, 379 65 C 379 63.523, 377.423 63.786, 376 65.500 C 375.315 66.325, 374.248 66.986, 373.628 66.968 C 373.007 66.951, 373.699 65.881, 375.164 64.590 L 377.829 62.243 375.643 61.247 C 372.914 60.004, 372.457 55.951, 374.582 51.841 C 376.203 48.707, 376.276 48.437, 377.485 41.160 C 378.316 36.159, 377.249 36.320, 369.750 42.329 C 367.688 43.982, 365.686 45.020, 365.302 44.636 C 364.918 44.252, 364.034 44.964, 363.337 46.219 C 362.280 48.123, 362.065 48.201, 362.035 46.691 C 362.016 45.696, 361.551 45.160, 361.002 45.499 C 360.453 45.838, 359.035 45.438, 357.852 44.609 C 355.888 43.233, 355.866 43.113, 357.600 43.234 C 360.957 43.467, 365.160 41.974, 364.696 40.713 C 364.451 40.046, 363.744 39.613, 363.125 39.750 C 362.506 39.888, 362 39.550, 362 39 C 362 38.450, 360.762 37.993, 359.250 37.985 C 357.738 37.976, 355.884 37.579, 355.132 37.103 C 353.150 35.847, 349.667 39.712, 349.667 43.167 C 349.667 46.343, 348.855 46.735, 346.972 44.467 C 345.662 42.887, 343.512 42.959, 343.485 44.583 C 343.476 45.087, 343.166 45.975, 342.796 46.556 C 342.420 47.144, 343.643 48.430, 345.561 49.463 C 348.872 51.246, 350.081 53, 348 53 C 347.450 53, 347 52.544, 347 51.986 C 347 51.413, 345.722 51.197, 344.061 51.489 C 342.445 51.774, 340.855 51.575, 340.529 51.047 C 339.685 49.681, 337 50.928, 337 52.686 C 337 53.812, 337.765 54.008, 340.250 53.519 C 342.760 53.024, 343.158 53.130, 342 53.984 C 340.780 54.883, 340.967 55.034, 343 54.795 C 345.569 54.492, 345.721 54.882, 344.548 58.750 C 343.993 60.578, 344.253 61, 345.933 61 C 347.070 61, 348 61.436, 348 61.969 C 348 63.070, 345.445 62.307, 342.527 60.334 C 340.240 58.787, 338.622 58.579, 339.463 59.939 C 339.782 60.456, 339.134 60.810, 338.022 60.727 C 336.910 60.643, 336 60.165, 336 59.665 C 336 59.164, 335.304 59.333, 334.453 60.039 C 333.208 61.072, 333.159 61.506, 334.203 62.256 C 335.127 62.921, 334.974 63.018, 333.668 62.594 C 332.661 62.267, 331.593 62, 331.296 62 C 330.998 62, 331.373 61.230, 332.128 60.289 C 332.974 59.234, 332.183 59.502, 330.066 60.988 C 327.568 62.741, 325.562 63.321, 322.705 63.115 C 319.762 62.902, 318.972 63.145, 319.553 64.085 C 320.098 64.968, 319.835 65.150, 318.664 64.701 C 317.459 64.239, 317 64.606, 317 66.031 C 317 67.114, 316.606 68, 316.125 68 C 315.644 68, 315.250 66.875, 315.250 65.500 C 315.250 64.125, 315.558 63, 315.934 63 C 316.310 63, 317.491 62.324, 318.559 61.498 C 320.470 60.018, 320.469 60.006, 318.500 60.694 C 314.985 61.922, 311.453 63.987, 312.857 63.994 C 313.699 63.998, 313.977 64.618, 313.590 65.627 C 313.246 66.521, 313.514 67.984, 314.185 68.877 C 315.209 70.241, 315.180 70.300, 314.002 69.250 C 312.577 67.980, 310.109 67.443, 311.337 68.670 C 311.705 69.039, 311.351 70.341, 310.550 71.564 C 309.182 73.651, 309.229 73.759, 311.296 73.308 C 312.920 72.953, 313.140 73.082, 312.130 73.796 C 311.010 74.590, 311.101 74.974, 312.630 75.908 C 313.942 76.709, 314.053 77.007, 313 76.906 C 309.149 76.538, 307.455 77.001, 309 78 C 309.825 78.533, 310.012 78.976, 309.417 78.985 C 308.821 78.993, 308.333 79.668, 308.333 80.484 C 308.333 81.621, 308.651 81.704, 309.691 80.842 C 310.437 80.222, 311.337 80.004, 311.691 80.357 C 312.044 80.711, 311.822 81, 311.198 81 C 309.428 81, 310.959 83.852, 313.092 84.529 C 314.142 84.862, 315 85.603, 315 86.174 C 315 86.746, 314.247 86.925, 313.326 86.572 C 310.455 85.470, 302.806 87.052, 303.409 88.623 C 304.100 90.424, 303.508 90.365, 301.585 88.443 C 300.508 87.365, 299.522 87.168, 298.386 87.804 C 297.264 88.431, 297.101 88.945, 297.872 89.421 C 298.492 89.804, 299.007 89.529, 299.015 88.809 C 299.026 87.858, 299.296 87.910, 300 89 C 301.395 91.159, 301.259 91.569, 298.750 92.780 C 297.142 93.555, 296.964 93.884, 298.125 93.932 C 299.120 93.974, 300.029 95.261, 300.468 97.250 C 300.864 99.037, 301.407 99.938, 301.677 99.250 C 301.946 98.563, 302.634 98, 303.206 98 C 303.836 98, 303.758 98.586, 303.008 99.490 C 302.265 100.385, 300.419 100.885, 298.388 100.740 C 294.533 100.467, 294.622 100.589, 296.146 97.684 C 297.255 95.569, 297.229 95.555, 295.317 97.250 C 293.138 99.181, 291 99.553, 291 98 C 291 97.450, 290.564 97, 290.031 97 C 289.499 97, 289.322 97.675, 289.638 98.500 C 290.338 100.323, 288.898 100.462, 287.053 98.750 C 285.976 97.750, 285.848 97.750, 286.412 98.750 C 286.800 99.438, 286.615 100, 286 100 C 285.385 100, 285.160 100.450, 285.500 101 C 285.840 101.550, 285.589 102, 284.942 102 C 284.239 102, 283.952 101.031, 284.228 99.586 C 284.868 96.241, 281.125 94.166, 277.461 95.836 C 276.056 96.476, 274.670 97, 274.382 97 C 273.468 97, 276.474 94.342, 277.939 93.854 C 278.711 93.596, 279.415 92.397, 279.505 91.189 C 279.661 89.070, 279.593 89.054, 277.583 90.735 C 276.437 91.694, 275.834 92.075, 276.241 91.581 C 276.649 91.088, 276.516 90.122, 275.946 89.435 C 275.167 88.496, 275.791 87.894, 278.454 87.015 C 282.113 85.808, 283.561 81.800, 280.750 80.659 C 279.787 80.269, 279.820 79.929, 280.893 79.178 C 281.701 78.614, 282.055 77.320, 281.737 76.101 C 281.434 74.944, 281.595 74.249, 282.093 74.558 C 282.960 75.093, 283.445 73.570, 283.052 71.550 C 282.950 71.028, 282.826 67.428, 282.777 63.550 C 282.727 59.673, 282.310 55.749, 281.851 54.831 C 281.349 53.827, 281.429 53.024, 282.052 52.816 C 282.622 52.626, 283.162 51.496, 283.252 50.304 C 283.342 49.113, 283.721 48.327, 284.094 48.558 C 284.467 48.789, 285.008 48.076, 285.297 46.974 C 285.675 45.527, 285.080 44.568, 283.160 43.525 C 281.697 42.730, 280.837 42.006, 281.250 41.915 C 281.663 41.824, 282.450 41.638, 283 41.500 C 283.550 41.362, 284.470 41.194, 285.044 41.125 C 286.293 40.975, 285.913 37.848, 284.500 36.656 C 283.906 36.154, 284.146 36.015, 285.091 36.313 C 287.217 36.984, 288.576 35.996, 289.472 33.125 C 289.950 31.594, 289.851 30.974, 289.193 31.381 C 288.631 31.728, 288.020 31.570, 287.835 31.030 C 287.651 30.489, 285.797 29.830, 283.717 29.565 C 281.095 29.231, 280.144 29.425, 280.621 30.196 C 281.038 30.871, 280.854 31.028, 280.155 30.595 C 279.520 30.203, 279 28.976, 279 27.870 C 279 26.040, 278.857 26, 277.429 27.429 C 275.658 29.200, 272.433 29.510, 271.500 28 C 271.160 27.450, 269.784 27, 268.441 27 C 267.098 27, 266 27.450, 266 28 C 266 28.550, 265.498 29, 264.883 29 C 264.259 29, 263.997 28.118, 264.290 27 C 264.885 24.724, 263.995 24.415, 262.129 26.250 C 261.110 27.251, 260.921 27.232, 261.179 26.155 C 261.409 25.189, 260.007 24.706, 256.216 24.442 C 253.309 24.241, 250.528 23.826, 250.035 23.521 C 249.542 23.217, 248.839 23.451, 248.474 24.043 C 248.108 24.634, 246.839 24.993, 245.654 24.840 C 244.470 24.687, 242.969 24.893, 242.319 25.297 C 241.670 25.702, 240.856 25.575, 240.510 25.016 C 239.325 23.098, 237.883 23.913, 238.947 25.900 C 240.429 28.671, 238.147 29.197, 228.169 28.388 C 222.981 27.967, 219.921 28.063, 220.275 28.636 C 220.593 29.150, 220.099 29.598, 219.177 29.631 C 218.254 29.664, 215.700 29.804, 213.500 29.942 C 211.300 30.081, 208.938 30.150, 208.250 30.097 C 206.282 29.944, 206.792 28, 208.800 28 C 209.790 28, 211.028 27.608, 211.550 27.129 C 213.275 25.548, 217.809 24.928, 218.238 26.215 C 218.515 27.044, 219.499 26.752, 221.356 25.292 C 223.740 23.417, 223.853 23.091, 222.285 22.613 C 219.324 21.711, 210 22.122, 210 23.155 C 210 23.685, 209.451 23.778, 208.779 23.364 C 206.909 22.207, 199.098 22.033, 198.418 23.132" stroke="none" fill="#1a1a2e" fill-rule="evenodd"/>
</svg>