<svg xmlns="http://www.w3.org/2000/svg" width="400" height="235" viewBox="0 0 400 235" version="1.1">
	<path d="M 0 117.502 L 0 235.005 200.250 234.752 L 400.500 234.500 400.754 117.250 L 401.008 0 200.504 0 L 0 0 0 117.502 M 321.669 60.239 C 317.652 62.235, 316.009 63.581, 316.388 64.568 C 316.717 65.426, 316.324 66, 315.410 66 C 314.569 66, 314.161 65.549, 314.501 64.998 C 314.842 64.447, 313.518 64.942, 311.560 66.097 C 307.600 68.434, 306.557 71.593, 310.118 70.462 C 311.634 69.982, 312.111 70.168, 311.794 71.117 C 311.219 72.843, 306.845 73.948, 305.298 72.759 C 303.388 71.291, 299.790 72.954, 295.956 77.076 C 292.376 80.925, 287.595 82.771, 286.364 80.779 C 285.930 80.077, 285.236 80.324, 284.390 81.482 C 283.422 82.806, 282.299 83.110, 280.042 82.658 C 277.753 82.201, 277 82.415, 277 83.525 C 277 84.336, 277.354 85, 277.787 85 C 278.220 85, 278.642 85.900, 278.725 87 C 278.875 88.986, 277.570 89.732, 276.624 88.201 C 275.877 86.992, 266.241 87.555, 264.617 88.903 C 263.515 89.818, 263.073 89.793, 262.655 88.792 C 262.255 87.833, 261.831 87.951, 261.008 89.250 C 260.359 90.275, 258.782 90.952, 257.200 90.884 C 255.507 90.811, 255.153 90.597, 256.250 90.311 C 258.185 89.805, 258.545 88.455, 257 87.500 C 256.450 87.160, 256 87.314, 256 87.841 C 256 88.828, 249.806 88.616, 248.116 87.572 C 247.596 87.250, 246.966 87.553, 246.716 88.244 C 246.352 89.249, 245.832 89.246, 244.108 88.227 C 242.094 87.037, 242.036 87.086, 243.218 88.977 C 244.360 90.806, 249.518 91.839, 253.500 91.035 C 254.050 90.924, 254.131 91.203, 253.679 91.654 C 252.855 92.478, 252.446 92.567, 248.191 92.848 C 246.895 92.933, 246.160 93.450, 246.515 94.025 C 247.320 95.327, 244.756 94.841, 243.750 93.500 C 243.250 92.833, 242.750 92.833, 242.250 93.500 C 241.212 94.884, 233 95.175, 233 93.828 C 233 93.180, 232.353 93.292, 231.364 94.112 C 230.465 94.859, 229.041 95.477, 228.201 95.485 C 227.360 95.493, 226.483 96.063, 226.253 96.751 C 225.986 97.545, 226.411 97.780, 227.416 97.394 C 228.287 97.059, 229 97.274, 229 97.870 C 229 98.466, 227.537 98.907, 225.750 98.849 C 220.818 98.690, 219.825 98.907, 220.500 100 C 220.840 100.550, 220.641 101, 220.059 101 C 219.477 101, 219 100.277, 219 99.393 C 219 98.248, 218.496 97.998, 217.250 98.523 C 214.669 99.610, 208.678 99.091, 207.796 97.704 C 207.203 96.772, 207.027 96.776, 207.015 97.724 C 206.995 99.367, 201.967 101.752, 199.632 101.227 C 198.604 100.997, 197.998 101.188, 198.286 101.654 C 198.914 102.671, 188.196 102.612, 185.851 101.585 C 184.899 101.169, 183.883 101.381, 183.447 102.086 C 182.932 102.920, 183.108 103.051, 184 102.500 C 184.866 101.965, 185.068 102.082, 184.595 102.845 C 183.616 104.431, 182.436 104.293, 180.512 102.369 C 179.004 100.861, 178.836 100.910, 178.285 103.017 C 177.722 105.170, 177.617 105.196, 176.364 103.484 C 174.753 101.281, 167 102.983, 167 105.540 C 167 106.546, 165.894 107, 163.441 107 C 161.478 107, 160.142 106.579, 160.462 106.061 C 160.781 105.545, 160.245 104.671, 159.271 104.118 C 155.870 102.188, 159.860 100.037, 168.046 99.386 C 179.316 98.490, 180.360 96.809, 169.218 97.499 C 159.585 98.096, 155 99.217, 155 100.975 C 155 101.539, 154.270 102, 153.378 102 C 151.981 102, 151.946 101.768, 153.128 100.331 C 154.943 98.125, 148.541 99.200, 145.960 101.536 C 145.041 102.368, 143.571 102.772, 142.693 102.435 C 141.814 102.098, 140.512 102.193, 139.798 102.646 C 139.084 103.099, 137.825 103.483, 137 103.500 C 136.175 103.517, 134.938 103.888, 134.250 104.324 C 133.563 104.761, 132.547 104.838, 131.993 104.496 C 131.439 104.153, 130.727 104.548, 130.410 105.373 C 130.085 106.221, 129.174 106.620, 128.316 106.291 C 127.481 105.971, 126.506 106.155, 126.149 106.700 C 125.792 107.246, 124.184 108.015, 122.575 108.409 C 119.201 109.236, 120.519 106.605, 124.039 105.488 C 125.202 105.119, 125.678 104.324, 125.310 103.365 C 124.986 102.522, 124.447 102.260, 124.111 102.782 C 122.993 104.520, 115.539 107.619, 112.734 107.512 C 111.212 107.454, 110.127 107.877, 110.321 108.453 C 110.514 109.029, 112.359 109.439, 114.421 109.365 C 118.745 109.210, 118.105 110.246, 112.838 111.928 C 110.825 112.571, 108.919 113.769, 108.603 114.591 C 108.145 115.785, 107.605 115.859, 105.919 114.957 C 104.175 114.023, 103.474 114.188, 101.872 115.907 C 100.806 117.051, 98.139 118.274, 95.945 118.625 C 91.689 119.305, 89.972 120.746, 91.956 121.973 C 92.840 122.519, 92.728 122.890, 91.541 123.346 C 90.267 123.835, 90.140 124.394, 90.957 125.919 C 92.378 128.574, 92.269 130.317, 90.720 129.723 C 89.877 129.399, 89.450 130.122, 89.470 131.838 C 89.504 134.806, 86.815 135.921, 84.419 133.932 C 83.125 132.858, 83.218 132.397, 85.141 130.350 C 87.584 127.749, 87.343 127.539, 83.565 128.975 C 82.050 129.551, 81 129.575, 81 129.033 C 81 128.094, 77.787 128.395, 75.996 129.502 C 75.448 129.841, 75 130.718, 75 131.452 C 75 132.186, 74.278 133.063, 73.396 133.401 C 72.514 133.740, 72.031 134.638, 72.323 135.398 C 72.680 136.328, 71.831 136.984, 69.724 137.405 C 66.745 138.001, 62 141.500, 62 143.101 C 62 144.290, 65.284 144.714, 67.750 143.844 C 68.987 143.407, 70 143.227, 70 143.443 C 70 144.377, 62.376 148.452, 61.150 148.173 C 60.407 148.004, 60.068 148.301, 60.396 148.832 C 61.353 150.380, 54.373 155.839, 50.510 156.564 C 46.100 157.391, 44.930 158.985, 48.691 159.044 C 50.990 159.080, 46.104 161.754, 43.318 161.985 C 42.270 162.072, 44.174 167.722, 45.655 168.922 C 48.522 171.243, 102.814 170.515, 109.500 168.066 L 112.500 166.967 110 168.961 C 108.625 170.058, 107.162 170.966, 106.750 170.978 C 106.338 170.990, 106 171.450, 106 172 C 106 173.334, 115.486 173.233, 120.500 171.845 C 122.700 171.236, 131.025 170.433, 139 170.059 C 146.975 169.686, 154.400 168.884, 155.500 168.278 C 157.441 167.208, 181.674 163.575, 193.201 162.625 C 203.383 161.785, 203.640 159.972, 193.500 160.514 L 184.500 160.996 200.500 157.966 C 209.300 156.299, 218.975 154.005, 222 152.868 C 226.020 151.358, 230.191 150.752, 237.500 150.616 C 243.430 150.506, 248.441 149.908, 249.813 149.147 C 251.084 148.440, 253.463 147.825, 255.098 147.778 C 256.733 147.732, 258.307 147.313, 258.595 146.847 C 258.883 146.381, 260.018 146, 261.118 146 C 262.218 146, 262.899 145.645, 262.631 145.212 C 262.363 144.779, 263.574 143.859, 265.322 143.169 C 267.070 142.478, 269.774 141.258, 271.331 140.457 C 272.888 139.656, 274.752 139, 275.474 139 C 276.196 139, 277.045 138.325, 277.362 137.500 C 277.678 136.675, 278.626 136, 279.469 136 C 280.311 136, 281 135.550, 281 135 C 281 134.450, 281.675 134, 282.500 134 C 283.325 134, 284.900 133.100, 286 132 C 287.100 130.900, 288.563 129.971, 289.250 129.937 C 289.938 129.902, 289.375 129.382, 288 128.782 L 285.500 127.691 288.500 126.964 L 291.500 126.237 288.500 126.041 C 285.562 125.850, 285.582 125.819, 289.500 124.528 C 292.334 123.594, 292.844 123.179, 291.250 123.105 C 288.608 122.982, 288.136 120.017, 290.750 119.965 C 292.118 119.937, 291.981 119.642, 290.125 118.613 C 287.779 117.312, 287.821 117.254, 293.666 113.703 C 301.524 108.929, 302.857 108.479, 316.484 106.003 C 329.958 103.554, 332.585 102.568, 333.474 99.628 C 334.106 97.535, 334.130 97.533, 334.951 99.500 C 335.717 101.336, 335.844 101.357, 336.500 99.750 C 336.893 98.787, 337.916 98, 338.774 98 C 339.631 98, 340.037 97.704, 339.675 97.342 C 339.313 96.980, 339.528 96.069, 340.151 95.318 C 340.775 94.566, 341.003 93.670, 340.658 93.325 C 340.313 92.980, 340.812 92.105, 341.766 91.381 C 342.719 90.656, 342.968 90.049, 342.318 90.032 C 341.110 89.999, 341.123 85.543, 342.335 84.332 C 343.548 83.118, 343.023 82.054, 341.500 82.638 C 339.797 83.292, 339.436 81.467, 341.068 80.458 C 341.656 80.095, 341.895 79.168, 341.600 78.399 C 341.304 77.629, 341.514 77, 342.067 77 C 342.729 77, 342.719 76.344, 342.039 75.072 C 341.471 74.012, 341.309 72.359, 341.677 71.399 C 342.199 70.040, 341.964 69.800, 340.622 70.315 C 339.666 70.682, 339.149 70.567, 339.464 70.058 C 339.777 69.552, 339.568 68.851, 339 68.500 C 338.432 68.149, 338.210 67.469, 338.507 66.989 C 339.443 65.473, 336.581 58.006, 335.007 57.858 C 328.996 57.289, 326.826 57.677, 321.669 60.239" stroke="none" fill="#1a1a2e" fill-rule="evenodd"/>
</svg>