<svg xmlns="http://www.w3.org/2000/svg" width="400" height="241" viewBox="0 0 400 241" version="1.1">
	<path d="M -0 120.502 L -0 241.005 200.250 240.752 L 400.500 240.500 400.754 120.250 L 401.008 0 200.504 0 L 0 0 -0 120.502 M 183.880 69.238 C 185.009 70.696, 185.006 71.044, 183.863 71.394 C 180.916 72.298, 167.294 74.266, 163.750 74.300 C 161.688 74.320, 160 74.598, 160 74.918 C 160 75.238, 158.088 75.540, 155.750 75.589 C 150.158 75.706, 141.348 76.844, 137.094 78 C 135.220 78.509, 133.339 78.710, 132.913 78.446 C 132.487 78.183, 131.856 78.425, 131.510 78.984 C 131.165 79.543, 129.784 80, 128.441 80 C 127.098 80, 126 80.450, 126 81 C 126 81.550, 126.900 82, 128 82 C 129.906 82, 130.467 83.349, 130.077 87 C 129.934 88.333, 130.032 88.333, 130.958 87 C 131.778 85.819, 132.175 85.770, 132.821 86.770 C 133.423 87.700, 134.500 87.097, 136.846 84.520 C 138.607 82.584, 140.488 81, 141.024 81 C 142.668 81, 142.107 83.841, 140.258 84.875 C 137.825 86.237, 139.369 87.408, 141.849 86.081 C 144.649 84.582, 146 84.730, 146 86.535 C 146 87.673, 146.452 87.838, 147.750 87.170 C 148.713 86.675, 150.125 86.493, 150.889 86.765 C 151.774 87.080, 152.011 86.826, 151.541 86.067 C 151.136 85.411, 151.593 84.002, 152.557 82.937 C 153.521 81.872, 153.945 81, 153.500 81 C 153.055 81, 153.448 80.162, 154.375 79.138 C 155.302 78.114, 157.059 77.352, 158.280 77.446 C 159.501 77.539, 161.073 77.189, 161.773 76.667 C 162.710 75.967, 162.880 76.150, 162.416 77.359 C 161.670 79.302, 163.046 79.515, 164.947 77.750 C 166.024 76.750, 166.152 76.750, 165.588 77.750 C 164.741 79.251, 166.125 79.402, 167.792 77.992 C 168.447 77.437, 168.784 77.266, 168.539 77.611 C 167.905 78.507, 170.825 81.226, 171.785 80.633 C 172.225 80.361, 172.648 80.982, 172.726 82.012 C 172.820 83.258, 172.387 83.702, 171.434 83.336 C 169.447 82.574, 169.643 83.700, 171.923 86.148 C 173.076 87.386, 174.346 87.904, 175.093 87.442 C 175.967 86.903, 176.149 87.170, 175.701 88.336 C 174.863 90.520, 175.580 90.435, 179.096 87.932 C 181.966 85.888, 183.123 86.477, 180.800 88.800 C 179.867 89.733, 179.876 90, 180.842 90 C 181.525 90, 182.980 90.835, 184.075 91.855 C 186.091 93.733, 191 93.712, 191 91.824 C 191 91.306, 190.438 91.211, 189.750 91.613 C 189.063 92.015, 189.288 91.442, 190.252 90.341 C 191.216 89.239, 191.666 87.981, 191.252 87.545 C 190.838 87.108, 191.465 87.048, 192.645 87.410 C 194.012 87.829, 195.371 87.486, 196.395 86.463 C 198.416 84.441, 198.404 84.189, 196.288 84.361 C 194.213 84.529, 193.390 81.440, 194.995 79.506 C 195.848 78.478, 196.812 78.358, 198.643 79.054 C 201.883 80.286, 202 80.267, 202 78.500 C 202 76.684, 203.635 76.509, 204.338 78.250 C 204.655 79.035, 204.871 79.081, 204.921 78.372 C 204.964 77.752, 204.325 76.685, 203.500 76 C 202.675 75.315, 202 74.987, 202 75.271 C 202 77.019, 188.263 72.187, 184.517 69.122 C 182.661 67.604, 182.621 67.611, 183.880 69.238 M 295.401 97.802 C 292.826 99.518, 293.129 101.849, 296.061 102.871 C 297.677 103.435, 299 104.355, 299 104.917 C 299 105.478, 299.675 105.678, 300.500 105.362 C 301.362 105.031, 302 105.342, 302 106.093 C 302 107.085, 302.280 107.120, 303.161 106.239 C 304.209 105.191, 306.719 106.018, 310.985 108.818 C 311.252 108.994, 310.352 110.023, 308.985 111.106 C 307.478 112.300, 307.091 113.014, 308 112.919 C 310.930 112.614, 312 113.018, 312 114.430 C 312 115.217, 313.012 116.087, 314.250 116.363 C 315.488 116.639, 314.813 116.760, 312.750 116.633 C 308.463 116.368, 307.721 117.641, 311.595 118.613 C 314.602 119.368, 313.029 120.959, 309.250 120.985 C 308.012 120.993, 306.948 121.563, 306.885 122.250 C 306.660 124.687, 306.372 125.553, 304.198 130.333 C 301.751 135.713, 301.589 136.372, 302.915 135.553 C 303.418 135.242, 304.019 135.328, 304.251 135.744 C 304.483 136.160, 304.533 135.932, 304.363 135.238 C 304.070 134.041, 304.982 131.235, 307.275 126.284 C 308.461 123.724, 310.407 124.336, 309.698 127.046 C 309.306 128.546, 309.598 128.725, 311.361 128.063 C 312.538 127.621, 314.836 127.406, 316.469 127.585 C 318.102 127.764, 319.782 127.368, 320.203 126.705 C 320.792 125.778, 320.973 125.789, 320.985 126.750 C 320.993 127.438, 321.900 128, 323 128 C 325.109 128, 325.691 129.455, 324 130.500 C 323.450 130.840, 323 131.611, 323 132.214 C 323 132.817, 323.823 132.565, 324.829 131.655 C 330.039 126.939, 339.722 133.878, 334.800 138.800 C 334.140 139.460, 333.897 140, 334.261 140 C 334.625 140, 335.906 138.988, 337.109 137.750 C 339.303 135.492, 339.326 135.722, 337.393 140.500 C 336.994 141.486, 337.373 142, 338.500 142 C 339.613 142, 340.012 141.474, 339.638 140.500 C 339.247 139.480, 339.692 139, 341.031 139 C 343.464 139, 343.531 138.158, 341.250 136.279 C 339.604 134.922, 339.614 134.873, 341.420 135.452 C 342.512 135.802, 343.692 135.514, 344.155 134.784 C 344.789 133.784, 344.973 133.777, 344.985 134.750 C 344.993 135.438, 345.640 136, 346.423 136 C 347.206 136, 349.119 137.048, 350.673 138.330 C 352.228 139.611, 354.400 141.032, 355.500 141.487 C 357.292 142.228, 357.187 142.380, 354.500 142.949 C 352.335 143.408, 351.222 143.143, 350.500 141.997 C 349.363 140.192, 346 140.497, 346 142.404 C 346 144.655, 350.845 146.578, 353.048 145.202 C 355.661 143.570, 356 143.670, 356 146.070 C 356 148.358, 359.998 148.550, 360.739 146.298 C 361.351 144.440, 354.555 138.412, 346.649 133.799 C 342.717 131.505, 337.421 128.137, 334.881 126.314 C 332.340 124.491, 329.837 123, 329.318 123 C 328.799 123, 327.070 121.638, 325.475 119.974 C 323.881 118.310, 322.109 117.123, 321.538 117.336 C 320.967 117.549, 319.600 117.326, 318.500 116.841 C 316.668 116.033, 316.690 115.995, 318.756 116.387 C 320.468 116.713, 319.767 115.694, 315.844 112.158 C 308.221 105.286, 304.721 102.893, 303.165 103.490 C 302.239 103.846, 301.970 103.520, 302.357 102.511 C 302.708 101.597, 302.372 101, 301.508 101 C 300.721 101, 299.261 100.124, 298.263 99.052 C 297.265 97.981, 295.977 97.419, 295.401 97.802" stroke="none" fill="#1a1a2e" fill-rule="evenodd"/>
</svg>