<svg xmlns="http://www.w3.org/2000/svg" width="248" height="150" viewBox="0 0 248 150" version="1.1">
	<path d="M 70.939 40.948 C 67.795 49.571, 65.591 50.400, 67.983 42.060 C 68.523 40.175, 68.778 38.445, 68.549 38.215 C 68.319 37.986, 67.652 39.531, 67.066 41.649 C 66.480 43.767, 65.575 46.162, 65.055 46.971 C 63.296 49.705, 62.988 47.359, 64.462 42.462 C 65.267 39.784, 65.779 37.445, 65.598 37.265 C 65.139 36.806, 63.245 41.894, 62.532 45.500 C 61.980 48.291, 61.365 48.659, 53.719 50.778 C 40.801 54.359, 18.335 66.286, 5.618 76.315 L 1.737 79.377 4.368 81.640 C 7.561 84.387, 7.611 84.771, 4.828 85.180 C 1.779 85.629, 1.447 87.642, 4.189 89.055 C 6.098 90.038, 6.283 90.015, 5.250 88.922 C 3.240 86.796, 3.764 86.141, 7.750 85.802 L 11.500 85.483 7.751 83.144 C 3.686 80.606, 3.646 79, 7.649 79 C 9.066 79, 10.982 78.010, 12.004 76.750 C 13.007 75.513, 14.113 74.784, 14.462 75.131 C 14.810 75.478, 14.420 76.437, 13.595 77.262 C 10.969 79.888, 17.472 81.361, 21 78.940 C 22.247 78.084, 22.163 77.937, 20.500 78.070 C 19.400 78.158, 17.938 78.178, 17.250 78.115 C 15.444 77.949, 15.711 74.325, 17.582 73.607 C 19.872 72.728, 19.975 72.778, 20.969 75.250 C 21.616 76.860, 21.891 77.022, 21.937 75.821 C 21.971 74.898, 21.230 73.372, 20.288 72.431 C 18.672 70.814, 19.038 70.745, 26.823 71.196 C 33.930 71.607, 35.050 71.454, 34.920 70.087 C 34.837 69.214, 34.822 67.996, 34.885 67.380 C 35.025 66.012, 42.386 64.073, 46.500 64.320 C 48.942 64.467, 49.468 64.128, 49.329 62.500 C 49.186 60.825, 49.544 60.980, 51.528 63.452 C 53.734 66.201, 54.020 66.293, 55.698 64.791 C 56.689 63.904, 59.750 62.822, 62.500 62.388 C 65.250 61.953, 67.838 61.520, 68.250 61.424 C 68.662 61.328, 71.298 61.194, 74.107 61.125 C 78.206 61.025, 79.100 60.704, 78.638 59.500 C 78.322 58.675, 78.499 58, 79.031 58 C 79.564 58, 80 58.709, 80 59.576 C 80 60.769, 80.913 61.101, 83.750 60.940 C 85.813 60.823, 88.767 61.239, 90.315 61.864 C 91.863 62.489, 93.974 63, 95.006 63 C 96.038 63, 97.160 63.450, 97.500 64 C 98.399 65.455, 103.997 65.240, 104.015 63.750 C 104.026 62.846, 104.272 62.882, 104.905 63.880 C 105.460 64.757, 106.911 65.093, 108.889 64.803 C 110.600 64.552, 112 64.771, 112 65.290 C 112 65.809, 113.136 66.016, 114.524 65.751 C 115.912 65.485, 117.251 65.598, 117.500 66 C 118.340 67.359, 122.999 65.796, 123.063 64.133 C 123.107 63.021, 123.415 63.217, 124.031 64.750 C 125.480 68.355, 131.719 67.977, 132.284 64.250 C 132.695 61.533, 132.702 61.530, 132.850 64.053 C 133.045 67.365, 142.367 69.898, 144.012 67.085 C 144.850 65.652, 144.942 65.657, 144.970 67.137 C 145.011 69.348, 151 70.341, 151 68.136 C 151 66.815, 151.162 66.824, 152.250 68.204 C 154.113 70.569, 185.327 72.630, 196.129 71.101 C 198.533 70.761, 202.300 70.727, 204.500 71.027 C 208.164 71.526, 207.913 71.636, 201.500 72.343 C 197.650 72.767, 192.475 73.734, 190 74.492 C 187.525 75.250, 181.900 76.631, 177.500 77.561 C 166.003 79.990, 155.170 85.062, 157.906 86.735 C 159.556 87.745, 159.831 87.724, 159.408 86.620 C 158.823 85.097, 174.171 79.775, 179.651 79.600 C 181.384 79.545, 182.622 79.207, 182.403 78.850 C 181.913 78.049, 196.382 74.716, 200.475 74.688 C 202.911 74.670, 204.545 75.909, 209.475 81.508 C 219.273 92.635, 229.029 102.304, 229.740 101.594 C 230.104 101.229, 226.824 97.626, 222.451 93.586 C 218.078 89.545, 213.637 84.752, 212.583 82.933 L 210.666 79.626 214.083 81.983 L 217.500 84.341 214.597 81.206 C 213 79.482, 211.420 78.240, 211.086 78.447 C 210.752 78.654, 209.609 78.188, 208.548 77.411 C 206.658 76.030, 206.661 76, 208.695 76 C 209.837 76, 212.060 75.286, 213.636 74.413 L 216.500 72.827 212 73.428 C 209.287 73.790, 208.030 73.681, 208.835 73.152 C 209.570 72.671, 210.153 71.877, 210.132 71.388 C 210.110 70.900, 211.084 70.616, 212.296 70.757 C 215.522 71.133, 218.010 69.288, 216 68.010 C 212.063 65.508, 211.610 65.056, 212.324 64.342 C 212.746 63.921, 213.932 64.101, 214.960 64.743 C 216.409 65.648, 217.069 65.622, 217.894 64.628 C 218.705 63.651, 218.449 63.364, 216.818 63.423 C 215.300 63.478, 214.459 62.699, 213.924 60.743 C 213.498 59.187, 213.555 58.225, 214.055 58.534 C 214.543 58.835, 215.231 57.929, 215.584 56.520 C 215.938 55.111, 217.835 52.633, 219.800 51.013 C 221.765 49.394, 223.482 47.266, 223.615 46.284 C 223.749 45.303, 219.053 49.576, 213.179 55.781 L 202.500 67.062 196.682 67.031 C 192.107 67.007, 175.545 63.852, 167.240 61.423 C 166.546 61.221, 165.646 60.985, 165.240 60.899 C 164.833 60.814, 162.282 60.085, 159.571 59.280 C 156.860 58.475, 153.935 57.675, 153.071 57.502 C 147.744 56.436, 146.074 55.687, 146.699 54.643 C 147.079 54.010, 146.658 54.088, 145.756 54.819 C 144.580 55.772, 143.597 55.855, 142.219 55.117 C 141.169 54.555, 139.227 53.877, 137.905 53.609 C 126.896 51.384, 124.860 50.522, 125.290 48.267 C 125.651 46.376, 125.371 46.120, 123.467 46.598 C 120.577 47.323, 119.352 45.417, 121.850 44.080 C 123.842 43.014, 125.425 38, 123.769 38 C 123.245 38, 121.671 38.900, 120.273 40 C 117.137 42.466, 115.273 42.615, 117.128 40.250 C 117.882 39.288, 115.918 40.668, 112.762 43.317 C 109.607 45.966, 106.527 47.826, 105.919 47.450 C 105.311 47.074, 103.056 46.791, 100.907 46.821 C 98.758 46.850, 97 46.398, 97 45.815 C 97 45.151, 96.440 45.220, 95.500 46 C 94.291 47.004, 93.997 46.979, 93.985 45.872 C 93.975 45, 93.702 44.883, 93.235 45.550 C 92.296 46.892, 82.740 46.863, 81.765 45.516 C 81.302 44.875, 81.025 44.962, 81.015 45.750 C 80.989 47.903, 79.161 47.111, 78.706 44.750 L 78.272 42.500 78.136 44.750 C 78.059 46.023, 77.349 47, 76.500 47 C 74.757 47, 74.592 45.203, 75.997 41.508 C 76.559 40.030, 76.593 39.134, 76.074 39.454 C 75.568 39.767, 74.852 41.398, 74.483 43.079 C 73.892 45.767, 71.614 47.948, 70.530 46.863 C 70.318 46.652, 70.980 44.013, 72 41 C 74.554 33.456, 73.686 33.413, 70.939 40.948" stroke="none" fill="#1a1a2e" fill-rule="evenodd"/>
</svg>